<svg width="50" height="50" viewBox="0 0 50 50" fill="none" xmlns="http://www.w3.org/2000/svg">
<path d="M0 25C0 38.8071 11.1929 50 25 50C38.8071 50 50 38.8071 50 25C50 11.1929 38.8071 0 25 0C11.1929 0 0 11.1929 0 25Z" fill="#0066FF"/>
<path d="M21.5322 32.9637C21.5731 32.2325 21.614 31.5151 21.6686 30.8116C21.7231 30.0528 21.7777 29.3079 21.8186 28.5491C21.8323 28.3146 21.9141 28.149 22.0914 27.9835C24.8192 25.5141 27.5334 23.0309 30.2612 20.5477C30.3294 20.4787 30.4112 20.4236 30.4658 20.3408C30.5749 20.189 30.4112 19.9545 30.1384 20.0511C29.9338 20.1201 29.8929 20.1615 29.702 20.2856C27.547 21.6514 25.4057 23.0309 23.2507 24.3967C21.9959 25.1968 20.7275 26.0107 19.4727 26.8109C19.3227 26.9074 19.1999 26.9212 19.0363 26.8661C17.6042 26.397 16.1584 25.9418 14.7263 25.4865C14.5899 25.4451 14.4672 25.3899 14.3444 25.3348C13.9216 25.1002 13.8807 24.7416 14.2626 24.438C14.5081 24.2449 14.7945 24.0932 15.0809 23.9828C16.2948 23.5 17.5223 23.0309 18.7362 22.5481C23.3735 20.7409 27.9971 18.9337 32.6344 17.1264C32.7162 17.0989 32.798 17.0575 32.8799 17.0437C33.4391 16.8781 33.971 17.1954 33.9983 17.7886C34.0119 18.2025 33.9437 18.6439 33.8482 19.0578C32.8799 23.6931 31.9115 28.3146 30.9295 32.9499C30.6976 34.0397 29.9884 34.3018 29.1019 33.6396C27.7107 32.605 26.3195 31.5703 24.942 30.5219C24.8601 30.4529 24.7783 30.3977 24.6828 30.3287C24.6283 30.3839 24.5601 30.4253 24.5055 30.4805C23.7963 31.1702 23.1007 31.86 22.3915 32.5498C22.1596 32.7843 21.9141 32.9775 21.5322 32.9637Z" fill="white"/>
</svg>
