<svg width="74" height="74" viewBox="0 0 74 74" fill="none" xmlns="http://www.w3.org/2000/svg">
    <g filter="url(#filter0_d_5829_7405)">
        <path d="M20 37C20 46.3888 27.6112 54 37 54C46.3888 54 54 46.3888 54 37C54 27.6112 46.3888 20 37 20C27.6112 20 20 27.6112 20 37Z" fill="#0066FF"/>
    </g>
    <path d="M44.2251 32.4311C41.6751 28.4999 36.4689 27.3311 32.4314 29.7749C28.5001 32.2186 27.2251 37.5311 29.7751 41.4624L29.9876 41.7811L29.1376 44.9686L32.3251 44.1186L32.6439 44.3311C34.0251 45.0749 35.5126 45.4999 37.0001 45.4999C38.5939 45.4999 40.1876 45.0749 41.5689 44.2249C45.5001 41.6749 46.6689 36.4686 44.2251 32.4311V32.4311ZM41.9939 40.6124C41.5689 41.2499 41.0376 41.6749 40.2939 41.7811C39.8689 41.7811 39.3376 41.9936 37.2126 41.1436C35.4064 40.2936 33.9189 38.9124 32.8564 37.3186C32.2189 36.5749 31.9001 35.6186 31.7939 34.6624C31.7939 33.8124 32.1126 33.0686 32.6439 32.5374C32.8564 32.3249 33.0689 32.2186 33.2814 32.2186H33.8126C34.0251 32.2186 34.2376 32.2186 34.3439 32.6436C34.5564 33.1749 35.0876 34.4499 35.0876 34.5561C35.1939 34.6624 35.1939 34.8749 35.0876 34.9811C35.1939 35.1936 35.0876 35.4061 34.9814 35.5124C34.8751 35.6186 34.7689 35.8311 34.6626 35.9374C34.4501 36.0436 34.3439 36.2561 34.4501 36.4686C34.8751 37.1061 35.4064 37.7436 35.9376 38.2749C36.5751 38.8061 37.2126 39.2311 37.9564 39.5499C38.1689 39.6561 38.3814 39.6561 38.4876 39.4436C38.5939 39.2311 39.1251 38.6999 39.3376 38.4874C39.5501 38.2749 39.6564 38.2749 39.8689 38.3811L41.5689 39.2311C41.7814 39.3374 41.9939 39.4436 42.1001 39.5499C42.2064 39.8686 42.2064 40.2936 41.9939 40.6124V40.6124Z" fill="white"/>
    <defs>
        <filter id="filter0_d_5829_7405" x="0" y="0" width="74" height="74" filterUnits="userSpaceOnUse" color-interpolation-filters="sRGB">
            <feFlood flood-opacity="0" result="BackgroundImageFix"/>
            <feColorMatrix in="SourceAlpha" type="matrix" values="0 0 0 0 0 0 0 0 0 0 0 0 0 0 0 0 0 0 127 0" result="hardAlpha"/>
            <feOffset/>
            <feGaussianBlur stdDeviation="10"/>
            <feColorMatrix type="matrix" values="0 0 0 0 0 0 0 0 0 0.4 0 0 0 0 1 0 0 0 0.5 0"/>
            <feBlend mode="normal" in2="BackgroundImageFix" result="effect1_dropShadow_5829_7405"/>
            <feBlend mode="normal" in="SourceGraphic" in2="effect1_dropShadow_5829_7405" result="shape"/>
        </filter>
    </defs>
</svg>
