<svg width="165" height="48" viewBox="0 0 165 48" fill="none" xmlns="http://www.w3.org/2000/svg">
<path d="M-24.958 69.6596C-11.1531 69.5301 3.42425 72.0119 17.0088 69.1692C37.2062 64.9433 55.5195 55.0597 75.4618 50.0196C83.4784 47.9888 90.5863 47.3573 98.4593 50.1931C105.354 52.6773 111.413 56.9009 117.144 61.1615C127.295 68.7089 138.012 79.1777 151.265 81.4931C167.259 84.2895 183.42 69.7359 196.381 62.8755C203.595 59.0543 211.778 55.2262 220.277 56.8292C227.833 58.2563 234.587 62.9402 240.477 67.3281C251.598 75.611 263.829 88.5872 279.451 87.2965C298.294 85.7421 312.425 70.7282 331.553 69.6596" stroke="#0066FF" stroke-opacity="0.15" stroke-width="0.5" stroke-miterlimit="10"/>
<path d="M-24.9531 67.1485C-11.0269 67.0768 3.55293 70.0907 17.2786 67.1485C36.9338 62.9203 54.6158 52.9904 74.0035 47.9341C81.9928 45.8524 89.0315 45.3343 96.9267 48.0058C103.948 50.386 110.217 54.4222 116.173 58.5487C126.765 65.881 137.802 76.0005 151.121 78.6027C166.872 81.6744 182.338 67.5417 195.059 60.7923C202.093 57.066 210.292 53.3096 218.559 55.2294C226.234 57.0105 232.995 61.3289 239.219 65.7237C250.66 73.7962 263.361 86.2473 278.983 84.9427C297.987 83.3583 312.269 68.231 331.558 67.1323" stroke="#0066FF" stroke-opacity="0.15" stroke-width="0.5" stroke-miterlimit="10"/>
<path d="M-24.9482 64.6836C-10.8908 64.6836 3.70388 68.2757 17.5831 65.2248C36.6787 61.0267 53.712 51.0552 72.5279 46.0266C105.208 37.2857 122.256 69.5548 150.963 75.7306C166.436 79.0637 181.12 65.4399 193.611 58.827C200.612 55.1261 208.495 51.756 216.658 53.7846C224.429 55.7159 231.349 59.9395 237.823 64.251C249.62 72.1154 262.813 83.9997 278.468 82.6744C297.647 81.0552 312.099 65.81 331.566 64.6836" stroke="#0066FF" stroke-opacity="0.15" stroke-width="0.5" stroke-miterlimit="10"/>
<path d="M-24.9434 62.2731C-10.7498 62.3702 3.86969 66.5522 17.9147 63.4111C36.441 59.2685 52.8231 49.2738 71.0523 44.2892C103.057 35.5413 122.548 66.2631 150.792 72.8807C165.998 76.4474 179.801 63.4273 192.063 56.9415C199.035 53.2546 206.574 50.3286 214.62 52.4496C222.495 54.5314 229.591 58.6486 236.325 62.8699C248.501 70.5029 262.197 81.8159 277.918 80.4605C297.286 78.7928 311.918 63.4365 331.573 62.2731" stroke="#0066FF" stroke-opacity="0.15" stroke-width="0.5" stroke-miterlimit="10"/>
<path d="M-24.938 59.9133C-10.6033 60.1099 4.04588 64.9025 18.2667 61.6828C36.226 57.6164 51.9372 47.6103 69.6019 42.6927C100.928 33.9703 122.831 63.0128 150.617 70.0721C165.55 73.8655 178.415 61.4862 190.462 55.1276C197.409 51.4615 204.574 49.005 212.496 51.1955C220.48 53.4137 227.759 57.4407 234.761 61.5579C247.328 68.9596 261.529 79.6828 277.329 78.2973C296.888 76.5787 311.713 61.1068 331.563 59.904" stroke="#0066FF" stroke-opacity="0.15" stroke-width="0.5" stroke-miterlimit="10"/>
<path d="M-24.9336 57.6078C-10.4602 57.9061 4.23101 63.3117 18.64 60.0249C36.0447 56.0511 51.1073 46.0403 68.2025 41.206C98.8625 32.5345 123.108 59.8329 150.438 67.3156C165.102 71.331 177 59.6108 188.842 53.3749C195.759 49.7319 202.575 47.7589 210.366 50.0279C218.462 52.3872 225.932 56.3125 233.195 60.3279C246.156 67.4983 260.857 77.6294 276.757 76.2092C296.521 74.442 311.529 58.8614 331.578 57.6078" stroke="#0066FF" stroke-opacity="0.15" stroke-width="0.5" stroke-miterlimit="10"/>
<path d="M-24.9287 55.3498C-10.3217 55.7476 4.4191 61.7523 18.994 58.4099C35.8639 54.5402 50.2902 44.5317 66.8408 39.7923C96.8942 31.1878 123.387 56.7099 150.274 64.6112C164.671 68.844 175.601 57.7831 187.25 51.6582C194.138 48.0383 200.619 46.5487 208.262 48.8825C216.469 51.3853 224.127 55.2203 231.65 59.1247C244.992 66.0499 260.184 75.6097 276.192 74.1594C296.154 72.3437 311.348 56.6358 331.592 55.3544" stroke="#0066FF" stroke-opacity="0.15" stroke-width="0.5" stroke-miterlimit="10"/>
<path d="M-24.9233 53.1457C-10.1702 53.6384 4.6052 60.219 19.3583 56.8304C35.7207 53.0717 49.538 43.0701 65.5736 38.4325C95.0501 29.9066 123.663 53.6569 150.099 61.9769C164.255 66.4318 174.208 55.9838 185.696 49.9815C192.561 46.3963 198.703 45.3554 206.217 47.7563C214.531 50.4025 222.374 54.1611 230.143 57.9522C243.852 64.6392 259.511 73.6369 275.631 72.1496C295.781 70.2876 311.153 54.4665 331.583 53.1457" stroke="#0066FF" stroke-opacity="0.15" stroke-width="0.5" stroke-miterlimit="10"/>
<path d="M-24.918 50.9931C-10.0262 51.5667 4.79131 58.6886 19.7103 55.2653C35.6048 51.6199 48.8502 41.6184 64.4055 37.0895C79.4953 32.6947 95.5482 37.6562 109.643 42.9576C123.235 48.0717 136.156 54.7795 149.951 59.4172C163.929 64.1173 172.844 54.162 184.245 48.3146C199.385 40.5544 214.89 50.3963 228.747 56.778C242.787 63.236 258.887 71.6971 275.114 70.1774C295.442 68.2761 310.983 52.3439 331.593 50.9908" stroke="#0066FF" stroke-opacity="0.15" stroke-width="0.5" stroke-miterlimit="10"/>
<path d="M-24.9141 48.8888C-9.88365 49.5295 4.93633 57.144 20.046 53.6953C35.5171 50.161 48.2351 40.1663 63.372 35.7369C78.3232 31.356 94.7995 36.1139 108.961 40.969C122.828 45.7246 136.026 52.0045 149.819 56.9451C163.611 61.8857 171.667 52.4185 182.922 46.6544C197.717 39.0792 213.869 49.6614 227.486 55.5943C241.821 61.8395 258.329 69.7871 274.645 68.2466C295.132 66.3106 310.825 50.272 331.587 48.8888" stroke="#0066FF" stroke-opacity="0.15" stroke-width="0.5" stroke-miterlimit="10"/>
<path d="M-24.9082 46.8357C-9.73667 47.5296 5.07093 55.5697 20.3564 52.1001C35.4586 48.6745 47.7087 38.6845 62.4445 34.3407C77.2818 29.9806 94.1344 34.5442 108.36 38.9968C122.472 43.417 135.935 49.3199 149.706 54.5635C156.202 57.0362 160.963 57.1379 167.244 53.9483C172.349 51.3553 176.667 47.5897 181.764 44.9783C188.565 41.4903 193.982 41.5874 201.105 44.1803C209.664 47.3006 218.002 50.8881 226.4 54.3739C240.975 60.4063 257.842 67.8912 274.232 66.3369C294.86 64.38 310.685 48.2351 331.596 46.8357" stroke="#0066FF" stroke-opacity="0.15" stroke-width="0.5" stroke-miterlimit="10"/>
<path d="M-24.9033 44.8342C-9.59067 45.5281 5.17237 53.9522 20.636 50.4711C35.4387 47.138 47.2704 37.111 61.7091 32.8781C76.4697 28.5505 93.6317 32.9244 107.914 37.0416C122.197 41.1588 135.91 46.7563 149.636 52.3076C155.979 54.8728 160.616 55.2359 166.843 52.0625C171.779 49.5459 175.899 45.8311 180.823 43.2961C187.587 39.8126 192.92 40.1827 199.919 42.8612C208.52 46.1526 216.987 49.7332 225.543 53.1218C240.301 58.9645 257.498 66.0332 273.913 64.4742C294.655 62.5058 310.586 46.2637 331.598 44.855" stroke="#0066FF" stroke-opacity="0.15" stroke-width="0.5" stroke-miterlimit="10"/>
<path d="M-24.8984 42.8859C-9.44219 43.5613 5.23667 52.2768 20.8737 48.7865C35.456 45.5274 46.9188 35.4241 61.157 31.3161C75.8977 27.0578 93.2454 31.2328 107.617 35.0563C122.106 38.9075 135.938 44.2714 149.606 50.128C155.821 52.788 160.406 53.3478 166.585 50.1743C171.388 47.7109 175.342 44.0193 180.13 41.5328C186.862 38.0378 192.19 38.6045 199.082 41.3848C207.695 44.8543 216.262 48.4441 224.949 51.761C239.804 57.4349 257.288 64.1381 273.69 62.5907C294.513 60.6246 310.522 44.2899 331.623 42.8859" stroke="#0066FF" stroke-opacity="0.15" stroke-width="0.5" stroke-miterlimit="10"/>
<path d="M-24.8936 40.9831C-9.29618 41.5961 5.25641 50.5221 21.0667 47.0225C35.498 43.8282 46.7132 33.6809 60.7806 29.6215C75.4743 25.384 93.0498 29.4688 107.459 33.054C122.096 36.6971 135.99 41.9153 149.594 48.0888C155.707 50.8644 160.317 51.5352 166.464 48.3409C171.168 45.896 174.998 42.2021 179.694 39.7341C186.401 36.209 191.803 36.8752 198.614 39.7827C207.21 43.4511 215.841 47.0664 224.625 50.3278C239.524 55.8583 257.211 62.2607 273.546 60.7364C294.419 58.7912 310.467 42.3686 331.618 40.9831" stroke="#0066FF" stroke-opacity="0.15" stroke-width="0.5" stroke-miterlimit="10"/>
<path d="M-24.8862 39.1357C-9.20964 39.6862 5.24145 48.7094 21.1483 45.1774C35.5301 41.9854 46.6785 31.8474 60.7012 27.8111C75.3801 23.5875 93.0348 27.7556 107.449 31.2645C122.138 34.8404 135.987 40.0193 149.609 46.2206C155.699 48.9962 160.373 49.5745 166.479 46.401C171.15 43.9723 174.956 40.3108 179.627 37.8751C186.312 34.3917 191.813 35.0393 198.56 38.0301C207.118 41.8235 215.759 45.4665 224.58 48.6955C239.408 54.1242 257.325 60.455 273.534 58.8729C294.377 56.842 310.529 40.697 331.625 39.1427" stroke="#0066FF" stroke-opacity="0.15" stroke-width="0.5" stroke-miterlimit="10"/>
<path d="M-24.8809 37.313C-9.1696 37.8358 5.2394 46.919 21.1834 43.3454C35.5429 40.1257 46.7482 30.0732 60.7809 26.0624C75.4598 21.8666 93.0749 26.2174 107.467 29.7494C122.108 33.3438 135.898 38.5135 149.614 44.421C162.597 50.0116 169.032 41.414 179.724 36.0524C186.409 32.7008 191.945 33.3115 198.629 36.3138C207.151 40.1418 215.777 43.7756 224.595 46.9676C239.336 52.3015 257.486 58.6623 273.579 56.9461C294.333 54.7302 310.683 39.2421 331.638 37.3477" stroke="#0066FF" stroke-opacity="0.15" stroke-width="0.5" stroke-miterlimit="10"/>
<path d="M-24.876 35.5252C-9.11768 36.0294 5.25666 45.1798 21.2502 41.5761C35.6096 38.3378 46.8595 28.3918 60.8997 24.418C75.5785 20.2545 93.1416 24.7719 107.511 28.3154C122.096 31.9122 135.834 37.0587 149.629 42.6678C162.503 47.9045 169.168 39.4596 179.868 34.3409C186.553 31.135 192.138 31.7271 198.763 34.7341C207.245 38.583 215.846 42.189 224.662 45.3255C239.343 50.5506 257.674 56.8444 273.633 55.0125C294.283 52.6439 310.834 37.8289 331.635 35.6339" stroke="#0066FF" stroke-opacity="0.15" stroke-width="0.5" stroke-miterlimit="10"/>
<path d="M-24.8711 33.7599C-9.05833 34.2503 5.29373 43.4747 21.3466 39.8548C35.6888 36.6211 47.0056 26.7884 61.0556 22.8563C75.7344 18.7622 93.2406 23.3929 107.583 26.9388C122.098 30.524 135.807 35.6312 149.651 40.9303C162.434 45.8178 169.326 37.5602 180.054 32.6797C186.756 29.6335 192.383 30.2256 198.959 33.2302C207.394 37.0861 215.977 40.6504 224.778 43.7129C239.423 48.8131 257.865 54.9519 273.715 53.0252C294.264 50.5294 311.005 36.4107 331.648 33.945" stroke="#0066FF" stroke-opacity="0.15" stroke-width="0.5" stroke-miterlimit="10"/>
<path d="M-24.8662 32.033C-8.9866 32.5187 5.33822 41.8148 21.4728 38.1926C35.8026 34.9775 47.1887 25.2558 61.2511 21.4023C75.925 17.3799 93.3421 22.1147 107.679 25.649C122.115 29.2111 135.782 34.265 149.683 39.245C162.369 43.7901 169.504 35.75 180.281 31.1332C187.005 28.2512 192.677 28.8641 199.211 31.8595C207.58 35.7349 216.168 39.1833 224.937 42.1895C239.569 47.1487 258.063 53.0608 273.821 51.0461C294.236 48.4486 311.183 35.0422 331.645 32.3429" stroke="#0066FF" stroke-opacity="0.15" stroke-width="0.5" stroke-miterlimit="10"/>
<path d="M-24.8584 30.3335C-8.90699 30.8193 5.41288 40.1963 21.6267 36.5787C35.9441 33.3891 47.4069 23.7969 61.4867 20.022C76.1556 16.0899 93.4984 20.8987 107.808 24.4168C122.168 27.9419 135.797 32.9265 149.731 37.5826C162.322 41.7923 169.715 33.9905 180.557 29.6535C187.313 26.9496 193.027 27.5972 199.523 30.5787C207.842 34.4285 216.399 37.8123 225.148 40.7121C239.787 45.5163 258.278 51.1069 273.953 49.0391C294.237 46.3629 311.376 33.6898 331.66 30.78" stroke="#0066FF" stroke-opacity="0.15" stroke-width="0.5" stroke-miterlimit="10"/>
<path d="M-24.8545 28.6719C-8.82139 29.16 5.49601 38.618 21.8014 35.0281C36.1089 31.8778 47.6535 22.4244 61.7381 18.7397C76.3997 14.9047 93.6508 19.7713 107.948 23.2594C122.201 26.729 135.826 31.6349 149.774 35.9603C162.277 39.8392 169.942 32.3034 180.857 28.2602C187.651 25.7436 193.41 26.4398 199.879 29.4167C208.141 33.2296 216.659 36.5373 225.379 39.3188C240.043 43.9449 258.478 49.1631 274.085 47.0467C294.228 44.3173 311.554 32.3913 331.654 29.3034" stroke="#0066FF" stroke-opacity="0.15" stroke-width="0.5" stroke-miterlimit="10"/>
<path d="M-24.8486 27.0431C-8.7264 27.5427 5.60338 37.0909 22.0029 33.5196C36.3005 30.4248 47.9292 21.1218 62.0287 17.5365C76.6803 13.8126 93.8375 18.7139 108.103 22.1626C122.257 25.5859 135.866 30.3808 149.82 34.3731C162.236 37.9236 170.188 30.6723 181.185 26.939C188.021 24.626 193.824 25.3754 200.273 28.3269C208.48 32.0946 216.963 35.3139 225.658 37.9606C240.369 42.4086 258.699 47.185 274.25 45.0316C294.246 42.256 311.75 31.1048 331.663 27.8573" stroke="#0066FF" stroke-opacity="0.15" stroke-width="0.5" stroke-miterlimit="10"/>
<path d="M-24.8438 25.4539C-8.62496 25.9674 5.70234 35.6081 22.2232 32.0854C36.5109 29.0368 48.2312 19.891 62.3455 16.4169C76.9848 12.8155 94.0354 17.733 108.281 21.1378C122.336 24.4986 135.933 29.1733 149.874 32.8279C162.206 36.0661 170.463 29.1108 181.547 25.6991C188.429 23.5826 194.277 24.413 200.712 27.3182C208.861 31.0288 217.304 34.1498 225.964 36.6536C240.732 40.898 258.914 45.1818 274.42 43.0029C294.269 40.2272 311.938 29.8417 331.663 26.4601" stroke="#0066FF" stroke-opacity="0.15" stroke-width="0.5" stroke-miterlimit="10"/>
<path d="M-24.8389 23.9024C-8.51857 24.4344 5.82358 34.1676 22.4484 30.6935C36.7435 27.7166 48.5554 18.7281 62.6871 15.3742C77.3115 11.9047 94.2433 16.8199 108.489 20.1738C122.44 23.4629 136.027 28.0034 149.953 31.318C162.201 34.2347 170.779 27.6032 181.955 24.5292C188.887 22.6233 194.777 23.5346 201.207 26.4259C209.297 30.0714 217.697 33.0833 226.321 35.4306C241.146 39.4575 259.145 43.2139 274.616 41.0096C294.308 38.2178 312.136 28.6418 331.672 25.1445" stroke="#0066FF" stroke-opacity="0.15" stroke-width="0.5" stroke-miterlimit="10"/>
<path d="M-24.834 22.3976C-8.41218 22.9458 5.9473 32.7716 22.7182 29.3552C36.991 26.4454 48.902 17.6327 63.0485 14.4061C77.6556 11.073 94.471 15.9766 108.684 19.2634C122.534 22.4739 136.111 26.8641 150.008 29.8409C162.178 32.45 171.096 26.1401 182.359 23.42C189.34 21.7291 195.277 22.726 201.709 25.5965C209.738 29.1691 218.094 32.0634 226.675 34.245C241.596 38.0383 259.372 41.2072 274.819 39.0075C294.358 36.2319 312.327 27.4608 331.677 23.8641" stroke="#0066FF" stroke-opacity="0.15" stroke-width="0.5" stroke-miterlimit="10"/>
<path d="M-24.8291 20.9139C-8.28846 21.4945 6.09826 31.4151 22.988 28.0635C37.2583 25.2347 49.2733 16.5978 63.4297 13.5053C78.0244 10.3202 94.7136 15.1961 108.907 18.4274C122.653 21.5569 136.22 25.7805 150.079 28.4197C162.178 30.7328 171.448 24.7628 182.794 22.4058C189.828 20.937 195.809 22.0404 202.251 24.8715C210.219 28.364 218.528 31.133 227.063 33.1406C242.077 36.6842 259.605 39.2447 275.032 37.0427C294.417 34.2786 312.515 26.3449 331.682 22.6649" stroke="#0066FF" stroke-opacity="0.15" stroke-width="0.5" stroke-miterlimit="10"/>
<path d="M-24.8242 19.4826C-8.16474 20.0933 6.24673 30.1087 23.2776 26.8311C37.5356 24.0856 49.647 15.6314 63.8283 12.68C78.4031 9.64527 94.9636 14.4865 109.135 17.6461C122.781 20.6877 136.331 24.7332 150.146 27.0347C162.183 29.0401 171.812 23.431 183.245 21.4256C190.328 20.1835 196.351 21.3955 202.816 24.2012C210.722 27.6068 218.983 30.2422 227.467 32.0655C242.569 35.3408 259.83 37.2652 275.249 35.0725C294.484 32.3408 312.695 25.2444 331.687 21.4903" stroke="#0066FF" stroke-opacity="0.15" stroke-width="0.5" stroke-miterlimit="10"/>
<path d="M-24.8193 18.0953C-8.0435 18.7383 6.40512 28.8486 23.5672 25.6496C37.8276 22.992 50.0406 14.7252 64.2392 11.9195C78.7942 9.04436 95.2235 13.837 109.385 16.9226C122.935 19.8763 136.465 23.7275 150.235 25.6936C162.22 27.4029 172.215 22.1593 183.73 20.524C190.865 19.5085 196.931 20.8362 203.42 23.6003C211.264 26.9178 219.477 29.4171 227.908 31.0529C243.111 34.0436 260.078 35.3112 275.492 33.1346C294.555 30.4376 312.876 24.1971 331.692 20.3805" stroke="#0066FF" stroke-opacity="0.15" stroke-width="0.5" stroke-miterlimit="10"/>
<path d="M-24.814 16.7518C-7.91681 17.4295 6.56893 27.6231 23.8721 24.5213C38.1326 21.9561 50.4471 13.8767 64.6629 11.2237C79.1982 8.51741 95.4937 13.2499 109.638 16.2568C123.096 19.118 136.601 22.7634 150.312 24.3964C162.255 25.8189 172.614 20.9477 184.203 19.6824C191.383 18.8983 197.496 20.3463 204.009 23.0757C211.793 26.2988 219.956 28.655 228.329 30.0957C243.629 32.7858 260.296 33.3849 275.71 31.2245C294.635 28.5737 313.028 23.1959 331.68 19.3239" stroke="#0066FF" stroke-opacity="0.15" stroke-width="0.5" stroke-miterlimit="10"/>
<path d="M-24.8096 15.4562C-7.78863 16.1686 6.7392 26.4662 24.181 23.4454C38.439 20.9728 50.8624 13.0876 65.0956 10.5988C79.6062 8.05448 95.7655 12.7337 109.907 15.6574C123.276 18.4331 136.752 21.854 150.406 23.1563C162.327 24.2943 173.039 19.8024 184.718 18.9096C191.949 18.3567 198.087 19.9319 204.662 22.6243C212.386 25.7514 220.499 27.9614 228.811 29.2026C263.719 34.5896 297.927 25.5017 331.714 18.3313" stroke="#0066FF" stroke-opacity="0.15" stroke-width="0.5" stroke-miterlimit="10"/>
<path d="M-24.8047 14.2027C-7.65748 14.9545 6.91244 25.3423 24.4979 22.4163C38.7558 20.0431 51.2857 12.3546 65.5363 10.0115C80.022 7.62908 96.0452 12.2505 110.157 15.0886C123.45 17.7694 136.886 20.9684 150.478 21.9329C162.396 22.7864 173.445 18.6946 185.21 18.1626C192.484 17.8388 198.673 19.5505 205.286 22.2035C212.922 25.2868 221.03 27.2529 229.262 28.34C263.281 32.8342 298.764 24.4911 331.707 17.3693" stroke="#0066FF" stroke-opacity="0.15" stroke-width="0.5" stroke-miterlimit="10"/>
<path d="M-24.7993 13.0011C-7.52585 13.7921 7.08864 24.2702 24.8177 21.4413C39.0781 19.1584 51.712 11.6757 65.9799 9.48988C80.4408 7.27631 96.3254 11.8353 110.422 14.5786C123.643 17.1576 137.032 20.1298 150.562 20.7798C162.503 21.3534 173.864 17.648 185.718 17.493C193.034 17.3981 199.263 19.2439 205.928 21.8646C213.514 24.8461 221.567 26.6433 229.73 27.5362C245.28 29.2363 261.048 27.7883 276.47 25.7089C294.974 23.2131 313.505 20.4745 331.712 16.4567" stroke="#0066FF" stroke-opacity="0.15" stroke-width="0.5" stroke-miterlimit="10"/>
<path d="M-24.7949 11.8476C-7.54373 12.6641 7.05095 23.1607 24.7626 20.5747C38.9661 18.493 51.6248 11.3018 65.7812 9.12057C80.0912 6.91625 95.6564 11.2902 109.63 13.9317C123.137 16.476 136.821 19.3187 150.648 19.675C162.923 19.9918 174.884 16.4899 187.131 16.8993C194.524 17.1468 200.686 19.4043 207.462 21.9117C214.501 24.5161 221.933 26.008 229.45 26.7135C245.448 28.2147 261.315 26.0011 277.123 23.9124C295.37 21.5023 313.779 19.6472 331.724 15.6179" stroke="#0066FF" stroke-opacity="0.15" stroke-width="0.5" stroke-miterlimit="10"/>
<path d="M-24.792 10.7427C-7.42197 11.5985 7.23213 22.1829 25.075 19.6964C39.281 17.7165 52.0412 10.7149 66.2199 8.69331C80.5002 6.66709 95.9415 10.9786 109.895 13.5345C123.338 16.0002 136.97 18.6232 150.725 18.6232C163.072 18.6232 175.298 15.5862 187.647 16.361C195.049 16.8236 201.263 19.2107 208.092 21.6648C215.083 24.1768 222.466 25.5114 229.918 26.0388C245.968 27.1745 261.561 24.2531 277.366 22.2223C295.494 19.893 313.901 18.9007 331.719 14.8205" stroke="#0066FF" stroke-opacity="0.15" stroke-width="0.5" stroke-miterlimit="10"/>
<path d="M-24.7871 9.69446C-7.28587 10.5896 7.39794 21.2596 25.3919 18.8703C39.6028 16.9828 52.462 10.1779 66.6605 8.31358C80.9111 6.43771 96.2311 10.7191 110.177 13.1918C123.546 15.5673 137.126 17.9543 150.81 17.6166C163.245 17.309 175.711 14.7276 188.164 15.8633C195.576 16.541 201.84 19.0553 208.713 21.4562C215.645 23.878 222.993 25.0553 230.376 25.4046C246.468 26.1702 261.803 22.5549 277.604 20.5796C295.618 18.3267 313.998 18.2018 331.712 14.0707" stroke="#0066FF" stroke-opacity="0.15" stroke-width="0.5" stroke-miterlimit="10"/>
<path d="M-24.7822 8.69724C-7.15968 9.62245 7.58602 20.3827 25.7062 18.0928C39.9196 16.2956 52.8778 9.67565 67.0987 7.97788C81.3195 6.28011 96.5158 10.5037 110.425 12.8908C123.762 15.1807 137.277 17.3434 150.886 16.6656C163.431 16.0411 176.109 13.9224 188.667 15.4143C196.094 16.2956 202.402 18.9463 209.339 21.2917C216.276 23.6371 223.53 24.6456 230.844 24.8214C246.936 25.2123 262.068 20.9193 277.851 18.9995C295.761 16.8206 314.126 17.5608 331.722 13.3696" stroke="#0066FF" stroke-opacity="0.15" stroke-width="0.5" stroke-miterlimit="10"/>
<path d="M-24.7798 7.75148C-7.03592 8.72295 7.76177 19.548 26.0107 17.3645C40.2315 15.6551 53.2838 9.23645 67.5244 7.68209C81.7057 6.13467 96.8079 10.3305 110.692 12.6366C123.989 14.8432 137.43 16.7793 150.973 15.7685C163.641 14.8224 176.508 13.164 189.177 15.0052C196.582 16.083 202.964 18.8726 209.951 21.1648C216.809 23.413 224.063 24.2781 231.297 24.2851C247.389 24.3036 262.328 19.3537 278.089 17.4847C295.914 15.3706 314.235 16.9736 331.722 12.7153" stroke="#0066FF" stroke-opacity="0.15" stroke-width="0.5" stroke-miterlimit="10"/>
<path d="M-24.7773 6.86719C-6.91464 7.87104 7.92762 18.7863 26.3078 16.686C40.536 15.0669 53.6824 8.8217 67.9404 7.43388C82.1067 6.04606 97.0579 10.2095 110.945 12.4347C124.215 14.5534 137.589 16.272 151.052 14.9327C163.857 13.6606 176.889 12.4624 189.674 14.6459C197.077 15.9065 203.514 18.8371 210.552 21.0762C217.378 23.2458 224.57 23.9559 231.737 23.7986C247.805 23.4493 262.588 17.8657 278.327 16.0407C296.051 13.9867 314.324 16.4524 331.729 12.1085" stroke="#0066FF" stroke-opacity="0.15" stroke-width="0.5" stroke-miterlimit="10"/>
<path d="M-24.7725 6.03516C-6.79835 7.07371 8.0959 18.0629 26.5974 16.0552C40.833 14.5078 54.0784 8.46384 68.3438 7.20787C82.4805 5.96345 97.3104 10.12 111.19 12.2618C124.435 14.2996 137.742 15.8031 151.129 14.1423C164.077 12.5371 177.27 11.7923 190.144 14.3112C197.54 15.7568 204.031 18.8262 211.132 21.019C217.915 23.1007 225.07 23.6744 232.176 23.3575C248.201 22.6474 262.858 16.4577 278.569 14.672C296.209 12.6666 314.428 15.9881 331.749 11.5587" stroke="#0066FF" stroke-opacity="0.15" stroke-width="0.5" stroke-miterlimit="10"/>
<path d="M-24.7695 5.26172C-6.69639 6.33265 8.25233 17.4005 26.8726 15.4738C41.1157 13.9981 54.4354 8.13682 68.733 7.01963C82.8449 5.91862 97.5659 10.0682 111.423 12.1361C124.651 14.1137 137.891 15.3905 151.199 13.4152C164.298 11.4722 177.61 11.1715 190.595 14.0166C197.976 15.6357 204.529 18.8439 211.677 20.9857C218.426 23.0073 225.541 23.426 232.572 22.9588C248.541 21.8971 263.096 15.1361 278.778 13.3735C296.356 11.4051 314.5 15.5779 331.744 11.042" stroke="#0066FF" stroke-opacity="0.15" stroke-width="0.5" stroke-miterlimit="10"/>
<path d="M-24.7676 4.55078C-6.58055 5.64716 8.40778 16.7891 27.1321 14.9386C41.3876 13.5323 54.7889 7.84454 69.1014 6.86382C83.191 5.89928 97.798 10.0489 111.643 12.052C124.858 13.9648 138.034 15.0288 151.267 12.7459C164.5 10.4629 177.944 10.5971 191.031 13.7567C198.394 15.5354 205.011 18.8453 212.199 20.978C218.883 22.9649 226.008 23.2147 232.953 22.5971C248.857 21.2093 263.331 13.9024 278.98 12.163C296.481 10.2177 314.574 15.2347 331.744 10.5762" stroke="#0066FF" stroke-opacity="0.15" stroke-width="0.5" stroke-miterlimit="10"/>
<path d="M-24.752 3.89062C-6.46589 5.01013 8.55462 16.226 27.3903 14.4473C41.6409 13.1081 55.1214 7.59148 69.4512 6.73797C83.5087 5.90065 98.0216 10.0641 111.851 12.0094C125.06 13.8598 138.174 14.7226 151.33 12.1389C164.734 9.50899 178.256 10.0572 191.437 13.5267C198.786 15.4558 205.46 18.8907 212.69 20.9932C219.347 22.9292 226.435 23.0402 233.308 22.2978C240.807 21.4859 248.118 19.6262 255.317 17.563C263.086 15.3401 271.081 11.9492 279.174 11.0518C296.616 9.11577 314.647 14.9654 331.747 10.1682" stroke="#0066FF" stroke-opacity="0.15" stroke-width="0.5" stroke-miterlimit="10"/>
<path d="M-24.752 3.3125C-6.37677 4.45051 8.67098 15.7381 27.6156 14.0195C41.8785 12.7242 55.4309 7.36031 69.778 6.63402C83.8132 5.91467 98.2222 10.1036 112.039 12.0003C125.248 13.8091 138.31 14.4683 151.389 11.5932C164.939 8.61398 178.551 9.56001 191.829 13.3303C199.145 15.412 205.876 18.9509 213.143 21.0234C219.773 22.9132 226.829 22.8993 233.635 22.0296C241.119 21.0766 248.388 19.055 255.545 16.8599C263.257 14.496 271.264 10.9293 279.355 10.0249C296.742 8.08429 314.716 14.7551 331.749 9.79363" stroke="#0066FF" stroke-opacity="0.15" stroke-width="0.5" stroke-miterlimit="10"/>
<path d="M-24.752 2.78906C-6.29259 3.94558 8.79477 15.3003 27.8211 13.6326C42.0939 12.3789 55.7107 7.17689 70.0702 6.55468C84.0855 5.94636 98.3979 10.1838 112.205 12.0319C125.416 13.7968 138.431 14.271 151.434 11.1067C165.14 7.7829 178.814 9.10133 192.185 13.1607C199.474 15.372 206.255 19.0196 213.559 21.069C220.161 22.9194 227.175 22.7899 233.932 21.8068C241.399 20.7197 248.63 18.5455 255.751 16.2301C263.411 13.739 271.427 10.015 279.518 9.09671C296.848 7.13063 314.78 14.6133 331.757 9.47373" stroke="#0066FF" stroke-opacity="0.15" stroke-width="0.5" stroke-miterlimit="10"/>
<path d="M-24.752 2.32812C-6.21584 3.48464 8.89628 14.918 28.0043 13.2896C42.2945 12.0706 55.9805 7.01202 70.3549 6.49159C84.3554 5.98272 98.5787 10.2827 112.371 12.0938C125.587 13.8262 138.565 14.1246 151.488 10.6897C165.335 7.00971 179.044 8.67509 192.509 13.0028C199.773 15.3413 206.599 19.0838 213.932 21.1146C220.513 22.935 227.502 22.7037 234.194 21.6165C241.651 20.4045 248.843 18.0915 255.931 15.6651C263.549 13.0537 271.571 9.20247 279.672 8.26337C296.967 6.25566 314.855 14.5317 331.757 9.18859" stroke="#0066FF" stroke-opacity="0.15" stroke-width="0.5" stroke-miterlimit="10"/>
<path d="M-24.752 1.93359C-6.14404 3.09011 8.98293 14.5951 28.1652 12.9922C42.4579 11.7987 56.2058 6.87424 70.5925 6.43476C84.5782 6.0161 98.7074 10.3924 112.5 12.178C125.723 13.8897 138.676 14.0285 151.526 10.3276C165.516 6.29598 179.232 8.27594 192.797 12.8719C200.028 15.3238 206.894 19.1518 214.254 21.1688C220.815 22.9683 227.769 22.6491 234.414 21.4695C241.862 20.1441 249.021 17.7062 256.08 15.178C263.663 12.4602 271.677 8.50955 279.8 7.54502C297.059 5.47485 314.924 14.5304 331.759 8.95134" stroke="#0066FF" stroke-opacity="0.15" stroke-width="0.5" stroke-miterlimit="10"/>
<path d="M-24.752 1.60547C-6.23565 2.76199 8.84181 14.267 27.9127 12.7751C42.9827 11.5978 57.5502 6.28011 72.7564 6.38883C85.7566 6.48135 98.8015 10.4713 111.643 12.1876C125.287 14.0103 138.347 13.9594 151.56 10.0573C166.212 5.74118 179.94 8.01026 194.062 13.1429C200.392 15.442 206.423 18.5785 212.801 20.732C219.55 23.0103 226.96 22.7882 233.904 21.523C241.785 20.0889 249.328 17.3596 256.761 14.5839C264.252 11.7759 272.217 7.82291 280.295 6.89769C297.378 4.95243 315.144 14.5562 331.757 8.76431" stroke="#0066FF" stroke-opacity="0.15" stroke-width="0.5" stroke-miterlimit="10"/>
<path d="M-24.752 1.34766C-6.18365 2.48798 8.8938 14.0694 28.0167 12.5751C43.0917 11.3955 57.726 6.20272 72.9272 6.37619C85.9176 6.52654 98.8956 10.6276 111.73 12.3461C125.384 14.1734 138.441 13.993 151.59 9.8365C166.39 5.15491 180.046 7.69 194.285 13.0747C200.585 15.4572 206.634 18.6214 213.029 20.7772C219.763 23.0578 227.141 22.7895 234.046 21.4526C241.921 19.9283 249.435 17.0809 256.845 14.2313C264.327 11.3538 272.289 7.35692 280.387 6.38545C297.438 4.3546 315.224 14.6777 331.759 8.60596" stroke="#0066FF" stroke-opacity="0.15" stroke-width="0.5" stroke-miterlimit="10"/>
<path d="M-24.752 1.16016C-6.14652 2.28198 8.91856 13.9327 28.0959 12.4154C43.1734 11.2219 57.8398 6.14012 73.0609 6.36911C86.0463 6.56341 98.9624 10.7963 111.792 12.5287C125.453 14.3792 138.53 14.0854 151.595 9.67906C166.539 4.64127 180.086 7.38916 194.446 13.0006C200.732 15.4547 206.795 18.6513 213.195 20.8325C219.924 23.1247 227.237 22.8356 234.137 21.4362C250.079 18.198 264.361 8.05994 280.456 6.01522C297.477 3.85253 315.31 14.8718 331.759 8.49479" stroke="#0066FF" stroke-opacity="0.15" stroke-width="0.5" stroke-miterlimit="10"/>
<path d="M-24.752 1.04297C-6.11681 2.14166 8.94331 13.8618 28.1429 12.3075C43.2229 11.0839 57.9389 6.10158 73.1525 6.36758C86.1404 6.59888 98.9996 10.9798 111.824 12.7423C125.49 14.6205 138.612 14.2411 151.602 9.59657C166.677 4.20489 180.074 7.11237 194.569 12.9505C200.803 15.4555 206.881 18.7747 213.296 20.8703C220.109 23.0931 227.202 22.9127 234.177 21.4509C250.145 18.1016 264.349 7.95432 280.501 5.76156C297.5 3.44853 315.409 15.1409 331.749 8.42618" stroke="#0066FF" stroke-opacity="0.15" stroke-width="0.5" stroke-miterlimit="10"/>
<path d="M-24.752 1C-6.09701 2.06631 8.93589 13.8559 28.1553 12.2437C43.2352 10.9784 57.971 6.07943 73.2144 6.36624C86.2048 6.61142 99.0144 11.1774 111.836 12.9815C125.503 14.9037 138.694 14.4619 151.607 9.58367C166.799 3.84041 180.007 6.85198 194.641 12.9121C208.01 18.4449 219.025 24.7433 234.164 21.5004C250.175 18.0702 264.312 8.0085 280.521 5.63995C297.5 3.15806 315.503 15.4819 331.769 8.41559" stroke="#0066FF" stroke-opacity="0.15" stroke-width="0.5" stroke-miterlimit="10"/>
</svg>
