<svg width="46" height="46" viewBox="0 0 46 46" fill="none" xmlns="http://www.w3.org/2000/svg">
<path d="M42.0612 15.1082C45.3554 11.8144 45.3718 6.4705 42.0979 3.1963L40.9045 2.00293L38.3972 4.5189C35.1272 2.32046 30.643 2.6662 27.7512 5.558L3.88453 29.5605C2.28001 31.1653 1.46007 33.2614 1.42315 35.3692C1.42025 35.4441 1.41761 35.5195 1.41761 35.5952H1.42262C1.4424 37.7258 2.2626 39.8507 3.88453 41.4726C5.47561 43.0635 7.59072 43.9396 9.84086 43.9396C12.0907 43.9396 14.2058 43.0635 15.799 41.4703L15.8149 41.4542L15.8333 41.4726C15.9897 41.3157 16.1377 41.1535 16.2798 40.9882L24.8842 32.351L35.46 42.9266L36.5598 36.8194L42.6541 35.8265L32.0176 25.19L42.0612 15.1082ZM16.874 30.7739L23.597 24.1253C23.9121 24.7918 24.0785 25.5255 24.0785 26.2845C24.0785 27.6345 23.5529 28.9038 22.5982 29.8583L22.6048 29.8649L18.2243 34.2623C18.0452 33.033 17.5963 31.8373 16.874 30.7739ZM20.2471 17.8834L20.2793 17.9156C21.2337 16.9611 22.5028 16.4355 23.8528 16.4355C25.2026 16.4355 26.4716 16.9611 27.4261 17.9156C28.381 18.8703 28.9064 20.1391 28.9064 21.4891C28.9064 22.6614 28.5097 23.7722 27.7805 24.6694L27.3633 25.0879C27.1096 23.2922 26.2857 21.6339 24.9805 20.3287C23.6679 19.0156 21.9975 18.1901 20.1891 17.9414L20.2471 17.8834ZM40.7009 6.98082C41.5794 8.8525 41.236 11.1688 39.6768 12.728L32.1853 20.2477C32.0057 19.0235 31.5603 17.8644 30.8783 16.8385L40.7009 6.98082ZM30.1369 7.9371C31.1206 6.95339 32.4127 6.4618 33.7049 6.4618C34.4724 6.4618 35.2401 6.63533 35.9429 6.9824L28.4942 14.4575C27.4348 13.755 26.233 13.3056 24.9644 13.1389L30.1369 7.9371ZM9.84086 40.5704C8.49083 40.5704 7.2215 40.0448 6.26706 39.0904C5.28599 38.109 4.79361 36.8218 4.78992 35.5324C4.82341 34.5629 5.6204 33.7839 6.59778 33.7839C7.71177 33.7839 8.49584 34.5698 8.49584 35.0899L8.99964 38L11.8623 35.3003V35.0899C11.8623 32.8864 10.0218 30.981 7.68092 30.521L15.4488 22.7088L15.4509 22.7112C16.4056 21.7565 17.6747 21.2309 19.0247 21.2309C19.7995 21.2309 20.5469 21.4044 21.2245 21.7325L12.139 30.718L13.5128 31.9689C15.3246 33.8074 15.4177 36.7187 13.8026 38.7009L13.4144 39.0904C12.4597 40.0448 11.1909 40.5704 9.84086 40.5704ZM33.6659 33.877L33.2859 35.9879L27.262 29.964L29.6398 27.577L35.6215 33.5584L33.6659 33.877Z" fill="white"/>
</svg>
