<svg width="30" height="57" viewBox="0 0 30 57" fill="none" xmlns="http://www.w3.org/2000/svg">
<path d="M8.46024 54.9994L8.4604 54.9049M8.4604 54.9049L8.50022 31.67H2.45523C1.66964 31.67 1.03202 31.0331 1.029 30.2455L1.00001 22.7254C0.996984 21.9335 1.63651 21.2899 2.4264 21.2899H8.4604V14.0236C8.4604 5.59121 13.5968 0.999695 21.0993 0.999695H27.2556C28.0433 0.999695 28.682 1.63995 28.682 2.42985V8.77077C28.682 9.56035 28.0437 10.2004 27.2564 10.2009L23.4783 10.2027C19.3983 10.2027 18.6082 12.1466 18.6082 14.9994V21.29H27.5735C28.4278 21.29 29.0905 22.0379 28.9899 22.8885L28.1009 30.4085C28.0159 31.1282 27.4072 31.6703 26.6846 31.6703H18.6482L18.6082 54.9997L8.4604 54.9049Z" stroke="#141414" stroke-width="2"/>
</svg>
