<svg width="45" height="51" viewBox="0 0 45 51" fill="none" xmlns="http://www.w3.org/2000/svg">
<path d="M32.2145 48.9268C32.9412 49.0628 15.4554 49.2529 15.8052 48.9279C16.1551 48.6026 16.3298 48.1951 16.3298 47.7071C16.3298 47.6257 16.3229 46.8933 16.3095 45.5089C16.2956 44.1246 16.2891 42.9169 16.2891 41.8864L15.3607 42.0484C14.7687 42.1578 14.022 42.2041 13.1204 42.191C12.2193 42.1783 11.2838 42.0831 10.3152 41.906C9.34625 41.7304 8.44498 41.3234 7.61072 40.6856C6.77688 40.0478 6.18494 39.213 5.83503 38.1824L5.4314 37.2456C5.16236 36.6219 4.7388 35.9291 4.16015 35.1697C3.58149 34.4096 2.99634 33.8943 2.40439 33.623L2.12178 33.4189C1.93347 33.2833 1.75873 33.1198 1.59713 32.93C1.43568 32.7402 1.31481 32.5503 1.23408 32.3601C1.15321 32.1698 1.22022 32.0136 1.43582 31.8911C1.65142 31.7687 2.04105 31.7092 2.60642 31.7092L3.41339 31.8308C3.95161 31.9396 4.61736 32.2646 5.41147 32.8077C6.20515 33.3504 6.85761 34.0559 7.36896 34.9239C7.98819 36.0369 8.73423 36.885 9.60921 37.4686C10.4835 38.0522 11.365 38.3435 12.2528 38.3435C13.1406 38.3435 13.9075 38.2756 14.5536 38.1406C15.1989 38.0049 15.8045 37.8008 16.3698 37.5296C16.612 35.7105 17.2714 34.3131 18.3474 33.3362C16.8137 33.1737 15.4349 32.9289 14.2102 32.6034C12.9861 32.2774 11.7212 31.7484 10.4163 31.015C9.11072 30.2825 8.02763 29.373 7.16679 28.2879C6.30581 27.2023 5.59921 25.777 5.04799 24.0134C4.49648 22.249 4.22065 20.2138 4.22065 17.9071C4.22065 14.6227 5.28381 11.8277 7.40968 9.52072C6.41383 7.05145 6.50784 4.28334 7.69201 1.21664C8.47241 0.972114 9.62971 1.15562 11.1634 1.76602C12.6973 2.37671 13.8204 2.89984 14.5338 3.33358C15.2472 3.76718 15.8187 4.13461 16.2494 4.43262C18.7524 3.72725 21.3355 3.3745 23.9993 3.3745C26.6631 3.3745 29.2468 3.72725 31.75 4.43262L33.2838 3.45606C34.3327 2.80445 35.5713 2.20732 36.9966 1.6645C38.4228 1.12197 39.5134 0.972541 40.2672 1.21707C41.4777 4.28391 41.5855 7.05188 40.5894 9.52115C42.7151 11.8282 43.7787 14.6238 43.7787 17.9075C43.7787 20.2142 43.5019 22.2559 42.9512 24.0338C42.3999 25.8119 41.6872 27.2358 40.8129 28.3083C39.9377 29.3807 38.8477 30.2831 37.5428 31.0154C36.2376 31.7483 34.9722 32.2773 33.7482 32.6032C32.5236 32.9292 31.1448 33.1741 29.6111 33.337C31.0099 34.5578 31.7094 36.4848 31.7094 39.1172V47.706C31.7094 48.1939 31.8777 48.6013 32.2145 48.9268Z" stroke="#141414" stroke-width="2"/>
</svg>
