<svg width="54" height="51" viewBox="0 0 54 51" fill="none" xmlns="http://www.w3.org/2000/svg">
<g id="line">
<path id="Path" d="M27.9999 1.01539C41.695 1.43747 53 10.4911 53 22.0133C53 26.1085 51.5522 29.9154 49.0778 33.1231C48.9308 33.3379 48.7522 33.5588 48.5452 33.7868L48.5417 33.7908C47.7032 34.7913 46.7627 35.7288 45.7322 36.5932C42.232 39.8251 37.623 43.3495 33.6928 45.9247C31.7269 47.2129 29.9025 48.2823 28.4545 48.9591C27.7356 49.2951 27.0679 49.5542 26.4999 49.6854C26.2163 49.7508 25.9175 49.7941 25.6277 49.7816C25.3442 49.7694 24.9794 49.6997 24.661 49.451M27.9999 1.01539L47.7902 33.1306C46.9821 34.0972 46.072 35.0046 45.0714 35.8423C38.158 42.2306 26.7786 49.8364 25.2767 48.663C24.7862 48.2798 24.9678 47.3363 25.1742 46.2636C25.5173 44.4813 25.929 42.3421 23.4398 41.8238M27.9999 1.01539V1H26.9999C12.8595 1 0.999637 10.2118 1 22.0133L27.9999 1.01539ZM24.661 49.451L25.2566 48.6886L24.6611 49.451C24.6611 49.451 24.661 49.451 24.661 49.451ZM24.661 49.451C24.235 49.1181 24.0626 48.6601 23.9994 48.2705C23.9383 47.894 23.9643 47.5005 24.0073 47.1566C24.0507 46.8101 24.1221 46.4388 24.1886 46.0936L24.1911 46.0807C24.2607 45.7192 24.3268 45.3749 24.3731 45.0366C24.4696 44.3317 24.4504 43.8299 24.3061 43.4929C24.2028 43.2516 23.984 42.9678 23.2775 42.8117M23.2775 42.8117C23.2936 42.8136 23.3097 42.8154 23.3258 42.8173L23.4398 41.8238M23.2775 42.8117C23.2639 42.8087 23.25 42.8057 23.236 42.8028L23.4398 41.8238M23.2775 42.8117C23.0216 42.7821 22.7633 42.75 22.5049 42.7138M23.4398 41.8238C23.1617 41.7919 22.8842 41.7576 22.6092 41.7186M22.6092 41.7186L22.5405 42.7163L22.5352 42.7159L22.5049 42.7138M22.6092 41.7186L22.6039 41.7183L22.4633 42.708C22.1753 42.6671 21.8888 42.6223 21.6039 42.5737M22.6092 41.7186L22.5989 41.7909L22.469 42.7088C22.4809 42.7105 22.4929 42.7122 22.5049 42.7138M22.5049 42.7138L21.6039 42.6518V42.5737M21.6039 42.5737C9.99427 40.5934 1.00002 32.2754 1 22.0134L2 22.0133C2 31.8655 10.8932 40.0547 22.6039 41.7179H21.6039V41.7183V42.5737ZM48.2677 32.536C48.1506 32.71 47.9976 32.9023 47.8048 33.1147L26.9999 2C40.8071 2 52 10.9603 52 22.0133C52 25.8741 50.6334 29.4788 48.2677 32.536Z" stroke="#141414" stroke-width="2"/>
<g id="Shape">
<mask id="path-2-outside-1" maskUnits="userSpaceOnUse" x="9.19043" y="14.1245" width="37" height="17" fill="black">
<rect fill="white" x="9.19043" y="14.1245" width="37" height="17"/>
<path fill-rule="evenodd" clip-rule="evenodd" d="M12.4943 28.3993H17.5364C18.2536 28.3993 18.8402 27.8127 18.8402 27.0957V26.987C18.8402 26.2699 18.2536 25.6835 17.5364 25.6835H13.9068V17.428C13.9068 16.711 13.3202 16.1245 12.603 16.1245H12.4943C11.777 16.1245 11.1904 16.711 11.1904 17.428V27.0955C11.1904 27.8127 11.777 28.3993 12.4943 28.3993V28.3993ZM43.738 22.3388V22.23C43.738 21.513 43.1512 20.9266 42.434 20.9266H38.8046V18.8627H42.434C43.1512 18.8627 43.738 18.2762 43.738 17.5592V17.4505C43.738 16.7335 43.1512 16.147 42.434 16.147H37.3919C36.6746 16.147 36.088 16.7335 36.088 17.4505V27.118C36.088 27.835 36.6746 28.4216 37.3919 28.4216H42.434C43.1512 28.4216 43.738 27.835 43.738 27.118V27.0093C43.738 26.2923 43.1512 25.7058 42.434 25.7058H38.8046V23.6419H42.434C43.1512 23.6422 43.738 23.0556 43.738 22.3388V22.3388ZM34.0416 28.0103L34.042 28.0098C34.2832 27.7666 34.4187 27.438 34.419 27.0955V17.428C34.419 16.711 33.8324 16.1245 33.115 16.1245H33.0062C32.289 16.1245 31.7024 16.711 31.7024 17.428V23.1029L26.9896 16.7836C26.7645 16.3907 26.3406 16.1245 25.8575 16.1245H25.7488C25.0315 16.1245 24.4448 16.711 24.4448 17.428V27.0955C24.4448 27.8125 25.0314 28.3992 25.7488 28.3992H25.8575C26.5747 28.3992 27.1614 27.8125 27.1614 27.0955V21.3144L31.908 27.7958C31.9372 27.8412 31.9692 27.8848 32.0036 27.9263L32.0038 27.9267C32.1342 28.1045 32.3126 28.2264 32.5114 28.3009C32.6642 28.364 32.8312 28.399 33.006 28.399H33.1148C33.3273 28.3991 33.5365 28.3468 33.7239 28.2468C33.8544 28.1847 33.9642 28.1047 34.0416 28.0103V28.0103ZM21.1966 28.3992H21.3053C22.0225 28.3992 22.6091 27.8125 22.6091 27.0955V17.428C22.6091 16.711 22.0225 16.1245 21.3053 16.1245H21.1966C20.4793 16.1245 19.8926 16.711 19.8926 17.428V27.0955C19.8926 27.8125 20.4793 28.3992 21.1966 28.3992Z"/>
</mask>
<path d="M13.9068 25.6835H11.9068V27.6835H13.9068V25.6835ZM38.8046 20.9266H36.8046V22.9266H38.8046V20.9266ZM38.8046 18.8627V16.8627H36.8046V18.8627H38.8046ZM38.8046 25.7058H36.8046V27.7058H38.8046V25.7058ZM38.8046 23.6419V21.6419H36.8046V23.6419H38.8046ZM42.434 23.6419L42.435 21.6419H42.434V23.6419ZM34.042 28.0098L32.6221 26.6012L32.4853 26.7392L32.3775 26.9009L34.042 28.0098ZM34.419 27.0955L36.419 27.0969V27.0955H34.419ZM31.7024 23.1029L30.0991 24.2986L33.7024 29.1301V23.1029H31.7024ZM26.9896 16.7836L25.2542 17.7778L25.3142 17.8826L25.3864 17.9793L26.9896 16.7836ZM27.1614 21.3144L28.7749 20.1327L25.1614 15.1985V21.3144H27.1614ZM31.908 27.7958L33.5902 26.714L33.5574 26.663L33.5216 26.6141L31.908 27.7958ZM32.0036 27.9263L33.7911 27.0292L33.6884 26.8245L33.5421 26.6484L32.0036 27.9263ZM32.0038 27.9267L30.2163 28.8238L30.2917 28.974L30.3911 29.1095L32.0038 27.9267ZM32.5114 28.3009L33.275 26.4524L33.2443 26.4397L33.2131 26.428L32.5114 28.3009ZM33.1148 28.399L33.1159 26.399H33.1148V28.399ZM33.7239 28.2468L32.8649 26.4407L32.8231 26.4606L32.7822 26.4823L33.7239 28.2468ZM12.4943 30.3993H17.5364V26.3993H12.4943V30.3993ZM17.5364 30.3993C19.358 30.3993 20.8402 28.9174 20.8402 27.0957H16.8402C16.8402 26.708 17.1492 26.3993 17.5364 26.3993V30.3993ZM20.8402 27.0957V26.987H16.8402V27.0957H20.8402ZM20.8402 26.987C20.8402 25.1648 19.3576 23.6835 17.5364 23.6835V27.6835C17.1495 27.6835 16.8402 27.375 16.8402 26.987H20.8402ZM17.5364 23.6835H13.9068V27.6835H17.5364V23.6835ZM15.9068 25.6835V17.428H11.9068V25.6835H15.9068ZM15.9068 17.428C15.9068 15.6059 14.4243 14.1245 12.603 14.1245V18.1245C12.2162 18.1245 11.9068 17.8161 11.9068 17.428H15.9068ZM12.603 14.1245H12.4943V18.1245H12.603V14.1245ZM12.4943 14.1245C10.673 14.1245 9.19043 15.6059 9.19043 17.428H13.1904C13.1904 17.8161 12.8811 18.1245 12.4943 18.1245V14.1245ZM9.19043 17.428V27.0955H13.1904V17.428H9.19043ZM9.19043 27.0955C9.19043 28.9173 10.6725 30.3993 12.4943 30.3993V26.3993C12.8816 26.3993 13.1904 26.7081 13.1904 27.0955H9.19043ZM45.738 22.3388V22.23H41.738V22.3388H45.738ZM45.738 22.23C45.738 20.4076 44.2549 18.9266 42.434 18.9266V22.9266C42.0475 22.9266 41.738 22.6185 41.738 22.23H45.738ZM42.434 18.9266H38.8046V22.9266H42.434V18.9266ZM40.8046 20.9266V18.8627H36.8046V20.9266H40.8046ZM38.8046 20.8627H42.434V16.8627H38.8046V20.8627ZM42.434 20.8627C44.2549 20.8627 45.738 19.3817 45.738 17.5592H41.738C41.738 17.1708 42.0475 16.8627 42.434 16.8627V20.8627ZM45.738 17.5592V17.4505H41.738V17.5592H45.738ZM45.738 17.4505C45.738 15.628 44.2549 14.147 42.434 14.147V18.147C42.0475 18.147 41.738 17.8389 41.738 17.4505H45.738ZM42.434 14.147H37.3919V18.147H42.434V14.147ZM37.3919 14.147C35.5706 14.147 34.088 15.6284 34.088 17.4505H38.088C38.088 17.8386 37.7787 18.147 37.3919 18.147V14.147ZM34.088 17.4505V27.118H38.088V17.4505H34.088ZM34.088 27.118C34.088 28.9398 35.5702 30.4216 37.3919 30.4216V26.4216C37.7791 26.4216 38.088 26.7303 38.088 27.118H34.088ZM37.3919 30.4216H42.434V26.4216H37.3919V30.4216ZM42.434 30.4216C44.2552 30.4216 45.738 28.9401 45.738 27.118H41.738C41.738 26.7299 42.0471 26.4216 42.434 26.4216V30.4216ZM45.738 27.118V27.0093H41.738V27.118H45.738ZM45.738 27.0093C45.738 25.1868 44.2549 23.7058 42.434 23.7058V27.7058C42.0475 27.7058 41.738 27.3977 41.738 27.0093H45.738ZM42.434 23.7058H38.8046V27.7058H42.434V23.7058ZM40.8046 25.7058V23.6419H36.8046V25.7058H40.8046ZM38.8046 25.6419H42.434V21.6419H38.8046V25.6419ZM42.433 25.6419C44.255 25.6428 45.738 24.1607 45.738 22.3388H41.738C41.738 21.9505 42.0474 21.6417 42.435 21.6419L42.433 25.6419ZM35.706 29.1193L35.7064 29.1187L32.3775 26.9009L32.3772 26.9014L35.706 29.1193ZM35.4618 29.4184C36.0743 28.801 36.4183 27.9667 36.419 27.0969L32.419 27.0941C32.4191 26.9093 32.4922 26.7322 32.6221 26.6012L35.4618 29.4184ZM36.419 27.0955V17.428H32.419V27.0955H36.419ZM36.419 17.428C36.419 15.6057 34.9362 14.1245 33.115 14.1245V18.1245C32.7285 18.1245 32.419 17.8162 32.419 17.428H36.419ZM33.115 14.1245H33.0062V18.1245H33.115V14.1245ZM33.0062 14.1245C31.1849 14.1245 29.7024 15.6059 29.7024 17.428H33.7024C33.7024 17.8161 33.393 18.1245 33.0062 18.1245V14.1245ZM29.7024 17.428V23.1029H33.7024V17.428H29.7024ZM33.3056 21.9073L28.5929 15.588L25.3864 17.9793L30.0991 24.2986L33.3056 21.9073ZM28.725 15.7894C28.1609 14.8047 27.0918 14.1245 25.8575 14.1245V18.1245C25.5894 18.1245 25.3682 17.9767 25.2542 17.7778L28.725 15.7894ZM25.8575 14.1245H25.7488V18.1245H25.8575V14.1245ZM25.7488 14.1245C23.9279 14.1245 22.4448 15.6055 22.4448 17.428H26.4448C26.4448 17.8164 26.1352 18.1245 25.7488 18.1245V14.1245ZM22.4448 17.428V27.0955H26.4448V17.428H22.4448ZM22.4448 27.0955C22.4448 28.9174 23.9271 30.3992 25.7488 30.3992V26.3992C26.1356 26.3992 26.4448 26.7076 26.4448 27.0955H22.4448ZM25.7488 30.3992H25.8575V26.3992H25.7488V30.3992ZM25.8575 30.3992C27.6791 30.3992 29.1614 28.9173 29.1614 27.0955H25.1614C25.1614 26.7078 25.4703 26.3992 25.8575 26.3992V30.3992ZM29.1614 27.0955V21.3144H25.1614V27.0955H29.1614ZM25.5478 22.496L30.2944 28.9774L33.5216 26.6141L28.7749 20.1327L25.5478 22.496ZM30.2258 28.8775C30.2984 28.9903 30.3782 29.0996 30.4652 29.2043L33.5421 26.6484C33.5601 26.6701 33.5761 26.6921 33.5902 26.714L30.2258 28.8775ZM30.2161 28.8234L30.2163 28.8238L33.7913 27.0296L33.7911 27.0292L30.2161 28.8234ZM30.3911 29.1095C30.7866 29.6488 31.3063 29.9851 31.8097 30.1737L33.2131 26.428C33.3189 26.4676 33.4818 26.5601 33.6165 26.7438L30.3911 29.1095ZM31.7478 30.1493C32.1361 30.3098 32.5621 30.399 33.006 30.399V26.399C33.1003 26.399 33.1923 26.4182 33.275 26.4524L31.7478 30.1493ZM33.006 30.399H33.1148V26.399H33.006V30.399ZM33.1137 30.399C33.655 30.3993 34.1881 30.2661 34.6656 30.0112L32.7822 26.4823C32.8849 26.4275 32.9995 26.3989 33.1159 26.399L33.1137 30.399ZM34.583 30.0529C34.9098 29.8974 35.2804 29.6536 35.5878 29.279L32.4954 26.7417C32.6481 26.5557 32.7989 26.472 32.8649 26.4407L34.583 30.0529ZM21.1966 30.3992H21.3053V26.3992H21.1966V30.3992ZM21.3053 30.3992C23.1269 30.3992 24.6091 28.9173 24.6091 27.0955H20.6091C20.6091 26.7078 20.9181 26.3992 21.3053 26.3992V30.3992ZM24.6091 27.0955V17.428H20.6091V27.0955H24.6091ZM24.6091 17.428C24.6091 15.6059 23.1266 14.1245 21.3053 14.1245V18.1245C20.9185 18.1245 20.6091 17.8161 20.6091 17.428H24.6091ZM21.3053 14.1245H21.1966V18.1245H21.3053V14.1245ZM21.1966 14.1245C19.3757 14.1245 17.8926 15.6055 17.8926 17.428H21.8926C21.8926 17.8164 21.583 18.1245 21.1966 18.1245V14.1245ZM17.8926 17.428V27.0955H21.8926V17.428H17.8926ZM17.8926 27.0955C17.8926 28.9176 19.3753 30.3992 21.1966 30.3992V26.3992C21.5834 26.3992 21.8926 26.7074 21.8926 27.0955H17.8926Z" fill="#141414" mask="url(#path-2-outside-1)"/>
</g>
</g>
</svg>
