<svg width="39" height="40" viewBox="0 0 39 40" fill="none" xmlns="http://www.w3.org/2000/svg">
<g id="linkedin">
<path id="Shape" d="M9.92205 5.58606H10.922V5.57545L10.9218 5.56485L9.92205 5.58606ZM9.39917 13.3069H10.3992V12.3069H9.39917V13.3069ZM9.39917 38.272V39.272H10.3992V38.272H9.39917ZM1.46754 13.3069V12.3069H0.467538V13.3069H1.46754ZM1.46754 38.272H0.467538V39.272H1.46754V38.272ZM13.7897 38.2713L12.7897 38.2667L12.7897 38.2674L13.7897 38.2713ZM21.7206 38.2713V39.2713H22.7206V38.2713H21.7206ZM13.7904 13.307V12.307H12.7453L12.7913 13.351L13.7904 13.307ZM21.7213 13.307H22.7213V12.307H21.7213V13.307ZM21.7213 16.8412H20.7213V20.3529L22.5713 17.368L21.7213 16.8412ZM38.0004 38.2713V39.2713H39.0004V38.2713H38.0004ZM30.0695 38.2713H29.0695V39.2713H30.0695V38.2713ZM21.9819 22.3069L22.9126 22.6729L22.9154 22.6656L21.9819 22.3069ZM13.7897 38.272L12.7897 38.28L14.7897 38.272H13.7897ZM8.92205 5.58606C8.92205 6.54094 8.58178 7.35848 8.00724 7.935C7.43643 8.50778 6.57799 8.89893 5.43503 8.89893V10.8989C7.05748 10.8989 8.44254 10.3315 9.42389 9.34678C10.4015 8.36579 10.922 7.02689 10.922 5.58606H8.92205ZM5.48771 2.27246C6.60523 2.27246 7.43532 2.65066 7.99135 3.21336C8.5527 3.78143 8.90101 4.60513 8.92227 5.60727L10.9218 5.56485C10.8911 4.11689 10.3786 2.78379 9.41396 1.80759C8.44401 0.826013 7.08291 0.272461 5.48771 0.272461V2.27246ZM2 5.58606C2 4.60797 2.35019 3.79256 2.92815 3.22231C3.5049 2.65325 4.36573 2.27246 5.48771 2.27246V0.272461C3.89488 0.272461 2.51186 0.823423 1.52346 1.79863C0.536266 2.77266 0 4.11405 0 5.58606H2ZM5.38305 8.89893C3.29238 8.89893 2 7.44886 2 5.58606H0C0 8.51469 2.14947 10.8989 5.38305 10.8989V8.89893ZM5.43434 8.89893H5.38305V10.8989H5.43434V8.89893ZM5.43503 8.89893H5.43434V10.8989H5.43503V8.89893ZM8.39917 13.3069V38.272H10.3992V13.3069H8.39917ZM1.46754 14.3069H9.39917V12.3069H1.46754V14.3069ZM2.46754 38.272V13.3069H0.467538V38.272H2.46754ZM9.39917 37.272H1.46754V39.272H9.39917V37.272ZM13.7897 39.2713H21.7206V37.2713H13.7897V39.2713ZM12.7913 13.351C12.8928 15.6532 12.7905 38.0935 12.7897 38.2667L14.7897 38.2759C14.7902 38.155 14.8937 15.6296 14.7894 13.2629L12.7913 13.351ZM21.7213 12.307H13.7904V14.307H21.7213V12.307ZM22.7213 16.8412V13.307H20.7213V16.8412H22.7213ZM28.8698 11.7211C26.557 11.7211 24.8279 12.3915 23.5268 13.3332C22.2425 14.2627 21.4252 15.4206 20.8713 16.3144L22.5713 17.368C23.0715 16.5609 23.7248 15.6588 24.6994 14.9534C25.657 14.2603 26.9752 13.7211 28.8698 13.7211V11.7211ZM39.0004 23.9572C39.0004 19.962 37.9806 16.8892 36.1423 14.8026C34.2915 12.7019 31.7163 11.7211 28.8698 11.7211V13.7211C31.2414 13.7211 33.2316 14.5244 34.6416 16.1248C36.064 17.7392 37.0004 20.2845 37.0004 23.9572H39.0004ZM39.0004 38.2713V23.9572H37.0004V38.2713H39.0004ZM30.0695 39.2713H38.0004V37.2713H30.0695V39.2713ZM29.0695 24.9172V38.2713H31.0695V24.9172H29.0695ZM26.0517 20.2716C27.1718 20.2716 27.8499 20.6923 28.2986 21.3814C28.7918 22.139 29.0695 23.3239 29.0695 24.9172H31.0695C31.0695 23.154 30.7729 21.5162 29.9746 20.2901C29.1317 18.9956 27.8009 18.2716 26.0517 18.2716V20.2716ZM22.9154 22.6656C23.4046 21.3924 24.4288 20.2716 26.0517 20.2716V18.2716C23.2915 18.2716 21.7055 20.2384 21.0485 21.9482L22.9154 22.6656ZM22.7206 24.3314C22.7206 23.5898 22.7788 23.0128 22.9125 22.6729L21.0513 21.9409C20.7663 22.6654 20.7206 23.5821 20.7206 24.3314H22.7206ZM22.7206 38.2713V24.3314H20.7206V38.2713H22.7206ZM14.7897 38.272V38.2713H12.7897V38.272H14.7897ZM12.7897 38.2674C12.7897 38.2696 12.7897 38.2717 12.7897 38.2738C12.7897 38.2749 12.7897 38.2759 12.7897 38.277C12.7897 38.2775 12.7897 38.278 12.7897 38.2785C12.7897 38.2787 12.7897 38.279 12.7897 38.2792C12.7897 38.2794 12.7897 38.2795 12.7897 38.2796C12.7897 38.2797 12.7897 38.2797 12.7897 38.2798C12.7897 38.2798 12.7897 38.2799 12.7897 38.2799C12.7897 38.2799 12.7897 38.2799 12.7897 38.2799C12.7897 38.2799 12.7897 38.28 12.7897 38.28C12.7897 38.28 12.7897 38.28 13.7897 38.272C14.7896 38.2641 14.7896 38.2641 14.7896 38.2641C14.7896 38.2641 14.7896 38.2641 14.7896 38.2642C14.7896 38.2642 14.7896 38.2642 14.7896 38.2642C14.7896 38.2642 14.7896 38.2643 14.7896 38.2643C14.7896 38.2644 14.7896 38.2644 14.7896 38.2645C14.7896 38.2646 14.7896 38.2647 14.7896 38.2649C14.7896 38.2651 14.7897 38.2653 14.7897 38.2656C14.7897 38.2661 14.7897 38.2666 14.7897 38.267C14.7897 38.268 14.7897 38.269 14.7897 38.2699C14.7897 38.2717 14.7897 38.2735 14.7897 38.2753L12.7897 38.2674Z" fill="#141414"/>
</g>
</svg>
