<svg width="47" height="38" viewBox="0 0 47 38" fill="none" xmlns="http://www.w3.org/2000/svg">
<g id="medium">
<path id="Path" d="M45.3984 6.23292H43.6425C42.9905 6.23292 42.0686 7.18307 42.0686 7.79122V29.8369C42.0686 30.4457 42.9905 31.2759 43.6425 31.2759H45.3984V36.5088H29.4891V31.2759H32.8189V8.10169H32.6557L24.8798 36.5088H18.8596L11.1839 8.10169H10.9896V31.2759H14.3195V36.5088H1V31.2759H2.7057C3.40792 31.2759 4.32988 30.4457 4.32988 29.8369V7.79104C4.32988 7.1829 3.40792 6.23275 2.7057 6.23275H1V1H17.6553L23.1236 21.5576H23.2745L28.7929 1H45.3984V6.23292" stroke="#141414" stroke-width="2"/>
</g>
</svg>
