<svg width="38" height="47" viewBox="0 0 38 47" fill="none" xmlns="http://www.w3.org/2000/svg">
<g id="pinterest">
<path id="Path" fill-rule="evenodd" clip-rule="evenodd" d="M16.5107 1.14834C8.90038 1.9646 1.32091 7.81702 1.0128 16.1952C0.812527 21.3084 2.95388 25.1433 8.06848 26.2213C8.65389 23.8034 8.76173 22.4943 8.76173 22.4943C8.76173 22.4943 6.51254 20.3381 6.28145 18.9674C4.40199 7.94023 19.638 0.409091 27.6334 8.10965C33.1485 13.4538 29.5128 29.8868 20.6085 28.1773C12.0739 26.5448 24.7834 13.4692 17.9742 10.8972C12.4436 8.8027 9.50119 17.2887 12.1201 21.4932C10.5796 28.7317 7.2674 35.5544 8.60767 44.6257C12.9674 41.6225 14.4309 35.8624 15.6325 29.856C17.8201 31.1189 18.9909 32.4434 21.7793 32.6436C32.0701 33.3983 37.8164 22.8639 36.4145 13.1304C35.1512 4.50579 26.1236 0.11647 16.5107 1.14834V1.14834Z" stroke="#141414" stroke-width="2"/>
</g>
</svg>
