<svg width="648" height="300" viewBox="0 0 648 300" fill="none" xmlns="http://www.w3.org/2000/svg">
<mask id="mask0_8346_10873" style="mask-type:alpha" maskUnits="userSpaceOnUse" x="0" y="0" width="648" height="300">
<rect width="648" height="300" fill="url(#paint0_linear_8346_10873)"/>
</mask>
<g mask="url(#mask0_8346_10873)">
<path d="M0 300C215.844 300 431.688 300 647.532 300" stroke="#0066FF" stroke-miterlimit="10"/>
<path d="M0 293.412C109.298 293.461 218.542 292.284 327.813 290.951C375.092 290.372 422.694 290.562 469.969 291.784C529.146 293.311 588.35 291.872 647.514 293.412" stroke="#0066FF" stroke-miterlimit="10"/>
<path d="M0 286.921C30.9691 286.921 61.9472 287.156 92.9118 287.041C120.585 286.939 148.195 284.73 175.859 284.349C227.392 283.641 278.915 284.465 330.444 283.628C376.18 282.884 422.389 280.915 468.094 283.92C494.732 285.691 521.097 286.496 547.758 287.227C581.034 288.138 614.269 285.664 647.532 286.921" stroke="#0066FF" stroke-miterlimit="10"/>
<path d="M0 280.527C30.5239 280.527 61.1288 281.032 91.6437 280.487C120.32 279.974 148.829 276.375 177.482 275.45C229.114 273.781 280.341 278.549 331.919 277.699C377.304 276.964 422.047 270.997 467.482 276.335C494.04 279.456 519.775 281.899 546.526 282.612C580.252 283.497 613.811 279.19 647.532 280.527" stroke="#0066FF" stroke-miterlimit="10"/>
<path d="M0 274.244C29.9708 274.244 60.162 275.05 90.1104 273.939C120.059 272.828 149.58 267.715 179.438 266.064C206.581 264.564 233.341 264.967 260.339 268.233C284.536 271.163 308.041 273.279 332.436 272.96C353.818 272.677 373.851 269.481 394.967 266.502C419.133 263.09 444.014 264.683 467.954 269.03C494.305 273.819 519.159 278.4 546.067 278.922C580.009 279.586 613.568 273.098 647.532 274.244" stroke="#0066FF" stroke-miterlimit="10"/>
<path d="M0 268.058C29.3233 268.058 59.0918 269.142 88.3656 267.407C119.645 265.557 150.394 258.855 181.606 256.341C208.404 254.155 235.382 255.653 261.76 260.794C285.31 265.318 308.077 269.359 332.148 269.173C354.438 269 374.606 263.445 396.245 258.953C420.806 253.854 445.111 255.788 469.299 261.971C495.222 268.611 519.154 275.764 546.247 275.954C580.247 276.197 613.473 267.314 647.532 268.062" stroke="#0066FF" stroke-miterlimit="10"/>
<path d="M0 261.966C28.6308 261.94 57.9631 263.294 86.495 260.926C119.249 258.231 151.248 249.914 183.881 246.439C211.266 243.527 236.574 246.235 262.988 253.552C285.602 259.82 307.506 266.096 331.226 266.109C354.681 266.109 375.546 257.766 397.805 251.675C423.162 244.739 446.545 246.758 471.322 255.137C496.54 263.662 519.694 273.727 546.935 273.505C580.886 273.205 613.487 261.763 647.532 261.966" stroke="#0066FF" stroke-miterlimit="10"/>
<path d="M0 255.977C27.9068 255.937 56.7984 257.442 84.5389 254.53C118.795 250.936 151.99 241.012 186.125 236.533C213.892 232.89 237.995 236.785 263.982 246.532C285.422 254.574 306.48 263.289 329.814 263.564C354.474 263.856 376.706 252.396 399.514 244.681C425.851 235.771 448.339 237.666 473.791 248.523C498.028 258.863 520.629 272.137 547.987 271.394C581.816 270.473 613.559 256.402 647.523 255.977" stroke="#0066FF" stroke-miterlimit="10"/>
<path d="M0 250.081C27.1918 250.028 55.6338 251.63 82.6233 248.235C118.345 243.743 152.741 232.261 188.297 226.781C216.626 222.413 239.362 227.414 264.8 239.728C284.918 249.466 305.127 260.713 328.137 261.306C354.002 261.965 378.019 247.08 401.353 237.931C413.575 233.164 426.458 228.698 439.782 229.725C452.823 230.734 465.171 236.138 476.574 242.118C499.562 254.144 521.956 270.698 549.309 269.432C582.99 267.87 613.671 251.179 647.536 250.094" stroke="#0066FF" stroke-miterlimit="10"/>
<path d="M0.0224609 244.287C26.5533 244.221 54.532 245.863 80.7841 242.074C117.869 236.736 153.339 223.771 190.212 217.345C219.189 212.29 240.612 218.305 265.362 233.155C284.127 244.415 303.49 258.177 326.293 259.111C353.274 260.213 379.355 241.826 403.133 231.42C415.589 225.967 429.327 220.217 443.24 221.483C456.281 222.669 468.498 229.149 479.403 235.868C501.145 249.271 523.309 269.167 550.73 267.392C584.267 265.214 613.766 245.987 647.541 244.287" stroke="#0066FF" stroke-miterlimit="10"/>
<path d="M0.0268555 238.593C25.9236 238.514 53.4887 240.156 79.0707 236.088C117.365 229.993 153.789 215.661 191.804 208.375C206.279 205.605 219.999 204.002 234.177 208.862C245.729 212.824 255.892 219.777 265.695 226.806C283.232 239.372 301.745 255.488 324.494 256.75C352.464 258.303 380.641 236.584 404.806 225.115C417.478 219.1 432.061 212.133 446.505 213.607C459.604 214.935 471.659 222.402 482.096 229.776C502.682 244.312 524.582 267.32 552.151 265.093C585.567 262.389 613.842 240.78 647.559 238.571" stroke="#0066FF" stroke-miterlimit="10"/>
<path d="M0.0314941 232.993C25.3842 232.909 52.576 234.542 77.5689 230.289C116.835 223.605 153.951 208.042 192.924 200.071C207.449 197.101 221.128 195.259 235.234 200.774C246.678 205.276 256.432 213 265.758 220.719C282.265 234.365 300.005 252.504 322.867 254.031C337.477 255.009 352.167 247.507 364.785 241.155C378.784 234.108 392.242 226.079 406.236 219.024C419.097 212.544 434.386 204.594 449.315 206.254C462.509 207.719 474.376 215.948 484.439 223.871C504.081 239.362 525.567 264.973 553.401 262.379C586.758 259.28 613.851 235.52 647.563 232.975" stroke="#0066FF" stroke-miterlimit="10"/>
<path d="M0.0358887 227.493C24.9344 227.409 51.8384 229.047 76.3502 224.713C116.308 217.653 153.856 201.028 193.482 192.561C207.939 189.463 221.721 187.484 235.684 193.393C247.114 198.231 256.575 206.619 265.564 214.869C281.384 229.383 298.454 249.027 321.594 250.722C336.604 251.811 351.722 243.684 364.538 236.965C379.004 229.374 392.867 220.734 407.333 213.134C420.374 206.278 436.113 197.704 451.442 199.453C464.775 200.975 476.44 209.717 486.229 218.096C505.264 234.38 526.093 261.827 554.373 259.061C587.73 255.799 613.788 230.131 647.568 227.511" stroke="#0066FF" stroke-miterlimit="10"/>
<path d="M0.0449219 222.095C24.5927 222.024 51.3303 223.693 75.4824 219.395C115.778 212.225 153.429 194.728 193.36 186.03C207.619 182.932 221.658 180.913 235.423 186.862C246.948 191.842 256.279 200.681 265.101 209.281C280.669 224.481 297.235 244.912 320.861 246.559C336.204 247.63 351.362 239.419 364.358 232.395C379.13 224.428 393.25 215.345 408.017 207.369C421.224 200.234 437.03 191.523 452.674 193.258C466.164 194.754 477.631 203.655 487.299 212.393C506.185 229.456 526.021 257.598 554.962 254.858C588.404 251.693 613.676 224.445 647.595 222.104" stroke="#0066FF" stroke-miterlimit="10"/>
<path d="M0.0493164 216.79C24.5071 216.639 51.1594 218.516 75.208 214.134C115.229 206.826 152.399 188.807 192.016 179.906C206.234 176.714 220.264 174.802 234.02 180.68C245.711 185.686 255.226 194.632 264.179 203.338C280.035 218.759 296.776 239.452 320.713 241.382C336.163 242.626 351.232 234.517 364.286 227.382C379.08 219.29 393.173 210.031 407.963 201.935C421.233 194.667 436.958 186.076 452.719 187.935C466.299 189.537 477.698 198.456 487.384 207.291C506.347 224.593 525.805 252.363 554.975 249.783C588.512 246.826 613.523 218.835 647.581 216.79" stroke="#0066FF" stroke-miterlimit="10"/>
<path d="M0.0539551 211.592C24.6152 211.318 51.1865 213.686 75.3205 208.999C114.631 201.363 150.965 183.048 189.857 173.832C204.247 170.419 217.908 168.645 231.861 174.562C243.764 179.604 253.617 188.456 262.898 197.088C279.28 212.34 296.727 233.241 320.663 235.875C336.019 237.565 351.142 229.434 364.084 222.304C378.698 214.252 392.58 204.984 407.19 196.924C420.432 189.616 436.158 181.091 451.896 183.3C465.436 185.199 477.002 194.246 486.822 202.983C505.884 219.936 525.904 247.184 554.723 244.678C588.341 241.753 613.433 213.602 647.572 211.592" stroke="#0066FF" stroke-miterlimit="10"/>
<path d="M0.0627441 206.494C24.7634 206.166 51.2627 209.194 75.5452 204.232C114.055 196.362 149.44 177.807 187.514 168.379C202.025 164.777 215.367 163.17 229.478 169.012C241.565 174.018 251.813 182.641 261.441 191.206C278.371 206.255 296.623 227.08 320.537 230.351C335.754 232.436 350.76 224.473 363.584 217.373C377.951 209.406 391.541 200.195 405.899 192.232C419.101 184.911 434.678 176.63 450.345 179.153C463.898 181.339 475.67 190.427 485.712 199.071C505.025 215.669 525.701 242.236 554.3 239.766C588.067 236.853 613.298 208.521 647.586 206.52" stroke="#0066FF" stroke-miterlimit="10"/>
<path d="M0.0722656 201.486C24.9438 201.172 51.4296 205 75.883 199.786C113.512 191.77 147.867 173.025 185.046 163.434C199.615 159.676 212.706 158.264 226.933 163.938C239.236 168.842 249.867 177.217 259.867 185.627C277.504 200.406 296.395 220.93 320.376 224.803C335.413 227.229 350.153 219.611 362.852 212.56C376.904 204.752 390.147 195.621 404.191 187.804C417.344 180.479 432.619 172.609 448.191 175.411C461.807 177.868 473.823 186.919 484.165 195.444C503.865 211.675 525.279 237.427 553.725 234.97C587.698 232.036 613.123 203.513 647.618 201.499" stroke="#0066FF" stroke-miterlimit="10"/>
<path d="M0.0769043 196.577C25.1508 196.329 51.6276 201.079 76.3013 195.639C112.986 187.552 146.248 168.639 182.47 158.994C197.03 155.108 209.94 153.9 224.24 159.326C236.763 164.08 247.767 172.162 258.177 180.315C276.613 194.758 296.08 214.791 320.151 219.222C349.2 224.573 378.555 196.723 402.095 183.595C415.199 176.283 430.061 168.958 445.498 172.025C459.222 174.756 471.489 183.719 482.187 192.116C502.386 207.966 524.6 232.797 552.975 230.327C587.199 227.353 612.867 198.622 647.609 196.577" stroke="#0066FF" stroke-miterlimit="10"/>
<path d="M0.0852051 191.775C25.3794 191.638 51.8608 197.405 76.7908 191.775C112.49 183.684 144.606 164.682 179.82 155.006C194.331 151.022 207.116 150.031 221.456 155.143C234.208 159.698 245.594 167.422 256.413 175.318C275.65 189.349 295.697 208.714 319.89 213.694C348.498 219.572 376.589 192.527 399.693 179.612C412.469 172.481 427.362 165.293 442.376 168.966C456.316 172.375 468.597 180.638 479.902 189.048C500.681 204.496 523.75 228.322 552.124 225.826C586.641 222.794 612.583 193.846 647.617 191.744" stroke="#0066FF" stroke-miterlimit="10"/>
<path d="M0.0942383 187.056C25.6268 187.056 52.1351 193.93 77.3439 188.092C112.027 180.058 142.965 160.977 177.14 151.354C236.497 134.627 267.462 196.378 319.602 208.196C347.706 214.574 374.377 188.503 397.063 175.849C409.78 168.767 424.097 162.318 438.923 166.2C453.038 169.896 465.607 177.978 477.366 186.228C498.793 201.278 522.756 224.02 551.189 221.483C586.025 218.385 612.273 189.212 647.631 187.056" stroke="#0066FF" stroke-miterlimit="10"/>
<path d="M0.103271 182.448C25.8831 182.634 52.4364 190.636 77.9465 184.626C111.596 176.698 141.351 157.573 174.46 148.034C232.59 131.294 267.993 190.083 319.291 202.747C346.911 209.572 371.98 184.657 394.252 172.245C406.915 165.19 420.608 159.591 435.222 163.65C449.526 167.633 462.414 175.512 474.645 183.59C496.76 198.197 521.636 219.845 550.191 217.251C585.369 214.06 611.944 184.674 647.644 182.448" stroke="#0066FF" stroke-miterlimit="10"/>
<path d="M0.112793 177.929C26.149 178.306 52.7562 187.477 78.5856 181.316C111.205 173.534 139.741 154.386 171.826 144.976C228.723 128.285 268.506 183.861 318.973 197.369C346.097 204.628 369.462 180.939 391.343 168.772C403.961 161.756 416.975 157.055 431.365 161.247C445.867 165.492 459.087 173.198 471.804 181.077C494.629 195.24 520.423 215.76 549.121 213.109C584.645 209.82 611.572 180.213 647.627 177.912" stroke="#0066FF" stroke-miterlimit="10"/>
<path d="M0.120605 173.512C26.4086 174.083 53.0923 184.428 79.2634 178.138C110.876 170.534 138.234 151.377 169.284 142.126C224.972 125.532 269.008 177.771 318.648 192.089C345.282 199.773 366.893 177.346 388.401 165.412C400.965 158.441 413.345 154.666 427.496 159.008C442.2 163.522 455.767 171.034 468.961 178.718C492.501 192.439 519.203 211.826 548.081 209.108C583.978 205.727 611.238 175.912 647.652 173.512" stroke="#0066FF" stroke-miterlimit="10"/>
<path d="M0.130127 169.197C26.6609 169.958 53.4346 181.448 79.9069 175.052C110.548 167.647 136.75 148.495 166.811 139.426C221.397 122.96 269.517 171.799 318.352 186.919C344.5 195.019 364.353 173.853 385.51 162.132C398.02 155.205 409.793 152.355 423.674 156.821C438.581 161.61 452.49 168.949 466.155 176.42C490.388 189.672 517.98 207.966 547.056 205.191C583.313 201.716 610.91 171.658 647.68 169.205" stroke="#0066FF" stroke-miterlimit="10"/>
<path d="M0.13916 164.972C26.9353 165.915 53.7719 178.508 80.568 172.023C110.287 164.831 135.383 145.692 164.509 136.817C218.047 120.502 270.016 165.951 318.032 181.872C343.745 190.397 361.822 170.403 382.687 158.917C395.156 152.057 406.312 150.065 419.96 154.659C435.06 159.723 449.306 166.916 463.417 174.17C488.315 186.966 516.757 204.184 546.035 201.338C582.634 197.775 610.555 167.5 647.662 164.972" stroke="#0066FF" stroke-miterlimit="10"/>
<path d="M0.148682 160.854C27.1966 161.951 54.1097 175.58 81.2071 169.029C110.076 162.053 134.134 142.914 162.387 134.248C189.795 125.838 218.952 135.332 244.551 145.477C269.239 155.263 292.707 168.099 317.763 176.974C343.152 185.968 359.344 166.918 380.052 155.728C407.55 140.878 435.713 159.712 460.881 171.924C486.382 184.282 515.625 200.473 545.096 197.565C582.019 193.927 610.245 163.439 647.681 160.849" stroke="#0066FF" stroke-miterlimit="10"/>
<path d="M0.156494 156.824C27.4563 158.05 54.3738 172.621 81.8174 166.022C109.918 159.258 133.017 140.133 160.511 131.656C187.666 123.273 217.592 132.378 243.314 141.669C268.5 150.769 292.472 162.786 317.523 172.241C342.575 181.695 357.207 163.578 377.65 152.548C404.522 138.052 433.859 158.302 458.591 169.656C484.627 181.606 514.611 196.815 544.245 193.867C581.456 190.162 609.961 159.471 647.67 156.824" stroke="#0066FF" stroke-miterlimit="10"/>
<path d="M0.166504 152.9C27.7226 154.228 54.6176 169.614 82.3806 162.975C109.811 156.419 132.061 137.302 158.825 128.99C185.774 120.647 216.384 129.379 242.222 137.9C267.853 146.359 292.307 157.654 317.318 167.689C329.117 172.42 337.764 172.615 349.173 166.511C358.445 161.549 366.287 154.343 375.546 149.346C387.899 142.671 397.738 142.857 410.675 147.819C426.22 153.79 441.365 160.655 456.618 167.326C483.09 178.869 513.727 193.193 543.495 190.218C580.962 186.473 609.705 155.578 647.685 152.9" stroke="#0066FF" stroke-miterlimit="10"/>
<path d="M0.176025 149.067C27.9884 150.395 54.8025 166.515 82.8892 159.854C109.775 153.475 131.265 134.288 157.49 126.188C184.3 117.906 215.471 126.276 241.413 134.155C267.355 142.034 292.262 152.745 317.192 163.368C328.713 168.277 337.135 168.972 348.445 162.899C357.411 158.083 364.894 150.975 373.838 146.123C386.123 139.458 395.809 140.166 408.521 145.291C424.143 151.59 439.522 158.442 455.063 164.926C481.868 176.107 513.102 189.633 542.916 186.65C580.589 182.883 609.526 151.802 647.69 149.107" stroke="#0066FF" stroke-miterlimit="10"/>
<path d="M0.18457 145.336C28.2578 146.629 54.919 163.307 83.3205 156.627C109.806 150.391 130.626 131.057 156.487 123.196C183.261 115.047 214.769 123.037 240.873 130.353C267.188 137.723 292.311 147.987 317.138 159.195C328.425 164.285 336.753 165.356 347.977 159.283C356.7 154.569 363.882 147.505 372.578 142.747C384.805 136.059 394.482 137.143 407.001 142.463C422.645 149.103 438.204 155.972 453.983 162.32C480.963 173.177 512.719 186.004 542.51 183.043C580.333 179.281 609.409 148.023 647.734 145.336" stroke="#0066FF" stroke-miterlimit="10"/>
<path d="M0.193359 141.704C28.5229 142.877 54.9548 159.957 83.671 153.261C109.883 147.148 130.253 127.73 155.803 119.962C182.492 111.853 214.414 119.67 240.585 126.531C267.17 133.502 292.406 143.487 317.115 155.301C328.218 160.613 336.591 161.896 347.756 155.784C356.3 151.105 363.256 144.036 371.787 139.314C383.968 132.568 393.78 133.843 406.151 139.406C421.764 146.426 437.439 153.345 453.394 159.586C480.455 170.169 512.58 182.421 542.249 179.504C580.162 175.781 609.309 144.355 647.725 141.704" stroke="#0066FF" stroke-miterlimit="10"/>
<path d="M0.206543 138.163C28.68 139.216 54.9275 156.483 83.8191 149.724C109.941 143.616 130.19 124.216 155.659 116.492C182.32 108.41 214.387 116.386 240.567 123.1C267.246 129.943 292.401 139.854 317.142 151.72C328.204 157.032 336.694 158.138 347.783 152.066C356.268 147.418 363.18 140.411 371.665 135.75C383.806 129.085 393.798 130.324 406.052 136.047C421.597 143.306 437.291 150.277 453.312 156.456C480.243 166.845 512.786 178.959 542.227 175.932C580.085 172.046 609.422 141.15 647.738 138.176" stroke="#0066FF" stroke-miterlimit="10"/>
<path d="M0.216309 134.677C28.7527 135.677 54.9238 153.059 83.8828 146.221C109.964 140.059 130.316 120.823 155.804 113.148C182.465 105.119 214.459 113.444 240.599 120.203C267.193 127.082 292.24 136.974 317.152 148.279C340.733 158.977 352.42 142.525 371.841 132.265C383.982 125.851 394.037 127.02 406.178 132.765C421.656 140.09 437.323 147.044 453.34 153.152C480.114 163.359 513.08 175.531 542.308 172.247C580.005 168.007 609.701 138.369 647.762 134.743" stroke="#0066FF" stroke-miterlimit="10"/>
<path d="M0.225342 131.251C28.8472 132.216 54.9553 149.726 84.0043 142.83C110.085 136.634 130.519 117.601 156.02 109.996C182.681 102.029 214.581 110.674 240.68 117.455C267.17 124.337 292.123 134.186 317.179 144.919C340.562 154.94 352.667 138.78 372.102 128.985C384.243 122.85 394.388 123.983 406.421 129.738C421.827 137.103 437.449 144.003 453.462 150.005C480.127 160.004 513.421 172.048 542.407 168.542C579.915 164.01 609.976 135.66 647.757 131.459" stroke="#0066FF" stroke-miterlimit="10"/>
<path d="M0.233887 127.877C28.9546 128.815 55.0223 146.467 84.1792 139.54C110.229 133.352 130.784 114.536 156.303 107.012C182.964 99.1772 214.76 108.038 240.81 114.824C267.174 121.685 292.073 131.458 317.219 141.598C340.435 150.951 352.954 135.149 372.439 125.81C384.612 119.98 394.833 121.114 406.776 126.863C422.096 134.242 437.687 141.063 453.673 146.923C480.271 156.683 513.767 168.43 542.555 164.743C579.878 159.967 610.285 132.949 647.779 128.231" stroke="#0066FF" stroke-miterlimit="10"/>
<path d="M0.24292 124.569C29.0851 125.499 55.1033 143.288 84.4086 136.356C110.436 130.204 131.116 111.6 156.658 104.226C183.31 96.529 214.945 105.59 240.985 112.353C267.206 119.169 292.028 128.841 317.277 138.37C340.319 147.068 353.278 131.682 372.853 122.847C385.066 117.332 395.368 118.505 407.235 124.237C422.435 131.653 438.034 138.252 453.96 144.005C480.536 153.495 514.127 164.808 542.749 160.953C579.829 155.982 610.609 130.328 647.775 125.162" stroke="#0066FF" stroke-miterlimit="10"/>
<path d="M0.256836 121.321C29.2294 122.25 55.2386 140.194 84.6878 133.272C110.693 127.168 131.512 108.812 157.085 101.589C183.729 94.0642 215.228 103.266 241.22 109.999C267.301 116.744 292.055 126.283 317.363 135.193C340.234 143.249 353.661 128.319 373.352 120.02C385.624 114.845 396.002 116.085 407.802 121.79C422.911 129.157 438.452 135.632 454.343 141.182C480.932 150.375 514.519 161.073 542.988 157.116C579.829 151.995 610.96 127.743 647.802 122.175" stroke="#0066FF" stroke-miterlimit="10"/>
<path d="M0.264648 118.146C29.3856 119.08 55.3903 137.178 85.0059 130.309C110.993 124.28 131.961 106.19 157.543 99.1394C184.173 91.8007 215.506 101.114 241.475 107.788C267.363 114.428 292.108 123.816 317.443 132.093C340.151 139.516 354.073 125.095 373.899 117.358C386.239 112.542 396.698 113.874 408.448 119.571C423.454 126.867 438.925 133.197 454.764 138.52C481.399 147.372 514.882 157.358 543.229 153.308C579.815 148.085 611.283 125.263 647.792 119.354" stroke="#0066FF" stroke-miterlimit="10"/>
<path d="M0.274658 115.029C29.5575 115.985 55.5847 134.256 85.3711 127.422C111.34 121.5 132.461 103.697 158.07 96.8368C184.682 89.7106 215.844 99.0897 241.755 105.689C267.462 112.24 292.181 121.416 317.525 129.055C340.076 135.85 354.52 121.973 374.494 114.829C386.91 110.403 397.45 111.837 409.164 117.485C424.07 124.695 439.478 130.856 455.269 135.92C481.989 144.432 515.283 153.572 543.527 149.451C579.847 144.14 611.639 122.801 647.807 116.587" stroke="#0066FF" stroke-miterlimit="10"/>
<path d="M0.283691 111.987C29.7419 112.969 55.7646 131.418 85.7714 124.677C111.722 118.843 133.01 101.342 158.646 94.6936C185.235 87.8019 216.204 97.2121 242.078 103.728C267.606 110.159 292.303 119.104 317.624 126.098C340.022 132.294 355.019 118.985 375.151 112.456C387.652 108.406 398.273 109.995 409.96 115.554C424.762 122.655 440.096 128.627 455.827 133.419C482.65 141.541 515.674 149.738 543.837 145.569C579.888 140.257 611.981 120.383 647.806 113.912" stroke="#0066FF" stroke-miterlimit="10"/>
<path d="M0.292236 109.012C29.9348 110.03 55.9845 128.656 86.1801 122.008C112.144 116.311 133.598 99.1108 159.266 92.6928C185.828 86.0534 216.581 95.4592 242.456 101.877C267.795 108.171 292.473 116.86 317.767 123.203C340.013 128.784 355.594 116.094 375.892 110.212C388.483 106.565 399.181 108.309 410.859 113.841C425.553 120.817 440.811 126.581 456.474 131.073C483.4 138.779 516.092 145.967 544.192 141.749C579.959 136.406 612.34 118.082 647.824 111.389" stroke="#0066FF" stroke-miterlimit="10"/>
<path d="M0.30127 106.13C30.1282 107.179 56.2094 125.981 86.6703 119.444C112.594 113.876 134.228 97.0116 159.922 90.837C186.453 84.4588 216.995 93.8425 242.811 100.132C267.966 106.276 292.626 114.677 317.866 120.373C339.972 125.366 356.169 113.291 376.625 108.086C389.306 104.85 400.089 106.758 411.772 112.251C426.355 119.088 441.531 124.626 457.117 128.801C484.219 136.06 516.506 142.124 544.561 137.914C580.049 132.603 612.687 115.819 647.833 108.936" stroke="#0066FF" stroke-miterlimit="10"/>
<path d="M0.310547 103.297C30.3533 104.408 56.4839 123.393 87.1608 116.979C113.08 111.566 134.903 95.0381 160.615 89.1202C187.123 83.0253 217.436 92.3558 243.216 98.5392C268.182 104.528 292.824 112.61 317.997 117.661C339.972 122.087 356.808 110.663 377.417 106.152C390.192 103.342 401.056 105.453 412.757 110.871C427.229 117.554 442.321 122.853 457.823 126.695C485.092 133.475 516.929 138.375 544.948 134.162C580.157 128.872 613.029 113.69 647.842 106.648" stroke="#0066FF" stroke-miterlimit="10"/>
<path d="M0.319092 100.556C30.5777 101.725 56.7533 120.89 87.6864 114.618C113.583 109.364 135.581 93.1865 161.339 87.5386C187.811 81.7314 217.89 90.9955 243.629 97.0417C268.415 102.862 293.026 110.604 318.118 115.008C339.981 118.845 357.469 108.112 378.235 104.274C391.1 101.897 402.041 104.217 413.782 109.586C428.142 116.103 443.146 121.146 458.556 124.635C485.986 130.902 517.337 134.585 545.343 130.389C580.278 125.162 613.356 111.582 647.851 104.398" stroke="#0066FF" stroke-miterlimit="10"/>
<path d="M0.328125 97.9009C30.7981 99.1314 57.0411 118.478 88.2126 112.357C114.114 107.271 136.296 91.4519 162.085 86.0828C188.522 80.581 218.362 89.7522 244.083 95.6568C268.694 101.309 293.269 108.679 318.28 112.441C340.049 115.712 358.202 105.678 379.116 102.548C392.076 100.605 403.093 103.146 414.879 108.435C429.127 114.784 444.043 119.566 459.356 122.697C486.971 128.42 517.787 130.845 545.784 126.68C580.409 121.519 613.685 109.577 647.86 102.274" stroke="#0066FF" stroke-miterlimit="10"/>
<path d="M0.337646 95.3314C31.028 96.6283 57.3384 116.135 88.7662 110.199C114.667 105.29 137.034 89.8296 162.855 84.7527C189.255 79.574 218.853 88.6301 244.543 94.3842C268.987 99.8595 293.517 106.835 318.42 109.96C340.112 112.682 358.926 103.361 379.976 100.939C393.016 99.439 404.119 102.21 415.95 107.433C430.087 113.601 444.913 118.109 460.121 120.866C487.911 126.014 518.183 127.16 546.18 123.026C580.553 117.954 613.959 107.663 647.838 100.253" stroke="#0066FF" stroke-miterlimit="10"/>
<path d="M0.345947 92.8553C31.2611 94.2186 57.648 113.924 89.3276 108.144C115.224 103.412 137.789 88.3228 163.641 83.5602C189.996 78.6914 219.347 87.6456 245.032 93.2404C269.314 98.5519 293.79 105.098 318.59 107.59C340.242 109.768 359.699 101.172 380.91 99.4637C394.045 98.4058 405.193 101.42 417.136 106.572C431.165 112.556 445.9 116.785 460.997 119.16C524.402 129.469 586.533 112.078 647.9 98.3571" stroke="#0066FF" stroke-miterlimit="10"/>
<path d="M0.35498 90.4512C31.4995 91.8897 57.9628 111.768 89.9032 106.169C115.8 101.627 138.558 86.9146 164.441 82.4308C190.752 77.8718 219.855 86.7154 245.486 92.1464C269.629 97.2764 294.033 103.398 318.72 105.244C340.368 106.877 360.437 99.0469 381.805 98.0289C395.017 97.4092 406.259 100.685 418.269 105.762C432.137 111.662 446.864 115.424 461.816 117.504C523.606 126.104 588.053 110.139 647.887 96.5107" stroke="#0066FF" stroke-miterlimit="10"/>
<path d="M0.364502 88.1519C31.7383 89.6657 58.2826 109.717 90.4839 104.303C116.385 99.9346 139.332 85.6157 165.247 81.4329C191.512 77.197 220.363 85.9211 245.968 91.1706C269.981 96.1059 294.299 101.794 318.874 103.037C340.562 104.135 361.197 97.0442 382.728 96.7477C396.015 96.5662 407.329 100.098 419.435 105.113C433.213 110.819 447.84 114.258 462.666 115.966C490.91 119.22 519.55 116.449 547.56 112.47C581.169 107.694 614.827 102.453 647.896 94.7647" stroke="#0066FF" stroke-miterlimit="10"/>
<path d="M0.373047 85.9429C31.7064 87.5054 58.2147 107.592 90.3845 102.643C116.182 98.6595 139.174 84.8983 164.887 80.7244C190.878 76.5062 219.149 84.8762 244.529 89.9309C269.063 94.7998 293.916 100.24 319.031 100.921C341.326 101.528 363.049 94.8264 385.295 95.6098C398.722 96.0834 409.914 100.403 422.222 105.201C435.006 110.185 448.506 113.04 462.158 114.39C491.216 117.263 520.035 113.027 548.747 109.03C581.888 104.418 615.326 100.868 647.918 93.1577" stroke="#0066FF" stroke-miterlimit="10"/>
<path d="M0.377441 83.8332C31.9266 85.4709 58.5429 105.725 90.951 100.967C116.753 97.1783 139.93 83.7801 165.682 79.9115C191.62 76.0342 219.666 84.2847 245.01 89.1757C269.427 93.894 294.186 98.9134 319.17 98.9134C341.595 98.9134 363.8 93.1017 386.23 94.5845C399.675 95.4698 410.962 100.038 423.364 104.734C436.063 109.541 449.472 112.095 463.008 113.104C492.16 115.277 520.48 109.687 549.188 105.801C582.113 101.343 615.546 99.4445 647.909 91.6366" stroke="#0066FF" stroke-miterlimit="10"/>
<path d="M0.386475 81.8235C32.174 83.5364 58.8442 103.955 91.5266 99.3823C117.338 95.7705 140.694 82.7485 166.483 79.181C192.366 75.5913 220.192 83.7843 245.522 88.5159C269.805 93.0617 294.469 97.6295 319.323 96.9833C341.91 96.3946 364.551 91.4549 387.17 93.6282C400.633 94.9251 412.01 99.7364 424.493 104.331C437.084 108.965 450.43 111.218 463.839 111.886C493.068 113.352 520.921 106.433 549.619 102.653C582.338 98.3422 615.722 98.1031 647.896 90.1979" stroke="#0066FF" stroke-miterlimit="10"/>
<path d="M0.395508 79.9117C32.4034 81.6822 59.186 102.273 92.0977 97.8911C117.914 94.4519 141.45 81.784 167.279 78.5352C193.108 75.2863 220.709 83.3686 245.972 87.9365C270.196 92.3185 294.744 96.457 319.462 95.1601C342.247 93.965 365.275 89.9106 388.083 92.7655C401.573 94.4519 413.031 99.5244 425.631 104.013C438.23 108.501 451.406 110.431 464.689 110.767C493.918 111.515 521.402 103.3 550.069 99.6262C582.598 95.4567 615.955 96.8731 647.914 88.8527" stroke="#0066FF" stroke-miterlimit="10"/>
<path d="M0.399902 78.1048C32.6281 79.9638 59.5052 100.679 92.6507 96.5002C118.48 93.2292 142.187 80.9464 168.052 77.972C193.81 75.0109 221.24 83.04 246.457 87.453C270.61 91.6756 295.022 95.3804 319.62 93.4461C342.629 91.6358 365.999 88.4622 389.009 91.9855C402.459 94.0481 414.051 99.3861 426.741 103.773C439.197 108.075 452.373 109.73 465.512 109.744C494.741 109.779 521.874 100.307 550.501 96.7304C582.877 92.6848 616.153 95.7522 647.914 87.6035" stroke="#0066FF" stroke-miterlimit="10"/>
<path d="M0.404297 76.4102C32.8483 78.3311 59.8064 99.2185 93.1902 95.1995C119.033 92.1012 142.911 80.1503 168.808 77.4946C194.538 74.8388 221.694 82.8061 246.916 87.0641C271.019 91.1185 295.31 94.4072 319.763 91.8444C343.021 89.41 366.691 87.1172 389.913 91.2956C403.358 93.7079 415.049 99.3159 427.834 103.601C440.231 107.752 453.294 109.111 466.312 108.81C495.496 108.142 522.346 97.4569 550.932 93.9646C583.124 90.0341 616.315 94.7525 647.927 86.44" stroke="#0066FF" stroke-miterlimit="10"/>
<path d="M0.41333 74.8203C33.0597 76.8077 60.1122 97.8367 93.7164 93.9948C119.573 91.0336 143.63 79.4679 169.541 77.0644C195.217 74.6831 222.153 82.637 247.361 86.7357C271.419 90.6352 295.589 93.5123 319.903 90.3343C343.421 87.2625 367.384 85.8372 390.767 90.6574C404.199 93.4238 415.989 99.2974 428.886 103.493C441.207 107.477 454.203 108.575 467.108 107.968C496.216 106.61 522.837 94.7649 551.373 91.3479C583.412 87.5103 616.504 93.8664 647.963 85.3902" stroke="#0066FF" stroke-miterlimit="10"/>
<path d="M0.418457 73.3438C33.2447 75.3931 60.3961 96.5726 94.2161 92.8856C120.086 90.0616 144.278 78.8456 170.247 76.7077C195.879 74.6008 222.616 82.5415 247.785 86.4985C271.811 90.2829 295.859 92.7262 320.029 88.9462C343.822 85.2282 368.001 84.6528 391.586 90.097C404.991 93.1954 416.894 99.3346 429.876 103.433C442.134 107.302 455.058 108.103 467.828 107.209C496.832 105.177 523.269 92.2393 551.751 88.8666C583.678 85.0998 616.635 93.0848 647.955 84.4049" stroke="#0066FF" stroke-miterlimit="10"/>
<path d="M0.422363 71.9844C33.4555 74.0824 60.6788 95.4036 94.6877 91.8626C120.58 89.1714 144.921 78.2873 170.917 76.4106C196.508 74.5649 223.038 82.5055 248.184 86.3387C272.188 89.9992 296.12 92.0352 320.155 87.6665C344.19 83.2978 368.607 83.5546 392.377 89.6008C405.75 93.0046 417.77 99.3385 430.824 103.419C442.965 107.222 455.907 107.7 468.52 106.518C497.408 103.862 523.696 89.8796 552.12 86.5511C583.907 82.8286 616.769 92.4292 647.954 83.5147" stroke="#0066FF" stroke-miterlimit="10"/>
<path d="M0.450195 70.7188C33.6632 72.861 60.945 94.3239 95.1562 90.9201C121.039 88.3573 145.524 77.8007 171.551 76.1674C197.084 74.5651 223.444 82.5324 248.563 86.2548C272.553 89.7958 296.372 91.4468 320.268 86.5027C344.613 81.4701 369.175 82.5191 393.115 89.1584C406.462 92.8499 418.585 99.4229 431.715 103.446C443.807 107.151 456.681 107.364 469.164 105.943C482.785 104.389 496.064 100.83 509.14 96.8822C523.251 92.6286 537.771 86.1397 552.471 84.4224C584.151 80.7176 616.9 91.9116 647.959 82.7315" stroke="#0066FF" stroke-miterlimit="10"/>
<path d="M0.450195 69.6133C33.8251 71.791 61.1563 93.391 95.5654 90.1023C121.471 87.6236 146.086 77.3592 172.145 75.9694C197.637 74.5928 223.808 82.6087 248.905 86.2382C272.895 89.6995 296.62 90.961 320.376 85.4592C344.987 79.7582 369.71 81.5685 393.826 88.7833C407.114 92.7669 419.34 99.5391 432.538 103.505C444.581 107.121 457.396 107.095 469.758 105.43C483.352 103.607 496.554 99.7382 509.554 95.5377C523.561 91.0141 538.104 84.1889 552.799 82.4582C584.38 78.7446 617.026 91.5099 647.964 82.0156" stroke="#0066FF" stroke-miterlimit="10"/>
<path d="M0.450195 68.6094C33.978 70.8225 61.3811 92.5509 95.9387 89.3596C121.862 86.9605 146.595 77.0059 172.676 75.8153C198.132 74.6512 224.127 82.76 249.206 86.2966C273.2 89.6738 296.84 90.5812 320.457 84.5261C345.351 78.1656 370.186 80.6886 394.473 88.4566C407.712 92.6881 420.028 99.6683 433.294 103.59C445.287 107.131 458.026 106.883 470.297 105.002C483.86 102.922 496.995 98.7609 509.927 94.3302C523.84 89.5632 538.401 82.4369 553.096 80.6797C584.573 76.9174 617.143 91.2363 647.977 81.4012" stroke="#0066FF" stroke-miterlimit="10"/>
<path d="M0.450195 67.7266C34.1174 69.9397 61.5655 91.8186 96.2714 88.7025C122.227 86.3699 147.085 76.6897 173.193 75.6938C198.622 74.72 224.456 82.9484 249.507 86.4141C273.511 89.7294 297.083 90.3004 320.556 83.7274C345.706 76.6853 370.605 79.8722 395.062 88.1536C408.256 92.6286 420.653 99.7902 433.973 103.676C445.925 107.16 458.619 106.717 470.774 104.637C484.318 102.318 497.381 97.8914 510.256 93.2482C524.092 88.251 538.662 80.8813 553.375 79.0843C584.789 75.2423 617.278 91.0794 647.977 80.8548" stroke="#0066FF" stroke-miterlimit="10"/>
<path d="M0.450195 66.9766C34.2478 69.1897 61.7229 91.2058 96.5637 88.1384C122.523 85.8544 147.494 76.431 173.624 75.59C199.027 74.7889 224.69 83.1633 249.741 86.5804C273.758 89.8558 297.285 90.1213 320.623 83.0394C346.034 75.3244 370.946 79.1133 395.584 87.9082C408.719 92.6 421.189 99.9254 434.557 103.785C446.474 107.229 459.105 106.618 471.174 104.361C484.701 101.824 497.705 97.1591 510.525 92.3212C524.299 87.1204 538.855 79.5603 553.609 77.7146C584.956 73.7531 617.404 91.0818 647.982 80.4058" stroke="#0066FF" stroke-miterlimit="10"/>
<path d="M0.450195 66.3477C34.0814 68.5608 61.4666 90.5769 96.105 87.7219C123.477 85.469 149.936 75.2931 177.555 75.5011C201.167 75.6782 224.86 83.3134 248.185 86.5977C272.967 90.0856 296.687 89.9882 320.686 82.5211C347.298 74.2618 372.232 78.6039 397.882 88.4257C409.38 92.8254 420.334 98.8274 431.918 102.948C444.176 107.308 457.635 106.883 470.248 104.462C484.561 101.718 498.263 96.4947 511.762 91.1833C525.369 85.8098 539.835 78.2454 554.508 76.4749C585.536 72.7524 617.804 91.1301 647.977 80.0469" stroke="#0066FF" stroke-miterlimit="10"/>
<path d="M0.450195 65.8516C34.1758 68.0337 61.561 90.1959 96.2939 87.3365C123.675 85.0791 150.255 75.1422 177.865 75.4742C201.459 75.7619 225.031 83.6096 248.342 86.8983C273.142 90.395 296.858 90.0498 320.74 82.0958C347.622 73.1371 372.426 77.9883 398.287 88.2926C409.731 92.8516 420.716 98.9067 432.331 103.032C444.563 107.396 457.963 106.883 470.504 104.324C484.809 101.407 498.456 95.9588 511.915 90.5057C525.504 84.9995 539.966 77.3509 554.675 75.4919C585.644 71.6057 617.948 91.3599 647.982 79.7411" stroke="#0066FF" stroke-miterlimit="10"/>
<path d="M0.450195 65.5C34.2433 67.6467 61.606 89.9417 96.4378 87.0381C123.823 84.7541 150.462 75.0297 178.108 75.4679C201.693 75.8397 225.153 83.9397 248.455 87.2549C273.268 90.7959 297.02 90.2338 320.749 81.8018C347.892 72.1615 372.498 77.4198 398.579 88.1579C409.996 92.8541 421.009 98.9712 432.633 103.145C444.855 107.532 458.138 106.978 470.671 104.3C499.625 98.1036 525.567 78.7035 554.8 74.7907C585.716 70.6521 618.106 91.7387 647.982 79.5356" stroke="#0066FF" stroke-miterlimit="10"/>
<path d="M0.450195 65.2695C34.2972 67.372 61.6509 89.7997 96.5232 86.8253C123.913 84.4838 150.642 74.9497 178.274 75.4587C201.864 75.9013 225.22 84.2846 248.513 87.6574C273.335 91.2515 297.168 90.5256 320.763 81.6377C348.143 71.3202 372.475 76.884 398.804 88.0558C410.126 92.8494 421.166 99.201 432.817 103.211C445.192 107.465 458.075 107.12 470.743 104.322C499.747 97.913 525.545 78.4951 554.881 74.299C585.756 69.8728 618.285 92.2474 647.964 79.3981" stroke="#0066FF" stroke-miterlimit="10"/>
<path d="M0.450195 65.1875C34.3332 67.228 61.6374 89.7885 96.5457 86.7034C123.935 84.2823 150.7 74.9075 178.387 75.4564C201.981 75.9255 225.247 84.6629 248.536 88.1154C273.358 91.7936 297.317 90.9482 320.772 81.6133C348.364 70.6229 372.354 76.3859 398.934 87.9826C423.216 98.5702 443.223 110.623 470.72 104.417C499.801 97.8531 525.477 78.599 554.917 74.0665C585.756 69.3172 618.456 92.9002 648 79.378" stroke="#0066FF" stroke-miterlimit="10"/>
</g>
<defs>
<linearGradient id="paint0_linear_8346_10873" x1="324" y1="0" x2="324" y2="300" gradientUnits="userSpaceOnUse">
<stop stop-color="#0B0B0B"/>
<stop offset="0.628322" stop-opacity="0"/>
</linearGradient>
</defs>
</svg>
