<svg width="345" height="94" viewBox="0 0 345 94" fill="none" xmlns="http://www.w3.org/2000/svg">
<path d="M-323 94C7.3402 94 337.68 94 668.021 94" stroke="#0066FF" stroke-opacity="0.15" stroke-width="1.68831" stroke-miterlimit="10"/>
<path d="M-323 91.3903C-155.724 91.4096 11.4695 90.9433 178.704 90.4156C251.063 90.186 323.916 90.2614 396.268 90.7452C486.836 91.35 577.446 90.7803 667.993 91.3903" stroke="#0066FF" stroke-opacity="0.15" stroke-width="1.68831" stroke-miterlimit="10"/>
<path d="M-323 88.8206C-275.603 88.8206 -228.192 88.9135 -180.802 88.8679C-138.45 88.8276 -96.1939 87.9528 -53.8553 87.802C25.0134 87.5216 103.868 87.8476 182.73 87.5163C252.728 87.2218 323.448 86.4417 393.398 87.632C434.167 88.3332 474.517 88.6523 515.321 88.9415C566.248 89.3027 617.114 88.3227 668.021 88.8206" stroke="#0066FF" stroke-opacity="0.15" stroke-width="1.68831" stroke-miterlimit="10"/>
<path d="M-323 86.2849C-276.284 86.2849 -229.445 86.4847 -182.743 86.2691C-138.856 86.0657 -95.2235 84.6405 -51.3709 84.2741C27.6492 83.6132 106.05 85.5013 184.988 85.1647C254.448 84.8737 322.925 82.5105 392.462 84.6247C433.107 85.8606 472.494 86.8283 513.435 87.1106C565.051 87.4612 616.412 85.7555 668.021 86.2849" stroke="#0066FF" stroke-opacity="0.15" stroke-width="1.68831" stroke-miterlimit="10"/>
<path d="M-323 83.7993C-277.131 83.7993 -230.925 84.1183 -185.09 83.6783C-139.255 83.2383 -94.0742 81.2135 -48.3772 80.5596C-6.83689 79.9653 34.1184 80.1248 75.4385 81.4186C112.471 82.5791 148.444 83.4171 185.779 83.2909C218.503 83.1787 249.163 81.913 281.481 80.7332C318.466 79.3815 356.544 80.0127 393.184 81.7342C433.513 83.631 471.551 85.4454 512.733 85.6523C564.679 85.9152 616.04 83.3452 668.021 83.7993" stroke="#0066FF" stroke-opacity="0.15" stroke-width="1.68831" stroke-miterlimit="10"/>
<path d="M-323 81.3504C-278.122 81.3504 -232.562 81.7799 -187.76 81.0927C-139.888 80.3599 -92.8286 77.7058 -45.06 76.71C-4.04584 75.844 37.242 76.4376 77.6132 78.4736C113.655 80.2652 148.499 81.8658 185.339 81.7922C219.453 81.7238 250.319 79.5237 283.436 77.7443C321.026 75.7248 358.223 76.4909 395.242 78.9399C434.917 81.5695 471.544 84.4025 513.008 84.4778C565.044 84.5743 615.896 81.0559 668.021 81.3521" stroke="#0066FF" stroke-opacity="0.15" stroke-width="1.68831" stroke-miterlimit="10"/>
<path d="M-323 78.9392C-279.182 78.9287 -234.29 79.4651 -190.623 78.5272C-140.494 77.4596 -91.521 74.1656 -41.5777 72.7895C0.334249 71.6359 39.0666 72.7088 79.492 75.6066C114.102 78.089 147.625 80.5748 183.928 80.5801C219.825 80.5801 251.758 77.2755 285.824 74.8633C324.632 72.1163 360.419 72.9157 398.339 76.2342C436.934 79.6106 472.37 83.5971 514.061 83.5094C566.021 83.3902 615.916 78.8586 668.021 78.9392" stroke="#0066FF" stroke-opacity="0.15" stroke-width="1.68831" stroke-miterlimit="10"/>
<path d="M-323 76.5621C-280.29 76.5463 -236.072 77.1424 -193.617 75.9888C-141.189 74.5653 -90.3854 70.635 -38.1435 68.8609C4.35338 67.4181 41.2414 68.9608 81.0129 72.8211C113.827 76.0064 146.056 79.4581 181.767 79.5668C219.508 79.6825 253.533 75.1439 288.439 72.0883C328.747 68.5594 363.165 69.3097 402.117 73.6099C439.212 77.7051 473.801 82.9625 515.672 82.668C567.446 82.3034 616.026 76.7304 668.007 76.5621" stroke="#0066FF" stroke-opacity="0.15" stroke-width="1.68831" stroke-miterlimit="10"/>
<path d="M-323 74.2306C-281.384 74.2096 -237.855 74.8442 -196.549 73.4996C-141.877 71.7202 -89.2361 67.1728 -34.8194 65.0025C8.53771 63.2722 43.3336 65.2532 82.2655 70.1302C113.056 73.9869 143.984 78.4415 179.2 78.6764C218.785 78.9376 255.543 73.042 291.254 69.4185C309.959 67.5304 329.677 65.7616 350.068 66.1683C370.026 66.568 388.924 68.7085 406.377 71.0769C441.559 75.8399 475.831 82.3964 517.695 81.895C569.242 81.2762 616.199 74.6654 668.028 74.2359" stroke="#0066FF" stroke-opacity="0.15" stroke-width="1.68831" stroke-miterlimit="10"/>
<path d="M-322.966 71.9338C-282.362 71.9075 -239.541 72.5579 -199.364 71.0573C-142.607 68.9431 -88.321 63.8084 -31.8879 61.2629C12.4603 59.2609 45.2465 61.6433 83.1256 67.5249C111.845 71.9847 141.479 77.4349 176.378 77.8048C217.67 78.2413 257.587 70.9591 293.979 66.8377C313.042 64.6779 334.067 62.4007 355.36 62.902C375.318 63.3719 394.017 65.9383 410.706 68.5995C443.981 73.9078 477.903 81.7878 519.87 81.0848C571.196 80.2223 616.343 72.607 668.034 71.9338" stroke="#0066FF" stroke-opacity="0.15" stroke-width="1.68831" stroke-miterlimit="10"/>
<path d="M-322.959 69.681C-283.325 69.6494 -241.138 70.2998 -201.986 68.6887C-143.378 66.2748 -87.6329 60.5984 -29.4517 57.7128C-7.29827 56.6154 13.699 55.9808 35.3982 57.9057C53.0783 59.4746 68.6318 62.2287 83.6347 65.0126C110.475 69.9895 138.808 76.3724 173.625 76.872C216.432 77.4874 259.555 68.8851 296.539 64.3429C315.933 61.9605 338.251 59.2012 360.357 59.7849C380.404 60.3109 398.855 63.2683 414.828 66.1889C446.334 71.9459 479.85 81.0584 522.044 80.1766C573.185 79.1054 616.46 70.547 668.062 69.6722" stroke="#0066FF" stroke-opacity="0.15" stroke-width="1.68831" stroke-miterlimit="10"/>
<path d="M-322.951 67.4606C-284.15 67.4273 -242.534 68.0742 -204.283 66.3895C-144.189 63.7424 -87.3842 57.5786 -27.7371 54.4214C-5.50801 53.2451 15.4273 52.5158 37.0164 54.7001C54.5313 56.483 69.4586 59.5421 83.732 62.5994C108.996 68.0041 136.146 75.1881 171.135 75.793C193.494 76.1804 215.978 73.2089 235.289 70.6933C256.713 67.9024 277.311 64.7224 298.728 61.928C318.411 59.3615 341.81 56.213 364.659 56.8704C384.851 57.4507 403.013 60.7096 418.415 63.8476C448.476 69.9833 481.358 80.1265 523.959 79.0992C575.01 77.8721 616.474 68.4616 668.069 67.4536" stroke="#0066FF" stroke-opacity="0.15" stroke-width="1.68831" stroke-miterlimit="10"/>
<path d="M-322.945 65.287C-284.839 65.2537 -243.664 65.9023 -206.149 64.186C-144.995 61.3899 -87.5297 54.8054 -26.8848 51.4518C-4.75887 50.2246 16.3347 49.441 37.7036 51.7814C55.1979 53.6975 69.6778 57.0195 83.4351 60.2872C107.646 66.0355 133.771 73.8156 169.186 74.487C192.158 74.9183 215.296 71.6997 234.91 69.0385C257.049 66.032 278.267 62.61 300.407 59.6C320.365 56.8845 344.452 53.4889 367.913 54.1813C388.318 54.7844 406.171 58.2467 421.153 61.5652C450.285 68.0147 482.163 78.8855 525.444 77.7898C576.495 76.4978 616.377 66.3318 668.075 65.294" stroke="#0066FF" stroke-opacity="0.15" stroke-width="1.68831" stroke-miterlimit="10"/>
<path d="M-322.931 63.1444C-285.362 63.1163 -244.441 63.7772 -207.477 62.075C-145.807 59.235 -88.1832 52.3052 -27.0703 48.8604C-5.24717 47.6333 16.2387 46.8339 37.3048 49.19C54.9436 51.1622 69.2239 54.663 82.7265 58.0692C106.552 64.0893 131.906 72.1814 168.064 72.8335C191.546 73.2578 214.746 70.0058 234.635 67.2237C257.243 64.0682 278.852 60.4709 301.453 57.3119C321.666 54.486 345.856 51.036 369.799 51.7232C390.445 52.3157 407.995 55.8411 422.791 59.3016C451.696 66.0597 482.053 77.2057 526.346 76.1205C577.528 74.8671 616.205 64.0752 668.117 63.1479" stroke="#0066FF" stroke-opacity="0.15" stroke-width="1.68831" stroke-miterlimit="10"/>
<path d="M-322.925 61.0415C-285.493 60.9819 -244.703 61.7252 -207.898 59.9896C-146.647 57.0953 -89.7597 49.9586 -29.1285 46.4332C-7.36731 45.1693 14.1048 44.4119 35.1571 46.74C53.0505 48.7227 67.613 52.2656 81.3153 55.7139C105.581 61.8216 131.204 70.0172 167.837 70.7815C191.484 71.2741 214.546 68.0625 234.524 65.2366C257.166 62.032 278.735 58.3646 301.37 55.1582C321.679 52.2797 345.746 48.877 369.867 49.6133C390.651 50.2479 408.097 53.7803 422.921 57.2794C451.943 64.1321 481.722 75.1309 526.366 74.1088C577.693 72.9378 615.971 61.8514 668.096 61.0415" stroke="#0066FF" stroke-opacity="0.15" stroke-width="1.68831" stroke-miterlimit="10"/>
<path d="M-322.917 58.986C-285.327 58.8773 -244.661 59.8152 -207.725 57.9587C-147.561 54.9347 -91.9541 47.6805 -32.4309 44.0306C-10.4083 42.679 10.4995 41.976 31.8547 44.3199C50.0715 46.3166 65.1502 49.8227 79.3548 53.2412C104.426 59.2823 131.129 67.5602 167.762 68.6033C191.264 69.273 214.409 66.0526 234.216 63.2284C256.582 60.0396 277.827 56.3687 300.187 53.1763C320.455 50.282 344.522 46.9056 368.609 47.7804C389.331 48.5325 407.032 52.1157 422.062 55.5763C451.235 62.2905 481.874 73.0824 525.982 72.0901C577.432 70.9314 615.834 59.7819 668.083 58.986" stroke="#0066FF" stroke-opacity="0.15" stroke-width="1.68831" stroke-miterlimit="10"/>
<path d="M-322.903 56.9667C-285.1 56.837 -244.544 58.0361 -207.381 56.0709C-148.442 52.9539 -94.2873 45.6051 -36.0166 41.8711C-13.8081 40.4441 6.61103 39.8077 28.207 42.1218C46.7061 44.1045 62.3904 47.5195 77.1249 50.9116C103.036 56.872 130.97 65.1202 167.569 66.4157C190.858 67.2414 213.824 64.0877 233.452 61.2757C255.44 58.1202 276.237 54.4721 298.212 51.3183C318.418 48.4188 342.257 45.1388 366.235 46.138C386.977 47.004 404.994 50.6031 420.362 54.0268C449.921 60.6008 481.565 71.1227 525.335 70.1445C577.012 68.991 615.628 57.7696 668.104 56.9772" stroke="#0066FF" stroke-opacity="0.15" stroke-width="1.68831" stroke-miterlimit="10"/>
<path d="M-322.89 54.9808C-284.825 54.8563 -244.289 56.3727 -206.865 54.3076C-149.275 51.1328 -96.6961 43.7086 -39.7949 39.9097C-17.497 38.4213 2.53677 37.8621 24.3117 40.1095C43.1411 42.0519 59.4104 45.3687 74.7161 48.6995C101.708 54.553 130.619 62.682 167.322 64.2159C190.335 65.1766 212.895 62.1596 232.33 59.3669C253.836 56.2745 274.104 52.6579 295.597 49.562C315.727 46.6607 339.105 43.5438 362.938 44.6535C383.777 45.6264 402.166 49.2114 417.995 52.5878C448.145 59.0163 480.918 69.2156 524.454 68.2427C576.448 67.0804 615.359 55.7837 668.152 54.986" stroke="#0066FF" stroke-opacity="0.15" stroke-width="1.68831" stroke-miterlimit="10"/>
<path d="M-322.883 53.0397C-284.509 52.9415 -243.987 54.8226 -206.225 52.6681C-150.081 49.4652 -99.1742 41.9744 -43.739 38.1545C-21.4548 36.6153 -1.69627 36.1367 20.1888 38.2859C39.3554 40.1687 56.1959 43.3698 72.1279 46.599C100.344 52.3192 130.137 60.2536 166.977 62.0084C211.435 64.1278 256.361 53.0976 292.389 47.898C312.444 45.0019 335.189 42.1006 358.815 43.3155C379.819 44.3971 398.593 47.9471 414.966 51.2726C445.88 57.5503 479.878 67.385 523.304 66.4068C575.683 65.2288 614.966 53.8496 668.137 53.0397" stroke="#0066FF" stroke-opacity="0.15" stroke-width="1.68831" stroke-miterlimit="10"/>
<path d="M-322.869 51.1336C-284.157 51.0792 -243.629 53.3635 -205.474 51.1336C-150.838 47.929 -101.686 40.4031 -47.7921 36.5709C-25.5836 34.9931 -6.01782 34.6004 15.9292 36.6252C35.4468 38.4291 52.8722 41.4882 69.4305 44.6157C98.872 50.1729 129.552 57.8426 166.578 59.8147C210.362 62.1428 253.354 51.4316 288.714 46.3162C308.266 43.492 331.06 40.645 354.039 42.1C375.374 43.4499 394.169 46.7229 411.47 50.0537C443.272 56.1719 478.577 65.6086 522.003 64.6199C574.83 63.419 614.533 51.954 668.151 51.1213" stroke="#0066FF" stroke-opacity="0.15" stroke-width="1.68831" stroke-miterlimit="10"/>
<path d="M-322.855 49.2667C-283.779 49.2667 -243.209 51.9892 -204.628 49.6769C-151.547 46.4951 -104.198 38.9377 -51.8939 35.1265C38.9497 28.5017 86.3397 52.9587 166.138 57.6393C209.151 60.1655 249.968 49.84 284.688 44.8279C304.151 42.023 326.064 39.4688 348.754 41.0063C370.357 42.4701 389.592 45.6712 407.589 48.9389C440.382 54.8993 477.057 63.9065 520.572 62.902C573.888 61.6749 614.058 50.1204 668.172 49.2667" stroke="#0066FF" stroke-opacity="0.15" stroke-width="1.68831" stroke-miterlimit="10"/>
<path d="M-322.842 47.4394C-283.387 47.513 -242.748 50.6825 -203.706 48.3019C-152.207 45.1621 -106.669 37.5872 -55.9958 33.8093C32.9689 27.1792 87.1516 50.4634 165.662 55.4789C207.932 58.1821 246.3 48.3141 280.387 43.3986C299.767 40.6042 320.723 38.3866 343.09 39.9941C364.981 41.5719 384.706 44.6923 403.425 47.8917C437.271 53.6768 475.343 62.251 519.044 61.2237C572.882 59.9597 613.556 48.3212 668.192 47.4394" stroke="#0066FF" stroke-opacity="0.15" stroke-width="1.68831" stroke-miterlimit="10"/>
<path d="M-322.828 45.6513C-282.98 45.8003 -242.259 49.4327 -202.728 46.9924C-152.806 43.9105 -109.132 36.3268 -60.0282 32.5997C27.0508 25.9889 87.9367 48.0004 165.174 53.3508C206.687 56.2258 242.446 46.8434 275.935 42.0242C295.246 39.2456 315.163 37.3839 337.185 39.044C359.38 40.7252 379.613 43.7773 399.076 46.8977C434.009 52.5075 473.485 60.6347 517.407 59.5846C571.775 58.2821 612.985 46.5559 668.166 45.6443" stroke="#0066FF" stroke-opacity="0.15" stroke-width="1.68831" stroke-miterlimit="10"/>
<path d="M-322.814 43.9015C-282.581 44.1277 -241.743 48.2246 -201.689 45.7335C-153.308 42.7217 -111.438 35.1345 -63.9167 31.4706C21.3111 24.8983 88.7073 45.588 164.679 51.2591C205.441 54.3025 238.517 45.4197 271.434 40.6934C290.662 37.9323 309.609 36.437 331.267 38.1567C353.771 39.9449 374.534 42.9198 394.726 45.9631C430.754 51.3976 471.62 59.076 515.817 57.9997C570.756 56.6603 612.476 44.8517 668.207 43.9015" stroke="#0066FF" stroke-opacity="0.15" stroke-width="1.68831" stroke-miterlimit="10"/>
<path d="M-322.801 42.1912C-282.196 42.4927 -241.221 47.0436 -200.706 44.5105C-153.811 41.5776 -113.709 33.9921 -67.7025 30.4001C15.8392 23.8787 89.4844 43.222 164.224 49.2104C204.243 52.4185 234.628 44.0354 267.008 39.3933C286.154 36.6497 304.171 35.5208 325.416 37.2896C348.23 39.1864 369.517 42.093 390.431 45.0522C427.519 50.3008 469.747 57.5462 514.247 56.4471C569.737 55.0709 611.972 43.1659 668.247 42.1947" stroke="#0066FF" stroke-opacity="0.15" stroke-width="1.68831" stroke-miterlimit="10"/>
<path d="M-322.787 40.5203C-281.776 40.8937 -240.704 45.8811 -199.694 43.3129C-154.21 40.4642 -115.801 32.8839 -71.2257 29.369C10.7125 22.9072 90.2488 40.9077 163.736 47.2135C203.087 50.5899 230.753 42.6713 262.686 38.1221C281.77 35.4048 298.845 34.6159 319.732 36.4356C342.842 38.4411 364.644 41.2899 386.24 44.1631C424.347 49.2312 467.876 56.0506 512.685 54.9234C568.698 53.5122 611.429 41.5213 668.22 40.5203" stroke="#0066FF" stroke-opacity="0.15" stroke-width="1.68831" stroke-miterlimit="10"/>
<path d="M-322.772 38.8877C-281.377 39.3224 -240.187 44.7201 -198.716 42.1256C-154.533 39.3627 -117.714 31.7825 -74.4736 28.35C-32.5273 25.0192 12.0962 28.7795 51.2759 32.7975C89.0586 36.6735 124.976 41.7574 163.323 45.2723C202.179 48.8345 226.962 41.2894 258.654 36.8576C300.738 30.9761 343.84 38.4354 382.359 43.2721C421.388 48.1666 466.142 54.5793 511.247 53.4276C567.756 51.9865 610.955 39.9114 668.248 38.8859" stroke="#0066FF" stroke-opacity="0.15" stroke-width="1.68831" stroke-miterlimit="10"/>
<path d="M-322.759 37.294C-280.978 37.7796 -239.782 43.5507 -197.781 40.9369C-154.774 38.2582 -119.421 30.6832 -77.344 27.3261C-35.7831 24.0058 10.0172 27.6118 49.3828 31.2915C87.9293 34.8958 124.618 39.6554 162.958 43.3999C201.298 47.1445 223.692 39.9692 254.978 35.6006C296.106 29.8593 341.004 37.8795 378.856 42.3761C418.703 47.1094 464.593 53.1329 509.946 51.9654C566.895 50.4981 610.521 38.3423 668.234 37.294" stroke="#0066FF" stroke-opacity="0.15" stroke-width="1.68831" stroke-miterlimit="10"/>
<path d="M-322.745 35.7395C-280.572 36.2654 -239.41 42.359 -196.92 39.7294C-154.939 37.1332 -120.887 29.5617 -79.9244 26.2694C-38.68 22.9649 8.16631 26.4237 47.7108 29.7983C86.9387 33.1484 124.363 37.6223 162.642 41.5965C180.7 43.4705 193.935 43.5476 211.394 41.1301C225.585 39.165 237.588 36.311 251.758 34.3318C270.663 31.6881 285.721 31.7618 305.521 33.727C329.312 36.0918 352.491 38.8108 375.835 41.4527C416.35 46.0247 463.238 51.6976 508.797 50.5196C566.139 49.0365 610.129 36.8001 668.255 35.7395" stroke="#0066FF" stroke-opacity="0.15" stroke-width="1.68831" stroke-miterlimit="10"/>
<path d="M-322.732 34.2216C-280.166 34.7475 -239.128 41.1322 -196.143 38.4938C-154.995 35.9677 -122.105 28.3682 -81.969 25.16C-40.938 21.8801 6.76867 25.1951 46.4714 28.3156C86.1742 31.436 124.294 35.6784 162.448 39.8858C180.08 41.8299 192.97 42.1052 210.279 39.7C224.002 37.7926 235.454 34.9772 249.142 33.0558C267.944 30.4157 282.768 30.6962 302.224 32.7263C326.132 35.2209 349.669 37.9346 373.453 40.5029C414.477 44.9311 462.28 50.2885 507.909 49.1069C565.567 47.615 609.853 35.305 668.261 34.2374" stroke="#0066FF" stroke-opacity="0.15" stroke-width="1.68831" stroke-miterlimit="10"/>
<path d="M-322.718 32.7447C-279.753 33.2566 -238.95 39.8621 -195.482 37.2168C-154.947 34.7467 -123.083 27.0893 -83.5038 23.9759C-42.5279 20.7485 5.69493 23.9128 45.6454 26.8106C85.9194 29.7294 124.37 33.7948 162.366 38.2335C179.64 40.2496 192.385 40.6738 209.563 38.2686C222.914 36.4016 233.905 33.6037 247.215 31.7191C265.927 29.0703 280.738 29.4998 299.897 31.607C323.84 34.2365 347.652 36.9573 371.801 39.4712C413.094 43.7715 461.695 48.8518 507.289 47.679C565.174 46.1889 609.674 33.8088 668.33 32.7447" stroke="#0066FF" stroke-opacity="0.15" stroke-width="1.68831" stroke-miterlimit="10"/>
<path d="M-322.704 31.3053C-279.347 31.7699 -238.894 38.5349 -194.945 35.8826C-154.829 33.4616 -123.653 25.7709 -84.5494 22.6943C-43.7043 19.4827 5.15169 22.5786 45.2054 25.2958C85.8923 28.0569 124.515 32.0118 162.332 36.6907C179.324 38.7944 192.138 39.3028 209.226 36.8818C222.302 35.0288 232.949 32.2292 246.004 30.3587C264.648 27.687 279.664 28.1919 298.597 30.3955C322.492 33.1758 346.483 35.9159 370.9 38.3877C412.317 42.5793 461.482 47.4317 506.89 46.2765C564.913 44.8021 609.523 32.3554 668.317 31.3053" stroke="#0066FF" stroke-opacity="0.15" stroke-width="1.68831" stroke-miterlimit="10"/>
<path d="M-322.683 29.9046C-279.106 30.3218 -238.935 37.1605 -194.718 34.4836C-154.74 32.0644 -123.749 24.3807 -84.7693 21.3216C-43.9654 18.1205 5.1107 21.2795 45.1782 23.9389C86.0096 26.6492 124.508 30.5743 162.373 35.2743C179.303 37.3779 192.297 37.8162 209.268 35.411C222.254 33.5703 232.832 30.7952 245.819 28.9492C264.4 26.3091 279.692 26.7999 298.446 29.0667C322.237 31.9417 346.256 34.7028 370.777 37.15C411.994 41.2645 461.799 46.0626 506.856 44.8635C564.796 43.3243 609.695 31.0879 668.338 29.9099" stroke="#0066FF" stroke-opacity="0.15" stroke-width="1.68831" stroke-miterlimit="10"/>
<path d="M-322.669 28.5258C-278.996 28.922 -238.942 35.8063 -194.621 33.0978C-154.705 30.6575 -123.557 23.0387 -84.5492 19.9989C-43.7453 16.8188 5.22078 20.1164 45.2264 22.7933C85.927 25.5175 124.26 29.4356 162.387 33.913C198.477 38.1501 216.363 31.634 246.087 27.5704C264.669 25.0302 280.057 25.493 298.639 27.7685C322.327 30.6698 346.304 33.4239 370.818 35.8431C411.794 39.8856 462.247 44.7066 506.98 43.4058C564.673 41.7264 610.122 29.9879 668.372 28.5521" stroke="#0066FF" stroke-opacity="0.15" stroke-width="1.68831" stroke-miterlimit="10"/>
<path d="M-322.656 27.1628C-278.851 27.545 -238.894 34.4801 -194.436 31.7488C-154.519 29.2946 -123.247 21.7564 -84.219 18.7446C-43.4151 15.5891 5.40646 19.0128 45.3501 21.6985C85.8925 24.4245 124.081 28.3251 162.428 32.5763C198.215 36.5452 216.742 30.1448 246.486 26.2653C265.068 23.8355 280.594 24.2843 299.01 26.5633C322.588 29.4804 346.496 32.2134 371.004 34.5906C411.814 38.5507 462.769 43.3208 507.131 41.9324C564.535 40.1373 610.542 28.9089 668.365 27.2452" stroke="#0066FF" stroke-opacity="0.15" stroke-width="1.68831" stroke-miterlimit="10"/>
<path d="M-322.642 25.8299C-278.686 26.2016 -238.791 33.1928 -194.167 30.4493C-154.299 27.9985 -122.841 20.5462 -83.7855 17.566C-42.9815 14.4631 5.68169 17.9727 45.5496 20.6602C85.8993 23.3774 124.005 27.2482 162.49 31.2644C198.022 34.9687 217.182 28.7102 247.002 25.0113C265.632 22.7025 281.275 23.1513 299.554 25.4285C323.001 28.3508 346.861 31.0523 371.327 33.3734C412.035 37.2389 463.299 41.8915 507.358 40.4312C564.48 38.5396 611.016 27.839 668.399 25.9702" stroke="#0066FF" stroke-opacity="0.15" stroke-width="1.68831" stroke-miterlimit="10"/>
<path d="M-322.628 24.5184C-278.487 24.8865 -238.667 31.9321 -193.816 29.1868C-153.983 26.75 -122.332 19.3819 -83.2419 16.4613C-42.4518 13.4127 5.96373 17.0013 45.8179 19.6799C85.9474 22.3797 123.937 26.2101 162.579 29.9844C197.843 33.4292 217.677 27.3356 247.635 23.8365C266.327 21.6521 282.094 22.1167 300.256 24.3869C323.52 27.3241 347.392 29.9377 371.767 32.2161C412.441 35.9747 463.85 40.4555 507.654 38.9286C564.404 36.9599 611.512 26.7991 668.392 24.7533" stroke="#0066FF" stroke-opacity="0.15" stroke-width="1.68831" stroke-miterlimit="10"/>
<path d="M-322.608 23.233C-278.267 23.6011 -238.461 30.708 -193.39 27.9662C-153.591 25.5488 -121.727 18.2788 -82.5882 15.4178C-41.8118 12.4376 6.39719 16.0822 46.1757 18.7486C86.0918 21.4203 123.978 25.1981 162.71 28.7271C197.712 31.9176 218.262 26.0046 248.399 22.7176C267.18 20.6682 283.064 21.1591 301.123 23.4188C324.247 26.3365 348.032 28.9011 372.352 31.099C413.046 34.7401 464.448 38.9772 508.019 37.41C564.404 35.3817 612.049 25.7767 668.433 23.5713" stroke="#0066FF" stroke-opacity="0.15" stroke-width="1.68831" stroke-miterlimit="10"/>
<path d="M-322.594 21.9744C-278.026 22.3443 -238.227 29.5126 -192.901 26.7918C-153.13 24.4042 -121.039 17.2394 -81.8864 14.4468C-41.1306 11.5402 6.82372 15.2286 46.5678 17.8722C86.1879 20.5018 124.06 24.2201 162.834 27.4983C197.588 30.4382 218.895 24.7267 249.238 21.6624C268.123 19.755 284.131 20.2827 302.113 22.5389C325.079 25.4287 348.758 27.9356 372.999 30.0438C413.762 33.5499 465.006 37.5048 508.39 35.9007C564.383 33.8321 612.544 24.7933 668.419 22.453" stroke="#0066FF" stroke-opacity="0.15" stroke-width="1.68831" stroke-miterlimit="10"/>
<path d="M-322.58 20.7411C-277.764 21.1197 -237.93 28.3564 -192.343 25.6497C-152.599 23.3041 -120.274 16.2532 -81.0807 13.536C-40.3525 10.7136 7.34033 14.4283 46.9949 17.0421C86.3398 19.6367 124.171 23.2708 162.958 26.2965C197.472 28.9875 219.577 23.4916 250.147 20.6622C269.149 18.9091 285.28 19.4771 303.208 21.714C326.022 24.5696 349.602 27.0096 373.77 29.0155C414.664 32.3867 465.619 36.0068 508.845 34.3747C564.432 32.271 613.088 23.8195 668.441 21.3582" stroke="#0066FF" stroke-opacity="0.15" stroke-width="1.68831" stroke-miterlimit="10"/>
<path d="M-322.566 19.5332C-277.482 19.9223 -237.655 27.2291 -191.731 24.5592C-152.015 22.2487 -119.435 15.317 -80.1999 12.6839C-39.5062 9.95442 7.89081 13.6814 47.4903 16.2619C86.56 18.8091 124.356 22.3521 163.109 25.1219C197.389 27.5762 220.341 22.3048 251.152 19.719C270.284 18.1149 286.54 18.7443 304.426 20.9461C327.08 23.7584 350.548 26.1238 374.623 28.0215C415.675 31.2384 466.217 34.485 509.32 32.8337C564.493 30.73 613.611 22.8587 668.44 20.2957" stroke="#0066FF" stroke-opacity="0.15" stroke-width="1.68831" stroke-miterlimit="10"/>
<path d="M-322.552 18.3552C-277.186 18.7584 -237.318 26.1353 -191.104 23.5022C-151.367 21.246 -118.533 14.4336 -79.2498 11.8916C-38.5973 9.26202 8.46926 12.9873 48.0688 15.5292C86.8494 18.0221 124.618 21.4633 163.33 23.9755C197.376 26.1861 221.222 21.1601 252.288 18.8302C271.558 17.3857 287.93 18.0764 305.803 20.2678C328.292 23.0307 351.643 25.3134 375.615 27.0924C416.825 30.1445 466.858 32.9915 509.864 31.3208C564.604 29.2049 614.162 21.9472 668.468 19.2966" stroke="#0066FF" stroke-opacity="0.15" stroke-width="1.68831" stroke-miterlimit="10"/>
<path d="M-322.539 17.2149C-276.89 17.6304 -236.974 25.0774 -190.355 22.4881C-150.68 20.2828 -117.57 13.6036 -78.2456 11.1581C-37.6413 8.63191 9.10185 12.3484 48.6119 14.8395C87.1103 17.2728 124.852 20.6001 163.481 22.8563C197.313 24.8337 222.102 20.0514 253.409 17.9898C272.817 16.7083 289.32 17.4638 307.2 19.6394C329.519 22.3471 352.744 24.5407 376.598 26.1941C418.077 29.0691 467.49 31.4708 510.428 29.8037C564.741 27.7 614.691 21.0524 668.482 18.3263" stroke="#0066FF" stroke-opacity="0.15" stroke-width="1.68831" stroke-miterlimit="10"/>
<path d="M-322.525 16.094C-276.546 16.534 -236.554 24.0529 -189.605 21.5127C-149.936 19.3687 -116.538 12.8228 -77.1859 10.4789C-36.616 8.06497 9.7762 11.7604 49.2312 14.2095C87.4406 16.5814 125.154 19.7824 163.68 21.7827C197.313 23.5358 223.08 19.0111 254.62 17.2247C274.172 16.1115 290.799 16.9477 308.707 19.0935C330.856 21.7404 353.953 23.8391 377.679 25.3607C419.412 28.0464 468.137 29.987 511.019 28.3181C564.906 26.2232 615.214 20.2102 668.495 17.4211" stroke="#0066FF" stroke-opacity="0.15" stroke-width="1.68831" stroke-miterlimit="10"/>
<path d="M-322.511 15.0073C-276.201 15.4701 -236.141 23.0609 -188.799 20.5768C-149.165 18.4959 -115.498 12.0885 -76.0769 9.85157C-35.5621 7.55155 10.4722 11.2207 49.8652 13.6154C87.7993 15.9207 125.465 18.9868 163.867 20.7311C197.328 22.251 224.092 17.9998 255.874 16.4799C275.563 15.5385 292.307 16.4571 310.277 18.5836C332.254 21.1647 355.217 23.162 378.801 24.544C420.782 27.0263 468.764 28.4849 511.626 26.823C565.093 24.7526 615.717 19.3742 668.51 16.529" stroke="#0066FF" stroke-opacity="0.15" stroke-width="1.68831" stroke-miterlimit="10"/>
<path d="M-322.497 13.9564C-275.864 14.4437 -235.7 22.1064 -187.994 19.6819C-148.353 17.6676 -114.403 11.4022 -74.9346 9.27569C-34.4748 7.09663 11.1947 10.729 50.5603 13.0676C88.2259 15.3062 125.837 18.2251 164.115 19.7152C197.431 21.0107 225.214 17.0365 257.222 15.7971C277.057 15.0275 293.918 16.0338 311.956 18.1287C333.762 20.643 356.59 22.5373 380.026 23.777C422.289 26.0437 469.452 27.0044 512.3 25.3548C565.292 23.3107 616.22 18.581 668.524 15.6884" stroke="#0066FF" stroke-opacity="0.15" stroke-width="1.68831" stroke-miterlimit="10"/>
<path d="M-322.483 12.9391C-275.513 13.4528 -235.246 21.1785 -187.147 18.8277C-147.506 16.8835 -113.275 10.7601 -73.7579 8.74931C-33.3532 6.69823 11.9447 10.285 51.2621 12.564C88.6731 14.7325 126.215 17.4953 164.328 18.733C197.527 19.8111 226.322 16.1192 258.537 15.1603C278.495 14.566 295.487 15.6634 313.593 17.732C335.23 20.1748 357.921 21.9606 381.196 23.0526C423.728 25.0914 470.058 25.5454 512.906 23.908C565.512 21.899 616.639 17.8232 668.489 14.8885" stroke="#0066FF" stroke-opacity="0.15" stroke-width="1.68831" stroke-miterlimit="10"/>
<path d="M-322.47 11.9566C-275.155 12.4966 -234.771 20.3012 -186.287 18.0117C-146.653 16.1377 -112.119 10.1615 -72.5536 8.27521C-32.2177 6.34684 12.7017 9.89329 52.0122 12.1092C89.1754 14.2128 126.635 16.8056 164.589 17.7926C197.727 18.6551 227.505 15.2506 259.968 14.574C280.071 14.155 297.131 15.3488 315.41 17.3894C336.88 19.7594 359.432 21.4344 382.538 22.3751C479.576 26.458 574.665 19.5702 668.585 14.1357" stroke="#0066FF" stroke-opacity="0.15" stroke-width="1.68831" stroke-miterlimit="10"/>
<path d="M-322.457 11.0048C-274.791 11.5746 -234.29 19.4476 -185.407 17.23C-145.773 15.4313 -110.942 9.60415 -71.3292 7.8283C-31.0621 6.02264 13.4788 9.52526 52.7067 11.6763C89.6566 13.7081 127.006 16.1326 164.788 16.8636C197.919 17.5105 228.634 14.4093 261.337 14.0061C281.557 13.7607 298.762 15.0579 317.144 17.0687C338.368 19.4055 360.907 20.8956 383.79 21.7196C478.357 25.1258 576.991 18.8025 668.564 13.4048" stroke="#0066FF" stroke-opacity="0.15" stroke-width="1.68831" stroke-miterlimit="10"/>
<path d="M-322.442 10.0947C-274.426 10.6943 -233.801 18.6357 -184.518 16.4917C-144.878 14.7614 -109.758 9.09023 -70.0969 7.43358C-29.8986 5.7559 14.2569 9.21119 53.4435 11.2903C90.1938 13.245 127.412 15.4977 165.023 15.9903C198.215 16.425 229.797 13.6166 262.748 13.4992C283.085 13.4273 300.4 14.8262 318.927 16.8125C340.014 19.0722 362.401 20.4343 385.091 21.111C428.318 22.3995 472.15 21.3021 515.018 19.7261C566.455 17.8345 617.967 15.7589 668.578 12.7138" stroke="#0066FF" stroke-opacity="0.15" stroke-width="1.68831" stroke-miterlimit="10"/>
<path d="M-322.429 9.22161C-274.474 9.84045 -233.904 17.7958 -184.67 15.8359C-145.187 14.2582 -109.999 8.80789 -70.6475 7.15475C-30.869 5.48408 12.3986 8.79913 51.2411 10.8011C88.7898 12.7295 126.827 14.884 165.264 15.154C199.385 15.3942 232.632 12.74 266.678 13.0503C287.228 13.2379 304.357 14.9489 323.194 16.8492C342.76 18.8231 363.42 19.9539 384.314 20.4886C428.786 21.6263 472.893 19.9486 516.835 18.3656C567.556 16.5389 618.731 15.1329 668.613 12.0791" stroke="#0066FF" stroke-opacity="0.15" stroke-width="1.68831" stroke-miterlimit="10"/>
<path d="M-322.422 8.38301C-274.137 9.03165 -233.402 17.0537 -183.803 15.1691C-144.313 13.6685 -108.843 8.36198 -69.4294 6.8298C-29.7336 5.29412 13.19 8.56182 51.9774 10.499C89.3472 12.3677 127.24 14.3557 165.477 14.3557C199.798 14.3557 233.782 12.0539 268.109 12.6412C288.687 12.9918 305.961 14.801 324.942 16.661C344.377 18.5648 364.899 19.5763 385.614 19.976C430.231 20.8368 473.574 18.6227 517.509 17.0835C567.9 15.3181 619.068 14.5661 668.599 11.4737" stroke="#0066FF" stroke-opacity="0.15" stroke-width="1.68831" stroke-miterlimit="10"/>
<path d="M-322.408 7.58815C-273.758 8.26659 -232.941 16.3535 -182.922 14.5426C-143.418 13.1121 -107.673 7.95454 -68.204 6.54157C-28.5907 5.11984 13.9956 8.36476 52.7624 10.2388C89.9257 12.0392 127.674 13.8483 165.711 13.5924C200.28 13.3592 234.931 11.4028 269.548 12.2636C290.153 12.7772 307.565 14.6828 326.67 16.5025C345.939 18.3379 366.365 19.2302 386.888 19.495C431.621 20.0752 474.249 17.3352 518.17 15.8381C568.245 14.1306 619.337 14.0359 668.579 10.9049" stroke="#0066FF" stroke-opacity="0.15" stroke-width="1.68831" stroke-miterlimit="10"/>
<path d="M-322.394 6.83445C-273.407 7.53567 -232.418 15.6909 -182.048 13.9554C-142.538 12.5933 -106.517 7.57599 -66.986 6.28924C-27.4553 5.0025 14.787 8.20359 53.4506 10.0128C90.5244 11.7483 128.094 13.3874 165.925 12.8737C200.796 12.4004 236.039 10.7946 270.945 11.9253C291.591 12.5933 309.127 14.6023 328.411 16.3799C347.694 18.1575 367.859 18.9218 388.188 19.055C432.922 19.3513 474.985 16.0976 518.859 14.6426C568.644 12.9912 619.695 13.5522 668.606 10.3756" stroke="#0066FF" stroke-opacity="0.15" stroke-width="1.68831" stroke-miterlimit="10"/>
<path d="M-322.388 6.11856C-273.064 6.85485 -231.93 15.0592 -181.202 13.4043C-141.671 12.1088 -105.389 7.24403 -65.8028 6.06597C-26.3822 4.89317 15.5985 8.07323 54.1933 9.82103C91.157 11.4935 128.52 12.9608 166.165 12.1947C201.381 11.4777 237.147 10.2207 272.362 11.6162C292.947 12.4331 310.689 14.5473 330.11 16.2846C349.173 17.9886 369.338 18.6442 389.447 18.6495C434.181 18.6635 475.707 14.9119 519.519 13.4954C569.07 11.8931 619.997 13.108 668.605 9.88063" stroke="#0066FF" stroke-opacity="0.15" stroke-width="1.68831" stroke-miterlimit="10"/>
<path d="M-322.381 5.44727C-272.727 6.2081 -231.468 14.4808 -180.376 12.889C-140.824 11.6619 -104.281 6.9286 -64.6467 5.87677C-25.2674 4.82493 16.2935 7.98044 54.8951 9.66689C91.7831 11.2727 128.96 12.5752 166.385 11.5602C201.979 10.596 238.206 9.68793 273.746 11.3428C294.323 12.2982 312.216 14.5194 331.782 16.2163C350.756 17.8607 370.749 18.3989 390.672 18.2797C435.337 18.015 476.43 13.7831 520.179 12.3999C569.448 10.8432 620.245 12.712 668.626 9.41971" stroke="#0066FF" stroke-opacity="0.15" stroke-width="1.68831" stroke-miterlimit="10"/>
<path d="M-322.367 4.81641C-272.403 5.60353 -231 13.9323 -179.57 12.4107C-139.998 11.2379 -103.179 6.65712 -63.5245 5.70521C-24.2278 4.76206 16.9959 7.91231 55.5769 9.53565C92.3961 11.0801 129.387 12.2196 166.599 10.9609C202.592 9.74427 239.267 9.17978 275.054 11.0889C295.61 12.1845 313.655 14.5108 333.393 16.1727C352.25 17.7505 372.139 18.1853 391.891 17.9451C436.438 17.4069 477.18 12.7157 520.854 11.3623C569.889 9.84244 620.534 12.3598 668.681 9.00272" stroke="#0066FF" stroke-opacity="0.15" stroke-width="1.68831" stroke-miterlimit="10"/>
<path d="M-322.36 4.23047C-272.121 5.04214 -230.567 13.4305 -178.806 11.9702C-139.214 10.8518 -102.188 6.40953 -62.444 5.5628C-23.2161 4.72834 17.7048 7.87333 56.2238 9.44057C92.9948 10.9394 129.8 11.9071 166.791 10.41C203.205 8.93744 240.21 8.70954 276.306 10.8658C296.822 12.093 315.038 14.5245 334.907 16.1478C353.668 17.68 373.447 17.9973 392.992 17.6432C437.381 16.8385 477.841 11.7143 521.432 10.3785C570.295 8.8866 620.734 12.0491 668.668 8.61137" stroke="#0066FF" stroke-opacity="0.15" stroke-width="1.68831" stroke-miterlimit="10"/>
<path d="M-322.353 3.69336C-271.797 4.52431 -230.133 12.9688 -178.084 11.5664C-138.457 10.5005 -101.204 6.18972 -61.4187 5.44642C-22.2527 4.7154 18.3516 7.86039 56.8362 9.37854C93.5728 10.8283 130.199 11.6347 166.984 9.90446C203.769 8.17419 241.139 8.27587 277.517 10.6706C297.985 12.0187 316.38 14.5273 336.359 16.1436C354.941 17.6495 374.747 17.8388 394.052 17.3708C438.262 16.3189 478.495 10.781 521.997 9.46269C570.646 7.98836 620.94 11.7908 668.668 8.26009" stroke="#0066FF" stroke-opacity="0.15" stroke-width="1.68831" stroke-miterlimit="10"/>
<path d="M-322.312 3.19141C-271.481 4.03989 -229.727 12.5405 -177.368 11.1924C-137.755 10.1774 -100.282 5.99631 -60.4486 5.34943C-21.3721 4.71482 18.9707 7.87033 57.414 9.34466C94.13 10.7471 130.584 11.401 167.156 9.44283C204.415 7.4496 242.005 7.86507 278.646 10.4947C299.072 11.9567 317.626 14.56 337.721 16.1536C356.227 17.6209 375.931 17.705 395.035 17.1423C415.881 16.527 436.204 15.1175 456.217 13.5538C477.813 11.8691 500.035 9.29908 522.533 8.61889C571.017 7.15158 621.139 11.5851 668.674 7.94922" stroke="#0066FF" stroke-opacity="0.15" stroke-width="1.68831" stroke-miterlimit="10"/>
<path d="M-322.312 2.75195C-271.233 3.61446 -229.404 12.1694 -176.742 10.8669C-137.094 9.88517 -99.4218 5.81981 -59.5401 5.26935C-20.5256 4.72415 19.5282 7.89895 57.9371 9.33646C94.6531 10.7074 130.963 11.207 167.321 9.02792C204.987 6.76997 242.824 7.48698 279.733 10.3445C300.07 11.9222 318.782 14.6044 338.981 16.1752C357.411 17.6074 377.025 17.5969 395.944 16.9377C416.749 16.2155 436.954 14.6833 456.851 13.0196C478.288 11.228 500.545 8.52479 523.035 7.83934C571.368 6.36852 621.332 11.4244 668.681 7.66404" stroke="#0066FF" stroke-opacity="0.15" stroke-width="1.68831" stroke-miterlimit="10"/>
<path d="M-322.312 2.35742C-270.999 3.23395 -229.06 11.8397 -176.171 10.5758C-136.496 9.62562 -98.6442 5.68298 -58.7281 5.21141C-19.7686 4.75035 20.0168 7.96196 58.3982 9.36266C95.121 10.7002 131.3 11.0596 167.445 8.66144C205.544 6.14228 243.554 7.14153 280.724 10.2182C300.985 11.8941 319.835 14.6587 340.137 16.2119C358.492 17.6143 377.989 17.5162 396.77 16.7711C417.526 15.9472 437.629 14.2993 457.422 12.5445C478.715 10.6564 500.999 7.83399 523.49 7.13802C571.664 5.64792 621.511 11.3191 668.702 7.42377" stroke="#0066FF" stroke-opacity="0.15" stroke-width="1.68831" stroke-miterlimit="10"/>
<path d="M-322.312 2.00391C-270.786 2.88044 -228.778 11.5458 -175.662 10.3117C-135.938 9.38781 -97.894 5.55386 -57.9366 5.15942C-19.0184 4.77375 20.5191 8.03269 58.8592 9.40534C95.5958 10.7184 131.672 10.9445 167.596 8.34123C206.088 5.55211 244.194 6.81431 281.626 10.0943C301.818 11.8666 320.792 14.7031 341.176 16.2423C359.469 17.6219 378.897 17.4466 397.499 16.6227C418.228 15.7041 438.221 13.951 457.924 12.1121C479.1 10.1329 501.398 7.21401 523.916 6.50227C571.995 4.98061 621.718 11.2531 668.702 7.20349" stroke="#0066FF" stroke-opacity="0.15" stroke-width="1.68831" stroke-miterlimit="10"/>
<path d="M-322.312 1.70703C-270.586 2.58356 -228.537 11.3033 -175.214 10.0884C-135.484 9.18384 -97.2678 5.45157 -57.2759 5.11849C-18.399 4.80119 20.8771 8.11798 59.2172 9.47135C95.9744 10.7686 131.981 10.8738 167.7 8.0689C206.59 5.01331 244.717 6.51393 282.424 9.99727C302.526 11.8555 321.611 14.7568 342.071 16.2855C360.308 17.6494 379.64 17.4075 398.112 16.5134C418.813 15.5089 438.716 13.6612 458.337 11.7451C479.417 9.68522 501.694 6.69099 524.274 5.95996C572.249 4.39097 621.91 11.2542 668.709 7.02582" stroke="#0066FF" stroke-opacity="0.15" stroke-width="1.68831" stroke-miterlimit="10"/>
<path d="M-322.312 1.45703C-270.841 2.33356 -228.929 11.0533 -175.916 9.92257C-134.025 9.03027 -93.5308 4.99997 -51.261 5.08237C-15.1232 5.15249 21.1385 8.17652 56.8359 9.4773C94.7631 10.8587 131.066 10.8201 167.796 7.86272C208.524 4.59151 246.685 6.31126 285.941 10.2013C303.538 11.9439 320.303 14.321 338.031 15.9531C356.792 17.6799 377.39 17.5116 396.694 16.5527C418.6 15.4658 439.569 13.3971 460.229 11.2935C481.055 9.16525 503.194 6.16927 525.651 5.46804C573.137 3.99371 622.523 11.2724 668.702 6.88276" stroke="#0066FF" stroke-opacity="0.15" stroke-width="1.68831" stroke-miterlimit="10"/>
<path d="M-322.312 1.26367C-270.696 2.12793 -228.784 10.9055 -175.627 9.77304C-133.722 8.87898 -93.0421 4.94335 -50.7861 5.07483C-14.6758 5.18878 21.4001 8.29696 57.0768 9.59949C95.0316 10.9844 131.328 10.8477 167.878 7.69741C209.02 4.14921 246.981 6.07057 286.56 10.1517C304.075 11.9574 320.888 14.3555 338.664 15.9894C357.384 17.7179 377.892 17.5146 397.086 16.5013C418.978 15.346 439.865 13.188 460.464 11.0282C481.261 8.84742 503.394 5.81813 525.905 5.08184C573.302 3.54265 622.743 11.3666 668.709 6.76478" stroke="#0066FF" stroke-opacity="0.15" stroke-width="1.68831" stroke-miterlimit="10"/>
<path d="M-322.312 1.12109C-270.593 1.97133 -228.716 10.8015 -175.407 9.6515C-133.495 8.74692 -92.7256 4.89544 -50.4145 5.06899C-14.318 5.21625 21.5859 8.42435 57.2489 9.7374C95.2243 11.1398 131.575 10.9172 167.892 7.57763C209.432 3.75945 247.091 5.84209 287.007 10.095C304.481 11.955 321.335 14.3778 339.125 16.0309C357.831 17.7682 378.161 17.549 397.341 16.4884C441.655 14.0342 481.358 6.35048 526.098 4.80077C573.412 3.16166 622.984 11.5133 668.709 6.68006" stroke="#0066FF" stroke-opacity="0.15" stroke-width="1.68831" stroke-miterlimit="10"/>
<path d="M-322.312 1.0332C-270.511 1.86591 -228.647 10.7487 -175.276 9.57062C-133.357 8.64325 -92.4503 4.86715 -50.1598 5.06875C-14.0564 5.24406 21.6892 8.56436 57.3384 9.9002C95.3275 11.3237 131.803 11.0362 167.913 7.51603C209.818 3.42964 247.057 5.63324 287.352 10.058C304.681 11.9565 321.576 14.4722 339.408 16.0605C358.347 17.7452 378.064 17.6084 397.451 16.5005C441.841 13.962 481.323 6.27136 526.222 4.60945C573.474 2.85639 623.259 11.7181 668.681 6.62898" stroke="#0066FF" stroke-opacity="0.15" stroke-width="1.68831" stroke-miterlimit="10"/>
<path d="M-322.312 1C-270.455 1.80816 -228.667 10.7435 -175.242 9.52164C-133.323 8.56271 -92.3609 4.84973 -49.9878 5.06711C-13.8775 5.25293 21.7304 8.71348 57.3727 10.0809C95.3618 11.5377 132.03 11.2028 167.927 7.50562C210.155 3.15276 246.871 5.43525 287.551 10.0283C324.714 14.2216 355.333 18.9952 397.417 16.5374C441.923 13.9376 481.22 6.31178 526.277 4.51664C573.474 2.63561 623.521 11.9759 668.736 6.62032" stroke="#0066FF" stroke-opacity="0.15" stroke-width="1.68831" stroke-miterlimit="10"/>
</svg>
