<svg width="1301" height="99" viewBox="0 0 1301 99" fill="none" xmlns="http://www.w3.org/2000/svg">
<path d="M-46.9434 118.46C20.2939 118.417 91.2007 119.494 157.731 117.009C251.715 113.508 341.608 105.005 435.057 100.79C508.493 97.475 562.785 101.42 625.509 111.159C673.065 118.544 722.137 127.57 779.927 128.182C848.304 128.905 914.401 116.846 974.664 110.021C1006.23 106.445 1041.05 102.674 1076.31 103.504C1109.36 104.282 1140.32 108.532 1167.95 112.939C1223.05 121.729 1279.23 134.778 1348.72 133.613C1433.71 132.185 1508.47 119.575 1594.07 118.46" stroke="#555555" stroke-miterlimit="10"/>
<path d="M-46.9316 114.727C18.6988 114.675 88.5571 115.752 153.39 113.084C250.439 109.086 342.748 99.6868 439.091 94.9086C475.775 93.0914 510.545 92.0405 546.477 95.2279C575.754 97.826 601.509 102.387 626.353 106.996C670.798 115.238 717.716 125.807 775.369 126.635C846.253 127.654 917.661 113.409 978.904 105.887C1011.02 101.942 1047.98 97.3732 1084.58 98.3398C1117.78 99.2107 1148.33 104.108 1174.78 108.944C1226.95 118.477 1282.45 133.567 1352.32 132.107C1437.01 130.333 1508.67 116.161 1594.11 114.712" stroke="#555555" stroke-miterlimit="10"/>
<path d="M-46.9199 111.055C17.3315 111 86.244 112.071 149.584 109.281C249.095 104.898 343.159 94.6911 441.929 89.4629C478.739 87.5151 513.406 86.3075 549.155 89.9245C578.159 92.8768 602.877 97.9424 626.513 103.005C668.348 111.955 713.306 123.851 771.244 124.852C808.27 125.494 845.501 120.574 877.478 116.408C912.955 111.786 947.063 106.521 982.528 101.893C1015.12 97.6434 1053.87 92.4297 1091.7 93.5183C1125.14 94.4792 1155.21 99.8757 1180.72 105.072C1230.5 115.232 1284.95 132.028 1355.49 130.327C1440.03 128.295 1508.69 112.712 1594.13 111.043" stroke="#555555" stroke-miterlimit="10"/>
<path d="M-46.9092 107.451C16.1913 107.396 84.3744 108.47 146.495 105.628C247.761 100.998 342.919 90.0944 443.342 84.5411C479.98 82.509 514.909 81.2114 550.294 85.0868C579.263 88.2597 603.241 93.7608 626.022 99.1718C666.113 108.691 709.373 121.574 768.018 122.685C806.058 123.4 844.372 118.07 876.851 113.663C913.512 108.685 948.647 103.018 985.308 98.0339C1018.36 93.5373 1058.24 87.9143 1097.09 89.0609C1130.88 90.0596 1160.44 95.7928 1185.25 101.288C1233.49 111.968 1286.28 129.969 1357.95 128.155C1442.49 126.015 1508.53 109.181 1594.14 107.463" stroke="#555555" stroke-miterlimit="10"/>
<path d="M-46.8857 103.908C15.3258 103.861 83.0873 104.956 144.296 102.137C246.417 97.4341 341.837 85.9588 443.034 80.2546C479.172 78.2225 514.75 76.8988 549.634 80.8003C578.842 84.0661 602.489 89.8633 624.849 95.5036C664.302 105.472 706.285 118.872 766.161 119.952C805.044 120.655 843.461 115.27 876.396 110.663C913.832 105.437 949.616 99.4807 987.041 94.2496C1020.51 89.5701 1060.57 83.8571 1100.22 84.9951C1134.4 85.9763 1163.46 91.814 1187.97 97.5444C1235.83 108.735 1286.1 127.192 1359.44 125.395C1444.2 123.319 1508.24 105.449 1594.2 103.913" stroke="#555555" stroke-miterlimit="10"/>
<path d="M-46.875 100.425C15.1086 100.327 82.6536 101.557 143.6 98.6835C245.026 93.8907 339.226 82.0729 439.626 76.2352C475.661 74.1422 511.217 72.8881 546.078 76.7432C575.708 80.0264 599.822 85.8932 622.512 91.6032C662.695 101.717 705.123 115.288 765.784 116.554C804.941 117.37 843.13 112.051 876.213 107.372C913.706 102.065 949.422 95.9925 986.904 90.683C1020.53 85.9164 1060.39 80.2818 1100.33 81.5011C1134.75 82.5519 1163.64 88.4013 1188.18 94.1955C1236.24 105.543 1285.55 123.756 1359.48 122.064C1444.47 120.124 1507.86 101.766 1594.17 100.425" stroke="#555555" stroke-miterlimit="10"/>
<path d="M-46.8633 97.0206C15.3825 96.8406 82.7223 98.3936 143.885 95.3195C243.511 90.3119 335.591 78.2996 434.157 72.2557C470.624 70.0176 505.246 68.8535 540.608 72.7347C570.774 76.0411 595.743 81.847 619.264 87.5077C660.78 97.5112 704.997 111.219 765.659 112.946C804.577 114.055 842.902 108.722 875.7 104.046C912.738 98.7652 947.918 92.6865 984.944 87.4003C1018.51 82.6076 1058.36 77.0165 1098.24 78.4651C1132.56 79.7104 1161.87 85.644 1186.76 91.3744C1235.07 102.493 1285.8 120.363 1358.84 118.72C1444.04 116.801 1507.63 98.3385 1594.15 97.0206" stroke="#555555" stroke-miterlimit="10"/>
<path d="M-46.8398 93.6734C15.7592 93.4585 82.9167 95.4441 144.456 92.19C242.052 87.0286 331.729 74.8595 428.22 68.6763C464.995 66.3133 498.808 65.2596 534.569 69.0914C565.201 72.3746 591.173 78.0295 615.572 83.6467C658.479 93.5166 704.736 107.175 765.341 109.32C803.905 110.687 841.934 105.465 874.436 100.809C910.847 95.5835 945.286 89.5425 981.674 84.3201C1015.13 79.5187 1054.61 74.0874 1094.31 75.742C1128.66 77.1761 1158.5 83.1358 1183.94 88.8052C1232.89 99.6911 1285.29 117.114 1357.77 115.495C1443.34 113.585 1507.29 95.0029 1594.18 93.6908" stroke="#555555" stroke-miterlimit="10"/>
<path d="M-46.8174 90.3895C16.2147 90.1834 83.338 92.6944 145.31 89.2748C240.673 84.0176 327.74 71.7237 421.963 65.4331C458.887 62.9685 492.061 62.0425 528.118 65.764C559.298 68.9805 586.239 74.4728 611.584 79.9883C656.279 89.6812 704.154 103.142 764.93 105.682C803.039 107.273 840.395 102.277 872.578 97.6526C908.191 92.5319 941.753 86.5431 977.343 81.4166C1010.68 76.6122 1049.39 71.4508 1088.85 73.2884C1123.36 74.8995 1153.81 80.836 1180.02 86.427C1229.95 97.072 1284.22 113.961 1356.31 112.35C1442.41 110.425 1506.84 91.719 1594.26 90.3982" stroke="#555555" stroke-miterlimit="10"/>
<path d="M-46.8066 87.1712C16.7383 87.0087 83.8388 90.1235 146.369 86.5558C239.339 81.2522 323.636 68.848 415.432 62.5225C452.333 59.9738 485.051 59.1813 521.291 62.7402C553.029 65.858 580.916 71.1587 607.298 76.5059C654.022 85.9781 703.356 99.1168 764.36 102.023C837.979 105.532 912.373 87.267 972.032 78.657C1005.24 73.8613 1042.9 69.057 1082.03 71.0687C1116.81 72.8598 1147.9 78.7382 1175.01 84.2451C1226.2 94.6405 1282.5 110.926 1354.41 109.306C1441.14 107.355 1506.19 88.5124 1594.24 87.1712" stroke="#555555" stroke-miterlimit="10"/>
<path d="M-46.7832 84.0186C17.3201 83.9286 84.432 87.7111 147.612 84.0186C238.086 78.712 319.478 66.2498 408.721 59.904C445.496 57.2914 477.895 56.6411 514.238 59.994C546.557 62.9811 575.412 68.0467 602.831 73.2255C651.584 82.4278 702.388 95.1281 763.699 98.3938C836.202 102.249 907.393 84.5121 965.947 76.0413C998.323 71.3647 1036.07 66.6504 1074.12 69.0598C1109.45 71.2951 1140.57 76.7148 1169.22 82.2304C1221.88 92.3616 1280.34 107.988 1352.25 106.351C1439.73 104.362 1505.47 85.3771 1594.26 83.9983" stroke="#555555" stroke-miterlimit="10"/>
<path d="M-46.7607 80.9255C17.9466 80.9255 85.1268 85.4337 149.014 81.6048C236.912 76.336 315.318 63.8215 401.928 57.5105C552.357 46.5404 630.831 87.039 762.97 94.7898C834.195 98.973 901.786 81.8747 959.28 73.5753C991.508 68.9306 1027.79 64.7011 1065.37 67.2469C1101.14 69.6709 1132.99 74.9716 1162.79 80.3826C1217.09 90.2526 1277.82 105.168 1349.88 103.504C1438.17 101.472 1504.69 82.3392 1594.3 80.9255" stroke="#555555" stroke-miterlimit="10"/>
<path d="M-46.7383 77.9005C18.5958 78.0224 85.8901 83.2709 150.54 79.3288C235.818 74.1296 311.226 61.5861 395.136 55.3303C542.454 44.3515 632.176 82.9081 762.183 91.2133C832.178 95.6896 895.712 79.3491 952.157 71.2093C984.248 66.582 1018.95 62.9098 1055.99 65.5718C1092.24 68.1844 1124.9 73.3516 1155.9 78.6495C1211.94 88.2291 1274.99 102.427 1347.35 100.726C1436.5 98.6332 1503.86 79.3607 1594.33 77.9005" stroke="#555555" stroke-miterlimit="10"/>
<path d="M-46.7148 74.9404C19.2688 75.1872 86.6998 81.202 152.159 77.1612C234.827 72.0578 307.147 59.4998 388.458 53.3282C532.654 42.3813 633.475 78.8303 761.374 87.6901C830.116 92.4509 889.33 76.9144 944.784 68.9343C976.762 64.3332 1009.74 61.2503 1046.21 63.9993C1082.96 66.7832 1116.47 71.8372 1148.7 77.0044C1206.54 86.2938 1271.91 99.7517 1344.64 98.0128C1434.67 95.856 1502.91 76.4383 1594.28 74.9288" stroke="#555555" stroke-miterlimit="10"/>
<path d="M-46.6924 72.044C19.9295 72.4185 87.5542 79.2026 153.88 75.0775C233.995 70.0903 303.329 57.5265 382.019 51.4594C523.149 40.5763 634.752 74.8366 760.554 84.2275C828.053 89.267 882.823 74.5579 937.331 66.7316C969.171 62.1595 1000.55 59.6833 1036.41 62.5311C1073.67 65.4921 1108.06 70.4183 1141.49 75.4578C1201.15 84.4569 1268.82 97.1717 1342.01 95.3893C1432.98 93.1714 1502.07 73.6174 1594.35 72.044" stroke="#555555" stroke-miterlimit="10"/>
<path d="M-46.6699 69.2127C20.5673 69.712 88.42 77.248 155.509 73.0533C233.162 68.1967 299.568 55.6358 375.751 49.6877C514.089 38.8888 636.039 70.9196 759.801 80.836C826.07 86.1484 876.384 72.2666 930.002 64.5797C961.707 60.0366 991.542 58.1671 1026.72 61.0962C1064.5 64.2371 1099.75 69.0502 1134.38 73.9503C1195.79 82.6416 1265.72 94.6394 1339.41 92.8193C1431.3 90.5405 1501.23 70.8267 1594.42 69.2185" stroke="#555555" stroke-miterlimit="10"/>
<path d="M-46.6465 66.444C21.2631 67.0623 89.2753 75.3211 157.185 71.0683C232.502 66.3511 296.104 53.7988 369.917 47.9785C505.599 37.2783 637.305 67.0855 758.993 77.5273C824.156 83.1183 869.968 70.0058 922.846 62.4728C954.448 57.9732 982.722 56.6669 1017.31 59.6801C1055.58 63.0011 1091.68 67.7183 1127.44 72.4762C1190.54 80.8686 1262.62 92.1609 1336.82 90.2944C1429.58 87.9575 1500.33 68.1015 1594.38 66.444" stroke="#555555" stroke-miterlimit="10"/>
<path d="M-46.6238 63.7417C21.924 64.4616 90.13 73.3997 158.803 69.1034C231.966 64.5284 292.936 51.9761 364.538 46.2922C433.997 40.7766 507.89 47.0034 572.768 53.6569C635.333 60.0753 694.809 68.4937 758.309 74.3141C822.651 80.2128 863.689 67.7187 916.168 60.3801C985.856 50.6408 1057.23 62.9927 1121.01 71.0019C1185.64 79.1068 1259.75 89.7257 1334.44 87.8185C1428.01 85.4323 1499.55 65.437 1594.42 63.7388" stroke="#555555" stroke-miterlimit="10"/>
<path d="M-46.6016 61.0999C22.5844 61.904 90.8017 71.4604 160.352 67.1321C231.567 62.6965 290.109 50.153 359.785 44.5939C428.606 39.0957 504.448 45.067 569.634 51.1603C633.463 57.1287 694.216 65.0101 757.704 71.2107C821.192 77.4114 858.275 65.5297 910.082 58.2956C978.185 48.7886 1052.53 62.0694 1115.21 69.5154C1181.2 77.3533 1257.19 87.3278 1332.29 85.3944C1426.59 82.9647 1498.83 62.8358 1594.4 61.0999" stroke="#555555" stroke-miterlimit="10"/>
<path d="M-46.5784 58.5245C23.2572 59.3953 91.4176 69.4859 161.777 65.1315C231.294 60.8323 287.682 48.2946 355.512 42.8429C423.809 37.3709 501.382 43.0983 566.865 48.6865C631.823 54.234 693.795 61.6422 757.18 68.2231C787.084 71.3264 808.999 71.4541 837.911 67.451C861.41 64.1968 881.284 59.4708 904.749 56.1934C936.054 51.8158 960.989 51.9377 993.776 55.1919C1033.17 59.108 1071.55 63.6104 1110.21 67.9851C1177.3 75.5559 1254.94 84.9498 1330.38 82.999C1425.34 80.5431 1498.18 60.2807 1594.43 58.5245" stroke="#555555" stroke-miterlimit="10"/>
<path d="M-46.5557 56.0113C23.9295 56.8822 91.8847 67.4546 163.065 63.0857C231.203 58.9026 285.665 46.3184 352.127 41.0061C420.071 35.5747 499.069 41.0641 564.813 46.2313C630.558 51.3985 693.681 58.4236 756.861 65.3906C786.058 68.61 807.403 69.0657 836.064 65.0829C858.788 61.9245 877.751 57.2624 900.418 54.0808C931.553 49.709 956.1 50.1735 988.317 53.5351C1027.91 57.6659 1066.88 62.1597 1106.27 66.4124C1174.2 73.7452 1253.36 82.6166 1328.91 80.66C1424.39 78.1896 1497.72 57.8053 1594.44 56.0374" stroke="#555555" stroke-miterlimit="10"/>
<path d="M-46.5332 53.5671C24.6129 54.4148 92.1807 65.353 164.159 60.9725C231.282 56.8823 284.046 44.2023 349.585 39.0467C417.438 33.7025 497.291 38.9422 563.445 43.7408C630.136 48.5741 693.806 55.306 756.724 62.6562C785.328 65.9946 806.434 66.6971 834.879 62.7143C856.987 59.6226 875.187 54.9896 897.227 51.8689C928.213 47.4826 952.738 48.1938 984.465 51.6832C1024.11 56.0375 1063.54 60.5429 1103.53 64.7057C1171.91 71.8265 1252.39 80.2392 1327.89 78.2971C1423.74 75.8297 1497.43 55.3292 1594.56 53.5671" stroke="#555555" stroke-miterlimit="10"/>
<path d="M-46.51 51.1828C25.2857 51.9521 92.2723 63.1544 165.048 58.7623C231.476 54.7534 283.101 42.0183 347.854 36.9236C415.49 31.6055 496.391 36.7321 562.717 41.2316C630.091 45.8037 694.046 52.3527 756.668 60.1006C784.805 63.5841 806.024 64.4259 834.321 60.417C855.974 57.3486 873.603 52.7126 895.222 49.6152C926.094 45.1912 950.96 46.0272 982.311 49.6762C1021.88 54.2802 1061.61 58.8175 1102.04 62.9106C1170.62 69.8515 1252.04 77.8868 1327.23 75.9737C1423.31 73.5324 1497.18 52.9216 1594.53 51.1828" stroke="#555555" stroke-miterlimit="10"/>
<path d="M-46.4756 48.8605C25.6848 49.5514 92.2041 60.8757 165.424 56.443C231.625 52.4369 282.941 39.7134 347.489 34.6478C415.057 29.3471 496.323 34.5782 562.671 38.9819C630.284 43.4698 694.035 49.9695 756.736 57.7522C784.771 61.2357 806.287 61.9614 834.389 57.9786C855.894 54.9305 873.41 50.3352 894.914 47.2784C925.684 42.9066 951.006 43.7195 982.061 47.4729C1021.46 52.2337 1061.23 56.8058 1101.83 60.8583C1170.09 67.6715 1252.56 75.6168 1327.17 73.6312C1423.11 71.0824 1497.46 50.82 1594.57 48.8692" stroke="#555555" stroke-miterlimit="10"/>
<path d="M-46.4531 46.5766C25.8668 47.2327 92.1924 58.6324 165.584 54.1474C231.681 50.1066 283.26 37.4905 347.854 32.4568C415.421 27.1909 496.505 32.6513 562.751 37.084C630.147 41.5952 693.624 48.0832 756.759 55.4973C816.52 62.5136 846.139 51.7235 895.359 44.9945C926.128 40.7882 951.61 41.5545 982.38 45.3225C1021.61 50.1269 1061.31 54.6874 1101.9 58.6934C1169.76 65.3875 1253.3 73.3706 1327.38 71.2166C1422.91 68.4356 1498.17 48.9976 1594.63 46.6201" stroke="#555555" stroke-miterlimit="10"/>
<path d="M-46.4297 44.3261C26.1068 44.959 92.2728 56.4429 165.892 51.9202C231.99 47.8561 283.774 35.3735 348.401 30.3863C415.969 25.161 496.813 30.8304 562.956 35.2777C630.091 39.7918 693.328 46.2508 756.828 53.2904C816.088 59.8626 846.766 49.264 896.02 42.8398C926.79 38.8164 952.499 39.5595 982.996 43.3333C1022.04 48.1638 1061.63 52.6894 1102.21 56.6258C1169.79 63.1835 1254.17 71.0824 1327.63 68.7833C1422.68 65.8107 1498.86 47.2174 1594.62 44.4626" stroke="#555555" stroke-miterlimit="10"/>
<path d="M-46.4072 42.1173C26.38 42.7327 92.4434 54.3095 166.336 49.7665C232.354 45.7082 284.446 33.3678 349.119 28.4329C416.687 23.2947 497.269 29.1064 563.287 33.5565C630.102 38.0561 693.203 44.4657 756.93 51.1163C815.768 57.2502 847.495 46.8868 896.875 40.7616C927.724 36.9384 953.627 37.6816 983.895 41.4525C1022.72 46.2917 1062.23 50.7651 1102.75 54.6085C1170.15 61.0095 1255.04 68.7138 1328 66.2957C1422.59 63.1634 1499.65 45.444 1594.67 42.3495" stroke="#555555" stroke-miterlimit="10"/>
<path d="M-46.3848 39.9452C26.7101 40.5548 92.6482 52.2216 166.917 47.6756C232.878 43.6406 285.289 31.4396 350.019 26.6033C417.564 21.5551 497.736 27.4974 563.731 31.9331C630.182 36.4036 693.088 42.7465 757.078 48.9965C815.472 54.7007 848.315 44.6102 897.923 38.8159C928.875 35.1989 954.983 35.9682 985.058 39.7274C1023.58 44.5912 1063.11 48.919 1103.48 52.6919C1170.83 58.9158 1255.96 66.3356 1328.49 63.8072C1422.46 60.5472 1500.47 43.7219 1594.66 40.3341" stroke="#555555" stroke-miterlimit="10"/>
<path d="M-46.3506 37.815C27.0748 38.4246 92.9901 50.1931 167.623 45.6529C233.527 41.6498 286.291 29.6114 351.101 24.8738C418.624 19.9388 498.454 25.974 564.323 30.3894C630.421 34.8134 693.157 41.0692 757.294 46.9128C815.255 52.1961 849.284 42.4046 899.188 36.9616C930.288 33.5681 956.59 34.3809 986.494 38.1227C1024.78 42.9543 1064.17 47.201 1104.44 50.8404C1171.83 56.8698 1256.95 63.8862 1329.1 61.291C1422.46 57.9323 1501.36 42.0272 1594.73 38.3753" stroke="#555555" stroke-miterlimit="10"/>
<path d="M-46.3281 35.7309C27.4733 36.3434 93.3772 48.2134 168.432 43.7081C234.291 39.7543 287.431 27.8901 352.263 23.2657C419.751 18.4527 499.16 24.5604 564.972 28.938C630.58 33.2924 693.293 39.4495 757.499 44.878C815.049 49.7462 850.332 40.2884 900.577 35.2141C931.849 32.0558 958.356 32.9295 988.134 36.6656C1026.16 41.4509 1065.37 45.6021 1105.51 49.093C1173.01 54.8988 1257.87 61.4478 1329.71 58.7917C1422.43 55.3662 1502.18 40.3988 1594.71 36.5234" stroke="#555555" stroke-miterlimit="10"/>
<path d="M-46.3049 33.6865C27.9068 34.3136 93.8677 46.2968 169.356 41.8147C235.168 37.9306 288.696 26.255 353.597 21.7555C421.04 17.0818 500.015 23.2331 565.68 27.5614C630.831 31.8577 693.476 37.8754 757.705 42.8859C814.856 47.3419 851.461 38.2412 902.082 33.5559C933.547 30.653 960.26 31.5935 989.947 35.2976C1027.72 40.0262 1066.77 44.0666 1106.79 47.3883C1174.51 52.9706 1258.88 58.9652 1330.46 56.2625C1422.51 52.779 1503.08 38.7841 1594.74 34.7083" stroke="#555555" stroke-miterlimit="10"/>
<path d="M-46.2822 31.6894C28.3739 32.3339 94.3234 44.4333 170.37 40.0121C236.137 36.1861 290.086 24.7079 355.056 20.3477C422.441 15.8279 500.926 21.9995 566.5 26.2726C631.196 30.4905 693.783 36.3573 757.955 40.944C814.719 45.0081 852.725 36.279 903.746 31.9972C935.427 29.341 962.345 30.3831 991.964 34.0292C1029.48 38.6861 1068.34 42.603 1108.2 45.7454C1176.18 51.0723 1259.88 56.4485 1331.25 53.7139C1422.61 50.2304 1503.95 37.1963 1594.74 32.9522" stroke="#555555" stroke-miterlimit="10"/>
<path d="M-46.2588 29.7413C28.8646 30.4089 94.8825 42.6244 171.408 38.2643C237.209 34.5282 291.58 23.2474 356.629 19.0382C423.946 14.6838 501.884 20.8525 567.458 25.0618C631.675 29.1897 694.217 34.8882 758.32 39.048C814.697 42.7086 854.185 34.3859 905.627 30.528C937.536 28.136 964.648 29.2797 994.243 32.9084C1031.48 37.4835 1070.15 41.2635 1109.85 44.2094C1178.09 49.2634 1260.94 53.9778 1332.15 51.2113C1422.8 47.7075 1504.86 35.6894 1594.79 31.3001" stroke="#555555" stroke-miterlimit="10"/>
<path d="M-46.2363 27.8523C29.3543 28.5403 95.452 40.8719 172.649 36.5843C238.348 32.9324 293.175 21.8723 358.293 17.8227C425.53 13.6396 502.933 19.7938 568.358 23.9189C632.108 27.9481 694.604 33.4579 758.571 37.1939C814.594 40.4684 855.643 32.5493 907.484 29.1354C939.621 27.0134 966.949 28.2645 996.557 31.8671C1033.52 36.3507 1071.98 39.9832 1111.48 42.7211C1180.16 47.4819 1261.98 51.4589 1333.08 48.6982C1423.02 45.2147 1505.74 34.2068 1594.81 29.6928" stroke="#555555" stroke-miterlimit="10"/>
<path d="M-46.2136 25.9934C29.924 26.7221 96.147 39.1727 173.892 34.9664C239.579 31.4161 294.884 20.5766 360.048 16.6954C427.228 12.6981 504.049 18.8174 569.383 22.8728C632.655 26.8005 695.106 32.1012 758.901 35.4134C814.594 38.3163 857.261 30.8239 909.49 27.8658C941.866 26.0225 969.4 27.4072 999.052 30.9603C1035.73 35.3434 1073.98 38.8187 1113.26 41.3383C1182.37 45.7856 1263.06 48.9991 1334.06 46.2355C1423.3 42.7665 1506.6 32.8095 1594.83 28.191" stroke="#555555" stroke-miterlimit="10"/>
<path d="M-46.1904 24.197C30.4942 24.9634 96.8312 37.533 175.225 33.4196C240.856 29.9738 296.606 19.3636 361.883 15.6595C428.972 11.8509 505.201 17.9267 570.432 21.8921C633.248 25.7094 695.619 30.7866 759.209 33.675C814.617 36.1919 858.937 29.1523 911.564 26.6354C944.169 25.0766 971.896 26.5977 1001.65 30.1189C1038.04 34.393 1076.07 37.7005 1115.12 39.9889C1184.64 44.0994 1264.09 46.5146 1335.07 43.7627C1423.6 40.3343 1507.43 31.4282 1594.85 26.7167" stroke="#555555" stroke-miterlimit="10"/>
<path d="M-46.168 22.4563C31.0523 23.2633 97.5602 35.952 176.558 31.9373C242.2 28.6018 298.417 18.2268 363.774 14.7055C430.772 11.0972 506.397 17.1121 571.583 20.9846C633.954 24.6916 696.234 29.525 759.619 31.9924C814.788 34.1377 860.794 27.5568 913.798 25.5044C946.642 24.23 974.562 25.8963 1004.43 29.3653C1040.54 33.5288 1078.34 36.6655 1117.15 38.7185C1187.13 42.472 1265.23 44.0628 1336.18 41.3311C1423.93 37.9463 1508.27 30.1142 1594.88 25.3244" stroke="#555555" stroke-miterlimit="10"/>
<path d="M-46.1453 20.7695C31.6334 21.62 98.3123 34.4132 177.96 30.5204C243.602 27.301 300.286 17.1611 365.723 13.8315C432.63 10.4351 507.639 16.3744 572.745 20.1482C634.695 23.7392 696.861 28.3142 759.972 30.3636C814.947 32.1489 862.629 26.0354 915.974 24.4475C949.023 23.4634 977.16 25.2806 1007.14 28.7061C1042.97 32.7512 1080.55 35.7083 1119.09 37.5164C1189.52 40.8925 1266.23 41.6444 1337.19 38.933C1424.3 35.6063 1508.96 28.857 1594.82 23.9975" stroke="#555555" stroke-miterlimit="10"/>
<path d="M-46.1221 19.1433C32.2264 20.0374 99.099 32.9612 179.385 29.17C245.015 26.0667 302.201 16.1707 367.718 13.0471C434.51 9.85391 508.893 15.7265 573.988 19.3958C635.527 22.8793 697.556 27.1727 760.406 28.8071C815.278 30.2353 864.589 24.5978 918.345 23.4773C951.633 22.7835 979.884 24.7604 1010.15 28.1394C1045.7 32.064 1083.05 34.8376 1121.31 36.3953C1282 43.1562 1439.46 31.7506 1594.98 22.7516" stroke="#555555" stroke-miterlimit="10"/>
<path d="M-46.0999 17.5708C32.8299 18.5142 99.8962 31.5512 180.843 27.879C246.473 24.9006 304.149 15.2513 369.746 12.3107C436.424 9.32066 510.18 15.1207 575.138 18.6826C636.324 22.0471 698.171 26.0618 760.736 27.2723C815.597 28.3435 866.458 23.2082 920.612 22.5406C954.094 22.1342 982.585 24.2823 1013.02 27.612C1048.17 31.4816 1085.49 33.949 1123.38 35.3134C1279.98 40.9538 1443.31 30.483 1594.95 21.5449" stroke="#555555" stroke-miterlimit="10"/>
<path d="M-46.0771 16.06C33.4338 17.0528 100.705 30.2031 182.313 26.6528C247.955 23.7876 306.109 14.3967 371.785 11.6534C438.35 8.8753 511.468 14.597 576.358 18.0398C637.213 21.2766 698.843 25.0068 761.123 25.8226C816.087 26.5425 868.384 21.892 922.949 21.6975C956.624 21.5785 985.297 23.895 1015.98 27.184C1050.89 30.9259 1087.96 33.1815 1125.54 34.302C1197.12 36.4356 1269.7 34.6184 1340.69 32.0087C1425.86 28.8764 1511.16 25.4394 1594.97 20.397" stroke="#555555" stroke-miterlimit="10"/>
<path d="M-46.0537 14.6124C33.3546 15.6371 100.535 28.8106 182.063 25.5651C247.443 22.9525 305.711 13.9273 370.874 11.1899C436.744 8.42339 508.392 13.9128 572.711 17.228C634.889 20.4212 697.875 23.9889 761.523 24.4359C818.025 24.8336 873.08 20.4386 929.456 20.9524C963.485 21.263 991.85 24.0963 1023.04 27.243C1055.44 30.5117 1089.65 32.3841 1124.25 33.2695C1197.89 35.1535 1270.93 32.3754 1343.69 29.7541C1427.68 26.7292 1512.43 24.4011 1595.03 19.3442" stroke="#555555" stroke-miterlimit="10"/>
<path d="M-46.043 13.2274C33.9124 14.3015 101.366 27.5852 183.498 24.4646C248.889 21.9797 307.625 13.1926 372.891 10.6554C438.624 8.11245 509.701 13.5235 573.93 16.7312C635.811 19.8257 698.558 23.1177 761.875 23.1177C818.708 23.1177 874.982 19.3061 931.826 20.2786C965.901 20.8592 994.505 23.855 1025.94 26.935C1058.12 30.0876 1092.1 31.7626 1126.4 32.4244C1200.29 33.8498 1272.06 30.1834 1344.81 27.6346C1428.25 24.7114 1512.98 23.466 1595 18.3452" stroke="#555555" stroke-miterlimit="10"/>
<path d="M-46.0195 11.9086C34.5398 13.032 102.13 26.4232 184.958 23.4245C250.371 21.0557 309.563 12.5153 374.92 10.1755C440.516 7.82128 511.035 13.1946 575.23 16.2978C636.769 19.2791 699.277 22.2749 762.264 21.8511C819.506 21.465 876.886 18.2254 934.209 19.6507C968.329 20.5012 997.161 23.6567 1028.8 26.67C1060.71 29.7093 1094.53 31.1869 1128.51 31.6252C1202.59 32.5861 1273.18 28.0488 1345.91 25.5697C1428.82 22.7423 1513.43 22.5855 1594.97 17.4009" stroke="#555555" stroke-miterlimit="10"/>
<path d="M-45.9971 10.6584C35.1207 11.8195 102.996 25.3239 186.405 22.45C251.83 20.1945 311.477 11.8863 376.937 9.75557C442.396 7.62483 512.346 12.9256 576.369 15.9214C637.76 18.7953 699.972 21.5095 762.616 20.6589C820.361 19.8752 878.72 17.2161 936.522 19.0885C970.71 20.1945 999.747 23.5212 1031.68 26.4648C1063.61 29.4084 1097 30.674 1130.67 30.8946C1204.74 31.3852 1274.39 25.9974 1347.05 23.588C1429.48 20.8534 1514.02 21.7824 1595.01 16.5223" stroke="#555555" stroke-miterlimit="10"/>
<path d="M-45.9863 9.47361C35.6898 10.6928 103.805 24.2785 187.806 21.5381C253.265 19.3929 313.345 11.3373 378.896 9.38652C444.173 7.44446 513.69 12.7104 577.599 15.6046C638.808 18.374 700.678 20.8037 763.015 19.5351C821.329 18.3478 880.554 16.2664 938.869 18.5772C972.954 19.9299 1002.33 23.4309 1034.49 26.3077C1066.06 29.1293 1099.45 30.215 1132.75 30.2237C1206.83 30.2469 1275.59 24.0347 1348.14 21.6891C1430.19 19.0358 1514.52 21.0476 1595.01 15.7033" stroke="#555555" stroke-miterlimit="10"/>
<path d="M-45.9746 8.36133C36.2486 9.6212 104.568 23.3201 189.173 20.6842C254.667 18.6522 315.181 10.8143 380.811 9.07254C446.02 7.33079 514.841 12.556 578.762 15.3487C639.845 18.0077 701.407 20.1646 763.38 18.4838C822.32 16.8872 882.31 15.3835 941.159 18.1239C975.234 19.7059 1004.86 23.3839 1037.26 26.194C1068.68 28.9169 1101.79 29.8081 1134.78 29.6107C1208.74 29.1724 1276.79 22.1647 1349.23 19.8743C1430.82 17.2965 1514.93 20.391 1595.05 14.9393" stroke="#555555" stroke-miterlimit="10"/>
<path d="M-45.9512 7.32031C36.7848 8.62372 105.344 22.4155 190.507 19.8958C256.035 17.9537 317.005 10.3684 382.669 8.79209C447.741 7.23032 516.004 12.4469 579.891 15.135C640.86 17.6925 702.115 19.5794 763.733 17.4951C823.335 15.4804 884.065 14.5457 943.325 17.707C977.366 19.5213 1007.25 23.3735 1039.93 26.1254C1071.16 28.7381 1104.09 29.458 1136.8 29.0603C1210.56 28.1691 1278.03 20.4009 1350.35 18.1598C1431.55 15.643 1515.41 19.8116 1595.14 14.2525" stroke="#555555" stroke-miterlimit="10"/>
<path d="M-45.9404 6.34961C37.2514 7.69366 106.061 21.5841 191.772 19.166C257.334 17.3139 318.645 9.95794 384.458 8.55583C449.416 7.17404 517.177 12.3819 580.962 14.9771C641.851 17.4591 702.798 19.0615 764.052 16.5824C824.349 14.144 885.626 13.7666 945.399 17.3372C979.371 19.3692 1009.54 23.3956 1042.44 26.0837C1073.5 28.6208 1106.26 29.1463 1138.62 28.5599C1212.13 27.2274 1279.12 18.7422 1351.31 16.5302C1432.22 14.0598 1515.74 19.2966 1595.12 13.604" stroke="#555555" stroke-miterlimit="10"/>
<path d="M-45.9287 5.45898C37.7874 6.83497 106.78 20.8183 192.969 18.496C258.588 16.731 320.275 9.59275 386.156 8.36191C451.012 7.15139 518.249 12.3592 581.976 14.8732C642.809 17.2739 703.459 18.6092 764.371 15.744C825.284 12.8789 887.165 13.0472 947.405 17.0126C981.297 19.245 1011.76 23.399 1044.84 26.0755C1075.61 28.5691 1108.41 28.8827 1140.38 28.1076C1213.58 26.3658 1280.21 17.1955 1352.24 15.0125C1432.8 12.5711 1516.08 18.8676 1595.12 13.0211" stroke="#555555" stroke-miterlimit="10"/>
<path d="M-45.8604 4.62891C38.3116 6.03392 107.452 20.1102 194.154 17.8778C259.75 16.1971 321.802 9.27358 387.763 8.2024C452.47 7.15155 519.274 12.3768 582.933 14.8182C643.732 17.1405 704.097 18.2233 764.656 14.9807C826.355 11.6801 888.601 12.3681 949.274 16.7225C983.098 19.1435 1013.82 23.4544 1047.1 26.0931C1077.74 28.5229 1110.37 28.6622 1142.01 27.7304C1176.52 26.7114 1210.18 24.3775 1243.32 21.7881C1279.08 18.9984 1315.88 14.7427 1353.13 13.6164C1433.42 11.1866 1516.41 18.5281 1595.13 12.5074" stroke="#555555" stroke-miterlimit="10"/>
<path d="M-45.8604 3.90234C38.7218 5.33058 107.988 19.4968 195.191 17.34C260.844 15.7143 323.227 8.98246 389.267 8.07094C453.872 7.16813 520.198 12.4253 583.799 14.8057C644.598 17.0758 704.724 17.9031 764.93 14.2948C827.301 10.5558 889.957 11.7431 951.074 16.4749C984.75 19.0875 1015.74 23.529 1049.18 26.13C1079.7 28.5017 1112.18 28.4843 1143.51 27.3928C1177.96 26.1968 1211.42 23.6596 1244.37 20.9048C1279.86 17.938 1316.72 13.4617 1353.96 12.3266C1434 9.89107 1516.73 18.2631 1595.14 12.0363" stroke="#555555" stroke-miterlimit="10"/>
<path d="M-45.8604 3.24414C39.1093 4.6956 108.557 18.946 196.137 16.853C261.836 15.2797 324.514 8.75098 390.612 7.9701C455.126 7.20663 521.007 12.5248 584.563 14.8442C645.373 17.0591 705.282 17.6542 765.135 13.683C828.224 9.51155 891.165 11.1662 952.715 16.2608C986.266 19.036 1017.48 23.6139 1051.1 26.1859C1081.49 28.5083 1113.78 28.3457 1144.88 27.112C1179.25 25.7476 1212.54 23.0188 1245.31 20.113C1280.57 16.9866 1317.47 12.3129 1354.71 11.1604C1434.49 8.69292 1517.03 18.0839 1595.17 11.6336" stroke="#555555" stroke-miterlimit="10"/>
<path d="M-45.8604 2.66602C39.4626 4.11748 109.025 18.4666 196.98 16.423C262.759 14.8931 325.757 8.54443 391.923 7.89127C456.368 7.25263 521.839 12.6492 585.326 14.9222C646.159 17.0964 705.898 17.4709 765.386 13.1601C829.124 8.54153 892.225 10.6316 954.208 16.063C987.645 18.9979 1019.06 23.6948 1052.82 26.2435C1083.11 28.5281 1115.28 28.2379 1146.09 26.8735C1180.41 25.3523 1213.52 22.4494 1246.14 19.4043C1281.21 16.1269 1318.13 11.2935 1355.42 10.1149C1435.03 7.59518 1517.37 17.9818 1595.17 11.2761" stroke="#555555" stroke-miterlimit="10"/>
<path d="M-45.8604 2.17188C39.7931 3.62334 109.424 18.0625 197.721 16.0507C263.511 14.5528 326.794 8.37251 393.017 7.82096C457.393 7.29553 522.431 12.7879 585.919 15.0289C646.786 17.1771 706.411 17.3513 765.557 12.7066C829.956 7.64679 893.091 10.1317 955.53 15.8998C988.819 18.9769 1020.42 23.7812 1054.3 26.3126C1084.5 28.571 1116.51 28.1704 1147.1 26.6899C1181.38 25.0266 1214.34 21.9669 1246.83 18.794C1281.73 15.3831 1318.62 10.4249 1356.01 9.21436C1435.46 6.61625 1517.69 17.9812 1595.18 10.9793" stroke="#555555" stroke-miterlimit="10"/>
<path d="M-45.8604 1.75977C39.3714 3.21123 108.774 17.6504 196.558 15.778C265.927 14.3004 332.982 7.62657 402.977 7.76301C462.818 7.87913 522.864 12.8867 581.976 15.0406C644.78 17.3281 704.895 17.2643 765.716 12.367C833.159 6.95019 896.35 9.79796 961.354 16.2395C990.494 19.125 1018.25 23.0614 1047.61 25.764C1078.68 28.6234 1112.79 28.3447 1144.75 26.7568C1181.03 24.957 1215.75 21.5316 1249.96 18.0481C1284.45 14.5239 1321.11 9.56282 1358.29 8.40165C1436.93 5.96029 1518.7 18.0132 1595.17 10.7443" stroke="#555555" stroke-miterlimit="10"/>
<path d="M-45.8604 1.43555C39.6107 2.86669 109.013 17.4016 197.037 15.5263C266.428 14.0458 333.791 7.52878 403.763 7.7465C463.559 7.93519 523.297 13.0821 582.375 15.2389C645.225 17.5322 705.328 17.3058 765.853 12.0893C833.979 6.21376 896.84 9.39536 962.379 16.1534C991.383 19.1434 1019.22 23.1146 1048.66 25.8201C1079.66 28.6824 1113.62 28.3456 1145.4 26.6677C1181.65 24.7547 1216.24 21.1812 1250.35 17.6048C1284.79 13.9936 1321.44 8.97734 1358.71 7.75811C1437.2 5.20935 1519.07 18.1651 1595.18 10.5449" stroke="#555555" stroke-miterlimit="10"/>
<path d="M-45.8604 1.20312C39.7817 2.61104 109.127 17.2331 197.402 15.3287C266.804 13.8308 334.315 7.45312 404.379 7.74051C464.151 7.98435 523.605 13.2967 582.66 15.471C645.544 17.7933 705.738 17.4247 765.876 11.8946C834.663 5.57202 897.023 9.02069 963.12 16.0632C992.055 19.1432 1019.96 23.155 1049.42 25.8925C1080.4 28.7693 1114.06 28.4064 1145.82 26.6501C1219.2 22.586 1284.95 9.86254 1359.03 7.29636C1437.38 4.58213 1519.47 18.4116 1595.18 10.4083" stroke="#555555" stroke-miterlimit="10"/>
<path d="M-45.8604 1.05469C39.9184 2.43358 109.241 17.1427 197.618 15.1919C267.032 13.6563 334.771 7.40338 404.8 7.73721C464.584 8.02751 523.776 13.5256 582.808 15.7377C645.715 18.0948 706.114 17.6188 765.91 11.7897C835.301 5.02298 896.965 8.67195 963.69 15.9989C992.385 19.1428 1020.36 23.3085 1049.89 25.9385C1081.25 28.7282 1113.9 28.5018 1146.01 26.6672C1219.51 22.4637 1284.89 9.72862 1359.24 6.97665C1437.48 4.07373 1519.92 18.748 1595.14 10.3208" stroke="#555555" stroke-miterlimit="10"/>
<path d="M-45.8604 1C40.0096 2.33825 109.207 17.1344 197.675 15.1111C267.089 13.5232 334.919 7.37482 405.085 7.73478C464.881 8.04249 523.844 13.7729 582.865 16.0371C645.772 18.4495 706.49 17.895 765.933 11.7727C835.859 4.56479 896.658 8.34439 964.02 15.95C1025.56 22.8938 1076.26 30.7985 1145.95 26.7286C1219.65 22.4236 1284.72 9.79585 1359.33 6.82326C1437.48 3.70843 1520.36 19.1752 1595.23 10.3068" stroke="#555555" stroke-miterlimit="10"/>
</svg>
