<svg width="345" height="205" viewBox="0 0 345 205" fill="none" xmlns="http://www.w3.org/2000/svg">
<path d="M-612.184 218.892C-489.681 218.863 -364.177 220.362 -242.097 217.74C-101.952 214.756 34.9621 205.546 174.589 201.699C291.762 198.474 400.046 201.474 513.063 209.575C609.822 216.515 703.541 223.465 805.034 223.479C905.391 223.479 994.665 214.241 1089.9 207.497C1198.4 199.817 1298.45 202.052 1404.46 211.33C1512.36 220.769 1611.43 231.914 1727.99 231.669C1873.25 231.336 2012.74 218.667 2158.41 218.892" stroke="#555555" stroke-width="1.68831" stroke-miterlimit="10"/>
<path d="M-612.184 212.254C-492.779 212.21 -369.16 213.876 -250.467 210.651C-103.895 206.672 38.1367 195.684 184.189 190.724C302.998 186.69 406.126 191.003 517.315 201.795C609.053 210.7 699.155 220.351 798.992 220.654C904.506 220.978 999.63 208.289 1097.22 199.747C1209.91 189.881 1306.13 191.978 1415.03 204.001C1518.73 215.45 1615.43 230.148 1732.49 229.324C1877.23 228.305 2013.05 212.725 2158.37 212.254" stroke="#555555" stroke-width="1.68831" stroke-miterlimit="10"/>
<path d="M-612.184 205.728C-495.838 205.669 -374.143 207.443 -258.663 203.684C-105.819 198.709 41.3499 185.996 193.482 179.929C314.696 175.091 411.975 180.629 520.817 194.264C606.898 205.046 693.363 217.5 791.816 218.157C902.486 218.887 1005.25 202.405 1105.09 192.274C1157.38 186.996 1212.5 182.051 1269.51 183.188C1325.31 184.305 1378.14 190.289 1426.94 196.911C1525.29 210.227 1621.11 228.557 1738.15 227.155C1882.26 225.425 2013.53 206.943 2158.43 205.742" stroke="#555555" stroke-width="1.68831" stroke-miterlimit="10"/>
<path d="M-612.09 199.309C-498.572 199.236 -378.86 201.054 -266.535 196.859C-107.861 190.948 43.9064 176.593 201.676 169.477C325.661 163.88 417.321 170.54 523.219 186.983C603.509 199.451 686.357 214.689 783.925 215.723C899.366 216.943 1010.96 196.584 1112.7 185.062C1166 179.024 1224.78 172.657 1284.31 174.059C1340.1 175.373 1392.38 182.548 1439.04 189.987C1532.06 204.828 1626.9 226.858 1744.22 224.893C1887.72 222.481 2013.93 201.191 2158.45 199.309" stroke="#555555" stroke-width="1.68831" stroke-miterlimit="10"/>
<path d="M-612.07 193.006C-501.266 192.918 -383.323 194.736 -273.865 190.232C-110.015 183.483 45.8306 167.614 208.488 159.546C270.422 156.478 329.124 154.704 389.789 160.086C439.217 164.472 482.7 172.172 524.643 179.954C599.68 193.868 678.892 211.713 776.229 213.11C895.903 214.83 1016.46 190.781 1119.86 178.082C1174.08 171.422 1236.47 163.707 1298.27 165.339C1354.32 166.81 1405.9 175.078 1450.56 183.243C1538.64 199.338 1632.34 224.814 1750.3 222.348C1893.28 219.354 2014.26 195.427 2158.52 192.981" stroke="#555555" stroke-width="1.68831" stroke-miterlimit="10"/>
<path d="M-612.047 186.806C-503.57 186.713 -387.225 188.522 -280.287 183.812C-112.282 176.411 46.5274 159.179 213.283 150.352C275.429 147.064 333.957 145.025 394.314 151.132C443.281 156.116 485.013 164.668 524.917 173.216C595.548 188.326 671.451 208.41 769.268 210.101C831.78 211.184 894.637 202.877 948.625 195.844C1008.52 188.041 1066.11 179.151 1125.98 171.339C1181.01 164.163 1246.43 155.361 1310.3 157.199C1366.75 158.821 1417.53 167.932 1460.59 176.705C1544.63 193.859 1636.56 222.216 1755.66 219.344C1898.38 215.913 2014.3 189.605 2158.55 186.787" stroke="#555555" stroke-width="1.68831" stroke-miterlimit="10"/>
<path d="M-612.031 180.723C-505.498 180.63 -390.384 182.444 -285.505 177.645C-114.536 169.828 46.1198 151.42 215.665 142.044C277.522 138.614 336.494 136.423 396.234 142.966C445.143 148.323 485.625 157.61 524.086 166.746C591.773 182.816 664.809 204.567 763.819 206.444C828.043 207.65 892.729 198.651 947.564 191.212C1009.46 182.806 1068.78 173.239 1130.67 164.824C1186.47 157.233 1253.81 147.739 1319.4 149.675C1376.45 151.361 1426.36 161.041 1468.24 170.318C1549.69 188.349 1638.81 218.741 1759.81 215.677C1902.53 212.065 2014.03 183.644 2158.56 180.743" stroke="#555555" stroke-width="1.68831" stroke-miterlimit="10"/>
<path d="M-611.992 174.74C-506.96 174.661 -392.557 176.509 -289.218 171.75C-116.806 163.81 44.2925 144.437 215.146 134.806C276.157 131.375 336.225 129.14 395.119 135.727C444.432 141.241 484.355 151.028 522.105 160.551C588.714 177.381 659.595 200.004 760.684 201.828C826.331 203.014 891.19 193.922 946.795 186.144C1010 177.322 1070.41 167.266 1133.6 158.434C1190.11 150.533 1257.74 140.888 1324.67 142.809C1382.39 144.466 1431.46 154.322 1472.82 163.997C1553.63 182.89 1638.5 214.051 1762.33 211.017C1905.42 207.513 2013.55 177.342 2158.68 174.749" stroke="#555555" stroke-width="1.68831" stroke-miterlimit="10"/>
<path d="M-611.973 168.86C-507.325 168.693 -393.288 170.771 -290.391 165.919C-119.153 157.828 39.8869 137.876 209.393 128.02C270.231 124.486 330.261 122.369 389.117 128.877C439.141 134.42 479.854 144.325 518.161 153.966C586.002 171.041 657.633 193.953 760.049 196.09C826.159 197.467 890.633 188.489 946.487 180.588C1009.79 171.629 1070.09 161.376 1133.37 152.412C1190.15 144.365 1257.43 134.852 1324.87 136.91C1382.97 138.684 1431.75 148.56 1473.19 158.342C1554.32 177.5 1637.58 208.25 1762.39 205.392C1905.88 202.118 2012.9 171.124 2158.62 168.86" stroke="#555555" stroke-width="1.68831" stroke-miterlimit="10"/>
<path d="M-611.953 163.113C-506.863 162.809 -393.172 165.431 -289.91 160.241C-121.712 151.787 33.7495 131.506 200.158 121.302C261.727 117.524 320.179 115.558 379.882 122.111C430.81 127.693 472.966 137.495 512.678 147.052C582.77 163.941 657.422 187.084 759.838 190C825.543 191.872 890.248 182.869 945.622 174.974C1008.15 166.059 1067.55 155.796 1130.06 146.871C1186.72 138.779 1254 129.34 1321.35 131.786C1379.28 133.888 1428.76 143.906 1470.78 153.58C1552.34 172.351 1638 202.522 1761.31 199.748C1905.15 196.509 2012.51 165.338 2158.58 163.113" stroke="#555555" stroke-width="1.68831" stroke-miterlimit="10"/>
<path d="M-611.914 157.461C-506.227 157.098 -392.845 160.45 -288.947 154.956C-124.174 146.242 27.2276 125.697 190.135 115.258C252.223 111.268 309.309 109.489 369.685 115.959C421.403 121.502 465.251 131.049 506.444 140.532C578.884 157.196 656.98 180.255 759.3 183.877C824.409 186.186 888.613 177.369 943.487 169.507C1004.96 160.685 1063.1 150.486 1124.54 141.669C1181.03 133.563 1247.67 124.393 1314.71 127.187C1372.7 129.608 1423.07 139.67 1466.03 149.242C1548.67 167.62 1637.14 197.036 1759.5 194.302C1903.98 191.077 2011.94 159.705 2158.64 157.49" stroke="#555555" stroke-width="1.68831" stroke-miterlimit="10"/>
<path d="M-611.875 151.917C-505.457 151.569 -392.132 155.809 -287.504 150.035C-126.501 141.159 20.4942 120.403 179.573 109.783C241.911 105.622 297.919 104.058 358.795 110.342C411.437 115.772 456.921 125.045 499.711 134.357C575.171 150.721 656 173.447 758.608 177.736C822.947 180.422 886.017 171.987 940.351 164.179C1000.48 155.534 1057.14 145.423 1117.23 136.768C1173.5 128.657 1238.86 119.943 1305.49 123.045C1363.75 125.765 1415.16 135.788 1459.41 145.227C1543.71 163.199 1635.33 191.714 1757.04 188.993C1902.4 185.744 2011.19 154.162 2158.78 151.932" stroke="#555555" stroke-width="1.68831" stroke-miterlimit="10"/>
<path d="M-611.859 146.484C-504.576 146.21 -391.289 151.468 -285.718 145.445C-128.756 136.491 13.564 115.549 168.544 104.869C230.844 100.566 286.083 99.2283 347.267 105.237C400.851 110.501 447.932 119.45 492.473 128.478C571.358 144.47 654.649 166.652 757.642 171.558C881.934 177.483 1007.53 146.646 1108.26 132.109C1164.32 124.013 1227.91 115.902 1293.96 119.298C1352.69 122.322 1405.17 132.247 1450.94 141.544C1537.37 159.094 1632.42 186.589 1753.82 183.854C1900.26 180.561 2010.09 148.748 2158.74 146.484" stroke="#555555" stroke-width="1.68831" stroke-miterlimit="10"/>
<path d="M-611.816 141.16C-503.59 141.008 -390.284 147.394 -283.616 141.16C-130.868 132.201 6.54584 111.161 157.216 100.447C219.304 96.0365 274.004 94.9387 335.362 100.599C389.927 105.643 438.643 114.195 484.935 122.938C567.245 138.475 653.018 159.917 756.531 165.43C878.937 171.939 999.131 141.994 1097.99 127.692C1152.65 119.797 1216.37 111.837 1280.62 115.905C1340.26 119.679 1392.81 128.829 1441.18 138.141C1530.08 155.246 1628.79 181.628 1750.19 178.864C1897.88 175.507 2008.88 143.454 2158.78 141.126" stroke="#555555" stroke-width="1.68831" stroke-miterlimit="10"/>
<path d="M-611.781 135.94C-502.535 135.94 -389.114 143.551 -281.253 137.087C-132.853 128.192 -0.48012 107.063 145.746 96.4083C399.717 77.8873 532.205 146.262 755.296 159.347C875.548 166.41 989.661 137.543 1086.73 123.531C1141.14 115.689 1202.4 108.548 1265.84 112.846C1326.23 116.939 1380.01 125.888 1430.32 135.024C1522 151.687 1624.53 176.869 1746.19 174.06C1895.24 170.63 2007.55 138.327 2158.83 135.94" stroke="#555555" stroke-width="1.68831" stroke-miterlimit="10"/>
<path d="M-611.742 130.832C-501.438 131.038 -387.824 139.899 -278.674 133.243C-134.7 124.465 -7.38691 103.288 134.279 92.7262C382.998 74.1905 534.476 139.286 753.969 153.308C872.142 160.865 979.407 133.277 1074.7 119.535C1128.88 111.723 1187.47 105.523 1250 110.017C1311.2 114.428 1366.35 123.152 1418.68 132.096C1513.3 148.27 1619.74 172.241 1741.92 169.369C1892.43 165.835 2006.14 133.297 2158.89 130.832" stroke="#555555" stroke-width="1.68831" stroke-miterlimit="10"/>
<path d="M-611.703 125.834C-500.302 126.25 -386.458 136.405 -275.942 129.583C-136.373 120.967 -14.2743 99.7651 123.005 89.3455C366.452 70.8637 536.67 132.401 752.604 147.359C868.661 155.397 968.633 129.166 1062.26 115.693C1116.24 107.925 1171.93 102.72 1233.49 107.362C1295.54 112.062 1352.11 120.594 1406.52 129.318C1504.19 145.002 1614.55 167.723 1737.34 164.787C1889.34 161.146 2004.55 128.363 2158.82 125.814" stroke="#555555" stroke-width="1.68831" stroke-miterlimit="10"/>
<path d="M-611.664 120.943C-499.186 121.576 -385.014 133.029 -273.036 126.065C-137.777 117.645 -20.7192 96.4334 112.135 86.1902C350.406 67.8162 538.826 125.658 751.219 141.513C865.179 150.021 957.647 125.188 1049.67 111.975C1103.43 104.255 1156.4 100.075 1216.95 104.883C1279.86 109.882 1337.91 118.199 1394.36 126.707C1495.08 141.9 1609.33 163.367 1732.89 160.358C1886.49 156.613 2003.12 123.6 2158.93 120.943" stroke="#555555" stroke-width="1.68831" stroke-miterlimit="10"/>
<path d="M-611.625 116.165C-498.108 117.008 -383.551 129.731 -270.284 122.649C-139.181 114.45 -27.068 93.243 101.553 83.2008C335.11 64.9689 541 119.047 749.949 135.789C861.831 144.758 946.777 121.321 1037.3 108.343C1090.83 100.673 1141.2 97.5167 1200.59 102.462C1264.38 107.765 1323.89 115.891 1382.36 124.164C1486.04 138.837 1604.1 159.093 1728.51 156.02C1883.64 152.173 2001.72 118.89 2159.05 116.175" stroke="#555555" stroke-width="1.68831" stroke-miterlimit="10"/>
<path d="M-611.586 111.491C-496.933 112.535 -382.108 126.478 -267.455 119.298C-140.296 111.334 -32.9163 90.1422 91.7028 80.3156C320.777 62.2504 543.137 112.574 748.584 130.203C858.6 139.643 935.946 117.505 1025.22 104.786C1078.57 97.1899 1126.31 94.9844 1184.7 100.072C1249.31 105.678 1310.26 113.643 1370.64 121.675C1477.17 135.844 1598.87 154.909 1724.14 151.758C1880.74 147.813 2000.2 114.29 2158.97 111.491" stroke="#555555" stroke-width="1.68831" stroke-miterlimit="10"/>
<path d="M-611.547 106.928C-495.817 108.143 -380.664 123.234 -264.722 115.98C-141.2 108.256 -38.2645 87.0641 82.6219 77.4678C199.891 68.1559 324.645 78.6686 434.18 89.9018C539.809 100.738 640.223 114.951 747.43 124.778C856.061 134.736 925.345 113.642 1013.95 101.253C1131.6 84.8096 1252.1 105.663 1359.79 119.185C1468.9 132.869 1594.02 150.797 1720.12 147.577C1878.1 143.549 1998.87 109.79 2159.05 106.923" stroke="#555555" stroke-width="1.68831" stroke-miterlimit="10"/>
<path d="M-611.512 102.467C-494.704 103.824 -379.532 119.958 -262.109 112.651C-141.877 105.162 -43.0395 83.9847 74.5954 74.5992C190.787 65.3167 318.831 75.3981 428.885 85.6854C536.65 95.7619 639.22 109.068 746.407 119.537C853.594 130.005 916.202 109.946 1003.67 97.7321C1118.65 81.6812 1244.17 104.103 1349.99 116.675C1461.39 129.907 1589.69 146.747 1716.48 143.483C1875.69 139.381 1997.66 105.397 2159.01 102.467" stroke="#555555" stroke-width="1.68831" stroke-miterlimit="10"/>
<path d="M-611.473 98.1202C-493.568 99.5905 -378.493 116.626 -259.703 109.275C-142.338 102.016 -47.137 80.8489 67.381 71.6447C182.688 62.4063 313.656 72.076 424.21 81.5105C533.88 90.8764 638.508 103.384 745.523 114.495C796.009 119.734 833.008 119.949 881.821 113.191C921.494 107.697 955.049 99.7179 994.665 94.1846C1047.52 86.7939 1089.62 86.9997 1144.97 92.4938C1211.48 99.1053 1276.28 106.707 1341.55 114.093C1454.81 126.875 1585.9 142.734 1713.27 139.441C1873.58 135.295 1996.56 101.085 2159.06 98.1202" stroke="#555555" stroke-width="1.68831" stroke-miterlimit="10"/>
<path d="M-611.434 93.8765C-492.433 95.3469 -377.703 113.196 -257.529 105.82C-142.491 98.758 -50.542 77.512 61.6672 68.5431C176.378 59.3732 309.751 68.6411 420.748 77.3649C531.745 86.0888 638.317 97.9493 744.984 109.712C794.278 115.147 830.315 115.917 878.704 109.192C917.069 103.86 949.085 95.9889 987.354 90.6174C1039.92 83.2364 1081.36 84.0206 1135.75 89.696C1202.59 96.6701 1268.4 104.257 1334.89 111.437C1449.58 123.817 1583.22 138.795 1710.79 135.491C1871.98 131.32 1995.79 96.9054 2159.08 93.9207" stroke="#555555" stroke-width="1.68831" stroke-miterlimit="10"/>
<path d="M-611.395 89.749C-491.278 91.1801 -377.202 109.647 -255.681 102.252C-142.356 95.346 -53.2736 73.9383 57.3771 65.234C171.933 56.2112 306.75 65.0576 418.439 73.159C531.033 81.3192 638.529 92.6847 744.754 105.094C793.047 110.73 828.68 111.916 876.704 105.192C914.03 99.9726 944.756 92.1505 981.967 86.8819C1034.28 79.4764 1075.69 80.6772 1129.25 86.5682C1196.19 93.9198 1262.76 101.526 1330.27 108.554C1445.71 120.577 1581.59 134.78 1709.06 131.501C1870.89 127.335 1995.29 92.7239 2159.28 89.749" stroke="#555555" stroke-width="1.68831" stroke-miterlimit="10"/>
<path d="M-611.355 85.7229C-490.142 87.0217 -377.048 105.935 -254.18 98.5195C-142.028 91.7512 -54.8698 70.2503 54.4532 61.649C168.644 52.6703 305.231 61.3255 417.209 68.9221C530.957 76.6413 638.933 87.698 744.659 100.779C792.163 106.66 827.988 108.081 875.761 101.313C912.318 96.1327 942.083 88.3057 978.581 83.0763C1030.7 75.6071 1072.69 77.0186 1125.62 83.1792C1192.42 90.9523 1259.49 98.6126 1327.75 105.523C1443.54 117.241 1580.99 130.808 1707.94 127.578C1870.15 123.456 1994.87 88.6586 2159.24 85.7229" stroke="#555555" stroke-width="1.68831" stroke-miterlimit="10"/>
<path d="M-611.297 81.8039C-489.468 82.9703 -377.162 102.089 -253.544 94.6054C-141.777 87.842 -55.1383 66.3607 53.8384 57.8084C167.914 48.8591 305.116 57.6908 417.133 65.1257C531.285 72.7027 638.915 83.6761 744.775 96.8158C792.106 102.697 828.431 103.922 875.878 97.198C912.184 92.052 941.756 84.2936 978.063 79.1328C1030.01 71.7519 1072.76 73.1241 1125.19 79.4612C1191.71 87.4989 1258.85 95.218 1327.41 102.06C1442.64 113.563 1581.88 126.977 1707.85 123.624C1869.83 119.321 1995.35 85.1121 2159.3 81.8186" stroke="#555555" stroke-width="1.68831" stroke-miterlimit="10"/>
<path d="M-611.258 77.9475C-489.159 79.0552 -377.181 98.3015 -253.274 90.7294C-141.68 83.9072 -54.599 62.6073 54.4547 54.1089C168.53 45.2184 305.425 54.4373 417.268 61.9211C531.055 69.5374 638.223 80.4912 744.814 93.0084C845.71 104.854 895.715 86.6371 978.814 75.2765C1030.76 68.1749 1073.78 69.4687 1125.73 75.8303C1191.96 83.9415 1258.99 91.641 1327.52 98.4045C1442.08 109.706 1583.13 123.184 1708.19 119.548C1869.48 114.852 1996.55 82.035 2159.4 78.021" stroke="#555555" stroke-width="1.68831" stroke-miterlimit="10"/>
<path d="M-611.219 74.1471C-488.755 75.2155 -377.046 94.604 -252.754 86.9682C-141.16 80.1068 -53.7327 59.0323 55.3787 50.6123C169.454 41.7905 305.944 51.3622 417.615 58.8706C530.959 66.4917 637.723 77.3965 744.93 89.2815C844.979 100.377 896.774 82.4838 979.93 71.6378C1031.88 64.8449 1075.28 66.0996 1126.77 72.4709C1192.69 80.6263 1259.53 88.267 1328.04 94.9128C1442.14 105.984 1584.59 119.32 1708.62 115.438C1869.1 110.42 1997.72 79.0285 2159.38 74.3774" stroke="#555555" stroke-width="1.68831" stroke-miterlimit="10"/>
<path d="M-611.184 70.4186C-488.296 71.4576 -376.76 91.003 -252.007 83.3328C-140.548 76.4812 -52.6007 55.6469 56.5877 47.3151C170.663 38.6403 306.711 48.4522 418.17 55.9655C530.975 63.5621 637.508 74.3836 745.1 85.6118C844.437 95.9677 898.002 78.471 981.37 68.1298C1033.45 61.6752 1077.19 62.9298 1128.29 69.2963C1193.84 77.4663 1260.55 85.0188 1328.95 91.5078C1442.75 102.315 1586.07 115.322 1709.25 111.239C1868.94 105.951 1999.04 76.0352 2159.47 70.8107" stroke="#555555" stroke-width="1.68831" stroke-miterlimit="10"/>
<path d="M-611.145 66.7509C-487.738 67.7801 -376.414 87.4774 -251.025 79.8024C-139.662 72.9899 -51.1765 52.3909 58.1081 44.2257C172.145 35.7028 307.5 45.7353 418.92 53.224C531.11 60.7716 637.317 71.4804 745.35 82.0323C843.938 91.6629 899.388 74.6269 983.141 64.8444C1035.4 58.7377 1079.48 60.0365 1130.25 66.3833C1195.29 74.5948 1262.03 81.9016 1330.18 88.2714C1443.89 98.7792 1587.61 111.306 1710.08 107.037C1868.73 101.534 2000.43 73.1271 2159.45 67.4076" stroke="#555555" stroke-width="1.68831" stroke-miterlimit="10"/>
<path d="M-611.086 63.1557C-487.121 64.1849 -375.835 84.0537 -249.831 76.3885C-138.565 69.63 -49.4824 49.3053 59.9369 41.3069C173.935 32.9751 308.713 43.1643 419.922 50.6188C531.515 58.088 637.433 68.6497 745.717 78.5155C843.573 87.4354 901.024 70.9042 985.277 61.7148C1037.78 55.9855 1082.19 57.3578 1132.68 63.6752C1197.32 71.8323 1263.82 79.0021 1331.81 85.1466C1445.58 95.3261 1589.29 107.172 1711.1 102.79C1868.73 97.1199 2001.93 70.2671 2159.57 64.1016" stroke="#555555" stroke-width="1.68831" stroke-miterlimit="10"/>
<path d="M-611.047 59.6367C-486.447 60.6708 -375.181 80.7112 -248.464 73.1048C-137.275 66.4295 -47.5578 46.399 61.8999 38.5917C175.841 30.4657 309.907 40.7775 421.019 48.1683C531.785 55.5198 637.664 65.9149 746.064 75.0799C843.227 83.2989 902.795 67.3313 987.625 58.7643C1040.42 53.432 1085.17 54.9072 1135.45 61.2148C1199.65 69.294 1265.85 76.3025 1333.62 82.1962C1447.58 91.9982 1590.85 103.055 1712.14 98.5705C1868.67 92.7873 2003.32 67.5176 2159.53 60.9747" stroke="#555555" stroke-width="1.68831" stroke-miterlimit="10"/>
<path d="M-611.008 56.1854C-485.715 57.244 -374.353 77.4755 -246.905 69.9083C-135.793 63.3507 -45.4216 43.6388 64.1516 36.0422C178.015 28.1515 311.35 38.5368 422.213 45.8442C532.209 53.0978 637.973 63.2576 746.411 71.7168C842.901 79.2399 904.7 63.8751 990.165 55.9649C1043.29 51.0638 1088.39 52.6518 1138.51 58.9055C1202.29 66.8888 1268.21 73.7102 1335.78 79.3183C1450.1 88.743 1592.56 98.8636 1713.41 94.3008C1868.81 88.4195 2004.84 64.7916 2159.59 57.9106" stroke="#555555" stroke-width="1.68831" stroke-miterlimit="10"/>
<path d="M-610.973 52.8136C-484.93 53.9016 -373.587 74.3291 -245.196 66.8649C-134.161 60.4053 -43.0776 41.0266 66.611 33.6652C180.379 26.0343 312.886 36.4539 423.595 43.6682C532.822 50.7895 638.489 60.6945 746.831 68.4381C842.666 75.2995 906.833 60.5621 992.971 53.3331C1046.46 48.8486 1091.9 50.6081 1141.91 56.7638C1205.24 64.6261 1270.85 71.2391 1338.16 76.5444C1452.93 85.5378 1594.23 94.6145 1714.73 89.9977C1868.98 84.1165 2006.3 62.1108 2159.58 54.9455" stroke="#555555" stroke-width="1.68831" stroke-miterlimit="10"/>
<path d="M-610.934 49.5241C-484.102 50.6513 -372.643 71.2749 -243.445 63.9135C-132.352 57.6059 -40.5565 38.5605 69.2668 31.454C182.919 24.1024 314.503 34.5171 425.211 41.6236C533.63 48.5929 639.22 58.2136 747.447 65.2368C842.628 71.417 909.296 57.3658 996.146 50.8523C1050.02 46.8138 1095.79 48.7448 1145.76 54.8711C1208.63 62.5954 1273.91 68.9772 1340.93 73.9509C1456.14 82.4836 1596.02 90.4429 1716.25 85.7722C1869.29 79.8566 2007.84 59.5663 2159.66 52.156" stroke="#555555" stroke-width="1.68831" stroke-miterlimit="10"/>
<path d="M-610.895 46.3345C-483.274 47.4961 -371.681 68.3157 -241.347 61.0769C-130.427 54.9114 -37.8623 36.2384 72.0764 29.4015C185.594 22.3391 316.274 32.7293 426.732 39.6936C534.362 46.4963 639.875 55.7985 747.871 62.1061C842.456 67.6345 911.759 54.2644 999.283 48.5008C1053.54 44.9181 1099.68 47.0305 1149.66 53.1127C1212.06 60.6825 1276.99 66.8153 1343.68 71.4377C1459.64 79.4754 1597.79 86.1898 1717.83 81.5289C1869.67 75.6477 2009.32 57.0629 2159.7 49.4418" stroke="#555555" stroke-width="1.68831" stroke-miterlimit="10"/>
<path d="M-610.855 43.197C-482.311 44.4272 -370.506 65.4477 -239.249 58.3461C-128.349 52.3521 -34.9757 34.0517 75.04 27.499C188.461 20.7503 318.16 31.0816 428.464 37.9284C535.286 44.5595 640.722 53.5088 748.429 59.1009C842.456 64.0019 914.492 51.3523 1002.67 46.3582C1057.33 43.246 1103.82 45.5838 1153.88 51.5827C1215.8 58.9827 1280.37 64.8501 1346.7 69.1039C1463.38 76.6123 1599.6 82.0377 1719.48 77.3719C1870.14 71.5152 2010.78 54.7046 2159.74 46.9071" stroke="#555555" stroke-width="1.68831" stroke-miterlimit="10"/>
<path d="M-610.816 40.1636C-481.349 41.4574 -369.351 62.6789 -236.998 55.7342C-126.193 49.9166 -32.0698 32.0033 78.1383 25.7496C191.406 19.3194 320.104 29.5773 430.235 36.2721C536.287 42.717 641.589 51.2889 748.949 56.1654C842.495 60.4146 917.321 48.5296 1006.17 44.2804C1061.22 41.6486 1108.03 44.2167 1158.27 50.1617C1219.71 57.3777 1283.91 62.9617 1349.84 66.8252C1467.21 73.7651 1601.35 77.8427 1721.18 73.1965C1870.66 67.4084 2012.19 52.372 2159.78 44.4177" stroke="#555555" stroke-width="1.68831" stroke-miterlimit="10"/>
<path d="M-610.777 37.2251C-480.405 38.5876 -368.119 60.0101 -234.746 53.2319C-123.922 47.6006 -29.0101 30.0843 81.3327 24.1394C194.446 18.0474 322.124 28.2023 432.179 34.7403C537.48 40.9989 642.628 49.1592 749.643 53.325C842.785 56.9469 920.458 45.8363 1009.94 42.3712C1065.39 40.2197 1112.53 43.0329 1162.96 48.8896C1223.93 55.919 1287.75 61.2147 1353.27 64.6807C1471.42 71.0178 1603.27 73.7036 1723.06 69.0917C1871.21 63.3771 2013.59 50.1541 2159.82 42.0674" stroke="#555555" stroke-width="1.68831" stroke-miterlimit="10"/>
<path d="M-610.742 34.3777C-479.428 35.8137 -366.853 57.4125 -232.383 50.8403C-121.559 45.405 -25.858 28.2857 84.6195 22.6642C197.579 16.93 324.218 26.9575 434.138 33.3288C538.728 39.3914 643.683 47.1155 750.236 50.5756C843.051 53.5897 923.552 43.2682 1013.62 40.5873C1069.41 38.9258 1116.92 41.9939 1167.54 47.7771C1228.03 54.6065 1291.46 59.5991 1356.53 62.6518C1475.44 68.3517 1604.96 69.621 1724.75 65.0435C1871.83 59.4269 2014.76 48.032 2159.72 39.8276" stroke="#555555" stroke-width="1.68831" stroke-miterlimit="10"/>
<path d="M-610.703 31.6315C-478.426 33.141 -365.525 54.9604 -229.977 48.5597C-119.173 43.3205 -22.625 26.6128 87.9872 21.3393C200.754 15.9482 326.335 25.863 436.236 32.0579C540.133 37.9391 644.858 45.1877 750.967 47.947C843.609 50.3583 926.862 40.8405 1017.62 38.9487C1073.82 37.7774 1121.52 41.115 1172.62 46.8198C1232.64 53.4458 1295.69 58.1285 1360.29 60.7583C1631.57 72.1729 1897.42 52.9167 2159.99 37.7235" stroke="#555555" stroke-width="1.68831" stroke-miterlimit="10"/>
<path d="M-610.664 28.9763C-477.406 30.5691 -364.177 52.5797 -227.514 46.3799C-116.709 41.3514 -19.3344 25.0603 91.4125 20.0956C203.987 15.0475 328.51 24.8398 438.179 30.8534C541.48 36.5337 645.897 43.3118 751.526 45.3555C844.149 47.164 930.018 38.4941 1021.45 37.3668C1077.98 36.6807 1126.08 40.3075 1177.47 45.929C1236.8 52.462 1299.82 56.6279 1363.79 58.9314C1628.17 68.4541 1903.92 50.7761 2159.93 35.6858" stroke="#555555" stroke-width="1.68831" stroke-miterlimit="10"/>
<path d="M-610.625 26.4269C-476.386 28.103 -362.811 50.3047 -225.031 44.3108C-114.207 39.4734 -16.0245 23.6186 94.8571 18.9871C207.239 14.2968 330.685 23.9568 440.239 29.7694C542.982 35.234 647.033 41.5319 752.181 42.9091C844.976 44.1245 933.27 36.2731 1025.39 35.9447C1082.25 35.7438 1130.66 39.6548 1182.45 45.2077C1241.4 51.5251 1303.99 55.3332 1367.43 57.225C1488.27 60.8273 1610.82 57.7592 1730.66 53.3532C1874.46 48.065 2018.48 42.2621 2159.97 33.749" stroke="#555555" stroke-width="1.68831" stroke-miterlimit="10"/>
<path d="M-610.586 23.9815C-476.52 25.7116 -363.099 47.9525 -225.454 42.4732C-115.073 38.0622 -16.6972 22.8249 93.3185 18.2032C204.527 13.5325 325.49 22.8004 434.082 28.3974C539.057 33.7885 645.398 39.8119 752.855 40.5667C848.248 41.2381 941.198 33.8179 1036.38 34.6854C1093.83 35.2098 1141.72 39.9932 1194.38 45.306C1249.08 50.8245 1306.84 53.9857 1365.25 55.4805C1489.58 58.6613 1612.89 53.971 1735.74 49.5454C1877.54 44.4385 2020.61 40.5078 2160.07 31.9702" stroke="#555555" stroke-width="1.68831" stroke-miterlimit="10"/>
<path d="M-610.566 21.6429C-475.577 23.4563 -361.694 45.8835 -223.029 40.6149C-112.629 36.4196 -13.4646 21.5841 96.7243 17.3006C207.702 13.0073 327.703 22.1429 436.141 27.5585C540.616 32.783 646.553 38.3408 753.452 38.3408C849.403 38.3408 944.411 31.9057 1040.38 33.5476C1097.91 34.5278 1146.2 39.5856 1199.27 44.7856C1253.6 50.1082 1310.98 52.9361 1368.89 54.0535C1493.62 56.4599 1614.8 50.2699 1737.63 45.9668C1878.51 41.0315 2021.56 38.9289 2160.03 30.2835" stroke="#555555" stroke-width="1.68831" stroke-miterlimit="10"/>
<path d="M-610.527 19.4166C-474.518 21.3133 -360.404 43.9218 -220.566 38.859C-110.127 34.8598 -10.1931 20.4409 100.15 16.4907C210.897 12.5159 329.955 21.5878 438.335 26.827C542.233 31.8603 647.766 36.9182 754.106 36.2027C850.75 35.5508 947.625 30.0813 1044.4 32.4877C1102.01 33.9237 1150.69 39.2511 1204.1 44.3384C1257.97 49.4698 1315.07 51.9644 1372.45 52.7044C1497.51 54.3267 1616.69 46.6664 1739.48 42.4809C1879.47 37.7073 2022.31 37.4426 2159.97 28.6894" stroke="#555555" stroke-width="1.68831" stroke-miterlimit="10"/>
<path d="M-610.492 17.3059C-473.54 19.2663 -358.945 42.0659 -218.126 37.2139C-107.668 33.4058 -6.96416 19.379 103.552 15.7817C214.068 12.1843 332.164 21.1336 440.256 26.1915C543.903 31.0435 648.936 35.626 754.699 34.1899C852.19 32.8667 950.719 28.3773 1048.31 31.5385C1106.03 33.4058 1155.05 39.0224 1208.96 43.992C1262.87 48.9617 1319.25 51.0985 1376.08 51.471C1501.14 52.2993 1618.74 43.203 1741.4 39.1351C1880.58 34.5183 2023.31 36.0866 2160.05 27.206" stroke="#555555" stroke-width="1.68831" stroke-miterlimit="10"/>
<path d="M-610.473 15.3068C-472.578 17.3653 -357.579 40.3021 -215.759 35.6755C-105.243 32.0537 -3.80849 18.4533 106.861 15.1598C217.07 11.881 334.435 20.7715 442.334 25.6578C545.674 30.3334 650.129 34.4356 755.373 32.2938C853.826 30.2893 953.817 26.7753 1052.27 30.6765C1109.82 32.9604 1159.42 38.871 1213.71 43.7279C1267.01 48.4917 1323.38 50.3247 1379.6 50.3394C1504.67 50.3786 1620.76 39.8904 1743.24 35.9304C1881.77 31.4508 2024.15 34.8473 2160.05 25.8244" stroke="#555555" stroke-width="1.68831" stroke-miterlimit="10"/>
<path d="M-610.453 13.4277C-471.635 15.5548 -356.289 38.6828 -213.45 34.2326C-102.876 30.8019 -0.710495 17.5691 110.094 14.6285C220.187 11.6879 336.379 20.5097 444.297 25.2245C547.425 29.7139 651.361 33.3553 755.989 30.5176C855.5 27.8221 956.78 25.2833 1056.14 29.9099C1113.67 32.581 1163.69 38.7906 1218.39 43.5348C1271.44 48.132 1327.33 49.6366 1383.03 49.3033C1507.9 48.5633 1622.78 36.7322 1745.09 32.8652C1882.83 28.5131 2024.84 33.7376 2160.1 24.5335" stroke="#555555" stroke-width="1.68831" stroke-miterlimit="10"/>
<path d="M-610.414 11.6699C-470.73 13.8705 -354.981 37.1553 -211.198 32.9012C-100.567 29.6224 2.36842 16.816 113.231 14.1547C223.092 11.518 338.342 20.3252 446.202 24.8635C549.138 29.1813 652.554 32.367 756.586 28.8481C857.212 25.4467 959.744 23.8686 1059.79 29.2058C1117.26 32.269 1167.71 38.7727 1222.89 43.4188C1275.61 47.8298 1331.22 49.0452 1386.43 48.3738C1510.98 46.8692 1624.88 33.754 1746.98 29.9704C1884.06 25.7212 2025.65 32.7591 2160.26 23.3736" stroke="#555555" stroke-width="1.68831" stroke-miterlimit="10"/>
<path d="M-610.395 10.0312C-469.941 12.3004 -353.768 35.7519 -209.062 31.6693C-98.3731 28.5425 5.1394 16.1232 116.252 13.756C225.921 11.4231 340.324 20.2156 448.011 24.5971C550.812 28.7875 653.709 31.4929 757.125 27.3074C858.925 23.1905 962.38 22.5534 1063.3 28.5817C1120.65 32.0124 1171.58 38.8101 1227.13 43.3485C1279.57 47.632 1334.87 48.5191 1389.51 47.5291C1513.61 45.2795 1626.73 30.9538 1748.59 27.2192C1885.2 23.0484 2026.21 31.8899 2160.22 22.2789" stroke="#555555" stroke-width="1.68831" stroke-miterlimit="10"/>
<path d="M-610.375 8.52734C-469.036 10.8504 -352.556 34.4587 -207.042 30.5379C-96.2564 27.5581 7.89101 15.5064 119.119 13.4284C228.615 11.3846 342.133 20.1771 449.724 24.4214C552.428 28.4746 654.825 30.729 757.664 25.8917C860.503 21.0544 964.978 21.3387 1066.68 28.0335C1123.9 31.8024 1175.33 38.8157 1231.19 43.3345C1283.13 47.5445 1338.51 48.0738 1392.48 46.7652C1516.08 43.8246 1628.55 28.3422 1750.17 24.6567C1886.18 20.5349 2026.79 31.1652 2160.22 21.2945" stroke="#555555" stroke-width="1.68831" stroke-miterlimit="10"/>
<path d="M-610.258 7.12695C-468.149 9.49906 -351.419 33.2642 -205.039 29.4953C-94.2922 26.6576 10.4709 14.9686 121.833 13.1601C231.08 11.386 343.866 20.2078 451.342 24.3296C553.989 28.2504 655.904 30.0785 758.147 24.6041C862.313 19.0316 967.404 20.1931 1069.84 27.5447C1126.94 31.6321 1178.82 38.9102 1235 43.3652C1286.73 47.4674 1341.82 47.7026 1395.23 46.1294C1453.51 44.4091 1510.32 40.4687 1566.28 36.097C1626.65 31.3871 1688.78 24.2022 1751.67 22.3006C1887.22 18.1984 2027.35 30.5931 2160.24 20.4284" stroke="#555555" stroke-width="1.68831" stroke-miterlimit="10"/>
<path d="M-610.258 5.90039C-467.457 8.3117 -350.514 32.2288 -203.288 28.5873C-92.4451 25.8427 12.876 14.4772 124.373 12.9383C233.446 11.4141 345.424 20.2898 452.804 24.3087C555.451 28.1413 656.963 29.5381 758.609 23.4461C863.911 17.1336 969.693 19.1381 1072.88 27.1268C1129.73 31.5377 1182.05 39.0363 1238.52 43.4276C1290.04 47.4318 1344.88 47.4024 1397.77 45.5596C1455.93 43.5404 1512.42 39.2568 1568.05 34.6058C1627.98 29.5969 1690.2 22.0395 1753.08 20.1232C1888.2 16.0112 2027.89 30.1458 2160.26 19.6331" stroke="#555555" stroke-width="1.68831" stroke-miterlimit="10"/>
<path d="M-610.258 4.78906C-466.803 7.23958 -349.552 31.2988 -201.691 27.7651C-90.7712 25.1088 15.0501 14.0863 126.644 12.7679C235.563 11.479 346.79 20.4577 454.093 24.3736C556.759 28.1131 657.905 29.1178 758.955 22.4132C865.469 15.3704 971.733 18.164 1075.65 26.7653C1132.29 31.4507 1184.99 39.1796 1241.75 43.522C1293.06 47.4428 1347.57 47.1683 1400.08 45.0854C1458.11 42.7819 1514.31 38.1749 1569.64 33.269C1629.17 27.9906 1691.47 20.0999 1754.35 18.1542C1889.03 13.9883 2028.39 29.8432 2160.32 18.9531" stroke="#555555" stroke-width="1.68831" stroke-miterlimit="10"/>
<path d="M-610.258 3.8125C-466.206 6.26302 -348.764 30.4888 -200.267 27.0385C-89.2128 24.4557 17.1473 13.7371 128.856 12.6344C237.66 11.5561 348.195 20.6672 455.382 24.5047C558.087 28.1756 658.944 28.8078 759.378 21.5297C866.989 13.7322 973.522 17.2609 1078.17 26.4308C1134.62 31.3857 1187.67 39.3156 1244.66 43.6187C1295.8 47.4758 1350.11 46.9857 1402.12 44.6822C1460.07 42.1141 1515.96 37.2131 1571.05 32.0719C1630.25 26.5386 1692.59 18.3784 1755.54 16.3886C1889.95 12.1345 2028.97 29.6704 2160.32 18.349" stroke="#555555" stroke-width="1.68831" stroke-miterlimit="10"/>
<path d="M-610.258 2.97852C-465.648 5.42903 -348.09 29.8068 -199.017 26.4104C-87.9429 23.8814 18.8982 13.4471 130.703 12.5159C239.391 11.6288 349.195 20.9016 456.383 24.6852C559.145 28.312 659.81 28.606 759.667 20.7644C868.393 12.2219 974.984 16.4172 1080.4 26.1555C1136.6 31.3506 1189.96 39.4618 1247.16 43.7355C1298.14 47.5485 1352.19 46.8722 1403.83 44.3727C1461.71 41.5644 1517.35 36.3987 1572.2 31.0418C1631.13 25.2831 1693.42 16.9122 1756.54 14.8684C1890.67 10.482 2029.5 29.6696 2160.34 17.8483" stroke="#555555" stroke-width="1.68831" stroke-miterlimit="10"/>
<path d="M-610.258 2.2832C-466.36 4.73372 -349.187 29.1115 -200.979 25.9503C-83.864 23.4557 29.3457 12.1882 147.519 12.4185C248.55 12.6146 349.927 21.0689 449.726 24.7054C555.759 28.5675 657.251 28.4596 759.936 20.1916C873.8 11.0463 980.487 15.8542 1090.23 26.7296C1139.43 31.6012 1186.3 38.247 1235.86 42.8099C1288.31 47.6374 1345.9 47.1669 1399.87 44.486C1461.11 41.4474 1519.73 35.6642 1577.49 29.7829C1635.71 23.8331 1697.61 15.4572 1760.39 13.4968C1893.15 9.37501 2031.22 29.7241 2160.32 17.4519" stroke="#555555" stroke-width="1.68831" stroke-miterlimit="10"/>
<path d="M-610.258 1.73438C-465.956 4.15059 -348.783 28.6901 -200.171 25.524C-83.0174 23.0245 30.7117 12.0217 148.847 12.3892C249.8 12.7078 350.658 21.3973 450.399 25.0388C556.509 28.9106 657.982 28.5283 760.167 19.7212C875.185 9.80148 981.314 15.173 1091.97 26.5826C1140.93 31.6307 1187.94 38.3353 1237.63 42.9031C1289.97 47.7355 1347.3 47.167 1400.96 44.3342C1462.17 41.1044 1520.56 35.0712 1578.15 29.0332C1636.29 22.9363 1698.17 14.4673 1761.1 12.4088C1893.61 8.10572 2031.83 29.9791 2160.34 17.1138" stroke="#555555" stroke-width="1.68831" stroke-miterlimit="10"/>
<path d="M-610.258 1.34375C-465.667 3.72075 -348.59 28.4073 -199.556 25.1922C-82.3824 22.6633 31.5967 11.8957 149.886 12.3809C250.801 12.7926 351.177 21.7615 450.88 25.4323C557.048 29.3532 658.675 28.7307 760.206 19.3943C876.34 8.71981 981.622 14.5422 1093.22 26.4322C1142.07 31.6322 1189.19 38.4054 1238.92 43.0271C1291.22 47.884 1348.05 47.2714 1401.68 44.3062C1525.56 37.4448 1636.56 15.9635 1761.64 11.631C1893.92 7.04856 2032.51 30.3971 2160.34 16.8849" stroke="#555555" stroke-width="1.68831" stroke-miterlimit="10"/>
<path d="M-610.258 1.09375C-465.436 3.42174 -348.398 28.2553 -199.19 24.9618C-81.9976 22.3692 32.3664 11.8123 150.598 12.3759C251.532 12.866 351.466 22.1486 451.13 25.8832C557.337 29.8628 659.31 29.0591 760.263 19.2178C877.417 7.79347 981.526 13.9541 1094.18 26.3243C1142.62 31.6321 1189.86 38.6651 1239.71 43.1054C1292.66 47.8153 1347.78 47.4331 1401.98 44.3356C1526.08 37.2389 1636.46 15.738 1761.99 11.0919C1894.09 6.19083 2033.27 30.9656 2160.26 16.7379" stroke="#555555" stroke-width="1.68831" stroke-miterlimit="10"/>
<path d="M-610.258 1C-465.283 3.25938 -348.456 28.24 -199.094 24.8239C-81.9015 22.1431 32.6164 11.7627 151.079 12.3704C252.032 12.8899 351.581 22.5646 451.226 26.3874C557.433 30.4601 659.945 29.524 760.302 19.1877C878.36 7.01847 981.006 13.3996 1094.74 26.2403C1198.63 37.9636 1284.23 51.3091 1401.89 44.4379C1526.31 37.1696 1636.18 15.8501 1762.14 10.8315C1894.09 5.57267 2034.01 31.6854 2160.41 16.7127" stroke="#555555" stroke-width="1.68831" stroke-miterlimit="10"/>
</svg>
