<svg width="88" height="88" viewBox="0 0 88 88" fill="none" xmlns="http://www.w3.org/2000/svg">
<g filter="url(#filter0_d_8307_6660)">
<mask id="mask0_8307_6660" style="mask-type:alpha" maskUnits="userSpaceOnUse" x="20" y="20" width="48" height="48">
<circle cx="44" cy="44" r="24" fill="#C4C4C4"/>
</mask>
<g mask="url(#mask0_8307_6660)">
<g filter="url(#filter1_d_8307_6660)">
<circle cx="44" cy="44" r="24" fill="#0066FF"/>
</g>
<path fill-rule="evenodd" clip-rule="evenodd" d="M49.04 46.1836C48.7663 46.0472 47.4206 45.3882 47.1697 45.2974C46.9188 45.2065 46.7364 45.161 46.5539 45.4337C46.3715 45.7064 45.8469 46.3199 45.6872 46.5018C45.5276 46.6835 45.368 46.7063 45.0943 46.5699C44.8206 46.4336 43.9387 46.1459 42.8932 45.2179C42.0796 44.4957 41.5303 43.6036 41.3706 43.3309C41.211 43.0582 41.3536 42.9108 41.4907 42.775C41.6137 42.653 41.7643 42.4569 41.9012 42.2978C42.038 42.1387 42.0836 42.0251 42.1749 41.8433C42.2661 41.6615 42.2205 41.5024 42.152 41.3661C42.0836 41.2298 41.5363 39.889 41.3082 39.3436C41.086 38.8125 40.8604 38.8844 40.6924 38.876C40.5329 38.8681 40.3503 38.8664 40.1678 38.8664C39.9853 38.8664 39.6888 38.9346 39.4379 39.2073C39.187 39.48 38.48 40.139 38.48 41.4797C38.48 42.8204 39.4607 44.1157 39.5976 44.2975C39.7344 44.4793 41.5276 47.2307 44.2732 48.4106C44.9262 48.6912 45.4361 48.8588 45.8335 48.9844C46.4892 49.1917 47.0859 49.1624 47.5575 49.0923C48.0833 49.0141 49.1768 48.4333 49.4049 47.797C49.633 47.1608 49.633 46.6154 49.5646 46.5018C49.4962 46.3881 49.3137 46.3199 49.04 46.1836M44.0461 52.9688H44.0424C42.4087 52.9681 40.8063 52.5314 39.4085 51.7058L39.076 51.5094L35.6301 52.409L36.5499 49.0654L36.3334 48.7226C35.4221 47.28 34.9407 45.6125 34.9414 43.9005C34.9434 38.9046 39.0277 34.8402 44.0497 34.8402C46.4815 34.8411 48.7675 35.7848 50.4864 37.4975C52.2054 39.2102 53.1515 41.4867 53.1506 43.9078C53.1485 48.904 49.0643 52.9688 44.0461 52.9688M51.7946 36.1971C49.7265 34.1365 46.9762 33.0012 44.0459 33C38.0082 33 33.0943 37.8901 33.0919 43.9008C33.0911 45.8222 33.5955 47.6977 34.554 49.3509L33 55L38.8069 53.4841C40.4068 54.3526 42.2082 54.8102 44.0415 54.811H44.046H44.0461C50.0832 54.811 54.9975 49.9203 55 43.9095C55.0011 40.9966 53.8628 38.2577 51.7946 36.1971" fill="white"/>
</g>
</g>
<defs>
<filter id="filter0_d_8307_6660" x="0" y="0" width="88" height="88" filterUnits="userSpaceOnUse" color-interpolation-filters="sRGB">
<feFlood flood-opacity="0" result="BackgroundImageFix"/>
<feColorMatrix in="SourceAlpha" type="matrix" values="0 0 0 0 0 0 0 0 0 0 0 0 0 0 0 0 0 0 127 0" result="hardAlpha"/>
<feOffset/>
<feGaussianBlur stdDeviation="10"/>
<feColorMatrix type="matrix" values="0 0 0 0 0 0 0 0 0 0.4 0 0 0 0 1 0 0 0 0.5 0"/>
<feBlend mode="normal" in2="BackgroundImageFix" result="effect1_dropShadow_8307_6660"/>
<feBlend mode="normal" in="SourceGraphic" in2="effect1_dropShadow_8307_6660" result="shape"/>
</filter>
<filter id="filter1_d_8307_6660" x="16" y="20" width="56" height="56" filterUnits="userSpaceOnUse" color-interpolation-filters="sRGB">
<feFlood flood-opacity="0" result="BackgroundImageFix"/>
<feColorMatrix in="SourceAlpha" type="matrix" values="0 0 0 0 0 0 0 0 0 0 0 0 0 0 0 0 0 0 127 0" result="hardAlpha"/>
<feOffset dy="4"/>
<feGaussianBlur stdDeviation="2"/>
<feColorMatrix type="matrix" values="0 0 0 0 0 0 0 0 0 0.4 0 0 0 0 1 0 0 0 0.25 0"/>
<feBlend mode="normal" in2="BackgroundImageFix" result="effect1_dropShadow_8307_6660"/>
<feBlend mode="normal" in="SourceGraphic" in2="effect1_dropShadow_8307_6660" result="shape"/>
</filter>
</defs>
</svg>
