<svg width="24" height="24" viewBox="0 0 24 24" fill="none" xmlns="http://www.w3.org/2000/svg">
<mask id="mask0_7734_3215" style="mask-type:alpha" maskUnits="userSpaceOnUse" x="0" y="0" width="24" height="24">
<circle cx="12" cy="12" r="12" fill="#C4C4C4"/>
</mask>
<g mask="url(#mask0_7734_3215)">
<circle cx="12" cy="12" r="12" fill="white"/>
<path d="M11.3863 15.4032C10.776 15.4032 10.328 15.2515 10.0423 14.9482C9.75666 14.6449 9.61382 14.1773 9.61382 13.5454C9.61382 12.8882 9.77613 12.4269 10.1008 12.1615C10.4384 11.8961 11.0227 11.7634 11.8538 11.7634C11.9967 11.7634 12.146 11.7697 12.3018 11.7823C12.4706 11.795 12.6719 11.8202 12.9056 11.8582V11.5548C12.9056 11.3779 12.8277 11.2452 12.6719 11.1567C12.5291 11.0683 12.2953 11.024 11.9707 11.024C11.5681 11.024 11.211 11.0367 10.8994 11.0619C10.6007 11.0746 10.341 11.1062 10.1202 11.1567V9.56431C10.4189 9.48849 10.763 9.43793 11.1526 9.41266C11.5422 9.37474 11.9967 9.35578 12.5161 9.35578C13.2303 9.35578 13.7692 9.52008 14.1328 9.84867C14.4964 10.1646 14.6782 10.6386 14.6782 11.2705V13.4885C14.6782 13.6022 14.6911 13.6844 14.7171 13.7349C14.7561 13.7855 14.8145 13.8108 14.8924 13.8108C15.1002 13.8108 15.282 13.5959 15.4378 13.1662C15.6066 12.7239 15.691 12.1741 15.691 11.5169C15.691 10.4427 15.4054 9.62119 14.834 9.05247C14.2626 8.48375 13.4251 8.19939 12.3213 8.19939C10.8669 8.19939 9.86054 8.52166 9.30216 9.16621C8.74379 9.79812 8.4646 10.9103 8.4646 12.5027C8.4646 13.9055 8.80222 14.9292 9.47747 15.5738C10.1527 16.2057 11.276 16.5217 12.8472 16.5217C13.3926 16.5217 13.938 16.4648 14.4834 16.351C15.0418 16.2247 15.5222 16.054 15.9248 15.8392V17.6401C15.4833 17.8929 14.9574 18.0825 14.347 18.2089C13.7497 18.3352 13.0745 18.3984 12.3213 18.3984C10.3735 18.3984 8.89961 17.8992 7.89973 16.9008C6.89984 15.9024 6.3999 14.43 6.3999 12.4837C6.3999 10.4995 6.89984 8.98928 7.89973 7.95294C8.9126 6.91661 10.38 6.39844 12.3018 6.39844C14.0159 6.39844 15.3274 6.82182 16.2364 7.66858C17.1454 8.5027 17.5999 9.70965 17.5999 11.2894C17.5999 12.4901 17.3207 13.4758 16.7623 14.2468C16.204 15.0177 15.4833 15.4032 14.6002 15.4032C14.3146 15.4032 14.0678 15.34 13.8601 15.2136C13.6653 15.0872 13.516 14.904 13.4121 14.6638C13.1783 14.8913 12.8732 15.0746 12.4966 15.2136C12.133 15.34 11.7629 15.4032 11.3863 15.4032ZM12.146 12.9766C11.8343 12.9766 11.6266 13.0082 11.5227 13.0714C11.4318 13.122 11.3863 13.242 11.3863 13.4316C11.3863 13.6085 11.4253 13.7286 11.5032 13.7918C11.5811 13.855 11.724 13.8866 11.9317 13.8866C12.0876 13.8866 12.2499 13.8676 12.4187 13.8297C12.6005 13.7792 12.7628 13.7223 12.9056 13.6591V13.0335C12.8277 13.0082 12.7238 12.9956 12.594 12.9956C12.4771 12.983 12.3278 12.9766 12.146 12.9766Z" fill="#0B0B0B"/>
</g>
</svg>
