<svg width="336" height="60" viewBox="0 0 336 60" fill="none" xmlns="http://www.w3.org/2000/svg">
<path fill-rule="evenodd" clip-rule="evenodd" d="M72.4405 22.3392L68.506 26.2041C66.3878 28.2843 66.3752 31.6707 68.477 33.7671C68.4868 33.7763 68.4961 33.7861 68.506 33.7959L72.4405 37.6603C74.5587 39.7405 74.5713 43.1269 72.4696 45.2233C72.4597 45.233 72.4498 45.2423 72.4405 45.252L59.0061 58.448C56.8994 60.5173 53.5004 60.5173 51.3938 58.448L26.2964 33.7959C24.1783 31.7151 24.1651 28.3293 26.2674 26.2328C26.2767 26.2231 26.2866 26.2133 26.2964 26.2041L51.3938 1.552C53.5004 -0.517335 56.8994 -0.517335 59.0061 1.552L72.4405 14.7474C74.5587 16.8282 74.5713 20.214 72.4696 22.3104C72.4597 22.3202 72.4498 22.3299 72.4405 22.3392Z" fill="white"/>
<path fill-rule="evenodd" clip-rule="evenodd" d="M25.5255 21.7081L21.591 25.5725C19.4734 27.6532 19.4602 31.0391 21.5619 33.1355C21.5718 33.1453 21.5817 33.155 21.591 33.1642L25.5255 37.0287C27.6437 39.1094 27.6568 42.4958 25.5545 44.5917C25.5447 44.6014 25.5354 44.6112 25.5255 44.6209L23.1993 46.906C21.0921 48.9753 17.6936 48.9753 15.5868 46.906L1.59717 33.1642C-0.520974 31.0841 -0.534008 27.6977 1.56809 25.6012C1.57773 25.5915 1.58742 25.5823 1.59717 25.5725L15.5868 11.8313C17.6936 9.76196 21.0921 9.76196 23.1993 11.8313L25.5255 14.1164C27.6437 16.1971 27.6568 19.5829 25.5545 21.6794C25.5447 21.6891 25.5354 21.6989 25.5255 21.7081Z" fill="white"/>
<path fill-rule="evenodd" clip-rule="evenodd" d="M94.8144 11.8313L108.804 25.5725C110.922 27.6532 110.935 31.0391 108.833 33.1355C108.823 33.1453 108.813 33.155 108.804 33.1642L94.8144 46.906C92.7073 48.9753 89.3088 48.9753 87.2022 46.906L73.2124 33.1642C71.0943 31.0841 71.0812 27.6977 73.1834 25.6012C73.1927 25.592 73.2026 25.5823 73.2124 25.5725L87.2022 11.8313C89.3088 9.76196 92.7073 9.76196 94.8144 11.8313Z" fill="white"/>
<path d="M138.91 15.1887C140.758 15.1887 142.458 15.6354 144.009 16.5289C145.56 17.3915 146.798 18.5777 147.722 20.0873C148.646 21.5661 149.108 23.2452 149.108 25.1245C149.108 26.973 148.646 28.6675 147.722 30.208C146.798 31.7176 145.56 32.9191 144.009 33.8126C142.458 34.706 140.758 35.1528 138.91 35.1528H130.147V47.5379H124.801V15.1887H138.91ZM138.811 30.3466C139.702 30.3466 140.511 30.1155 141.237 29.6534C141.963 29.1605 142.54 28.5289 142.97 27.7587C143.432 26.9576 143.663 26.0796 143.663 25.1245C143.663 23.6765 143.184 22.4596 142.227 21.4737C141.27 20.4878 140.131 19.9949 138.811 19.9949H130.147V30.3466H138.811Z" fill="white"/>
<path d="M155.88 47.5379V13.3402H160.979V47.5379H155.88Z" fill="white"/>
<path d="M192.972 23.276V47.5379H187.823V43.7946C187.031 44.8113 185.859 45.7664 184.308 46.6598C182.757 47.5533 180.958 48 178.912 48C176.734 48 174.737 47.4608 172.922 46.3825C171.14 45.3042 169.72 43.81 168.664 41.8999C167.608 39.9897 167.08 37.8023 167.08 35.3376C167.08 32.8729 167.625 30.7009 168.714 28.8216C169.803 26.9114 171.305 25.4326 173.219 24.3851C175.133 23.3068 177.311 22.7677 179.754 22.7677C181.569 22.7677 183.153 23.1374 184.506 23.8768C185.892 24.6162 186.998 25.4788 187.823 26.4647V23.276H192.972ZM180.1 43.6098C181.684 43.6098 183.071 43.2555 184.259 42.5469C185.447 41.8074 186.371 40.8216 187.031 39.5892C187.691 38.3261 188.021 36.9089 188.021 35.3376C188.021 33.7972 187.691 32.4108 187.031 31.1784C186.371 29.9461 185.447 28.9756 184.259 28.267C183.071 27.5276 181.684 27.1579 180.1 27.1579C178.582 27.1579 177.229 27.5122 176.041 28.2208C174.853 28.9294 173.928 29.8999 173.268 31.1322C172.608 32.3646 172.278 33.7664 172.278 35.3376C172.278 36.9089 172.608 38.3261 173.268 39.5892C173.928 40.8216 174.853 41.8074 176.041 42.5469C177.229 43.2555 178.582 43.6098 180.1 43.6098Z" fill="white"/>
<path d="M209.399 47.5379H204.299V27.8973H198.903V23.276H204.299V17.0834H209.399V23.276H215.438V27.8973H209.399V47.5379Z" fill="white"/>
<path d="M224.487 18.0077C223.332 18.0077 222.474 17.7304 221.913 17.1759C221.352 16.6213 221.072 15.8973 221.072 15.0039C221.072 14.2336 221.352 13.5404 221.913 12.9243C222.474 12.3081 223.332 12 224.487 12C225.643 12 226.501 12.2773 227.062 12.8318C227.623 13.3864 227.903 14.1104 227.903 15.0039C227.903 15.7741 227.623 16.4673 227.062 17.0834C226.501 17.6996 225.643 18.0077 224.487 18.0077ZM227.111 47.5379H222.012V23.276H227.111V47.5379Z" fill="white"/>
<path d="M249.454 22.7677C251.798 22.7677 253.613 23.2144 254.9 24.1078C256.187 25.0013 257.078 26.2028 257.573 27.7125C258.102 29.2221 258.366 30.9012 258.366 32.7497V47.5379H253.266V33.0732C253.266 31.9024 253.101 30.8549 252.771 29.9307C252.441 29.0064 251.88 28.2824 251.088 27.7587C250.296 27.2349 249.19 27.0193 247.771 27.1117C246.451 27.1117 245.279 27.3736 244.256 27.8973C243.233 28.4211 242.425 29.1142 241.83 29.9769C241.236 30.8395 240.939 31.7946 240.939 32.8421V47.5379H235.84V23.276H240.939V27.1117C241.731 25.9718 242.887 24.9705 244.405 24.1078C245.923 23.2144 247.606 22.7677 249.454 22.7677Z" fill="white"/>
<path d="M283.996 37.8793V23.276H289.095V47.5379H283.996V43.656C283.237 44.7959 282.115 45.8126 280.63 46.706C279.178 47.5687 277.428 48 275.382 48C272.676 48 270.481 47.1374 268.798 45.4121C267.115 43.6868 266.273 41.2991 266.273 38.249V23.276H271.372V36.9551C271.372 38.1874 271.57 39.3273 271.966 40.3748C272.395 41.4223 273.055 42.2696 273.946 42.9166C274.871 43.5327 276.042 43.8408 277.461 43.8408C279.244 43.8408 280.778 43.3171 282.065 42.2696C283.353 41.2221 283.996 39.7587 283.996 37.8793Z" fill="white"/>
<path d="M310.456 22.8601C312.601 22.8601 314.317 23.3222 315.604 24.2465C316.891 25.1399 317.816 26.3723 318.377 27.9435C318.839 27.1733 319.515 26.4031 320.406 25.6329C321.297 24.8318 322.337 24.1694 323.525 23.6457C324.713 23.122 325.984 22.8601 327.337 22.8601C329.581 22.8601 331.331 23.3222 332.585 24.2465C333.839 25.1399 334.714 26.3569 335.209 27.8973C335.737 29.4069 336.001 31.1014 336.001 32.9807V47.5379H330.852V33.258C330.852 31.4711 330.489 30.0231 329.763 28.914C329.037 27.8049 327.667 27.2503 325.654 27.2503C323.74 27.2503 322.156 27.8203 320.901 28.9602C319.68 30.0693 319.07 31.4249 319.07 33.027V47.5379H313.921V33.1656C313.921 31.4403 313.525 30.0231 312.733 28.914C311.941 27.8049 310.637 27.2503 308.822 27.2503C307.568 27.2503 306.446 27.5122 305.456 28.0359C304.465 28.5597 303.69 29.2529 303.129 30.1155C302.568 30.9474 302.287 31.887 302.287 32.9345V47.5379H297.138V23.276H302.287V27.1579C303.079 26.0488 304.185 25.0629 305.604 24.2003C307.056 23.3068 308.673 22.8601 310.456 22.8601Z" fill="white"/>
</svg>
