<svg width="56" height="30" viewBox="0 0 56 30" fill="none" xmlns="http://www.w3.org/2000/svg">
<path fill-rule="evenodd" clip-rule="evenodd" d="M36.745 11.1696L34.7492 13.1021C33.6748 14.1422 33.6684 15.8353 34.7345 16.8836C34.7395 16.8882 34.7442 16.8931 34.7492 16.8979L36.745 18.8301C37.8194 19.8702 37.8258 21.5634 36.7597 22.6116C36.7547 22.6165 36.7497 22.6211 36.745 22.626L29.9305 29.224C28.8619 30.2587 27.1378 30.2587 26.0692 29.224L13.3387 16.8979C12.2643 15.8576 12.2577 14.1646 13.324 13.1164C13.3287 13.1115 13.3337 13.1067 13.3387 13.1021L26.0692 0.776002C27.1378 -0.258667 28.8619 -0.258667 29.9305 0.776002L36.745 7.37372C37.8194 8.41408 37.8258 10.107 36.7597 11.1552C36.7547 11.1601 36.7497 11.165 36.745 11.1696Z" fill="white"/>
<path fill-rule="evenodd" clip-rule="evenodd" d="M12.9476 10.855L10.9519 12.7872C9.87772 13.8276 9.87105 15.5205 10.9371 16.5687C10.9421 16.5736 10.9471 16.5785 10.9519 16.5831L12.9476 18.5153C14.022 19.5557 14.0287 21.2489 12.9623 22.2968C12.9573 22.3017 12.9526 22.3066 12.9476 22.3115L11.7677 23.454C10.6988 24.4886 8.97497 24.4886 7.9063 23.454L0.810152 16.5831C-0.26426 15.543 -0.270871 13.8498 0.795403 12.8016C0.800291 12.7967 0.805208 12.7921 0.810152 12.7872L7.9063 5.91663C8.97497 4.88196 10.6988 4.88196 11.7677 5.91663L12.9476 7.05916C14.022 8.09952 14.0287 9.79243 12.9623 10.8407C12.9573 10.8455 12.9526 10.8504 12.9476 10.855Z" fill="white"/>
<path fill-rule="evenodd" clip-rule="evenodd" d="M48.0938 5.91663L55.1897 12.7872C56.2641 13.8276 56.2708 15.5205 55.2047 16.5687C55.1997 16.5736 55.1947 16.5785 55.1897 16.5831L48.0938 23.454C47.0249 24.4886 45.3011 24.4886 44.2325 23.454L37.1363 16.5831C36.0619 15.543 36.0553 13.8498 37.1216 12.8016C37.1263 12.797 37.1313 12.7921 37.1363 12.7872L44.2325 5.91663C45.3011 4.88196 47.0249 4.88196 48.0938 5.91663Z" fill="white"/>
</svg>
