<svg width="47" height="52" viewBox="0 0 47 52" fill="none" xmlns="http://www.w3.org/2000/svg">
<path fill-rule="evenodd" clip-rule="evenodd" d="M25.7597 0.53785C24.5223 -0.176354 22.998 -0.176353 21.7606 0.53785L2.87738 11.437C1.63953 12.1514 0.876953 13.4721 0.876953 14.9013V37.0982C0.876953 38.5275 1.63954 39.8481 2.87738 40.5626L21.7606 51.4617C22.998 52.1759 24.5223 52.1759 25.7597 51.4617L44.6429 40.5626C45.8807 39.8481 46.6433 38.5275 46.6433 37.0982V14.9013C46.6433 13.4721 45.8807 12.1514 44.6429 11.437L25.7597 0.53785ZM8.38582 25.9998C8.38582 34.3723 15.2605 41.1838 23.7106 41.1838C29.1635 41.1838 34.2489 38.2763 36.9821 33.5959L30.35 29.7936C28.9819 32.1365 26.4378 33.5918 23.7106 33.5918C19.4855 33.5918 16.0482 30.186 16.0482 25.9998C16.0482 21.8135 19.4855 18.4078 23.7106 18.4078C26.4375 18.4078 28.9816 19.8631 30.3495 22.2056L36.9817 18.403C34.2485 13.7231 29.1632 10.8158 23.7106 10.8158C15.2605 10.8158 8.38582 17.6273 8.38582 25.9998ZM39.0354 25.1569H37.3325V23.4696H35.63V25.1569H33.9271V26.8442H35.63V28.5316H37.3325V26.8442H39.0354V25.1569ZM43.7178 25.1569H45.4207V26.8442H43.7178V28.5316H42.0153V26.8442H40.3124V25.1569H42.0153V23.4696H43.7178V25.1569Z" fill="white"/>
</svg>
