<svg width="40" height="35" viewBox="0 0 40 35" fill="none" xmlns="http://www.w3.org/2000/svg">
<path d="M17.5099 34.2012C8.02398 34.2012 0.306641 26.5548 0.306641 17.156C0.306641 7.75728 8.02398 0.11084 17.5099 0.11084C23.6309 0.11084 29.3395 3.37449 32.4077 8.62808L24.9626 12.8967C23.427 10.2671 20.5711 8.63343 17.5099 8.63343C12.7669 8.63343 8.90827 12.4566 8.90827 17.156C8.90827 21.8553 12.7669 25.6786 17.5099 25.6786C20.5714 25.6786 23.4273 24.045 24.9631 21.4148L32.4082 25.6833C29.34 30.9374 23.6312 34.2012 17.5099 34.2012Z" fill="white"/>
<path d="M34.8281 12.8564H33.125V21.0057H34.8281V12.8564Z" fill="white"/>
<path d="M38.5996 12.8564H36.8965V21.0057H38.5996V12.8564Z" fill="white"/>
<path d="M39.9846 14.228H31.7598V15.9148H39.9846V14.228Z" fill="white"/>
<path d="M39.9846 17.9482H31.7598V19.6351H39.9846V17.9482Z" fill="white"/>
</svg>
