<svg width="113" height="35" viewBox="0 0 113 35" fill="none" xmlns="http://www.w3.org/2000/svg">
<path fill-rule="evenodd" clip-rule="evenodd" d="M34.8042 8.69981C34.8139 9.0472 34.8177 9.39402 34.8198 9.74102C34.8223 10.137 34.8223 10.533 34.8222 10.9289L34.8222 10.9772V23.894V23.9863C34.8222 24.3679 34.8222 24.7489 34.8197 25.1306C34.8176 25.4776 34.8137 25.8244 34.8041 26.1712C34.7837 26.9273 34.7386 27.69 34.6031 28.4373C34.4655 29.1963 34.2407 29.9028 33.8863 30.5924C33.5385 31.2698 33.0837 31.8894 32.5412 32.4267C31.9989 32.9644 31.3733 33.4149 30.6894 33.76C29.9939 34.1107 29.2813 34.3332 28.5158 34.4695C27.7608 34.6039 26.9912 34.6487 26.2279 34.669C25.8775 34.6782 25.5274 34.6823 25.1771 34.6843C24.8062 34.6869 24.435 34.6869 24.0641 34.6869L23.9295 34.6868H10.8928L10.7581 34.6869C10.387 34.6869 10.0162 34.6869 9.64538 34.6843C9.29493 34.6823 8.94443 34.6782 8.59451 34.669C7.83141 34.6487 7.06122 34.604 6.30674 34.4695C5.541 34.3332 4.82845 34.1107 4.13289 33.76C3.44895 33.4149 2.82322 32.9644 2.28105 32.4267C1.73847 31.8895 1.28372 31.2698 0.935852 30.5924C0.581478 29.9028 0.356917 29.1963 0.219248 28.4373C0.0837492 27.69 0.0387783 26.9273 0.018257 26.1712C0.00864128 25.8244 0.00459566 25.4776 0.002309 25.1306C-7.33764e-05 24.7663 -3.11253e-05 24.4025 1.11702e-05 24.0383C1.67573e-05 23.9902 2.23451e-05 23.9421 2.23451e-05 23.894V16.6018V10.9772C2.23451e-05 10.9339 1.84474e-05 10.8905 1.45496e-05 10.8471C-1.85835e-05 10.4785 -5.17275e-05 10.1097 0.002309 9.74096C0.00459566 9.39396 0.00864128 9.04715 0.018257 8.69975C0.0387783 7.94407 0.0838078 7.18153 0.219248 6.43392C0.356917 5.6747 0.581478 4.96875 0.935852 4.27906C1.28372 3.60175 1.73847 2.98195 2.28105 2.44447C2.41661 2.3101 2.55739 2.18119 2.70297 2.05797C3.13972 1.68838 3.61992 1.37032 4.13283 1.11169C4.30674 1.02402 4.4817 0.944318 4.65824 0.872049C5.18792 0.65507 5.73238 0.504259 6.30657 0.402014C6.87248 0.30099 7.44726 0.250739 8.02115 0.223319C8.21247 0.214198 8.40367 0.207575 8.59445 0.202463C8.94437 0.193052 9.29488 0.189102 9.64532 0.186952C10.061 0.18457 10.4767 0.18457 10.8928 0.18457H14.7116H23.9295C24.3452 0.18457 24.7613 0.18457 25.1771 0.186894C25.5274 0.189044 25.8775 0.192994 26.228 0.202405C26.9913 0.222854 27.7609 0.267237 28.5158 0.401956C29.2814 0.538244 29.994 0.760974 30.6895 1.11169C31.3734 1.45653 31.9989 1.90704 32.5413 2.44453C33.0837 2.98201 33.5385 3.60181 33.8864 4.27912C34.2407 4.96881 34.4656 5.67476 34.6031 6.43398C34.7387 7.18159 34.7838 7.94412 34.8042 8.69981ZM27.5909 21.4802L27.5934 21.483C30.5853 25.1305 29.7715 29.0405 29.3885 28.3027C27.8247 25.288 24.9113 26.0576 23.4363 26.8162C23.3139 26.8884 23.1888 26.9568 23.0627 27.0239C23.0572 27.0273 23.0512 27.0308 23.0451 27.0343C23.0352 27.04 23.025 27.0457 23.0163 27.0512L23.0187 27.0477C19.9488 28.664 15.8269 28.7837 11.6818 27.0187C8.20607 25.5386 5.35027 23.0031 3.49603 20.0645C4.43889 20.7542 5.45745 21.3612 6.54092 21.8643C10.9214 23.897 15.321 23.7502 18.4346 21.8623C14.0031 18.4856 10.3042 14.0882 7.46783 10.5242C6.92226 9.88504 6.42594 9.22109 6.00865 8.53158C9.4051 11.6116 14.7702 15.4793 16.6953 16.5498C12.6092 12.2725 9.00869 7.00494 9.17755 7.17359C15.613 13.5984 21.5506 17.2309 21.5506 17.2309C21.7742 17.353 21.9407 17.4507 22.0729 17.5367C22.1947 17.2271 22.3048 16.9085 22.3965 16.5765C23.4241 12.855 22.2675 8.59938 19.6517 5.08594C25.6208 8.63749 29.1482 15.3827 27.7029 21.088C27.6749 21.1987 27.6427 21.3066 27.6105 21.4144C27.6039 21.4363 27.5974 21.4582 27.5909 21.4802Z" fill="white"/>
<path d="M48.0388 22.5762C48.3109 24.9698 50.615 26.5391 53.8149 26.5391C56.8553 26.5391 59.0472 24.9698 59.0472 22.7983C59.0472 20.9275 57.7193 19.7856 54.6629 19.025L51.703 18.2799C47.4468 17.2335 45.5266 15.3309 45.5266 12.1922C45.5266 8.32404 48.9347 5.64453 53.7832 5.64453C58.487 5.64453 61.8312 8.33961 61.9433 12.224H58.8234C58.5831 9.84597 56.631 8.38701 53.7032 8.38701C50.8068 8.38701 48.7908 9.86154 48.7908 12.0174C48.7908 13.6979 50.0391 14.697 53.1112 15.4738L55.5752 16.1078C60.3434 17.2654 62.2953 19.1043 62.2953 22.4178C62.2953 26.6348 58.919 29.2824 53.5428 29.2824C48.5508 29.2824 45.1427 26.6503 44.8867 22.5763H48.0388V22.5762ZM82.1149 28.9017H78.9785L75.3144 16.2507H75.2505L71.6024 28.9017H68.4664L63.8262 12.3344H66.8661L70.0982 25.6357H70.1624L73.8105 12.3344H76.7544L80.4346 25.6357H80.4988L83.7309 12.3344H86.7388L82.1149 28.9017ZM88.7639 7.87962C88.7639 6.88128 89.5962 6.07256 90.6042 6.07256C91.6283 6.07256 92.4602 6.88128 92.4602 7.87962C92.4602 8.87866 91.6283 9.703 90.6042 9.703C89.5962 9.703 88.7639 8.87871 88.7639 7.87962ZM89.0842 12.3344H92.1402V28.9017H89.0842V12.3344ZM112.098 14.7761V12.3343H108.865V8.37138H105.825V12.3343H103.345H99.9833V10.8761C99.999 9.40156 100.575 8.78315 101.951 8.78315C102.399 8.78315 102.847 8.83125 103.215 8.89423V6.51617C102.671 6.43693 102.175 6.38952 101.599 6.38952C98.3352 6.38952 96.9591 7.73741 96.9591 10.8287V12.3343H94.6233V14.7761H96.9591V28.9016H99.9991V14.7761H103.345H105.825V24.558C105.825 27.7604 107.057 28.9964 110.257 28.9964C110.945 28.9964 111.729 28.949 112.082 28.8698V26.3969C111.873 26.4288 111.265 26.4762 110.929 26.4762C109.505 26.4762 108.866 25.8104 108.866 24.3203V14.7761H112.098Z" fill="white"/>
</svg>
