<svg width="159" height="39" viewBox="0 0 159 39" fill="none" xmlns="http://www.w3.org/2000/svg">
<path d="M119.2 0.210938V7.45287H122.928L121.082 12.872H122.764L126.839 7.89339H126.84V0.210938H119.2ZM47.8766 4.62034C36.7523 4.62034 30.107 10.9017 30.107 21.4073C30.107 31.9164 36.4919 38.2109 48.5432 38.2109C59.5028 38.2109 64.509 34.0002 65.6969 26.8013H55.8997C55.3544 29.5858 52.7884 30.5463 49.4334 30.5463C45.5099 30.5463 43.0375 27.8076 43.0375 23.3357H65.494C65.5903 22.816 65.641 22.127 65.641 21.4073C65.641 12.3006 59.7422 4.62034 47.8766 4.62034ZM143.862 4.7187C133.981 4.7187 127.656 8.73367 127.656 15.5853C127.656 28.389 146.44 24.0497 146.44 28.5791C146.44 30.2905 145.072 31.1835 142.407 31.1835C139.389 31.1835 137.243 29.7938 137.243 27.0441H127.39V27.2272C127.39 33.0332 131.395 37.828 142.178 37.828C154.344 37.828 158.998 32.9492 159 26.6737C159 13.6435 139.357 18.5421 139.357 13.548C139.357 12.5216 140.623 11.3569 143.883 11.3569C147.086 11.3569 148.968 12.8749 148.968 14.3934H157.989C157.989 9.1299 152.654 4.7187 143.862 4.7187ZM104.21 5.34339V37.1143H115.976V5.34339H104.21ZM62.3877 5.40512L77.8262 37.1823H87.4993L102.444 5.40512H92.7245L84.4333 23.7532H84.218L75.9341 5.40512H62.3877ZM0 5.68032V37.129H29.5408V29.0991H11.7608V5.68032H0ZM47.9677 11.4207C51.3158 11.4207 52.4476 14.2022 52.4476 17.6885H43.4681C43.4681 14.5675 44.6405 11.4207 47.9677 11.4207Z" fill="black"/>
</svg>
