<svg width="103" height="67" viewBox="0 0 103 67" fill="none" xmlns="http://www.w3.org/2000/svg">
<path d="M12.0619 56.3958C12.9463 56.3958 13.7504 56.5944 14.1926 56.9916C14.273 57.627 13.67 58.6596 13.3082 58.6596C12.8659 58.5008 12.4639 58.4213 11.9413 58.4213C9.8507 58.4213 8.80543 60.566 8.80543 62.6709C8.80543 63.9815 9.24766 64.7758 10.3331 64.7758C11.4588 64.7758 12.5845 64.0212 13.2278 63.4652C13.3886 63.5843 13.5896 63.9418 13.5896 64.3389C13.5896 64.7758 13.469 65.2127 13.0267 65.6495C12.3031 66.3644 11.0568 66.9999 9.24766 66.9999C7.19731 66.9999 5.75 65.8481 5.75 63.1475C5.83041 59.5731 8.16218 56.3958 12.0619 56.3958ZM18.816 64.6567C19.9416 64.6567 21.992 62.7106 22.5548 58.9773C22.595 58.7391 22.595 58.6993 22.6352 58.461C22.394 58.3816 22.0322 58.3022 21.7106 58.3022C20.8663 58.3022 19.9819 58.5405 19.218 59.6128C18.4139 60.7248 18.0521 62.1149 18.0521 63.2269C18.0521 64.1404 18.3335 64.6567 18.816 64.6567ZM15.1173 63.6241C15.1173 62.2737 15.5595 59.9702 17.2883 58.2625C18.7758 56.7533 20.5447 56.3958 22.193 56.3958C23.2785 56.3958 24.7258 56.7533 25.6505 56.9121C25.4093 57.905 24.8866 61.678 24.6052 63.8624C24.4846 64.7758 24.4444 66.0864 24.4846 66.563C23.7207 66.8807 22.3136 66.9602 21.9116 66.9602C21.7106 66.9602 21.6704 66.0467 21.7106 65.1332C21.7508 64.8552 21.791 64.4184 21.791 64.2198C20.9065 65.6893 19.1376 66.9204 17.2883 66.9204C15.9616 66.9602 15.1173 65.8481 15.1173 63.6241ZM31.3593 56.3958C32.284 56.3958 33.2086 56.7533 33.6107 57.1504C33.5705 57.7859 33.088 58.8582 32.284 58.5405C31.9221 58.4213 31.6005 58.3419 31.1181 58.3419C30.515 58.3419 29.9522 58.6199 29.9522 59.1759C29.9522 59.6128 30.2738 59.9305 31.8015 61.0028C32.887 61.7971 33.3292 62.512 33.3292 63.5049C33.3292 65.173 31.7613 66.9602 28.9873 66.9602C27.8616 66.9602 26.8566 66.5233 26.5751 66.0864C26.1731 65.4113 26.4947 64.0609 26.937 64.2992C27.54 64.5772 28.5049 64.895 29.3089 64.895C30.0728 64.895 30.5552 64.5375 30.5552 64.1006C30.5552 63.7035 30.1934 63.3858 28.8265 62.3929C27.6606 61.5191 27.2988 60.7248 27.2988 59.8511C27.2988 57.9447 28.9471 56.3958 31.3593 56.3958ZM39.2793 56.3958C40.2039 56.3958 41.1286 56.7533 41.5306 57.1504C41.4904 57.7859 41.008 58.8582 40.2039 58.5405C39.8421 58.4213 39.5205 58.3419 39.0381 58.3419C38.435 58.3419 37.8722 58.6199 37.8722 59.1759C37.8722 59.6128 38.1938 59.9305 39.7215 61.0028C40.807 61.7971 41.2492 62.512 41.2492 63.5049C41.2492 65.173 39.6813 66.9602 36.9073 66.9602C35.7816 66.9602 34.8167 66.5233 34.4951 66.0864C34.0931 65.4113 34.4147 64.0609 34.857 64.2992C35.46 64.5772 36.4249 64.895 37.2289 64.895C37.9928 64.895 38.4752 64.5375 38.4752 64.1006C38.4752 63.7035 38.1134 63.3858 36.7465 62.3929C35.5806 61.5191 35.2188 60.7248 35.2188 59.8511C35.2188 57.9447 36.8671 56.3958 39.2793 56.3958ZM46.4756 64.6567C47.6013 64.6567 49.6516 62.7106 50.2145 58.9773C50.2547 58.7391 50.2547 58.6993 50.2949 58.461C50.0537 58.3816 49.6918 58.3022 49.3702 58.3022C48.526 58.3022 47.6415 58.5405 46.8776 59.6128C46.0736 60.7248 45.7118 62.1149 45.7118 63.2269C45.752 64.1404 45.9932 64.6567 46.4756 64.6567ZM42.7769 63.6241C42.7769 62.2737 43.2192 59.9702 44.9479 58.2625C46.4354 56.7533 48.2043 56.3958 49.8527 56.3958C50.9381 56.3958 52.3854 56.7533 53.3101 56.9121C53.0689 57.905 52.5463 61.678 52.2648 63.8624C52.1442 64.7758 52.104 66.0864 52.1442 66.563C51.3804 66.8807 49.9733 66.9602 49.5712 66.9602C49.3702 66.9602 49.33 66.0467 49.3702 65.1332C49.4104 64.8552 49.4506 64.4184 49.4506 64.2198C48.5662 65.6893 46.7972 66.9204 44.9479 66.9204C43.6614 66.9602 42.7769 65.8481 42.7769 63.6241ZM58.4963 59.3348C59.5416 57.6667 60.9085 56.3958 62.8382 56.3958C64.4865 56.3958 65.0092 57.905 64.6876 60.0099C64.5267 61.0028 64.2453 62.4326 64.0845 63.7432C63.9237 64.8552 63.8031 65.8481 63.8433 66.5233C63.2402 66.8013 61.5115 66.9204 61.1095 66.9204C60.9487 66.9204 60.9085 65.6893 61.1497 64.3787C61.3507 63.3063 61.7125 61.3206 61.9135 60.1688C62.0342 59.4936 61.994 58.6993 61.3507 58.6993C60.5064 58.6993 58.4963 60.0497 57.4912 65.5304C57.4108 65.9673 57.25 66.2453 56.9686 66.4041C56.6068 66.6027 55.8831 66.8013 54.3956 66.8013C54.677 65.4113 55.1192 62.5915 55.4409 60.4865C55.7223 58.5802 55.8429 57.349 55.8027 56.8724C56.2047 56.7533 58.2551 56.3164 58.4561 56.3164C58.6973 56.3164 58.7375 57.0313 58.5365 58.6993C58.4963 58.8582 58.4963 59.0965 58.4561 59.2554H58.4963V59.3348ZM70.1552 64.6169C71.1602 64.6169 73.2106 62.7503 73.7734 59.4539C73.8136 59.2554 73.8538 58.9376 73.894 58.7391C73.6126 58.461 73.2106 58.3022 72.5673 58.3022C70.2356 58.3022 69.2305 61.0425 69.2305 63.0283C69.2707 64.0609 69.6325 64.6169 70.1552 64.6169ZM68.6676 66.9602C67.1801 66.9602 66.2957 65.6495 66.2957 63.4652C66.2957 59.8114 68.6274 56.4356 72.5271 56.4356C73.2106 56.4356 73.8538 56.6341 74.2157 56.8327C74.4167 55.8001 74.8991 52.5832 74.9393 51.63C75.5826 51.5108 76.9495 51.3123 77.5927 51.3123C77.8339 51.3123 77.9143 51.5506 77.8339 52.1463C77.2711 55.5618 76.3062 62.0752 76.1052 63.5049C75.9846 64.7361 75.9444 65.9276 75.9846 66.6027C75.2609 66.9204 73.7734 66.9999 73.3714 66.9999C73.2106 66.9999 73.1302 65.9673 73.1704 65.0141C73.2106 64.7361 73.2508 64.2992 73.2508 64.2198C72.0045 66.0467 70.4366 66.9602 68.6676 66.9602ZM82.0954 59.6525C83.3015 56.9916 84.7488 56.3958 85.7137 56.3958C85.9951 56.3958 86.4776 56.5944 86.6786 56.793C86.759 57.5476 86.1559 59.0171 85.6333 59.6128C85.3519 59.4936 85.0303 59.3348 84.6282 59.3348C83.8644 59.3348 82.2965 60.5263 81.3316 65.6893C81.2512 66.1261 81.1306 66.285 80.8894 66.4041C80.4873 66.6424 78.9596 66.8013 78.236 66.841C78.5978 64.9744 79.1606 61.2014 79.4018 58.9773C79.4822 58.4213 79.4822 57.349 79.442 56.9519C79.8843 56.7533 81.613 56.3561 81.9748 56.3561C82.1758 56.3561 82.3367 57.5873 82.015 59.6128H82.0954V59.6525ZM90.1762 64.6567C91.3019 64.6567 93.3523 62.7106 93.9151 58.9773C93.9553 58.7391 93.9553 58.6993 93.9955 58.461C93.7543 58.3816 93.3925 58.3022 93.0708 58.3022C92.2266 58.3022 91.3421 58.5405 90.5783 59.6128C89.7742 60.7248 89.4124 62.1149 89.4124 63.2269C89.4526 64.1404 89.6938 64.6567 90.1762 64.6567ZM86.4776 63.6241C86.4776 62.2737 86.9198 59.9702 88.6485 58.2625C90.136 56.7533 91.905 56.3958 93.5533 56.3958C94.6388 56.3958 96.0861 56.7533 97.0107 56.9121C96.7695 57.905 96.2469 61.678 95.9655 63.8624C95.8449 64.7758 95.8047 66.0864 95.8449 66.563C95.081 66.8807 93.6739 66.9602 93.2719 66.9602C93.0708 66.9602 93.0306 66.0467 93.0708 65.1332C93.1111 64.8552 93.1513 64.4184 93.1513 64.2198C92.2668 65.6893 90.4979 66.9204 88.6485 66.9204C87.362 66.9602 86.4776 65.8481 86.4776 63.6241Z" fill="white"/>
<path d="M82.2569 17.9911C83.0207 26.6888 69.1507 34.9893 51.2604 36.4985C33.3701 38.0077 18.294 32.1695 17.5301 23.4718C16.7662 14.7741 30.6363 6.47358 48.5266 4.96439C66.3767 3.45521 81.493 9.25367 82.2569 17.9911Z" fill="#E3E3E3"/>
<path d="M49.0065 5.95742C42.172 5.83827 34.2118 8.53892 28.2617 11.041C27.6587 12.7885 27.2969 14.6551 27.2969 16.6012C27.2969 26.9272 36.7446 35.3072 48.4034 35.3072C60.0623 35.3072 69.5502 26.9669 69.5502 16.6012C69.5502 13.3445 68.5853 10.2467 66.937 7.58575C62.193 6.87087 55.64 6.07656 49.0065 5.95742Z" fill="white"/>
<path d="M48.4434 5.95712C44.6643 5.71883 38.1514 7.66489 32.724 9.61095C31.8797 11.5173 31.4375 13.6222 31.4375 15.8463C31.4375 24.9014 39.7595 32.2488 48.5238 32.2488C57.2478 32.2488 64.9668 24.9014 65.61 15.8463C65.811 12.9073 64.806 10.1272 63.3587 7.74432C57.7704 6.79115 51.8204 6.19542 48.4434 5.95712Z" fill="white"/>
<path d="M38.7545 14.695C39.2369 13.6624 39.9204 13.1858 40.6038 12.3518C40.5234 12.1532 40.3626 11.478 40.3626 11.2794C40.3626 10.2468 41.2069 9.45254 42.2119 9.45254C42.4531 9.45254 42.6944 9.49225 42.8954 9.57168C45.991 7.22847 50.0515 6.23558 54.1522 7.14904C54.514 7.22847 54.8759 7.34761 55.2377 7.42705C51.2174 6.87103 46.6343 8.30079 43.5386 10.7631C43.619 11.0014 43.9005 11.5972 43.9005 11.8752C43.9005 12.9078 43.217 13.1461 42.2119 13.1461C41.9707 13.1461 41.7697 13.1064 41.5285 13.0269C40.845 13.9404 39.9606 15.7276 39.5585 16.8396C41.2873 18.3488 42.815 18.9048 44.8251 19.6594C44.8251 19.58 44.9055 19.4608 44.9055 19.3814C44.9055 16.3233 47.6393 13.8212 50.735 13.8212C53.509 13.8212 55.8407 15.807 56.283 18.4282C57.6901 17.5545 59.0168 16.8793 60.0218 15.6084C59.7806 15.3304 59.5394 14.4964 59.5394 14.0992C59.5394 13.1858 60.3033 12.4312 61.2279 12.4312C61.3485 12.4312 61.4691 12.4312 61.63 12.4709C62.1526 11.3986 62.5546 10.2866 62.7958 9.13481C57.9313 5.56042 48.5238 6.07672 48.5238 6.07672C48.5238 6.07672 41.046 5.67956 35.9805 8.14192C36.3423 10.4454 37.3072 12.7489 38.7545 14.695Z" fill="#373535"/>
<path d="M61.9924 13.3049C62.3543 13.6226 62.5151 13.8609 62.6759 14.1389C63.1181 14.9332 62.2336 15.6878 61.2688 15.6878C61.1884 15.6878 61.0678 15.6878 60.9874 15.6481C59.9421 17.2764 58.0927 19.3416 56.4444 20.414C58.9772 20.8111 61.3492 21.804 63.1985 23.3529C64.5654 20.9303 65.6107 17.3956 65.6107 14.4169C65.6107 12.1531 64.6056 10.4851 63.0779 9.25391C63.0377 10.4851 62.3543 12.1929 61.9924 13.3049ZM41.5693 28.7145C42.4136 26.411 44.4639 24.6635 46.4339 23.1146C46.1525 22.7175 45.7102 21.7643 45.5494 21.3274C43.1774 20.6125 41.0869 19.2622 39.4386 17.5147C39.4386 17.5544 39.3984 17.6339 39.3984 17.6736C39.0767 19.0239 39.0365 20.414 39.1973 21.7246C40.323 21.9231 41.2075 22.916 41.2075 24.1075C41.2075 24.8224 40.5642 25.8153 40.0818 26.2918C40.5642 27.3244 40.9261 27.8805 41.5693 28.7145Z" fill="#373535"/>
<path d="M41.4078 30.6207C40.4028 29.6278 39.7193 27.6818 39.0761 26.4506C38.9555 26.4506 38.8348 26.4903 38.7142 26.4903C37.3473 26.4903 35.9402 25.3783 36.2619 24.0677C36.4227 23.3528 36.9453 22.8762 37.7494 22.4791C37.5484 20.9699 37.5081 18.8649 37.87 17.316C37.9504 16.8792 38.1916 16.6806 38.3122 16.2437C36.8247 14.0991 35.8598 11.2396 35.8598 8.41977V8.10205C33.327 9.37295 31.4375 11.319 31.4375 14.4168C31.4375 21.2876 35.4578 28.0392 41.4078 30.6604V30.6207ZM56.0819 21.1287C55.3181 23.2734 53.2275 24.862 50.7751 24.862C49.4484 24.862 48.2423 24.4251 47.3177 23.6705C45.3477 25.1797 43.5386 27.8406 42.6541 30.1839C43.0562 30.6207 43.3376 30.9782 43.82 31.3753C45.1869 31.7328 47.1167 31.3753 48.6042 31.3753C54.5944 31.3753 59.9414 28.7541 62.9968 24.1074C60.9063 22.6776 58.4941 21.3273 56.0819 21.1287Z" fill="#373535"/>
<path d="M38.5959 15.4892C39.0784 14.4566 39.6412 13.5431 40.3247 12.6694C40.2443 12.4708 40.2041 12.2325 40.2041 12.0339C40.2041 11.0013 41.0483 10.207 42.0534 10.207C42.2946 10.207 42.5358 10.2467 42.7368 10.3262C45.8325 7.98295 49.893 6.99006 53.9937 7.90352C54.3555 7.98295 54.7173 8.10209 55.0792 8.18152C51.0589 7.62551 46.8778 8.85669 43.7821 11.319C43.8625 11.5573 43.9429 11.7956 43.9429 12.0339C43.9429 13.0665 43.0987 13.8608 42.0936 13.8608C41.8524 13.8608 41.6514 13.8211 41.4102 13.7417C40.7267 14.6551 40.1237 15.6878 39.7216 16.7998C41.2091 18.3487 43.0183 19.6196 45.0284 20.3345V20.0565C45.0284 16.9984 47.5612 14.4963 50.6568 14.4963C53.4308 14.4963 55.7626 16.4821 56.2048 19.1033C57.6119 18.2295 58.818 17.1175 59.8633 15.8069C59.6221 15.5289 59.4613 15.1715 59.4613 14.7743C59.4613 13.8608 60.2251 13.1062 61.1498 13.1062C61.2704 13.1062 61.391 13.1062 61.5518 13.146C62.0745 12.0736 62.4765 10.9616 62.7177 9.80986C57.8532 6.23547 48.4457 6.75177 48.4457 6.75177C48.4457 6.75177 40.9679 6.35461 35.9023 8.81697C36.1838 11.2396 37.1486 13.5431 38.5959 15.4892Z" fill="#3C3C3C"/>
<path d="M62.2343 13.5828C62.5961 13.9005 62.7971 14.3374 62.7971 14.814C62.7971 15.7274 62.0333 16.482 61.1086 16.482C61.0282 16.482 60.9076 16.482 60.8272 16.4423C59.7819 18.0706 58.3748 19.4607 56.7265 20.4933C59.1387 20.8507 61.4302 21.8833 63.3198 23.4322C64.6867 21.0096 65.4907 18.1898 65.4907 15.2111C65.4907 12.9473 64.4857 11.2793 62.958 10.0481C62.8775 11.2793 62.6363 12.4707 62.2343 13.5828ZM41.8112 29.2307C42.6555 26.9272 44.1028 24.9017 46.0727 23.3528C45.7913 22.9556 45.5501 22.5585 45.3893 22.0819C43.0173 21.367 40.9267 20.0167 39.2784 18.2692C39.2784 18.3089 39.2382 18.3883 39.2382 18.4281C38.9166 19.7784 38.8764 21.1684 39.0372 22.479C40.1629 22.6776 41.0473 23.6705 41.0473 24.862C41.0473 25.5768 40.7257 26.2123 40.2433 26.6492C40.6453 27.5626 41.2081 28.4364 41.8112 29.2307Z" fill="#3C3C3C"/>
<path d="M41.4085 30.5809C40.4034 29.588 39.5592 28.476 38.9159 27.2448C38.7953 27.2448 38.6747 27.2845 38.5541 27.2845C37.1872 27.2845 36.1017 26.2122 36.1017 24.8619C36.1017 23.9087 36.6645 23.0747 37.4686 22.6775C37.2676 21.1683 37.348 19.6591 37.7098 18.1102C37.7902 17.6734 37.951 17.2365 38.0716 16.7996C36.5841 14.655 35.6997 12.0338 35.6997 9.21396V8.89624C33.1669 10.1671 31.2773 12.1132 31.2773 15.211C31.2773 22.0818 35.4183 27.9994 41.3683 30.6206C41.4085 30.6206 41.4085 30.6206 41.4085 30.5809ZM55.9218 21.9229C55.1579 24.0676 53.0674 25.6562 50.615 25.6562C49.2883 25.6562 48.0822 25.2193 47.1575 24.4647C45.1876 25.9739 43.7001 28.0391 42.7754 30.3823C43.1774 30.8192 43.6197 31.2163 44.0619 31.6135C45.4288 31.9709 46.8761 32.1695 48.3636 32.1695C54.3538 32.1695 59.6606 29.1114 62.7161 24.4647C60.7059 23.035 58.3339 22.1215 55.9218 21.9229Z" fill="#3B3B3B"/>
<path d="M56.1252 20.4933L61.3113 19.2621L56.0849 18.9841L60.3465 15.8069L55.5221 17.5146L58.7786 13.0268L54.2356 16.0054L55.8035 10.763L52.7079 15.092L52.6275 9.61125L50.5771 14.4963L48.8886 9.57153L48.969 15.37L46.0342 10.1673L47.6423 15.6877L42.8582 12.2722L46.5971 16.9189L40.647 14.7743L45.3106 18.1898L39.3203 18.3884L45.4714 19.9373L39.3203 21.2479L45.391 21.6848L40.2852 24.9017L45.5518 23.0351L41.8933 27.6024L46.5166 23.9088L44.8683 30.025L48.4464 25.0209L47.964 30.8987L49.9741 25.5372L51.7028 31.137L52.1049 25.4974L54.6778 30.303L53.1501 24.8223L57.8137 28.3967L54.7985 23.8294L59.9444 25.8152L56.0045 22.0025L61.2711 22.3996L56.1252 20.4933Z" fill="white"/>
<path d="M0.765625 30.3029C16.887 14.377 29.752 9.45231 41.451 7.22824C42.9787 6.95024 43.3004 3.57442 43.3004 3.57442C43.3004 3.57442 43.5014 6.03678 44.5869 6.3545C45.6723 6.67223 47.0794 2.5021 47.0794 2.5021C47.0794 2.5021 45.7929 6.23536 47.0794 6.47365C48.3659 6.67223 50.7781 2.81983 50.7781 2.81983C50.7781 2.81983 49.8132 6.11621 50.4565 6.3545C51.0997 6.55308 54.3562 1.54893 54.3562 1.54893C54.3562 1.54893 52.4264 4.84532 54.2356 5.20275C56.0849 5.52048 58.7785 2.93897 58.7785 2.93897C58.7785 2.93897 56.688 5.28219 57.6126 5.63963C61.6329 7.02967 64.8492 1.90637 64.8492 1.90637C64.8492 1.90637 64.0853 4.17015 62.1556 6.63251C66.3769 7.70483 69.5127 1.42978 69.5127 1.42978L66.3769 7.70483C67.985 8.49914 74.4577 1.11206 74.4577 1.11206C74.4577 1.11206 71.1208 6.87081 69.1509 8.06227C70.2364 8.93601 74.136 5.48076 74.136 5.48076C74.136 5.48076 71.0002 9.33317 72.2063 9.53174C73.935 10.9218 80.3273 2.38296 80.3273 2.38296C80.3273 2.38296 77.8347 7.42682 74.1762 11.3587C77.2317 12.9076 84.8702 3.17727 84.8702 3.17727C84.8702 3.17727 84.6692 6.27507 79.1212 11.1998C83.2219 10.6835 88.5287 2.97869 88.5287 2.97869C88.5287 2.97869 86.599 8.73743 81.9354 12.8281C85.9557 12.431 92.4284 2.58153 92.4284 2.58153C92.4284 2.58153 89.9358 9.4126 84.8702 13.3841C90.4986 14.6153 98.6197 6.31479 98.6197 6.31479C98.6197 6.31479 95.4436 12.1927 91.2625 14.6153C95.926 16.3628 102.318 9.09487 102.318 9.09487C102.318 9.09487 95.926 18.8252 85.7547 18.3883C82.4179 18.2294 72.3269 8.37999 50.6977 9.1743C22.0732 10.2069 16.0428 22.201 0.765625 30.3029Z" fill="black" fill-opacity="0.35"/>
<path d="M1.40625 29.1114C17.5276 13.1855 30.3926 8.26082 42.0916 6.03675C43.6194 5.75874 43.941 2.38293 43.941 2.38293C43.941 2.38293 44.142 4.84529 45.2275 5.16301C46.313 5.48074 47.7201 1.31061 47.7201 1.31061C47.7201 1.31061 46.4336 5.04387 47.7201 5.28216C49.0066 5.48074 51.4187 1.62833 51.4187 1.62833C51.4187 1.62833 50.4539 4.92472 51.0971 5.16301C51.7404 5.36159 54.9968 0.357439 54.9968 0.357439C54.9968 0.357439 53.0671 3.65382 54.8762 4.01126C56.7255 4.32899 59.4191 1.74748 59.4191 1.74748C59.4191 1.74748 57.3286 4.09069 58.2532 4.44813C62.2735 5.83818 65.4898 0.714879 65.4898 0.714879C65.4898 0.714879 64.7259 2.97866 62.7962 5.44102C67.0175 6.51334 70.1533 0.238293 70.1533 0.238293L67.0175 6.51334C68.6256 7.38708 75.1385 0 75.1385 0C75.1385 0 71.8016 5.75874 69.8317 6.95021C70.9172 7.7048 74.8169 4.28927 74.8169 4.28927C74.8169 4.28927 71.681 8.14167 72.8871 8.34025C74.6158 9.73029 81.0081 1.19146 81.0081 1.19146C81.0081 1.19146 78.4753 6.23533 74.8169 10.1672C77.8723 11.6763 85.5511 1.94606 85.5511 1.94606C85.5511 1.94606 85.35 5.04387 79.802 9.96858C83.9027 9.45228 89.2095 1.74748 89.2095 1.74748C89.2095 1.74748 87.2798 7.50622 82.6162 11.5969C86.6365 11.1998 93.1092 1.35033 93.1092 1.35033C93.1092 1.35033 90.6166 8.18139 85.5511 12.1529C91.1795 13.3841 99.3005 5.08358 99.3005 5.08358C99.3005 5.08358 96.1244 10.9615 91.9433 13.3841C96.6069 15.1316 102.999 7.86366 102.999 7.86366C102.999 7.86366 96.6069 17.594 86.4355 17.1571C83.0987 16.9982 73.0077 7.14879 51.3785 7.9431C22.754 9.01541 16.6834 20.9698 1.40625 29.1114Z" fill="white"/>
<path d="M0.363281 32.0506C8.88631 36.2604 16.6857 31.4151 26.4952 34.1555C33.973 36.2207 43.0588 38.8022 55.4011 37.015C67.7435 35.2675 78.2766 29.9457 83.3422 20.4934C84.9101 16.2835 91.3024 21.4465 91.3024 21.4465C91.3024 21.4465 86.6388 19.5402 86.7595 20.4139C86.8801 21.3274 93.7548 24.4649 93.7548 24.4649C93.7548 24.4649 87.5233 22.5586 87.9253 23.9883C88.2872 25.4181 95.7247 31.2166 95.7247 31.2166C95.7247 31.2166 87.2419 24.9415 86.5584 25.8152C85.8348 26.689 90.1365 30.1442 90.1365 30.1442C90.1365 30.1442 83.0608 25.8152 80.5682 27.0861C78.7591 27.9996 87.9253 33.9172 87.9253 33.9172C87.9253 33.9172 81.9753 29.4294 80.5682 30.6208C79.1611 31.8123 87.2821 41.4234 87.2821 41.4234C87.2821 41.4234 78.0354 31.574 77.1107 32.0506C76.1861 32.5272 79.6435 37.2533 79.6435 37.2533C79.6435 37.2533 75.1408 32.3286 73.8945 33.1626C72.6482 34.0364 80.4074 46.785 80.4074 46.785C80.4074 46.785 72.005 33.7186 68.5073 35.903C73.9347 47.6985 71.9246 49.3665 71.9246 49.3665C71.9246 49.3665 71.2411 37.3327 64.4468 37.6505C61.0296 37.8093 66.0549 46.6262 66.0549 46.6262C66.0549 46.6262 61.4316 38.5639 58.336 38.7228C64.0046 49.3665 61.9944 53.6558 61.9944 53.6558C61.9944 53.6558 62.9191 44.561 55.2403 39.5171C58.1752 42.0986 53.391 53.6558 53.391 53.6558C53.391 53.6558 57.5721 36.6179 50.2954 39.8745C49.1295 40.3908 50.215 48.3736 50.215 48.3736C50.215 48.3736 48.7677 39.2391 46.5565 39.7157C45.27 39.9937 38.4355 52.3849 38.4355 52.3849C38.4355 52.3849 44.0237 39.0008 42.3352 39.5568C41.0889 39.954 38.7571 45.4744 38.7571 45.4744C38.7571 45.4744 39.8828 40.0334 38.7571 39.7157C37.6314 39.3979 31.2794 45.4744 31.2794 45.4744C31.2794 45.4744 35.9831 40.0334 35.1791 38.8816C33.9328 37.1739 32.5257 37.0944 30.7969 37.7696C28.3043 38.7228 24.9675 43.2106 24.9675 43.2106C24.9675 43.2106 28.3043 38.6434 27.7415 36.9753C26.8168 34.2349 17.2083 42.2575 17.2083 42.2575C17.2083 42.2575 22.8769 36.9753 21.5904 35.8235C20.304 34.7115 13.2282 35.0292 11.0573 35.0292C4.58459 35.1087 2.33323 33.5995 0.363281 32.0506Z" fill="black" fill-opacity="0.35"/>
<path d="M0 31.0972C8.52303 35.307 16.3224 30.4618 26.1319 33.2021C33.6097 35.2673 42.6956 37.8488 55.0379 36.0616C67.3802 34.3142 77.9134 28.9923 82.9789 19.54C84.5468 15.3302 90.9391 20.4932 90.9391 20.4932C90.9391 20.4932 86.2756 18.5868 86.3962 19.4606C86.5168 20.374 93.3915 23.5116 93.3915 23.5116C93.3915 23.5116 87.16 21.6052 87.5621 23.035C87.9239 24.4647 95.3614 30.2632 95.3614 30.2632C95.3614 30.2632 86.959 23.9484 86.2756 24.8222C85.5921 25.6959 89.8536 29.1511 89.8536 29.1511C89.8536 29.1511 82.7779 24.8222 80.2853 26.0931C78.4762 27.0065 87.6425 32.9241 87.6425 32.9241C87.6425 32.9241 81.6924 28.4363 80.2853 29.6277C78.8782 30.8192 86.9992 40.4303 86.9992 40.4303C86.9992 40.4303 77.7927 30.5809 76.8681 31.0575C75.9434 31.5341 79.4009 36.2602 79.4009 36.2602C79.4009 36.2602 74.8177 31.3752 73.5714 32.2092C72.3251 33.083 80.0441 45.8316 80.0441 45.8316C80.0441 45.8316 71.6417 32.7255 68.1842 34.9099C73.6518 46.7451 71.6015 48.4132 71.6015 48.4132C71.6015 48.4132 70.918 36.3794 64.1237 36.6971C60.7065 36.8559 65.7318 45.6728 65.7318 45.6728C65.7318 45.6728 61.1487 37.6503 58.0531 37.8091C63.7217 48.4529 61.7116 52.7421 61.7116 52.7421C61.7116 52.7421 62.6362 43.6473 54.9575 38.6034C57.8923 41.1849 53.1081 52.7421 53.1081 52.7421C53.1081 52.7421 57.2892 35.7042 50.0125 38.9609C48.8466 39.4772 49.9321 47.46 49.9321 47.46C49.9321 47.46 48.4848 38.3254 46.2736 38.802C44.9871 39.08 38.1526 51.4712 38.1526 51.4712C38.1526 51.4712 43.7408 38.0871 42.0523 38.6431C40.806 39.0403 38.4742 44.5608 38.4742 44.5608C38.4742 44.5608 39.5999 39.1197 38.4742 38.802C37.3486 38.4843 30.9965 44.5608 30.9965 44.5608C30.9965 44.5608 35.7002 39.1197 34.8962 37.968C33.6499 36.2602 32.2428 36.1808 30.5141 36.856C28.0215 37.8091 24.6846 42.297 24.6846 42.297C24.6846 42.297 28.0215 37.7297 27.4586 36.0616C26.534 33.3213 16.9254 41.3438 16.9254 41.3438C16.9254 41.3438 22.5941 36.0616 21.3076 34.9099C20.0211 33.7979 12.9454 34.1156 10.7744 34.1156C4.22131 34.1553 1.96995 32.6461 0 31.0972Z" fill="white"/>
</svg>
