<svg width="187" height="51" viewBox="0 0 187 51" fill="none" xmlns="http://www.w3.org/2000/svg">
<path d="M28.8579 24.3313L18.8392 27.6022L10.1231 31.4485L7.68465 32.0921C7.06362 32.6827 6.41246 33.2809 5.70819 33.8866C4.93578 34.5529 4.21639 35.1587 3.66349 35.5977C3.05015 36.0823 2.14141 36.9909 1.67952 37.5662C0.990364 38.4293 0.445152 39.3455 0.210382 40.0497C-0.206149 41.3218 -0.00158701 42.6088 0.801095 43.7977C1.83097 45.3119 3.88321 46.8564 6.2761 47.9088C7.49538 48.4465 9.54755 49.1355 11.0923 49.5215C13.6594 50.1727 18.6271 50.8769 21.3608 50.983C21.9135 51.0057 22.6557 51.0057 22.686 50.983C22.7466 50.945 23.1707 50.1349 23.663 49.128C25.3441 45.698 26.5557 42.4802 27.2145 39.7318C27.6083 38.0661 27.9187 35.8476 28.1231 33.2205C28.1762 32.486 28.1988 30.0253 28.1534 29.1923C28.0852 27.8295 27.964 26.7241 27.7749 25.6414C27.7446 25.4824 27.7369 25.3385 27.7521 25.3309C27.7823 25.3082 27.8732 25.278 29.1075 24.922L28.8578 24.3315V24.3314H28.8579V24.3313ZM26.571 25.6715C26.6618 25.6715 26.9041 27.9959 26.9646 29.4649C26.9798 29.7753 26.9722 29.9797 26.9571 29.9797C26.8966 29.9797 25.6773 29.2605 24.8066 28.7154C24.0492 28.2383 22.6105 27.2843 22.3833 27.1026C22.3075 27.0496 22.315 27.0421 22.9361 26.83C23.9886 26.4741 26.4877 25.6715 26.571 25.6715ZM21.4669 27.3524C21.5351 27.3524 21.7092 27.4508 22.1257 27.7083C23.6857 28.685 25.8061 29.8662 26.7148 30.2599C26.9949 30.381 27.0251 30.3356 26.3816 30.7748C25.0033 31.7136 23.2842 32.6373 21.179 33.5686C20.808 33.7352 20.4976 33.8638 20.49 33.8638C20.475 33.8638 20.5203 33.6747 20.5808 33.4475C21.0882 31.562 21.376 29.6541 21.3912 28.1246C21.3988 27.3674 21.3987 27.3675 21.4669 27.3449C21.4517 27.3524 21.4593 27.3524 21.4669 27.3524ZM20.4144 27.7537C20.4597 27.799 20.4295 29.4951 20.3688 29.9569C20.2325 31.0624 20.0205 32.0921 19.6723 33.2506C19.589 33.5306 19.5131 33.7654 19.4981 33.7805C19.4677 33.8183 18.4302 32.8038 18.0895 32.4101C17.4988 31.7286 17.0369 31.0472 16.6962 30.3809C16.522 30.0402 16.2494 29.374 16.2721 29.3512C16.3932 29.268 20.3841 27.7234 20.4144 27.7537ZM15.4618 29.6995C15.4693 29.6995 15.4768 29.6995 15.4845 29.7071C15.4996 29.7222 15.5527 29.8434 15.5982 29.9796C15.8404 30.6384 16.3855 31.6075 16.8552 32.2284C17.3701 32.9098 18.0442 33.6366 18.6044 34.1136C18.7862 34.2651 18.9527 34.4089 18.9754 34.4316C19.0209 34.4771 19.036 34.4695 17.8016 34.939C16.3706 35.4841 14.8105 36.0292 13.0233 36.6046C12.5964 36.7422 12.1698 36.881 11.7437 37.0211C11.6754 37.0438 11.6982 37.0059 11.8951 36.6956C12.781 35.3099 14.1289 32.5918 14.8863 30.6686C15.015 30.3355 15.1437 30.0024 15.1665 29.9267C15.1968 29.8206 15.2346 29.7828 15.333 29.7297C15.386 29.7147 15.4391 29.6995 15.4618 29.6995ZM13.9474 30.3279C13.97 30.3432 13.5838 31.1532 13.2052 31.8952C12.4706 33.3262 11.6679 34.7346 10.5926 36.4457C10.4109 36.7409 10.2367 37.0136 10.214 37.0439C10.1762 37.0969 10.1609 37.0817 10.0398 36.847C9.78232 36.3397 9.57022 35.6885 9.45665 35.0903C9.34302 34.4997 9.36579 33.4701 9.49458 32.8341C9.59291 32.3647 9.58544 32.3723 9.8126 32.2587C10.7819 31.7666 13.917 30.2977 13.9474 30.3279ZM27.0102 30.858V31.176C27.0102 32.8644 26.8284 35.1813 26.5633 36.8698C26.5178 37.165 26.4799 37.4072 26.4724 37.4149C26.4724 37.4149 26.2528 37.3544 25.9954 37.2786C24.8595 36.9227 23.6251 36.4002 22.5119 35.7871C21.7773 35.3858 20.7096 34.727 20.7399 34.6966C20.7474 34.6891 21.0655 34.5226 21.4365 34.3257C22.9209 33.5534 24.3445 32.7206 25.5788 31.8953C26.0408 31.5848 26.7374 31.0852 26.889 30.9489L27.0102 30.858ZM8.22986 33.099C8.26014 33.099 8.25256 33.1596 8.20713 33.4322C8.17682 33.6291 8.139 33.9925 8.12395 34.2423C8.06322 35.3477 8.24509 36.1655 8.7903 37.286C8.94175 37.5965 9.06299 37.8539 9.05531 37.8614C9.00227 37.9069 3.98926 39.3758 2.41404 39.8074C1.94457 39.936 1.53572 40.0496 1.50527 40.0571C1.45236 40.0723 1.44475 40.0648 1.46745 39.936C1.6416 38.823 2.48978 37.3693 3.67107 36.1427C4.45866 35.325 5.08723 34.848 6.16254 34.2347C6.93494 33.7956 8.12385 33.137 8.21471 33.1066C8.21478 33.099 8.22232 33.099 8.22986 33.099ZM20.0433 35.2115C20.0508 35.2039 20.2325 35.3024 20.4521 35.4311C22.0727 36.37 24.3293 37.2407 26.2527 37.6874L26.427 37.7253L26.1846 37.8614C25.1775 38.4218 21.8682 39.7997 18.4833 41.0642C17.991 41.2458 17.5064 41.4276 17.4154 41.4655C17.3245 41.5033 17.2412 41.526 17.2412 41.5185C17.2412 41.5108 17.3776 41.2458 17.5517 40.9203C18.4983 39.1486 19.4525 36.9908 19.9371 35.4916C19.9978 35.3478 20.0356 35.2191 20.0433 35.2115ZM18.8392 35.6052C18.8469 35.6129 18.7862 35.7718 18.7105 35.9535C18.0517 37.5511 17.1883 39.2926 16.0827 41.246C15.8026 41.7458 15.5678 42.1471 15.5601 42.1471C15.5527 42.1471 15.3254 42.0107 15.0528 41.8441C13.4473 40.8598 12.0237 39.6484 11.0924 38.4748L10.956 38.3083L11.645 38.119C14.1138 37.4452 16.2113 36.7183 18.2939 35.8249C18.5893 35.7037 18.8317 35.6052 18.8392 35.6052ZM26.321 38.2174C26.321 38.2174 26.3286 38.225 26.321 38.2174C26.3286 38.3915 25.9424 39.9513 25.6243 41.0793C25.3593 42.0257 25.132 42.7678 24.7156 44.0776C24.5338 44.6531 24.3749 45.13 24.3672 45.13C24.3597 45.13 24.3143 45.1225 24.2688 45.1074C22.0198 44.6984 20.0054 44.1306 18.1122 43.3735C17.5821 43.1614 16.8249 42.8207 16.7794 42.7829C16.7644 42.7676 17.2187 42.5557 17.7942 42.3059C21.2398 40.7992 24.8141 39.088 26.0408 38.3537C26.1846 38.2628 26.2983 38.2174 26.321 38.2174ZM9.04777 38.808C9.06292 38.8231 8.10118 40.2087 6.75318 42.094C6.28371 42.7527 5.7385 43.5249 5.53407 43.8126C5.32958 44.1004 5.01914 44.5547 4.84495 44.8273L4.52676 45.3194L4.18597 45.0317C3.78459 44.6985 3.088 43.9868 2.77752 43.5931C2.12622 42.783 1.6871 41.9275 1.51291 41.1477C1.42959 40.7842 1.42959 40.6024 1.50523 40.5798C1.61879 40.5495 3.64072 40.0725 5.534 39.6332C6.58661 39.391 7.80572 39.1033 8.24495 38.9973C8.68421 38.8912 9.04023 38.808 9.04777 38.808ZM10.017 39.179L10.2593 39.4515C11.3499 40.6706 12.463 41.5717 13.811 42.359C14.0533 42.4953 14.235 42.6164 14.2198 42.6241C14.1669 42.6619 9.5399 44.3048 7.39687 45.0468C6.19288 45.4708 5.20079 45.8115 5.19332 45.8115C5.18578 45.8115 5.11758 45.7661 5.04173 45.7131L4.90551 45.6146L5.12509 45.2967C5.83687 44.2669 6.73059 43.1389 8.67674 40.7917L10.017 39.179ZM16.0601 43.5022C16.0675 43.4947 16.4008 43.6158 16.8096 43.7674C17.7942 44.1383 18.5741 44.373 19.6192 44.638C20.9066 44.9636 22.7694 45.2816 23.8675 45.3724C24.0341 45.3875 24.125 45.4027 24.0947 45.4255C24.0416 45.4558 22.9285 45.8268 22.1106 46.0842C20.808 46.493 16.8324 47.6665 13.5914 48.5979C12.9931 48.772 12.4781 48.9159 12.4479 48.9234C12.3722 48.9386 12.1222 48.8704 12.1222 48.8401C12.1222 48.825 12.304 48.5903 12.5236 48.3329C13.614 47.0306 14.697 45.5769 15.5982 44.1989C15.848 43.8202 16.0601 43.5098 16.0601 43.5022ZM14.7272 43.5402C14.7347 43.5477 14.1971 44.4108 13.2582 45.8948C12.8568 46.5232 12.41 47.2349 12.2509 47.4848C12.0995 47.7271 11.8723 48.1057 11.7436 48.3177L11.524 48.7038L11.4104 48.6735C11.1377 48.5978 9.22188 47.9239 8.71449 47.7195C8.08592 47.4696 7.43469 47.1668 6.94999 46.9094C6.34426 46.5838 5.58705 46.0992 5.64757 46.0841C5.66269 46.0766 6.70017 45.7963 7.94959 45.4557C11.2665 44.5546 13.1066 44.0322 14.3107 43.6537C14.5304 43.5855 14.7197 43.5325 14.7272 43.5402ZM24.1552 45.7509H24.1627C24.193 45.8267 22.9664 49.2338 22.5194 50.3089C22.4211 50.5512 22.3833 50.6119 22.3302 50.6042C22.2015 50.5967 20.422 50.3468 19.3389 50.1878C17.4534 49.9001 14.288 49.3473 13.4929 49.1657L13.3112 49.1278L14.4394 48.8702C16.8627 48.3251 18.0289 48.0299 19.2102 47.6665C20.7021 47.2122 22.1788 46.6443 23.6705 45.9478C23.9053 45.8417 24.1022 45.7585 24.1552 45.7509Z" fill="white"/>
<path d="M18.5287 0.980857C18.3621 0.958267 15.6737 1.9274 13.9396 2.63145C11.5996 3.58557 9.78229 4.49419 8.66148 5.28145C8.24505 5.57686 7.72243 6.09922 7.63925 6.30361C7.60897 6.37934 7.59375 6.47019 7.59375 6.56104L8.60854 7.52262L11.0242 8.2949L16.7719 9.32464L23.3449 10.4528L23.4131 9.88495C23.3904 9.88495 23.3752 9.87741 23.3527 9.87741L22.4891 9.74107L22.3151 9.43068C21.4215 7.85578 20.437 5.90233 19.8616 4.5849C19.4148 3.56273 18.9907 2.38171 18.7559 1.53366C18.6272 1.01881 18.6121 0.988538 18.5289 0.980996V0.980821H18.5287V0.980857ZM18.4074 1.36712H18.4152C18.4226 1.37459 18.4529 1.58673 18.4833 1.83644C18.6119 2.89659 18.8468 3.91858 19.2178 5.02405C19.498 5.85695 19.498 5.81156 19.1724 5.71306C18.4 5.50113 14.9393 4.90297 12.4328 4.55469C12.0314 4.50166 11.6906 4.44869 11.6906 4.44115C11.6603 4.41088 13.5004 3.44922 14.3107 3.07075C15.3482 2.59364 18.1955 1.40493 18.4074 1.36712ZM11.1074 4.75909L11.4028 4.85741C13.0081 5.40263 17.0443 6.17495 19.2708 6.35665C19.5206 6.37937 19.7327 6.40214 19.7402 6.40214C19.7477 6.40968 19.5358 6.52326 19.2631 6.65192C18.1879 7.1895 17.0065 7.84824 16.1887 8.35555C15.9464 8.5069 15.7267 8.62813 15.6965 8.62813C15.6662 8.62813 15.5072 8.59782 15.3406 8.57509L15.0377 8.5296L14.2805 7.78756C12.9477 6.49292 11.9027 5.49352 11.5013 5.11487L11.1074 4.75909ZM10.8046 4.99375L11.8723 6.32637C12.4553 7.06081 13.046 7.78005 13.1749 7.93898C13.3035 8.09809 13.4096 8.22685 13.402 8.2344C13.3717 8.25709 11.8573 7.96175 11.0545 7.78012C10.2291 7.59078 9.88831 7.49993 9.38095 7.341L8.96441 7.20465V7.09858C8.97196 6.59127 9.61571 5.83418 10.7061 5.06197L10.8046 4.99375ZM19.8766 6.81092C19.907 6.81092 19.9447 6.87904 20.0356 7.08347C20.293 7.65128 21.0959 9.18079 21.2926 9.47603C21.3534 9.57456 21.4592 9.5821 20.3916 9.40795C17.8245 8.99142 16.999 8.85528 16.999 8.84013C16.999 8.83259 17.0747 8.77955 17.1732 8.72652C17.9683 8.28747 18.771 7.72712 19.4829 7.12896C19.6571 6.98508 19.8161 6.8488 19.8463 6.82604C19.8538 6.81092 19.8691 6.80338 19.8766 6.81092Z" fill="white"/>
<path d="M7.69199 6.198C7.69199 6.198 7.52549 6.46311 7.68448 6.85684C7.78303 7.09904 8.07073 7.39428 8.3963 7.6972C8.3963 7.6972 11.7661 10.9832 12.1751 11.4527C14.0379 13.6029 14.8482 15.7229 14.9239 18.6455C14.9694 20.5232 14.6134 22.1738 13.7274 24.0894C12.1523 27.5269 8.82785 31.3202 3.70117 35.5299L4.45098 35.28C4.93561 34.9165 5.59445 34.5305 7.13923 33.6825C10.7059 31.7289 14.7195 29.9345 19.6417 28.0871C26.7296 25.4219 38.3841 22.3024 45.0176 21.2879L45.7068 21.1819L45.6007 21.0153C44.995 20.0764 44.5784 19.4935 44.0786 18.8726C42.6247 17.0706 40.8604 15.6094 38.7021 14.3979C35.7336 12.7398 31.8941 11.4451 27.0326 10.4835C26.1163 10.3017 24.102 9.9535 22.4663 9.70365C18.9979 9.16621 16.7564 8.79513 14.2878 8.37113C13.4019 8.21963 12.0765 7.99255 11.1981 7.80331C10.7438 7.70478 9.87298 7.50039 9.19144 7.26569C8.64622 7.05358 7.85859 6.84158 7.69199 6.198ZM9.64586 8.09094C9.65333 8.08346 9.77447 8.12875 9.9336 8.18178C10.2213 8.2801 10.5924 8.39372 11.0317 8.51494C11.3641 8.60634 11.6973 8.69467 12.0313 8.77991C12.4856 8.89342 12.8642 8.99945 12.8717 8.99945C12.9249 9.05249 13.6897 11.4979 13.9472 12.4368C14.0455 12.7927 14.1214 13.0955 14.1138 13.0955C14.106 13.1032 14.0228 12.9744 13.9244 12.8003C13.0384 11.2405 11.6374 9.65812 10.0169 8.38607C9.80492 8.23479 9.64586 8.09848 9.64586 8.09094ZM13.3716 9.12064C13.4095 9.12064 13.5761 9.14337 13.7804 9.18876C15.0678 9.47646 17.3775 9.91562 18.8541 10.1655C19.1041 10.2033 19.301 10.2488 19.301 10.2639C19.301 10.2791 19.2101 10.332 19.0964 10.3927C18.8466 10.5213 17.8394 11.1194 17.5063 11.3466C16.6656 11.9069 15.9085 12.5126 15.3632 13.0577C15.1436 13.2773 14.9542 13.459 14.9542 13.459C14.9542 13.459 14.9089 13.3303 14.8709 13.1712C14.5984 12.1188 14.0304 10.5591 13.5154 9.46127C13.4321 9.28718 13.3639 9.12815 13.3639 9.11307C13.3639 9.12818 13.3639 9.12064 13.3716 9.12064ZM19.9295 10.3699C19.9749 10.385 20.0507 10.6425 20.2021 11.2103C20.4823 12.3082 20.6111 13.5348 20.5656 14.6781C20.5504 14.9961 20.5353 15.2913 20.5201 15.3293L20.4974 15.4049L20.1037 15.2762C19.2934 15.0188 17.9758 14.6326 16.8475 14.3146C16.2037 14.1405 15.6813 13.9815 15.6813 13.9664C15.6813 13.9209 16.6204 12.982 17.0217 12.6262C17.7864 11.9523 19.8613 10.3472 19.9295 10.3699ZM20.452 10.4456C20.4748 10.423 23.5871 10.9604 25.0032 11.233C26.0559 11.4374 27.5855 11.7554 27.6763 11.7934C27.7218 11.8084 27.5627 11.8993 27.0553 12.1264C25.0562 13.0275 23.5719 13.8375 22.0954 14.8219C21.7091 15.0793 21.3835 15.2913 21.3759 15.2913C21.3684 15.2913 21.3608 15.0718 21.3608 14.8068C21.3608 13.3682 21.073 11.9145 20.5428 10.6879C20.4898 10.5668 20.4444 10.4532 20.452 10.4456ZM28.5017 12.0356C28.5245 12.0583 28.426 12.6717 28.3351 13.035C28.0625 14.1632 27.328 15.8366 26.427 17.4114C26.2678 17.6915 26.124 17.9187 26.1087 17.9262C26.0937 17.9338 25.8892 17.8201 25.6544 17.6839C24.776 17.169 23.7765 16.6845 22.6859 16.2301C22.3831 16.1015 22.118 15.9954 22.1104 15.9804C22.0573 15.9349 24.4958 14.3222 25.7832 13.5499C26.8055 12.9291 28.4714 12.0053 28.5017 12.0356ZM29.0772 12.1265C29.1454 12.1265 30.5237 12.5051 31.2429 12.7171C33.0226 13.2471 35.0672 13.9966 36.4 14.6023L36.9527 14.8523L36.5666 14.9431C33.3104 15.6926 30.5237 16.5558 27.8353 17.6461C27.6157 17.7369 27.4188 17.8127 27.4038 17.8127C27.3886 17.8127 27.4643 17.6385 27.5627 17.4265C28.373 15.7078 28.8956 13.9134 29.0242 12.3838C29.0319 12.24 29.0544 12.1265 29.0772 12.1265ZM15.3556 15.2762C15.3783 15.2535 16.4309 15.5034 16.9989 15.6622C17.8622 15.9046 19.6947 16.5178 19.6947 16.5633C19.6947 16.5709 19.4903 16.745 19.248 16.9571C18.256 17.7824 17.3018 18.653 16.1582 19.7584C15.8175 20.0841 15.5298 20.3491 15.5147 20.3491C15.4995 20.3491 15.492 20.3036 15.4995 20.243C15.6736 18.971 15.6359 17.3356 15.3935 15.6775C15.3707 15.4654 15.3481 15.2838 15.3556 15.2762ZM37.4754 15.299C37.4904 15.314 36.9907 16.1015 36.6727 16.5481C36.2184 17.1993 35.5518 18.0626 34.0448 19.9554C33.2499 20.9547 32.3561 22.083 32.0609 22.4615C31.7579 22.84 31.5081 23.158 31.5004 23.158C31.4929 23.158 31.3946 23.0218 31.2885 22.8552C30.4403 21.5832 29.4255 20.4702 28.2215 19.4708C27.9943 19.2814 27.7445 19.077 27.6612 19.0164C27.5779 18.9559 27.5097 18.8953 27.5097 18.8878C27.5097 18.8651 28.7969 18.3123 29.7739 17.9186C31.4854 17.222 33.8175 16.3892 35.567 15.8516C36.4833 15.5639 37.4602 15.2838 37.4754 15.299ZM38.0584 15.4503C38.0887 15.4428 38.2705 15.5336 38.4901 15.6622C40.3303 16.7147 42.1325 18.07 43.5563 19.4632C43.9576 19.857 44.9496 20.8867 44.9343 20.8942C44.9343 20.8942 44.586 20.9245 44.1772 20.9547C40.9891 21.1971 36.9075 21.8708 32.9848 22.8172C32.7198 22.8778 32.4851 22.9308 32.4698 22.9308C32.4549 22.9308 32.7501 22.6355 33.1212 22.2797C35.4232 20.0613 36.4759 18.6606 37.7177 16.162C37.8918 15.7911 38.0434 15.4731 38.0584 15.4503C38.0509 15.4503 38.0509 15.4503 38.0584 15.4503ZM21.1941 17.1767C21.3002 17.1993 22.2846 17.6613 23.0267 18.0322C23.7083 18.3728 24.7306 18.9181 24.7836 18.9634C24.7911 18.971 24.4276 19.1603 23.981 19.3799C22.5572 20.0916 21.3381 20.7654 20.0658 21.5377C19.7023 21.7573 19.3994 21.9391 19.3919 21.9391C19.3616 21.9391 19.3691 21.9087 19.5736 21.5377C20.2552 20.2961 20.8003 18.8121 21.1109 17.3659C21.1411 17.2523 21.1714 17.1767 21.1941 17.1767ZM20.2096 17.3583C20.2324 17.3811 19.9749 18.3123 19.816 18.8196C19.5054 19.7812 18.9829 20.985 18.4756 21.8936C18.3543 22.1055 18.1726 22.416 18.0742 22.5901L17.8849 22.8929L17.4608 22.4842C16.9686 22.0072 16.5672 21.7119 16.0524 21.4468C15.8478 21.3409 15.6888 21.25 15.6888 21.2349C15.6888 21.1743 16.9837 20.0008 17.9758 19.1528C18.6875 18.5395 20.1869 17.3356 20.2096 17.3583ZM26.23 19.8342L26.6011 20.0764C27.4491 20.6292 28.4486 21.3636 29.2136 22.0072C29.6452 22.3629 30.4781 23.1126 30.6449 23.2943L30.7356 23.3928L30.1223 23.5669C26.654 24.5284 23.9733 25.384 20.8458 26.5349C20.4974 26.6636 20.2021 26.7696 20.1793 26.7696C20.134 26.7696 20.096 26.8074 20.8761 26.0881C22.8753 24.2484 24.6472 22.2191 25.9649 20.243L26.23 19.8342ZM24.6473 20.2279C24.6624 20.243 23.625 21.7043 23.0039 22.5296C22.2619 23.5139 20.9442 25.1644 20.0355 26.2395C19.6569 26.6863 19.3314 27.0573 19.3161 27.0649C19.2934 27.0724 19.2858 26.9589 19.2858 26.7847C19.2858 25.8685 19.0511 24.8918 18.6421 24.059C18.468 23.7107 18.4376 23.6274 18.4756 23.5896C18.6195 23.4608 20.8231 22.204 22.2164 21.4545C23.1554 20.9548 24.6244 20.2128 24.6473 20.2279ZM15.0754 22.5751C15.0981 22.5751 15.2723 22.6659 15.4692 22.7719C15.9539 23.0369 16.3855 23.3322 16.7717 23.6502C16.7868 23.6653 16.59 23.8244 16.3325 24.0136C15.6131 24.5284 14.5226 25.3538 13.8866 25.8611C13.2201 26.3911 13.1975 26.4062 13.2732 26.2927C13.773 25.5279 14.0228 25.0963 14.2879 24.5437C14.5226 24.0516 14.7573 23.4685 14.9239 22.9612C14.9845 22.7417 15.0603 22.5751 15.0754 22.5751ZM17.6275 24.5739C17.6652 24.5664 17.7108 24.6345 17.9151 24.9374C18.3468 25.5808 18.68 26.4441 18.7634 27.1406L18.7784 27.2921L17.7411 27.6934C15.8857 28.4126 14.1743 29.1244 13.0156 29.6543C12.69 29.8058 12.1221 30.0783 11.7511 30.2602C11.38 30.4493 11.0771 30.5932 11.0771 30.5857C11.0771 30.5781 11.3118 30.404 11.5995 30.1919C13.8639 28.549 15.8251 26.7469 17.2942 24.9449C17.4533 24.7556 17.5972 24.5815 17.6122 24.5739L17.6275 24.5739ZM16.4537 24.8616C16.484 24.8919 15.6208 25.8686 15.0301 26.4667C13.5685 27.9584 12.1221 29.1244 10.3274 30.2602C10.1002 30.404 9.89578 30.5326 9.87302 30.5479C9.81997 30.5781 9.8881 30.5024 10.6757 29.6468C11.1755 29.1092 11.5541 28.6549 11.9858 28.0947C12.2735 27.7238 12.3266 27.6707 12.7431 27.3753C13.8563 26.5727 16.4234 24.8313 16.4537 24.8616Z" fill="white"/>
<path d="M76.2355 23.0662C76.0278 23.0662 75.8199 23.0859 75.614 23.0859C71.4171 23.3092 68.5865 25.1526 66.9315 28.7527C65.516 32.0086 65.6705 36.2646 66.9474 39.5405C68.4321 42.7414 70.8313 44.4307 74.8359 45.0688C75.6832 45.2073 76.2514 45.6716 77.8925 47.584L79.9117 49.9452H83.5739L81.1388 47.495C79.7927 46.1516 78.7039 44.9818 78.7039 44.879C78.7039 44.7763 79.2188 44.5511 79.8421 44.3615C81.897 43.7408 83.6034 42.1564 84.7971 39.728C85.7631 37.778 85.9018 37.1752 86.0403 34.749C86.4026 27.5274 82.5878 23.0125 76.2353 23.0641L76.2355 23.0662ZM79.4463 41.9512C77.6647 42.8125 75.0777 42.9844 73.389 42.366C71.6429 41.7259 69.9524 39.9161 69.1921 37.8671C68.3469 35.6265 68.4675 31.4932 69.4336 29.6318C70.9876 26.668 73.0425 25.3048 76.0455 25.3048C80.4995 25.3048 83.0333 28.0276 83.364 33.1449C83.6253 37.4167 82.192 40.6215 79.4482 41.9493L79.4463 41.9512ZM142.71 29.2347C141.174 29.2347 139.998 29.8553 139.206 31.078L138.584 32.0463V29.529H135.926V44.6244H138.583V39.7994C138.583 35.3874 138.638 34.8717 139.255 33.6643C140.107 32.0086 141.571 31.183 142.987 31.5781L143.937 31.8547V29.2387H142.71V29.2347ZM127.091 29.0963C126.57 29.0963 126.018 29.1655 125.468 29.2862C121.91 30.2146 119.905 33.613 120.028 37.1103C120.028 40.0386 120.598 41.5025 122.013 43.0379C124.914 45.4127 127.536 45.6023 131.076 44.3281C131.68 44.0713 132.337 43.7749 132.337 43.7749V41.4L131.076 42.052C128.211 43.2967 126.054 43.2967 124.325 41.8306C123.223 40.7103 122.738 39.3667 122.514 37.8337H133.234V35.7983C133.234 31.6491 130.731 29.0291 127.089 29.0963H127.091ZM122.756 35.7154C122.756 35.7154 123.152 33.1271 124.62 32.1115C125.327 31.6135 126.139 31.3726 126.932 31.3726C127.728 31.3726 128.522 31.6293 129.177 32.1294C130.524 33.1627 130.749 35.6958 130.749 35.6958H122.756V35.7154H122.756ZM58.6627 32.9928C55.7805 31.25 54.5017 29.9933 54.6581 28.5114C55.1054 24.4116 60.1811 24.9787 62.992 26.5298L63.012 23.7716C63.012 23.7716 61.458 23.0999 59.2309 23.0642C55.8141 23.0129 53.6049 24.1311 52.5697 26.4073C51.0493 29.7662 52.3955 32.2991 57.2615 35.1247C59.9932 36.7112 61.2006 38.0884 61.2006 39.59C61.2006 42.6921 57.4533 43.7749 53.5873 41.8286C52.7916 41.4335 52.1185 41.1034 52.0829 41.1034C51.9442 41.9828 52.0157 44.0869 52.0157 44.0869C52.0157 44.0869 53.2035 44.585 54.985 44.9285C59.4032 45.8077 63.4239 43.7391 63.8039 40.3802C64.1346 37.2269 62.9921 35.573 58.6629 32.9906L58.6627 32.9928ZM166.239 29.0609C165.72 29.0609 165.17 29.1319 164.596 29.2525C161.043 30.1811 159.041 33.5796 159.178 37.0769C159.178 40.0012 159.746 41.4513 161.161 42.9845C164.062 45.3615 166.684 45.553 170.242 44.2768C170.844 44.0201 171.499 43.7278 171.499 43.7278V41.3489L170.24 42.0046C167.37 43.2455 165.212 43.2455 163.49 41.7795C162.381 40.6612 161.9 39.3334 161.676 37.7823H172.378V35.7472C172.378 31.6178 169.875 28.9958 166.233 29.065L166.239 29.0609ZM161.904 35.6799C161.904 35.6799 162.304 33.0954 163.77 32.06C164.475 31.5603 165.287 31.3191 166.081 31.3191C166.872 31.3191 167.67 31.5759 168.326 32.0778C169.672 33.1112 169.898 35.662 169.898 35.662H161.906L161.904 35.6799ZM113.174 33.0264C110.292 31.2877 109.017 30.0269 109.172 28.545C109.619 24.4431 114.695 25.0122 117.506 26.5633L117.526 23.8052C117.526 23.8052 115.972 23.1333 113.744 23.1016C110.328 23.0503 108.119 24.1686 107.081 26.4447C105.563 29.8035 106.927 32.3366 111.777 35.1621C114.505 36.7469 115.712 38.1062 115.712 39.6077C115.712 42.7099 111.967 43.8104 108.101 41.8463C107.309 41.4511 106.636 41.125 106.596 41.125C106.458 42.0042 106.529 44.1086 106.529 44.1086C106.529 44.1086 107.703 44.5888 109.479 44.9502C113.901 45.8315 117.924 43.7647 118.302 40.4058C118.63 37.2681 117.49 35.6144 113.175 33.03V33.0264H113.174ZM181.86 29.1992C180.324 29.1992 179.134 29.8214 178.356 31.0446L177.734 32.0087V29.4956H175.076V44.5869H177.732V39.7621C177.732 35.3519 177.786 34.8342 178.406 33.629C179.257 31.9753 180.721 31.1475 182.137 31.5445L183.087 31.821V29.1993H181.86V29.1992ZM92.0326 32.9394V23.3248H89.3523V44.6205H100.624V42.1054H92.0327V32.9394H92.0326ZM154.017 35.9366L151.808 41.6745L149.684 35.905L147.526 29.5113H144.782C146.56 34.5419 148.494 39.6591 150.444 44.6205C151.289 44.6402 152.136 44.6205 152.982 44.6205L155.965 37.1439L159.004 29.5132H156.381C156.381 29.5132 155.223 32.5442 154.015 35.9386L154.017 35.9366ZM98.2088 17.5218C98.6404 17.5218 99.0006 17.3837 99.2976 17.0873C99.5904 16.7948 99.7449 16.451 99.7449 16.0203C99.7449 15.5895 99.5904 15.2299 99.2976 14.9533C99.0006 14.6767 98.6581 14.5382 98.2285 14.5382C97.7932 14.5382 97.4328 14.6767 97.1398 14.969C96.8429 15.2616 96.7082 15.6212 96.7082 16.0361C96.7082 16.4708 96.8469 16.8303 97.1398 17.1032C97.417 17.3796 97.7773 17.518 98.2088 17.518V17.5218ZM97.2587 15.0719C97.5159 14.8151 97.8288 14.6964 98.2286 14.6964C98.6048 14.6964 98.9176 14.8151 99.179 15.0719C99.4363 15.3287 99.5749 15.6409 99.5749 16.0203C99.5749 16.3996 99.4363 16.7277 99.179 16.9845C98.9177 17.2411 98.6048 17.3638 98.2286 17.3638C97.8466 17.3638 97.5358 17.2452 97.2785 16.9845C97.0212 16.7277 96.8826 16.3996 96.8826 16.0203C96.8826 15.6409 97.0014 15.3288 97.2587 15.0719ZM97.898 16.1587H98.0721C98.195 16.1587 98.3157 16.2771 98.4186 16.5025L98.6266 16.9686H98.9531L98.6959 16.4508C98.591 16.2435 98.4881 16.123 98.3673 16.0892C98.5197 16.0536 98.6404 16.0023 98.7276 15.8995C98.8145 15.8107 98.8463 15.6901 98.8463 15.5537C98.8463 15.3957 98.7968 15.2773 98.692 15.1903C98.5731 15.0915 98.3831 15.0382 98.1375 15.0382H97.5874V16.9686H97.8645V16.1585L97.898 16.1587ZM97.898 15.2616H98.1396C98.3138 15.2616 98.4366 15.2971 98.5038 15.3484C98.5692 15.3998 98.587 15.4671 98.587 15.5895C98.587 15.8127 98.4482 15.9176 98.1911 15.9176H97.8942V15.2616H97.898ZM53.6226 15.9867C53.6226 15.3149 53.6029 14.8151 53.587 14.5207H53.6029C53.6721 14.8682 53.7573 15.1272 53.8265 15.299L56.3999 21.0369H56.8315L59.4049 15.2477C59.4743 15.0898 59.5436 14.8526 59.6287 14.5226H59.6484C59.597 15.0957 59.5792 15.5935 59.5792 15.9906V21.0547H60.4599V13.5268H59.3554L56.9899 18.7627C56.9027 18.9701 56.7819 19.2805 56.6276 19.6914H56.5918C56.5404 19.4879 56.4196 19.1776 56.2475 18.7982L53.9352 13.5088H52.7614V21.0367H53.6086V15.9904L53.6226 15.9867ZM62.3902 16.0007H63.1505V20.6892H62.3902V16.0007ZM62.7703 14.2816C62.9288 14.2816 63.0633 14.2281 63.1662 14.1236C63.2712 14.0207 63.3406 13.8864 63.3406 13.7284C63.3406 13.5743 63.289 13.4359 63.1683 13.3333C63.0614 13.2285 62.9247 13.175 62.7684 13.175C62.6141 13.175 62.4755 13.2285 62.3724 13.3333C62.2678 13.4359 62.1983 13.5743 62.1983 13.7284C62.1983 13.9004 62.2518 14.0207 62.3724 14.1236C62.4914 14.2281 62.614 14.2816 62.7684 14.2816H62.7703ZM68.5706 20.7921V19.966C68.1548 20.2763 67.7074 20.4305 67.2442 20.4305C66.6901 20.4305 66.2405 20.2409 65.9119 19.8775C65.5854 19.5178 65.4112 19.0177 65.4112 18.3954C65.4112 17.7434 65.5854 17.2255 65.9456 16.8304C66.292 16.4511 66.7415 16.2614 67.2919 16.2614C67.7412 16.2614 68.1725 16.3999 68.5707 16.6766V15.7973C68.2085 15.6076 67.7948 15.5206 67.3275 15.5206C66.4643 15.5206 65.7914 15.7973 65.2886 16.331C64.7896 16.8644 64.5323 17.5895 64.5323 18.4649C64.5323 19.2432 64.7559 19.8973 65.2213 20.3973C65.7062 20.9109 66.3261 21.1717 67.0861 21.1717C67.6738 21.1555 68.1548 21.033 68.5706 20.7921ZM70.746 18.2926C70.746 17.6741 70.8846 17.1743 71.142 16.8303C71.3836 16.5202 71.6764 16.3642 72.0229 16.3642C72.3159 16.3642 72.5237 16.4175 72.676 16.538V15.6409C72.5573 15.5896 72.3851 15.5718 72.1614 15.5718C71.8506 15.5718 71.5736 15.6762 71.3301 15.8682C71.0728 16.0715 70.8669 16.3819 70.7461 16.7771H70.7264V15.6764H69.8653V21.0507H70.7283V18.2926H70.746ZM75.701 21.1574C76.5127 21.1574 77.1659 20.8966 77.6508 20.379C78.1337 19.8651 78.3753 19.1737 78.3753 18.3121C78.3753 17.4331 78.1537 16.7612 77.7023 16.2611C77.255 15.7615 76.6333 15.5202 75.8215 15.5202C75.0098 15.5202 74.3566 15.7614 73.8717 16.2276C73.3531 16.7415 73.0799 17.4666 73.0799 18.3973C73.0799 19.2073 73.3016 19.8792 73.7689 20.379C74.2518 20.8966 74.8913 21.1554 75.701 21.1554V21.1574ZM74.4736 16.779C74.8022 16.4332 75.2339 16.2612 75.7682 16.2612C76.3227 16.2612 76.7383 16.4332 77.0472 16.779C77.3579 17.1406 77.5124 17.6564 77.5124 18.3459C77.5124 19.0017 77.3738 19.5175 77.0807 19.8633C76.7879 20.2249 76.3563 20.4164 75.786 20.4164C75.2318 20.4164 74.8022 20.2247 74.4736 19.8633C74.1471 19.4997 73.9906 19.0017 73.9906 18.3459C73.957 17.6939 74.1293 17.1605 74.4736 16.779ZM82.1545 20.6892C82.4831 20.3969 82.6574 20.0373 82.6574 19.5865C82.6574 19.1914 82.5187 18.8635 82.2614 18.6046C82.0515 18.3973 81.727 18.2095 81.2578 18.0198C80.8419 17.8461 80.5847 17.6918 80.446 17.5712C80.3075 17.433 80.2224 17.2613 80.2224 17.0181C80.2224 16.7948 80.3095 16.6229 80.4799 16.4846C80.654 16.3465 80.8758 16.2793 81.1727 16.2793C81.6379 16.2793 82.0358 16.4017 82.3999 16.6606V15.7991C82.0515 15.6254 81.6734 15.5424 81.2418 15.5424C80.6876 15.5424 80.2204 15.6947 79.8758 15.9888C79.5135 16.2814 79.3414 16.6607 79.3414 17.1071C79.3414 17.5022 79.4601 17.8303 79.6857 18.0712C79.8757 18.2768 80.2006 18.4864 80.6518 18.6739C81.0835 18.8637 81.3764 19.0354 81.5327 19.1736C81.687 19.3121 81.7563 19.4839 81.7563 19.6876C81.7563 20.1893 81.412 20.4483 80.7389 20.4483C80.2202 20.4483 79.7552 20.2783 79.3392 19.9346V20.863C79.7154 21.0885 80.1668 21.191 80.6655 21.191C81.305 21.1575 81.8057 21.0014 82.1502 20.6912L82.1545 20.6892ZM86.2641 15.5204C85.4523 15.5204 84.7992 15.7615 84.3142 16.2278C83.7995 16.7417 83.5223 17.4668 83.5223 18.3974C83.5223 19.2075 83.7462 19.8794 84.2113 20.3792C84.6963 20.8968 85.3336 21.1556 86.1454 21.1556C86.9767 21.1556 87.6103 20.8949 88.0952 20.377C88.5802 19.8634 88.8217 19.1719 88.8217 18.3103C88.8217 17.4311 88.596 16.7594 88.1485 16.2595C87.6816 15.7595 87.0598 15.5184 86.268 15.5184L86.2641 15.5204ZM87.9388 18.346C87.9388 19.0018 87.8002 19.5176 87.5073 19.8634C87.2142 20.225 86.7826 20.4165 86.2125 20.4165C85.658 20.4165 85.2286 20.2248 84.8998 19.8634C84.5733 19.4998 84.4169 19.0018 84.4169 18.346C84.4169 17.6544 84.5893 17.121 84.9357 16.7612C85.2622 16.4175 85.6939 16.2435 86.2303 16.2435C86.7647 16.2435 87.1944 16.4173 87.5051 16.7612C87.7823 17.1405 87.9368 17.6563 87.9368 18.346H87.9388ZM90.2708 21.035H91.1319V16.382H92.3929V15.6588H91.1319V14.8289C91.1319 14.0743 91.4247 13.6949 92.0306 13.6949C92.2345 13.6949 92.4424 13.7462 92.5968 13.8332V13.0568C92.4424 12.9877 92.2345 12.9719 91.975 12.9719C91.5099 12.9719 91.1298 13.1103 90.8189 13.4026C90.4566 13.7464 90.2647 14.1929 90.2647 14.7977V15.679H89.3539V16.4021H90.2647V21.0375L90.2708 21.035ZM93.8082 19.5689C93.8082 20.6201 94.2736 21.1555 95.2237 21.1555C95.5682 21.1555 95.8274 21.1003 96.0353 20.9778V20.2388C95.877 20.3575 95.6889 20.4129 95.4811 20.4129C95.1882 20.4129 94.9823 20.3434 94.8614 20.1873C94.7387 20.0335 94.6695 19.7724 94.6695 19.4128V16.38H96.0352V15.6568H94.6695V14.0723C94.3725 14.175 94.0816 14.262 93.8063 14.3487V15.6567H92.8759V16.3799H93.8063V19.567L93.8082 19.5689ZM186.453 29.4756C186.16 29.1992 185.813 29.0608 185.384 29.0608C184.948 29.0608 184.588 29.1992 184.295 29.4955C184.002 29.7859 183.863 30.1474 183.863 30.5625C183.863 30.9933 184.002 31.3529 184.293 31.6293C184.586 31.9059 184.946 32.0444 185.381 32.0444C185.811 32.0444 186.173 31.906 186.47 31.6136C186.761 31.3172 186.916 30.9754 186.916 30.5467C186.9 30.112 186.743 29.7523 186.451 29.4758L186.453 29.4756ZM186.314 31.5109C186.057 31.7676 185.744 31.8862 185.364 31.8862C184.988 31.8862 184.675 31.7676 184.414 31.5109C184.156 31.25 184.018 30.924 184.018 30.5426C184.018 30.1671 184.136 29.8552 184.398 29.5943C184.655 29.3377 184.966 29.2188 185.364 29.2188C185.74 29.2188 186.053 29.3377 186.314 29.5943C186.571 29.8552 186.71 30.1671 186.71 30.5426C186.71 30.9419 186.591 31.25 186.314 31.5109ZM185.538 30.6316C185.692 30.596 185.815 30.5269 185.9 30.4419C185.987 30.3529 186.019 30.2323 186.019 30.0943C186.019 29.9402 185.97 29.8176 185.865 29.7327C185.746 29.6339 185.554 29.5805 185.311 29.5805H184.76V31.5088H185.038V30.6987H185.21C185.329 30.6987 185.447 30.8172 185.554 31.0425L185.76 31.5068H186.089L185.831 30.989C185.742 30.7638 185.639 30.6609 185.535 30.6273L185.538 30.6316ZM185.348 30.4578H185.051V29.8059H185.295C185.467 29.8059 185.587 29.8373 185.657 29.8908C185.726 29.9421 185.742 30.0093 185.742 30.1319C185.742 30.3551 185.603 30.458 185.346 30.458L185.348 30.4578ZM137.187 15.4355H137.428V13.5051H138.068V13.264H136.547V13.5051H137.187V15.4355H137.187ZM138.652 13.9853C138.652 13.7974 138.652 13.6433 138.638 13.5566C138.654 13.6592 138.689 13.7285 138.705 13.7798L139.448 15.4355H139.566L140.311 13.7639C140.331 13.7126 140.346 13.6453 140.38 13.5566C140.364 13.7285 140.364 13.8665 140.364 13.9714V15.4336H140.621V13.264H140.311L139.638 14.7617C139.622 14.8152 139.568 14.9197 139.535 15.0385H139.515C139.501 14.9691 139.465 14.9001 139.416 14.7817L138.743 13.2642H138.394V15.4376H138.638V13.9874L138.652 13.9853Z" fill="white"/>
</svg>
