<svg width="59" height="45" viewBox="0 0 59 45" fill="none" xmlns="http://www.w3.org/2000/svg">
<path d="M44.2155 33.5825H51.5173V16.3172L43.2907 8.216L38.1275 13.3006L44.2155 19.2959V33.5822V33.5825ZM51.5366 37.1871H26.067L19.9788 31.192L22.5606 28.6497L27.5889 33.6015H37.9347L27.7431 23.5461L30.344 20.9848L40.5356 31.0214V20.8327L35.5265 15.8999L38.0889 13.3764L25.4312 0.854492H0L7.28255 8.02616V8.04517H22.3871L27.7238 13.3006L19.9211 20.9845L14.5844 15.7291V11.65H7.28255V18.7079L19.9211 31.154L14.7769 36.2196L23.0036 44.321H58.8192L51.5366 37.1871Z" fill="white"/>
</svg>
