<svg width="322" height="95" viewBox="0 0 322 95" fill="none" xmlns="http://www.w3.org/2000/svg">
<g filter="url(#filter0_d_5642_15659)">
<path d="M26.4474 57.728V56.728H25.4474V57.728H26.4474ZM26.4474 86V87H27.4474V86H26.4474ZM7.22739 86H6.22739V87H7.22739V86ZM7.22739 8.252V7.252H6.22739V8.252H7.22739ZM59.6794 8.252H60.6794V7.252H59.6794V8.252ZM59.6794 25.612V26.612H60.6794V25.612H59.6794ZM26.4474 25.612V24.612H25.4474V25.612H26.4474ZM26.4474 41.608H25.4474V42.608H26.4474V41.608ZM55.0914 41.608H56.0914V40.608H55.0914V41.608ZM55.0914 57.728V58.728H56.0914V57.728H55.0914ZM25.4474 57.728V86H27.4474V57.728H25.4474ZM26.4474 85H7.22739V87H26.4474V85ZM8.22739 86V8.252H6.22739V86H8.22739ZM7.22739 9.252H59.6794V7.252H7.22739V9.252ZM58.6794 8.252V25.612H60.6794V8.252H58.6794ZM59.6794 24.612H26.4474V26.612H59.6794V24.612ZM25.4474 25.612V41.608H27.4474V25.612H25.4474ZM26.4474 42.608H55.0914V40.608H26.4474V42.608ZM54.0914 41.608V57.728H56.0914V41.608H54.0914ZM55.0914 56.728H26.4474V58.728H55.0914V56.728ZM75.8498 86V87H76.5837L76.8038 86.2998L75.8498 86ZM55.6378 86L54.6999 85.653L54.2015 87H55.6378V86ZM84.4058 8.252V7.252H83.7095L83.4679 7.90497L84.4058 8.252ZM104.37 8.252L105.311 7.9129L105.072 7.252H104.37V8.252ZM132.394 86V87H133.817L133.335 85.6609L132.394 86ZM112.306 86L111.352 86.2998L111.572 87H112.306V86ZM108.214 72.98L109.168 72.6802L108.948 71.98H108.214V72.98ZM79.9418 72.98V71.98H79.2078L78.9878 72.6802L79.9418 72.98ZM93.9538 27.348L94.9162 27.0765L93.96 23.6862L92.9922 27.0733L93.9538 27.348ZM91.7218 34.788L90.7673 34.4897L90.7643 34.4994L90.7614 34.5092L91.7218 34.788ZM87.8778 47.436L88.832 47.7349L88.833 47.732L87.8778 47.436ZM84.6538 57.728L83.6995 57.4291L83.2926 58.728H84.6538V57.728ZM103.378 57.728V58.728H104.739L104.332 57.4291L103.378 57.728ZM100.154 47.436L101.108 47.1371L101.104 47.1246L101.1 47.1123L100.154 47.436ZM96.9298 37.516L95.9725 37.8054L95.9745 37.8117L96.9298 37.516ZM75.8498 85H55.6378V87H75.8498V85ZM56.5756 86.347L85.3436 8.59902L83.4679 7.90497L54.6999 85.653L56.5756 86.347ZM84.4058 9.252H104.37V7.252H84.4058V9.252ZM103.429 8.59109L131.453 86.3391L133.335 85.6609L105.311 7.9129L103.429 8.59109ZM132.394 85H112.306V87H132.394V85ZM113.26 85.7002L109.168 72.6802L107.26 73.2798L111.352 86.2998L113.26 85.7002ZM108.214 71.98H79.9418V73.98H108.214V71.98ZM78.9878 72.6802L74.8958 85.7002L76.8038 86.2998L80.8958 73.2798L78.9878 72.6802ZM92.9922 27.0733C92.3335 29.379 91.5919 31.8511 90.7673 34.4897L92.6762 35.0863C93.505 32.4343 94.2514 29.9463 94.9153 27.6227L92.9922 27.0733ZM90.7614 34.5092C90.0201 37.0625 88.7411 41.271 86.9226 47.14L88.833 47.732C90.6517 41.8623 91.9354 37.6388 92.6821 35.0668L90.7614 34.5092ZM86.9235 47.1371L83.6995 57.4291L85.608 58.0269L88.832 47.7349L86.9235 47.1371ZM84.6538 58.728H103.378V56.728H84.6538V58.728ZM104.332 57.4291L101.108 47.1371L99.1995 47.7349L102.423 58.0269L104.332 57.4291ZM101.1 47.1123C100.029 43.9811 98.9571 40.6838 97.8851 37.2203L95.9745 37.8117C97.0518 41.2922 98.1295 44.6082 99.2076 47.7597L101.1 47.1123ZM97.887 37.2266C96.8139 33.6773 95.8237 30.2939 94.9162 27.0765L92.9913 27.6195C93.9025 30.8501 94.8963 34.2454 95.9726 37.8054L97.887 37.2266ZM179.982 68.268L180.149 69.2538L180.16 69.2521L180.17 69.2502L179.982 68.268ZM190.398 65.416H191.398V63.9684L190.044 64.4807L190.398 65.416ZM190.398 82.404L190.769 83.3325L191.398 83.081V82.404H190.398ZM178.122 86.124L177.943 85.1401L177.932 85.1421L177.921 85.1443L178.122 86.124ZM149.478 84.76L149.837 83.8267L149.478 84.76ZM139.186 76.824L138.36 77.3887L138.368 77.4L139.186 76.824ZM134.35 64.796L133.37 64.9953L133.371 65.0033L133.373 65.0112L134.35 64.796ZM141.79 16.684L141.06 16.0007L141.059 16.001L141.79 16.684ZM180.602 7.25999L180.657 6.26153L180.602 7.25999ZM188.662 8.128H189.662V7.28566L188.832 7.14254L188.662 8.128ZM188.662 24.868L188.601 25.8662L189.662 25.9304V24.868H188.662ZM180.106 24.496L180.077 25.4956L180.078 25.4956L180.106 24.496ZM160.266 25.736L160.625 26.6693L160.634 26.6658L160.643 26.6621L160.266 25.736ZM155.43 30.2L156.287 30.7145L156.307 30.6816L156.324 30.6472L155.43 30.2ZM153.322 36.772L152.333 36.6222L153.322 36.772ZM153.198 56.86L152.205 56.984L152.208 57.0017L152.21 57.0192L153.198 56.86ZM155.058 63.308L154.155 63.7379L154.159 63.7466L154.163 63.7552L155.058 63.308ZM159.77 67.896L160.172 66.9807L159.77 67.896ZM169.194 70.26C172.566 70.26 176.219 69.9229 180.149 69.2538L179.814 67.2822C175.974 67.9358 172.435 68.26 169.194 68.26V70.26ZM180.17 69.2502C184.1 68.4975 187.629 67.5327 190.752 66.3513L190.044 64.4807C187.049 65.614 183.634 66.5505 179.794 67.2858L180.17 69.2502ZM189.398 65.416V82.404H191.398V65.416H189.398ZM190.026 81.4755C185.523 83.2768 181.497 84.4939 177.943 85.1401L178.301 87.1079C182.021 86.4314 186.179 85.1685 190.769 83.3325L190.026 81.4755ZM177.921 85.1443C174.354 85.8739 170.619 86.24 166.714 86.24V88.24C170.744 88.24 174.614 87.8621 178.322 87.1037L177.921 85.1443ZM166.714 86.24C159.583 86.24 153.975 85.4183 149.837 83.8267L149.119 85.6933C153.578 87.4084 159.46 88.24 166.714 88.24V86.24ZM149.837 83.8267C145.716 82.2418 142.448 79.7176 140.003 76.248L138.368 77.4C141.049 81.2051 144.642 83.9716 149.119 85.6933L149.837 83.8267ZM140.011 76.2593C137.953 73.2511 136.382 69.3701 135.326 64.5808L133.373 65.0112C134.467 69.9766 136.12 74.1143 138.36 77.3887L140.011 76.2593ZM135.33 64.5967C134.355 59.805 133.862 53.9651 133.862 47.064H131.862C131.862 54.0508 132.36 60.0324 133.37 64.9953L135.33 64.5967ZM133.862 47.064C133.862 33.2859 136.819 23.4636 142.52 17.367L141.059 16.001C134.856 22.635 131.862 33.0661 131.862 47.064H133.862ZM142.52 17.3673C148.29 11.2014 157.516 8.012 170.434 8.012V6.012C157.229 6.012 147.358 9.27058 141.06 16.0007L142.52 17.3673ZM170.434 8.012C174.223 8.012 177.593 8.09438 180.546 8.25845L180.657 6.26153C177.658 6.09494 174.25 6.012 170.434 6.012V8.012ZM180.546 8.25845C183.492 8.42211 186.14 8.70791 188.492 9.11346L188.832 7.14254C186.389 6.72142 183.663 6.42855 180.657 6.26153L180.546 8.25845ZM187.662 8.128V24.868H189.662V8.128H187.662ZM188.722 23.8698C185.982 23.7038 183.119 23.5793 180.133 23.4964L180.078 25.4956C183.044 25.578 185.885 25.7015 188.601 25.8662L188.722 23.8698ZM180.134 23.4964C177.23 23.4134 173.996 23.372 170.434 23.372V25.372C173.981 25.372 177.195 25.4132 180.077 25.4956L180.134 23.4964ZM170.434 23.372C165.852 23.372 162.304 23.8257 159.888 24.8099L160.643 26.6621C162.691 25.8276 165.922 25.372 170.434 25.372V23.372ZM159.907 24.8027C157.514 25.7231 155.716 27.391 154.535 29.7528L156.324 30.6472C157.293 28.7104 158.719 27.4022 160.625 26.6693L159.907 24.8027ZM154.572 29.6855C153.491 31.4879 152.758 33.8164 152.333 36.6222L154.31 36.9218C154.712 34.2716 155.385 32.2188 156.287 30.7145L154.572 29.6855ZM152.333 36.6222C151.909 39.4176 151.702 42.9026 151.702 47.064H153.702C153.702 42.9587 153.907 39.5823 154.31 36.9218L152.333 36.6222ZM151.702 47.064C151.702 50.9739 151.868 54.2836 152.205 56.984L154.19 56.736C153.866 54.1457 153.702 50.9248 153.702 47.064H151.702ZM152.21 57.0192C152.634 59.6452 153.276 61.8922 154.155 63.7379L155.961 62.8781C155.186 61.2518 154.588 59.2001 154.185 56.7008L152.21 57.0192ZM154.163 63.7552C155.335 66.0987 157.072 67.8017 159.367 68.8113L160.172 66.9807C158.334 66.1716 156.93 64.816 155.952 62.8608L154.163 63.7552ZM159.367 68.8113C161.628 69.8061 164.939 70.26 169.194 70.26V68.26C165.017 68.26 162.045 67.8046 160.172 66.9807L159.367 68.8113ZM255.598 8.252H256.598V7.252H255.598V8.252ZM255.598 25.612V26.612H256.598V25.612H255.598ZM234.394 25.612V24.612H233.394V25.612H234.394ZM234.394 86V87H235.394V86H234.394ZM215.174 86H214.174V87H215.174V86ZM215.174 25.612H216.174V24.612H215.174V25.612ZM193.97 25.612H192.97V26.612H193.97V25.612ZM193.97 8.252V7.252H192.97V8.252H193.97ZM254.598 8.252V25.612H256.598V8.252H254.598ZM255.598 24.612H234.394V26.612H255.598V24.612ZM233.394 25.612V86H235.394V25.612H233.394ZM234.394 85H215.174V87H234.394V85ZM216.174 86V25.612H214.174V86H216.174ZM215.174 24.612H193.97V26.612H215.174V24.612ZM194.97 25.612V8.252H192.97V25.612H194.97ZM193.97 9.252H255.598V7.252H193.97V9.252ZM291.521 56.984L291.763 56.0138L291.751 56.0108L291.521 56.984ZM275.773 53.264L275.542 54.2371L275.543 54.2372L275.773 53.264ZM262.877 46.444L262.069 47.0335L262.074 47.0405L262.079 47.0474L262.877 46.444ZM266.597 13.46L267.263 14.2052L267.264 14.2046L266.597 13.46ZM308.757 9.244H309.757V8.50212L309.047 8.28697L308.757 9.244ZM308.757 26.48L308.588 27.4657L309.757 27.6656V26.48H308.757ZM295.737 24.62L295.665 25.6175L295.668 25.6176L295.737 24.62ZM280.857 26.108L280.263 25.3029L280.857 26.108ZM279.245 35.036L278.413 35.5907L278.428 35.6138L278.445 35.636L279.245 35.036ZM282.097 36.524L281.868 37.4974L281.869 37.4978L282.097 36.524ZM296.977 39.996L296.749 40.9698L296.752 40.9704L296.977 39.996ZM306.277 42.972L305.814 43.8586L305.829 43.8666L305.845 43.8741L306.277 42.972ZM310.865 46.568L310.075 47.1819L310.087 47.1973L310.1 47.2121L310.865 46.568ZM313.717 52.644L312.743 52.8712L312.746 52.8865L312.75 52.9017L313.717 52.644ZM307.517 81.288L308.154 82.0584L308.162 82.0519L307.517 81.288ZM270.565 86.248L270.706 85.258L270.697 85.2568L270.689 85.2557L270.565 86.248ZM259.777 84.016H258.777V84.7223L259.442 84.9584L259.777 84.016ZM259.777 65.788L260.086 64.837L258.777 64.4115V65.788H259.777ZM271.557 68.392L271.413 69.3816L271.422 69.3829L271.43 69.384L271.557 68.392ZM292.761 67.896L292.217 67.0564L292.761 67.896ZM294.125 58.72L293.23 59.1672L293.258 59.2229L293.293 59.2747L294.125 58.72ZM291.751 56.0108L276.003 52.2908L275.543 54.2372L291.291 57.9572L291.751 56.0108ZM276.003 52.2909C269.805 50.8229 265.78 48.6239 263.674 45.8406L262.079 47.0474C264.602 50.3814 269.175 52.7291 275.542 54.2371L276.003 52.2909ZM263.684 45.8545C261.626 43.034 260.529 38.8936 260.529 33.3H258.529C258.529 39.1144 259.663 43.7367 262.069 47.0335L263.684 45.8545ZM260.529 33.3C260.529 24.4497 262.841 18.1621 267.263 14.2052L265.93 12.7148C260.928 17.1899 258.529 24.1289 258.529 33.3H260.529ZM267.264 14.2046C271.797 10.1406 278.906 8.012 288.793 8.012V6.012C278.674 6.012 270.986 8.18205 265.929 12.7154L267.264 14.2046ZM288.793 8.012C292.901 8.012 296.544 8.17638 299.727 8.50278L299.931 6.51322C296.665 6.17828 292.951 6.012 288.793 6.012V8.012ZM299.727 8.50278C302.895 8.82778 305.808 9.39526 308.467 10.201L309.047 8.28697C306.25 7.43941 303.21 6.84955 299.931 6.51322L299.727 8.50278ZM307.757 9.244V26.48H309.757V9.244H307.757ZM308.925 25.4943C302.646 24.4203 298.26 23.7916 295.805 23.6224L295.668 25.6176C298.008 25.779 302.302 26.3904 308.588 27.4657L308.925 25.4943ZM295.808 23.6225C293.467 23.4553 291.005 23.372 288.421 23.372V25.372C290.962 25.372 293.377 25.454 295.665 25.6175L295.808 23.6225ZM288.421 23.372C284.882 23.372 282.095 23.9533 280.263 25.3029L281.45 26.9131C282.759 25.9481 285.015 25.372 288.421 25.372V23.372ZM280.263 25.3029C278.345 26.7167 277.501 29.0255 277.501 31.936H279.501C279.501 29.3905 280.227 27.8139 281.45 26.9131L280.263 25.3029ZM277.501 31.936C277.501 33.3668 277.766 34.6212 278.413 35.5907L280.077 34.4813C279.731 33.9627 279.501 33.1505 279.501 31.936H277.501ZM278.445 35.636C279.154 36.5812 280.388 37.1493 281.868 37.4974L282.326 35.5506C280.995 35.2374 280.328 34.8135 280.045 34.436L278.445 35.636ZM281.869 37.4978L296.749 40.9698L297.204 39.0222L282.324 35.5502L281.869 37.4978ZM296.752 40.9704C301.036 41.959 304.031 42.9285 305.814 43.8586L306.739 42.0854C304.719 41.0315 301.515 40.017 297.202 39.0216L296.752 40.9704ZM305.845 43.8741C307.623 44.7245 309.024 45.8303 310.075 47.1819L311.654 45.9541C310.391 44.3297 308.733 43.0382 306.708 42.0699L305.845 43.8741ZM310.1 47.2121C311.299 48.6367 312.192 50.5086 312.743 52.8712L314.69 52.4168C314.084 49.8194 313.075 47.6406 311.63 45.9239L310.1 47.2121ZM312.75 52.9017C313.383 55.2723 313.709 58.1976 313.709 61.696H315.709C315.709 58.0851 315.373 54.9756 314.683 52.3863L312.75 52.9017ZM313.709 61.696C313.709 70.5447 311.356 76.7349 306.871 80.5241L308.162 82.0519C313.266 77.7397 315.709 70.8686 315.709 61.696H313.709ZM306.879 80.5176C302.346 84.2695 295.184 86.24 285.197 86.24V88.24C295.38 88.24 303.098 86.2425 308.154 82.0584L306.879 80.5176ZM285.197 86.24C280.114 86.24 275.284 85.9121 270.706 85.258L270.423 87.238C275.104 87.9066 280.028 88.24 285.197 88.24V86.24ZM270.689 85.2557C266.088 84.6806 262.574 83.9476 260.111 83.0736L259.442 84.9584C262.104 85.9031 265.783 86.658 270.441 87.2403L270.689 85.2557ZM260.777 84.016V65.788H258.777V84.016H260.777ZM259.468 66.739C262.842 67.8357 266.827 68.7145 271.413 69.3816L271.701 67.4024C267.193 66.7468 263.325 65.8896 260.086 64.837L259.468 66.739ZM271.43 69.384C276.019 69.9679 280.607 70.26 285.197 70.26V68.26C280.693 68.26 276.188 67.9734 271.683 67.4L271.43 69.384ZM285.197 70.26C288.848 70.26 291.633 69.8165 293.304 68.7356L292.217 67.0564C291.077 67.7942 288.82 68.26 285.197 68.26V70.26ZM293.304 68.7356C295.139 67.5481 295.869 65.2877 295.869 62.44H293.869C293.869 65.0483 293.193 66.4252 292.217 67.0564L293.304 68.7356ZM295.869 62.44C295.869 60.6624 295.625 59.1675 294.957 58.1653L293.293 59.2747C293.616 59.7605 293.869 60.7456 293.869 62.44H295.869ZM295.019 58.2728C294.423 57.0806 293.232 56.381 291.763 56.0139L291.278 57.9541C292.455 58.2483 293 58.706 293.23 59.1672L295.019 58.2728Z" fill="#0066FF"/>
</g>
<defs>
<filter id="filter0_d_5642_15659" x="0.226562" y="0.012207" width="321.482" height="94.228" filterUnits="userSpaceOnUse" color-interpolation-filters="sRGB">
<feFlood flood-opacity="0" result="BackgroundImageFix"/>
<feColorMatrix in="SourceAlpha" type="matrix" values="0 0 0 0 0 0 0 0 0 0 0 0 0 0 0 0 0 0 127 0" result="hardAlpha"/>
<feOffset/>
<feGaussianBlur stdDeviation="3.5"/>
<feColorMatrix type="matrix" values="0 0 0 0 0 0 0 0 0 0.4 0 0 0 0 1 0 0 0 1 0"/>
<feBlend mode="normal" in2="BackgroundImageFix" result="effect1_dropShadow_5642_15659"/>
<feBlend mode="normal" in="SourceGraphic" in2="effect1_dropShadow_5642_15659" result="shape"/>
</filter>
</defs>
</svg>
