<svg width="1124" height="435" viewBox="0 0 1124 435" fill="none" xmlns="http://www.w3.org/2000/svg">
<g opacity="0.62" filter="url(#filter0_f)">
<path d="M94.3 403L91.3988 403.763L91.9873 406H94.3V403ZM25 139.66V136.66H21.1084L22.0988 140.423L25 139.66ZM95.56 139.66L98.4942 139.035L97.9885 136.66H95.56V139.66ZM123.28 269.86L120.346 270.485L120.357 270.536L120.37 270.588L123.28 269.86ZM126.64 287.92L123.672 288.36L123.68 288.413L123.69 288.466L126.64 287.92ZM133.36 331.6L130.39 332.024L136.323 332.068L133.36 331.6ZM137.98 300.94L135.021 300.447L135.016 300.474L135.012 300.5L137.98 300.94ZM143.44 270.28L146.376 270.898L146.378 270.885L143.44 270.28ZM170.32 139.66V136.66H167.875L167.382 139.055L170.32 139.66ZM238.36 139.66L241.294 139.035L240.789 136.66H238.36V139.66ZM266.08 269.86L263.146 270.485L263.157 270.536L263.17 270.588L266.08 269.86ZM269.44 287.92L266.472 288.36L266.48 288.413L266.49 288.466L269.44 287.92ZM276.16 331.6L273.19 332.024L279.123 332.068L276.16 331.6ZM280.78 300.94L277.821 300.447L277.816 300.474L277.812 300.5L280.78 300.94ZM286.24 270.28L289.176 270.898L289.178 270.885L286.24 270.28ZM313.12 139.66V136.66H310.675L310.182 139.055L313.12 139.66ZM381.58 139.66L384.482 140.419L385.466 136.66H381.58V139.66ZM312.7 403V406H315.016L315.602 403.759L312.7 403ZM237.52 403L234.584 403.618L235.086 406H237.52V403ZM220.72 323.2L217.783 323.812L217.784 323.818L220.72 323.2ZM212.32 280.78L209.372 281.336L212.32 280.78ZM203.5 231.64L206.457 231.132L200.547 231.109L203.5 231.64ZM193 287.92L190.058 287.332L193 287.92ZM185.86 323.2L188.796 323.818L188.797 323.81L188.799 323.803L185.86 323.2ZM169.06 403V406H171.494L171.996 403.618L169.06 403ZM97.2012 402.237L27.9012 138.896L22.0988 140.423L91.3988 403.763L97.2012 402.237ZM25 142.66H95.56V136.66H25V142.66ZM92.6258 140.285L120.346 270.485L126.214 269.235L98.4942 139.035L92.6258 140.285ZM120.37 270.588C121.456 274.931 122.559 280.843 123.672 288.36L129.608 287.48C128.481 279.877 127.344 273.749 126.19 269.132L120.37 270.588ZM123.69 288.466C125.077 295.956 127.309 310.457 130.39 332.024L136.33 331.176C133.251 309.623 131.003 295.004 129.59 287.374L123.69 288.466ZM136.323 332.068C137.166 326.732 138.708 316.498 140.948 301.38L135.012 300.5C132.772 315.622 131.234 325.828 130.397 331.132L136.323 332.068ZM140.939 301.433C143.46 286.306 145.271 276.146 146.376 270.898L140.504 269.662C139.369 275.053 137.54 285.334 135.021 300.447L140.939 301.433ZM146.378 270.885L173.258 140.265L167.382 139.055L140.502 269.675L146.378 270.885ZM170.32 142.66H238.36V136.66H170.32V142.66ZM235.426 140.285L263.146 270.485L269.014 269.235L241.294 139.035L235.426 140.285ZM263.17 270.588C264.256 274.931 265.359 280.843 266.472 288.36L272.408 287.48C271.281 279.877 270.144 273.749 268.99 269.132L263.17 270.588ZM266.49 288.466C267.877 295.956 270.109 310.457 273.19 332.024L279.13 331.176C276.051 309.623 273.803 295.004 272.39 287.374L266.49 288.466ZM279.123 332.068C279.966 326.732 281.508 316.498 283.748 301.38L277.812 300.5C275.572 315.622 274.034 325.828 273.197 331.132L279.123 332.068ZM283.739 301.433C286.26 286.306 288.071 276.146 289.176 270.898L283.304 269.662C282.169 275.053 280.34 285.334 277.821 300.447L283.739 301.433ZM289.178 270.885L316.058 140.265L310.182 139.055L283.302 269.675L289.178 270.885ZM313.12 142.66H381.58V136.66H313.12V142.66ZM378.678 138.901L309.798 402.241L315.602 403.759L384.482 140.419L378.678 138.901ZM312.7 400H237.52V406H312.7V400ZM240.456 402.382L223.656 322.582L217.784 323.818L234.584 403.618L240.456 402.382ZM223.657 322.588C220.861 309.168 218.065 295.047 215.268 280.224L209.372 281.336C212.175 296.193 214.979 310.352 217.783 323.812L223.657 322.588ZM215.268 280.224C212.472 265.403 209.534 249.039 206.457 231.132L200.543 232.148C203.626 250.081 206.568 266.477 209.372 281.336L215.268 280.224ZM200.547 231.109C196.068 256.025 192.572 274.761 190.058 287.332L195.942 288.508C198.468 275.879 201.972 257.095 206.453 232.171L200.547 231.109ZM190.058 287.332C187.539 299.928 185.16 311.683 182.921 322.597L188.799 323.803C191.04 312.877 193.421 301.112 195.942 288.508L190.058 287.332ZM182.924 322.582L166.124 402.382L171.996 403.618L188.796 323.818L182.924 322.582ZM169.06 400H94.3V406H169.06V400ZM466.686 403V406H469.686V403H466.686ZM401.586 403H398.586V406H401.586V403ZM401.586 139.66V136.66H398.586V139.66H401.586ZM466.686 139.66H469.686V136.66H466.686V139.66ZM466.686 240.04H463.686V243.04H466.686V240.04ZM559.086 240.04V243.04H562.086V240.04H559.086ZM559.086 139.66V136.66H556.086V139.66H559.086ZM624.186 139.66H627.186V136.66H624.186V139.66ZM624.186 403V406H627.186V403H624.186ZM559.086 403H556.086V406H559.086V403ZM559.086 298.84H562.086V295.84H559.086V298.84ZM466.686 298.84V295.84H463.686V298.84H466.686ZM466.686 400H401.586V406H466.686V400ZM404.586 403V139.66H398.586V403H404.586ZM401.586 142.66H466.686V136.66H401.586V142.66ZM463.686 139.66V240.04H469.686V139.66H463.686ZM466.686 243.04H559.086V237.04H466.686V243.04ZM562.086 240.04V139.66H556.086V240.04H562.086ZM559.086 142.66H624.186V136.66H559.086V142.66ZM621.186 139.66V403H627.186V139.66H621.186ZM624.186 400H559.086V406H624.186V400ZM562.086 403V298.84H556.086V403H562.086ZM559.086 295.84H466.686V301.84H559.086V295.84ZM463.686 298.84V403H469.686V298.84H463.686ZM827.876 139.66V136.66H826.053L825.213 138.278L827.876 139.66ZM895.076 139.66L897.706 141.103L900.145 136.66H895.076V139.66ZM803.096 307.24L800.466 305.797L800.096 306.471V307.24H803.096ZM803.096 403V406H806.096V403H803.096ZM737.996 403H734.996V406H737.996V403ZM737.996 307.24H740.996V306.452L740.609 305.766L737.996 307.24ZM643.496 139.66V136.66H638.36L640.883 141.134L643.496 139.66ZM717.836 139.66L720.54 138.36L719.722 136.66H717.836V139.66ZM770.756 249.7L768.052 251L770.654 256.409L773.419 251.082L770.756 249.7ZM827.876 142.66H895.076V136.66H827.876V142.66ZM892.446 138.217L800.466 305.797L805.726 308.683L897.706 141.103L892.446 138.217ZM800.096 307.24V403H806.096V307.24H800.096ZM803.096 400H737.996V406H803.096V400ZM740.996 403V307.24H734.996V403H740.996ZM740.609 305.766L646.109 138.186L640.883 141.134L735.383 308.714L740.609 305.766ZM643.496 142.66H717.836V136.66H643.496V142.66ZM715.132 140.96L768.052 251L773.46 248.4L720.54 138.36L715.132 140.96ZM773.419 251.082L830.539 141.042L825.213 138.278L768.093 248.318L773.419 251.082ZM1080.09 150.58L1078.22 152.923L1078.23 152.933L1078.24 152.943L1080.09 150.58ZM1086.81 237.1L1084.27 235.51L1084.26 235.529L1084.24 235.549L1086.81 237.1ZM1046.49 277L1044.77 274.544L1043.49 275.44V277H1046.49ZM1046.49 317.74V320.74H1049.49V317.74H1046.49ZM989.372 317.74H986.372V320.74H989.372V317.74ZM989.372 257.68L987.858 255.09L986.372 255.959V257.68H989.372ZM1027.59 230.38L1029.75 232.461L1027.59 230.38ZM1033.47 195.52L1031.45 197.74L1031.5 197.783L1031.55 197.825L1033.47 195.52ZM986.852 194.68L987.346 197.639L987.374 197.635L987.401 197.629L986.852 194.68ZM957.872 201.82H954.872V206.13L958.914 204.633L957.872 201.82ZM957.872 147.22L956.771 144.43L954.872 145.179V147.22H957.872ZM990.213 138.4L990.669 141.365L990.706 141.359L990.742 141.353L990.213 138.4ZM1050.27 346.72H1053.27V343.72H1050.27V346.72ZM1050.27 403V406H1053.27V403H1050.27ZM985.172 403H982.172V406H985.172V403ZM985.172 346.72V343.72H982.172V346.72H985.172ZM1028.01 138.46C1049.7 138.46 1066.32 143.402 1078.22 152.923L1081.97 148.237C1068.67 137.598 1050.56 132.46 1028.01 132.46V138.46ZM1078.24 152.943C1090.3 162.375 1096.41 175.726 1096.41 193.42H1102.41C1102.41 174.154 1095.65 158.945 1081.94 148.217L1078.24 152.943ZM1096.41 193.42C1096.41 208.531 1092.37 222.541 1084.27 235.51L1089.36 238.69C1098.05 224.779 1102.41 209.669 1102.41 193.42H1096.41ZM1084.24 235.549C1076.42 248.507 1063.33 261.523 1044.77 274.544L1048.22 279.456C1067.17 266.157 1080.97 252.573 1089.38 238.651L1084.24 235.549ZM1043.49 277V317.74H1049.49V277H1043.49ZM1046.49 314.74H989.372V320.74H1046.49V314.74ZM992.372 317.74V257.68H986.372V317.74H992.372ZM990.887 260.27C1009.14 249.601 1022.17 240.332 1029.75 232.461L1025.43 228.299C1018.45 235.548 1006.01 244.479 987.858 255.09L990.887 260.27ZM1029.75 232.461C1037.31 224.616 1041.51 216.628 1041.51 208.54H1035.51C1035.51 214.452 1032.44 221.024 1025.43 228.299L1029.75 232.461ZM1041.51 208.54C1041.51 202.095 1039.65 196.765 1035.39 193.215L1031.55 197.825C1034.01 199.875 1035.51 203.225 1035.51 208.54H1041.51ZM1035.49 193.3C1031.56 189.723 1025.27 188.32 1017.51 188.32V194.32C1024.87 194.32 1029.23 195.717 1031.45 197.74L1035.49 193.3ZM1017.51 188.32C1008.87 188.32 998.451 189.471 986.304 191.731L987.401 197.629C999.334 195.409 1009.36 194.32 1017.51 194.32V188.32ZM986.359 191.721C974.492 193.699 964.631 196.118 956.831 199.007L958.914 204.633C966.234 201.922 975.693 199.581 987.346 197.639L986.359 191.721ZM960.872 201.82V147.22H954.872V201.82H960.872ZM958.974 150.01C969.413 145.89 979.977 143.01 990.669 141.365L989.756 135.435C978.608 137.15 967.612 140.15 956.771 144.43L958.974 150.01ZM990.742 141.353C1001.45 139.432 1013.86 138.46 1028.01 138.46V132.46C1013.6 132.46 1000.82 133.448 989.682 135.447L990.742 141.353ZM1047.27 346.72V403H1053.27V346.72H1047.27ZM1050.27 400H985.172V406H1050.27V400ZM988.172 403V346.72H982.172V403H988.172ZM985.172 349.72H1050.27V343.72H985.172V349.72Z" fill="#0066FF"/>
</g>
<g opacity="0.62" filter="url(#filter1_f)">
<path d="M94.3 403L25 139.66H95.56L123.28 269.86C124.4 274.34 125.52 280.36 126.64 287.92C128.04 295.48 130.28 310.04 133.36 331.6C134.2 326.28 135.74 316.06 137.98 300.94C140.5 285.82 142.32 275.6 143.44 270.28L170.32 139.66H238.36L266.08 269.86C267.2 274.34 268.32 280.36 269.44 287.92C270.84 295.48 273.08 310.04 276.16 331.6C277 326.28 278.54 316.06 280.78 300.94C283.3 285.82 285.12 275.6 286.24 270.28L313.12 139.66H381.58L312.7 403H237.52L220.72 323.2C217.92 309.76 215.12 295.62 212.32 280.78C209.52 265.94 206.58 249.56 203.5 231.64C199.02 256.56 195.52 275.32 193 287.92C190.48 300.52 188.1 312.28 185.86 323.2L169.06 403H94.3ZM466.686 403H401.586V139.66H466.686V240.04H559.086V139.66H624.186V403H559.086V298.84H466.686V403ZM827.876 139.66H895.076L803.096 307.24V403H737.996V307.24L643.496 139.66H717.836L770.756 249.7L827.876 139.66ZM1028.01 135.46C1050.13 135.46 1067.49 140.5 1080.09 150.58C1092.97 160.66 1099.41 174.94 1099.41 193.42C1099.41 209.1 1095.21 223.66 1086.81 237.1C1078.69 250.54 1065.25 263.84 1046.49 277V317.74H989.373V257.68C1007.57 247.04 1020.31 237.94 1027.59 230.38C1034.87 222.82 1038.51 215.54 1038.51 208.54C1038.51 202.66 1036.83 198.32 1033.47 195.52C1030.39 192.72 1025.07 191.32 1017.51 191.32C1009.11 191.32 998.893 192.44 986.853 194.68C975.093 196.64 965.433 199.02 957.873 201.82V147.22C968.513 143.02 979.293 140.08 990.213 138.4C1001.13 136.44 1013.73 135.46 1028.01 135.46ZM1050.27 346.72V403H985.173V346.72H1050.27Z" fill="#0066FF" fill-opacity="0.2"/>
<path d="M94.3 403L91.3988 403.763L91.9873 406H94.3V403ZM25 139.66V136.66H21.1084L22.0988 140.423L25 139.66ZM95.56 139.66L98.4942 139.035L97.9885 136.66H95.56V139.66ZM123.28 269.86L120.346 270.485L120.357 270.536L120.37 270.588L123.28 269.86ZM126.64 287.92L123.672 288.36L123.68 288.413L123.69 288.466L126.64 287.92ZM133.36 331.6L130.39 332.024L136.323 332.068L133.36 331.6ZM137.98 300.94L135.021 300.447L135.016 300.474L135.012 300.5L137.98 300.94ZM143.44 270.28L146.376 270.898L146.378 270.885L143.44 270.28ZM170.32 139.66V136.66H167.875L167.382 139.055L170.32 139.66ZM238.36 139.66L241.294 139.035L240.789 136.66H238.36V139.66ZM266.08 269.86L263.146 270.485L263.157 270.536L263.17 270.588L266.08 269.86ZM269.44 287.92L266.472 288.36L266.48 288.413L266.49 288.466L269.44 287.92ZM276.16 331.6L273.19 332.024L279.123 332.068L276.16 331.6ZM280.78 300.94L277.821 300.447L277.816 300.474L277.812 300.5L280.78 300.94ZM286.24 270.28L289.176 270.898L289.178 270.885L286.24 270.28ZM313.12 139.66V136.66H310.675L310.182 139.055L313.12 139.66ZM381.58 139.66L384.482 140.419L385.466 136.66H381.58V139.66ZM312.7 403V406H315.016L315.602 403.759L312.7 403ZM237.52 403L234.584 403.618L235.086 406H237.52V403ZM220.72 323.2L217.783 323.812L217.784 323.818L220.72 323.2ZM212.32 280.78L209.372 281.336L212.32 280.78ZM203.5 231.64L206.457 231.132L200.547 231.109L203.5 231.64ZM193 287.92L190.058 287.332L193 287.92ZM185.86 323.2L188.796 323.818L188.797 323.81L188.799 323.803L185.86 323.2ZM169.06 403V406H171.494L171.996 403.618L169.06 403ZM97.2012 402.237L27.9012 138.896L22.0988 140.423L91.3988 403.763L97.2012 402.237ZM25 142.66H95.56V136.66H25V142.66ZM92.6258 140.285L120.346 270.485L126.214 269.235L98.4942 139.035L92.6258 140.285ZM120.37 270.588C121.456 274.931 122.559 280.843 123.672 288.36L129.608 287.48C128.481 279.877 127.344 273.749 126.19 269.132L120.37 270.588ZM123.69 288.466C125.077 295.956 127.309 310.457 130.39 332.024L136.33 331.176C133.251 309.623 131.003 295.004 129.59 287.374L123.69 288.466ZM136.323 332.068C137.166 326.732 138.708 316.498 140.948 301.38L135.012 300.5C132.772 315.622 131.234 325.828 130.397 331.132L136.323 332.068ZM140.939 301.433C143.46 286.306 145.271 276.146 146.376 270.898L140.504 269.662C139.369 275.053 137.54 285.334 135.021 300.447L140.939 301.433ZM146.378 270.885L173.258 140.265L167.382 139.055L140.502 269.675L146.378 270.885ZM170.32 142.66H238.36V136.66H170.32V142.66ZM235.426 140.285L263.146 270.485L269.014 269.235L241.294 139.035L235.426 140.285ZM263.17 270.588C264.256 274.931 265.359 280.843 266.472 288.36L272.408 287.48C271.281 279.877 270.144 273.749 268.99 269.132L263.17 270.588ZM266.49 288.466C267.877 295.956 270.109 310.457 273.19 332.024L279.13 331.176C276.051 309.623 273.803 295.004 272.39 287.374L266.49 288.466ZM279.123 332.068C279.966 326.732 281.508 316.498 283.748 301.38L277.812 300.5C275.572 315.622 274.034 325.828 273.197 331.132L279.123 332.068ZM283.739 301.433C286.26 286.306 288.071 276.146 289.176 270.898L283.304 269.662C282.169 275.053 280.34 285.334 277.821 300.447L283.739 301.433ZM289.178 270.885L316.058 140.265L310.182 139.055L283.302 269.675L289.178 270.885ZM313.12 142.66H381.58V136.66H313.12V142.66ZM378.678 138.901L309.798 402.241L315.602 403.759L384.482 140.419L378.678 138.901ZM312.7 400H237.52V406H312.7V400ZM240.456 402.382L223.656 322.582L217.784 323.818L234.584 403.618L240.456 402.382ZM223.657 322.588C220.861 309.168 218.065 295.047 215.268 280.224L209.372 281.336C212.175 296.193 214.979 310.352 217.783 323.812L223.657 322.588ZM215.268 280.224C212.472 265.403 209.534 249.039 206.457 231.132L200.543 232.148C203.626 250.081 206.568 266.477 209.372 281.336L215.268 280.224ZM200.547 231.109C196.068 256.025 192.572 274.761 190.058 287.332L195.942 288.508C198.468 275.879 201.972 257.095 206.453 232.171L200.547 231.109ZM190.058 287.332C187.539 299.928 185.16 311.683 182.921 322.597L188.799 323.803C191.04 312.877 193.421 301.112 195.942 288.508L190.058 287.332ZM182.924 322.582L166.124 402.382L171.996 403.618L188.796 323.818L182.924 322.582ZM169.06 400H94.3V406H169.06V400ZM466.686 403V406H469.686V403H466.686ZM401.586 403H398.586V406H401.586V403ZM401.586 139.66V136.66H398.586V139.66H401.586ZM466.686 139.66H469.686V136.66H466.686V139.66ZM466.686 240.04H463.686V243.04H466.686V240.04ZM559.086 240.04V243.04H562.086V240.04H559.086ZM559.086 139.66V136.66H556.086V139.66H559.086ZM624.186 139.66H627.186V136.66H624.186V139.66ZM624.186 403V406H627.186V403H624.186ZM559.086 403H556.086V406H559.086V403ZM559.086 298.84H562.086V295.84H559.086V298.84ZM466.686 298.84V295.84H463.686V298.84H466.686ZM466.686 400H401.586V406H466.686V400ZM404.586 403V139.66H398.586V403H404.586ZM401.586 142.66H466.686V136.66H401.586V142.66ZM463.686 139.66V240.04H469.686V139.66H463.686ZM466.686 243.04H559.086V237.04H466.686V243.04ZM562.086 240.04V139.66H556.086V240.04H562.086ZM559.086 142.66H624.186V136.66H559.086V142.66ZM621.186 139.66V403H627.186V139.66H621.186ZM624.186 400H559.086V406H624.186V400ZM562.086 403V298.84H556.086V403H562.086ZM559.086 295.84H466.686V301.84H559.086V295.84ZM463.686 298.84V403H469.686V298.84H463.686ZM827.876 139.66V136.66H826.053L825.213 138.278L827.876 139.66ZM895.076 139.66L897.706 141.103L900.145 136.66H895.076V139.66ZM803.096 307.24L800.466 305.797L800.096 306.471V307.24H803.096ZM803.096 403V406H806.096V403H803.096ZM737.996 403H734.996V406H737.996V403ZM737.996 307.24H740.996V306.452L740.609 305.766L737.996 307.24ZM643.496 139.66V136.66H638.36L640.883 141.134L643.496 139.66ZM717.836 139.66L720.54 138.36L719.722 136.66H717.836V139.66ZM770.756 249.7L768.052 251L770.654 256.409L773.419 251.082L770.756 249.7ZM827.876 142.66H895.076V136.66H827.876V142.66ZM892.446 138.217L800.466 305.797L805.726 308.683L897.706 141.103L892.446 138.217ZM800.096 307.24V403H806.096V307.24H800.096ZM803.096 400H737.996V406H803.096V400ZM740.996 403V307.24H734.996V403H740.996ZM740.609 305.766L646.109 138.186L640.883 141.134L735.383 308.714L740.609 305.766ZM643.496 142.66H717.836V136.66H643.496V142.66ZM715.132 140.96L768.052 251L773.46 248.4L720.54 138.36L715.132 140.96ZM773.419 251.082L830.539 141.042L825.213 138.278L768.093 248.318L773.419 251.082ZM1080.09 150.58L1078.22 152.923L1078.23 152.933L1078.24 152.943L1080.09 150.58ZM1086.81 237.1L1084.27 235.51L1084.26 235.529L1084.24 235.549L1086.81 237.1ZM1046.49 277L1044.77 274.544L1043.49 275.44V277H1046.49ZM1046.49 317.74V320.74H1049.49V317.74H1046.49ZM989.372 317.74H986.372V320.74H989.372V317.74ZM989.372 257.68L987.858 255.09L986.372 255.959V257.68H989.372ZM1027.59 230.38L1029.75 232.461L1027.59 230.38ZM1033.47 195.52L1031.45 197.74L1031.5 197.783L1031.55 197.825L1033.47 195.52ZM986.852 194.68L987.346 197.639L987.374 197.635L987.401 197.629L986.852 194.68ZM957.872 201.82H954.872V206.13L958.914 204.633L957.872 201.82ZM957.872 147.22L956.771 144.43L954.872 145.179V147.22H957.872ZM990.213 138.4L990.669 141.365L990.706 141.359L990.742 141.353L990.213 138.4ZM1050.27 346.72H1053.27V343.72H1050.27V346.72ZM1050.27 403V406H1053.27V403H1050.27ZM985.172 403H982.172V406H985.172V403ZM985.172 346.72V343.72H982.172V346.72H985.172ZM1028.01 138.46C1049.7 138.46 1066.32 143.402 1078.22 152.923L1081.97 148.237C1068.67 137.598 1050.56 132.46 1028.01 132.46V138.46ZM1078.24 152.943C1090.3 162.375 1096.41 175.726 1096.41 193.42H1102.41C1102.41 174.154 1095.65 158.945 1081.94 148.217L1078.24 152.943ZM1096.41 193.42C1096.41 208.531 1092.37 222.541 1084.27 235.51L1089.36 238.69C1098.05 224.779 1102.41 209.669 1102.41 193.42H1096.41ZM1084.24 235.549C1076.42 248.507 1063.33 261.523 1044.77 274.544L1048.22 279.456C1067.17 266.157 1080.97 252.573 1089.38 238.651L1084.24 235.549ZM1043.49 277V317.74H1049.49V277H1043.49ZM1046.49 314.74H989.372V320.74H1046.49V314.74ZM992.372 317.74V257.68H986.372V317.74H992.372ZM990.887 260.27C1009.14 249.601 1022.17 240.332 1029.75 232.461L1025.43 228.299C1018.45 235.548 1006.01 244.479 987.858 255.09L990.887 260.27ZM1029.75 232.461C1037.31 224.616 1041.51 216.628 1041.51 208.54H1035.51C1035.51 214.452 1032.44 221.024 1025.43 228.299L1029.75 232.461ZM1041.51 208.54C1041.51 202.095 1039.65 196.765 1035.39 193.215L1031.55 197.825C1034.01 199.875 1035.51 203.225 1035.51 208.54H1041.51ZM1035.49 193.3C1031.56 189.723 1025.27 188.32 1017.51 188.32V194.32C1024.87 194.32 1029.23 195.717 1031.45 197.74L1035.49 193.3ZM1017.51 188.32C1008.87 188.32 998.451 189.471 986.304 191.731L987.401 197.629C999.334 195.409 1009.36 194.32 1017.51 194.32V188.32ZM986.359 191.721C974.492 193.699 964.631 196.118 956.831 199.007L958.914 204.633C966.234 201.922 975.693 199.581 987.346 197.639L986.359 191.721ZM960.872 201.82V147.22H954.872V201.82H960.872ZM958.974 150.01C969.413 145.89 979.977 143.01 990.669 141.365L989.756 135.435C978.608 137.15 967.612 140.15 956.771 144.43L958.974 150.01ZM990.742 141.353C1001.45 139.432 1013.86 138.46 1028.01 138.46V132.46C1013.6 132.46 1000.82 133.448 989.682 135.447L990.742 141.353ZM1047.27 346.72V403H1053.27V346.72H1047.27ZM1050.27 400H985.172V406H1050.27V400ZM988.172 403V346.72H982.172V403H988.172ZM985.172 349.72H1050.27V343.72H985.172V349.72Z" fill="#0066FF"/>
</g>
<g filter="url(#filter2_d)">
<path d="M94.3 403L93.3329 403.254L93.5291 404H94.3V403ZM25 139.66V138.66H23.7028L24.0329 139.914L25 139.66ZM95.56 139.66L96.5381 139.452L96.3695 138.66H95.56V139.66ZM123.28 269.86L122.302 270.068L122.306 270.085L122.31 270.103L123.28 269.86ZM126.64 287.92L125.651 288.067L125.653 288.084L125.657 288.102L126.64 287.92ZM133.36 331.6L132.37 331.741L134.348 331.756L133.36 331.6ZM137.98 300.94L136.994 300.776L136.992 300.785L136.991 300.793L137.98 300.94ZM143.44 270.28L144.419 270.486L144.419 270.482L143.44 270.28ZM170.32 139.66V138.66H169.505L169.341 139.458L170.32 139.66ZM238.36 139.66L239.338 139.452L239.17 138.66H238.36V139.66ZM266.08 269.86L265.102 270.068L265.106 270.085L265.11 270.103L266.08 269.86ZM269.44 287.92L268.451 288.067L268.453 288.084L268.457 288.102L269.44 287.92ZM276.16 331.6L275.17 331.741L277.148 331.756L276.16 331.6ZM280.78 300.94L279.794 300.776L279.792 300.785L279.791 300.793L280.78 300.94ZM286.24 270.28L287.219 270.486L287.219 270.482L286.24 270.28ZM313.12 139.66V138.66H312.305L312.141 139.458L313.12 139.66ZM381.58 139.66L382.547 139.913L382.875 138.66H381.58V139.66ZM312.7 403V404H313.472L313.667 403.253L312.7 403ZM237.52 403L236.541 403.206L236.709 404H237.52V403ZM220.72 323.2L219.741 323.404L219.741 323.406L220.72 323.2ZM212.32 280.78L211.337 280.965L212.32 280.78ZM203.5 231.64L204.486 231.471L202.516 231.463L203.5 231.64ZM193 287.92L192.019 287.724L193 287.92ZM185.86 323.2L186.839 323.406L186.84 323.401L185.86 323.2ZM169.06 403V404H169.871L170.039 403.206L169.06 403ZM95.2671 402.746L25.9671 139.405L24.0329 139.914L93.3329 403.254L95.2671 402.746ZM25 140.66H95.56V138.66H25V140.66ZM94.5819 139.868L122.302 270.068L124.258 269.652L96.5381 139.452L94.5819 139.868ZM122.31 270.103C123.419 274.537 124.533 280.521 125.651 288.067L127.629 287.773C126.507 280.199 125.381 274.143 124.25 269.617L122.31 270.103ZM125.657 288.102C127.052 295.639 129.29 310.179 132.37 331.741L134.35 331.459C131.27 309.901 129.028 295.321 127.623 287.738L125.657 288.102ZM134.348 331.756C135.189 326.431 136.729 316.206 138.969 301.087L136.991 300.793C134.751 315.914 133.211 326.129 132.372 331.444L134.348 331.756ZM138.966 301.104C141.487 285.982 143.304 275.782 144.419 270.486L142.461 270.074C141.336 275.418 139.513 285.658 136.994 300.776L138.966 301.104ZM144.419 270.482L171.299 139.862L169.341 139.458L142.461 270.078L144.419 270.482ZM170.32 140.66H238.36V138.66H170.32V140.66ZM237.382 139.868L265.102 270.068L267.058 269.652L239.338 139.452L237.382 139.868ZM265.11 270.103C266.219 274.537 267.333 280.521 268.451 288.067L270.429 287.773C269.307 280.199 268.181 274.143 267.05 269.617L265.11 270.103ZM268.457 288.102C269.852 295.639 272.09 310.179 275.17 331.741L277.15 331.459C274.07 309.901 271.828 295.321 270.423 287.738L268.457 288.102ZM277.148 331.756C277.989 326.431 279.529 316.206 281.769 301.087L279.791 300.793C277.551 315.914 276.011 326.129 275.172 331.444L277.148 331.756ZM281.766 301.104C284.287 285.982 286.104 275.782 287.219 270.486L285.261 270.074C284.136 275.418 282.313 285.658 279.794 300.776L281.766 301.104ZM287.219 270.482L314.099 139.862L312.141 139.458L285.261 270.078L287.219 270.482ZM313.12 140.66H381.58V138.66H313.12V140.66ZM380.613 139.407L311.733 402.747L313.667 403.253L382.547 139.913L380.613 139.407ZM312.7 402H237.52V404H312.7V402ZM238.499 402.794L221.699 322.994L219.741 323.406L236.541 403.206L238.499 402.794ZM221.699 322.996C218.9 309.563 216.102 295.429 213.303 280.595L211.337 280.965C214.138 295.811 216.94 309.957 219.741 323.404L221.699 322.996ZM213.303 280.595C210.504 265.761 207.565 249.386 204.486 231.471L202.514 231.809C205.595 249.734 208.536 266.119 211.337 280.965L213.303 280.595ZM202.516 231.463C198.036 256.382 194.537 275.134 192.019 287.724L193.981 288.116C196.503 275.506 200.004 256.738 204.484 231.817L202.516 231.463ZM192.019 287.724C189.5 300.323 187.12 312.081 184.88 322.999L186.84 323.401C189.08 312.479 191.46 300.717 193.981 288.116L192.019 287.724ZM184.881 322.994L168.081 402.794L170.039 403.206L186.839 323.406L184.881 322.994ZM169.06 402H94.3V404H169.06V402ZM466.686 403V404H467.686V403H466.686ZM401.586 403H400.586V404H401.586V403ZM401.586 139.66V138.66H400.586V139.66H401.586ZM466.686 139.66H467.686V138.66H466.686V139.66ZM466.686 240.04H465.686V241.04H466.686V240.04ZM559.086 240.04V241.04H560.086V240.04H559.086ZM559.086 139.66V138.66H558.086V139.66H559.086ZM624.186 139.66H625.186V138.66H624.186V139.66ZM624.186 403V404H625.186V403H624.186ZM559.086 403H558.086V404H559.086V403ZM559.086 298.84H560.086V297.84H559.086V298.84ZM466.686 298.84V297.84H465.686V298.84H466.686ZM466.686 402H401.586V404H466.686V402ZM402.586 403V139.66H400.586V403H402.586ZM401.586 140.66H466.686V138.66H401.586V140.66ZM465.686 139.66V240.04H467.686V139.66H465.686ZM466.686 241.04H559.086V239.04H466.686V241.04ZM560.086 240.04V139.66H558.086V240.04H560.086ZM559.086 140.66H624.186V138.66H559.086V140.66ZM623.186 139.66V403H625.186V139.66H623.186ZM624.186 402H559.086V404H624.186V402ZM560.086 403V298.84H558.086V403H560.086ZM559.086 297.84H466.686V299.84H559.086V297.84ZM465.686 298.84V403H467.686V298.84H465.686ZM827.876 139.66V138.66H827.268L826.988 139.199L827.876 139.66ZM895.076 139.66L895.953 140.141L896.766 138.66H895.076V139.66ZM803.096 307.24L802.219 306.759L802.096 306.984V307.24H803.096ZM803.096 403V404H804.096V403H803.096ZM737.996 403H736.996V404H737.996V403ZM737.996 307.24H738.996V306.977L738.867 306.749L737.996 307.24ZM643.496 139.66V138.66H641.784L642.625 140.151L643.496 139.66ZM717.836 139.66L718.737 139.227L718.465 138.66H717.836V139.66ZM770.756 249.7L769.855 250.133L770.722 251.936L771.643 250.161L770.756 249.7ZM827.876 140.66H895.076V138.66H827.876V140.66ZM894.199 139.179L802.219 306.759L803.973 307.721L895.953 140.141L894.199 139.179ZM802.096 307.24V403H804.096V307.24H802.096ZM803.096 402H737.996V404H803.096V402ZM738.996 403V307.24H736.996V403H738.996ZM738.867 306.749L644.367 139.169L642.625 140.151L737.125 307.731L738.867 306.749ZM643.496 140.66H717.836V138.66H643.496V140.66ZM716.935 140.093L769.855 250.133L771.657 249.267L718.737 139.227L716.935 140.093ZM771.643 250.161L828.763 140.121L826.988 139.199L769.868 249.239L771.643 250.161ZM1080.09 150.58L1079.47 151.361L1079.48 151.368L1080.09 150.58ZM1086.81 237.1L1085.96 236.57L1085.96 236.576L1085.96 236.583L1086.81 237.1ZM1046.49 277L1045.92 276.181L1045.49 276.48V277H1046.49ZM1046.49 317.74V318.74H1047.49V317.74H1046.49ZM989.372 317.74H988.372V318.74H989.372V317.74ZM989.372 257.68L988.868 256.817L988.372 257.106V257.68H989.372ZM1027.59 230.38L1028.31 231.074L1027.59 230.38ZM1033.47 195.52L1032.8 196.26L1032.82 196.274L1032.83 196.288L1033.47 195.52ZM986.852 194.68L987.017 195.666L987.026 195.665L987.035 195.663L986.852 194.68ZM957.872 201.82H956.872V203.257L958.22 202.758L957.872 201.82ZM957.872 147.22L957.505 146.29L956.872 146.54V147.22H957.872ZM990.213 138.4L990.365 139.388L990.377 139.386L990.389 139.384L990.213 138.4ZM1050.27 346.72H1051.27V345.72H1050.27V346.72ZM1050.27 403V404H1051.27V403H1050.27ZM985.172 403H984.172V404H985.172V403ZM985.172 346.72V345.72H984.172V346.72H985.172ZM1028.01 136.46C1049.99 136.46 1067.1 141.467 1079.47 151.361L1080.72 149.799C1067.88 139.533 1050.28 134.46 1028.01 134.46V136.46ZM1079.48 151.368C1092.08 161.232 1098.41 175.202 1098.41 193.42H1100.41C1100.41 174.678 1093.86 160.088 1080.71 149.792L1079.48 151.368ZM1098.41 193.42C1098.41 208.91 1094.27 223.287 1085.96 236.57L1087.66 237.63C1096.16 224.033 1100.41 209.29 1100.41 193.42H1098.41ZM1085.96 236.583C1077.93 249.862 1064.61 263.068 1045.92 276.181L1047.07 277.819C1065.89 264.612 1079.45 251.218 1087.67 237.617L1085.96 236.583ZM1045.49 277V317.74H1047.49V277H1045.49ZM1046.49 316.74H989.372V318.74H1046.49V316.74ZM990.372 317.74V257.68H988.372V317.74H990.372ZM989.877 258.543C1008.09 247.894 1020.93 238.737 1028.31 231.074L1026.87 229.686C1019.69 237.143 1007.05 246.186 988.868 256.817L989.877 258.543ZM1028.31 231.074C1035.68 223.419 1039.51 215.903 1039.51 208.54H1037.51C1037.51 215.177 1034.06 222.221 1026.87 229.686L1028.31 231.074ZM1039.51 208.54C1039.51 202.472 1037.77 197.802 1034.11 194.752L1032.83 196.288C1035.89 198.838 1037.51 202.848 1037.51 208.54H1039.51ZM1034.15 194.78C1030.78 191.721 1025.14 190.32 1017.51 190.32V192.32C1025.01 192.32 1030 193.719 1032.8 196.26L1034.15 194.78ZM1017.51 190.32C1009.03 190.32 998.745 191.45 986.67 193.697L987.035 195.663C999.04 193.43 1009.19 192.32 1017.51 192.32V190.32ZM986.688 193.694C974.892 195.66 965.165 198.053 957.525 200.882L958.22 202.758C965.7 199.987 975.293 197.62 987.017 195.666L986.688 193.694ZM958.872 201.82V147.22H956.872V201.82H958.872ZM958.24 148.15C968.813 143.977 979.521 141.057 990.365 139.388L990.06 137.412C979.064 139.103 968.212 142.063 957.505 146.29L958.24 148.15ZM990.389 139.384C1001.24 137.437 1013.78 136.46 1028.01 136.46V134.46C1013.69 134.46 1001.03 135.443 990.036 137.416L990.389 139.384ZM1049.27 346.72V403H1051.27V346.72H1049.27ZM1050.27 402H985.172V404H1050.27V402ZM986.172 403V346.72H984.172V403H986.172ZM985.172 347.72H1050.27V345.72H985.172V347.72Z" fill="#0066FF"/>
</g>
<defs>
<filter id="filter0_f" x="0.108398" y="111.46" width="1123.3" height="315.54" filterUnits="userSpaceOnUse" color-interpolation-filters="sRGB">
<feFlood flood-opacity="0" result="BackgroundImageFix"/>
<feBlend mode="normal" in="SourceGraphic" in2="BackgroundImageFix" result="shape"/>
<feGaussianBlur stdDeviation="10.5" result="effect1_foregroundBlur"/>
</filter>
<filter id="filter1_f" x="15.1084" y="126.46" width="1093.3" height="285.54" filterUnits="userSpaceOnUse" color-interpolation-filters="sRGB">
<feFlood flood-opacity="0" result="BackgroundImageFix"/>
<feBlend mode="normal" in="SourceGraphic" in2="BackgroundImageFix" result="shape"/>
<feGaussianBlur stdDeviation="3" result="effect1_foregroundBlur"/>
</filter>
<filter id="filter2_d" x="13.7031" y="124.46" width="1096.71" height="289.54" filterUnits="userSpaceOnUse" color-interpolation-filters="sRGB">
<feFlood flood-opacity="0" result="BackgroundImageFix"/>
<feColorMatrix in="SourceAlpha" type="matrix" values="0 0 0 0 0 0 0 0 0 0 0 0 0 0 0 0 0 0 127 0"/>
<feOffset/>
<feGaussianBlur stdDeviation="5"/>
<feColorMatrix type="matrix" values="0 0 0 0 0 0 0 0 0 0.4 0 0 0 0 1 0 0 0 1 0"/>
<feBlend mode="normal" in2="BackgroundImageFix" result="effect1_dropShadow"/>
<feBlend mode="normal" in="SourceGraphic" in2="effect1_dropShadow" result="shape"/>
</filter>
</defs>
</svg>
