<svg width="635" height="300" viewBox="0 0 635 300" fill="none" xmlns="http://www.w3.org/2000/svg">
<mask id="mask0_8308_6964" style="mask-type:alpha" maskUnits="userSpaceOnUse" x="0" y="0" width="635" height="300">
<rect width="635" height="299.999" fill="#D9D9D9"/>
</mask>
<g mask="url(#mask0_8308_6964)">
<mask id="mask1_8308_6964" style="mask-type:alpha" maskUnits="userSpaceOnUse" x="0" y="170" width="635" height="258">
<rect y="170" width="635" height="257.999" fill="url(#paint0_linear_8308_6964)"/>
</mask>
<g mask="url(#mask1_8308_6964)">
<path d="M0.0483398 336.406C23.9989 336.266 50.0983 338.011 73.6481 333.938C112.839 327.145 149.238 310.397 188.033 302.124C201.957 299.158 215.696 297.38 229.166 302.844C240.615 307.497 249.933 315.811 258.7 323.904C274.227 338.237 290.621 357.47 314.061 359.264C329.191 360.42 343.947 352.883 356.73 346.251C371.218 338.731 385.018 330.124 399.501 322.599C412.496 315.844 427.895 307.859 443.329 309.587C456.628 311.076 467.79 319.366 477.275 327.577C495.845 343.659 514.899 369.471 543.464 367.072C576.305 364.324 600.798 338.307 634.149 336.406" stroke="#0066FF" stroke-opacity="0.15" stroke-miterlimit="10"/>
<path d="M0.0527344 331.578C24.1045 331.323 50.1247 333.524 73.7582 329.167C112.253 322.071 147.834 305.047 185.919 296.481C200.01 293.309 213.388 291.66 227.052 297.16C238.708 301.846 248.356 310.074 257.445 318.097C273.487 332.273 290.572 351.7 314.012 354.148C329.05 355.719 343.859 348.162 356.532 341.534C370.843 334.051 384.437 325.436 398.744 317.944C411.712 311.152 427.111 303.228 442.523 305.281C455.782 307.046 467.108 315.455 476.725 323.576C495.391 339.333 514.996 364.659 543.218 362.331C576.138 359.611 600.709 333.446 634.141 331.578" stroke="#0066FF" stroke-opacity="0.15" stroke-miterlimit="10"/>
<path d="M0.0615234 326.837C24.2498 326.533 50.1995 329.347 73.9783 324.735C111.69 317.42 146.341 300.174 183.625 291.411C197.835 288.062 210.9 286.569 224.718 291.999C236.555 296.652 246.59 304.666 256.018 312.627C272.597 326.615 290.471 345.971 313.889 349.012C328.79 350.949 343.484 343.548 356.043 336.949C370.112 329.544 383.42 320.983 397.48 313.582C410.409 306.777 425.662 299.08 441.004 301.425C454.276 303.457 465.804 311.903 475.637 319.938C494.55 335.365 514.797 360.058 542.804 357.762C575.869 355.055 600.577 328.721 634.154 326.862" stroke="#0066FF" stroke-opacity="0.15" stroke-miterlimit="10"/>
<path d="M0.0708008 322.183C24.4265 321.891 50.3629 325.449 74.3091 320.603C111.157 313.153 144.8 295.73 181.208 286.815C195.475 283.322 208.294 282.009 222.226 287.284C234.274 291.842 244.684 299.626 254.477 307.442C271.748 321.179 290.247 340.256 313.731 343.856C328.456 346.11 342.891 339.03 355.326 332.476C369.087 325.219 382.055 316.732 395.807 309.466C408.687 302.658 423.646 295.343 438.895 297.947C452.229 300.23 463.995 308.644 474.123 316.567C493.415 331.653 514.384 355.589 542.24 353.306C575.509 350.578 600.406 324.067 634.185 322.195" stroke="#0066FF" stroke-opacity="0.15" stroke-miterlimit="10"/>
<path d="M0.0751953 317.621C24.629 317.391 50.5567 321.805 74.7186 316.749C110.642 309.232 143.215 291.653 178.685 282.689C192.943 279.077 205.586 277.953 219.589 282.997C231.852 287.416 242.628 294.928 252.822 302.506C270.876 315.93 289.939 334.55 313.511 338.668C341.957 343.642 370.703 317.757 393.755 305.554C406.587 298.758 421.14 291.949 436.258 294.8C449.697 297.339 461.71 305.67 472.185 313.474C491.966 328.206 513.719 351.286 541.505 348.99C575.02 346.226 600.155 319.522 634.176 317.621" stroke="#0066FF" stroke-opacity="0.15" stroke-miterlimit="10"/>
<path d="M0.0834961 313.154C24.8531 313.027 50.7852 318.387 75.1981 313.154C110.157 305.634 141.607 287.972 176.091 278.979C190.301 275.276 202.82 274.355 216.862 279.106C229.351 283.34 240.5 290.519 251.095 297.858C269.933 310.9 289.564 328.898 313.255 333.527C341.27 338.99 368.778 313.853 391.403 301.849C403.913 295.221 418.498 288.54 433.201 291.954C446.852 295.122 458.878 302.803 469.948 310.62C490.297 324.978 512.886 347.124 540.672 344.803C574.473 341.985 599.877 315.079 634.185 313.125" stroke="#0066FF" stroke-opacity="0.15" stroke-miterlimit="10"/>
<path d="M0.0922852 308.772C25.0952 308.772 51.0538 315.161 75.7397 309.735C109.704 302.268 140 284.532 173.466 275.588C231.592 260.041 261.914 317.436 312.973 328.421C340.494 334.349 366.612 310.117 388.827 298.355C401.28 291.773 415.301 285.779 429.819 289.387C443.642 292.822 455.949 300.334 467.464 308.003C488.447 321.99 511.913 343.128 539.756 340.771C573.87 337.891 599.573 310.776 634.198 308.772" stroke="#0066FF" stroke-opacity="0.15" stroke-miterlimit="10"/>
<path d="M0.101074 304.485C25.3462 304.657 51.3488 312.095 76.3297 306.509C109.281 299.14 138.419 281.364 170.842 272.498C227.765 256.939 262.434 311.581 312.669 323.351C339.715 329.695 364.264 306.537 386.075 295.002C398.475 288.444 411.884 283.24 426.195 287.012C440.202 290.715 452.823 298.038 464.8 305.546C486.457 319.122 510.817 339.244 538.779 336.833C573.227 333.867 599.252 306.554 634.211 304.485" stroke="#0066FF" stroke-opacity="0.15" stroke-miterlimit="10"/>
<path d="M0.110352 300.287C25.6065 300.637 51.6619 309.161 76.9555 303.434C108.898 296.202 136.843 278.404 168.262 269.658C223.979 254.144 262.936 305.8 312.357 318.356C338.918 325.103 361.799 303.085 383.226 291.775C395.582 285.254 408.326 280.885 422.417 284.781C436.618 288.727 449.565 295.889 462.018 303.212C484.37 316.377 509.628 335.45 537.731 332.985C572.519 329.929 598.887 302.41 634.194 300.271" stroke="#0066FF" stroke-opacity="0.15" stroke-miterlimit="10"/>
<path d="M0.118164 296.183C25.8609 296.714 51.9912 306.328 77.6194 300.482C108.576 293.414 135.367 275.609 165.773 267.01C220.305 251.587 263.429 300.141 312.039 313.449C338.12 320.591 359.284 299.746 380.345 288.654C392.649 282.175 404.772 278.665 418.629 282.701C433.029 286.898 446.314 293.879 459.234 301.021C482.286 313.774 508.434 331.794 536.713 329.268C571.866 326.125 598.56 298.413 634.219 296.183" stroke="#0066FF" stroke-opacity="0.15" stroke-miterlimit="10"/>
<path d="M0.127441 292.171C26.108 292.879 52.3263 303.559 78.2496 297.614C108.255 290.731 133.914 272.93 163.351 264.5C216.805 249.196 263.927 294.59 311.749 308.644C337.355 316.172 356.796 296.499 377.514 285.605C389.765 279.167 401.293 276.517 414.887 280.668C429.484 285.12 443.104 291.941 456.486 298.885C480.217 311.203 507.237 328.206 535.709 325.626C571.215 322.397 598.239 294.458 634.246 292.179" stroke="#0066FF" stroke-opacity="0.15" stroke-miterlimit="10"/>
<path d="M0.13623 288.247C26.3766 289.123 52.6565 300.828 78.8969 294.8C107.999 288.115 132.575 270.326 161.097 262.077C213.524 246.913 264.415 289.156 311.436 303.954C336.615 311.878 354.317 293.295 374.749 282.619C386.96 276.242 397.885 274.391 411.249 278.661C426.036 283.368 439.987 290.053 453.805 296.796C478.187 308.689 506.039 324.693 534.71 322.048C570.55 318.736 597.891 290.596 634.228 288.247" stroke="#0066FF" stroke-opacity="0.15" stroke-miterlimit="10"/>
<path d="M0.145508 284.417C26.6324 285.437 52.9873 298.104 79.5226 292.015C107.793 285.532 131.352 267.743 159.019 259.687C185.858 251.871 214.41 260.695 239.479 270.125C263.654 279.221 286.636 291.151 311.172 299.4C336.034 307.76 351.891 290.053 372.169 279.653C399.096 265.85 426.675 283.355 451.322 294.706C476.294 306.192 504.93 321.241 533.79 318.539C569.947 315.157 597.588 286.819 634.247 284.413" stroke="#0066FF" stroke-opacity="0.15" stroke-miterlimit="10"/>
<path d="M0.15332 280.673C26.8868 281.812 53.2461 295.356 80.1205 289.222C107.638 282.936 130.259 265.159 157.181 257.28C183.774 249.488 213.079 257.951 238.267 266.586C262.931 275.045 286.406 286.214 310.938 295.002C335.469 303.79 349.798 286.951 369.817 276.699C396.132 263.225 424.86 282.047 449.079 292.599C474.575 303.707 503.938 317.843 532.957 315.103C569.396 311.66 597.309 283.133 634.237 280.673" stroke="#0066FF" stroke-opacity="0.15" stroke-miterlimit="10"/>
<path d="M0.163086 277.023C27.1476 278.257 53.4848 292.558 80.6719 286.386C107.533 280.294 129.322 262.525 155.531 254.799C181.921 247.044 211.896 255.161 237.198 263.08C262.298 270.942 286.244 281.441 310.736 290.768C322.291 295.166 330.759 295.347 341.93 289.674C351.01 285.062 358.69 278.364 367.757 273.719C379.853 267.515 389.488 267.688 402.157 272.3C417.38 277.85 432.21 284.231 447.147 290.431C473.07 301.16 503.071 314.473 532.222 311.708C568.912 308.228 597.059 279.512 634.251 277.023" stroke="#0066FF" stroke-opacity="0.15" stroke-miterlimit="10"/>
<path d="M0.172363 273.462C27.4079 274.696 53.6658 289.679 81.17 283.488C107.498 277.559 128.543 259.725 154.224 252.196C180.477 244.499 211.002 252.279 236.406 259.602C261.809 266.925 286.2 276.881 310.613 286.754C321.895 291.317 330.143 291.963 341.217 286.318C349.998 281.842 357.325 275.235 366.084 270.726C378.114 264.53 387.599 265.188 400.048 269.952C415.346 275.807 430.406 282.175 445.624 288.202C471.873 298.594 502.46 311.167 531.655 308.394C568.547 304.893 596.883 276.004 634.256 273.499" stroke="#0066FF" stroke-opacity="0.15" stroke-miterlimit="10"/>
<path d="M0.180664 269.997C27.6716 271.199 53.7798 286.7 81.5922 280.492C107.529 274.696 127.917 256.725 153.241 249.419C179.46 241.845 210.315 249.271 235.877 256.071C261.646 262.921 286.248 272.462 310.56 282.878C321.613 287.61 329.768 288.605 340.759 282.961C349.302 278.579 356.334 272.013 364.85 267.591C376.823 261.374 386.3 262.382 398.559 267.327C413.879 273.498 429.115 279.883 444.567 285.783C470.988 295.875 502.085 307.797 531.258 305.045C568.296 301.548 596.768 272.495 634.299 269.997" stroke="#0066FF" stroke-opacity="0.15" stroke-miterlimit="10"/>
<path d="M0.189453 266.618C27.9314 267.708 53.815 283.584 81.9357 277.36C107.604 271.678 127.551 253.63 152.572 246.41C178.707 238.873 209.967 246.138 235.595 252.515C261.628 258.995 286.341 268.276 310.538 279.256C321.41 284.193 329.609 285.386 340.543 279.705C348.91 275.356 355.722 268.786 364.075 264.396C376.004 258.127 385.613 259.311 397.727 264.483C413.016 271.008 428.366 277.438 443.99 283.239C470.49 293.075 501.948 304.463 531.003 301.752C568.128 298.292 596.672 269.082 634.291 266.618" stroke="#0066FF" stroke-opacity="0.15" stroke-miterlimit="10"/>
<path d="M0.202148 263.328C28.085 264.307 53.7881 280.356 82.0804 274.073C107.66 268.396 127.489 250.364 152.43 243.185C178.539 235.673 209.94 243.087 235.577 249.327C261.703 255.688 286.336 264.899 310.564 275.929C321.396 280.866 329.71 281.894 340.569 276.25C348.878 271.93 355.647 265.417 363.956 261.085C375.845 254.89 385.63 256.042 397.629 261.361C412.852 268.108 428.22 274.588 443.91 280.331C470.282 289.986 502.15 301.247 530.98 298.433C568.053 294.82 596.781 266.104 634.303 263.34" stroke="#0066FF" stroke-opacity="0.15" stroke-miterlimit="10"/>
<path d="M0.211914 260.09C28.1564 261.02 53.7847 277.176 82.1431 270.819C107.683 265.093 127.613 247.213 152.572 240.079C178.681 232.617 210.011 240.355 235.609 246.637C261.651 253.03 286.178 262.225 310.574 272.732C333.665 282.676 345.11 267.384 364.129 257.848C376.018 251.887 385.864 252.973 397.754 258.313C412.911 265.122 428.252 271.585 443.937 277.262C470.156 286.749 502.438 298.063 531.06 295.01C567.975 291.069 597.055 263.521 634.326 260.152" stroke="#0066FF" stroke-opacity="0.15" stroke-miterlimit="10"/>
<path d="M0.220703 256.902C28.2489 257.799 53.8155 274.074 82.2619 267.664C107.802 261.905 127.812 244.214 152.784 237.146C178.892 229.741 210.13 237.776 235.688 244.079C261.629 250.476 286.064 259.63 310.6 269.606C333.498 278.92 345.352 263.9 364.384 254.796C376.273 249.094 386.208 250.147 397.991 255.495C413.078 262.341 428.375 268.754 444.056 274.333C470.169 283.627 502.772 294.821 531.157 291.563C567.887 287.35 597.324 261 634.322 257.095" stroke="#0066FF" stroke-opacity="0.15" stroke-miterlimit="10"/>
<path d="M0.229004 253.771C28.354 254.643 53.881 271.05 82.4332 264.611C107.943 258.86 128.071 241.371 153.061 234.377C179.169 227.096 210.306 235.332 235.815 241.639C261.633 248.015 286.015 257.099 310.639 266.524C333.374 275.217 345.634 260.53 364.714 251.85C376.634 246.431 386.643 247.485 398.339 252.829C413.341 259.687 428.608 266.027 444.263 271.474C470.309 280.545 503.111 291.464 531.302 288.037C567.851 283.598 597.627 258.486 634.343 254.1" stroke="#0066FF" stroke-opacity="0.15" stroke-miterlimit="10"/>
<path d="M0.237793 250.692C28.4817 251.556 53.9603 268.09 82.6577 261.648C108.145 255.929 128.397 238.638 153.408 231.784C179.508 224.63 210.486 233.051 235.987 239.337C261.664 245.673 285.971 254.662 310.696 263.52C333.26 271.604 345.951 257.303 365.119 249.092C377.079 243.966 387.167 245.056 398.788 250.384C413.673 257.277 428.948 263.41 444.545 268.757C470.569 277.577 503.463 288.093 531.491 284.51C567.802 279.889 597.944 256.045 634.339 251.243" stroke="#0066FF" stroke-opacity="0.15" stroke-miterlimit="10"/>
<path d="M0.251465 247.674C28.6231 248.538 54.0928 265.216 82.9312 258.782C108.397 253.109 128.785 236.048 153.827 229.334C179.918 222.34 210.764 230.893 236.216 237.15C261.757 243.42 285.998 252.286 310.78 260.567C333.177 268.055 346.325 254.178 365.608 246.464C377.625 241.655 387.789 242.807 399.343 248.11C414.139 254.957 429.358 260.976 444.919 266.134C470.957 274.678 503.847 284.622 531.725 280.944C567.803 276.184 598.288 253.643 634.366 248.468" stroke="#0066FF" stroke-opacity="0.15" stroke-miterlimit="10"/>
<path d="M0.259277 244.721C28.7762 245.589 54.2415 262.411 83.2429 256.026C108.691 250.423 129.224 233.609 154.275 227.055C180.353 220.234 211.036 228.89 236.466 235.094C261.817 241.265 286.05 249.991 310.859 257.684C333.096 264.584 346.729 251.18 366.144 243.989C378.228 239.513 388.47 240.751 399.976 246.046C414.671 252.828 429.821 258.711 445.332 263.658C471.414 271.886 504.202 281.167 531.962 277.403C567.789 272.548 598.604 251.336 634.356 245.844" stroke="#0066FF" stroke-opacity="0.15" stroke-miterlimit="10"/>
<path d="M0.269043 241.823C28.9445 242.712 54.4319 259.695 83.6005 253.343C109.031 247.838 129.714 231.291 154.792 224.915C180.851 218.291 211.367 227.009 236.74 233.143C261.915 239.231 286.121 247.76 310.939 254.861C333.022 261.176 347.166 248.278 366.727 241.638C378.885 237.524 389.206 238.857 400.677 244.107C415.275 250.808 430.362 256.534 445.826 261.242C471.992 269.153 504.595 277.648 532.253 273.818C567.82 268.881 598.953 249.048 634.37 243.271" stroke="#0066FF" stroke-opacity="0.15" stroke-miterlimit="10"/>
<path d="M0.277832 238.993C29.125 239.907 54.608 257.054 83.9924 250.788C109.405 245.366 130.251 229.099 155.355 222.92C181.393 216.514 211.72 225.261 237.057 231.317C262.056 237.294 286.24 245.609 311.036 252.109C332.97 257.869 347.655 245.498 367.369 239.43C379.611 235.665 390.012 237.142 401.457 242.309C415.952 248.909 430.968 254.46 446.372 258.914C472.639 266.463 504.978 274.082 532.557 270.207C567.86 265.27 599.288 246.798 634.37 240.783" stroke="#0066FF" stroke-opacity="0.15" stroke-miterlimit="10"/>
<path d="M0.286133 236.232C29.3139 237.179 54.8232 254.49 84.3926 248.311C109.818 243.016 130.827 227.029 155.962 221.064C181.974 214.893 212.089 223.635 237.427 229.6C262.24 235.451 286.407 243.526 311.176 249.422C332.96 254.61 348.218 242.815 368.096 237.347C380.425 233.957 390.901 235.578 402.337 240.721C416.727 247.205 431.668 252.562 447.006 256.737C473.374 263.899 505.387 270.58 532.905 266.66C567.93 261.694 599.639 244.662 634.387 238.442" stroke="#0066FF" stroke-opacity="0.15" stroke-miterlimit="10"/>
<path d="M0.294922 233.553C29.5032 234.528 55.0434 252.005 84.8726 245.928C110.259 240.753 131.444 225.078 156.605 219.339C182.586 213.411 212.494 222.133 237.775 227.979C262.408 233.689 286.556 241.497 311.273 246.792C332.921 251.433 348.782 240.21 368.813 235.372C381.231 232.364 391.791 234.137 403.231 239.243C417.512 245.597 432.373 250.745 447.636 254.625C474.175 261.372 505.792 267.008 533.266 263.096C568.018 258.159 599.978 242.559 634.396 236.161" stroke="#0066FF" stroke-opacity="0.15" stroke-miterlimit="10"/>
<path d="M0.304199 230.921C29.7238 231.954 55.3125 249.599 85.353 243.638C110.735 238.606 132.105 223.244 157.284 217.744C183.242 212.079 212.926 220.751 238.171 226.499C262.619 232.065 286.751 239.577 311.401 244.271C332.921 248.385 349.408 237.767 369.589 233.575C382.099 230.962 392.738 232.925 404.196 237.96C418.368 244.172 433.147 249.097 448.327 252.668C475.03 258.971 506.207 263.525 533.645 259.608C568.124 254.692 600.314 240.581 634.405 234.036" stroke="#0066FF" stroke-opacity="0.15" stroke-miterlimit="10"/>
<path d="M0.3125 228.375C29.9435 229.462 55.5762 247.275 85.8677 241.446C111.227 236.562 132.769 221.526 157.992 216.276C183.916 210.878 213.37 219.489 238.576 225.109C262.848 230.519 286.948 237.714 311.52 241.808C332.929 245.375 350.054 235.398 370.39 231.831C382.988 229.622 393.702 231.778 405.199 236.768C419.261 242.825 433.954 247.513 449.045 250.756C475.906 256.581 506.607 260.004 534.032 256.104C568.243 251.245 600.635 238.623 634.414 231.946" stroke="#0066FF" stroke-opacity="0.15" stroke-miterlimit="10"/>
<path d="M0.321289 225.905C30.1593 227.049 55.858 245.031 86.3829 239.341C111.747 234.614 133.469 219.911 158.723 214.921C184.611 209.807 213.833 218.331 239.021 223.819C263.121 229.073 287.186 235.923 311.678 239.42C332.995 242.46 350.772 233.133 371.253 230.225C383.944 228.419 394.732 230.78 406.274 235.696C420.226 241.597 434.833 246.042 449.829 248.952C476.87 254.271 507.047 256.526 534.463 252.654C568.37 247.857 600.956 236.758 634.422 229.97" stroke="#0066FF" stroke-opacity="0.15" stroke-miterlimit="10"/>
<path d="M0.330566 223.516C30.3843 224.721 56.1491 242.851 86.925 237.335C112.289 232.772 134.192 218.402 159.477 213.683C185.33 208.87 214.313 217.287 239.47 222.635C263.408 227.724 287.429 234.208 311.815 237.112C333.057 239.643 351.482 230.978 372.094 228.728C384.864 227.333 395.737 229.909 407.322 234.763C421.166 240.496 435.685 244.687 450.578 247.249C477.791 252.034 507.435 253.1 534.851 249.257C568.512 244.542 601.225 234.977 634.401 228.09" stroke="#0066FF" stroke-opacity="0.15" stroke-miterlimit="10"/>
<path d="M0.338867 221.212C30.6128 222.479 56.4524 240.795 87.4749 235.422C112.835 231.024 134.931 216.999 160.247 212.573C186.056 208.047 214.797 216.37 239.95 221.57C263.729 226.507 287.697 232.592 311.982 234.908C333.185 236.932 352.239 228.943 373.01 227.354C385.872 226.371 396.789 229.173 408.484 233.962C422.222 239.524 436.651 243.454 451.436 245.662C513.525 255.243 574.368 239.079 634.462 226.326" stroke="#0066FF" stroke-opacity="0.15" stroke-miterlimit="10"/>
<path d="M0.347656 218.982C30.8462 220.319 56.7606 238.795 88.0386 233.591C113.398 229.37 135.684 215.695 161.031 211.527C186.795 207.29 215.295 215.51 240.395 220.558C264.037 225.326 287.935 231.015 312.11 232.731C333.308 234.249 352.961 226.971 373.886 226.025C386.823 225.449 397.832 228.494 409.594 233.212C423.174 238.696 437.596 242.193 452.237 244.127C512.745 252.12 575.856 237.281 634.449 224.614" stroke="#0066FF" stroke-opacity="0.15" stroke-miterlimit="10"/>
<path d="M0.356934 216.845C31.08 218.252 57.0738 236.888 88.6071 231.857C113.971 227.796 136.442 214.487 161.819 210.6C187.54 206.663 215.793 214.771 240.866 219.651C264.381 224.238 288.195 229.524 312.26 230.68C333.498 231.701 353.705 225.11 374.789 224.834C387.802 224.666 398.881 227.949 410.735 232.61C424.227 237.913 438.552 241.109 453.07 242.697C480.728 245.721 508.774 243.146 536.203 239.447C569.115 235.008 602.075 230.137 634.458 222.991" stroke="#0066FF" stroke-opacity="0.15" stroke-miterlimit="10"/>
<path d="M0.365234 214.791C31.0487 216.243 57.0072 234.912 88.5097 230.313C113.772 226.61 136.287 213.82 161.467 209.94C186.919 206.019 214.603 213.799 239.457 218.497C263.482 223.023 287.82 228.079 312.413 228.712C334.246 229.276 355.519 223.047 377.303 223.776C390.452 224.216 401.412 228.231 413.465 232.691C425.984 237.323 439.203 239.977 452.572 241.231C481.027 243.901 509.249 239.964 537.365 236.249C569.819 231.963 602.563 228.663 634.48 221.496" stroke="#0066FF" stroke-opacity="0.15" stroke-miterlimit="10"/>
<path d="M0.369629 212.827C31.2644 214.35 57.3286 233.175 89.0645 228.753C114.332 225.231 137.027 212.778 162.246 209.182C187.645 205.579 215.11 213.247 239.928 217.793C263.839 222.179 288.084 226.844 312.55 226.844C334.51 226.844 356.254 221.442 378.219 222.82C391.385 223.643 402.438 227.889 414.583 232.254C427.018 236.722 440.15 239.096 453.404 240.034C481.952 242.054 509.685 236.858 537.797 233.245C570.039 229.103 602.779 227.338 634.471 220.08" stroke="#0066FF" stroke-opacity="0.15" stroke-miterlimit="10"/>
<path d="M0.378418 210.961C31.5066 212.554 57.6236 231.532 89.6281 227.282C114.904 223.925 137.776 211.821 163.03 208.505C188.376 205.169 215.625 212.784 240.43 217.182C264.208 221.407 288.362 225.653 312.7 225.052C334.818 224.505 356.99 219.914 379.139 221.934C392.323 223.139 403.464 227.611 415.688 231.881C428.018 236.189 441.087 238.283 454.219 238.904C482.841 240.266 510.116 233.835 538.219 230.322C570.259 226.315 602.951 226.093 634.457 218.745" stroke="#0066FF" stroke-opacity="0.15" stroke-miterlimit="10"/>
<path d="M0.387207 209.188C31.7312 210.833 57.9583 229.972 90.1874 225.899C115.468 222.702 138.516 210.928 163.809 207.908C189.103 204.888 216.131 212.401 240.87 216.646C264.592 220.719 288.63 224.566 312.836 223.36C335.149 222.25 357.699 218.481 380.033 221.135C393.244 222.702 404.464 227.417 416.802 231.588C429.141 235.76 442.043 237.554 455.051 237.866C483.673 238.562 510.588 230.926 538.66 227.511C570.514 223.636 603.179 224.952 634.475 217.498" stroke="#0066FF" stroke-opacity="0.15" stroke-miterlimit="10"/>
<path d="M0.391602 207.509C31.9513 209.237 58.2709 228.491 90.729 224.607C116.023 221.567 139.238 210.15 164.567 207.386C189.79 204.634 216.651 212.096 241.346 216.198C264.997 220.123 288.903 223.566 312.99 221.768C335.523 220.086 358.408 217.136 380.94 220.411C394.111 222.328 405.463 227.29 417.89 231.367C430.088 235.365 442.99 236.904 455.857 236.916C484.479 236.949 511.05 228.145 539.082 224.821C570.788 221.061 603.373 223.912 634.475 216.338" stroke="#0066FF" stroke-opacity="0.15" stroke-miterlimit="10"/>
<path d="M0.395996 205.932C32.1671 207.717 58.566 227.131 91.2574 223.396C116.564 220.516 139.947 209.408 165.306 206.94C190.503 204.471 217.096 211.876 241.795 215.834C265.397 219.603 289.185 222.659 313.131 220.277C335.906 218.015 359.086 215.883 381.825 219.767C394.992 222.009 406.441 227.222 418.96 231.204C431.1 235.063 443.892 236.326 456.64 236.046C485.219 235.425 511.512 225.494 539.505 222.248C571.03 218.595 603.532 222.98 634.488 215.254" stroke="#0066FF" stroke-opacity="0.15" stroke-miterlimit="10"/>
<path d="M0.404785 204.455C32.374 206.302 58.8654 225.848 91.7726 222.277C117.093 219.525 140.651 208.775 166.024 206.541C191.168 204.328 217.545 211.72 242.231 215.53C265.789 219.155 289.458 221.829 313.268 218.875C336.298 216.02 359.764 214.695 382.662 219.175C395.815 221.746 407.361 227.206 419.99 231.106C432.056 234.808 444.782 235.829 457.42 235.265C485.924 234.002 511.992 222.993 539.937 219.817C571.312 216.25 603.717 222.158 634.523 214.279" stroke="#0066FF" stroke-opacity="0.15" stroke-miterlimit="10"/>
<path d="M0.409668 203.082C32.5551 204.987 59.1433 224.672 92.2618 221.245C117.595 218.621 141.286 208.196 166.716 206.209C191.816 204.25 217.999 211.631 242.645 215.309C266.173 218.826 289.723 221.097 313.391 217.584C336.69 214.128 360.368 213.593 383.464 218.654C396.591 221.533 408.247 227.24 420.96 231.049C432.963 234.645 445.619 235.39 458.125 234.558C486.527 232.67 512.415 220.645 540.307 217.51C571.572 214.009 603.845 221.431 634.515 213.363" stroke="#0066FF" stroke-opacity="0.15" stroke-miterlimit="10"/>
<path d="M0.413574 201.82C32.7615 203.77 59.4202 223.588 92.7237 220.296C118.079 217.795 141.915 207.679 167.372 205.934C192.432 204.219 218.412 211.599 243.037 215.162C266.542 218.564 289.978 220.457 313.514 216.396C337.051 212.336 360.962 212.574 384.239 218.194C397.334 221.358 409.105 227.245 421.888 231.038C433.778 234.572 446.451 235.016 458.803 233.918C487.091 231.45 512.833 218.453 540.668 215.36C571.796 211.9 603.977 220.823 634.515 212.537" stroke="#0066FF" stroke-opacity="0.15" stroke-miterlimit="10"/>
<path d="M0.440918 200.643C32.965 202.634 59.6809 222.583 93.1826 219.419C118.529 217.037 142.506 207.225 167.993 205.707C192.996 204.218 218.809 211.623 243.407 215.083C266.9 218.374 290.225 219.909 313.625 215.313C337.466 210.636 361.517 211.611 384.962 217.782C398.031 221.213 409.903 227.322 422.761 231.062C434.602 234.505 447.209 234.703 459.433 233.382C472.771 231.938 485.775 228.63 498.58 224.961C512.398 221.007 526.617 214.976 541.012 213.38C572.035 209.936 604.105 220.341 634.52 211.808" stroke="#0066FF" stroke-opacity="0.15" stroke-miterlimit="10"/>
<path d="M0.440918 199.613C33.1235 201.637 59.8879 221.714 93.5833 218.657C118.952 216.353 143.056 206.813 168.575 205.521C193.538 204.242 219.166 211.692 243.742 215.066C267.235 218.283 290.467 219.455 313.731 214.342C337.831 209.043 362.041 210.725 385.657 217.431C398.67 221.134 410.643 227.428 423.567 231.114C435.359 234.476 447.909 234.451 460.014 232.904C473.326 231.209 486.255 227.613 498.985 223.709C512.702 219.505 526.943 213.161 541.334 211.552C572.259 208.101 604.228 219.965 634.524 211.141" stroke="#0066FF" stroke-opacity="0.15" stroke-miterlimit="10"/>
<path d="M0.440918 198.68C33.2733 200.737 60.1081 220.932 93.9488 217.966C119.335 215.736 143.554 206.484 169.094 205.377C194.022 204.295 219.479 211.832 244.037 215.119C267.534 218.258 290.683 219.102 313.81 213.474C338.188 207.562 362.508 209.907 386.291 217.127C399.255 221.06 411.316 227.548 424.307 231.193C436.051 234.484 448.526 234.254 460.543 232.505C473.824 230.572 486.686 226.704 499.351 222.586C512.975 218.156 527.234 211.532 541.624 209.899C572.449 206.402 604.343 219.711 634.538 210.569" stroke="#0066FF" stroke-opacity="0.15" stroke-miterlimit="10"/>
<path d="M0.440918 197.861C33.4098 199.918 60.2886 220.254 94.2747 217.358C119.692 215.19 144.034 206.192 169.601 205.267C194.502 204.361 219.8 212.009 244.332 215.231C267.838 218.312 290.921 218.843 313.907 212.734C338.536 206.188 362.918 209.15 386.868 216.848C399.788 221.007 411.928 227.663 424.972 231.275C436.676 234.513 449.107 234.102 461.01 232.168C474.273 230.012 487.065 225.898 499.672 221.583C513.222 216.938 527.489 210.088 541.897 208.418C572.66 204.847 604.475 219.567 634.538 210.064" stroke="#0066FF" stroke-opacity="0.15" stroke-miterlimit="10"/>
<path d="M0.440918 197.164C33.5375 199.221 60.4427 219.684 94.5609 216.833C119.982 214.71 144.435 205.952 170.023 205.17C194.899 204.425 220.029 212.209 244.561 215.385C268.08 218.429 291.119 218.676 313.973 212.094C338.857 204.923 363.252 208.445 387.379 216.619C400.242 220.98 412.453 227.789 425.544 231.376C437.213 234.577 449.583 234.009 461.402 231.911C474.647 229.554 487.382 225.218 499.936 220.721C513.424 215.887 527.678 208.86 542.126 207.145C572.823 203.463 604.598 219.569 634.542 209.646" stroke="#0066FF" stroke-opacity="0.15" stroke-miterlimit="10"/>
<path d="M0.440918 196.578C33.3745 198.635 60.1917 219.098 94.1117 216.445C120.916 214.351 146.826 204.893 173.872 205.086C196.995 205.251 220.197 212.347 243.037 215.4C267.305 218.642 290.533 218.551 314.035 211.611C340.095 203.934 364.512 207.97 389.629 217.099C400.889 221.188 411.616 226.767 422.959 230.597C434.963 234.649 448.143 234.254 460.494 232.004C474.511 229.453 487.928 224.599 501.147 219.662C514.472 214.668 528.638 207.637 543.007 205.991C573.391 202.531 604.99 219.613 634.538 209.311" stroke="#0066FF" stroke-opacity="0.15" stroke-miterlimit="10"/>
<path d="M0.440918 196.117C33.467 198.145 60.2842 218.744 94.2967 216.087C121.109 213.989 147.138 204.753 174.176 205.061C197.281 205.328 220.364 212.623 243.192 215.679C267.477 218.929 290.701 218.609 314.088 211.216C340.412 202.889 364.701 207.398 390.026 216.975C401.232 221.213 411.99 226.841 423.364 230.675C435.342 234.731 448.464 234.254 460.745 231.876C474.753 229.165 488.118 224.101 501.297 219.032C514.604 213.914 528.766 206.805 543.17 205.078C573.497 201.465 605.131 219.826 634.542 209.027" stroke="#0066FF" stroke-opacity="0.15" stroke-miterlimit="10"/>
<path d="M0.440918 195.787C33.5331 197.782 60.3282 218.505 94.4376 215.806C121.255 213.683 147.341 204.645 174.414 205.052C197.51 205.397 220.483 212.926 243.302 216.008C267.6 219.299 290.859 218.776 314.096 210.939C340.676 201.979 364.772 206.866 390.312 216.847C401.492 221.212 412.276 226.897 423.659 230.777C435.628 234.854 448.636 234.34 460.908 231.851C489.262 226.091 514.666 208.059 543.293 204.422C573.567 200.576 605.285 220.175 634.542 208.833" stroke="#0066FF" stroke-opacity="0.15" stroke-miterlimit="10"/>
<path d="M0.440918 195.578C33.5859 197.532 60.3723 218.378 94.5213 215.613C121.343 213.437 147.517 204.576 174.577 205.049C197.677 205.46 220.549 213.252 243.359 216.387C267.666 219.727 291.005 219.053 314.11 210.792C340.922 201.202 364.75 206.373 390.532 216.757C401.62 221.213 412.43 227.116 423.84 230.844C435.958 234.797 448.574 234.476 460.979 231.876C489.381 225.919 514.644 207.871 543.372 203.971C573.607 199.857 605.461 220.653 634.524 208.71" stroke="#0066FF" stroke-opacity="0.15" stroke-miterlimit="10"/>
<path d="M0.440918 195.5C33.6211 197.397 60.3591 218.366 94.5433 215.498C121.365 213.248 147.574 204.534 174.687 205.045C197.792 205.481 220.575 213.602 243.381 216.811C267.688 220.229 291.15 219.444 314.118 210.767C341.138 200.552 364.631 205.908 390.66 216.687C414.438 226.528 434.03 237.731 460.957 231.963C489.434 225.862 514.578 207.966 543.408 203.753C573.607 199.338 605.629 221.258 634.56 208.69" stroke="#0066FF" stroke-opacity="0.15" stroke-miterlimit="10"/>
</g>
</g>
<defs>
<linearGradient id="paint0_linear_8308_6964" x1="317.5" y1="170" x2="317.5" y2="427.999" gradientUnits="userSpaceOnUse">
<stop stop-color="#0B0B0B"/>
<stop offset="0.628322" stop-opacity="0"/>
</linearGradient>
</defs>
</svg>
