<svg width="58" height="58" viewBox="0 0 40 58" fill="none" xmlns="http://www.w3.org/2000/svg">
<path d="M39.1027 26.3034C38.2854 25.0367 37.025 24.1559 35.5479 23.8393C35.1541 23.7601 34.7503 23.7106 34.3565 23.7106C33.9823 23.7106 33.6081 23.7502 33.224 23.8294C32.8794 21.5335 31.1562 19.6929 28.8519 19.208C28.4581 19.1288 28.0543 19.0793 27.6604 19.0793C27.4143 19.0793 27.1779 19.0991 26.9219 19.1288L29.3443 7.91674C29.7086 6.22453 29.4034 4.48285 28.4581 3.02815C27.5029 1.54376 26.0357 0.524484 24.3026 0.148439C23.8496 0.0494796 23.3868 0 22.9141 0C19.8517 0 17.1536 2.16721 16.5037 5.16567L14.7312 13.3199L12.9587 5.15578C12.3285 2.16721 9.64028 0 6.56799 0C6.09533 0 5.63251 0.0494796 5.17955 0.148439C3.45631 0.524484 1.97925 1.54376 1.03393 3.02815C0.0984526 4.48285 -0.216654 6.22453 0.147688 7.91674L3.91912 25.3237L3.96836 25.5612H7.77918L7.7004 25.2049L3.79111 7.13496C3.63356 6.40266 3.77141 5.65057 4.17514 5.01723C4.58872 4.374 5.21894 3.93858 5.96731 3.78024C6.1741 3.74066 6.38089 3.71097 6.56799 3.71097C7.89734 3.71097 9.0593 4.65108 9.33502 5.93755L13.5299 25.3138L13.5791 25.5513H15.903L15.9523 25.3138L20.157 5.94745C20.4327 4.66098 21.6045 3.72087 22.924 3.72087C23.1209 3.72087 23.3277 3.74066 23.5247 3.79014C24.2632 3.94847 24.9033 4.39379 25.3168 5.02713C25.7206 5.66047 25.8584 6.41256 25.7009 7.14486L21.762 25.3138L21.0235 28.7081H6.15441C3.39723 28.7081 1.16194 30.9445 1.16194 33.6857V43.354C1.16194 51.4291 7.75948 58 15.8735 58H24.0269C32.1409 58 38.7384 51.4291 38.7384 43.354V35.6946L39.8708 30.4992C40.1859 29.0445 39.9201 27.5601 39.1224 26.3034H39.1027ZM31.5106 42.4337C31.6977 42.4733 31.8848 42.503 32.0818 42.5228C31.8947 42.503 31.7076 42.4733 31.5106 42.4337C31.1069 42.3447 30.7229 42.216 30.3585 42.0478C30.7229 42.216 31.1069 42.3447 31.5106 42.4337ZM30.8017 38.4259C30.9592 38.6733 31.1562 38.8811 31.3925 39.0394C31.1562 38.8811 30.9592 38.6733 30.8017 38.4259ZM25.5236 25.5909L25.8092 24.2747C25.9963 23.4138 26.7742 22.7804 27.6604 22.7804C27.7884 22.7804 27.9165 22.7903 28.0642 22.8299C28.5565 22.9387 28.9799 23.2257 29.2557 23.6513C29.5314 24.0768 29.62 24.5815 29.5215 25.0763L28.4088 30.2123C27.4044 29.3513 26.1637 28.8367 24.8442 28.7279L25.5236 25.5909ZM35.0064 43.3441C35.0064 46.2436 33.8838 48.9749 31.8258 51.0333C29.748 53.1312 26.9711 54.2791 24.017 54.2791H15.8636C9.80768 54.2791 4.87429 49.3708 4.87429 43.3441V33.6758C4.87429 32.9831 5.44542 32.4091 6.14456 32.4091H24.3321C25.7304 32.4091 26.8628 33.5373 26.8628 34.9227C26.8628 36.3081 25.7304 37.4363 24.3321 37.4363H13.3526H13.0572V41.1472H13.6677C16.4446 41.1472 18.6996 43.3936 18.6996 46.1546V48.6385H22.4218V46.1546C22.4218 44.3634 21.8605 42.6019 20.8364 41.1472H24.3223C25.5729 41.1472 26.7644 40.7811 27.7884 40.0884C28.5861 41.4342 29.8957 42.3842 31.4417 42.7108C31.8356 42.79 32.2393 42.8394 32.6332 42.8394C33.4505 42.8394 34.258 42.6613 34.9965 42.315V43.3441H35.0064ZM36.2274 29.7076L34.5042 37.6342C34.3171 38.4951 33.5391 39.1285 32.6529 39.1285C32.5249 39.1285 32.3969 39.1186 32.2492 39.079C31.7568 38.9701 31.3334 38.6832 31.0577 38.2576C30.782 37.8321 30.6933 37.3274 30.7918 36.8326L32.5151 28.906C32.7021 28.045 33.4801 27.4117 34.3663 27.4117C34.5239 27.4117 34.6519 27.4315 34.77 27.4612C35.2624 27.57 35.6858 27.857 35.9615 28.2825C36.2372 28.7081 36.3259 29.2128 36.2274 29.7076V29.7076Z" fill="white"/>
</svg>
