<svg width="58" height="58" viewBox="0 0 60 60" fill="none" xmlns="http://www.w3.org/2000/svg">
<g clip-path="url(#clip0_8346_12030)">
<path fill-rule="evenodd" clip-rule="evenodd" d="M36.8402 15.4542L32.4546 11.0694C31.6528 10.2667 30.3489 10.2667 29.5472 11.0694C28.7445 11.8712 28.7445 13.1751 29.5472 13.9769L33.9328 18.3626L31.2168 21.0786C31.2159 21.0786 29.3765 19.2397 29.3765 19.2397C28.5747 18.437 27.2708 18.437 26.469 19.2397C25.6664 20.0414 25.6664 21.3453 26.469 22.1471L28.9446 24.6226V35.1619L25.2694 38.8371L22.1995 35.7672L26.4411 31.5256C27.2438 30.7229 27.2438 29.4213 26.4411 28.6181L23.2078 25.3848C22.406 24.583 21.1021 24.583 20.3004 25.3848C19.4977 26.1875 19.4977 27.4905 20.3004 28.2922L22.0788 30.0716L19.2908 32.8597L15.0419 28.6098C14.2392 27.808 12.9362 27.808 12.1335 28.6098C11.3317 29.4125 11.3317 30.7155 12.1335 31.5172L16.3834 35.7671L13.6691 38.4814L6.71428 31.5256C5.91021 30.7229 5.91021 29.4213 6.71428 28.6181L13.6691 21.6623L15.2369 23.2292C16.0387 24.0319 17.3411 24.0319 18.1443 23.2292C18.9461 22.4274 18.9461 21.1235 18.1443 20.3217L15.123 17.3005C14.3204 16.4978 13.0188 16.4978 12.2156 17.3005L3.80641 25.7098C1.39786 28.1183 1.39786 32.024 3.80641 34.4325L12.2156 42.8418C13.0183 43.6445 14.3199 43.6445 15.123 42.8418L19.2908 38.6741L22.3616 41.7449L18.2297 45.8768C17.427 46.6795 17.427 47.9811 18.2297 48.7843C18.2297 48.7843 23.2854 53.84 26.6389 57.1936C29.0475 59.6021 32.9531 59.6021 35.3616 57.1936C38.7142 53.84 43.7709 48.7843 43.7709 48.7843C44.5735 47.9816 44.5735 46.68 43.7709 45.8768L40.8327 42.9386C40.03 42.1359 38.727 42.1359 37.9243 42.9386C37.1225 43.7404 37.1225 45.0443 37.9243 45.8461L39.409 47.3308L32.4533 54.2866C31.6506 55.0893 30.349 55.0893 29.5459 54.2866L22.5901 47.3308L25.2681 44.6528L29.5459 48.9307C30.3476 49.7334 31.6515 49.7334 32.4533 48.9307C33.256 48.1289 33.256 46.825 32.4533 46.0232L28.1755 41.7454L30.6923 39.2299C30.7919 39.2441 30.8947 39.2524 30.9998 39.2524C31.1045 39.2524 31.2073 39.2441 31.3082 39.2299L32.7846 40.7063C33.5873 41.509 34.8903 41.509 35.693 40.7063C36.4947 39.9045 36.4947 38.6006 35.693 37.7989L33.0559 35.1618V25.053L36.839 21.2699L39.8726 24.3044L35.5599 28.6181C34.7572 29.4208 34.7572 30.7224 35.5599 31.5256L38.8041 34.7698C39.6059 35.5725 40.9098 35.5725 41.7115 34.7698C42.5142 33.9681 42.5142 32.6642 41.7115 31.8624L39.9207 30.0716L42.7809 27.2114L46.1725 30.603C46.9743 31.4057 48.2781 31.4057 49.0799 30.603C49.8826 29.8012 49.8826 28.4974 49.0799 27.6956L45.6883 24.304L48.3304 21.6618L55.2862 28.6177C56.0889 29.4204 56.0889 30.7219 55.2862 31.5251L48.3304 38.4809L46.6199 36.7704C45.8181 35.9677 44.5142 35.9677 43.7125 36.7704C42.9098 37.5721 42.9098 38.876 43.7125 39.6778L46.877 42.8423C47.6797 43.645 48.9812 43.645 49.7844 42.8423C49.7844 42.8423 54.8415 37.7865 58.1936 34.433C60.6021 32.0244 60.6021 28.1188 58.1936 25.7102C54.841 22.3567 49.7844 17.3009 49.7844 17.3009C48.9817 16.4982 47.6801 16.4982 46.877 17.3009L42.7814 21.3965L39.7468 18.3629L43.9866 14.1232C44.7893 13.3205 44.7893 12.0189 43.9866 11.2157C43.9866 11.2157 38.9309 6.15997 35.5774 2.80642C33.1688 0.397859 29.2632 0.397859 26.8547 2.80642L18.4454 11.2157C17.6428 12.0184 17.6428 13.32 18.4454 14.1232L21.3836 17.0614C22.1854 17.8641 23.4893 17.8641 24.291 17.0614C25.0937 16.2596 25.0937 14.9557 24.291 14.1539L22.8077 12.6692L29.7626 5.71338C30.5652 4.91069 31.8682 4.91069 32.6709 5.71338L39.6257 12.6692L36.8409 15.4541L36.8402 15.4542Z" fill="white" stroke="#0B0B0B" stroke-width="0.5"/>
</g>
<defs>
<clipPath id="clip0_8346_12030">
<rect width="58" height="58" fill="white"/>
</clipPath>
</defs>
</svg>
