<svg width="72" height="58" viewBox="0 0 72 60" fill="none" xmlns="http://www.w3.org/2000/svg">
<path d="M36.0003 2.65013H36.0969C55.5387 2.70256 71.35 18.6442 71.35 38.2321C71.35 39.2892 71.013 40.0208 70.5653 40.4845C70.1131 40.9527 69.5108 41.1874 68.905 41.1876C68.2992 41.1878 67.6969 40.9533 67.2449 40.4856C66.7973 40.0225 66.4604 39.2915 66.4604 38.2354C66.4604 21.3319 52.8037 7.58006 35.9996 7.58006C19.1944 7.58006 5.53881 21.334 5.53881 38.2354C5.53881 39.2915 5.20193 40.0225 4.75438 40.4857C4.30235 40.9535 3.70012 41.188 3.09441 41.188C2.4887 41.188 1.88646 40.9535 1.43443 40.4857C0.986878 40.0225 0.65 39.2915 0.65 38.2354C0.65 18.6121 16.5145 2.65013 36.0003 2.65013ZM35.8716 17.6101H36.0007C47.2984 17.6101 56.4869 26.8533 56.4869 38.2342C56.4869 39.2906 56.15 40.0218 55.7024 40.485C55.2504 40.953 54.6481 41.1875 54.0424 41.1876C53.4367 41.1876 52.8345 40.9531 52.3825 40.4853C51.9349 40.0222 51.5981 39.2911 51.5981 38.235C51.5981 29.5823 44.6043 22.5409 36.0004 22.5409C27.3964 22.5409 20.4028 29.5829 20.4028 38.2361C20.4028 39.2918 20.0659 40.0226 19.6184 40.4856C19.1664 40.9532 18.5642 41.1877 17.9584 41.1876C17.3527 41.1876 16.7504 40.953 16.2984 40.4852C15.8508 40.022 15.514 39.2909 15.514 38.2348C15.514 26.8956 24.6331 17.6805 35.8716 17.6101ZM36.4323 54.5404C39.0004 54.5404 41.3171 53.462 43.1224 51.6982C45.4361 53.2648 46.8055 55.5433 46.8055 58.0017C46.8055 58.364 46.7758 58.7237 46.7171 59.079C46.6908 59.2386 46.5555 59.35 46.403 59.35H25.7482C25.5959 59.35 25.4604 59.2384 25.4341 59.079C25.3755 58.7241 25.3461 58.3644 25.3461 58.0017C25.3461 55.3881 26.8947 52.9816 29.465 51.4181C31.3075 53.3468 33.73 54.5404 36.4323 54.5404ZM36.4327 51.2911C32.4978 51.2911 29.0068 47.1429 29.0068 41.5925C29.0068 36.0416 32.4979 31.8934 36.4327 31.8934C40.3672 31.8934 43.8583 36.0416 43.8583 41.5925C43.8583 47.1429 40.3672 51.2911 36.4327 51.2911Z" fill="white" stroke="#0B0B0B" stroke-width="1.3"/>
</svg>
