<svg width="58" height="58" viewBox="0 0 60 60" fill="none" xmlns="http://www.w3.org/2000/svg">
<path d="M50.7319 43.5374L50.2351 43.3745V6.43743C50.2333 4.99571 49.6506 3.61382 48.6139 2.5943C47.5771 1.57478 46.1718 1.0017 44.7058 1H26.4957C25.2777 1.01814 24.1126 1.49339 23.2388 2.32843L7.34997 17.9531C6.50175 18.8124 6.01889 19.958 6 21.1555V53.5626C6.0018 55.0043 6.58452 56.3862 7.62126 57.4057C8.65799 58.4252 10.0633 58.9983 11.5294 59H45.1398C46.0173 58.9881 46.8564 58.646 47.4851 58.0442L52.0289 53.5763C52.6526 52.9661 53.0022 52.1355 53 51.2705V46.6327C53.0004 45.9478 52.7818 45.2804 52.3745 44.7247C51.9677 44.1693 51.3927 43.7538 50.7321 43.5378L50.7319 43.5374ZM23.5102 7.18819V16.4059C23.5097 16.8864 23.3153 17.3471 22.9697 17.6869C22.6241 18.0268 22.1557 18.2179 21.667 18.2184H12.293L23.5102 7.18819ZM9.68676 53.5615V21.8432H21.667C23.1331 21.8414 24.5384 21.2684 25.5751 20.2489C26.6119 19.2294 27.1947 17.8475 27.1964 16.4058V4.62467H44.706C45.1947 4.62511 45.6631 4.81627 46.0088 5.15611C46.3544 5.49595 46.5488 5.95659 46.5492 6.43719V42.1656L34.0459 38.0671C33.6108 37.9247 33.137 37.9468 32.7176 38.1291C32.2982 38.3114 31.963 38.6411 31.7772 39.0535C31.5918 39.4659 31.5693 39.9318 31.7142 40.3597L36.8035 55.3738H11.5297C11.041 55.3734 10.5726 55.1822 10.227 54.8424C9.88133 54.5025 9.68698 54.0419 9.68653 53.5613L9.68676 53.5615ZM49.3138 51.119L48.4535 51.965L46.2251 49.7733C45.7594 49.3153 45.0808 49.1365 44.445 49.3042C43.8092 49.472 43.3124 49.9605 43.1419 50.5857C42.9715 51.2109 43.1532 51.8782 43.6189 52.3362L45.8473 54.5279L44.9869 55.374H40.6895L36.3769 42.6527L49.3133 46.8936L49.3138 51.119Z" fill="white"/>
<path d="M40.2222 27.619C40.8572 27.619 41.4445 27.274 41.7617 26.7143C42.0794 26.1545 42.0794 25.4645 41.7617 24.9048C41.4444 24.345 40.8572 24 40.2222 24C35.8802 23.9938 31.6224 25.2202 27.9277 27.5412C26.5622 26.67 24.8821 26.4752 23.3591 27.012C21.8365 27.5487 20.6342 28.7587 20.0903 30.3028C19.5461 31.8467 19.7188 33.5586 20.56 34.9581C19.4949 36.7451 18.6597 38.6642 18.0756 40.668C17.8925 41.2869 18.0474 41.9584 18.4823 42.4298C18.9176 42.9007 19.5665 43.0999 20.1846 42.9519C20.803 42.8039 21.297 42.3312 21.4801 41.7123C21.9302 40.1599 22.553 38.6646 23.336 37.2553C24.6013 37.7152 25.9906 37.6706 27.225 37.1307C28.4593 36.5909 29.4472 35.5956 29.9902 34.3449C30.5336 33.0946 30.5918 31.681 30.1534 30.3884C33.2068 28.5674 36.6835 27.611 40.2225 27.619L40.2222 27.619ZM25.111 33.9522C24.6396 33.9522 24.1873 33.7614 23.8541 33.4221C23.5208 33.0828 23.3332 32.6225 23.3332 32.1428C23.3332 31.6631 23.5207 31.2027 23.8541 30.8635C24.1874 30.5243 24.6397 30.3334 25.111 30.3334C25.5823 30.3334 26.0346 30.5242 26.3679 30.8635C26.7011 31.2028 26.8887 31.6631 26.8887 32.1428C26.8883 32.6226 26.7008 33.0825 26.3674 33.4218C26.0341 33.7611 25.5823 33.9519 25.1109 33.9523L25.111 33.9522Z" fill="white"/>
</svg>
