<svg width="58" height="58" viewBox="0 0 60 60" fill="none" xmlns="http://www.w3.org/2000/svg">
<path d="M56.5333 1C47.4708 1 38.0227 4.28591 28.5746 13.7592C27.032 15.3059 25.6808 16.66 24.1383 18.4C16.2327 18.4 10.4481 20.5267 4.85638 26.1333L1 30H18.3537L16.4255 35.8L24.1383 43.5333L29.9228 41.6V59L33.7792 55.1333C39.3709 49.5267 41.4919 43.7267 41.4919 35.8C43.2273 34.4467 44.5778 33.0918 46.1203 31.3518C56.3397 21.1052 59.8097 10.4733 58.8456 1H56.5333ZM55.1286 4.89687C54.8644 13.0014 50.8578 21.134 43.3938 28.618L43.3109 28.701L43.2356 28.7841C41.6738 30.5473 40.5211 31.6586 39.1231 32.749L37.6356 33.9082V35.8C37.6356 41.3158 36.4844 45.4482 33.7792 49.2163V41.6V36.2342L28.7026 37.9297L25.1814 39.1078L20.8392 34.754L22.0142 31.2234L23.7052 26.1333H18.3537H10.7577C14.5157 23.4209 18.6371 22.2667 24.1383 22.2667H25.8706L27.0192 20.9677C28.4847 19.3147 29.7895 18.0126 31.3012 16.4969C38.7054 9.07094 46.5115 5.26614 55.1286 4.89687ZM41.4919 14.5333C40.4692 14.5333 39.4883 14.9407 38.7651 15.6659C38.0419 16.391 37.6356 17.3745 37.6356 18.4C37.6356 19.4255 38.0419 20.409 38.7651 21.1341C39.4883 21.8593 40.4692 22.2667 41.4919 22.2667C42.5147 22.2667 43.4956 21.8593 44.2188 21.1341C44.942 20.409 45.3483 19.4255 45.3483 18.4C45.3483 17.3745 44.942 16.391 44.2188 15.6659C43.4956 14.9407 42.5147 14.5333 41.4919 14.5333ZM14.0605 39.2286C13.671 39.538 13.2998 39.8592 12.9759 40.184C9.89076 43.2773 8.53876 47.3358 8.73158 51.2025C12.588 51.5891 16.6394 50.2366 19.7245 47.1432C20.0774 46.7894 20.4209 46.3716 20.7564 45.9424L19.1822 44.3641C17.3697 45.4699 15.7849 45.5436 14.5161 45.4025C14.3773 44.1535 14.5525 42.6007 15.6535 40.8259L14.0605 39.2286Z" fill="white"/>
</svg>
