<svg width="26" height="10" viewBox="0 0 26 10" fill="none" xmlns="http://www.w3.org/2000/svg">
<path fill-rule="evenodd" clip-rule="evenodd" d="M17.9085 4H22.175L20.6 2.4L22 1L26 5L22 9L20.575 7.6L22.175 6L17.9085 6C17.7864 6.64129 17.5422 7.23138 17.1759 7.77026C16.9095 8.17102 16.5802 8.53527 16.188 8.863C15.8482 9.1465 15.4868 9.37698 15.1038 9.55445C14.4647 9.85148 13.7634 10 13 10C12.1449 10 11.3677 9.81378 10.6685 9.44133C10.3692 9.28244 10.0837 9.08967 9.812 8.863C9.42832 8.54242 9.10487 8.1869 8.84165 7.79645C8.46557 7.25039 8.21553 6.65157 8.09152 6L3.825 6L5.4 7.6L4 9L0 5L4 1L5.425 2.4L3.825 4H8.09153C8.21361 3.35871 8.45781 2.76862 8.82412 2.22974C9.09047 1.82898 9.41976 1.46473 9.812 1.137C10.1518 0.853501 10.5132 0.623019 10.8962 0.445551C11.5353 0.148516 12.2366 0 13 0C13.8551 0 14.6323 0.186223 15.3315 0.558669C15.6308 0.717555 15.9163 0.910332 16.188 1.137C16.5716 1.45754 16.895 1.813 17.1582 2.2034C17.5344 2.7495 17.7845 3.34837 17.9085 4ZM15.3301 3.09961C15.7767 3.63737 16 4.27083 16 5C16 5.83333 15.7083 6.54167 15.125 7.125C14.5417 7.70833 13.8333 8 13 8C12.1667 8 11.4583 7.70833 10.875 7.125C10.2917 6.54167 10 5.83333 10 5C10 4.16667 10.2917 3.45833 10.875 2.875C10.9479 2.80208 11.0228 2.73372 11.0996 2.66992C11.6374 2.22331 12.2708 2 13 2C13.8333 2 14.5417 2.29167 15.125 2.875C15.1979 2.94792 15.2663 3.02279 15.3301 3.09961Z" fill="white"/>
</svg>
