<svg width="17" height="18" viewBox="0 0 17 18" fill="none" xmlns="http://www.w3.org/2000/svg">
<path d="M0.309503 8.88035C0.309503 7.10966 0.307102 5.33896 0.310104 3.56826C0.313106 1.80117 1.54641 0.573271 3.31711 0.57267C6.87831 0.571469 10.4401 0.570869 14.0013 0.57267C15.766 0.573271 16.9963 1.80837 16.9975 3.57907C16.9993 7.14028 16.9993 10.7021 16.9975 14.2633C16.9969 16.028 15.7624 17.2595 13.9905 17.2601C10.4293 17.2625 6.86751 17.2625 3.3063 17.2601C1.538 17.2589 0.311905 16.0256 0.310104 14.2525C0.307702 12.4614 0.309503 10.6709 0.309503 8.88035ZM8.75229 2.71324C6.91674 2.74446 5.33819 3.23022 4.03223 4.41308C2.7575 5.56773 2.12463 7.00038 2.40984 8.73685C2.67764 10.3694 3.66476 11.5121 5.04877 12.3419C5.88459 12.8427 6.80146 13.1074 7.76156 13.2443C8.27434 13.3176 8.35299 13.4443 8.23231 13.9529C8.17226 14.205 8.08219 14.45 8.02035 14.7022C7.94469 15.0102 8.10681 15.1796 8.41244 15.0895C8.61959 15.0283 8.82254 14.9262 9.00387 14.8061C9.462 14.5017 9.91834 14.1936 10.3537 13.858C11.4134 13.0408 12.5315 12.2812 13.4982 11.3638C15.3998 9.56005 15.4718 6.84906 13.7413 4.88803C12.3976 3.36471 10.6395 2.76668 8.75229 2.71324Z" fill="white"/>
<path d="M8.4165 7.65189C8.4165 8.17847 8.41711 8.70506 8.4159 9.23224C8.4159 9.33192 8.43872 9.452 8.39249 9.52586C8.33725 9.61412 8.22256 9.70659 8.12589 9.715C8.05084 9.7216 7.94816 9.61472 7.88992 9.53487C7.84849 9.47782 7.85029 9.38175 7.84969 9.3025C7.84729 8.54174 7.84669 7.78158 7.84969 7.02083C7.85029 6.81247 7.88271 6.61253 8.12709 6.54588C8.36126 6.48223 8.47355 6.64135 8.58103 6.80467C8.94369 7.35647 9.30576 7.90828 9.66902 8.45888C9.71165 8.52373 9.75969 8.58437 9.87617 8.64021C9.87617 8.43846 9.87617 8.23732 9.87617 8.03557C9.87617 7.65549 9.87557 7.27481 9.87738 6.89473C9.87858 6.708 9.93262 6.54107 10.1512 6.53567C10.3745 6.53087 10.431 6.7062 10.4322 6.88753C10.4376 7.69812 10.4448 8.50872 10.425 9.31871C10.422 9.4502 10.3025 9.67357 10.2112 9.68738C10.0665 9.70899 9.84015 9.63634 9.75428 9.52346C9.44626 9.11816 9.18327 8.67924 8.90286 8.25353C8.76656 8.04578 8.62966 7.83862 8.49336 7.63087C8.46814 7.63808 8.44232 7.64468 8.4165 7.65189Z" fill="white"/>
<path d="M11.4838 7.7926C11.8206 7.7926 12.1119 7.77099 12.3971 7.80281C12.5142 7.81602 12.6955 7.9301 12.7117 8.02257C12.7465 8.21531 12.5676 8.24714 12.4055 8.24653C12.1653 8.24533 11.9239 8.23272 11.6861 8.25614C11.6141 8.26335 11.5018 8.36782 11.494 8.43747C11.4694 8.66264 11.485 8.89201 11.485 9.1598C11.8543 9.1598 12.1905 9.1616 12.5274 9.1592C12.7087 9.158 12.9002 9.17421 12.9002 9.40118C12.9002 9.63595 12.6997 9.63475 12.5244 9.63415C12.1143 9.63355 11.7036 9.62815 11.2935 9.63595C11.0167 9.64136 10.8864 9.51767 10.887 9.24206C10.8888 8.48191 10.8906 7.72115 10.8858 6.96099C10.884 6.68959 10.9974 6.54849 11.2766 6.54969C11.697 6.55209 12.1173 6.54669 12.5376 6.55209C12.6925 6.5539 12.878 6.58091 12.8354 6.78506C12.8174 6.87333 12.6511 6.97721 12.5418 6.99042C12.2854 7.02104 12.0224 7.01023 11.7624 6.99882C11.5631 6.99042 11.461 7.04806 11.4808 7.26782C11.4952 7.42453 11.4838 7.58365 11.4838 7.7926Z" fill="white"/>
<path d="M4.40397 8.09106C4.40397 7.70138 4.40217 7.3111 4.40457 6.92141C4.40577 6.71006 4.47242 6.52752 4.7198 6.53653C4.94977 6.54494 5.0002 6.72266 4.9996 6.92201C4.9984 7.58189 5.00561 8.24178 4.996 8.90166C4.993 9.10461 5.04764 9.19527 5.2644 9.18026C5.48356 9.16525 5.70452 9.17185 5.92428 9.18026C6.0918 9.18687 6.28334 9.2295 6.23771 9.43965C6.21669 9.53692 6.04077 9.65821 5.92788 9.66662C5.55021 9.69484 5.16893 9.67622 4.78885 9.67802C4.52706 9.67922 4.40337 9.54833 4.40397 9.29074C4.40457 8.89145 4.40397 8.49156 4.40397 8.09106Z" fill="white"/>
<path d="M7.26187 8.14319C7.26187 8.53347 7.26307 8.92376 7.26127 9.31404C7.26007 9.52 7.21083 9.71394 6.96585 9.72354C6.71307 9.73315 6.65903 9.53681 6.65783 9.33206C6.65422 8.53167 6.65482 7.73069 6.65722 6.9303C6.65783 6.72495 6.70946 6.53041 6.96285 6.53701C7.21023 6.54362 7.26007 6.73636 7.26067 6.94231C7.26307 7.3428 7.26187 7.7427 7.26187 8.14319Z" fill="white"/>
</svg>
