<svg width="16" height="12" viewBox="0 0 16 12" fill="none" xmlns="http://www.w3.org/2000/svg">
<path d="M2.44146 2.84467C2.45925 2.67245 2.39147 2.50186 2.2576 2.38596L0.897726 0.807417V0.571533H5.12224L8.38763 7.47011L11.2582 0.571533H15.2853V0.807417L14.122 1.88155C14.022 1.955 13.972 2.07662 13.9924 2.19578V10.0901C13.9712 10.2101 14.0212 10.3309 14.122 10.4044L15.2582 11.4785V11.7144H9.54416V11.4785L10.721 10.3783C10.8363 10.2673 10.8363 10.2338 10.8363 10.064V3.68373L7.56408 11.6899H7.12181L3.31246 3.68373V9.04947C3.28111 9.27475 3.35821 9.50247 3.52343 9.66571L5.05445 11.454V11.6899H0.713867V11.454L2.24489 9.66571C2.40842 9.50247 2.48213 9.27393 2.44231 9.04947V2.84467H2.44146Z" fill="white"/>
</svg>
