<svg width="17" height="14" viewBox="0 0 17 14" fill="none" xmlns="http://www.w3.org/2000/svg">
<path d="M0.713867 12.1199C2.12871 13.0531 3.77937 13.5715 5.56477 13.5715C11.4263 13.5715 14.7276 8.49085 14.5592 3.92864C15.1655 3.47933 15.7045 2.89177 16.1424 2.23509C15.5698 2.47703 14.9634 2.6844 14.3233 2.75353C14.9634 2.33878 15.4687 1.71666 15.7045 0.956291C15.0981 1.33648 14.4244 1.61297 13.6833 1.75122C13.1106 1.1291 12.3021 0.714355 11.3926 0.714355C9.3377 0.714355 7.85548 2.64984 8.32709 4.68901C5.66583 4.58532 3.34144 3.30652 1.79185 1.33648C0.949675 2.78809 1.35392 4.68901 2.76876 5.65675C2.26346 5.65675 1.75816 5.48394 1.35392 5.24201C1.32023 6.72818 2.36452 8.14523 3.88043 8.45629C3.4425 8.59454 2.9372 8.59454 2.46558 8.52542C2.86982 9.80422 4.04886 10.7374 5.43002 10.772C4.04886 11.8434 2.39821 12.3273 0.713867 12.1199Z" fill="white"/>
</svg>
