<svg width="125" height="48" viewBox="0 0 125 48" fill="none" xmlns="http://www.w3.org/2000/svg">
<path fill-rule="evenodd" clip-rule="evenodd" d="M9.78256 14.8308C9.54102 14.8308 9.48063 14.7077 9.6014 14.5231L10.8695 12.8615C10.9903 12.6769 11.2922 12.5538 11.5338 12.5538H33.0917C33.3333 12.5538 33.3937 12.7384 33.2729 12.9231L32.2463 14.5231C32.1256 14.7077 31.8236 14.8923 31.6425 14.8923L9.78256 14.8308Z" fill="white"/>
<path fill-rule="evenodd" clip-rule="evenodd" d="M0.664397 20.4923C0.422852 20.4923 0.362465 20.3692 0.483238 20.1846L1.75135 18.5231C1.87213 18.3385 2.17406 18.2154 2.41561 18.2154H29.9518C30.1934 18.2154 30.3142 18.4 30.2538 18.5846L29.7707 20.0615C29.7103 20.3077 29.4687 20.4308 29.2272 20.4308L0.664397 20.4923Z" fill="white"/>
<path fill-rule="evenodd" clip-rule="evenodd" d="M15.2777 26.1538C15.0361 26.1538 14.9757 25.9692 15.0965 25.7846L15.9419 24.2461C16.0627 24.0615 16.3042 23.8769 16.5458 23.8769H28.6231C28.8646 23.8769 28.9854 24.0615 28.9854 24.3077L28.8646 25.7846C28.8646 26.0307 28.6231 26.2154 28.4419 26.2154L15.2777 26.1538Z" fill="white"/>
<path fill-rule="evenodd" clip-rule="evenodd" d="M77.9594 13.7231C74.155 14.7077 71.5584 15.4461 67.8144 16.4308C66.9086 16.6769 66.8483 16.7385 66.0632 15.8154C65.1574 14.7692 64.4932 14.0923 63.2251 13.4769C59.4207 11.5692 55.7371 12.1231 52.2951 14.4C48.1888 17.1077 46.0753 21.1077 46.1357 26.0923C46.1961 31.0154 49.5173 35.0769 54.2879 35.7538C58.3942 36.3077 61.8362 34.8308 64.5536 31.6923C65.0971 31.0154 65.5801 30.2769 66.184 29.4154C64.0101 29.4154 61.2927 29.4154 54.5294 29.4154C53.2613 29.4154 52.9594 28.6154 53.3821 27.5692C54.1671 25.6615 55.6164 22.4615 56.4618 20.8615C56.6429 20.4923 57.0656 19.8769 57.9714 19.8769H79.9521C79.8314 21.5385 79.8314 23.2 79.5898 24.8615C78.9256 29.2923 77.2951 33.3538 74.6381 36.9231C70.2903 42.7692 64.614 46.4 57.428 47.3846C51.5101 48.1846 46.0149 47.0154 41.184 43.3231C36.7154 39.8769 34.1792 35.3231 33.5149 29.6615C32.7299 22.9538 34.6623 16.9231 38.6478 11.6308C42.9352 5.90769 48.6115 2.27692 55.556 0.984608C61.2323 -0.0615457 66.6671 0.615378 71.5584 3.99999C74.7589 6.15384 77.0536 9.10769 78.5632 12.6769C78.9256 13.2308 78.684 13.5385 77.9594 13.7231Z" fill="white"/>
<path d="M97.9469 47.7538C92.4517 47.6308 87.4396 46.0308 83.2126 42.3384C79.6498 39.2 77.4155 35.2 76.6908 30.4615C75.6039 23.5077 77.4759 17.3538 81.5821 11.8769C85.9904 5.96921 91.3044 2.89229 98.4904 1.59998C104.65 0.492289 110.447 1.10767 115.701 4.73844C120.471 8.06152 123.43 12.5538 124.215 18.4615C125.242 26.7692 122.886 33.5384 117.271 39.3231C113.285 43.4461 108.394 46.0308 102.778 47.2C101.147 47.5077 99.5169 47.5692 97.9469 47.7538ZM112.319 22.8923C112.258 22.0923 112.258 21.4769 112.138 20.8615C111.051 14.7692 105.556 11.3231 99.8189 12.6769C94.2029 13.9692 90.5797 17.6 89.2512 23.3846C88.1643 28.1846 90.459 33.0461 94.8068 35.0154C98.128 36.4923 101.449 36.3077 104.65 34.6461C109.42 32.1231 112.017 28.1846 112.319 22.8923Z" fill="white"/>
</svg>
