<svg width="176" height="88" viewBox="0 0 176 88" fill="none" xmlns="http://www.w3.org/2000/svg">
<path d="M6.45312 65.6111L18.2137 44.3669L6.45312 23.1227H15.2735L27.0341 44.3669L15.2735 65.6111H6.45312Z" fill="white"/>
<path d="M18.214 65.6111L29.9746 44.3669L18.214 23.1227H27.0344L50.5552 65.6111H41.7347L34.3847 52.3338L27.0343 65.6113H18.2139L18.214 65.6111Z" fill="white"/>
<path d="M46.6345 53.2189L42.7145 46.1365L56.4347 46.136V53.2177H46.6343L46.6345 53.2189ZM40.7543 42.5966L36.834 35.5143L56.4348 35.5138V42.5955H40.7533L40.7543 42.5966Z" fill="white"/>
<path d="M62.8906 56.9543H68.2073V45.7233H78.1366V56.958H83.4533V31.8707H78.1366V41.36H68.2073V31.8707H62.8906V56.9543ZM85.0666 52.1033C85.0666 53.3592 85.3838 54.395 86.02 55.209C86.6323 56.0707 87.3766 56.6518 88.2456 56.9507C89.1293 57.2704 90.0614 57.4353 91.0011 57.4383C91.872 57.4383 92.6511 57.3228 93.3331 57.0717C94.0038 56.8343 94.6439 56.518 95.2398 56.1293C95.8359 55.7312 96.3819 55.2628 96.866 54.7342C96.866 55.0605 96.9393 55.4895 97.0786 56.0248L97.2198 56.4777C97.2785 56.6247 97.3257 56.7761 97.361 56.9305H102.678V56.1972C102.23 56.0578 101.935 55.7443 101.794 55.2548C101.653 54.7653 101.581 54.1145 101.581 53.3005V43.2172C101.581 42.4967 101.427 41.7505 101.123 40.9842C100.817 40.1702 100.074 39.4368 98.8973 38.7842C97.7423 38.1553 96.0373 37.8418 93.7731 37.8418C92.9801 37.839 92.1884 37.909 91.4081 38.0508C90.6308 38.1902 89.9836 38.3625 89.4648 38.5733C88.3575 39.0133 87.4848 39.7247 86.8505 40.7C86.2381 41.6533 85.8605 42.8872 85.7193 44.3978H90.4896C90.607 43.3748 90.926 42.6745 91.443 42.3042C92.0076 41.9375 92.785 41.7817 93.775 41.7817C95.755 41.7817 96.745 42.537 96.745 44.0495C96.745 44.7938 96.2023 45.2467 95.1188 45.4098L90.5593 46.0735C88.9826 46.3063 87.6736 46.8985 86.636 47.8518C85.5983 48.8052 85.0813 50.2132 85.0813 52.074L85.0666 52.1033ZM96.7413 47.8518V50.259C96.7413 51.0473 96.503 51.7367 96.0336 52.3178C95.5625 52.8532 95.007 53.2473 94.3726 53.504C94.0414 53.6412 93.6976 53.7456 93.346 53.8157C93.0577 53.8916 92.7603 53.9268 92.4623 53.9202C91.7546 53.9202 91.179 53.7368 90.7316 53.3628C90.2843 52.9888 90.0606 52.5012 90.0606 51.8283C90.0606 50.9905 90.2953 50.3617 90.7683 49.9437C91.2395 49.5477 91.8408 49.269 92.5705 49.1058L94.9538 48.6182C95.7311 48.4348 96.3325 48.2002 96.756 47.8482L96.7413 47.8518ZM102.806 51.0198C102.806 52.0648 103.044 52.9962 103.514 53.8102C104.002 54.6429 104.681 55.3484 105.494 55.869C106.319 56.4043 107.285 56.7985 108.39 57.0552L110.121 57.3338C110.733 57.4035 111.335 57.4383 111.923 57.4383C113.595 57.4383 115.067 57.1707 116.323 56.6353C117.524 56.122 118.468 55.3887 119.15 54.4353C119.81 53.5058 120.14 52.3637 120.14 51.0162C120.14 49.4578 119.597 48.2955 118.514 47.5273C117.407 46.7573 116.123 46.2018 114.664 45.8535L110.352 44.8085C109.01 44.4822 108.335 44.0055 108.335 43.3785C108.335 42.2162 109.336 41.6368 111.338 41.6368C112.517 41.6368 113.34 41.8348 113.813 42.2308C114.284 42.603 114.547 43.1952 114.662 44.0092H119.575C119.575 43.6132 119.517 43.1603 119.399 42.6488C119.26 42.1708 119.082 41.7048 118.868 41.2555C118.49 40.3022 117.676 39.4992 116.429 38.8483C115.205 38.1975 113.448 37.8712 111.164 37.8712C109.492 37.8712 108.047 38.1498 106.889 38.709C105.688 39.2902 104.828 40.0345 104.309 40.942C103.766 41.8988 103.486 42.9823 103.497 44.0825C103.497 45.6647 104.047 46.838 105.087 47.6062C106.126 48.3743 107.36 48.9317 108.797 49.28L113.073 50.292C114.462 50.6587 115.157 51.1647 115.157 51.8613C115.157 52.349 114.9 52.778 114.38 53.152C113.837 53.548 113.038 53.746 111.996 53.746C109.287 53.746 107.932 52.8385 107.932 51.0253H102.808L102.806 51.0198ZM121.922 56.9525H126.867V51.095L128.951 48.9683L133.439 56.958H139.375L132.519 45.584L139.163 38.3607H133.085L126.867 45.4428V31.8707H121.884V56.9543L121.922 56.9525ZM138.05 47.2927C138.05 54.0613 141.167 57.4457 147.449 57.4457C148.696 57.4503 149.932 57.2131 151.089 56.7472C152.181 56.2926 153.158 55.6013 153.95 54.7232C154.728 53.8853 155.316 52.8165 155.718 51.5148H150.627C150.443 52.0722 150.073 52.5507 149.461 52.9448C148.861 53.3364 148.16 53.543 147.444 53.5388C146.032 53.5388 144.932 53.1428 144.157 52.3527C143.356 51.5827 142.956 50.457 142.956 48.9683H155.925V48.0957C155.925 46.2587 155.643 44.561 155.076 43.0027C154.51 41.4443 153.58 40.1977 152.284 39.27C150.988 38.3423 149.259 37.8767 147.09 37.8767C145.04 37.8767 143.321 38.3167 141.931 39.2022C140.599 40.0239 139.56 41.2447 138.961 42.691C138.35 44.1493 138.038 45.7153 138.043 47.2963L138.05 47.2927ZM143.167 45.8663C143.521 43.2153 144.804 41.888 147.017 41.888C147.501 41.8764 147.982 41.9632 148.431 42.1432C148.881 42.3231 149.289 42.5924 149.631 42.9348C150.337 43.7048 150.738 44.6765 150.832 45.8645H143.183L143.167 45.8663ZM157.397 56.9562H162.38V31.8707H157.397V56.9543V56.9562ZM164.006 56.9543H168.989V31.8707H164.006V56.9543Z" fill="white"/>
</svg>
