<svg width="87" height="86" viewBox="0 0 87 86" fill="none" xmlns="http://www.w3.org/2000/svg">
<path d="M42.9261 14.1422C27.1816 14.1422 14.3672 26.8153 14.3672 42.3729C14.3672 57.9305 27.1876 70.6036 42.9261 70.6036C58.6647 70.6036 71.4851 57.9305 71.4851 42.3729C71.4851 26.8153 58.6647 14.1422 42.9261 14.1422ZM42.8839 16.6505C43.3722 16.663 43.8362 16.8642 44.1771 17.2112C44.5179 17.5582 44.7086 18.0235 44.7084 18.5079C44.7084 19.0005 44.5105 19.4729 44.1581 19.8213C43.8057 20.1696 43.3278 20.3653 42.8295 20.3653C42.3312 20.3653 41.8532 20.1696 41.5009 19.8213C41.1485 19.4729 40.9505 19.0005 40.9505 18.5079C40.9504 18.2594 41.0008 18.0134 41.0986 17.7845C41.1964 17.5556 41.3397 17.3484 41.5199 17.1752C41.7002 17.002 41.9138 16.8663 42.1481 16.7762C42.3824 16.6861 42.6326 16.6434 42.8839 16.6505ZM47.1855 19.7083C50.4841 20.319 53.6086 21.6322 56.342 23.5567C59.0755 25.4811 61.3525 27.9707 63.0147 30.8525L60.7974 35.7975C60.4168 36.6515 60.8095 37.6548 61.6674 38.0371L65.9328 39.9064C66.0651 41.2243 66.0813 42.5512 65.9811 43.8719H63.6068C63.3711 43.8719 63.2745 44.0272 63.2745 44.2542V45.3292C63.2745 47.8614 61.8305 48.4168 60.5618 48.5542C59.3534 48.6915 58.0182 48.0525 57.8491 47.3239C57.1361 43.3643 55.952 42.5222 54.0791 41.059C56.4051 39.6018 58.8218 37.4458 58.8218 34.5672C58.8218 31.4557 56.6649 29.4968 55.1968 28.5353C53.1305 27.1915 50.8468 26.9228 50.2305 26.9228H25.7014C29.0932 23.1772 33.6395 20.6415 38.6366 19.7083L41.5305 22.7064C42.183 23.3812 43.2645 23.4111 43.9472 22.7601L47.1855 19.7083ZM20.4814 33.4564C20.9702 33.4704 21.4343 33.6722 21.775 34.019C22.1157 34.3658 22.3061 34.8303 22.3059 35.3137C22.3059 35.8063 22.108 36.2788 21.7556 36.6271C21.4032 36.9754 20.9253 37.1711 20.427 37.1711C19.9286 37.1711 19.4507 36.9754 19.0984 36.6271C18.746 36.2788 18.548 35.8063 18.548 35.3137C18.5479 35.0652 18.5983 34.8192 18.6961 34.5903C18.7939 34.3614 18.9372 34.1542 19.1174 33.981C19.2977 33.8078 19.5113 33.6721 19.7456 33.582C19.9799 33.4919 20.2301 33.4492 20.4814 33.4564ZM65.2803 33.54C65.7692 33.554 66.2332 33.7558 66.5739 34.1026C66.9146 34.4495 67.1051 34.9139 67.1049 35.3973C67.1049 35.89 66.9069 36.3624 66.5546 36.7107C66.2022 37.059 65.7243 37.2547 65.2259 37.2547C64.7276 37.2547 64.2497 37.059 63.8973 36.7107C63.5449 36.3624 63.347 35.89 63.347 35.3973C63.3469 35.1488 63.3972 34.9029 63.495 34.6739C63.5928 34.445 63.7361 34.2378 63.9164 34.0646C64.0967 33.8914 64.3103 33.7558 64.5446 33.6656C64.7788 33.5755 65.029 33.5328 65.2803 33.54ZM24.0218 33.8386H27.2964V48.4347H20.6868C19.8705 45.6012 19.6161 42.6383 19.9376 39.7093L23.9855 37.9296C24.8495 37.5473 25.2422 36.55 24.8555 35.696L24.0218 33.8386ZM37.688 33.9939H45.4878C45.8926 33.9939 48.3334 34.4537 48.3334 36.2633C48.3334 37.7623 46.4605 38.2998 44.9199 38.2998H37.682L37.688 33.9939ZM37.688 44.4811H43.6632C44.207 44.4811 46.5814 44.6364 47.3366 47.6344C47.5722 48.5542 48.0978 51.5522 48.4543 52.5137C48.8107 53.5887 50.2547 55.7387 51.7953 55.7387H61.5466C60.8931 56.6039 60.1783 57.4221 59.4078 58.1873L55.4384 57.3453C54.5141 57.1482 53.6018 57.7335 53.4024 58.6472L52.4599 62.995C49.4291 64.3521 46.1377 65.0467 42.8105 65.0312C39.4833 65.0158 36.1987 64.2907 33.1809 62.9054L32.2384 58.5576C32.0391 57.6439 31.1328 57.0586 30.2084 57.2557L26.3236 58.0798C25.6027 57.3448 24.9326 56.5626 24.3178 55.7387H43.2101C43.4216 55.7387 43.5666 55.7029 43.5666 55.5058V48.9005C43.5666 48.7094 43.4216 48.6676 43.2101 48.6676H37.682L37.688 44.4811ZM28.9699 59.6087C29.4587 59.6227 29.9228 59.8246 30.2635 60.1714C30.6042 60.5182 30.7947 60.9827 30.7945 61.4661C30.7945 61.9587 30.5965 62.4311 30.2441 62.7794C29.8918 63.1278 29.4139 63.3235 28.9155 63.3235C28.4172 63.3235 27.9393 63.1278 27.5869 62.7794C27.2345 62.4311 27.0366 61.9587 27.0366 61.4661C27.0365 61.2176 27.0868 60.9716 27.1846 60.7427C27.2824 60.5138 27.4257 60.3066 27.606 60.1334C27.7863 59.9602 27.9999 59.8245 28.2341 59.7344C28.4684 59.6443 28.7186 59.6015 28.9699 59.6087ZM56.7918 59.6923C57.2806 59.7063 57.7447 59.9082 58.0854 60.255C58.4261 60.6018 58.6166 61.0663 58.6164 61.5497C58.6164 62.0423 58.4184 62.5147 58.066 62.8631C57.7136 63.2114 57.2357 63.4071 56.7374 63.4071C56.2391 63.4071 55.7611 63.2114 55.4088 62.8631C55.0564 62.5147 54.8584 62.0423 54.8584 61.5497C54.8583 61.3012 54.9087 61.0552 55.0065 60.8263C55.1043 60.5974 55.2476 60.3902 55.4279 60.217C55.6081 60.0438 55.8217 59.9081 56.056 59.818C56.2903 59.7279 56.5405 59.6852 56.7918 59.6923Z" fill="white"/>
<path fill-rule="evenodd" clip-rule="evenodd" d="M69.8901 42.3729C69.8901 49.442 67.0492 56.2216 61.9925 61.2202C56.9358 66.2188 50.0774 69.027 42.9261 69.027C35.7748 69.027 28.9164 66.2188 23.8597 61.2202C18.803 56.2216 15.9621 49.442 15.9621 42.3729C15.9621 35.3038 18.803 28.5243 23.8597 23.5257C28.9164 18.5271 35.7748 15.7189 42.9261 15.7189C50.0774 15.7189 56.9358 18.5271 61.9925 23.5257C67.0492 28.5243 69.8901 35.3038 69.8901 42.3729ZM69.3826 39.7989L73.5876 42.3729L69.3826 44.947L72.9955 48.2854L68.3676 49.9995L71.2555 53.971L66.3678 54.7593L68.4219 59.2146L63.4738 59.0414L64.6096 63.8072L59.7884 62.6845L59.9636 67.5757L55.4565 65.5452L54.659 70.3767L50.6413 67.522L48.9074 72.0967L45.5301 68.5253L42.9261 72.682L40.3221 68.5253L36.9449 72.0967L35.2109 67.522L31.1932 70.3767L30.3957 65.5452L25.8886 67.5757L26.0638 62.6845L21.2426 63.8072L22.3784 59.0414L17.4303 59.2146L19.4844 54.7593L14.5967 53.971L17.4846 49.9995L12.8567 48.2854L16.4696 44.947L12.2646 42.3729L16.4696 39.7989L12.8567 36.4604L17.4846 34.7464L14.5967 30.7749L19.4844 29.9865L17.4303 25.5313L22.3784 25.7045L21.2426 20.9386L26.0638 22.0614L25.8886 17.1702L30.3957 19.2007L31.1932 14.3692L35.2109 17.2239L36.9449 12.6492L40.3221 16.2206L42.9261 12.0639L45.5301 16.2206L48.9074 12.6492L50.6413 17.2239L54.659 14.3692L55.4565 19.2007L59.9636 17.1702L59.7884 22.0614L64.6096 20.9386L63.4738 25.7045L68.4219 25.5313L66.3678 29.9865L71.2555 30.7749L68.3676 34.7464L72.9955 36.4604L69.3826 39.7989Z" fill="white" stroke="white" stroke-width="3" stroke-linecap="round" stroke-linejoin="round"/>
</svg>
