<svg width="80" height="68" viewBox="0 0 80 68" fill="none" xmlns="http://www.w3.org/2000/svg">
<path opacity="0.8" d="M40 34L30 51.0002L40 68L50 51.0002L40 34Z" fill="white"/>
<path opacity="0.6" d="M50 17.0002L40 34L50 51.0002L60 34L50 17.0002Z" fill="white"/>
<path opacity="0.6" d="M30 17.0002L20 34L30 51.0002L40 34L30 17.0002Z" fill="white"/>
<path opacity="0.45" d="M60 0L50 17.0002L60 34L70 17.0002L60 0Z" fill="white"/>
<path opacity="0.45" d="M45 8.49988H35L30 17.0002L40 34L50 17.0002L45 8.49988Z" fill="white"/>
<path opacity="0.45" d="M20 0L10 17.0002L20 34L30 17.0002L20 0Z" fill="white"/>
<path opacity="0.3" d="M70 16.9998L80 0H60L70 16.9998Z" fill="white"/>
<path opacity="0.3" d="M10 16.9998L20 0H0L10 16.9998Z" fill="white"/>
</svg>
