<svg width="1261" height="662" viewBox="0 0 1261 662" fill="none" xmlns="http://www.w3.org/2000/svg">
<g opacity="0.05">
<path fill-rule="evenodd" clip-rule="evenodd" d="M825.638 246.314L781.161 288.929C757.216 311.864 757.076 349.203 780.834 372.318C780.946 372.421 781.049 372.527 781.161 372.635L825.638 415.245C849.581 438.18 849.724 475.519 825.966 498.634C825.854 498.743 825.742 498.843 825.638 498.952L673.773 644.451C649.959 667.269 611.537 667.269 587.723 644.451L304.017 372.635C280.075 349.692 279.924 312.361 303.69 289.246C303.793 289.138 303.905 289.029 304.017 288.929L587.723 17.1126C611.537 -5.7042 649.959 -5.7042 673.773 17.1126L825.638 162.606C849.581 185.548 849.724 222.881 825.966 245.996C825.854 246.104 825.742 246.21 825.638 246.314Z" fill="#E8E8E8"/>
<path fill-rule="evenodd" clip-rule="evenodd" d="M289.409 239.357L244.933 281.964C220.996 304.907 220.847 342.241 244.605 365.356C244.717 365.464 244.828 365.57 244.933 365.673L289.409 408.281C313.355 431.224 313.503 468.562 289.737 491.672C289.628 491.781 289.521 491.887 289.409 491.995L263.114 517.19C239.294 540.006 200.878 540.006 177.062 517.19L18.9204 365.673C-5.02347 342.736 -5.17079 305.397 18.5917 282.282C18.7006 282.173 18.8101 282.073 18.9204 281.964L177.062 130.454C200.878 107.637 239.294 107.637 263.114 130.454L289.409 155.649C313.355 178.591 313.503 215.924 289.737 239.039C289.628 239.148 289.521 239.254 289.409 239.357Z" fill="#E8E8E8"/>
<path fill-rule="evenodd" clip-rule="evenodd" d="M1084.81 130.454L1242.94 281.966C1266.89 304.906 1267.04 342.239 1243.28 365.354C1243.17 365.463 1243.05 365.571 1242.94 365.672L1084.81 517.188C1060.99 540.007 1022.57 540.007 998.758 517.188L840.617 365.672C816.672 342.737 816.523 305.398 840.287 282.283C840.393 282.18 840.505 282.072 840.617 281.966L998.758 130.454C1022.57 107.637 1060.99 107.637 1084.81 130.454Z" fill="#E8E8E8"/>
</g>
</svg>
