<svg width="32" height="32" viewBox="0 0 32 32" fill="none" xmlns="http://www.w3.org/2000/svg">
<path d="M16 0C7.16429 0 0 7.16429 0 16C0 24.8357 7.16429 32 16 32C24.8357 32 32 24.8357 32 16C32 7.16429 24.8357 0 16 0ZM25.1429 9.06071L23.6857 10.4571C23.5571 10.5536 23.4964 10.7107 23.5214 10.8643V21.1393C23.4964 21.2964 23.5571 21.4536 23.6857 21.5464L25.1143 22.9429V23.2536H17.9429V22.9571L19.4179 21.525C19.5643 21.3786 19.5643 21.3357 19.5643 21.1179V12.8036L15.4571 23.2179H14.9036L10.125 12.8036V19.7857C10.0821 20.0786 10.1857 20.375 10.3929 20.5857L12.3143 22.9107V23.2214H6.85714V22.9107L8.77857 20.5857C8.87981 20.4811 8.95515 20.3543 8.99856 20.2154C9.04197 20.0765 9.05225 19.9293 9.02857 19.7857V11.7143C9.05357 11.4893 8.96786 11.2714 8.79643 11.1179L7.08929 9.06071V8.75H12.3929L16.4857 17.7321L20.0893 8.75714H25.1429V9.06071Z" fill="#BBBBBB"/>
</svg>
