<svg width="46" height="44" viewBox="0 0 46 44" fill="none" xmlns="http://www.w3.org/2000/svg">
<path fill-rule="evenodd" clip-rule="evenodd" d="M22.9588 0.00013472C17.5075 0.000855345 12.2342 1.90663 8.08231 5.37654C3.93042 8.84645 1.17074 13.6541 0.296949 18.9396C-0.576847 24.225 0.492237 29.6435 3.31296 34.2256C6.13369 38.8077 10.522 42.2546 15.693 43.9497C16.8411 44.1592 17.3331 43.4664 17.3331 42.8703V39.036C10.953 40.3893 9.60813 36.0072 9.60813 36.0072C9.15947 34.6263 8.2152 33.4525 6.95111 32.7046C4.86815 31.319 7.11513 31.3352 7.11513 31.3352C7.8427 31.4361 8.53716 31.6991 9.14546 32.1039C9.75377 32.5088 10.2598 33.0449 10.625 33.6712C11.2603 34.7904 12.3221 35.6161 13.577 35.9665C14.8318 36.317 16.177 36.1635 17.3167 35.54C17.4093 34.3969 17.9224 33.326 18.7601 32.5273C13.6757 31.9474 8.31242 30.0141 8.31242 21.3788C8.27524 19.1361 9.12138 16.9659 10.6742 15.3213C9.97135 13.3786 10.0535 11.2453 10.9038 9.36036C10.9038 9.36036 12.8228 8.74816 17.2183 11.6642C20.9767 10.6572 24.9409 10.6572 28.6992 11.6642C33.0784 8.74816 34.9974 9.36036 34.9974 9.36036C35.8477 11.2453 35.9298 13.3786 35.227 15.3213C36.7798 16.9659 37.6259 19.1361 37.5888 21.3788C37.5888 30.0463 32.2255 31.9474 27.1083 32.5112C27.6565 33.057 28.0792 33.7118 28.348 34.4316C28.6167 35.1514 28.7253 35.9194 28.6664 36.6839V42.8703C28.6664 43.6114 29.0765 44.1753 30.3066 43.9497C35.4843 42.2525 39.8772 38.799 42.6975 34.2084C45.5178 29.6178 46.581 24.1905 45.6964 18.8997C44.8119 13.6089 42.0374 8.80065 37.8706 5.33719C33.7038 1.87373 28.4172 -0.0183883 22.9588 0.00013472Z" fill="#141414"/>
</svg>
