<svg width="48" height="48" viewBox="0 0 48 48" fill="none" xmlns="http://www.w3.org/2000/svg">
<rect width="48" height="48" rx="24" fill="#171717"/>
<path d="M13.8603 17.1801C13.8943 16.824 13.7648 16.4713 13.509 16.2317L10.9108 12.9677V12.48H18.9822L25.221 26.7441L30.7054 12.48H38.3996V12.9677L36.177 15.1887C35.9859 15.3406 35.8904 15.592 35.9293 15.8384V32.1615C35.8888 32.4096 35.9843 32.6594 36.177 32.8113L38.3478 35.0322V35.52H27.4306V35.0322L29.6791 32.7573C29.8993 32.5278 29.8993 32.4586 29.8993 32.1075V18.915L23.6475 35.4693H22.8025L15.5244 18.915V30.0098C15.4645 30.4756 15.6118 30.9464 15.9275 31.2839L18.8526 34.9816V35.4693H10.5596V34.9816L13.4847 31.2839C13.7972 30.9464 13.938 30.4739 13.8619 30.0098L13.8603 17.1801Z" fill="white"/>
</svg>
