<svg width="48" height="48" viewBox="0 0 48 48" fill="none" xmlns="http://www.w3.org/2000/svg">
<rect width="48" height="48" rx="24" fill="#171717"/>
<path d="M10.5596 32.1754C13.0245 33.7083 15.9004 34.5599 19.0109 34.5599C29.223 34.5599 34.9746 26.2141 34.6811 18.7199C35.7376 17.9819 36.6766 17.0167 37.4396 15.938C36.4418 16.3354 35.3854 16.6761 34.2703 16.7896C35.3854 16.1083 36.2658 15.0864 36.6766 13.8374C35.6202 14.4619 34.4464 14.9161 33.1552 15.1432C32.1575 14.1212 30.7489 13.4399 29.1643 13.4399C25.5842 13.4399 23.0018 16.6193 23.8235 19.969C19.187 19.7987 15.1374 17.698 12.4376 14.4619C10.9704 16.8464 11.6747 19.969 14.1397 21.5587C13.2593 21.5587 12.379 21.2748 11.6747 20.8774C11.616 23.3187 13.4354 25.6464 16.0764 26.1574C15.3135 26.3845 14.4331 26.3845 13.6114 26.2709C14.3157 28.3716 16.3699 29.9045 18.7762 29.9612C16.3699 31.7212 13.4941 32.5161 10.5596 32.1754Z" fill="white"/>
</svg>
