<svg width="46" height="46" viewBox="0 0 46 46" fill="none" xmlns="http://www.w3.org/2000/svg">
<path d="M26.8405 22.5999L21.4595 20.0891C20.9899 19.871 20.6042 20.1154 20.6042 20.6353V25.3647C20.6042 25.8846 20.9899 26.129 21.4595 25.9109L26.8381 23.4001C27.3101 23.1797 27.3101 22.8203 26.8405 22.5999ZM23 0C10.2973 0 0 10.2973 0 23C0 35.7027 10.2973 46 23 46C35.7027 46 46 35.7027 46 23C46 10.2973 35.7027 0 23 0ZM23 32.3438C11.2269 32.3438 11.0208 31.2824 11.0208 23C11.0208 14.7176 11.2269 13.6562 23 13.6562C34.7731 13.6562 34.9792 14.7176 34.9792 23C34.9792 31.2824 34.7731 32.3438 23 32.3438Z" fill="#141414"/>
</svg>
