<svg width="45" height="25" viewBox="0 0 45 25" fill="none" xmlns="http://www.w3.org/2000/svg">
<path fill-rule="evenodd" clip-rule="evenodd" d="M29.4509 9.85591L27.8626 11.3957C27.0075 12.2244 27.0024 13.5736 27.8508 14.4088C27.8548 14.4124 27.8586 14.4163 27.8626 14.4202L29.4509 15.9598C30.3059 16.7885 30.311 18.1377 29.4626 18.9729C29.4586 18.9768 29.4546 18.9804 29.4509 18.9843L24.0277 24.2416C23.1773 25.066 21.8052 25.066 20.9547 24.2416L10.8235 14.4202C9.96842 13.5913 9.96311 12.2424 10.8118 11.4071C10.8155 11.4033 10.8195 11.3994 10.8235 11.3957L20.9547 1.57437C21.8052 0.74995 23.1773 0.74995 24.0277 1.57437L29.4509 6.83139C30.3059 7.66034 30.311 9.00925 29.4626 9.84446C29.4586 9.84835 29.4546 9.85224 29.4509 9.85591Z" fill="white"/>
<path fill-rule="evenodd" clip-rule="evenodd" d="M10.3041 9.60471L8.71581 11.1443C7.86098 11.9732 7.85568 13.3222 8.70409 14.1574C8.70807 14.1613 8.71205 14.1651 8.71581 14.1688L10.3041 15.7084C11.1592 16.5373 11.1645 17.8865 10.3158 18.7215C10.3118 18.7254 10.3081 18.7292 10.3041 18.7331L9.36505 19.6435C8.51443 20.4679 7.14255 20.4679 6.29207 19.6435L0.644743 14.1688C-0.210306 13.3401 -0.215568 11.9909 0.633005 11.1557C0.636896 11.1518 0.640809 11.1482 0.644743 11.1443L6.29207 5.66983C7.14255 4.84541 8.51443 4.84541 9.36505 5.66983L10.3041 6.58019C11.1592 7.40914 11.1645 8.75805 10.3158 9.59326C10.3118 9.59715 10.3081 9.60104 10.3041 9.60471Z" fill="white"/>
<path fill-rule="evenodd" clip-rule="evenodd" d="M38.7088 5.66983L44.3559 11.1443C45.2109 11.9732 45.2163 13.3222 44.3678 14.1574C44.3639 14.1613 44.3599 14.1651 44.3559 14.1688L38.7088 19.6435C37.8581 20.4679 36.4863 20.4679 35.6359 19.6435L29.9885 14.1688C29.1335 13.3401 29.1282 11.9909 29.9768 11.1557C29.9805 11.1521 29.9845 11.1482 29.9885 11.1443L35.6359 5.66983C36.4863 4.84541 37.8581 4.84541 38.7088 5.66983Z" fill="white"/>
</svg>
