<svg width="74" height="75" viewBox="0 0 74 75" fill="none" xmlns="http://www.w3.org/2000/svg">
<path d="M71.9236 46.4419C67.1148 65.7299 47.5781 77.4672 28.2878 72.6584C9.00649 67.8496 -2.73196 48.3129 2.07796 29.026C6.8845 9.73573 26.4201 -2.00384 45.7047 2.80496C64.9939 7.61375 76.7312 27.1527 71.9224 46.4419H71.9236Z" stroke="white" stroke-width="2"/>
<path d="M52.8748 32.6045C53.5904 27.8137 49.9427 25.2383 44.955 23.5202L46.5729 17.0305L42.6215 16.046L41.0463 22.3647C40.009 22.1059 38.9423 21.8618 37.8825 21.6198L39.4689 15.2595L35.5208 14.275L33.9018 20.7625C33.0422 20.5667 32.1983 20.3732 31.3792 20.1696L31.3837 20.1493L25.9359 18.789L24.885 23.0083C24.885 23.0083 27.816 23.68 27.7541 23.7216C29.354 24.121 29.6443 25.1797 29.5948 26.0191L27.7518 33.4123C27.8621 33.4404 28.005 33.4809 28.1625 33.5439L27.7462 33.4404L25.1618 43.7972C24.966 44.2833 24.4698 45.0124 23.3515 44.7356C23.3908 44.793 20.4801 44.0189 20.4801 44.0189L18.519 48.5419L23.6609 49.8234C24.6172 50.063 25.5545 50.3139 26.4759 50.5502L24.8411 57.1153L28.7869 58.0998L30.4071 51.6056C31.4839 51.8981 32.5302 52.1682 33.5541 52.4224L31.9407 58.8863L35.891 59.8708L37.5258 53.3192C44.2619 54.5939 49.3284 54.0797 51.4583 47.9883C53.1763 43.0828 51.3739 40.2531 47.8297 38.4067C50.4108 37.8093 52.355 36.1115 52.8737 32.6045H52.8748ZM43.8479 45.261C42.626 50.1666 34.3676 47.5158 31.6887 46.8497L33.8579 38.1536C36.5357 38.8219 45.1215 40.1451 43.849 45.261H43.8479ZM45.0687 32.5336C43.9548 36.9958 37.0803 34.7287 34.8491 34.1729L36.8159 26.2858C39.047 26.8416 46.2298 27.8789 45.0687 32.5336V32.5336Z" stroke="white" stroke-width="2"/>
</svg>
