<svg width="57" height="53" viewBox="0 0 57 53" fill="none" xmlns="http://www.w3.org/2000/svg">
<g id="kakaotalk">
<path id="Path" d="M12.6844 51.583C12.7063 51.5771 12.7264 51.5713 12.7445 51.5658C12.915 51.5245 13.0666 51.4549 13.1523 51.4147C13.2937 51.3482 13.4547 51.2625 13.6253 51.1663C13.9684 50.9728 14.4003 50.7088 14.8851 50.4012C15.8575 49.7845 17.0849 48.9662 18.3262 48.1234C20.5317 46.6259 22.8036 45.0355 23.8162 44.3237C25.2499 44.5093 26.7204 44.6052 28.2184 44.6052C43.016 44.6052 55.4368 35.1137 55.4368 22.9388C55.4368 10.7643 43.016 1.27246 28.2184 1.27246C13.4208 1.27246 1 10.7643 1 22.9388C1 30.5379 5.88295 37.1215 13.0996 40.9621C12.8046 41.9818 12.3292 43.6296 11.8758 45.2222C11.5726 46.2869 11.2786 47.3294 11.0546 48.1438C10.9427 48.5506 10.8474 48.9039 10.7769 49.1759C10.7136 49.4201 10.653 49.6629 10.6325 49.8026L10.6304 49.8168L10.6287 49.8311L11.6218 49.9478C10.6287 49.8311 10.6287 49.8314 10.6286 49.8318L10.6286 49.8324L10.6284 49.8338L10.6281 49.8368L10.6274 49.8433L10.6258 49.8585C10.6248 49.8697 10.6237 49.8829 10.6226 49.898C10.6205 49.928 10.6187 49.9663 10.6183 50.0108C10.6175 50.0975 10.622 50.221 10.6464 50.3618C10.6895 50.61 10.8331 51.1186 11.35 51.423C11.7416 51.6535 12.1351 51.6623 12.375 51.639C12.5009 51.6267 12.6071 51.6037 12.6844 51.583Z" stroke="white" stroke-width="2"/>
<g id="Shape">
<mask id="path-2-outside-1" maskUnits="userSpaceOnUse" x="6.36475" y="13.764" width="44" height="19" fill="black">
<rect fill="white" x="6.36475" y="13.764" width="44" height="19"/>
<path fill-rule="evenodd" clip-rule="evenodd" d="M13.7219 30.153C12.8877 30.153 12.2093 29.5053 12.2093 28.7089V19.7253H9.84911C9.03054 19.7253 8.36475 19.061 8.36475 18.2446C8.36475 17.4283 9.03079 16.764 9.84911 16.764H17.5946C18.4132 16.764 19.079 17.4283 19.079 18.2446C19.079 19.061 18.4129 19.7253 17.5946 19.7253H15.2345V28.7089C15.2345 29.5053 14.5561 30.153 13.7219 30.153ZM26.9855 30.1332C26.3548 30.1332 25.8723 29.8772 25.7268 29.4654L24.9778 27.5051L20.3654 27.5048L19.6159 29.4664C19.4709 29.8774 18.9887 30.1332 18.3579 30.1332C18.0261 30.1336 17.6982 30.0624 17.3964 29.9246C16.9794 29.7323 16.5786 29.2035 17.0379 27.7773L20.6561 18.2566C20.9109 17.5325 21.6851 16.7865 22.6703 16.7641C23.6583 16.7863 24.4325 17.5325 24.6879 18.2581L28.3045 27.7745C28.7649 29.204 28.364 29.733 27.947 29.9248C27.6452 30.0624 27.3173 30.1335 26.9855 30.1332ZM22.6712 20.5366L24.182 24.8274H21.1603L22.6712 20.5366ZM30.7387 29.9326C29.9393 29.9326 29.2891 29.3106 29.2891 28.5465V18.2763C29.2891 17.4423 29.9819 16.7641 30.8332 16.7641C31.6846 16.7641 32.3773 17.4423 32.3773 18.2763V27.1603H35.5916C36.391 27.1603 37.0412 27.7823 37.0412 28.5465C37.0412 29.3106 36.391 29.9326 35.5916 29.9326H30.7387ZM37.6297 28.6213C37.6297 29.4553 38.3081 30.1335 39.1423 30.1335C39.9776 30.1324 40.6545 29.4556 40.6554 28.6206V25.3212L41.1803 24.7965L44.7276 29.4953C45.0125 29.8757 45.4607 30.0986 45.9359 30.0964C46.2645 30.0972 46.5842 29.99 46.8458 29.7912C47.1668 29.5506 47.3782 29.1914 47.4326 28.7939C47.4896 28.3967 47.385 27.9932 47.1422 27.6737L43.419 22.7425L46.8659 19.297C47.1029 19.0598 47.2216 18.7329 47.1997 18.3763C47.178 18.0227 47.02 17.6822 46.755 17.4176C46.4709 17.1338 46.0917 16.971 45.7141 16.971C45.3904 16.971 45.0921 17.0905 44.8751 17.3075L40.6549 21.5264V18.2763C40.6549 17.4423 39.9765 16.7641 39.1423 16.7641C38.3081 16.7641 37.6297 17.4423 37.6297 18.2763V28.6213Z"/>
</mask>
<path d="M12.2093 19.7253H14.2093V17.7253H12.2093V19.7253ZM15.2345 19.7253V17.7253H13.2345V19.7253H15.2345ZM25.7268 29.4654L27.6126 28.7992L27.6041 28.7753L27.5951 28.7515L25.7268 29.4654ZM26.9855 30.1332L26.9871 28.1332H26.9855V30.1332ZM24.9778 27.5051L26.8461 26.7912L26.3547 25.5051L24.9779 25.5051L24.9778 27.5051ZM20.3654 27.5048L20.3655 25.5048L18.9886 25.5047L18.4971 26.791L20.3654 27.5048ZM19.6159 29.4664L17.7476 28.7525L17.7384 28.7767L17.7297 28.8012L19.6159 29.4664ZM18.3579 30.1332L18.3579 28.1332L18.3559 28.1332L18.3579 30.1332ZM17.3964 29.9246L16.5588 31.7407L16.5654 31.7438L17.3964 29.9246ZM17.0379 27.7773L15.1684 27.0668L15.15 27.115L15.1342 27.1642L17.0379 27.7773ZM20.6561 18.2566L22.5256 18.9671L22.5344 18.944L22.5426 18.9207L20.6561 18.2566ZM22.6703 16.7641L22.7152 14.7646L22.67 14.7636L22.6248 14.7646L22.6703 16.7641ZM24.6879 18.2581L22.8013 18.9221L22.8096 18.9455L22.8184 18.9686L24.6879 18.2581ZM28.3045 27.7745L30.2082 27.1614L30.1924 27.1123L30.1741 27.064L28.3045 27.7745ZM27.947 29.9248L28.7766 31.7446L28.7828 31.7418L27.947 29.9248ZM24.182 24.8274V26.8274H27.0066L26.0685 24.1632L24.182 24.8274ZM22.6712 20.5366L24.5576 19.8724L22.6712 14.5148L20.7847 19.8724L22.6712 20.5366ZM21.1603 24.8274L19.2739 24.1632L18.3358 26.8274H21.1603V24.8274ZM32.3773 27.1603H30.3773V29.1603H32.3773V27.1603ZM39.1423 30.1335L39.1423 32.1335L39.145 32.1335L39.1423 30.1335ZM40.6554 28.6206L42.6554 28.6229V28.6206H40.6554ZM40.6554 25.3212L39.2414 23.9068L38.6554 24.4926V25.3212H40.6554ZM41.1803 24.7965L42.7765 23.5915L41.3917 21.7571L39.7663 23.3821L41.1803 24.7965ZM44.7276 29.4953L46.3284 28.2964L46.3238 28.2903L44.7276 29.4953ZM45.9359 30.0964L45.9408 28.0964L45.9337 28.0964L45.9266 28.0965L45.9359 30.0964ZM46.8458 29.7912L45.6462 28.1909L45.6357 28.1988L46.8458 29.7912ZM47.4326 28.7939L45.4529 28.5098L45.4512 28.5224L47.4326 28.7939ZM47.1422 27.6737L45.5461 28.8788L45.5498 28.8837L47.1422 27.6737ZM43.419 22.7425L42.005 21.328L40.774 22.5585L41.8228 23.9476L43.419 22.7425ZM46.8659 19.297L48.2798 20.7115L48.2807 20.7106L46.8659 19.297ZM47.1997 18.3763L45.2035 18.4987L45.2035 18.4991L47.1997 18.3763ZM46.755 17.4176L45.3416 18.8326L45.3417 18.8327L46.755 17.4176ZM44.8751 17.3075L43.4611 15.893L43.4611 15.8931L44.8751 17.3075ZM40.6549 21.5264H38.6549V26.3539L42.069 22.9408L40.6549 21.5264ZM10.2093 28.7089C10.2093 30.6962 11.8714 32.153 13.7219 32.153V28.153C13.9039 28.153 14.2093 28.3145 14.2093 28.7089H10.2093ZM10.2093 19.7253V28.7089H14.2093V19.7253H10.2093ZM9.84911 21.7253H12.2093V17.7253H9.84911V21.7253ZM6.36475 18.2446C6.36475 20.1701 7.93049 21.7253 9.84911 21.7253V17.7253C10.1306 17.7253 10.3647 17.9519 10.3647 18.2446H6.36475ZM9.84911 14.764C7.93096 14.764 6.36475 16.319 6.36475 18.2446H10.3647C10.3647 18.5376 10.1306 18.764 9.84911 18.764V14.764ZM17.5946 14.764H9.84911V18.764H17.5946V14.764ZM21.079 18.2446C21.079 16.3192 19.5132 14.764 17.5946 14.764V18.764C17.3131 18.764 17.079 18.5374 17.079 18.2446H21.079ZM17.5946 21.7253C19.5128 21.7253 21.079 20.1703 21.079 18.2446H17.079C17.079 17.9517 17.3131 17.7253 17.5946 17.7253V21.7253ZM15.2345 21.7253H17.5946V17.7253H15.2345V21.7253ZM17.2345 28.7089V19.7253H13.2345V28.7089H17.2345ZM13.7219 32.153C15.5723 32.153 17.2345 30.6962 17.2345 28.7089H13.2345C13.2345 28.3145 13.5398 28.153 13.7219 28.153V32.153ZM23.841 30.1315C24.3949 31.6997 25.9609 32.1332 26.9855 32.1332V28.1332C26.9277 28.1332 26.985 28.1198 27.1116 28.187C27.248 28.2594 27.4876 28.4453 27.6126 28.7992L23.841 30.1315ZM23.1095 28.2189L23.8585 30.1792L27.5951 28.7515L26.8461 26.7912L23.1095 28.2189ZM20.3653 29.5048L24.9777 29.5051L24.9779 25.5051L20.3655 25.5048L20.3653 29.5048ZM21.4842 30.1802L22.2337 28.2187L18.4971 26.791L17.7476 28.7525L21.4842 30.1802ZM18.3579 32.1332C19.3806 32.1332 20.9486 31.701 21.5021 30.1315L17.7297 28.8012C17.8551 28.4456 18.0959 28.2592 18.2322 28.1869C18.3589 28.1198 18.4161 28.1332 18.3579 28.1332V32.1332ZM16.5654 31.7438C17.1287 32.001 17.7408 32.1339 18.36 32.1332L18.3559 28.1332C18.3115 28.1333 18.2677 28.1238 18.2274 28.1053L16.5654 31.7438ZM15.1342 27.1642C14.8431 28.068 14.7187 28.9934 14.9645 29.8596C15.2386 30.8255 15.8897 31.4321 16.5588 31.7407L18.234 28.1084C18.337 28.1559 18.4669 28.2377 18.5863 28.3703C18.7099 28.5076 18.78 28.6528 18.8126 28.7677C18.8426 28.8733 18.8298 28.9131 18.835 28.8489C18.8403 28.7829 18.8624 28.6365 18.9416 28.3904L15.1342 27.1642ZM18.7865 17.5461L15.1684 27.0668L18.9075 28.4877L22.5256 18.9671L18.7865 17.5461ZM22.6248 14.7646C20.6552 14.8095 19.2462 16.2384 18.7695 17.5926L22.5426 18.9207C22.5381 18.9334 22.5416 18.9192 22.5633 18.889C22.5841 18.8601 22.6114 18.8309 22.6414 18.8069C22.6708 18.7833 22.6939 18.7716 22.7064 18.7667C22.7122 18.7644 22.7154 18.7637 22.7161 18.7636C22.7165 18.7635 22.7165 18.7635 22.7163 18.7635C22.7162 18.7635 22.7161 18.7636 22.716 18.7636C22.716 18.7636 22.7159 18.7636 22.7159 18.7636C22.7159 18.7636 22.7159 18.7636 22.7159 18.7636L22.6248 14.7646ZM26.5745 17.5941C26.0972 16.2381 24.6878 14.8089 22.7152 14.7646L22.6255 18.7636C22.6257 18.7636 22.6258 18.7636 22.6266 18.7638C22.6276 18.764 22.631 18.7647 22.637 18.7671C22.6496 18.772 22.6728 18.7837 22.7021 18.8072C22.7319 18.8311 22.7592 18.8603 22.7801 18.8893C22.8018 18.9195 22.8055 18.9341 22.8013 18.9221L26.5745 17.5941ZM30.1741 27.064L26.5574 17.5476L22.8184 18.9686L26.435 28.485L30.1741 27.064ZM28.7828 31.7418C29.4539 31.4331 30.1055 30.8253 30.3792 29.8584C30.6244 28.9921 30.4996 28.0662 30.2082 27.1614L26.4008 28.3875C26.4804 28.6347 26.5027 28.7821 26.5081 28.8488C26.5134 28.9139 26.5005 28.8745 26.5304 28.7691C26.5628 28.6544 26.633 28.5088 26.757 28.3709C26.8769 28.2377 27.0075 28.1555 27.1113 28.1078L28.7828 31.7418ZM26.984 32.1332C27.6025 32.1337 28.2138 32.0012 28.7766 31.7446L27.1175 28.105C27.0765 28.1236 27.0321 28.1333 26.9871 28.1332L26.984 32.1332ZM26.0685 24.1632L24.5576 19.8724L20.7847 21.2009L22.2955 25.4917L26.0685 24.1632ZM21.1603 26.8274H24.182V22.8274H21.1603V26.8274ZM20.7847 19.8724L19.2739 24.1632L23.0468 25.4917L24.5576 21.2009L20.7847 19.8724ZM27.2891 28.5465C27.2891 30.4983 28.9197 31.9326 30.7387 31.9326V27.9326C30.9589 27.9326 31.2891 28.1229 31.2891 28.5465H27.2891ZM27.2891 18.2763V28.5465H31.2891V18.2763H27.2891ZM30.8332 14.7641C28.9171 14.7641 27.2891 16.2983 27.2891 18.2763H31.2891C31.2891 18.5863 31.0466 18.7641 30.8332 18.7641V14.7641ZM34.3773 18.2763C34.3773 16.2983 32.7493 14.7641 30.8332 14.7641V18.7641C30.6198 18.7641 30.3773 18.5863 30.3773 18.2763H34.3773ZM34.3773 27.1603V18.2763H30.3773V27.1603H34.3773ZM35.5916 25.1603H32.3773V29.1603H35.5916V25.1603ZM39.0412 28.5465C39.0412 26.5946 37.4106 25.1603 35.5916 25.1603V29.1603C35.3714 29.1603 35.0412 28.97 35.0412 28.5465H39.0412ZM35.5916 31.9326C37.4106 31.9326 39.0412 30.4983 39.0412 28.5465H35.0412C35.0412 28.1229 35.3714 27.9326 35.5916 27.9326V31.9326ZM30.7387 31.9326H35.5916V27.9326H30.7387V31.9326ZM39.1423 28.1335C39.4122 28.1335 39.6297 28.3502 39.6297 28.6213H35.6297C35.6297 30.5604 37.2041 32.1335 39.1423 32.1335V28.1335ZM38.6554 28.6182C38.6558 28.3501 38.8729 28.1338 39.1397 28.1335L39.145 32.1335C41.0824 32.1309 42.6532 30.5611 42.6554 28.6229L38.6554 28.6182ZM38.6554 25.3212V28.6206H42.6554V25.3212H38.6554ZM39.7663 23.3821L39.2414 23.9068L42.0695 26.7356L42.5943 26.2109L39.7663 23.3821ZM46.3238 28.2903L42.7765 23.5915L39.5841 26.0015L43.1314 30.7004L46.3238 28.2903ZM45.9266 28.0965C46.0845 28.0957 46.2336 28.1698 46.3284 28.2964L43.1268 30.6943C43.7913 31.5816 44.8368 32.1016 45.9452 32.0964L45.9266 28.0965ZM45.6357 28.1988C45.7235 28.1321 45.8307 28.0962 45.9408 28.0964L45.931 32.0964C46.6983 32.0983 47.4449 31.8479 48.0558 31.3836L45.6357 28.1988ZM45.4512 28.5224C45.4693 28.3902 45.5396 28.2708 45.6462 28.1909L48.0453 31.3916C48.7941 30.8303 49.2871 29.9927 49.4141 29.0655L45.4512 28.5224ZM45.5498 28.8837C45.4688 28.7772 45.4339 28.6425 45.4529 28.5098L49.4124 29.0781C49.5454 28.1509 49.3013 27.2093 48.7346 26.4636L45.5498 28.8837ZM41.8228 23.9476L45.5461 28.8788L48.7384 26.4685L45.0151 21.5373L41.8228 23.9476ZM45.452 17.8825L42.005 21.328L44.8329 24.157L48.2798 20.7115L45.452 17.8825ZM45.2035 18.4991C45.1928 18.3249 45.2551 18.0796 45.4512 17.8833L48.2807 20.7106C48.9507 20.0401 49.2505 19.141 49.1959 18.2536L45.2035 18.4991ZM45.3417 18.8327C45.283 18.7741 45.2135 18.663 45.2035 18.4987L49.196 18.2539C49.1425 17.3825 48.7569 16.5904 48.1683 16.0025L45.3417 18.8327ZM45.7141 18.971C45.5249 18.971 45.4056 18.8966 45.3416 18.8326L48.1684 16.0026C47.5361 15.3711 46.6586 14.971 45.7141 14.971V18.971ZM46.2891 18.7219C46.1083 18.9027 45.8875 18.971 45.7141 18.971V14.971C44.8932 14.971 44.076 15.2783 43.4611 15.893L46.2891 18.7219ZM42.069 22.9408L46.2891 18.7219L43.4611 15.8931L39.2409 20.112L42.069 22.9408ZM38.6549 18.2763V21.5264H42.6549V18.2763H38.6549ZM39.1423 18.7641C38.8725 18.7641 38.6549 18.5474 38.6549 18.2763H42.6549C42.6549 16.3372 41.0806 14.7641 39.1423 14.7641V18.7641ZM39.6297 18.2763C39.6297 18.5474 39.4122 18.7641 39.1423 18.7641V14.7641C37.2041 14.7641 35.6297 16.3372 35.6297 18.2763H39.6297ZM39.6297 28.6213V18.2763H35.6297V28.6213H39.6297Z" fill="white" mask="url(#path-2-outside-1)"/>
</g>
</g>
</svg>
