<svg width="46" height="53" viewBox="0 0 46 53" fill="none" xmlns="http://www.w3.org/2000/svg">
<g id="quora">
<path id="Shape" d="M34.332 42.9177L33.3859 42.594L33.2504 42.9899L33.4373 43.3643L34.332 42.9177ZM34.3436 42.884L33.8179 42.0333L33.5133 42.2215L33.3974 42.5603L34.3436 42.884ZM40.0677 46.9033L41.0559 46.7504L40.9283 45.925L40.0933 45.9036L40.0677 46.9033ZM40.6924 50.854L41.0355 51.7933L41.8136 51.509L41.6791 50.6916L40.6924 50.854ZM28.0278 45.5251L28.8997 45.0353L28.6588 44.6064L28.172 44.5355L28.0278 45.5251ZM27.9879 45.5147L28.3031 44.5657L28.0333 44.4761L27.7567 44.5418L27.9879 45.5147ZM25.8679 40.2445L26.106 41.2157L26.6995 41.0703L26.8408 40.4757L25.8679 40.2445ZM25.8833 40.1977L26.8034 40.5894L26.9879 40.1559L26.7711 39.7376L25.8833 40.1977ZM20.4133 36.6806L19.4249 36.8324L19.5552 37.6809L20.4136 37.6806L20.4133 36.6806ZM19.8851 33.0842L19.4757 32.1719L18.7944 32.4776L18.894 33.2177L19.8851 33.0842ZM31.1776 36.7113L30.3883 37.3252L30.5877 37.5817L30.8998 37.6719L31.1776 36.7113ZM31.2299 36.7166L31.2837 37.7152L31.7475 37.6902L32.0276 37.3197L31.2299 36.7166ZM35.2782 43.2414L35.2897 43.2077L33.3974 42.5603L33.3859 42.594L35.2782 43.2414ZM40.0933 45.9036C38.6865 45.8675 37.7587 45.5048 37.0615 44.9614C36.3414 44.4003 35.7802 43.5798 35.2268 42.4711L33.4373 43.3643C34.0422 44.5761 34.7655 45.7078 35.8321 46.539C36.9214 47.3879 38.2824 47.8578 40.042 47.9029L40.0933 45.9036ZM40.6924 50.854C41.6791 50.6916 41.6791 50.6916 41.6791 50.6916C41.6791 50.6916 41.6791 50.6916 41.6791 50.6916C41.6791 50.6916 41.6791 50.6915 41.6791 50.6915C41.679 50.6913 41.679 50.6911 41.679 50.6908C41.6789 50.6901 41.6787 50.6892 41.6785 50.6879C41.6781 50.6853 41.6774 50.6813 41.6765 50.6761C41.6748 50.6655 41.6722 50.6496 41.6687 50.6284C41.6618 50.586 41.6514 50.5224 41.6378 50.438C41.6104 50.2691 41.5697 50.017 41.5166 49.6845C41.4103 49.0197 41.2544 48.0336 41.0559 46.7504L39.0794 47.0561C39.2784 48.3427 39.4349 49.3321 39.5416 50.0001C39.595 50.3341 39.6359 50.5878 39.6636 50.7582C39.6774 50.8434 39.6879 50.9077 39.6949 50.9509C39.6984 50.9724 39.7011 50.9887 39.7029 50.9996C39.7038 51.0051 39.7045 51.0092 39.7049 51.012C39.7051 51.0134 39.7053 51.0145 39.7054 51.0152C39.7055 51.0155 39.7055 51.0158 39.7056 51.016C39.7056 51.0161 39.7056 51.0162 39.7056 51.0162C39.7056 51.0163 39.7056 51.0163 39.7056 51.0163C39.7056 51.0163 39.7056 51.0163 40.6924 50.854ZM27.156 46.0148C29.4988 50.1856 32.4899 51.8645 35.2022 52.3483C37.8587 52.8222 40.1194 52.1279 41.0355 51.7933L40.3492 49.9147C39.5719 50.1987 37.7041 50.7631 35.5535 50.3794C33.4588 50.0057 30.9643 48.7109 28.8997 45.0353L27.156 46.0148ZM27.9879 45.5147C27.6726 46.4637 27.6726 46.4638 27.6727 46.4638C27.6727 46.4638 27.6728 46.4638 27.6728 46.4638C27.6729 46.4638 27.6729 46.4639 27.673 46.4639C27.6731 46.4639 27.6733 46.464 27.6734 46.464C27.6737 46.4641 27.674 46.4642 27.6743 46.4643C27.6749 46.4645 27.6756 46.4647 27.6763 46.4649C27.6776 46.4654 27.6791 46.4659 27.6808 46.4664C27.684 46.4675 27.6879 46.4687 27.6923 46.4701C27.7009 46.4728 27.7127 46.4764 27.7266 46.4804C27.7417 46.4847 27.8056 46.5033 27.8837 46.5146L28.172 44.5355C28.2096 44.541 28.2374 44.5475 28.2484 44.5501C28.2619 44.5534 28.2719 44.5562 28.2773 44.5577C28.2831 44.5594 28.2879 44.5608 28.2914 44.5619C28.2933 44.5625 28.2952 44.5631 28.2971 44.5637C28.298 44.5641 28.299 44.5644 28.3 44.5647C28.3005 44.5649 28.301 44.565 28.3015 44.5652C28.3018 44.5653 28.3021 44.5654 28.3023 44.5655C28.3024 44.5655 28.3026 44.5656 28.3027 44.5656C28.3028 44.5656 28.3029 44.5656 28.3029 44.5657C28.303 44.5657 28.303 44.5657 28.303 44.5657C28.3031 44.5657 28.3031 44.5657 27.9879 45.5147ZM22.8808 47.1146C24.7188 47.1146 26.5055 46.8947 28.219 46.4877L27.7567 44.5418C26.1903 44.9139 24.5587 45.1146 22.8808 45.1146V47.1146ZM0 23.6207C0 32.0803 2.75804 38.0006 7.08647 41.7916C11.391 45.5616 17.1215 47.1146 22.8808 47.1146V45.1146C17.4532 45.1146 12.2434 43.6495 8.40419 40.2871C4.58894 36.9456 2 31.6189 2 23.6207H0ZM23.0203 0C11.993 0 0 8.63371 0 23.6207H2C2 9.88776 12.9419 2 23.0203 2V0ZM45.898 23.3035C45.898 14.8435 43.1388 8.96784 38.806 5.22358C34.4994 1.5019 28.7699 0 23.0203 0V2C28.4521 2 33.6615 3.42111 37.4983 6.73682C41.309 10.0299 43.898 15.306 43.898 23.3035H45.898ZM34.8692 43.7347C41.4931 39.6418 45.898 32.1884 45.898 23.3035H43.898C43.898 31.5047 39.844 38.3098 33.8179 42.0333L34.8692 43.7347ZM25.6299 39.2732C24.7203 39.4961 23.7888 39.5858 22.8736 39.5858V41.5858C23.9167 41.5858 25.0119 41.4839 26.106 41.2157L25.6299 39.2732ZM24.9632 39.8061C24.9347 39.8731 24.9119 39.9424 24.895 40.0133L26.8408 40.4757C26.8316 40.5146 26.819 40.5527 26.8034 40.5894L24.9632 39.8061ZM20.4136 37.6806C21.7132 37.6803 22.6117 38.0112 23.2887 38.5039C23.9825 39.0089 24.5192 39.739 24.9955 40.6579L26.7711 39.7376C26.2198 38.6739 25.5072 37.645 24.4657 36.8869C23.4073 36.1166 22.0846 35.6802 20.413 35.6806L20.4136 37.6806ZM19.8851 33.0842C18.894 33.2177 18.894 33.2177 18.894 33.2177C18.894 33.2177 18.8941 33.2178 18.8941 33.2178C18.8941 33.2178 18.8941 33.2179 18.8941 33.218C18.8941 33.2182 18.8942 33.2185 18.8942 33.2189C18.8943 33.2196 18.8944 33.2206 18.8946 33.2219C18.895 33.2246 18.8955 33.2285 18.8962 33.2336C18.8976 33.2439 18.8997 33.2591 18.9024 33.2792C18.9079 33.3193 18.9161 33.3789 18.927 33.4576C18.9489 33.615 18.9818 33.8485 19.0257 34.1546C19.1137 34.7667 19.2462 35.669 19.4249 36.8324L21.4017 36.5288C21.224 35.3721 21.0925 34.4762 21.0054 33.8702C20.9619 33.5672 20.9295 33.3366 20.908 33.1822C20.8972 33.105 20.8892 33.0468 20.8839 33.008C20.8813 32.9887 20.8793 32.9742 20.878 32.9646C20.8774 32.9599 20.8769 32.9563 20.8766 32.954C20.8764 32.9528 20.8763 32.952 20.8762 32.9515C20.8762 32.9512 20.8762 32.951 20.8762 32.9509C20.8762 32.9508 20.8762 32.9508 20.8762 32.9508C20.8762 32.9508 20.8762 32.9508 20.8762 32.9508C20.8762 32.9508 20.8762 32.9508 19.8851 33.0842ZM31.9669 36.0973C27.2498 30.0329 21.0631 31.4596 19.4757 32.1719L20.2945 33.9966C21.4011 33.5 26.4482 32.2599 30.3883 37.3252L31.9669 36.0973ZM31.1761 35.7181C31.2529 35.7139 31.3141 35.7211 31.352 35.7272C31.3727 35.7306 31.3915 35.7344 31.408 35.7383C31.4164 35.7402 31.4245 35.7422 31.4323 35.7443C31.4363 35.7453 31.4402 35.7463 31.444 35.7474C31.4459 35.7479 31.4478 35.7485 31.4497 35.749C31.4507 35.7493 31.4516 35.7495 31.4526 35.7498C31.453 35.75 31.4535 35.7501 31.454 35.7502C31.4542 35.7503 31.4545 35.7504 31.4547 35.7504C31.4548 35.7505 31.455 35.7505 31.4551 35.7505C31.4552 35.7506 31.4554 35.7506 31.1776 36.7113C30.8998 37.6719 30.9 37.672 30.9002 37.672C30.9002 37.672 30.9004 37.6721 30.9005 37.6721C30.9007 37.6722 30.901 37.6723 30.9012 37.6723C30.9017 37.6725 30.9022 37.6726 30.9027 37.6727C30.9036 37.673 30.9046 37.6733 30.9056 37.6736C30.9076 37.6741 30.9097 37.6747 30.9118 37.6753C30.916 37.6765 30.9204 37.6776 30.925 37.6789C30.9343 37.6813 30.9445 37.6838 30.9555 37.6864C30.9774 37.6915 31.0039 37.697 31.0342 37.7018C31.0911 37.711 31.1785 37.7209 31.2837 37.7152L31.1761 35.7181ZM33.4264 23.8333C33.4264 30.0512 32.1546 33.8353 30.4322 36.1136L32.0276 37.3197C34.111 34.564 35.4264 30.2889 35.4264 23.8333H33.4264ZM23.1685 7.52814C25.5509 7.52814 28.0531 8.28114 29.9832 10.5814C31.9371 12.9102 33.4264 16.9676 33.4264 23.8333H35.4264C35.4264 16.7202 33.8891 12.125 31.5153 9.29591C29.1176 6.43833 25.9908 5.52814 23.1685 5.52814V7.52814ZM12.4339 24.365C12.4339 17.5194 14.0334 13.3208 16.114 10.8491C18.1812 8.39334 20.8181 7.52814 23.1685 7.52814V5.52814C20.313 5.52814 17.0826 6.59273 14.5839 9.5611C12.0987 12.5134 10.4339 17.2333 10.4339 24.365H12.4339ZM22.8736 39.5858C20.4014 39.5858 17.8649 39.0539 15.924 37.0266C13.9683 34.9838 12.4339 31.2324 12.4339 24.365H10.4339C10.4339 31.4783 12.0166 35.8373 14.4793 38.4097C16.957 40.9977 20.1403 41.5858 22.8736 41.5858V39.5858Z" fill="white"/>
</g>
</svg>
