<svg width="59" height="54" viewBox="0 0 59 54" fill="none" xmlns="http://www.w3.org/2000/svg">
<mask id="path-1-outside-1" maskUnits="userSpaceOnUse" x="0" y="0.727539" width="59" height="53" fill="black">
<rect fill="white" y="0.727539" width="59" height="53"/>
<path d="M38.9353 36.2546C36.5671 36.2546 34.6361 34.324 34.6361 31.9554C34.6361 29.5872 36.5671 27.6563 38.9353 27.6563C41.3039 27.6563 43.2349 29.5872 43.2349 31.9554C43.2349 34.324 41.3039 36.2546 38.9353 36.2546V36.2546ZM39.6948 43.3104C36.757 46.2397 31.1373 46.4709 29.4872 46.4709C27.8368 46.4709 22.209 46.2397 19.2794 43.3104C18.8424 42.8731 18.8424 42.1717 19.2794 41.7341C19.717 41.2968 20.4183 41.2968 20.8559 41.7341C22.704 43.5829 26.6569 44.243 29.4872 44.243C32.3095 44.243 36.2701 43.5829 38.1188 41.7341C38.5558 41.2968 39.2572 41.2968 39.6948 41.7341C40.124 42.1717 40.124 42.8731 39.6948 43.3104ZM15.7228 31.9558C15.7228 29.5876 17.6538 27.6566 20.0223 27.6566C22.3906 27.6566 24.3215 29.5876 24.3215 31.9558C24.3215 34.324 22.3906 36.2553 20.0223 36.2553C17.6538 36.2546 15.7228 34.324 15.7228 31.9558V31.9558ZM56.9825 27.6566C56.9825 24.3309 54.2924 21.6409 50.9668 21.6409C49.3412 21.6409 47.872 22.2842 46.7914 23.3326C42.6818 20.3619 37.0131 18.4474 30.7 18.2246L33.4398 5.32666L42.3932 7.23312C42.5006 9.51075 44.3651 11.3263 46.6679 11.3263C49.0442 11.3263 50.9671 9.40336 50.9671 7.02674C50.9671 4.65045 49.0442 2.72754 46.6679 2.72754C44.9759 2.72754 43.5319 3.70947 42.8305 5.12866L32.829 2.9997C32.5484 2.94198 32.2598 2.99198 32.0202 3.14836C31.7813 3.30508 31.6158 3.54436 31.5585 3.82491C31.5585 3.82491 28.5546 18.134 28.5546 18.2165C22.1265 18.3813 16.35 20.3042 12.1746 23.3161C11.0937 22.2765 9.63292 21.6409 8.01572 21.6409C4.69006 21.6409 2 24.339 2 27.6566C2 30.099 3.46047 32.2034 5.55655 33.1438C5.46594 33.7384 5.41627 34.3485 5.41627 34.9677C5.41627 44.2262 16.1933 51.7275 29.4872 51.7275C42.7808 51.7275 53.5578 44.2262 53.5578 34.9677C53.5578 34.3569 53.5085 33.7545 53.4179 33.1605C55.5056 32.2199 56.9825 30.1158 56.9825 27.6566"/>
</mask>
<path d="M39.6948 43.3104L41.1069 44.7266L41.1145 44.719L41.1221 44.7114L39.6948 43.3104ZM19.2794 43.3104L17.8646 44.724L17.8652 44.7247L19.2794 43.3104ZM19.2794 41.7341L17.8657 40.3193L17.8641 40.321L19.2794 41.7341ZM20.8559 41.7341L22.2704 40.3201L22.2696 40.3193L20.8559 41.7341ZM38.1188 41.7341L39.5331 43.1483L39.5336 43.1478L38.1188 41.7341ZM39.6948 41.7341L41.1226 40.3336L41.1155 40.3265L41.1084 40.3193L39.6948 41.7341ZM20.0223 36.2553L20.0218 38.2553H20.0223V36.2553ZM46.7914 23.3326L45.6198 24.9534L46.9797 25.9365L48.1841 24.768L46.7914 23.3326ZM30.7 18.2246L28.7437 17.809L28.2487 20.1393L30.6295 20.2233L30.7 18.2246ZM33.4398 5.32666L33.8563 3.37051L31.8992 2.95378L31.4834 4.9111L33.4398 5.32666ZM42.3932 7.23312L44.391 7.13893L44.3183 5.59821L42.8097 5.27698L42.3932 7.23312ZM42.8305 5.12866L42.4141 7.08483L43.9347 7.40851L44.6235 6.01477L42.8305 5.12866ZM32.829 2.9997L33.2454 1.04348L33.232 1.04073L32.829 2.9997ZM32.0202 3.14836L30.9271 1.47351L30.9233 1.476L32.0202 3.14836ZM31.5585 3.82491L33.5158 4.23581L33.5179 4.2257L31.5585 3.82491ZM28.5546 18.2165L28.6059 20.2159L30.5546 20.1659V18.2165H28.5546ZM12.1746 23.3161L10.7882 24.7576L11.9911 25.9145L13.3447 24.9381L12.1746 23.3161ZM5.55655 33.1438L7.53373 33.445L7.76282 31.9415L6.37516 31.319L5.55655 33.1438ZM53.4179 33.1605L52.5963 31.3371L51.2118 31.9609L51.4408 33.4621L53.4179 33.1605ZM38.9353 34.2546C37.6716 34.2546 36.6361 33.2193 36.6361 31.9554H32.6361C32.6361 35.4287 35.4626 38.2546 38.9353 38.2546V34.2546ZM36.6361 31.9554C36.6361 30.6918 37.6717 29.6563 38.9353 29.6563V25.6563C35.4625 25.6563 32.6361 28.4826 32.6361 31.9554H36.6361ZM38.9353 29.6563C40.1994 29.6563 41.2349 30.6919 41.2349 31.9554H45.2349C45.2349 28.4825 42.4084 25.6563 38.9353 25.6563V29.6563ZM41.2349 31.9554C41.2349 33.2192 40.1995 34.2546 38.9353 34.2546V38.2546C42.4083 38.2546 45.2349 35.4288 45.2349 31.9554H41.2349ZM38.2826 41.8941C37.2155 42.9582 35.5228 43.6406 33.689 44.0335C31.8999 44.4169 30.2363 44.4709 29.4872 44.4709V48.4709C30.3882 48.4709 32.3595 48.4093 34.5272 47.9447C36.6502 47.4898 39.2363 46.5919 41.1069 44.7266L38.2826 41.8941ZM29.4872 44.4709C28.7378 44.4709 27.0721 44.4169 25.2819 44.0335C23.4464 43.6404 21.7556 42.958 20.6935 41.8961L17.8652 44.7247C19.7328 46.592 22.3207 47.49 24.4441 47.9448C26.6129 48.4093 28.5862 48.4709 29.4872 48.4709V44.4709ZM20.6941 41.8967C21.0378 42.2406 21.037 42.8043 20.6946 43.1472L17.8641 40.321C16.6478 41.5391 16.647 43.5055 17.8646 44.724L20.6941 41.8967ZM20.693 43.1489C20.3497 43.4919 19.7856 43.4919 19.4423 43.1489L22.2696 40.3193C21.0511 39.1018 19.0842 39.1018 17.8657 40.3193L20.693 43.1489ZM19.4415 43.1481C20.742 44.449 22.6061 45.191 24.3148 45.6213C26.0726 46.0639 27.9354 46.243 29.4872 46.243V42.243C28.2087 42.243 26.6799 42.092 25.2916 41.7424C23.8543 41.3804 22.818 40.8679 22.2704 40.3201L19.4415 43.1481ZM29.4872 46.243C31.0353 46.243 32.8979 46.0638 34.6562 45.6213C36.3651 45.1913 38.2318 44.4495 39.5331 43.1483L36.7046 40.3199C36.1571 40.8674 35.1192 41.3801 33.68 41.7423C32.2903 42.092 30.7614 42.243 29.4872 42.243V46.243ZM39.5336 43.1478C39.1888 43.4929 38.6238 43.4913 38.2811 43.1489L41.1084 40.3193C39.8905 39.1024 37.9228 39.1008 36.7041 40.3204L39.5336 43.1478ZM38.2669 43.1346C37.9335 42.7947 37.9328 42.2503 38.2675 41.9093L41.1221 44.7114C42.3152 43.4959 42.3144 41.5488 41.1226 40.3336L38.2669 43.1346ZM17.7228 31.9558C17.7228 30.6922 18.7582 29.6566 20.0223 29.6566V25.6566C16.5493 25.6566 13.7228 28.4829 13.7228 31.9558H17.7228ZM20.0223 29.6566C21.286 29.6566 22.3215 30.6921 22.3215 31.9558H26.3215C26.3215 28.483 23.4951 25.6566 20.0223 25.6566V29.6566ZM22.3215 31.9558C22.3215 33.2197 21.2858 34.2553 20.0223 34.2553V38.2553C23.4953 38.2553 26.3215 35.4284 26.3215 31.9558H22.3215ZM20.0229 34.2553C18.758 34.255 17.7228 33.219 17.7228 31.9558H13.7228C13.7228 35.429 16.5495 38.2543 20.0218 38.2553L20.0229 34.2553ZM58.9825 27.6566C58.9825 23.2264 55.397 19.6409 50.9668 19.6409V23.6409C53.1879 23.6409 54.9825 25.4355 54.9825 27.6566H58.9825ZM50.9668 19.6409C48.801 19.6409 46.8377 20.501 45.3988 21.8971L48.1841 24.768C48.9063 24.0673 49.8814 23.6409 50.9668 23.6409V19.6409ZM47.9631 21.7117C43.4917 18.4795 37.4272 16.4608 30.7706 16.2258L30.6295 20.2233C36.599 20.434 41.872 22.2443 45.6198 24.9534L47.9631 21.7117ZM32.6564 18.6402L35.3961 5.74222L31.4834 4.9111L28.7437 17.809L32.6564 18.6402ZM33.0232 7.2828L41.9767 9.18927L42.8097 5.27698L33.8563 3.37051L33.0232 7.2828ZM40.3954 7.32732C40.5523 10.6554 43.2809 13.3263 46.6679 13.3263V9.32627C45.4493 9.32627 44.4489 8.36612 44.391 7.13893L40.3954 7.32732ZM46.6679 13.3263C50.1489 13.3263 52.9671 10.5078 52.9671 7.02674H48.9671C48.9671 8.29889 47.9395 9.32627 46.6679 9.32627V13.3263ZM52.9671 7.02674C52.9671 3.54588 50.1488 0.727539 46.6679 0.727539V4.72754C47.9396 4.72754 48.9671 5.75502 48.9671 7.02674H52.9671ZM46.6679 0.727539C44.1721 0.727539 42.0566 2.18051 41.0375 4.24255L44.6235 6.01477C45.0071 5.23842 45.7796 4.72754 46.6679 4.72754V0.727539ZM43.2469 3.17249L33.2454 1.04353L32.4126 4.95587L42.4141 7.08483L43.2469 3.17249ZM33.232 1.04073C32.4593 0.88174 31.6289 1.01547 30.9271 1.47352L33.1133 4.82321C32.8907 4.96849 32.6376 5.00222 32.426 4.95867L33.232 1.04073ZM30.9233 1.476C30.2499 1.9177 29.7657 2.60918 29.599 3.42411L33.5179 4.2257C33.466 4.47953 33.3127 4.69247 33.1171 4.82073L30.9233 1.476ZM31.5585 3.82491C29.6011 3.41401 29.6011 3.41407 29.6011 3.41418C29.6011 3.41429 29.601 3.41445 29.601 3.41467C29.6009 3.41511 29.6008 3.41576 29.6006 3.41663C29.6002 3.41836 29.5997 3.42096 29.5989 3.4244C29.5975 3.43129 29.5953 3.44156 29.5925 3.4551C29.5868 3.48219 29.5784 3.52238 29.5674 3.57481C29.5454 3.67966 29.5131 3.83344 29.472 4.02918C29.3899 4.42066 29.2725 4.98001 29.1317 5.65147C28.8501 6.99438 28.4745 8.78587 28.099 10.58C27.7235 12.374 27.3478 14.1713 27.0659 15.5255C26.9251 16.2024 26.8073 16.7699 26.7247 17.1713C26.6835 17.3716 26.6505 17.533 26.6277 17.6468C26.6164 17.7029 26.6066 17.7518 26.5994 17.7896C26.596 17.8073 26.5916 17.83 26.5876 17.8525C26.5859 17.8626 26.5822 17.8834 26.5784 17.9083C26.5766 17.92 26.5729 17.9443 26.5692 17.9748C26.5689 17.9772 26.5546 18.0839 26.5546 18.2165H30.5546C30.5546 18.3486 30.5404 18.4542 30.5403 18.4551C30.5368 18.484 30.5334 18.5064 30.532 18.5157C30.5289 18.5359 30.5263 18.5503 30.526 18.5522C30.5249 18.5584 30.5249 18.5582 30.5271 18.5464C30.5312 18.5251 30.5384 18.489 30.5491 18.4358C30.5702 18.3309 30.6017 18.1764 30.6427 17.9775C30.7243 17.5807 30.8413 17.0167 30.982 16.3405C31.2634 14.9886 31.6387 13.1931 32.0141 11.3995C32.3895 9.60607 32.7649 7.81513 33.0465 6.47251C33.1873 5.80121 33.3046 5.24201 33.3868 4.85064C33.4278 4.65496 33.4601 4.50124 33.4821 4.39644C33.4931 4.34405 33.5015 4.30388 33.5072 4.27682C33.51 4.26328 33.5122 4.25303 33.5136 4.24615C33.5143 4.24272 33.5149 4.24013 33.5153 4.2384C33.5154 4.23753 33.5156 4.23688 33.5157 4.23645C33.5157 4.23623 33.5157 4.23607 33.5158 4.23596C33.5158 4.23585 33.5158 4.2358 31.5585 3.82491ZM28.5034 16.2172C21.7255 16.3909 15.5467 18.4176 11.0046 21.6941L13.3447 24.9381C17.1533 22.1908 22.5275 20.3717 28.6059 20.2159L28.5034 16.2172ZM13.5611 21.8746C12.1225 20.491 10.1703 19.6409 8.01572 19.6409V23.6409C9.09556 23.6409 10.0649 24.0619 10.7882 24.7576L13.5611 21.8746ZM8.01572 19.6409C3.58375 19.6409 0 23.2362 0 27.6566H4C4 25.4418 5.79637 23.6409 8.01572 23.6409V19.6409ZM0 27.6566C0 30.9166 1.95052 33.7181 4.73793 34.9686L6.37516 31.319C4.97042 30.6888 4 29.2814 4 27.6566H0ZM3.57937 32.8425C3.4745 33.5308 3.41627 34.2417 3.41627 34.9677H7.41627C7.41627 34.4554 7.45738 33.9461 7.53373 33.445L3.57937 32.8425ZM3.41627 34.9677C3.41627 40.4335 6.59985 45.1721 11.3238 48.4609C16.0547 51.7546 22.4826 53.7275 29.4872 53.7275V49.7275C23.1979 49.7275 17.5904 47.9498 13.6093 45.1782C9.62121 42.4017 7.41627 38.7604 7.41627 34.9677H3.41627ZM29.4872 53.7275C36.4916 53.7275 42.9195 51.7546 47.6504 48.4609C52.3743 45.1721 55.5578 40.4335 55.5578 34.9677H51.5578C51.5578 38.7604 49.3529 42.4017 45.3649 45.1782C41.3838 47.9498 35.7764 49.7275 29.4872 49.7275V53.7275ZM55.5578 34.9677C55.5578 34.2488 55.4998 33.5455 55.395 32.8589L51.4408 33.4621C51.5173 33.9636 51.5578 34.465 51.5578 34.9677H55.5578ZM54.2395 34.984C57.0109 33.7353 58.9825 30.9386 58.9825 27.6566H54.9825C54.9825 29.2929 54.0003 30.7045 52.5963 31.3371L54.2395 34.984Z" fill="white" mask="url(#path-1-outside-1)"/>
</svg>
