<svg width="47" height="49" viewBox="0 0 47 49" fill="none" xmlns="http://www.w3.org/2000/svg">
<g id="steemit">
<path id="Shape" d="M6.32593 6.50853L5.74384 5.6954L5.71474 5.71623L5.6872 5.73909L6.32593 6.50853ZM1.33457 12.8217L0.386707 12.5029L0.384657 12.5091L1.33457 12.8217ZM7.0421 6.69951L6.05777 6.52317L6.05016 6.56565L6.04623 6.60863L7.0421 6.69951ZM6.8785 7.74088L7.86063 7.92912L7.86063 7.92912L6.8785 7.74088ZM6.71491 8.78226L7.70605 8.91509L7.70886 8.89417L7.71078 8.87314L6.71491 8.78226ZM6.64948 11.647L7.64818 11.5941L7.64724 11.5801L6.64948 11.647ZM7.43835 15.1602L6.51442 15.5428L6.5186 15.5529L6.52299 15.5629L7.43835 15.1602ZM8.94703 18.2195L9.84814 17.7859L9.83868 17.7663L9.82838 17.747L8.94703 18.2195ZM12.8223 26.4208L13.7401 26.0237L13.7362 26.0148L13.7322 26.006L12.8223 26.4208ZM13.2396 27.3775L14.1556 26.9763L14.1556 26.9763L13.2396 27.3775ZM14.531 30.4566L15.4701 30.113L15.4674 30.1058L15.4647 30.0987L14.531 30.4566ZM14.8581 34.7518L15.8141 35.0455L15.8143 35.0447L14.8581 34.7518ZM9.14698 41.9118L9.78387 42.6828L9.79465 42.6737L9.14698 41.9118ZM8.92766 42.1049L9.59696 42.8479L9.59696 42.8479L8.92766 42.1049ZM7.90004 42.2361L8.87596 42.4542L8.87988 42.4367L8.88317 42.419L7.90004 42.2361ZM8.44622 39.9006L9.41446 40.1506L9.41446 40.1506L8.44622 39.9006ZM9.08154 37.0292L10.0706 37.1764L10.0718 37.1683L10.0729 37.1602L9.08154 37.0292ZM7.39934 30.5204L8.30904 30.1051L8.30904 30.1051L7.39934 30.5204ZM7.04573 29.7395L7.95926 29.3328L7.95904 29.3323L7.04573 29.7395ZM4.59298 24.6691L5.48626 24.2196L5.48626 24.2196L4.59298 24.6691ZM3.04319 21.5418L3.94459 21.1087L3.93992 21.0993L3.04319 21.5418ZM36.394 6.50851L35.815 5.69321L35.7838 5.71532L35.7545 5.73975L36.394 6.50851ZM31.4027 12.8216L30.4549 12.5025L30.4527 12.5091L31.4027 12.8216ZM37.1138 6.70309L36.1292 6.52833L36.1218 6.57003L36.118 6.61221L37.1138 6.70309ZM36.7866 8.78585L37.7778 8.91868L37.7806 8.89775L37.7825 8.87672L36.7866 8.78585ZM36.7212 11.6505L37.7199 11.5977L37.719 11.5837L36.7212 11.6505ZM37.5101 15.1638L36.5862 15.5464L36.5903 15.5565L36.5947 15.5665L37.5101 15.1638ZM39.0188 18.2231L39.9199 17.7895L39.9104 17.7699L39.9001 17.7506L39.0188 18.2231ZM42.8941 26.4244L43.8118 26.0272L43.808 26.0184L43.804 26.0096L42.8941 26.4244ZM43.3114 27.3811L44.2274 26.98L44.2274 26.98L43.3114 27.3811ZM44.6027 30.4602L45.5418 30.1165L45.5392 30.1094L45.5364 30.1023L44.6027 30.4602ZM44.9299 34.7554L45.8858 35.049L45.886 35.0483L44.9299 34.7554ZM39.2187 41.9154L39.8556 42.6864L39.8664 42.6773L39.2187 41.9154ZM38.9994 42.1085L38.3301 41.3655L38.3301 41.3655L38.9994 42.1085ZM37.9718 42.2397L38.9477 42.4578L38.9516 42.4402L38.9549 42.4226L37.9718 42.2397ZM38.5179 39.9042L39.4862 40.1542L39.4862 40.1542L38.5179 39.9042ZM39.1533 37.0328L40.1424 37.18L40.1436 37.1719L40.1446 37.1638L39.1533 37.0328ZM37.4711 30.524L36.5614 30.9393L36.5614 30.9393L37.4711 30.524ZM37.1175 29.7431L38.031 29.3363L38.031 29.3363L37.1175 29.7431ZM34.6781 24.7023L35.5712 24.2523L35.5712 24.2523L34.6781 24.7023ZM33.1113 21.5418L34.0129 21.1092L34.008 21.0993L33.1113 21.5418ZM5.6872 5.73909C3.63413 7.44341 1.33665 9.67822 0.386727 12.5029L2.2824 13.1404C3.04111 10.8843 4.94612 8.95361 6.96466 7.27796L5.6872 5.73909ZM8.02643 6.87584C8.06776 6.64509 8.07009 6.34497 7.93345 6.04563C7.78533 5.72115 7.5113 5.48497 7.17851 5.38153C6.59361 5.19973 6.05679 5.47137 5.74384 5.6954L6.90802 7.32165C6.95486 7.28812 6.96072 7.29409 6.92238 7.30534C6.88918 7.31509 6.76113 7.34619 6.58486 7.2914C6.38249 7.22849 6.20593 7.07745 6.11405 6.87616C6.03364 6.70001 6.05096 6.56114 6.05777 6.52317L8.02643 6.87584ZM7.86063 7.92912C7.92476 7.59453 8.00006 7.20567 8.03796 6.79038L6.04623 6.60863C6.01869 6.91041 5.96313 7.20439 5.89638 7.55265L7.86063 7.92912ZM7.71078 8.87314C7.73831 8.57135 7.79388 8.27737 7.86063 7.92912L5.89638 7.55265C5.83225 7.88723 5.75695 8.2761 5.71905 8.69138L7.71078 8.87314ZM7.64724 11.5801C7.58474 10.6474 7.58664 9.80607 7.70605 8.91509L5.72377 8.64943C5.58144 9.71149 5.58334 10.6935 5.65171 11.7138L7.64724 11.5801ZM8.36228 14.7777C7.94835 13.778 7.70761 12.7186 7.64808 11.5941L5.65088 11.6998C5.72221 13.0473 6.01224 14.33 6.51442 15.5428L8.36228 14.7777ZM9.82838 17.747C9.31188 16.7836 8.79767 15.7669 8.35372 14.7576L6.52299 15.5629C6.99515 16.6363 7.53519 17.7024 8.06568 18.692L9.82838 17.747ZM13.7322 26.006C12.4804 23.2602 11.1636 20.5198 9.84814 17.7859L8.04592 18.6531C9.36246 21.3892 10.6704 24.1115 11.9124 26.8357L13.7322 26.006ZM14.1556 26.9763C14.017 26.6598 13.8785 26.3434 13.7401 26.0237L11.9046 26.818C12.045 27.1424 12.1852 27.4627 12.3236 27.7786L14.1556 26.9763ZM15.4647 30.0987C15.0546 29.0289 14.6044 28.0011 14.1556 26.9763L12.3236 27.7786C12.7753 28.8102 13.2066 29.7955 13.5972 30.8145L15.4647 30.0987ZM15.8143 35.0447C16.3642 33.2496 16.0271 31.6352 15.4701 30.113L13.5919 30.8003C14.0818 32.1391 14.2682 33.2633 13.902 34.459L15.8143 35.0447ZM9.79465 42.6737C12.0591 40.7488 14.7957 38.3609 15.8141 35.0455L13.9022 34.4582C13.0811 37.1316 10.83 39.1687 8.49931 41.1498L9.79465 42.6737ZM9.59696 42.8479C9.68799 42.7659 9.74508 42.7148 9.78381 42.6828L8.51014 41.1408C8.43067 41.2064 8.33677 41.2913 8.25836 41.3619L9.59696 42.8479ZM6.92412 42.018C6.88759 42.1814 6.85897 42.3621 6.8608 42.5438C6.86245 42.7067 6.88873 43.0012 7.08589 43.2771C7.32694 43.6145 7.68771 43.7434 7.99526 43.7453C8.2502 43.7469 8.45657 43.6652 8.56856 43.6138C8.80189 43.5066 9.01766 43.3422 9.16337 43.2242C9.32345 43.0946 9.48089 42.9525 9.59696 42.8479L8.25836 41.3619C8.13539 41.4727 8.01706 41.579 7.9049 41.6698C7.77837 41.7722 7.72543 41.8002 7.73382 41.7963C7.74214 41.7925 7.7674 41.7814 7.807 41.7705C7.84527 41.76 7.9151 41.7447 8.00758 41.7453C8.1029 41.7459 8.23261 41.7636 8.37149 41.8294C8.5153 41.8975 8.63094 41.9993 8.71326 42.1145C8.86186 42.3225 8.86058 42.5114 8.8607 42.5236C8.86101 42.5546 8.85691 42.5394 8.87596 42.4542L6.92412 42.018ZM7.47798 39.6506C7.27981 40.4181 7.07089 41.2256 6.91692 42.0531L8.88317 42.419C9.02248 41.6703 9.21346 40.9291 9.41446 40.1506L7.47798 39.6506ZM8.09244 36.882C7.95702 37.7917 7.72591 38.6904 7.47798 39.6506L9.41446 40.1506C9.65798 39.2075 9.91719 38.2073 10.0706 37.1764L8.09244 36.882ZM6.48965 30.9357C7.44908 33.0374 8.33473 35.0477 8.09016 36.8982L10.0729 37.1602C10.4072 34.6311 9.20346 32.0644 8.30904 30.1051L6.48965 30.9357ZM6.13221 30.1463C6.24815 30.4067 6.36906 30.6716 6.48965 30.9357L8.30904 30.1051C8.18772 29.8394 8.07075 29.5831 7.95926 29.3328L6.13221 30.1463ZM3.6997 25.1185C4.54248 26.7934 5.37497 28.4482 6.13243 30.1468L7.95904 29.3323C7.17941 27.584 6.32565 25.8877 5.48626 24.2196L3.6997 25.1185ZM2.14184 21.9749C2.64995 23.0324 3.17684 24.0795 3.6997 25.1185L5.48626 24.2196C4.96203 23.1777 4.44341 22.147 3.94454 21.1088L2.14184 21.9749ZM0.384657 12.5091C-0.746685 15.9478 0.859212 19.3762 2.14645 21.9844L3.93992 21.0993C2.59516 18.3745 1.44545 15.6844 2.28447 13.1342L0.384657 12.5091ZM35.7545 5.73975C33.7023 7.44697 31.4049 9.68174 30.455 12.5025L32.3504 13.1408C33.109 10.888 35.0141 8.95722 37.0336 7.27727L35.7545 5.73975ZM38.0984 6.87785C38.1393 6.64771 38.1417 6.34823 38.0061 6.04925C37.8589 5.72472 37.5856 5.48713 37.2518 5.38261C36.6664 5.19926 36.1281 5.4708 35.815 5.69321L36.9731 7.3238C37.0212 7.28959 37.0281 7.29504 36.9906 7.30595C36.9584 7.31534 36.8304 7.34642 36.6541 7.29119C36.4512 7.22766 36.2756 7.07587 36.1848 6.87554C36.1055 6.70076 36.1229 6.56389 36.1292 6.52833L38.0984 6.87785ZM37.9324 7.9327C37.9965 7.59811 38.0718 7.20925 38.1097 6.79397L36.118 6.61221C36.0904 6.914 36.0349 7.20799 35.9681 7.55623L37.9324 7.9327ZM37.7825 8.87672C37.81 8.57494 37.8656 8.28096 37.9324 7.9327L35.9681 7.55623C35.904 7.89082 35.8287 8.27968 35.7908 8.69497L37.7825 8.87672ZM37.719 11.5837C37.6565 10.6509 37.6584 9.80965 37.7778 8.91868L35.7955 8.65302C35.6532 9.71507 35.6551 10.6971 35.7234 11.7174L37.719 11.5837ZM38.434 14.7813C38.0201 13.7816 37.7793 12.7221 37.7198 11.5977L35.7226 11.7034C35.7939 13.0509 36.084 14.3336 36.5862 15.5464L38.434 14.7813ZM39.9001 17.7506C39.3836 16.7872 38.8694 15.7705 38.4254 14.7612L36.5947 15.5665C37.0669 16.6399 37.6069 17.706 38.1374 18.6956L39.9001 17.7506ZM43.804 26.0096C42.5521 23.2638 41.2353 20.5234 39.9199 17.7895L38.1176 18.6567C39.4342 21.3928 40.7422 24.1151 41.9842 26.8392L43.804 26.0096ZM44.2274 26.98C44.0887 26.6634 43.9502 26.347 43.8118 26.0272L41.9763 26.8216C42.1167 27.146 42.257 27.4663 42.3953 27.7822L44.2274 26.98ZM45.5364 30.1023C45.1264 29.0325 44.6761 28.0048 44.2274 26.98L42.3953 27.7822C42.8471 28.8138 43.2783 29.7991 43.6689 30.8181L45.5364 30.1023ZM45.886 35.0483C46.4359 33.2531 46.0988 31.6388 45.5418 30.1165L43.6636 30.8038C44.1535 32.1427 44.34 33.2669 43.9737 34.4626L45.886 35.0483ZM39.8664 42.6773C42.1308 40.7524 44.8674 38.3645 45.8858 35.049L43.9739 34.4618C43.1528 37.1352 40.9017 39.1723 38.571 41.1534L39.8664 42.6773ZM39.6687 42.8515C39.7597 42.7695 39.8168 42.7183 39.8555 42.6864L38.5819 41.1444C38.5024 41.21 38.4085 41.2949 38.3301 41.3655L39.6687 42.8515ZM36.9958 42.0215C36.9593 42.185 36.9307 42.3657 36.9325 42.5474C36.9342 42.7103 36.9605 43.0047 37.1576 43.2807C37.3987 43.6181 37.7594 43.747 38.067 43.7489C38.3219 43.7504 38.5283 43.6688 38.6403 43.6174C38.8736 43.5102 39.0894 43.3457 39.2351 43.2278C39.3952 43.0982 39.5526 42.956 39.6687 42.8515L38.3301 41.3655C38.2071 41.4763 38.0888 41.5826 37.9766 41.6734C37.8501 41.7758 37.7972 41.8037 37.8055 41.7999C37.8139 41.7961 37.8391 41.7849 37.8787 41.7741C37.917 41.7636 37.9868 41.7483 38.0793 41.7489C38.1746 41.7495 38.3043 41.7672 38.4432 41.833C38.587 41.9011 38.7027 42.0029 38.785 42.1181C38.9336 42.3261 38.9323 42.515 38.9324 42.5272C38.9327 42.5582 38.9286 42.543 38.9477 42.4578L36.9958 42.0215ZM37.5497 39.6542C37.3515 40.4217 37.1426 41.2292 36.9886 42.0567L38.9549 42.4226C39.0942 41.6739 39.2852 40.9327 39.4862 40.1542L37.5497 39.6542ZM38.1642 36.8855C38.0288 37.7953 37.7976 38.694 37.5497 39.6542L39.4862 40.1542C39.7297 39.2111 39.9889 38.2109 40.1424 37.18L38.1642 36.8855ZM36.5614 30.9393C37.5208 33.041 38.4065 35.0513 38.1619 36.9017L40.1446 37.1638C40.4789 34.6347 39.2752 32.068 38.3808 30.1087L36.5614 30.9393ZM36.2039 30.1499C36.3199 30.4103 36.4408 30.6751 36.5614 30.9393L38.3808 30.1087C38.2594 29.843 38.1425 29.5867 38.031 29.3363L36.2039 30.1499ZM33.785 25.1522C34.6237 26.8168 35.4515 28.4605 36.204 30.15L38.031 29.3363C37.2559 27.5961 36.4063 25.9101 35.5712 24.2523L33.785 25.1522ZM32.2097 21.9744C32.7231 23.0444 33.2563 24.1026 33.785 25.1522L35.5712 24.2523C35.041 23.1999 34.5166 22.1589 34.0129 21.1092L32.2097 21.9744ZM30.4527 12.5091C29.3214 15.9478 30.9273 19.3762 32.2145 21.9844L34.008 21.0993C32.6633 18.3745 31.5135 15.6843 32.3526 13.1342L30.4527 12.5091Z" fill="white"/>
<path id="Path" fill-rule="evenodd" clip-rule="evenodd" d="M20.9 1.5601C18.6025 3.44827 16.1086 5.72561 14.7272 8.39211C13.742 10.2803 13.6111 12.2333 14.1346 14.1827C14.7926 16.5249 15.7087 18.8671 16.6939 21.1445C18.5989 25.5046 21.0927 29.6052 22.9322 34.0302C23.5902 35.5905 24.31 37.3489 24.4409 39.1074C24.5718 41.255 23.8483 43.5323 23.2594 45.5502C23.1285 46.1376 22.7359 46.9159 22.8013 47.5032C22.8668 47.9573 23.1285 47.7627 23.3939 47.5681C24.51 46.7213 25.626 45.7448 26.6112 44.7683C29.3014 42.2315 32.3878 38.8443 32.1261 34.877C31.9952 33.2483 31.2063 31.688 30.552 30.1926C29.8285 28.4377 29.0433 26.7477 28.2544 25.0542C26.8112 21.8652 25.2988 18.741 23.7247 15.6169C23.2012 14.5107 22.5432 13.4693 22.1506 12.363C21.558 10.8676 21.2963 9.30377 21.2309 7.7435C21.1654 6.5724 21.2309 5.33644 21.3617 4.16534C21.4272 3.38341 21.6889 2.66994 21.6889 1.88801C21.8852 1.17093 21.4926 1.10607 20.9 1.5601V1.5601Z" stroke="white" stroke-width="2"/>
</g>
</svg>
