<svg width="45" height="38" viewBox="0 0 45 38" fill="none" xmlns="http://www.w3.org/2000/svg">
<path d="M17.1942 34.1388C17.2822 32.6335 17.3702 31.1565 17.4875 29.708C17.6048 28.1459 17.7221 26.6122 17.81 25.05C17.8394 24.5672 18.0153 24.2264 18.3965 23.8855C24.2613 18.8015 30.0967 13.689 35.9615 8.5766C36.1081 8.43459 36.2841 8.32098 36.4014 8.15056C36.636 7.83814 36.2841 7.3553 35.6976 7.55411C35.2577 7.69612 35.1698 7.78133 34.7592 8.03695C30.1261 10.8488 25.5222 13.689 20.889 16.5009C18.1912 18.1482 15.4641 19.824 12.7663 21.4713C12.4438 21.6701 12.1798 21.6985 11.828 21.5849C8.74894 20.6192 5.64061 19.682 2.5616 18.7447C2.26836 18.6595 2.00445 18.5459 1.74053 18.4323C0.831491 17.9494 0.74352 17.2109 1.56459 16.5861C2.09242 16.1885 2.70822 15.876 3.32402 15.6488C5.93385 14.6547 8.573 13.689 11.1828 12.695C21.153 8.97423 31.0938 5.25351 41.0639 1.53279C41.2398 1.47599 41.4158 1.39078 41.5917 1.36238C42.794 1.02155 43.9376 1.6748 43.9963 2.89611C44.0256 3.74818 43.879 4.65706 43.6737 5.50914C41.5917 15.0524 39.5097 24.5672 37.3984 34.1104C36.8999 36.3542 35.375 36.8938 33.469 35.5305C30.478 33.4003 27.4869 31.2702 24.5252 29.1116C24.3493 28.9696 24.1733 28.856 23.968 28.7139C23.8508 28.8275 23.7041 28.9128 23.5868 29.0264C22.062 30.4465 20.5665 31.8666 19.0416 33.2867C18.5431 33.7696 18.0153 34.1672 17.1942 34.1388Z" stroke="white" stroke-width="2"/>
</svg>
