<svg width="44" height="38" viewBox="0 0 44 38" fill="none" xmlns="http://www.w3.org/2000/svg">
<path d="M1 32.3208C4.85153 34.8612 9.34498 36.2725 14.2052 36.2725C30.1616 36.2725 39.1485 22.4418 38.69 10.0225C40.3406 8.79934 41.8079 7.19988 43 5.41225C41.441 6.07085 39.7904 6.63536 38.048 6.82354C39.7904 5.6945 41.1659 4.00096 41.8079 1.93106C40.1572 2.96601 38.3231 3.7187 36.3057 4.09504C34.7467 2.40149 32.5459 1.27246 30.0699 1.27246C24.476 1.27246 20.441 6.54128 21.7249 12.0924C14.4803 11.8101 8.15284 8.32891 3.9345 2.96601C1.64192 6.91762 2.74236 12.0924 6.59389 14.7268C5.21834 14.7268 3.84279 14.2563 2.74236 13.5977C2.65066 17.6434 5.49345 21.501 9.62009 22.3477C8.42795 22.7241 7.0524 22.7241 5.76856 22.5359C6.869 26.0171 10.0786 28.5574 13.8384 28.6515C10.0786 31.5682 5.58515 32.8854 1 32.3208Z" stroke="white" stroke-width="2" stroke-linejoin="round"/>
</svg>
