<svg width="118" height="54" viewBox="0 0 118 54" fill="none" xmlns="http://www.w3.org/2000/svg">
<path d="M30.4354 25.753V23.2829L33.3657 23.105V3.14159C32.4254 2.71673 31.4602 3.14159 30.525 2.8106C30.2016 2.06957 30.3608 1.28407 30.4304 0.429413C31.7737 0.0984184 33.1368 0.296027 34.485 0.276267C37.4053 0.246625 40.3257 0.192283 43.246 0.276267C47.9921 0.429413 50.9273 4.29266 49.808 8.72898C49.4199 10.2654 48.3851 11.2831 47.2359 12.1871C47.2359 12.5428 47.5394 12.5675 47.7334 12.6515C50.594 13.8717 51.5741 16.1097 51.385 19.0738C51.186 22.0972 49.6587 24.1375 46.7832 25.1552C46.1009 25.4509 45.3753 25.636 44.634 25.7036C39.9277 25.7777 35.2213 25.753 30.4354 25.753ZM36.7884 23.1198C37.2412 23.1495 37.48 23.1791 37.7237 23.1791C39.2162 23.1791 40.7087 23.2088 42.2012 23.1791C43.4458 23.187 44.6775 22.9293 45.8131 22.4233C46.6547 22.0087 47.3419 21.3394 47.7756 20.5119C48.2093 19.6843 48.367 18.7413 48.2259 17.819C48.022 15.8429 46.8976 14.4399 44.9424 14.0595C42.2559 13.5655 39.5396 13.689 36.7884 13.7976V23.1198ZM36.8282 2.95881V11.3572C38.8182 11.3572 40.7585 11.4461 42.6639 11.3325C45.1514 11.1793 46.6986 9.64786 46.7882 7.4297C46.8877 4.98924 45.7932 3.66526 43.1664 3.13171C41.0868 2.71673 38.9973 2.97363 36.8282 2.95881Z" fill="white"/>
<path d="M16.8238 12.3948C19.3511 13.4075 20.963 15.0773 21.0625 17.8883C21.2267 22.5321 18.575 25.5654 13.6747 25.7926C9.19719 25.9902 4.71971 25.8371 0.277048 25.8371C-0.1707 25.0121 0.083024 24.2216 0.0332742 23.4658C1.02827 22.8927 2.09789 23.4658 3.08294 23.0014V3.00833L0.252174 2.87495C-0.125925 2.04005 -0.0214508 1.26937 0.192473 0.266509C3.25209 0.266509 6.3316 0.236868 9.41111 0.266509C11.0777 0.266509 12.7543 0.0886616 14.4209 0.478939C17.0029 1.07671 18.8487 2.54889 19.4606 5.10299C20.0725 7.65708 19.6894 10.1519 17.2915 11.8859C17.1225 12.0431 16.9661 12.2133 16.8238 12.3948ZM6.52562 13.7879V22.9767C9.55041 23.4707 13.5204 23.2484 15.207 22.5222C17.197 21.6676 18.1223 19.9978 17.8586 17.7598C17.5999 15.6306 16.5005 14.3708 14.401 14.0053C11.8339 13.5606 9.24196 13.6842 6.52562 13.7879ZM6.52562 11.3919C9.01311 11.2437 11.3364 11.7426 13.6299 11.0461C14.5136 10.8383 15.2925 10.3216 15.8242 9.59049C16.3559 8.85935 16.6047 7.96262 16.5253 7.06425C16.4756 5.08817 15.401 3.75431 13.406 3.2504C11.1623 2.67734 8.88874 2.97869 6.52562 2.94905V11.3919Z" fill="white"/>
<path d="M60.3747 25.7334C60.1633 24.9247 60.1513 24.0774 60.3398 23.2632L63.0562 23.1101L70.6181 3.38381C70.0261 2.65266 69.2301 3.14668 68.5834 2.80086C68.2152 2.08453 68.5088 1.28916 68.3993 0.296172C70.3893 0.296172 72.3246 0.207249 74.22 0.325814C75.5881 0.409798 75.8518 1.70908 76.2448 2.71688C78.6378 8.84769 80.991 14.9933 83.379 21.1241C83.5789 21.8895 83.9382 22.6048 84.4337 23.2237H86.9211C87.1849 24.0465 87.1849 24.9303 86.9211 25.7531H78.2149C77.9264 24.933 78.0756 24.1525 78.0856 23.4114C78.9562 22.9767 79.797 23.3472 80.7372 23.0311C80.389 20.9364 79.2796 19.0789 78.7075 17.0386H68.5983L66.4292 22.8285C67.3048 23.4806 68.25 22.9372 69.0809 23.3571C69.2656 24.1419 69.2656 24.9584 69.0809 25.7432L60.3747 25.7334ZM73.8071 4.41631L73.4191 4.35703L69.6381 14.3313H77.5533C76.2697 10.9226 75.0359 7.66698 73.8071 4.41631Z" fill="white"/>
<path d="M92.752 11.1953V0.0649414H103.483C103.627 3.77999 103.652 7.47527 103.483 11.1953H92.752ZM102.254 9.84658V1.21107H93.9708V9.84658H102.254Z" fill="white"/>
<path d="M107.279 0H117.896V11.1896H107.279V0ZM116.771 1.23011H108.488V9.82609H116.771V1.23011Z" fill="white"/>
<path d="M92.8115 14.9686C96.3338 14.7315 99.8312 14.8599 103.453 14.9044V26.1039H92.8115V14.9686ZM102.294 16.2975H94.0005V24.9231H102.294V16.2975Z" fill="white"/>
<path d="M107.254 26.0991V15.0527H118V26.0991H107.254ZM108.463 16.2186V24.8492H116.741V16.2285L108.463 16.2186Z" fill="white"/>
<path d="M2.02686 36.4813V35.8242H5.74814V36.4813H4.25564V42.5627H3.53925V36.4813H2.02686Z" fill="white"/>
<path d="M9.54907 35.8242H10.2257V38.65H13.7082V35.8242H14.3848V42.5627H13.7082V39.312H10.2257V42.5627H9.54907V35.8242Z" fill="white"/>
<path d="M18.8574 35.8242H22.7479V36.4813H19.539V38.5957H22.723V39.2527H19.539V41.9056H22.723V42.5627H18.8574V35.8242Z" fill="white"/>
<path d="M32.23 35.8241H33.5682C33.9897 35.8034 34.411 35.8672 34.807 36.0119C35.0892 36.134 35.3282 36.337 35.4936 36.5948C35.6617 36.8575 35.7498 37.1629 35.7473 37.4742C35.7498 37.7612 35.6723 38.0433 35.5234 38.2893C35.3679 38.5443 35.144 38.7513 34.8767 38.8871C35.1717 38.9776 35.448 39.1198 35.6926 39.307C35.881 39.4671 36.032 39.6661 36.1353 39.8899C36.2418 40.1226 36.2962 40.3754 36.2945 40.631C36.2985 40.8888 36.2473 41.1445 36.1444 41.3813C36.0415 41.618 35.8892 41.8304 35.6975 42.0044C35.2595 42.3878 34.6889 42.5879 34.1055 42.5626H32.23V35.8241ZM32.8917 36.4812V38.6401H33.2797C33.6311 38.6561 33.9827 38.6126 34.3195 38.5116C34.5336 38.4297 34.7176 38.285 34.8468 38.0966C34.9761 37.9145 35.0456 37.6971 35.0458 37.4742C35.0533 37.3345 35.0274 37.195 34.9703 37.0671C34.9133 36.9392 34.8267 36.8265 34.7175 36.7381C34.4096 36.539 34.0439 36.447 33.6777 36.4762L32.8917 36.4812ZM32.8917 39.3169V41.9055H33.7324C34.1034 41.9242 34.4745 41.8739 34.8269 41.7573C35.0534 41.6656 35.2474 41.5092 35.3841 41.3078C35.5343 41.0913 35.6071 40.8311 35.5908 40.5687C35.5746 40.3063 35.4703 40.0569 35.2946 39.8603C35.0794 39.6266 34.7957 39.4659 34.4836 39.4009C34.0846 39.332 33.6795 39.3039 33.2747 39.3169H32.8917Z" fill="white"/>
<path d="M40.4736 35.8242H41.1502V41.9106H43.7621V42.5627H40.4736V35.8242Z" fill="white"/>
<path d="M50.9061 35.6512C51.3872 35.6358 51.8663 35.7186 52.3139 35.8945C52.7614 36.0704 53.1679 36.3357 53.508 36.6739C54.0096 37.1694 54.3517 37.8016 54.4909 38.4905C54.6301 39.1793 54.5602 39.8937 54.29 40.543C54.0198 41.1923 53.5615 41.7473 52.9732 42.1377C52.385 42.528 51.6932 42.7361 50.9857 42.7355C50.5123 42.7455 50.0418 42.6596 49.603 42.4829C49.1642 42.3062 48.7662 42.0425 48.4335 41.7079C48.1001 41.3881 47.836 41.004 47.6572 40.5793C47.4784 40.1546 47.3888 39.6981 47.3938 39.2378C47.3978 38.6039 47.5693 37.9821 47.8913 37.4346C48.1954 36.8952 48.6397 36.4465 49.1779 36.1355C49.716 35.8244 50.3282 35.6623 50.9509 35.666L50.9061 35.6512ZM50.9359 36.3083C50.4332 36.3078 49.9398 36.4427 49.5081 36.6986C49.071 36.9421 48.707 37.2968 48.4534 37.7261C48.199 38.1788 48.0687 38.6898 48.0753 39.2082C48.0727 39.5829 48.1448 39.9544 48.2873 40.3013C48.4299 40.6482 48.6402 40.9637 48.9061 41.2296C49.172 41.4955 49.4882 41.7065 49.8366 41.8505C50.185 41.9945 50.5586 42.0686 50.9359 42.0686C51.4586 42.0753 51.9737 41.944 52.4284 41.6882C52.8665 41.441 53.2292 41.0808 53.4782 40.6458C53.7308 40.1926 53.8594 39.6816 53.8513 39.1637C53.8577 38.6554 53.729 38.1544 53.4782 37.7113C53.2171 37.2789 52.8484 36.9205 52.4075 36.6705C51.9667 36.4204 51.4685 36.2872 50.9608 36.2836L50.9359 36.3083Z" fill="white"/>
<path d="M65.0498 37.0743L64.5125 37.4793C64.2371 37.1102 63.8751 36.8134 63.4578 36.6148C63.0321 36.4142 62.5659 36.3129 62.0947 36.3184C61.572 36.3164 61.0577 36.4492 60.6022 36.7037C60.1502 36.939 59.7717 37.2927 59.5077 37.7264C59.2491 38.1774 59.1184 38.6895 59.1296 39.2084C59.1189 39.592 59.1886 39.9736 59.3342 40.3291C59.4798 40.6846 59.6981 41.0061 59.9754 41.2734C60.2597 41.5469 60.5965 41.7608 60.9656 41.9025C61.3348 42.0442 61.7289 42.1109 62.1246 42.0984C62.5809 42.1064 63.033 42.0104 63.4461 41.8177C63.8593 41.625 64.2224 41.3408 64.5076 40.9869L65.0449 41.392C64.7056 41.8154 64.2711 42.1538 63.7762 42.38C63.2436 42.6193 62.6643 42.739 62.0798 42.7308C61.5522 42.7548 61.0259 42.6613 60.5395 42.457C60.0531 42.2527 59.619 41.9428 59.2689 41.5501C58.6937 40.8826 58.3871 40.0275 58.4082 39.1491C58.4009 38.6881 58.49 38.2305 58.6698 37.8053C58.8496 37.3802 59.1163 36.9966 59.453 36.679C59.8002 36.3485 60.2108 36.0908 60.6603 35.921C61.1099 35.7513 61.5892 35.6731 62.0698 35.691C62.6652 35.6812 63.2547 35.8098 63.7912 36.0664C64.2873 36.2952 64.7195 36.6413 65.0498 37.0743Z" fill="white"/>
<path d="M69.2488 35.8242H69.9254V38.3536L72.6368 35.8242H73.5472L70.2886 38.8476L73.8009 42.5627H72.9104L69.9254 39.4256V42.5627H69.2339L69.2488 35.8242Z" fill="white"/>
<path d="M83.9897 37.0743L83.4574 37.4794C83.1769 37.1112 82.8119 36.8148 82.3928 36.6149C81.9651 36.4147 81.4974 36.3134 81.0247 36.3185C80.502 36.3172 79.9879 36.4499 79.5322 36.7038C79.0838 36.9406 78.7089 37.2941 78.4476 37.7264C78.189 38.1774 78.0583 38.6896 78.0695 39.2085C78.0602 39.5916 78.131 39.9725 78.2774 40.3271C78.4238 40.6817 78.6427 41.0023 78.9202 41.2686C79.2046 41.542 79.5413 41.7559 79.9105 41.8977C80.2797 42.0394 80.6738 42.106 81.0694 42.0936C81.5261 42.0994 81.9783 42.0024 82.3918 41.8099C82.8054 41.6174 83.1697 41.3343 83.4574 40.982L83.9897 41.3872C83.6505 41.8105 83.216 42.1489 82.7211 42.3752C82.1884 42.6144 81.6092 42.7342 81.0247 42.726C80.4977 42.7507 79.972 42.6574 79.4863 42.453C79.0006 42.2486 78.5674 41.9384 78.2188 41.5452C77.64 40.8794 77.3315 40.0236 77.3531 39.1443C77.3458 38.6832 77.4349 38.2256 77.6147 37.8005C77.7945 37.3753 78.0612 36.9918 78.3979 36.6742C78.746 36.3435 79.1574 36.0857 79.6078 35.916C80.0582 35.7463 80.5383 35.6681 81.0197 35.6861C81.6134 35.677 82.2011 35.8055 82.736 36.0616C83.2318 36.2911 83.6626 36.639 83.9897 37.0743Z" fill="white"/>
<path d="M88.1787 35.8242H88.8553V38.65H92.3129V35.8242H92.9945V42.5627H92.3129V39.312H88.8553V42.5627H88.1787V35.8242Z" fill="white"/>
<path d="M100.273 35.8242L103.442 42.5627H102.706L101.641 40.3445H98.7158L97.6561 42.5627H96.8999L100.109 35.8242H100.273ZM100.188 37.2569L99.0043 39.7023H101.328L100.188 37.2569Z" fill="white"/>
<path d="M107.238 35.8242H107.914V42.5627H107.238V35.8242Z" fill="white"/>
<path d="M112.287 42.5627V35.8242H112.432L116.954 40.9917V35.8242H117.621V42.5627H117.466L112.989 37.4594V42.5627H112.287Z" fill="white"/>
<path d="M1.99707 52.5723L2.57417 52.2264C2.98212 52.9724 3.44977 53.3429 3.98209 53.3429C4.20584 53.3433 4.42625 53.289 4.62386 53.1848C4.8078 53.0919 4.96255 52.9506 5.07131 52.7764C5.18007 52.6022 5.23867 52.4017 5.24076 52.1968C5.23511 51.9557 5.15332 51.7224 5.00693 51.5299C4.67464 51.1157 4.28233 50.7528 3.84279 50.4529C3.4568 50.186 3.10292 49.8761 2.78809 49.5291C2.55689 49.2338 2.4309 48.8706 2.42989 48.4966C2.42418 48.2119 2.49901 47.9314 2.64588 47.6868C2.79275 47.4423 3.00577 47.2436 3.26072 47.1133C3.51889 46.9749 3.8081 46.9035 4.10149 46.9058C4.41586 46.9048 4.72488 46.9866 4.99699 47.1429C5.34863 47.37 5.64995 47.6658 5.88253 48.0124L5.33031 48.4274C5.15401 48.1687 4.93143 47.9443 4.67361 47.7654C4.49731 47.6572 4.29381 47.6007 4.08656 47.6024C3.83864 47.5935 3.59723 47.6823 3.41494 47.8494C3.33093 47.9277 3.26447 48.0228 3.2199 48.1283C3.17533 48.2339 3.15364 48.3476 3.15624 48.462C3.15674 48.6082 3.18721 48.7527 3.24579 48.8868C3.33145 49.055 3.44593 49.2072 3.58409 49.3364C3.67364 49.4204 3.96716 49.6476 4.45969 50.0083C4.92461 50.3222 5.33325 50.7113 5.66861 51.1594C5.87516 51.4579 5.98929 51.8099 5.99696 52.1721C5.99757 52.4117 5.9479 52.6487 5.85111 52.8682C5.75431 53.0877 5.61252 53.2847 5.43478 53.4467C5.25591 53.6234 5.04304 53.7627 4.80885 53.856C4.57466 53.9494 4.32395 53.995 4.07164 53.9901C3.67357 53.9934 3.28365 53.8781 2.95227 53.6591C2.5486 53.3805 2.22048 53.0071 1.99707 52.5723Z" fill="white"/>
<path d="M9.56885 47.7451V47.1128H13.2901V47.7698H11.7976V53.8512H11.1011V47.7451H9.56885Z" fill="white"/>
<path d="M19.8772 47.1128L23.0462 53.8512H22.31L21.2453 51.6331H18.32L17.2603 53.8512H16.5042L19.713 47.1128H19.8772ZM19.7926 48.5405L18.6285 50.981H20.9518L19.7926 48.5405Z" fill="white"/>
<path d="M26.9714 47.1125H28.3197C28.8321 47.0956 29.345 47.1254 29.8519 47.2014C30.2399 47.2829 30.5897 47.4896 30.8469 47.7893C31.1042 48.1041 31.2384 48.5006 31.225 48.9058C31.2362 49.253 31.1464 49.596 30.9663 49.8938C30.7893 50.1749 30.5284 50.3941 30.2201 50.5212C29.7933 50.6829 29.3384 50.7585 28.8818 50.7435L31.3245 53.8707H30.4738L28.0311 50.7435H27.6381V53.8707H26.9714V47.1125ZM27.6381 47.7448V50.0371H28.8072C29.1438 50.051 29.4803 50.0076 29.8022 49.9086C30.0094 49.8308 30.1844 49.6865 30.2997 49.4986C30.4231 49.3107 30.4872 49.0905 30.4838 48.8663C30.4857 48.6468 30.4216 48.4318 30.2997 48.2487C30.1801 48.0681 30.0059 47.9297 29.8022 47.8535C29.4798 47.7578 29.1432 47.7177 28.8072 47.7349L27.6381 47.7448Z" fill="white"/>
<path d="M34.832 47.7451V47.1128H38.5533V47.7698H37.0608V53.8512H36.3444V47.7451H34.832Z" fill="white"/>
<path d="M41.6626 52.5721L42.2397 52.2263C42.6476 52.9723 43.1153 53.3428 43.6476 53.3428C43.8714 53.3432 44.0918 53.2889 44.2894 53.1847C44.4733 53.0917 44.6281 52.9505 44.7368 52.7763C44.8456 52.6021 44.9042 52.4016 44.9063 52.1967C44.9006 51.9555 44.8188 51.7222 44.6725 51.5298C44.3389 51.1168 43.9467 50.754 43.5083 50.4528C43.1223 50.1859 42.7684 49.8759 42.4536 49.529C42.2224 49.2337 42.0964 48.8705 42.0954 48.4965C42.0892 48.216 42.1612 47.9393 42.3034 47.6969C42.4457 47.4546 42.6526 47.256 42.9014 47.1231C43.1595 46.9847 43.4488 46.9133 43.7421 46.9156C44.0565 46.9145 44.3655 46.9964 44.6376 47.1527C44.9893 47.3797 45.2906 47.6756 45.5232 48.0222L44.971 48.4372C44.7933 48.1796 44.571 47.9554 44.3143 47.7752C44.138 47.667 43.9345 47.6105 43.7272 47.6122C43.4793 47.6033 43.2379 47.6921 43.0556 47.8592C42.9716 47.9375 42.9051 48.0326 42.8606 48.1381C42.816 48.2436 42.7943 48.3573 42.7969 48.4718C42.7974 48.6179 42.8279 48.7625 42.8864 48.8966C42.9704 49.0659 43.0851 49.2183 43.2247 49.3462C43.3143 49.4302 43.6028 49.6574 44.1003 50.018C44.5653 50.3319 44.9739 50.721 45.3093 51.1691C45.5158 51.4677 45.6299 51.8197 45.6376 52.1819C45.6382 52.4214 45.5886 52.6585 45.4918 52.878C45.395 53.0974 45.2532 53.2944 45.0754 53.4564C44.8966 53.6332 44.6837 53.7724 44.4495 53.8658C44.2153 53.9591 43.9646 54.0047 43.7123 53.9999C43.3142 54.0032 42.9243 53.8879 42.5929 53.6689C42.1971 53.3844 41.8776 53.0078 41.6626 52.5721Z" fill="white"/>
<path d="M55.3537 47.1128H56.0303V49.9386H59.5127V47.1128H60.1893V53.8512H59.4779V50.5709H55.9954V53.8216H55.3188L55.3537 47.1128Z" fill="white"/>
<path d="M64.6567 47.1128H68.5472V47.7698H65.3383V49.8843H68.5223V50.5413H65.3383V53.1942H68.5223V53.8512H64.6567V47.1128Z" fill="white"/>
<path d="M72.5969 47.1125H73.9451C74.4576 47.0956 74.9705 47.1254 75.4774 47.2014C75.8654 47.2829 76.2152 47.4896 76.4724 47.7893C76.7297 48.1041 76.8639 48.5006 76.8505 48.9058C76.8617 49.253 76.7718 49.596 76.5918 49.8938C76.4148 50.1749 76.1539 50.3941 75.8456 50.5212C75.4188 50.6829 74.9639 50.7585 74.5073 50.7435L76.95 53.8707H76.1093L73.6665 50.7435H73.2835V53.8707H72.6069L72.5969 47.1125ZM73.2735 47.7695V50.0618H74.4426C74.7793 50.0761 75.1159 50.0326 75.4376 49.9333C75.6448 49.8555 75.8199 49.7112 75.9351 49.5233C76.0585 49.3354 76.1226 49.1152 76.1192 48.891C76.1212 48.6715 76.0571 48.4565 75.9351 48.2734C75.8155 48.0928 75.6414 47.9544 75.4376 47.8782C75.1152 47.7825 74.7787 47.7424 74.4426 47.7596L73.2735 47.7695Z" fill="white"/>
<path d="M81.134 47.1128H85.0245V47.7698H81.8156V49.8843H84.9996V50.5413H81.8156V53.1942H84.9996V53.8512H81.134V47.1128Z" fill="white"/>
</svg>
