<svg width="170" height="25" viewBox="0 0 170 25" fill="none" xmlns="http://www.w3.org/2000/svg">
<path d="M10.4174 8.79167C10.4174 8.79167 9.01043 8.65357 9.01043 9.89048V15.3845H18.302V17.0333C18.302 17.0333 18.3298 17.8571 17.4573 17.8571H9.01043V25H19.1467C19.1467 25 25.284 24.0655 25.3407 17.8571V8.79167H10.4174ZM25.0583 0H6.75752C0.139977 1.5381 0 6.89524 0 6.89524V25H7.03989V8.51667C7.03989 7.11548 8.44691 6.86905 8.44691 6.86905H25.0596V0H25.0583ZM49.2189 19.819C48.7362 20.1369 48.379 20.3702 48.1268 20.519C47.2242 21.0702 46.3639 21.4952 45.5662 21.8345C44.4114 22.3012 43.3821 22.5345 42.459 22.5345C39.289 22.5345 36.6644 21.5798 34.543 19.6488C32.4216 17.7179 31.3742 15.3 31.3742 12.3726C31.3742 9.55119 32.3191 7.11071 34.2293 5.03095C36.1395 2.95238 38.4491 1.93333 41.1787 1.93333C42.313 1.93333 43.5293 2.12381 44.7891 2.52857C46.4266 3.0369 47.7491 3.80119 48.799 4.79762L46.972 6.79167C46.1961 6.05 45.1885 5.49762 44.012 5.15833C43.1311 4.90357 42.1657 4.77738 41.0942 4.77738C39.184 4.77738 37.567 5.53929 36.2867 7.04643C35.0064 8.57381 34.356 10.3774 34.356 12.4988C34.356 14.6 35.0896 16.3179 36.5594 17.6976C38.0292 19.0762 39.8971 19.7762 42.1645 19.7762C43.1094 19.7762 44.0759 19.4786 45.0618 18.9071C45.8812 18.2917 46.3011 17.994 46.3216 17.9726V13.6238H40.1916L41.0725 10.9083H49.2189V19.819ZM67.7357 14.5143C67.7357 16.6143 66.9803 18.4393 65.4683 19.9667C63.9563 21.494 62.0884 22.2798 59.8632 22.2798C57.8058 22.2798 56.0006 21.5155 54.4463 20.0095C52.8921 18.5036 52.1367 16.6786 52.1367 14.5357C52.1367 12.4143 52.8728 10.5893 54.3414 9.01905C55.8099 7.44881 57.6163 6.68571 59.7365 6.68571C62.0884 6.68571 63.9986 7.42857 65.4889 8.93452C66.9803 10.3988 67.7357 12.2655 67.7357 14.5143ZM64.859 14.5571C64.859 13.1357 64.3763 11.9262 63.4109 10.95C62.4456 9.95238 61.2485 9.46429 59.821 9.46429C58.4779 9.46429 57.3436 9.97381 56.3988 10.9929C55.4539 12.0107 54.9918 13.1774 54.9918 14.4929C54.9918 15.8726 55.4744 17.0393 56.4193 18.0155C57.3641 18.9917 58.5407 19.5 59.967 19.5C61.2907 19.5 62.4238 19.0119 63.3904 18.0357C64.3763 17.0595 64.8602 15.8929 64.8602 14.5571H64.859ZM86.0004 14.5143C86.0004 16.6143 85.245 18.4393 83.733 19.9667C82.221 21.494 80.353 22.2798 78.1278 22.2798C76.0704 22.2798 74.2652 21.5155 72.711 20.0095C71.1579 18.5036 70.4013 16.6786 70.4013 14.5357C70.4013 12.4143 71.1374 10.5893 72.606 9.01905C74.0757 7.44881 75.881 6.68571 78.0011 6.68571C80.353 6.68571 82.2632 7.42857 83.7535 8.93452C85.245 10.3988 86.0004 12.2655 86.0004 14.5143ZM83.1236 14.5571C83.1236 13.1357 82.6409 11.9262 81.6755 10.95C80.7102 9.95238 79.5131 9.46429 78.0856 9.46429C76.7425 9.46429 75.6082 9.97381 74.6634 10.9929C73.7186 12.0107 73.2564 13.1774 73.2564 14.4929C73.2564 15.8726 73.7391 17.0393 74.6851 18.0155C75.6288 18.9917 76.8053 19.5 78.2328 19.5C79.5554 19.5 80.6885 19.0119 81.655 18.0357C82.6409 17.0595 83.1248 15.8929 83.1248 14.5571H83.1236ZM102.901 21.8548L100.256 22.2583V19.7333L99.6892 20.369C99.1896 20.8308 98.6236 21.2171 98.0094 21.5155C97.1081 21.9256 96.1265 22.1357 95.1339 22.131C93.0764 22.131 91.3122 21.3881 89.8847 19.881C88.4572 18.3738 87.744 16.5929 87.744 14.5143C87.744 12.3714 88.4572 10.5262 89.8642 8.99762C91.2712 7.46905 92.992 6.70595 95.0494 6.70595C96.2259 6.70595 97.254 6.89643 98.1144 7.27857C98.7238 7.55476 99.2487 7.91548 99.6892 8.36191C99.8364 8.55238 99.9836 8.76429 100.131 8.95476V2.33571L102.942 1.93214L102.901 21.8548ZM100.424 14.7048C100.424 13.2202 99.9196 11.9679 98.8915 10.95C97.8634 9.90952 96.7074 9.40119 95.3861 9.40119C93.9163 9.40119 92.741 9.88929 91.8384 10.8655C90.9973 11.7976 90.5569 12.944 90.5569 14.281C90.5569 15.7869 90.9973 17.0381 91.8794 18.0143C92.7603 18.9905 93.8741 19.4786 95.2389 19.4786C96.5819 19.4786 97.7584 19.0333 98.8083 18.1214C99.8786 17.1869 100.425 16.0417 100.425 14.7048H100.424ZM117.744 5.09524H109.871V10.3774H115.98V13.0929H109.871V21.8345L106.806 22.2798V2.35714H117.134L117.744 5.09524ZM124.063 3.54524L122.174 5.9L120.368 3.54524L122.279 1.2119L124.063 3.54524ZM123.496 21.8548L120.683 22.2369V7.49167L123.496 7.06786V21.856V21.8548ZM136.198 6.91905L134.875 9.93095C134.702 9.90482 134.526 9.89089 134.35 9.88929C134.078 9.88929 133.805 9.91071 133.531 9.95238C133.257 9.99405 132.964 10.1012 132.65 10.25C132.063 10.5048 131.558 11.056 131.118 11.8833C130.63 12.8224 130.378 13.8629 130.382 14.9179V21.8345L127.57 22.2798V7.49167L130.173 7.025V10.1012C130.508 9.57024 130.865 9.04048 131.201 8.48929C131.684 7.9369 132.251 7.53452 132.881 7.3C133.216 7.17381 133.826 7.06667 134.749 6.98214C135.631 6.91905 136.135 6.87619 136.198 6.91905ZM157.149 21.8548L154.336 22.2583V12.1381C154.336 11.2036 154.126 10.525 153.706 10.1012C153.286 9.67619 152.656 9.46429 151.837 9.46429C150.851 9.46429 150.094 9.86786 149.591 10.6738C149.254 11.225 149.066 11.819 149.066 12.4131V21.8333L146.253 22.3429V12.2012C146.253 11.3107 146.043 10.631 145.644 10.1655C145.224 9.69762 144.679 9.46429 143.964 9.46429H143.692C142.704 9.46429 141.99 9.86786 141.55 10.6952C141.214 11.3107 141.046 12.0952 141.046 13.05V21.8333L138.129 22.3429V7.49167L140.752 7.04643V8.93452C141.046 8.4881 141.34 8.12738 141.614 7.87381C142.369 7.17381 143.251 6.83333 144.237 6.83333C145.35 6.83333 146.168 7.00357 146.735 7.36429C147.217 7.6619 147.68 8.25476 148.142 9.10357C149.107 7.59762 150.472 6.83333 152.278 6.83333C153.999 6.83333 155.281 7.36429 156.119 8.44643C156.813 9.3369 157.149 10.6524 157.149 12.3714V21.8548ZM170 17.3786C170 18.7357 169.517 19.8607 168.552 20.731C167.587 21.6214 166.368 22.0464 164.898 22.0464C163.785 22.0464 162.798 21.7917 161.896 21.2821C160.993 20.7738 160.322 20.2 159.881 19.5214L161.855 17.7821C162.001 17.994 162.127 18.1631 162.253 18.2905C162.989 19.0333 163.87 19.4155 164.898 19.4155C165.612 19.4155 166.18 19.225 166.578 18.8643C166.998 18.5036 167.187 17.994 167.187 17.3357C167.187 16.594 166.704 16.0845 165.739 15.8083C163.828 15.2357 162.798 14.9179 162.652 14.8536C161.77 14.4083 161.14 13.9417 160.741 13.4107C160.301 12.7952 160.07 11.9893 160.07 10.95C160.07 9.67619 160.553 8.61667 161.498 7.76786C162.442 6.91905 163.576 6.51548 164.876 6.51548C165.865 6.51548 166.788 6.72738 167.628 7.17381C168.467 7.61905 169.076 8.08571 169.433 8.63809L167.753 10.4405C167.501 10.1913 167.227 9.9643 166.935 9.7619C166.263 9.29524 165.612 9.0619 165.004 9.0619C164.415 9.0619 163.933 9.18929 163.555 9.44286C163.113 9.7619 162.883 10.2286 162.883 10.844C162.883 11.4381 163.093 11.8833 163.535 12.1595C163.912 12.3929 164.71 12.6476 165.97 12.9226C167.228 13.2202 168.195 13.7298 168.887 14.4512C169.665 15.2143 170 16.169 170 17.3786Z" fill="white"/>
</svg>
