<svg width="128" height="72" viewBox="0 0 128 72" fill="none" xmlns="http://www.w3.org/2000/svg">
<path d="M8.75969 53.1729C8.25578 53.1729 7.90361 53.1843 7.41115 53.1957L7.33385 53.1213C7.29666 52.5434 7.28526 52.1285 7.23373 51.5477L7.14496 50.4518C6.83287 50.4404 6.21448 50.4404 5.89952 50.4404H5.21808C4.87736 50.4404 4.55094 50.4404 4.0098 50.4518L3.51731 51.396C3.21666 51.974 3.01339 52.3917 2.72421 52.9726L2.67273 53.0841L2.57254 53.1614C2.0944 53.1614 1.75369 53.1614 1.26407 53.1728L1.21252 53.0584C1.43871 52.632 4.84021 46.612 6.02557 44.3202L6.12569 44.2716C6.78136 44.2573 7.41128 44.2344 7.88943 44.2344L7.96672 44.2944C8.01534 45.3531 8.4821 50.1256 8.83426 53.0955L8.75969 53.1729ZM6.78126 45.1414L4.52504 49.4218C4.83998 49.4447 5.1063 49.4447 5.38117 49.4447H6.24008C6.56649 49.4447 6.79265 49.4447 7.10762 49.4218L6.78126 45.1414Z" fill="white"/>
<path d="M14.97 53.1472C14.529 53.1472 14.2284 53.1587 13.7874 53.1844L13.7359 53.0958L13.8361 52.6208C13.4352 52.9069 12.9055 53.2588 12.0237 53.2588C10.5119 53.2588 9.64148 52.1287 9.64148 50.7438C9.64148 50.0514 9.88197 49.1444 10.3114 48.452C11.368 46.7782 13.0315 46.5607 14.3027 46.5607C14.6205 46.5607 14.8439 46.575 15.1589 46.6008C15.5998 44.5493 15.6886 44.1087 15.7773 43.4792L15.8774 43.3905C16.3814 43.3161 16.7221 43.2532 17.226 43.1616L17.289 43.2389C16.722 45.3676 15.3878 51.2474 15.0729 53.0729L14.97 53.1472ZM14.9327 47.5707C14.8326 47.5449 14.6206 47.5307 14.3543 47.5307C12.6393 47.5307 11.7976 48.2774 11.3423 49.2302C11.2565 49.4219 11.0274 49.9741 11.0274 50.5779C11.0274 51.5106 11.5456 52.2545 12.5907 52.2545C12.8942 52.2545 13.6987 52.0256 14.0251 51.6251L14.9327 47.5707Z" fill="white"/>
<path d="M19.5825 53.1613C19.0414 53.1728 18.6635 53.1842 18.1194 53.21L18.0078 53.1327C17.9191 51.9625 17.4409 48.0998 17.2777 46.7522L17.3521 46.6635C17.8302 46.6635 18.171 46.6377 18.6377 46.6006L18.7264 46.675C18.775 47.3931 18.8008 47.8967 18.8637 48.6149L19.1672 52.1285C21.2946 47.9997 21.5723 47.4704 21.9502 46.6893L22.0648 46.6378H22.5429C22.7949 46.6378 22.9724 46.6378 23.2243 46.6264L23.2844 46.7151C22.9093 47.3674 22.4312 48.1485 22.0389 48.8553L20.9824 50.7551C20.5271 51.5591 20.1234 52.2687 19.6968 53.0956L19.5825 53.1613Z" fill="white"/>
<path d="M28.2122 53.1731H27.8858C27.5709 53.1731 27.3447 53.1845 27.0297 53.196L26.9668 53.1216L27.0526 52.618C26.4599 53.0958 25.8328 53.2475 25.2144 53.2475C23.7284 53.2475 22.8838 52.1402 22.8838 50.7925C22.8838 49.8626 23.2846 48.9928 23.4765 48.6638C24.5215 46.8269 26.3855 46.6123 27.7083 46.6123C28.3009 46.6123 29.5865 46.6381 29.5865 46.6381L29.6495 46.7268C28.6273 51.1702 28.4641 51.8855 28.3009 53.0958L28.2122 53.1731ZM25.7814 52.2661C26.1708 52.2661 26.8006 52.0887 27.2444 51.6366C27.5565 50.3519 27.8085 49.0301 28.1492 47.5823C27.9976 47.5823 27.8085 47.5566 27.6081 47.5566C26.3998 47.5566 25.1772 47.9343 24.5473 49.4335C24.47 49.6109 24.2696 50.1145 24.2696 50.7039C24.2696 51.5995 24.7993 52.2661 25.7814 52.2661" fill="white"/>
<path d="M35.4962 53.1732C35.0152 53.1732 34.6887 53.1846 34.2106 53.2104L34.159 53.1217C34.3365 52.2776 34.5112 51.714 34.6887 50.8814L34.9894 49.445C35.0295 49.2562 35.1296 48.8556 35.1296 48.5151C35.1296 47.5824 34.3108 47.5452 34.0588 47.5452C33.2915 47.5452 32.6845 47.9973 32.3953 48.2119C32.0431 49.837 31.6766 51.4622 31.376 53.0959L31.2873 53.1732C30.8063 53.1732 30.4798 53.1846 30.0017 53.2104L29.9387 53.1217C30.3539 51.4622 31.147 47.9601 31.2615 46.827L31.3503 46.7412C31.8399 46.6754 32.1949 46.6124 32.6845 46.5123L32.7504 46.601L32.5729 47.2448C33.492 46.538 34.3996 46.4751 34.6888 46.4751C35.0667 46.4751 36.5155 46.538 36.5155 48.1489C36.5155 48.5638 36.3522 49.4078 36.1004 50.5781L35.9113 51.4736C35.7854 52.0774 35.6708 52.4922 35.5964 53.096L35.4962 53.1732Z" fill="white"/>
<path d="M41.9068 52.9727C41.4659 53.2245 40.7215 53.3246 40.2806 53.3246C38.6571 53.3246 37.5348 52.1029 37.5348 50.5035C37.5348 49.4563 37.99 47.834 39.3758 46.9899C40.1059 46.5493 40.8732 46.4863 41.2139 46.4863C42.0986 46.4863 42.7887 46.7009 43.1666 46.9899L43.2038 47.0786C43.0665 47.4448 42.992 47.7081 42.8889 48.0743L42.763 48.1115C42.5625 47.771 42.01 47.482 41.34 47.482C39.7652 47.482 38.9091 49.1444 38.9091 50.4033C38.9091 51.874 40.0544 52.3061 40.6614 52.3061C40.8733 52.3061 41.529 52.2774 42.1961 51.6995L42.2991 51.7481C42.1589 52.1659 42.0844 52.4548 41.9842 52.884L41.9068 52.9727Z" fill="white"/>
<path d="M44.289 53.1618C43.7994 53.1618 43.4444 53.1732 42.9548 53.199L42.8918 53.1217C43.2927 51.6625 44.1889 47.508 44.2519 46.827L44.3406 46.7383C44.856 46.6754 45.2082 46.6268 45.7121 46.5381L45.775 46.6268C45.7121 46.6125 44.667 51.4107 44.3778 53.096L44.289 53.1618ZM46.09 44.8642C45.6004 44.9271 45.2597 44.9644 44.7672 45.0416L44.6928 44.9386C44.7929 44.5094 44.8703 44.209 44.9563 43.7798L45.0707 43.694C45.5632 43.6311 45.901 43.591 46.3792 43.5166L46.4822 43.6053C46.3677 44.0202 46.2932 44.3349 46.1931 44.7641L46.09 44.8642Z" fill="white"/>
<path d="M51.573 53.1732C51.0919 53.1732 50.7655 53.1846 50.2874 53.2104L50.2359 53.1217C50.4133 52.2776 50.5881 51.714 50.7656 50.8814L51.0691 49.445C51.1062 49.2562 51.2064 48.8556 51.2064 48.5151C51.2064 47.5824 50.3875 47.5452 50.1356 47.5452C49.3682 47.5452 48.7641 47.9973 48.4721 48.2119C48.1199 49.837 47.7562 51.4622 47.4528 53.0959L47.364 53.1732C46.8859 53.1732 46.5566 53.1846 46.0785 53.2104L46.0155 53.1217C46.4307 51.4622 47.2238 47.9601 47.3383 46.827L47.427 46.7412C47.9195 46.6754 48.2717 46.6124 48.7641 46.5123L48.8271 46.601L48.6496 47.2448C49.5687 46.538 50.4763 46.4751 50.7655 46.4751C51.1435 46.4751 52.5922 46.538 52.5922 48.1489C52.5922 48.5638 52.4292 49.4078 52.1742 50.5781L51.9881 51.4736C51.8622 52.0774 51.7476 52.4922 51.6731 53.096L51.573 53.1732Z" fill="white"/>
<path d="M60.3657 46.7007C60.0136 48.1227 59.6986 49.4217 59.3951 50.8409L59.0429 52.5061C58.602 54.5948 58.2355 56.3573 55.4783 56.3573C54.7224 56.3573 53.5886 56.1799 52.8813 55.4131V55.3101C53.0702 55.0211 53.1963 54.8094 53.3853 54.5061H53.4854C53.8262 54.9467 54.456 55.4016 55.3894 55.4016C57.2677 55.4016 57.4166 53.6649 57.5569 53.2328L57.6801 52.7207C56.8497 53.2987 56.1082 53.3101 55.8305 53.3101C54.3445 53.3101 53.5628 52.1771 53.5628 50.8695C53.5628 50.5548 53.6115 49.4847 54.2815 48.4518C55.464 46.6263 57.3566 46.6263 58.8025 46.6263C59.4324 46.6263 60.3143 46.6006 60.3143 46.6006L60.3657 46.7007ZM58.8168 47.6048C58.8168 47.6048 58.4388 47.5963 58.3243 47.5963C57.1905 47.5963 55.9679 47.7965 55.275 49.2672C54.9743 49.9253 54.9343 50.4403 54.9343 50.7178C54.9343 52.0254 55.7789 52.3287 56.4088 52.3287C57.1017 52.3287 57.6056 51.9768 57.8834 51.7107L58.8168 47.6048Z" fill="white"/>
<path d="M67.3319 53.1731C66.8423 53.1731 66.5016 53.1845 65.9976 53.1959L65.9347 53.1215C66.2382 51.8855 67.6469 46.0343 67.7614 45.3276C66.3756 45.3419 65.7715 45.3677 65.1788 45.3791L65.1158 45.3018C65.2274 44.9385 65.3047 44.6867 65.3936 44.3204L65.4937 44.2575C66.0721 44.2718 66.994 44.2833 67.7499 44.2833C68.48 44.2833 71.0626 44.2719 71.8185 44.2461L71.8814 44.3205C71.7813 44.6495 71.704 44.9385 71.6037 45.3019L71.515 45.3677C71.0111 45.3276 70.2695 45.3276 69.1615 45.3162C68.9095 46.1745 68.8064 46.8011 68.606 47.6853L67.9646 50.5551C67.7758 51.4106 67.5982 52.2174 67.435 53.0958L67.3319 53.1731Z" fill="white"/>
<path d="M74.9852 52.8211C74.5557 53.07 73.9001 53.3246 72.9323 53.3246C70.7764 53.3246 70.009 52.04 70.009 50.5893C70.009 48.389 71.3547 46.4863 73.5365 46.4863C75.0225 46.4863 76.079 47.1673 76.079 48.844C76.079 49.3561 75.9674 49.7968 75.9273 49.9885L75.8415 50.0485C75.1858 50.0485 73.989 50.0371 72.8924 50.0371C72.3255 50.0371 71.9103 50.0371 71.3434 50.0629C71.333 50.1373 71.3062 50.3633 71.3062 50.6037C71.3062 52.2546 72.7407 52.2918 73.1959 52.2918C74.241 52.2918 74.7822 51.8883 75.2746 51.5364L75.3747 51.5993C75.2374 52.0142 75.1486 52.3032 75.0483 52.7324L74.9852 52.8211ZM74.8221 49.1558C74.8708 48.8669 74.8851 48.741 74.8851 48.6036C74.8593 47.4591 73.9145 47.3676 73.5852 47.3676C72.1364 47.3676 71.6468 48.7038 71.5066 49.1702C71.5066 49.1702 74.0147 49.1559 74.8221 49.1559" fill="white"/>
<path d="M81.121 52.9727C80.6801 53.2245 79.9356 53.3246 79.4947 53.3246C77.8713 53.3246 76.7489 52.1029 76.7489 50.5035C76.7489 49.4563 77.2013 47.834 78.5871 46.9899C79.3201 46.5493 80.0845 46.4863 80.4281 46.4863C81.3099 46.4863 82 46.7009 82.3779 46.9899L82.418 47.0786C82.2807 47.4448 82.2033 47.7081 82.1031 48.0743L81.9771 48.1115C81.7766 47.771 81.2213 47.482 80.5542 47.482C78.9794 47.482 78.1233 49.1444 78.1233 50.4033C78.1233 51.874 79.2685 52.3061 79.8727 52.3061C80.0846 52.3061 80.7403 52.2774 81.4102 51.6995L81.5104 51.7481C81.3728 52.1659 81.2957 52.4548 81.1955 52.884L81.121 52.9727Z" fill="white"/>
<path d="M87.6949 53.1731C87.2167 53.1731 86.8789 53.1845 86.4122 53.1959L86.3463 53.1215C86.4608 52.6666 86.5983 52.1287 86.7013 51.6738L87.065 50.0887C87.1393 49.7482 87.3541 48.7782 87.3541 48.4377C87.3541 47.5565 86.5753 47.5193 86.3463 47.5193C85.5675 47.5193 84.8231 48.0372 84.6083 48.2231L84.1044 50.4663C83.9039 51.3476 83.7522 52.1917 83.5747 53.0843L83.486 53.1616C83.0222 53.1616 82.6843 53.173 82.2148 53.1845L82.1404 53.1101C82.3178 52.3032 84.0415 45.3533 84.2334 43.4649L84.3335 43.3905C84.8346 43.3161 85.2011 43.2646 85.7079 43.1616L85.7679 43.2503C85.4129 44.5751 85.138 45.8941 84.8087 47.2303C85.201 46.9642 85.9454 46.4864 86.9905 46.4864C87.3169 46.4864 88.7284 46.5607 88.7284 48.0743C88.7284 48.6294 88.6052 49.2074 88.5022 49.6594L88.1615 51.1816C88.0242 51.8111 87.8981 52.4663 87.7836 53.0958L87.6949 53.1731Z" fill="white"/>
<path d="M94.9789 53.1732C94.5007 53.1732 94.1715 53.1846 93.6962 53.2104L93.6446 53.1217C93.8194 52.2776 93.9968 51.714 94.1715 50.8814L94.4749 49.445C94.5121 49.2562 94.6152 48.8556 94.6152 48.5151C94.6152 47.5824 93.7935 47.5452 93.5415 47.5452C92.7742 47.5452 92.1701 47.9973 91.878 48.2119C91.5258 49.837 91.1622 51.4622 90.8587 53.0959L90.77 53.1732C90.2918 53.1732 89.9654 53.1846 89.4872 53.2104L89.4243 53.1217C89.8395 51.4622 90.6326 47.9601 90.7442 46.827L90.833 46.7412C91.3254 46.6754 91.6776 46.6124 92.1701 46.5123L92.233 46.601L92.0556 47.2448C92.9775 46.538 93.8823 46.4751 94.1715 46.4751C94.5494 46.4751 96.0011 46.538 96.0011 48.1489C96.0011 48.5638 95.8377 49.4078 95.583 50.5781L95.3941 51.4736C95.2682 52.0774 95.1537 52.4922 95.0792 53.096L94.9789 53.1732Z" fill="white"/>
<path d="M100.499 46.4863C102.059 46.4863 103.193 47.2818 103.193 48.9556C103.193 50.2775 102.589 53.3218 99.6143 53.3218C98.8212 53.3218 96.9945 53.133 96.9945 50.8068C96.9945 48.7667 98.1054 46.4863 100.499 46.4863ZM99.6401 52.3919C101.544 52.3919 101.859 49.3189 101.859 48.8926C101.859 47.6709 101.115 47.4076 100.548 47.4076C98.8098 47.4076 98.3316 49.9885 98.3316 50.8955C98.3316 51.6995 98.7095 52.3919 99.6401 52.3919Z" fill="white"/>
<path d="M105.135 53.1729C104.668 53.1844 104.327 53.1844 103.852 53.2101L103.8 53.1329C103.986 52.1143 105.335 46.6007 105.779 43.4648L105.865 43.3761C106.38 43.3018 106.735 43.2388 107.253 43.1387L107.313 43.2131C106.683 45.9341 105.412 51.9369 105.235 53.0957L105.135 53.1729Z" fill="white"/>
<path d="M110.6 46.4863C112.164 46.4863 113.297 47.2818 113.297 48.9556C113.297 50.2775 112.693 53.3218 109.718 53.3218C108.925 53.3218 107.099 53.133 107.099 50.8068C107.099 48.7667 108.21 46.4863 110.6 46.4863ZM109.744 52.3919C111.648 52.3919 111.963 49.3189 111.963 48.8926C111.963 47.6709 111.219 47.4076 110.652 47.4076C108.914 47.4076 108.436 49.9885 108.436 50.8955C108.436 51.6995 108.814 52.3919 109.744 52.3919Z" fill="white"/>
<path d="M120.893 46.7007C120.541 48.1227 120.226 49.4217 119.926 50.8409L119.574 52.5061C119.133 54.5948 118.766 56.3573 116.009 56.3573C115.253 56.3573 114.119 56.1799 113.412 55.4131V55.3101C113.601 55.0211 113.727 54.8094 113.916 54.5061H114.016C114.357 54.9467 114.987 55.4016 115.917 55.4016C117.795 55.4016 117.947 53.6649 118.087 53.2328L118.211 52.7207C117.38 53.2987 116.636 53.3101 116.361 53.3101C114.875 53.3101 114.093 52.1771 114.093 50.8695C114.093 50.5548 114.145 49.4847 114.809 48.4518C115.995 46.6263 117.884 46.6263 119.333 46.6263C119.963 46.6263 120.845 46.6006 120.845 46.6006L120.893 46.7007ZM119.344 47.6048C119.344 47.6048 118.967 47.5963 118.855 47.5963C117.721 47.5963 116.498 47.7965 115.806 49.2672C115.502 49.9253 115.465 50.4403 115.465 50.7178C115.465 52.0254 116.31 52.3287 116.939 52.3287C117.632 52.3287 118.136 51.9768 118.414 51.7107L119.344 47.6048Z" fill="white"/>
<path d="M127.725 46.7154C126.21 49.156 122.674 55.0873 122.193 56.1574L122.093 56.2318H121.526C121.274 56.2318 121.034 56.2318 120.782 56.2461L120.745 56.1574C121.111 55.6023 122.357 53.6767 122.66 53.1216C122.179 49.9886 121.715 46.8785 121.652 46.7268L121.738 46.6381C122.219 46.6381 122.557 46.6123 123.05 46.5752L123.15 46.6381C123.216 47.3334 123.253 47.8198 123.339 48.5036L123.705 51.4736L124.93 49.3076C125.406 48.4664 125.884 47.6081 126.336 46.7011L126.439 46.6267C126.577 46.6381 126.714 46.6381 126.855 46.6381C127.155 46.6381 127.373 46.6267 127.662 46.6123L127.725 46.7154Z" fill="white"/>
<path d="M48.1056 68.6552C47.6246 68.6695 47.2982 68.681 46.8315 68.7067L46.7686 68.6294C47.2124 66.5779 46.9603 67.7853 47.9911 63.0786C47.7535 63.0786 47.387 63.09 47.0348 63.09L46.9604 63.0156C47.0464 62.7009 47.1121 62.4863 47.1867 62.1716L47.2868 62.0829C47.6132 62.1086 47.8537 62.1201 48.1801 62.1201L48.369 61.2131C48.6467 59.8683 48.8872 58.7324 50.6481 58.7324C51.0918 58.7324 51.381 58.8097 51.57 58.8469L51.633 58.947C51.5442 59.2646 51.4813 59.4906 51.4039 59.8025L51.3038 59.8798C51.2179 59.8683 51.0404 59.7911 50.8142 59.7911C50.0211 59.7911 49.8951 60.309 49.666 61.3161L49.4913 62.1201H49.706C50.0725 62.1201 50.3216 62.1201 50.6881 62.1087L50.751 62.2088C50.6623 62.4606 50.5994 62.7124 50.5105 63.0157L50.4104 63.1044C50.0067 63.0901 49.7175 63.0786 49.3024 63.0786C48.8987 65.0786 48.4834 66.6151 48.1943 68.5807L48.1056 68.6552Z" fill="white"/>
<path d="M53.9751 61.9712C55.5384 61.9712 56.6722 62.7637 56.6722 64.4376C56.6722 65.7594 56.0681 68.8066 53.0932 68.8066C52.3001 68.8066 50.4734 68.6149 50.4734 66.2888C50.4734 64.2459 51.5815 61.9712 53.9751 61.9712ZM53.119 67.8739C55.0202 67.8739 55.3351 64.8009 55.3351 64.3718C55.3351 63.1557 54.5936 62.8868 54.0267 62.8868C52.2887 62.8868 51.8077 65.4705 51.8077 66.3746C51.8077 67.1815 52.1885 67.8739 53.119 67.8739Z" fill="white"/>
<path d="M58.5506 68.6551C58.0581 68.6551 57.7174 68.6694 57.2392 68.6809L57.1763 68.6036C57.706 66.6265 58.4247 63.3819 58.5506 62.309L58.6364 62.2231C59.1432 62.1573 59.5068 62.1087 59.9993 62.0085L60.0623 62.0972C59.9621 62.4606 59.8848 62.7868 59.7845 63.2017C59.9734 62.8898 60.529 61.957 61.4223 61.957C61.7 61.957 61.8747 62.02 62.0035 62.0972L62.0407 62.2088C61.8516 62.6609 61.7258 62.9785 61.5483 63.442L61.4223 63.4821C61.3336 63.4191 61.1332 63.3018 60.8926 63.3018C60.5548 63.3018 59.7731 63.4821 59.3809 65.1158C59.2664 65.5965 58.7653 67.7596 58.6507 68.5664L58.5506 68.6551Z" fill="white"/>
<path d="M72.2337 68.6436C71.8672 68.6436 71.3747 68.6693 70.8737 68.6693L70.8221 68.6036C71.1972 67.0413 71.4635 65.9484 71.8042 64.3747C71.3261 64.3604 70.9853 64.3604 70.5186 64.3604H69.1959C68.6433 64.3604 68.251 64.3604 67.6841 64.4005C67.3462 65.7853 67.0799 67.1959 66.7908 68.5807L66.7021 68.6551C66.1981 68.6551 65.8431 68.6551 65.3535 68.6809L65.2905 68.5922C65.4308 68.0257 66.9798 61.4019 67.2575 59.8311L67.3463 59.7539C67.8502 59.7539 68.2024 59.7425 68.692 59.7281L68.7549 59.8025C68.3913 61.3132 68.4285 61.0757 67.9361 63.3161C67.9876 63.3161 68.4514 63.3303 68.7922 63.3303C69.9145 63.3303 71.1858 63.3161 72.0447 63.2931C72.4857 61.276 72.6345 60.5349 72.7749 59.8311L72.8606 59.7538C73.3646 59.7538 73.7196 59.7424 74.2235 59.728L74.2721 59.8024C73.479 63.2016 72.6086 67.007 72.3195 68.5663L72.2337 68.6436Z" fill="white"/>
<path d="M79.5634 68.6438C79.1111 68.6552 78.7818 68.6695 78.3294 68.6924L78.2664 68.6037L78.4181 68C77.7625 68.5407 77.0323 68.7811 76.3652 68.7811C74.8277 68.7811 74.4869 67.7367 74.4869 67.0558C74.4869 66.6037 74.5871 66.1259 74.8134 65.1302L75.0796 63.9599C75.2055 63.4049 75.3058 63.0157 75.4461 62.2232L75.5319 62.1345C75.9986 62.1345 76.325 62.1087 76.7917 62.083L76.8547 62.1574C76.3909 64.0715 75.8726 66.0715 75.8726 66.6409C75.8726 67.0071 75.9728 67.7224 76.9549 67.7224C77.5246 67.7224 78.0916 67.485 78.6327 66.9928C79.2884 64.0458 79.5776 62.6238 79.6377 62.2232L79.7378 62.1459C80.2074 62.1345 80.5338 62.1087 81.0119 62.083L81.0635 62.1717C80.6713 63.6452 79.7779 67.711 79.6519 68.5665L79.5634 68.6438Z" fill="white"/>
<path d="M90.5781 68.6549C90.1228 68.6549 89.7964 68.6692 89.3412 68.6807L89.2668 68.592C89.4559 67.8595 89.6304 67.0927 89.8079 66.3488L90.0341 65.3817C90.2116 64.6263 90.2861 64.1485 90.2861 63.9081C90.2861 63.0641 89.556 63.0383 89.3412 63.0383C88.5596 63.0383 87.9297 63.4933 87.6548 63.7307C87.6403 63.9825 87.5661 64.6006 87.3886 65.3817L87.1022 66.7036C86.962 67.3445 86.8331 67.9367 86.7214 68.5805L86.6327 68.6549C86.1689 68.6549 85.8396 68.6692 85.3729 68.6807L85.3099 68.5806C85.5104 67.8109 86.2806 64.7122 86.2806 63.9339C86.2806 63.1042 85.5734 63.0384 85.3357 63.0384C84.6571 63.0384 84.0387 63.5047 83.8097 63.7079L83.3945 65.5849C83.1568 66.6893 82.9793 67.459 82.7903 68.5806L82.7016 68.6406C82.2234 68.6549 81.8971 68.6549 81.4303 68.6807L81.356 68.592C81.8456 66.7408 82.5757 63.3417 82.7016 62.2973L82.776 62.2229C83.2828 62.1571 83.635 62.097 84.1132 62.0083L84.1904 62.097L84.0244 62.7379C84.3795 62.4346 85.1983 61.9683 86.1804 61.9683C86.4696 61.9683 87.2398 62.057 87.5519 62.8896C88.5998 62.057 89.5933 61.9683 89.9341 61.9683C90.8531 61.9683 91.6462 62.4747 91.6462 63.5047C91.6462 63.9339 91.5461 64.4003 91.4344 64.9039L91.2196 65.8595C90.9905 66.8524 90.8789 67.5705 90.6642 68.5805L90.5781 68.6549Z" fill="white"/>
<path d="M97.8706 68.655H97.5441C97.2292 68.655 97.003 68.6694 96.6881 68.6808L96.6251 68.6036L96.7109 68.1C96.1211 68.5807 95.4912 68.7295 94.8728 68.7295C93.3868 68.7295 92.5421 67.6222 92.5421 66.2745C92.5421 65.3446 92.9458 64.4748 93.1348 64.1487C94.1799 62.3089 96.0467 62.0972 97.3695 62.0972C97.9593 62.0972 99.2449 62.12 99.2449 62.12L99.3078 62.2087C98.2885 66.6522 98.1224 67.3704 97.9592 68.5806L97.8706 68.655ZM95.4397 67.748C95.832 67.748 96.4619 67.5706 96.8999 67.1186C97.2149 65.8339 97.4669 64.512 97.8105 63.0642C97.6559 63.0642 97.4668 63.0384 97.2664 63.0384C96.0582 63.0384 94.8356 63.419 94.2057 64.9154C94.1313 65.0928 93.928 65.5964 93.928 66.1886C93.928 67.0813 94.4577 67.748 95.4397 67.748" fill="white"/>
<path d="M105.155 68.6551C104.676 68.6551 104.347 68.6694 103.869 68.6923L103.817 68.6036C103.995 67.7596 104.172 67.1959 104.347 66.3633L104.651 64.927C104.688 64.741 104.788 64.3375 104.788 63.9971C104.788 63.0643 103.972 63.0271 103.717 63.0271C102.95 63.0271 102.346 63.482 102.054 63.6938C101.702 65.3189 101.338 66.9412 101.035 68.5807L100.946 68.6551C100.468 68.6551 100.141 68.6694 99.6603 68.6923L99.6002 68.6036C100.015 66.9413 100.808 63.442 100.92 62.309L101.009 62.2231C101.501 62.1573 101.853 62.0972 102.346 61.9942L102.406 62.0829L102.231 62.7238C103.153 62.02 104.058 61.957 104.347 61.957C104.725 61.957 106.177 62.02 106.177 63.6308C106.177 64.0457 106.011 64.8898 105.759 66.0629L105.57 66.9556C105.444 67.5593 105.332 67.9742 105.258 68.5807L105.155 68.6551Z" fill="white"/>
<path d="M108.241 68.6437C107.751 68.6437 107.396 68.6551 106.907 68.6809L106.844 68.6037C107.245 67.1444 108.141 62.9899 108.204 62.309L108.293 62.2231C108.811 62.1574 109.163 62.1087 109.664 62.0229L109.73 62.1087C109.664 62.0973 108.619 66.8898 108.33 68.5808L108.241 68.6437ZM110.042 60.3462C109.552 60.4091 109.212 60.4463 108.722 60.5236L108.645 60.4206C108.748 59.9914 108.822 59.6909 108.908 59.2646L109.023 59.1759C109.515 59.113 109.853 59.0729 110.334 58.9985L110.434 59.0872C110.32 59.5021 110.245 59.8168 110.145 60.2432L110.042 60.3462Z" fill="white"/>
<path d="M112.716 68.629C112.298 68.7292 111.969 68.7435 111.806 68.7435C110.609 68.7435 110.308 68.1255 110.308 67.496C110.308 67.0182 110.572 65.9109 110.938 64.3858L111.253 63.0783H111.001C110.761 63.0783 110.583 63.0783 110.346 63.0897L110.283 63.001C110.371 62.712 110.434 62.486 110.509 62.1712L110.597 62.1083C110.927 62.1197 111.139 62.1197 111.468 62.1197C111.62 61.5389 111.694 61.124 111.806 60.5461L111.897 60.4574C112.387 60.3572 112.728 60.2714 113.206 60.1455L113.269 60.217C113.169 60.5575 113.105 60.8121 113.017 61.1526L112.776 62.1197C113.295 62.1197 113.647 62.1197 114.151 62.0969L114.214 62.1827C114.099 62.486 114.036 62.712 113.947 63.0153L113.862 63.0897C113.381 63.0783 113.043 63.0783 112.565 63.0783L111.883 65.9223C111.82 66.1741 111.643 66.9552 111.643 67.207C111.643 67.6104 111.935 67.7478 112.261 67.7478C112.587 67.7478 112.891 67.6219 113.003 67.5847L113.068 67.6476C112.965 67.9738 112.891 68.2027 112.802 68.5288L112.716 68.629Z" fill="white"/>
<path d="M120.404 62.1973C118.892 64.6408 115.353 70.5692 114.875 71.6365L114.772 71.7137H114.205C113.956 71.7137 113.716 71.7137 113.464 71.7251L113.426 71.6364C113.793 71.0842 115.038 69.1586 115.339 68.6035C114.861 65.4705 114.394 62.3604 114.334 62.2087L114.42 62.12C114.901 62.12 115.242 62.0972 115.731 62.0571L115.831 62.12C115.894 62.8153 115.931 63.3017 116.02 63.9827L116.387 66.9555L117.609 64.7896C118.087 63.9455 118.566 63.09 119.018 62.183L119.118 62.1086C119.258 62.12 119.396 62.12 119.536 62.12C119.837 62.12 120.052 62.1086 120.341 62.0972L120.404 62.1973Z" fill="white"/>
<path d="M42.7715 5.1875H50.568V33.3132H42.7715V5.1875Z" fill="white"/>
<path d="M54.6594 33.3132V5.1875H76.099V10.6381H62.453V16.4435H75.0052V21.897H62.453V27.8569H76.099V33.3132H54.6594Z" fill="white"/>
<path d="M80.4653 33.3132V5.1875H101.899V10.6381H88.2618V16.4435H100.808V21.897H88.2618V27.8569H101.899V33.3132H80.4653Z" fill="white"/>
<path d="M106.266 33.3132V5.1875H127.705V10.6381H114.068V16.4435H126.614V21.897H114.068V27.8569H127.705V33.3132H106.266Z" fill="white"/>
<path d="M17.7644 5.50229C19.0099 4.5352 20.5732 5.33922 21.6183 6.22904C22.712 7.06452 23.8544 8.01158 24.8537 8.98153L25.0369 9.08453C27.8085 11.6568 30.3853 14.5122 32.5012 17.5337C32.8419 18.0602 33.1455 18.6553 32.9536 19.3534C32.2493 21.1159 30.8148 22.5208 29.5636 24.0573C26.8522 26.9757 23.9919 29.7969 20.788 32.0486C20.1409 32.5064 19.2676 32.927 18.4917 32.5665C16.1353 31.3333 14.1482 29.3133 12.0839 27.4736C9.69309 25.2561 7.29089 22.6753 5.47849 19.9743C5.20936 19.5966 5.13207 19.1274 5.14065 18.6295C5.37544 17.6968 6.01105 16.93 6.61804 16.1431C8.7597 13.4164 11.3824 10.827 14.0337 8.46364C14.0967 8.40358 14.2085 8.27481 14.3057 8.21186C15.4424 7.2276 16.5734 6.35779 17.7645 5.50229L17.7644 5.50229ZM21.4093 2.66397L20.0034 0.669703C19.8287 0.566698 19.6141 0.392161 19.4251 0.34066C19.0099 0.160396 18.5604 0.377868 18.2226 0.635364L15.6772 3.94865C11.5914 9.00441 6.7555 13.7254 1.47864 17.3449C1.06349 17.671 0.442115 17.9886 0.313275 18.5265C0.175938 19.0072 0.427791 19.4078 0.725612 19.7054C4.95167 22.6152 8.99163 26.0658 12.5849 30.0029C13.2234 30.6752 13.7417 31.339 14.3658 31.9685C15.4166 33.3676 16.6535 34.7754 17.6184 36.2775C17.9219 36.5951 17.9734 37.113 18.4487 37.2675C18.8181 37.3962 19.2762 37.4849 19.6312 37.2675L19.9834 36.9156C24.3555 30.7267 29.8986 25.1703 36.0917 20.6839C36.713 20.1288 37.8955 19.9228 37.9127 18.8956C37.8696 18.4235 37.5949 17.9543 37.1854 17.6968L37.0853 17.6795C33.8985 15.5136 30.9266 13.0616 28.1292 10.2833L25.037 7.05587C23.7829 5.66818 22.5689 4.12884 21.4093 2.6639L21.4093 2.66397ZM18.2226 6.26331C19.4939 5.39922 20.6334 6.60666 21.6183 7.29907C25.4264 10.3606 29.0197 13.8656 31.754 17.8255C32.1005 18.3348 32.2551 19.1273 31.9487 19.7053C31.2357 20.8898 30.2795 21.9685 29.3718 23.0672V23.1244C27.107 25.5336 24.7192 28.0085 22.1337 30.0457C20.8739 30.8154 19.7172 32.4892 18.0938 31.4505C14.3974 28.7496 10.8585 25.3934 7.86076 21.7939C7.35111 21.0014 6.558 20.3548 6.20298 19.4563C5.71049 18.2403 6.79852 17.3676 7.41983 16.4521C10.4777 12.6838 14.2772 8.98716 18.2226 6.26328V6.26331ZM19.0243 8.74682L18.6807 9.85124L16.9542 14.7983C17.3866 14.8412 17.922 14.7983 18.3457 14.8412V14.8813L18.0938 20.4749L18.1368 20.535C18.6894 20.5865 19.3794 20.6151 19.9434 20.5178V20.4291L19.7173 15.0071L19.7516 14.8239L21.2719 14.7981C20.5131 12.7953 19.7773 10.7724 19.0701 8.74668L19.0243 8.74682ZM13.1462 16.495C12.1784 16.9814 10.7525 17.7139 10.91 19.0415C11.1161 19.7654 11.9036 20.2346 12.5249 20.535C15.9607 22.0457 20.5218 22.0972 24.1494 20.9699C25.0456 20.6237 26.2481 20.123 26.4113 19.0272C26.403 18.1202 25.4435 17.5508 24.7535 17.2046V17.1616C24.994 17.0644 25.2689 16.9814 25.518 16.9528V16.9299C24.304 16.7125 23.1301 16.3949 21.9533 16.083C22.1795 16.6009 22.3428 17.1445 22.5317 17.6796C22.8867 17.568 23.2504 17.4821 23.6311 17.4306C24.2525 17.671 25.14 18.0172 25.2288 18.7926C25.2976 19.5165 24.5015 19.8712 24.0005 20.1631C21.3406 21.1302 18.3458 21.2246 15.5713 20.4921C14.804 20.2489 13.6987 19.9399 13.6042 18.9642C14.1483 17.6796 15.5541 17.4135 16.7309 17.1016C16.1267 16.7125 15.5112 16.3663 14.9271 15.9342C14.2943 15.9714 13.716 16.2461 13.1462 16.495V16.495ZM18.0594 22.0715C17.9564 24.0572 17.9306 25.8941 17.7846 27.8884C18.5691 27.957 19.4595 28.0257 20.2955 27.9055L20.0465 22.3548L20.0034 22.0915C19.3621 22.1144 18.758 22.1402 18.0594 22.0716" fill="white"/>
<path d="M25.3947 33.4307C24.699 33.4307 24.0806 33.9113 24.0806 34.7354C24.0806 35.5623 24.699 36.0458 25.3947 36.0458C26.0848 36.0458 26.7032 35.5623 26.7032 34.7354C26.7032 33.9113 26.0848 33.4307 25.3947 33.4307ZM25.3947 35.7425V35.7396C24.8765 35.7425 24.4585 35.339 24.4585 34.7353C24.4585 34.1373 24.8765 33.7368 25.3947 33.7368C25.9015 33.7368 26.331 34.1373 26.331 34.7353C26.331 35.339 25.9015 35.7425 25.3947 35.7425V35.7425ZM25.9788 34.4578C25.9788 34.1373 25.7669 34.0343 25.4004 34.0343H24.8765V35.4392H25.1771V34.8498H25.3203L25.6439 35.4392H26.0017L25.6381 34.8241C25.8299 34.8069 25.9788 34.7154 25.9788 34.4578V34.4578ZM25.4434 34.6095H25.1771V34.269H25.389C25.5035 34.269 25.6581 34.2804 25.6581 34.4264C25.6581 34.5837 25.5808 34.6095 25.4434 34.6095" fill="white"/>
</svg>
