<svg width="204" height="40" viewBox="0 0 204 40" fill="none" xmlns="http://www.w3.org/2000/svg">
<path d="M4.0264 19.9981C4.02556 18.0768 4.37096 16.1714 5.0464 14.3728L1.5253 12.3374C-0.688246 17.6809 -0.484526 23.7211 2.0842 28.903L5.57457 26.8872C4.55065 24.7355 4.02165 22.3813 4.0264 19.9981Z" fill="#ED1C24"/>
<path d="M18.0187 4.08563V0.0288086C12.0004 0.654806 6.58491 3.96233 3.27759 9.03155L6.76236 11.053C9.33891 7.21954 13.4399 4.68116 18.0187 4.08563Z" fill="#ED1C24"/>
<path d="M21.7578 35.9597V39.9998C27.3742 39.5233 32.531 36.7043 35.9652 32.2328L32.4469 30.2002C29.7761 33.4476 25.9376 35.516 21.7578 35.9597Z" fill="#ED1C24"/>
<path d="M35.9765 19.719C35.9784 22.1648 35.4181 24.5785 34.3389 26.773L37.8264 28.7888C40.5044 23.5174 40.7182 17.3316 38.4105 11.8877L34.8894 13.9203C35.6087 15.7689 35.9773 17.7353 35.9765 19.719Z" fill="#ED1C24"/>
<path d="M33.2713 10.8956L36.7672 8.87693C33.3766 3.78534 27.8513 0.517518 21.7578 0V4.03725C26.4115 4.53464 30.6162 7.03947 33.2713 10.8956Z" fill="#ED1C24"/>
<path d="M7.58097 30.0635L4.07104 32.0877C7.42671 36.541 12.4823 39.3972 18.0269 39.9721V35.9125C13.9209 35.3849 10.1776 33.2891 7.58097 30.0635Z" fill="#ED1C24"/>
<path d="M20.5588 26.5886C17.5703 26.5903 14.9532 24.5828 14.1794 21.695C13.4056 18.8068 14.6676 15.759 17.2562 14.2646C19.8448 12.7705 23.1138 13.2027 25.2256 15.3184L27.6541 12.8888C23.7649 8.99466 17.4669 8.95999 13.535 12.811C9.6034 16.6621 9.50448 22.9626 13.3134 26.9353C17.1221 30.9082 23.4181 31.0715 27.4277 27.3015L24.9993 24.8719C23.7853 25.9788 22.2014 26.5914 20.5588 26.5886Z" fill="#ED1C24"/>
<path d="M50.4565 10.2498C50.4565 4.19912 53.3455 1.17389 59.1238 1.17389C60.3621 1.16998 61.5945 1.34132 62.7831 1.68262C63.9591 2.02363 64.5472 2.4485 64.5472 2.95722C64.5472 3.32982 64.3444 3.82289 63.9383 4.43587C63.5323 5.04885 63.1729 5.35465 62.8599 5.35269C62.6715 5.30461 62.4894 5.23613 62.3164 5.14864C61.2843 4.71483 60.1689 4.50603 59.047 4.5365C56.0536 4.5365 54.5568 6.46154 54.5568 10.3113C54.5568 14.1611 56.0365 16.0862 58.9958 16.0862C60.2321 16.0879 61.4542 15.8265 62.5782 15.3203C62.7919 15.2096 63.0184 15.1241 63.2526 15.0659C63.6168 15.0659 63.9631 15.3594 64.2911 15.9464C64.5566 16.35 64.7251 16.8082 64.7834 17.2853C64.7834 17.9654 64.1432 18.4928 62.8627 18.8674C61.6082 19.2366 60.3055 19.425 58.9958 19.4264C56.0897 19.4264 53.9402 18.681 52.548 17.1903C51.1557 15.6996 50.4585 13.386 50.4565 10.2498Z" fill="white"/>
<path d="M66.9627 18.4562V10.3754C66.9877 9.48008 66.9353 8.58422 66.8062 7.69759C66.735 7.39543 66.683 7.08908 66.6497 6.78077C66.6497 6.5088 67.0005 6.30475 67.7025 6.16863C68.2189 6.05514 68.7445 5.98694 69.2732 5.96458C69.5076 5.94445 69.7435 5.97911 69.9618 6.0652C70.087 6.14095 70.186 6.25192 70.2463 6.38385C70.3146 6.5292 70.3687 6.6466 70.4028 6.74164C70.4529 6.89621 70.4919 7.05414 70.5195 7.21402C70.5622 7.43484 70.5935 7.57181 70.6105 7.62212C71.337 6.33075 72.28 5.68506 73.4389 5.68506C73.9929 5.68506 74.3779 5.82482 74.5942 6.10434C74.8079 6.37854 74.9222 6.71508 74.9185 7.06029C74.9023 7.51478 74.8241 7.96509 74.6852 8.39918C74.5296 8.9339 74.3401 9.2014 74.1161 9.2014C73.9309 9.1877 73.7476 9.15416 73.5698 9.10077C73.3504 9.03844 73.1236 9.0035 72.8954 8.99735C72.0304 8.99735 71.339 9.42222 70.8211 10.272V18.4534C70.8211 18.9977 70.3024 19.2696 69.2646 19.2696H68.539C67.4882 19.2696 66.9627 18.9985 66.9627 18.4562Z" fill="white"/>
<path d="M75.1094 6.39826C75.1094 6.02566 75.6366 5.83922 76.6914 5.83922H77.5223C78.3703 5.83922 78.8548 6.01811 78.9763 6.3759L80.5072 11.0886C80.6628 11.5638 80.9047 12.5887 81.2328 14.1633H81.3352C81.6824 12.5309 81.9242 11.5059 82.0608 11.0886L83.5917 6.3731C83.7132 6.01727 84.1978 5.83838 85.0457 5.83643H85.6689C86.7066 5.83643 87.2253 6.02286 87.2253 6.39546C87.2196 6.55087 87.1937 6.70489 87.1485 6.85387L81.2072 23.9464C81.0686 24.3022 80.584 24.4811 79.7532 24.4831H79.3121C78.2744 24.4831 77.7556 24.3042 77.7556 23.9464C77.7565 23.7882 77.7912 23.632 77.8581 23.488L79.4999 19.2198L75.2317 6.85667C75.1751 6.70852 75.1338 6.55479 75.1094 6.39826Z" fill="white"/>
<path d="M89.1489 23.6668V10.3757C89.1743 9.48044 89.1219 8.58459 88.9924 7.69795C88.9213 7.3958 88.8689 7.08972 88.8359 6.78113C88.8359 6.50916 89.1859 6.30512 89.8859 6.16899C90.4024 6.05551 90.9279 5.9873 91.4566 5.96494C91.6911 5.94482 91.927 5.97948 92.1452 6.06557C92.2701 6.1416 92.3691 6.25257 92.4297 6.38422C92.4886 6.50441 92.541 6.6274 92.5862 6.75318C92.6332 6.90384 92.6722 7.05674 92.7029 7.21159C92.7464 7.4148 92.7769 7.54226 92.794 7.59453C93.1198 7.01956 93.6001 6.54382 94.1825 6.2193C94.8159 5.85677 95.5381 5.67117 96.2711 5.68263C97.7072 5.68263 98.8747 6.29002 99.7739 7.50509C100.673 8.72015 101.123 10.3973 101.123 12.5364C101.123 14.67 100.643 16.3527 99.6828 17.5845C98.723 18.8163 97.378 19.4321 95.648 19.4321C94.7021 19.4545 93.7742 19.1772 93.0017 18.6411V23.6724C93.0017 24.2166 92.483 24.4886 91.4452 24.4886H90.7196C89.6725 24.4774 89.1489 24.2035 89.1489 23.6668ZM94.8057 16.4525C96.4142 16.4525 97.2186 15.1731 97.2186 12.6147C97.2186 10.0562 96.5187 8.7741 95.1187 8.76851C94.2878 8.76851 93.5785 9.26969 92.9903 10.2723V15.9577C93.5426 16.2708 94.168 16.4374 94.8057 16.4413V16.4525Z" fill="white"/>
<path d="M108.976 16.4413L109.676 16.3379C109.9 16.3379 110.089 16.5886 110.245 17.0898C110.37 17.44 110.449 17.8045 110.478 18.1743C110.478 19.0073 109.648 19.4238 107.989 19.4238C105.462 19.4238 104.199 18.0477 104.199 15.2953V8.86639H103.783C103.263 8.86639 103.003 8.44152 103.003 7.59178V7.1753C103.003 6.32557 103.263 5.9007 103.783 5.9007H104.199L104.54 3.46609C104.627 2.92187 105.095 2.6499 105.943 2.6499H106.748C107.613 2.6499 108.046 2.92187 108.046 3.46609V5.88672H109.317C109.837 5.88672 110.097 6.31159 110.097 7.16132V7.59458C110.097 8.44431 109.837 8.86918 109.317 8.86918H108.04V15.3456C108.04 16.076 108.352 16.4413 108.976 16.4413Z" fill="white"/>
<path d="M113.776 17.6518C112.704 16.4702 112.168 14.7663 112.168 12.5394C112.168 10.3125 112.704 8.61774 113.776 7.45495C114.848 6.28293 116.414 5.69678 118.474 5.69678C120.534 5.69678 122.095 6.28293 123.158 7.45495C124.214 8.6197 124.743 10.3153 124.743 12.5422C124.743 14.7691 124.21 16.473 123.146 17.6546C122.082 18.8361 120.521 19.4267 118.463 19.4267C116.404 19.4267 114.842 18.835 113.776 17.6518ZM116.053 12.5534C116.053 15.1453 116.853 16.4415 118.454 16.4415C120.055 16.4415 120.856 15.1453 120.856 12.5534C120.856 9.96139 120.055 8.66526 118.454 8.66526C116.853 8.66526 116.055 9.96139 116.061 12.5534H116.053Z" fill="white"/>
<path d="M132.2 1.88667C132.2 1.51408 132.728 1.32764 133.783 1.32764H134.636C135.501 1.32764 136.011 1.57361 136.167 2.06556L139.96 13.9954H140.065L143.958 2.06556C144.131 1.57361 144.641 1.32764 145.489 1.32764H146.294C147.332 1.32764 147.85 1.51408 147.85 1.88667C147.847 2.04236 147.821 2.19666 147.774 2.34508L142.168 18.736C142.047 19.0919 141.562 19.2707 140.714 19.2727H139.365C138.517 19.2727 138.033 19.0938 137.911 18.736L132.306 2.34508C132.255 2.19638 132.219 2.04264 132.2 1.88667Z" fill="white"/>
<path d="M149.171 15.7036C149.167 15.267 149.211 14.8313 149.302 14.4039C149.418 13.9502 149.621 13.5226 149.9 13.1433C150.221 12.6804 150.648 12.2974 151.146 12.0252C152.373 11.3116 154.198 10.9546 156.621 10.9546V10.1161C156.621 9.14698 155.946 8.66258 154.597 8.66258C153.637 8.66397 152.689 8.87305 151.82 9.27472C151.646 9.36249 151.463 9.43097 151.274 9.47877C151.014 9.47877 150.725 9.21518 150.406 8.68773C150.145 8.32212 149.979 7.89865 149.925 7.45506C149.925 6.99665 150.405 6.58855 151.365 6.23077C152.495 5.84587 153.686 5.66418 154.882 5.69409C158.602 5.69409 160.462 7.11321 160.462 9.95115V14.7225C160.452 15.6083 160.504 16.4936 160.618 17.3724L160.775 18.4178C160.775 18.6897 160.425 18.8938 159.725 19.0299C159.208 19.1437 158.683 19.2119 158.154 19.234C157.92 19.2541 157.684 19.2197 157.466 19.1333C157.336 19.0517 157.236 18.9312 157.181 18.7895C157.113 18.6274 157.059 18.51 157.025 18.4066C156.973 18.2439 156.934 18.0776 156.908 17.909C156.865 17.6714 156.834 17.5261 156.817 17.4758C156.434 18.0823 155.873 18.5614 155.209 18.851C154.529 19.2038 153.773 19.3952 153.004 19.41C151.676 19.41 150.703 19.0699 150.085 18.3898C149.466 17.7097 149.162 16.8142 149.171 15.7036ZM152.987 15.3207C152.973 15.6282 153.097 15.9261 153.325 16.1369C153.612 16.3608 153.974 16.4695 154.338 16.4416C154.818 16.4312 155.282 16.2708 155.662 15.9832C156.08 15.693 156.412 15.2969 156.621 14.8371V13.4395C154.198 13.4359 152.987 14.0629 152.987 15.3207Z" fill="white"/>
<path d="M168.634 16.4413L169.334 16.3378C169.558 16.3378 169.747 16.5886 169.903 17.0897C170.028 17.44 170.106 17.8045 170.136 18.1743C170.136 19.0072 169.305 19.4237 167.644 19.4237C165.117 19.4237 163.854 18.0476 163.854 15.2952V0.816193C163.854 0.271971 164.372 0 165.41 0H166.136C167.173 0 167.692 0.271971 167.692 0.816193V15.3511C167.703 16.0779 168.017 16.4413 168.634 16.4413Z" fill="white"/>
<path d="M176.342 16.4413L177.042 16.3378C177.266 16.3378 177.456 16.5886 177.611 17.0897C177.736 17.44 177.815 17.8045 177.845 18.1743C177.845 19.0072 177.014 19.4237 175.352 19.4237C172.825 19.4237 171.563 18.0476 171.565 15.2952V0.816193C171.565 0.271971 172.083 0 173.121 0H173.847C174.884 0 175.403 0.271971 175.403 0.816193V15.3511C175.407 16.0779 175.72 16.4413 176.342 16.4413Z" fill="white"/>
<path d="M180.403 17.6267C179.287 16.4284 178.73 14.6993 178.73 12.4388C178.73 10.1784 179.287 8.48729 180.403 7.36559C181.518 6.24751 183.049 5.68848 184.995 5.68848C186.942 5.68848 188.364 6.30062 189.264 7.52491C190.172 8.7492 190.627 10.3332 190.627 12.2767C190.627 12.4799 190.449 12.7818 190.094 13.1824C189.74 13.5829 189.476 13.7825 189.303 13.7805H182.699C182.785 14.7496 183.078 15.4381 183.581 15.8462C184.127 16.2688 184.808 16.486 185.502 16.4583C186.264 16.4614 187.02 16.3278 187.733 16.0642C188.442 15.8014 188.806 15.6701 188.823 15.6701C189.082 15.6701 189.372 15.9208 189.69 16.422C189.952 16.77 190.117 17.1781 190.171 17.6071C190.171 18.1662 189.631 18.6126 188.549 18.946C187.565 19.2619 186.537 19.4296 185.502 19.4436C183.218 19.4304 181.518 18.825 180.403 17.6267ZM186.905 11.2397C186.937 10.5842 186.775 9.93352 186.438 9.36693C186.133 8.90238 185.597 8.63432 185.035 8.66535C183.755 8.66535 182.976 9.52347 182.699 11.2397H186.905Z" fill="white"/>
<path d="M191.896 6.39826C191.896 6.02566 192.423 5.83922 193.478 5.83922H194.308C195.156 5.83922 195.641 6.01811 195.762 6.3759L197.282 11.0886C197.438 11.5638 197.679 12.5887 198.008 14.1633H198.11C198.457 12.5309 198.699 11.5059 198.836 11.0886L200.366 6.3731C200.488 6.01727 200.973 5.83838 201.82 5.83643H202.444C203.481 5.83643 204 6.02286 204 6.39546C203.994 6.55087 203.968 6.70489 203.923 6.85387L197.985 23.9464C197.846 24.3022 197.362 24.4811 196.531 24.4831H196.09C195.052 24.4831 194.533 24.3042 194.533 23.9464C194.534 23.7882 194.569 23.632 194.636 23.488L196.272 19.2309L192.004 6.86785C191.951 6.71551 191.915 6.55814 191.896 6.39826Z" fill="white"/>
<path d="M55.1382 28.4657L57.6844 35.5279L60.217 28.4657H62.8993V38.203H60.8501V35.5413L61.0543 30.9468L58.3788 38.203H56.9764L54.3076 30.9535L54.5119 35.5413V38.203H52.4695V28.4657H55.1382Z" fill="white"/>
<path d="M67.944 38.3367C66.8638 38.3367 65.9833 38.0112 65.3025 37.3603C64.6263 36.7094 64.2881 35.8422 64.2881 34.7588V34.5715C64.2881 33.8448 64.4311 33.1961 64.717 32.6254C65.003 32.0503 65.4069 31.6089 65.9288 31.3013C66.4553 30.9892 67.0544 30.8331 67.7261 30.8331C68.7337 30.8331 69.5257 31.1452 70.1021 31.7694C70.6831 32.3936 70.9735 33.2786 70.9735 34.4244V35.2136H66.2829C66.3464 35.6862 66.537 36.0651 66.8547 36.3505C67.177 36.6358 67.5832 36.7785 68.0734 36.7785C68.8313 36.7785 69.4236 36.5087 69.8502 35.9693L70.817 37.0326C70.522 37.4428 70.1226 37.7638 69.6188 37.9956C69.115 38.223 68.5567 38.3367 67.944 38.3367ZM67.7193 32.398C67.329 32.398 67.0113 32.5273 66.7662 32.7859C66.5257 33.0445 66.3714 33.4146 66.3033 33.8961H69.0401V33.7423C69.031 33.3143 68.913 32.9843 68.6861 32.7525C68.4591 32.5162 68.1369 32.398 67.7193 32.398Z" fill="white"/>
<path d="M73.9418 30.9669L74.0031 31.7761C74.525 31.1474 75.2308 30.8331 76.1204 30.8331C77.069 30.8331 77.7202 31.2009 78.0743 31.9366C78.5917 31.2009 79.3292 30.8331 80.2869 30.8331C81.0857 30.8331 81.6802 31.0627 82.0705 31.522C82.4609 31.9767 82.656 32.6633 82.656 33.5818V38.203H80.6817V33.5884C80.6817 33.1783 80.6 32.8796 80.4366 32.6923C80.2732 32.5006 79.985 32.4047 79.572 32.4047C78.982 32.4047 78.5735 32.6812 78.3466 33.234L78.3534 38.203H76.3859V33.5951C76.3859 33.176 76.3019 32.8729 76.134 32.6856C75.9661 32.4984 75.6801 32.4047 75.2762 32.4047C74.7179 32.4047 74.314 32.6321 74.0644 33.0869V38.203H72.0969V30.9669H73.9418Z" fill="white"/>
<path d="M90.812 34.6518C90.812 35.811 90.5601 36.7161 90.0563 37.367C89.5525 38.0135 88.849 38.3367 87.9458 38.3367C87.147 38.3367 86.5093 38.0358 86.0328 37.4339L85.9443 38.203H84.1742V27.9307H86.1417V31.6156C86.5956 31.0939 87.1924 30.8331 87.9322 30.8331C88.8309 30.8331 89.5343 31.1586 90.0427 31.8095C90.5555 32.456 90.812 33.3678 90.812 34.5448V34.6518ZM88.8445 34.5114C88.8445 33.7802 88.7265 33.2474 88.4905 32.913C88.2545 32.5742 87.9027 32.4047 87.4352 32.4047C86.8089 32.4047 86.3777 32.6566 86.1417 33.1604V36.0161C86.3823 36.5243 86.818 36.7785 87.4488 36.7785C88.0843 36.7785 88.5018 36.4708 88.7015 35.8556C88.7968 35.5613 88.8445 35.1132 88.8445 34.5114Z" fill="white"/>
<path d="M95.421 38.3367C94.3408 38.3367 93.4603 38.0112 92.7795 37.3603C92.1032 36.7094 91.7651 35.8422 91.7651 34.7588V34.5715C91.7651 33.8448 91.9081 33.1961 92.194 32.6254C92.4799 32.0503 92.8839 31.6089 93.4058 31.3013C93.9323 30.9892 94.5314 30.8331 95.2031 30.8331C96.2107 30.8331 97.0027 31.1452 97.5791 31.7694C98.16 32.3936 98.4505 33.2786 98.4505 34.4244V35.2136H93.7598C93.8234 35.6862 94.014 36.0651 94.3317 36.3505C94.6539 36.6358 95.0602 36.7785 95.5503 36.7785C96.3083 36.7785 96.9006 36.5087 97.3272 35.9693L98.2939 37.0326C97.9989 37.4428 97.5995 37.7638 97.0957 37.9956C96.5919 38.223 96.0337 38.3367 95.421 38.3367ZM95.1963 32.398C94.806 32.398 94.4883 32.5273 94.2432 32.7859C94.0026 33.0445 93.8483 33.4146 93.7803 33.8961H96.5171V33.7423C96.508 33.3143 96.39 32.9843 96.163 32.7525C95.9361 32.5162 95.6139 32.398 95.1963 32.398Z" fill="white"/>
<path d="M103.713 32.7792C103.445 32.7436 103.209 32.7257 103.005 32.7257C102.261 32.7257 101.773 32.9732 101.541 33.4681V38.203H99.5738V30.9669H101.432L101.487 31.8296C101.882 31.1653 102.429 30.8331 103.128 30.8331C103.345 30.8331 103.55 30.8621 103.74 30.9201L103.713 32.7792Z" fill="white"/>
</svg>
