<svg width="224" height="58" viewBox="0 0 224 58" fill="none" xmlns="http://www.w3.org/2000/svg">
<g clip-path="url(#clip0)">
<path d="M56.2 19.2002H69.3V21.4002H63.7999V37.5002H61.5V21.4002H56.2V19.2002Z" fill="white"/>
<path d="M73.3 24.1001C77.9 24.1001 79.3 25.8001 79.3 31.1001C79.3 36.0001 77.9 37.7001 73.3 37.7001C68.7 37.7001 67.3 35.9001 67.3 31.1001C67.3 25.6001 68.8 24.1001 73.3 24.1001ZM73.3 35.5001C75.8 35.5001 77 35.2001 77 31.0001C77 26.5001 76.1 26.2001 73.3 26.2001C70.7 26.2001 69.6 26.6001 69.6 31.0001C69.6 35.2001 70.8 35.5001 73.3 35.5001Z" fill="white"/>
<path d="M82.1 24.2H83.9L84.4 25.6C85.1 25.1 87.5 24 89.1 24C92.7 24 93.5 27.4 93.5 30.7C93.5 34.2 92.9 37.6 89.1 37.6C88 37.6 85.9 37.3 84.3 36.6V44.1H82V24.2H82.1ZM88.9 35.6C90.4 35.6 91.2 34.7 91.2 30.8C91.2 27.6 90.4 26.2 88.9 26.2C87.1 26.2 85.6 26.7 84.4 27.3V35C85.9 35.4 87.1 35.6 88.9 35.6Z" fill="white"/>
<path d="M96.9 19.2002H104.1C109.7 19.2002 110.7 24.5002 110.7 28.4002C110.7 32.9002 108.9 37.5002 104.1 37.5002H96.9V19.2002ZM104 35.2002C107.1 35.2002 108.3 32.1002 108.3 28.3002C108.3 23.1002 106.7 21.3002 104 21.3002H99.2V35.2002H104Z" fill="white"/>
<path d="M118.5 24.1001C121.9 24.1001 123.8 24.4001 123.8 28.8001C123.8 30.8001 122.7 31.9001 120.2 31.9001H115C115 34.8001 115.7 35.4001 117.6 35.4001C119.9 35.4001 121.7 35.4001 123.6 35.1001V36.8001C121.6 37.4001 119.2 37.5001 117.1 37.5001C113.7 37.5001 112.7 35.8001 112.7 30.7001C112.6 24.9001 114.3 24.1001 118.5 24.1001ZM120 30.0001C121 30.0001 121.5 29.6001 121.5 28.8001C121.5 26.4001 121.1 26.2001 118.6 26.2001C116 26.2001 115 26.2001 115 30.0001H120Z" fill="white"/>
<path d="M127.8 24.2002L131.7 34.4002L135.6 24.2002H138.1L132.8 37.5002H130.4L125.3 24.2002H127.8Z" fill="white"/>
<path d="M145.4 24.1001C148.8 24.1001 150.7 24.4001 150.7 28.8001C150.7 30.8001 149.6 31.9001 147.1 31.9001H141.8C141.8 34.8001 142.5 35.4001 144.4 35.4001C146.7 35.4001 148.5 35.4001 150.4 35.1001V36.8001C148.4 37.4001 146 37.5001 143.9 37.5001C140.5 37.5001 139.5 35.8001 139.5 30.7001C139.5 24.9001 141.2 24.1001 145.4 24.1001ZM146.9 30.0001C147.9 30.0001 148.4 29.6001 148.4 28.8001C148.4 26.4001 148 26.2001 145.5 26.2001C142.9 26.2001 141.9 26.2001 141.9 30.0001H146.9Z" fill="white"/>
<path d="M153.3 17.8999H155.6V32.5999C155.6 34.6999 156.2 35.1999 157 35.3999C157 35.3999 158.9 35.8999 159.1 35.8999V37.4999H156.7C154.7 37.4999 153.3 36.2999 153.3 32.7999V17.8999Z" fill="white"/>
<path d="M166 24.1001C170.6 24.1001 172 25.8001 172 31.1001C172 36.0001 170.6 37.7001 166 37.7001C161.4 37.7001 160 35.9001 160 31.1001C160 25.6001 161.6 24.1001 166 24.1001ZM166 35.5001C168.5 35.5001 169.7 35.2001 169.7 31.0001C169.7 26.5001 168.8 26.2001 166 26.2001C163.4 26.2001 162.3 26.6001 162.3 31.0001C162.4 35.2001 163.6 35.5001 166 35.5001Z" fill="white"/>
<path d="M174.9 24.2H176.7L177.2 25.6C177.9 25.1 180.3 24 181.9 24C185.5 24 186.3 27.4 186.3 30.7C186.3 34.2 185.7 37.6 181.9 37.6C180.8 37.6 178.7 37.3 177.1 36.6V44.1H174.8V24.2H174.9ZM181.6 35.6C183.1 35.6 183.9 34.7 183.9 30.8C183.9 27.6 183.1 26.2 181.6 26.2C179.8 26.2 178.3 26.7 177.1 27.3V35C178.7 35.4 179.9 35.6 181.6 35.6Z" fill="white"/>
<path d="M194.6 24.1001C198 24.1001 199.9 24.4001 199.9 28.8001C199.9 30.8001 198.8 31.9001 196.3 31.9001H191C191 34.8001 191.7 35.4001 193.6 35.4001C195.9 35.4001 197.7 35.4001 199.6 35.1001V36.8001C197.6 37.4001 195.2 37.5001 193.1 37.5001C189.7 37.5001 188.7 35.8001 188.7 30.7001C188.7 24.9001 190.4 24.1001 194.6 24.1001ZM196.1 30.0001C197.1 30.0001 197.6 29.6001 197.6 28.8001C197.6 26.4001 197.2 26.2001 194.7 26.2001C192.1 26.2001 191.1 26.2001 191.1 30.0001H196.1Z" fill="white"/>
<path d="M202.5 24.2001H204.3L204.9 25.9001C206.3 25.0001 207.6 24.1001 209.6 24.1001C210.3 24.1001 211.1 24.1001 211.4 24.3001V26.6001C211.1 26.5001 210.2 26.5001 209.5 26.5001C207.6 26.5001 206.6 26.9001 204.9 28.0001V37.7001H202.6V24.2001H202.5Z" fill="white"/>
<path d="M213 27.5001C213 25.4001 213.9 24.1001 216.5 24.1001C218.2 24.1001 222 24.3001 223.3 24.6001V26.2001H216.8C215.4 26.2001 215.3 26.7001 215.3 27.5001V28.5001C215.3 29.7001 215.9 29.8001 216.8 29.8001H220.6C222.9 29.8001 224 31.2001 224 33.1001V34.4001C224 37.1001 222.3 37.7001 220.7 37.7001C219.1 37.7001 214.5 37.4001 213.6 37.2001V35.6001H220.4C220.5 35.6001 221.7 35.7001 221.7 34.4001V33.3001C221.7 32.5001 221.4 32.1001 220.4 32.1001H216.6C214.2 32.1001 213 31.3001 213 28.7001V27.5001Z" fill="white"/>
<path fill-rule="evenodd" clip-rule="evenodd" d="M36 9.6001H3.3C1.5 9.6001 0 10.8001 0 12.3001V45.7001C0 47.2001 1.5 48.4001 3.3 48.4001H36C37.8 48.4001 39.3 47.2001 39.3 45.7001V12.3001C39.4 10.8001 37.9 9.6001 36 9.6001Z" fill="white"/>
<path fill-rule="evenodd" clip-rule="evenodd" d="M28.4 20.5999C28.4 20.5999 26.2 17.7999 21.7 17.3999H6.19995V22.3999H10.2L10.1 38.8999H15.8V22.2999H21.7C21.7 22.2999 24.1 22.5999 25 24.3999C25 24.3999 26.9 27.7999 25 31.7999C25 31.7999 24.1 33.4999 22.2 33.6999L17.5 33.7999V38.7999H21.6C21.6 38.7999 23.6 38.7999 25.5 37.9999C26.6 37.4999 27.9 36.6999 28.6 35.5999C28.5 35.5999 34.7 28.5999 28.4 20.5999Z" fill="#0B0B0B"/>
</g>
<defs>
<clipPath id="clip0">
<rect width="224" height="58" fill="white"/>
</clipPath>
</defs>
</svg>
