<svg width="130" height="17" viewBox="0 0 130 17" fill="none" xmlns="http://www.w3.org/2000/svg">
<path d="M13.8686 1.28149V12.7176H10.5658V6.40744L8.32456 12.7176H5.56094L3.30286 6.35878V12.7176H0V1.28149H3.99377L6.97645 8.71088L9.89173 1.28149H13.8686Z" fill="white"/>
<path d="M19.0516 3.82824V5.6937H22.8432V8.11069H19.0516V10.1708H23.3487V12.7176H15.7488V1.28149H23.3487V3.82824H19.0516Z" fill="white"/>
<path d="M33.9288 1.28149V3.81202H30.7608V12.7176H27.4579V3.81202H24.3236V1.28149H33.9288Z" fill="white"/>
<path d="M41.1668 12.7176L38.8076 8.5H38.4537V12.7176H35.1508V1.28149H40.3579C41.3128 1.28149 42.1217 1.4437 42.7845 1.76813C43.4473 2.08174 43.9472 2.51972 44.2843 3.08206C44.6213 3.63359 44.7898 4.25541 44.7898 4.94752C44.7898 5.72614 44.5651 6.41285 44.1157 7.00763C43.6776 7.5916 43.0316 8.00795 42.1778 8.25668L44.8572 12.7176H41.1668ZM38.4537 6.32634H40.0883C40.5376 6.32634 40.8747 6.2236 41.0993 6.01813C41.324 5.81266 41.4364 5.51527 41.4364 5.12595C41.4364 4.75827 41.3184 4.47169 41.0825 4.26622C40.8578 4.04994 40.5264 3.94179 40.0883 3.94179H38.4537V6.32634Z" fill="white"/>
<path d="M49.5947 1.28149V12.7176H46.2918V1.28149H49.5947Z" fill="white"/>
<path d="M58.907 12.7176L56.5984 9.4895L54.6268 12.7176H50.8689L54.7279 6.86164L50.7341 1.28149H54.6268L56.868 4.42843L58.789 1.28149H62.5469L58.7385 7.04008L62.7996 12.7176H58.907Z" fill="white"/>
<path d="M65.5339 12.8473C64.9497 12.8473 64.4779 12.6959 64.1184 12.3931C63.7701 12.0795 63.596 11.6848 63.596 11.209C63.596 10.7331 63.7701 10.3384 64.1184 10.0248C64.4779 9.7112 64.9497 9.55439 65.5339 9.55439C66.1069 9.55439 66.5675 9.7112 66.9157 10.0248C67.2752 10.3384 67.455 10.7331 67.455 11.209C67.455 11.674 67.2752 12.0633 66.9157 12.3769C66.5675 12.6905 66.1069 12.8473 65.5339 12.8473Z" fill="white"/>
<path d="M68.6477 7.04008C68.6477 5.92621 68.9061 4.9313 69.4229 4.05534C69.9509 3.16857 70.6643 2.48187 71.563 1.99523C72.473 1.49777 73.4897 1.24905 74.6131 1.24905C75.9275 1.24905 77.079 1.57347 78.0676 2.22233C79.0562 2.87118 79.7471 3.76877 80.1403 4.91508H77.4273C77.1576 4.37436 76.7757 3.96883 76.2814 3.69847C75.7983 3.42812 75.2366 3.29294 74.5962 3.29294C73.911 3.29294 73.2987 3.44975 72.7594 3.76336C72.2314 4.06616 71.8158 4.49873 71.5125 5.06107C71.2204 5.62341 71.0743 6.28308 71.0743 7.04008C71.0743 7.78626 71.2204 8.44593 71.5125 9.01908C71.8158 9.58142 72.2314 10.0194 72.7594 10.333C73.2987 10.6358 73.911 10.7872 74.5962 10.7872C75.2366 10.7872 75.7983 10.652 76.2814 10.3817C76.7757 10.1005 77.1576 9.68957 77.4273 9.14886H80.1403C79.7471 10.306 79.0562 11.209 78.0676 11.8578C77.0902 12.4959 75.9387 12.8149 74.6131 12.8149C73.4897 12.8149 72.473 12.5716 71.563 12.0849C70.6643 11.5875 69.9509 10.9008 69.4229 10.0248C68.9061 9.14886 68.6477 8.15394 68.6477 7.04008Z" fill="white"/>
<path d="M81.5487 8.19179C81.5487 7.2834 81.7341 6.47774 82.1048 5.77481C82.4868 5.07188 82.9979 4.53117 83.6383 4.15267C84.2899 3.77417 85.0145 3.58492 85.8121 3.58492C86.5086 3.58492 87.1153 3.7201 87.6321 3.99046C88.1601 4.26081 88.5814 4.60146 88.8959 5.0124V3.73092H91.2719V12.7176H88.8959V11.4036C88.5926 11.8254 88.1713 12.1768 87.6321 12.458C87.1041 12.7284 86.4918 12.8635 85.7953 12.8635C85.0089 12.8635 84.2899 12.6689 83.6383 12.2796C82.9979 11.8903 82.4868 11.3441 82.1048 10.6412C81.7341 9.92748 81.5487 9.111 81.5487 8.19179ZM88.8959 8.22424C88.8959 7.67271 88.7836 7.20229 88.5589 6.81298C88.3342 6.41285 88.0309 6.11005 87.6489 5.90458C87.267 5.68829 86.8569 5.58015 86.4188 5.58015C85.9806 5.58015 85.5762 5.68289 85.2055 5.88836C84.8347 6.09383 84.5314 6.39663 84.2955 6.79676C84.0708 7.18607 83.9585 7.65108 83.9585 8.19179C83.9585 8.73251 84.0708 9.20833 84.2955 9.61928C84.5314 10.0194 84.8347 10.3276 85.2055 10.5439C85.5874 10.7602 85.9919 10.8683 86.4188 10.8683C86.8569 10.8683 87.267 10.7656 87.6489 10.5601C88.0309 10.3438 88.3342 10.041 88.5589 9.65172C88.7836 9.25159 88.8959 8.77576 88.8959 8.22424Z" fill="white"/>
<path d="M95.9353 5.02863C96.2386 4.61768 96.6543 4.27704 97.1823 4.00668C97.7215 3.72551 98.3338 3.58492 99.0191 3.58492C99.8167 3.58492 100.536 3.77417 101.176 4.15267C101.828 4.53117 102.339 5.07188 102.71 5.77481C103.091 6.46692 103.282 7.27258 103.282 8.19179C103.282 9.111 103.091 9.92748 102.71 10.6412C102.339 11.3441 101.828 11.8903 101.176 12.2796C100.536 12.6689 99.8167 12.8635 99.0191 12.8635C98.3338 12.8635 97.7272 12.7284 97.1992 12.458C96.6824 12.1877 96.2611 11.847 95.9353 11.4361V17H93.5761V3.73092H95.9353V5.02863ZM100.873 8.19179C100.873 7.65108 100.755 7.18607 100.519 6.79676C100.294 6.39663 99.9909 6.09383 99.6089 5.88836C99.2382 5.68289 98.8337 5.58015 98.3956 5.58015C97.9687 5.58015 97.5643 5.68829 97.1823 5.90458C96.8116 6.11005 96.5082 6.41285 96.2723 6.81298C96.0476 7.2131 95.9353 7.68352 95.9353 8.22424C95.9353 8.76495 96.0476 9.23537 96.2723 9.6355C96.5082 10.0356 96.8116 10.3438 97.1823 10.5601C97.5643 10.7656 97.9687 10.8683 98.3956 10.8683C98.8337 10.8683 99.2382 10.7602 99.6089 10.5439C99.9909 10.3276 100.294 10.0194 100.519 9.61928C100.755 9.21915 100.873 8.74332 100.873 8.19179Z" fill="white"/>
<path d="M106.193 2.66031C105.778 2.66031 105.429 2.53594 105.148 2.28721C104.879 2.02767 104.744 1.70865 104.744 1.33015C104.744 0.951654 104.879 0.638041 105.148 0.389313C105.429 0.129771 105.778 0 106.193 0C106.609 0 106.952 0.129771 107.221 0.389313C107.502 0.638041 107.643 0.951654 107.643 1.33015C107.643 1.70865 107.502 2.02767 107.221 2.28721C106.952 2.53594 106.609 2.66031 106.193 2.66031ZM107.356 3.73092V12.7176H104.997V3.73092H107.356Z" fill="white"/>
<path d="M112.434 5.59637V9.9437C112.434 10.2465 112.507 10.4682 112.653 10.6088C112.81 10.7385 113.068 10.8034 113.428 10.8034H114.523V12.7176H113.04C111.052 12.7176 110.058 11.7875 110.058 9.92748V5.59637H108.945V3.73092H110.058V1.50859H112.434V3.73092H114.523V5.59637H112.434Z" fill="white"/>
<path d="M115.613 8.19179C115.613 7.2834 115.799 6.47774 116.17 5.77481C116.552 5.07188 117.063 4.53117 117.703 4.15267C118.355 3.77417 119.079 3.58492 119.877 3.58492C120.573 3.58492 121.18 3.7201 121.697 3.99046C122.225 4.26081 122.646 4.60146 122.961 5.0124V3.73092H125.337V12.7176H122.961V11.4036C122.657 11.8254 122.236 12.1768 121.697 12.458C121.169 12.7284 120.557 12.8635 119.86 12.8635C119.074 12.8635 118.355 12.6689 117.703 12.2796C117.063 11.8903 116.552 11.3441 116.17 10.6412C115.799 9.92748 115.613 9.111 115.613 8.19179ZM122.961 8.22424C122.961 7.67271 122.848 7.20229 122.624 6.81298C122.399 6.41285 122.096 6.11005 121.714 5.90458C121.332 5.68829 120.922 5.58015 120.483 5.58015C120.045 5.58015 119.641 5.68289 119.27 5.88836C118.899 6.09383 118.596 6.39663 118.36 6.79676C118.136 7.18607 118.023 7.65108 118.023 8.19179C118.023 8.73251 118.136 9.20833 118.36 9.61928C118.596 10.0194 118.899 10.3276 119.27 10.5439C119.652 10.7602 120.057 10.8683 120.483 10.8683C120.922 10.8683 121.332 10.7656 121.714 10.5601C122.096 10.3438 122.399 10.041 122.624 9.65172C122.848 9.25159 122.961 8.77576 122.961 8.22424Z" fill="white"/>
<path d="M130 0.713741V12.7176H127.641V0.713741H130Z" fill="white"/>
</svg>
