<svg width="140" height="22" viewBox="0 0 140 22" fill="none" xmlns="http://www.w3.org/2000/svg">
<path d="M10.8211 21.7356L6.19206 13.7463H4.2082V21.7356H0V1.23364H7.87534C9.4985 1.23364 10.8812 1.51758 12.0234 2.08545C13.1656 2.63373 14.0173 3.38763 14.5784 4.34713C15.1595 5.28705 15.4501 6.34446 15.4501 7.51936C15.4501 8.87049 15.0493 10.0943 14.2477 11.1909C13.4462 12.2679 12.2539 13.012 10.6708 13.4232L15.6906 21.7356H10.8211ZM4.2082 10.6622H7.72504C8.86727 10.6622 9.71893 10.3979 10.28 9.86916C10.8411 9.32087 11.1217 8.56698 11.1217 7.60748C11.1217 6.66756 10.8411 5.94303 10.28 5.43391C9.71893 4.90521 8.86727 4.64085 7.72504 4.64085H4.2082V10.6622Z" fill="white"/>
<path d="M26.6507 22C25.0475 22 23.6047 21.6573 22.3222 20.972C21.0397 20.267 20.0278 19.2781 19.2863 18.0053C18.5649 16.7325 18.2042 15.2639 18.2042 13.5995C18.2042 11.935 18.5749 10.4664 19.3164 9.19359C20.0779 7.92078 21.1099 6.9417 22.4124 6.25634C23.7149 5.5514 25.1678 5.19893 26.7709 5.19893C28.374 5.19893 29.8268 5.5514 31.1294 6.25634C32.4319 6.9417 33.4539 7.92078 34.1953 9.19359C34.9568 10.4664 35.3376 11.935 35.3376 13.5995C35.3376 15.2639 34.9468 16.7325 34.1653 18.0053C33.4038 19.2781 32.3618 20.267 31.0392 20.972C29.7367 21.6573 28.2738 22 26.6507 22ZM26.6507 18.4166C27.4121 18.4166 28.1235 18.2403 28.7848 17.8878C29.4661 17.5158 30.0072 16.9675 30.408 16.243C30.8088 15.5185 31.0091 14.6373 31.0091 13.5995C31.0091 12.0525 30.5883 10.8678 29.7467 10.0454C28.9251 9.20338 27.9131 8.78238 26.7108 8.78238C25.5084 8.78238 24.4965 9.20338 23.6749 10.0454C22.8733 10.8678 22.4725 12.0525 22.4725 13.5995C22.4725 15.1464 22.8633 16.3409 23.6448 17.1829C24.4464 18.0053 25.4483 18.4166 26.6507 18.4166Z" fill="white"/>
<path d="M47.6524 5.2283C49.6363 5.2283 51.2394 5.84513 52.4618 7.07877C53.6842 8.29283 54.2954 9.99644 54.2954 12.1896V21.7356H50.0872V12.7477C50.0872 11.4553 49.7565 10.4664 49.0952 9.78104C48.4339 9.0761 47.5322 8.72363 46.39 8.72363C45.2277 8.72363 44.3059 9.0761 43.6246 9.78104C42.9633 10.4664 42.6326 11.4553 42.6326 12.7477V21.7356H38.4244V5.46328H42.6326V7.48999C43.1937 6.78505 43.9051 6.23676 44.7668 5.84513C45.6485 5.43391 46.6104 5.2283 47.6524 5.2283Z" fill="white"/>
<path d="M72.7036 21.9413C71.2408 21.9413 69.9182 21.6965 68.7359 21.2069C67.5736 20.7174 66.6518 20.0125 65.9705 19.0921C65.2892 18.1718 64.9385 17.085 64.9185 15.8318H69.4272C69.4874 16.6738 69.7879 17.3396 70.329 17.8291C70.8901 18.3186 71.6516 18.5634 72.6134 18.5634C73.5954 18.5634 74.3669 18.3382 74.928 17.8878C75.4891 17.4179 75.7696 16.8109 75.7696 16.0668C75.7696 15.4597 75.5792 14.9604 75.1985 14.5688C74.8177 14.1771 74.3368 13.8736 73.7557 13.6582C73.1946 13.4232 72.4131 13.1687 71.4111 12.8945C70.0485 12.5029 68.9363 12.121 68.0746 11.749C67.233 11.3574 66.5015 10.7797 65.8803 10.016C65.2792 9.23275 64.9786 8.19493 64.9786 6.90254C64.9786 5.68847 65.2892 4.63106 65.9104 3.73031C66.5316 2.82955 67.4033 2.14419 68.5255 1.67423C69.6477 1.18469 70.9302 0.93992 72.373 0.93992C74.5372 0.93992 76.2906 1.45883 77.6332 2.49666C78.9959 3.51491 79.7473 4.94437 79.8876 6.78505H75.2586C75.2185 6.08011 74.9079 5.50245 74.3268 5.05207C73.7657 4.58211 73.0142 4.34713 72.0724 4.34713C71.2508 4.34713 70.5895 4.55274 70.0885 4.96395C69.6076 5.37517 69.3671 5.97241 69.3671 6.75567C69.3671 7.30396 69.5475 7.76413 69.9082 8.13618C70.2889 8.48865 70.7498 8.78238 71.2909 9.01736C71.852 9.23275 72.6335 9.48732 73.6354 9.78104C74.9981 10.1727 76.1103 10.5643 76.9719 10.9559C77.8336 11.3476 78.5751 11.935 79.1963 12.7183C79.8175 13.5016 80.1281 14.5296 80.1281 15.8024C80.1281 16.899 79.8375 17.9172 79.2564 18.8571C78.6753 19.7971 77.8236 20.551 76.7014 21.1188C75.5792 21.6671 74.2466 21.9413 72.7036 21.9413Z" fill="white"/>
<path d="M82.6943 13.5407C82.6943 11.8959 83.025 10.437 83.6863 9.16422C84.3676 7.89141 85.2794 6.91233 86.4216 6.22697C87.5839 5.54161 88.8764 5.19893 90.2991 5.19893C91.5416 5.19893 92.6237 5.4437 93.5455 5.93324C94.4873 6.42279 95.2388 7.03961 95.7999 7.78371V5.46328H100.038V21.7356H95.7999V19.3565C95.2588 20.1202 94.5073 20.7566 93.5455 21.2657C92.6036 21.7552 91.5115 22 90.2691 22C88.8664 22 87.5839 21.6475 86.4216 20.9426C85.2794 20.2376 84.3676 19.2488 83.6863 17.976C83.025 16.6836 82.6943 15.2052 82.6943 13.5407ZM95.7999 13.5995C95.7999 12.6008 95.5995 11.749 95.1987 11.0441C94.7979 10.3195 94.2569 9.77125 93.5755 9.3992C92.8942 9.00756 92.1628 8.81175 91.3812 8.81175C90.5997 8.81175 89.8783 8.99777 89.217 9.36983C88.5557 9.74188 88.0147 10.2902 87.5939 11.0147C87.1931 11.7196 86.9927 12.5616 86.9927 13.5407C86.9927 14.5198 87.1931 15.3814 87.5939 16.1255C88.0147 16.85 88.5557 17.4081 89.217 17.7997C89.8984 18.1914 90.6198 18.3872 91.3812 18.3872C92.1628 18.3872 92.8942 18.2012 93.5755 17.8291C94.2569 17.4375 94.7979 16.8892 95.1987 16.1842C95.5995 15.4597 95.7999 14.5981 95.7999 13.5995Z" fill="white"/>
<path d="M103.066 13.5407C103.066 11.8959 103.397 10.437 104.058 9.16422C104.739 7.89141 105.661 6.91233 106.823 6.22697C107.986 5.54161 109.278 5.19893 110.701 5.19893C111.783 5.19893 112.815 5.43391 113.797 5.90387C114.779 6.35425 115.56 6.96128 116.142 7.72497V0H120.41V21.7356H116.142V19.3271C115.62 20.1299 114.889 20.7761 113.947 21.2657C113.005 21.7552 111.913 22 110.671 22C109.268 22 107.986 21.6475 106.823 20.9426C105.661 20.2376 104.739 19.2488 104.058 17.976C103.397 16.6836 103.066 15.2052 103.066 13.5407ZM116.172 13.5995C116.172 12.6008 115.971 11.749 115.57 11.0441C115.17 10.3195 114.629 9.77125 113.947 9.3992C113.266 9.00756 112.534 8.81175 111.753 8.81175C110.971 8.81175 110.25 8.99777 109.589 9.36983C108.927 9.74188 108.386 10.2902 107.966 11.0147C107.565 11.7196 107.364 12.5616 107.364 13.5407C107.364 14.5198 107.565 15.3814 107.966 16.1255C108.386 16.85 108.927 17.4081 109.589 17.7997C110.27 18.1914 110.991 18.3872 111.753 18.3872C112.534 18.3872 113.266 18.2012 113.947 17.8291C114.629 17.4375 115.17 16.8892 115.57 16.1842C115.971 15.4597 116.172 14.5981 116.172 13.5995Z" fill="white"/>
<path d="M140 13.247C140 13.8344 139.96 14.3632 139.88 14.8331H127.706C127.806 16.008 128.227 16.9283 128.969 17.5941C129.71 18.2599 130.622 18.5928 131.704 18.5928C133.267 18.5928 134.379 17.9368 135.04 16.6248H139.579C139.098 18.1914 138.176 19.4838 136.814 20.502C135.451 21.5007 133.778 22 131.794 22C130.191 22 128.748 21.6573 127.466 20.972C126.203 20.267 125.211 19.2781 124.49 18.0053C123.788 16.7325 123.438 15.2639 123.438 13.5995C123.438 11.9154 123.788 10.437 124.49 9.16422C125.191 7.89141 126.173 6.91233 127.436 6.22697C128.698 5.54161 130.151 5.19893 131.794 5.19893C133.377 5.19893 134.79 5.53182 136.032 6.1976C137.295 6.86337 138.267 7.81308 138.948 9.04673C139.649 10.2608 140 11.6609 140 13.247ZM135.642 12.0721C135.621 11.0147 135.231 10.1727 134.469 9.54606C133.708 8.89987 132.776 8.57677 131.674 8.57677C130.632 8.57677 129.75 8.89008 129.029 9.51669C128.327 10.1237 127.896 10.9755 127.736 12.0721H135.642Z" fill="white"/>
</svg>
