<svg width="68" height="68" viewBox="0 0 68 68" fill="none" xmlns="http://www.w3.org/2000/svg">
<path fill-rule="evenodd" clip-rule="evenodd" d="M26.7526 0H33.1304L44.4775 28.6273H26.0075L29.9831 18.6202L31.7223 23.2138H36.3606L29.9831 6.89044L15.1571 44.2944H9.27658L26.7526 0ZM43.732 0L61.2084 44.2944H55.3276L37.7687 0H43.732ZM42.4067 38.3886L44.726 44.2944H50.6065L46.1341 32.8927H24.3508L19.7954 44.2944H25.759L28.078 38.3886H42.4067ZM0 67.7539L5.63228 52.497H8.44828L14.0803 67.7539H10.8501L9.85641 64.8831H4.14131L3.23015 67.7539H0ZM7.04013 56.5163L5.05245 62.3403H9.02808L7.04013 56.5163ZM33.9587 52.497H27.9123V67.7539H34.0416C38.4314 67.7539 40.5019 64.719 40.5019 60.1255C40.5847 55.5319 38.3485 52.497 33.9587 52.497ZM33.9587 65.2112H30.9768V55.0397H33.9587C36.1121 55.0397 37.4374 56.7624 37.4374 60.1255C37.4374 63.4065 36.1121 65.2112 33.9587 65.2112ZM40.5847 67.7539L46.1338 52.497H49.033L54.6649 67.7539H51.5176L50.5236 64.8831H44.8088L43.8148 67.7539H40.5847ZM47.6248 56.5163L45.6369 62.3403H49.6125L47.6248 56.5163ZM61.2912 52.2509C56.9842 52.2509 54.5821 55.5322 54.5821 60.1255C54.5821 64.719 56.9014 68 61.2912 68C65.681 68 68 64.719 68 60.1255C67.9172 55.5322 65.681 52.2509 61.2912 52.2509ZM61.2912 65.4573C58.8891 65.4573 57.8126 63.4888 57.8126 60.1255C57.8126 56.7624 58.8891 54.7939 61.2912 54.7939C63.693 54.7939 64.8527 56.7624 64.8527 60.1255C64.8527 63.4888 63.693 65.4573 61.2912 65.4573ZM19.3074 65.1292L22.6113 62.1763L22.6684 62.1258C24.2152 60.7556 25.4276 59.6817 25.4276 56.9265C25.4276 54.3017 23.1912 52.2509 20.0438 52.2509C17.4764 52.2509 14.9086 53.8095 14.9086 57.1726V57.8288H17.9731C17.8902 55.8601 18.967 54.7939 20.0438 54.7939C21.6177 54.7939 22.28 55.8601 22.28 56.9265C22.28 58.239 21.1207 59.3875 20.2923 60.1255L14.9086 65.5393V67.6719H25.6758V65.1292H19.3074Z" fill="white"/>
</svg>
