<svg width="182" height="38" viewBox="0 0 182 38" fill="none" xmlns="http://www.w3.org/2000/svg">
<g clip-path="url(#clip0_6004_7829)">
<path d="M64.8617 33.7838L64.8841 28.9692L68.4315 32.4166L68.4457 29.2922H69.1971L69.1735 34.0799L65.6273 30.6338L65.612 33.785L64.8617 33.7838Z" fill="white"/>
<path d="M80.1495 30.0015L78.1912 29.9918V31.1336L80.0905 31.1433V31.7928L78.1853 31.7855L78.1782 33.2064L80.1365 33.2161V33.8644L77.4232 33.851L77.4445 29.3423L80.1578 29.3557L80.1495 30.0015Z" fill="white"/>
<path d="M89.5518 30.0487L89.5342 33.9103H88.7827L88.8015 30.0487L87.6749 30.0426V29.3931L90.6785 29.4089V30.0584L89.5518 30.0487Z" fill="white"/>
<path d="M98.664 29.4472L99.9452 32.4692L101.285 29.2437L102.551 32.4826L103.903 29.4703H104.712L102.496 34.2605L101.23 31.0557L99.9192 34.2471L97.8512 29.435L98.664 29.4472Z" fill="white"/>
<path d="M117.116 31.7999C117.109 33.1245 116.022 34.1335 114.55 34.1261C113.078 34.1188 112.001 33.0989 112.006 31.7731C112.012 30.4473 113.1 29.4383 114.572 29.4468C116.045 29.4554 117.124 30.4741 117.116 31.7999ZM116.364 31.7999C116.364 30.7994 115.622 30.0939 114.569 30.0866C113.515 30.0793 112.763 30.7812 112.758 31.7816C112.753 32.7821 113.5 33.4876 114.552 33.4949C115.605 33.5022 116.362 32.7967 116.367 31.795L116.364 31.7999Z" fill="white"/>
<path d="M126.017 29.5918C126.607 29.5918 126.995 29.6649 127.314 29.8623C127.493 29.9711 127.641 30.1271 127.742 30.3142C127.843 30.5014 127.894 30.713 127.89 30.9274C127.89 31.5769 127.451 32.0472 126.795 32.1788L128.317 34.1139H127.411L126.014 32.2605H125.882L125.869 34.1005H125.119L125.14 29.5918H126.017ZM125.881 31.6634H126.117C126.324 31.6634 127.162 31.6487 127.166 30.9322C127.166 30.2974 126.513 30.2328 126.145 30.2303H125.888L125.881 31.6634Z" fill="white"/>
<path d="M136.883 31.4405L138.791 29.6516H139.777L137.551 31.6817L139.766 34.1664H138.766L137.027 32.1509L136.878 32.2861L136.87 34.1518H136.119L136.14 29.6431H136.891L136.883 31.4405Z" fill="white"/>
<path d="M61.8795 5.66357V14.7834C61.8795 15.2708 61.8971 15.7712 61.9325 16.2847C61.9623 16.7642 62.0729 17.2348 62.2593 17.6751C62.4403 18.092 62.7366 18.4444 63.1111 18.6877C63.498 18.9468 64.0434 19.0764 64.7473 19.0764C65.4512 19.0764 65.9931 18.9468 66.373 18.6877C66.7434 18.4399 67.0383 18.0888 67.2236 17.6751C67.4156 17.2364 67.5287 16.7652 67.5574 16.2847C67.5928 15.7729 67.6109 15.2724 67.6117 14.7834V5.66357H71.8103V15.3841C71.8103 17.9943 71.2326 19.8998 70.0773 21.1005C68.9219 22.3012 67.1453 22.9019 64.7473 22.9027C62.3494 22.9027 60.5692 22.302 59.4068 21.1005C58.2444 19.899 57.6616 17.9935 57.6584 15.3841V5.66357H61.8795Z" fill="white"/>
<path d="M75.209 22.436V5.66357H79.43L87.2255 15.9179V5.66357H91.4253V22.436H87.2255L79.43 12.1805V22.436H75.209Z" fill="white"/>
<path d="M99.0486 5.66357V22.436H94.8276V5.66357H99.0486Z" fill="white"/>
<path d="M113.9 11.2692C112.925 10.0384 111.719 9.42305 110.283 9.42305C109.681 9.41674 109.083 9.53783 108.528 9.77887C108.005 10.002 107.532 10.3317 107.136 10.7484C106.74 11.1652 106.43 11.6602 106.224 12.2038C105.997 12.7846 105.884 13.4057 105.89 14.0317C105.883 14.6637 105.996 15.291 106.224 15.8778C106.434 16.4236 106.746 16.9209 107.144 17.3409C107.541 17.7609 108.015 18.0953 108.538 18.3247C109.082 18.5649 109.669 18.686 110.261 18.6806C111.61 18.6806 112.823 18.0875 113.9 16.9014V22.0621L113.469 22.2181C112.88 22.4394 112.276 22.6142 111.661 22.7408C111.114 22.8505 110.559 22.9064 110.002 22.9078C107.784 22.9071 105.654 22.0085 104.07 20.4048C103.274 19.5942 102.634 18.6359 102.182 17.5802C101.715 16.4557 101.474 15.2453 101.472 14.0218C101.47 12.7984 101.708 11.5872 102.171 10.4613C102.846 8.89358 103.947 7.562 105.341 6.62818C106.734 5.69436 108.36 5.19846 110.021 5.20069C110.662 5.20012 111.301 5.27122 111.926 5.41272C112.601 5.5704 113.26 5.7898 113.897 6.06832L113.9 11.2692Z" fill="white"/>
<path d="M130.565 22.436H125.31L121.283 15.9849V22.436H117.062V5.66358H123.63C124.438 5.64604 125.241 5.78534 125.999 6.07424C126.612 6.30664 127.167 6.67516 127.627 7.15378C128.086 7.6324 128.438 8.20942 128.658 8.84406C128.884 9.48555 128.997 10.1636 128.992 10.8462C128.992 12.1224 128.694 13.1566 128.099 13.9487C127.504 14.7407 126.624 15.2785 125.461 15.5621L130.565 22.436ZM121.283 13.159H122.08C122.912 13.159 123.551 12.9811 123.996 12.6253C124.441 12.2695 124.664 11.7581 124.664 11.0911C124.664 10.4233 124.441 9.91153 123.996 9.55571C123.551 9.19988 122.912 9.02197 122.08 9.02197H121.283V13.159Z" fill="white"/>
<path d="M135.227 14.3825L129.305 5.66357H134.34L137.354 10.2454L140.348 5.66357H145.387L139.443 14.3825V22.436H135.222L135.227 14.3825Z" fill="white"/>
<path d="M151.099 22.436H146.878V5.66357H153.602C155.425 5.66357 156.821 6.151 157.79 7.12586C158.759 8.10072 159.244 9.48177 159.245 11.269C159.245 13.0481 158.76 14.4292 157.79 15.4122C156.82 16.3951 155.424 16.8826 153.602 16.8745H151.105L151.099 22.436ZM151.099 13.3601H152.498C154.048 13.3601 154.823 12.6631 154.824 11.269C154.825 9.87496 154.05 9.17794 152.498 9.17794H151.099V13.3601Z" fill="white"/>
<path d="M167.881 9.35585V22.436H163.66V9.35585H160.193V5.66357H171.348V9.35585H167.881Z" fill="white"/>
<path d="M179.169 3.27052C178.957 3.11196 178.704 3.02394 178.443 3.01828C178.316 3.017 178.191 3.041 178.073 3.08896C177.961 3.13491 177.858 3.20324 177.772 3.29002C177.685 3.37689 177.615 3.48143 177.569 3.5971C177.519 3.72357 177.495 3.8591 177.497 3.99557C177.495 4.12923 177.52 4.26186 177.569 4.38552C177.615 4.50041 177.683 4.60507 177.767 4.69382C177.854 4.78142 177.956 4.84984 178.069 4.89488C178.189 4.94205 178.315 4.96601 178.443 4.96556C178.709 4.96312 178.965 4.86533 179.169 4.68894V5.90752C178.864 6.05131 178.534 6.12888 178.199 6.13539C177.922 6.1366 177.646 6.08624 177.386 5.98672C177.134 5.89108 176.903 5.74496 176.706 5.55676C176.509 5.36855 176.349 5.14196 176.237 4.89001C176.117 4.61639 176.057 4.31895 176.061 4.01873C176.058 3.71655 176.115 3.41694 176.23 3.13892C176.337 2.87956 176.494 2.64533 176.692 2.45035C176.889 2.25537 177.122 2.10368 177.378 2.00442C177.652 1.89504 177.943 1.84006 178.237 1.84235C178.56 1.83967 178.879 1.91521 179.169 2.06292V3.27052Z" fill="white"/>
<path d="M178.139 7.97679C177.375 7.97679 176.629 7.74287 175.994 7.30462C175.359 6.86637 174.864 6.24347 174.571 5.51469C174.279 4.7859 174.203 3.98397 174.352 3.2103C174.501 2.43662 174.869 1.72596 175.408 1.16817C175.948 0.610388 176.636 0.230531 177.385 0.0766376C178.134 -0.0772554 178.911 0.00172816 179.616 0.3036C180.322 0.605472 180.925 1.11667 181.349 1.77256C181.774 2.42845 182 3.19956 182 3.98839C181.999 5.04588 181.592 6.05978 180.868 6.80754C180.144 7.5553 179.163 7.97582 178.139 7.97679ZM178.139 0.883468C177.544 0.883227 176.962 1.06523 176.468 1.40644C175.973 1.74765 175.587 2.23276 175.36 2.80038C175.132 3.368 175.072 3.99265 175.188 4.59529C175.304 5.19794 175.591 5.75151 176.011 6.18599C176.432 6.62046 176.968 6.91632 177.551 7.03613C178.135 7.15594 178.739 7.09433 179.289 6.85908C179.838 6.62383 180.308 6.22552 180.638 5.71453C180.969 5.20354 181.145 4.60283 181.145 3.98839C181.144 3.16521 180.827 2.37602 180.263 1.79395C179.7 1.21187 178.936 0.884436 178.139 0.883468Z" fill="white"/>
<path d="M19.53 33.4232C17.6024 37.6066 6.985 36.7816 6.985 36.7816C-3.86835 32.775 -4.36265 12.2883 22.1643 4.12385C22.1643 4.12385 37.0558 -0.254486 40.3756 0.154955C40.3756 0.154955 15.2064 9.23699 11.4007 17.9144L5.19065 16.758C5.69085 17.0017 12.3716 20.2553 12.4624 20.298C12.4624 20.298 8.93506 26.113 8.56935 26.7649C8.18004 27.4559 7.76714 28.683 9.9095 29.2508C10.3082 29.3867 10.7206 29.475 11.1388 29.5141C11.1388 29.5141 13.2386 29.4422 18.6264 27.2158L18.7125 27.1829C19.274 27.702 21.1899 29.8236 19.53 33.4232Z" fill="url(#paint0_linear_6004_7829)"/>
<path d="M36.5627 33.355C36.5828 33.2076 37.0853 29.0254 34.9111 24.3717C36.5073 23.671 40.2021 21.5994 41.4137 17.0347C44.0291 25.0054 36.7574 33.1406 36.5627 33.355Z" fill="white"/>
<path d="M27.0838 29.4994C27.2903 36.2698 13.989 40.1119 6.98389 36.7791C6.98389 36.7791 17.6013 37.6065 19.5301 33.4232C21.19 29.8235 19.2741 27.702 18.7043 27.1804C20.5694 26.5053 22.5785 24.4898 20.2816 22.0758C21.9709 21.9345 27.2785 24.7969 27.0838 29.4994Z" fill="url(#paint1_linear_6004_7829)"/>
<path d="M41.4173 17.0405C40.2057 21.6053 36.5109 23.6769 34.9147 24.3776C34.1243 22.5753 32.7299 20.6256 31.4487 19.368C35.3111 17.4183 38.2663 13.9149 40.3555 8.15713C40.3626 8.13885 40.3685 8.11935 40.3756 8.10107C41.0539 15.4844 36.6241 18.8087 35.2226 19.6678C36.7492 18.8964 41.4173 17.0405 41.4173 17.0405Z" fill="url(#paint2_linear_6004_7829)"/>
<path d="M40.3555 8.14519L40.3744 8.09036C40.267 8.17688 34.884 12.4224 32.2568 12.7209C32.2568 12.7209 40.0523 9.30893 40.3755 0.141602C40.3755 0.141602 15.2064 9.22363 11.4006 17.9023L13.773 18.3532C14.9103 16.607 15.7691 16.5253 16.6763 16.7422C16.4982 16.4035 15.6146 14.706 15.6146 14.706C17.9362 14.1174 20.6684 14.3197 20.6743 14.3197L20.9575 16.624L21.3857 14.3892C23.5399 14.5244 25.9252 15.598 25.9252 15.598C25.917 15.6345 25.3354 17.555 25.3224 17.594L26.7086 15.9623C26.6944 15.9526 29.068 16.9543 31.4392 19.3622C35.311 17.4173 38.2662 13.909 40.3555 8.14519Z" fill="url(#paint3_linear_6004_7829)"/>
<path d="M31.4475 19.362L31.4693 19.356L31.4475 19.362Z" fill="url(#paint4_linear_6004_7829)"/>
<path d="M17.5317 21.4482L15.2489 23.2163C15.2489 23.2163 14.5411 22.3499 15.4507 21.6212C15.7561 21.4155 16.1065 21.2919 16.4699 21.2617C16.8333 21.2315 17.1983 21.2956 17.5317 21.4482Z" fill="url(#paint5_linear_6004_7829)"/>
</g>
<defs>
<linearGradient id="paint0_linear_6004_7829" x1="40.3756" y1="18.4835" x2="-7.78334e-05" y2="18.4835" gradientUnits="userSpaceOnUse">
<stop stop-color="white"/>
<stop offset="0.5" stop-color="#DDDDDD"/>
<stop offset="1" stop-color="#A4A4A4"/>
</linearGradient>
<linearGradient id="paint1_linear_6004_7829" x1="26.7606" y1="31.9852" x2="8.3399" y2="28.8408" gradientUnits="userSpaceOnUse">
<stop stop-color="#C9C9C9"/>
<stop offset="0.12" stop-color="#FBFBFB"/>
<stop offset="0.3" stop-color="#F4F4F4"/>
<stop offset="1" stop-color="#E8E8E8"/>
</linearGradient>
<linearGradient id="paint2_linear_6004_7829" x1="41.0516" y1="18.5174" x2="34.5494" y2="14.4292" gradientUnits="userSpaceOnUse">
<stop stop-color="#EAEAEA"/>
<stop offset="0.22" stop-color="#E1E1E1"/>
<stop offset="0.49" stop-color="#AEAEAE"/>
<stop offset="0.76" stop-color="#CACACA"/>
<stop offset="1" stop-color="#EDEDED"/>
</linearGradient>
<linearGradient id="paint3_linear_6004_7829" x1="10243" y1="4246.54" x2="9650.5" y2="1919.58" gradientUnits="userSpaceOnUse">
<stop stop-color="white"/>
<stop offset="1" stop-color="#E6E6E6"/>
</linearGradient>
<linearGradient id="paint4_linear_6004_7829" x1="39.4275" y1="20.672" x2="39.4275" y2="20.672" gradientUnits="userSpaceOnUse">
<stop stop-color="#F8F8F8"/>
<stop offset="1" stop-color="#DFDFDF"/>
</linearGradient>
<linearGradient id="paint5_linear_6004_7829" x1="590.946" y1="491.395" x2="645.818" y2="491.395" gradientUnits="userSpaceOnUse">
<stop stop-color="white"/>
<stop offset="1" stop-color="white"/>
</linearGradient>
<clipPath id="clip0_6004_7829">
<rect width="182" height="38" fill="white"/>
</clipPath>
</defs>
</svg>
