<svg width="180" height="42" viewBox="0 0 180 42" fill="none" xmlns="http://www.w3.org/2000/svg">
<path d="M25.3102 35.165L35.8278 24.8483L25.3069 14.5317L21.4365 18.3226L28.0806 24.8483L21.4314 31.3757L25.3102 35.165ZM17.4758 27.4928L6.95823 17.1762L17.4793 6.8562L21.3444 10.6538L14.6936 17.1812L21.3426 23.7086L17.4758 27.4928ZM1.68064 12.8396C3.74284 8.04359 7.54974 4.16933 12.3626 1.96873C17.1754 -0.231879 22.6509 -0.601889 27.7263 0.930514C32.8018 2.46292 37.1154 5.78844 39.8298 10.2617C42.5443 14.7349 43.4662 20.0369 42.4164 25.1386C41.3667 30.2403 38.4202 34.778 34.1489 37.8709C29.8774 40.9638 24.5859 42.3913 19.301 41.8766C14.0161 41.3618 9.11475 38.9414 5.54825 35.0851C1.98176 31.2287 0.00443775 26.2117 1.35195e-05 21.0072C-0.00320506 18.202 0.568295 15.4245 1.68064 12.8396ZM39.2079 21.0072C39.2049 17.5547 38.1573 14.1804 36.1976 11.3111C34.2379 8.44184 31.4542 6.2063 28.1983 4.88712C24.9423 3.56793 21.3603 3.22431 17.905 3.8997C14.4499 4.5751 11.2765 6.23918 8.78624 8.68159C6.29597 11.124 4.60054 14.2351 3.91429 17.6216C3.22806 21.0081 3.5818 24.5178 4.93081 27.7073C6.27981 30.897 8.56353 33.6229 11.4932 35.5408C14.423 37.4586 17.8671 38.4822 21.3905 38.4822C26.1162 38.4747 30.646 36.6306 33.9863 33.3546C37.3264 30.0787 39.2042 25.6381 39.2079 21.0072Z" fill="white"/>
<path d="M49.814 21.7233H64.7108V16.975H55.4879V0.405523H49.814V21.7233ZM89.413 21.7233L80.2891 0.405523H74.4547L65.1121 21.7233H70.9466L72.4683 17.9526H81.8707L83.36 21.7233H89.413ZM77.2164 6.09607L80.1952 13.6946H74.1746L77.2164 6.09607ZM96.0536 12.9348V0.405523H90.378V12.9348C90.378 14.7792 90.7868 16.3971 91.6043 17.7885C92.4135 19.1689 93.6217 20.2836 95.0766 20.9919C96.5762 21.7417 98.3189 22.1167 100.305 22.1167C102.29 22.1167 104.023 21.7417 105.504 20.9919C106.943 20.2799 108.133 19.1626 108.92 17.7835C109.717 16.3955 110.115 14.7775 110.115 12.9298V0.405523H104.433V12.9348C104.433 14.2939 104.055 15.3733 103.3 16.1734C102.546 16.9733 101.558 17.3739 100.337 17.3751C99.096 17.3751 98.0713 16.9695 97.2627 16.1583C96.4543 15.3471 96.0513 14.2726 96.0536 12.9348ZM128.887 13.2394L118.988 0.405523H113.99V21.7233H119.299V8.98152L129.166 21.7233H134.132V0.405523H128.857L128.887 13.2394ZM154.117 7.64257L157.407 3.7529C156.276 2.59294 154.913 1.67588 153.402 1.05994C151.696 0.33935 149.846 0.00472806 147.99 0.0809343C146.134 0.157141 144.319 0.642215 142.681 1.50012C140.933 2.42371 139.477 3.79971 138.473 5.47812C137.47 7.15652 136.954 9.07292 136.985 11.0184C136.957 13.0006 137.471 14.954 138.474 16.6754C139.449 18.3405 140.866 19.7167 142.574 20.6588C144.192 21.5471 146.002 22.0449 147.855 22.1109C149.708 22.177 151.551 21.8094 153.231 21.0388C154.812 20.3491 156.241 19.3625 157.436 18.135L154.117 14.6319C153.369 15.3908 152.486 16.0096 151.511 16.4579C150.642 16.8794 149.688 17.1079 148.719 17.1274C147.66 17.1416 146.62 16.8638 145.716 16.3257C144.817 15.7877 144.086 15.0206 143.598 14.1063C143.073 13.1373 142.807 12.0548 142.82 10.9581C142.807 9.86149 143.073 8.77889 143.598 7.80993C144.086 6.89696 144.818 6.13104 145.716 5.59397C146.617 5.05534 147.655 4.77582 148.712 4.78725C149.724 4.80372 150.717 5.07085 151.597 5.56383C152.573 6.08065 153.43 6.78812 154.117 7.64257ZM159.858 21.7233H165.539V13.5424H174.321V21.7233H180V0.405523H174.321V9.10872H165.539V0.405523H159.858V21.7233ZM49.814 28.48H59.7202L49.5408 40.7214V41.8562H61.7134V40.554H51.4656L61.6211 28.2909V27.1845H49.814V28.48ZM71.3923 27.0524C70.0155 27.0423 68.6604 27.3886 67.464 28.0565C66.2944 28.6986 65.3159 29.6286 64.6254 30.7545C63.9274 31.8781 63.5624 33.1699 63.5715 34.4852C63.5623 35.8091 63.9257 37.1099 64.622 38.2443C65.3238 39.3898 66.3163 40.3379 67.5028 40.9961C68.6894 41.6543 70.0297 42.0002 71.3933 42.0002C72.7567 42.0002 74.0969 41.6543 75.2836 40.9961C76.4702 40.3379 77.4626 39.3898 78.1644 38.2443C78.8607 37.1099 79.2242 35.8091 79.2148 34.4852C79.2262 33.1679 78.8625 31.8736 78.1644 30.7478C77.4732 29.6217 76.4942 28.6917 75.324 28.0498C74.1261 27.3838 72.7697 27.0396 71.3923 27.0524ZM71.4145 28.3544C72.5168 28.3479 73.6006 28.6304 74.5538 29.1729C75.5052 29.7066 76.2987 30.4738 76.856 31.3989C77.4252 32.3311 77.7207 33.3991 77.7101 34.4852C77.7183 35.578 77.4231 36.6523 76.856 37.5932C76.3016 38.5289 75.5082 39.307 74.5538 39.851C73.6027 40.3996 72.518 40.6859 71.4145 40.6796C70.3006 40.6873 69.2051 40.4011 68.2429 39.851C67.2832 39.3098 66.4852 38.5312 65.9286 37.5932C65.3615 36.6523 65.0663 35.578 65.0746 34.4852C65.0639 33.3991 65.3595 32.3311 65.9286 31.3989C66.4943 30.4684 67.2978 29.6982 68.2598 29.1647C69.2218 28.6311 70.3091 28.3525 71.4145 28.3561V28.3544ZM93.3345 39.6084L84.0346 27.1845H82.4719V41.8629H83.9493V29.4257L93.2286 41.8562H94.793V27.1845H93.3345V39.6084ZM99.5275 41.8562H109.835V40.554H101.007V35.0308H108.662V33.7288H101.007V28.48H109.557V27.1845H99.5275V41.8562Z" fill="white"/>
</svg>
