<svg width="180" height="38" viewBox="0 0 180 38" fill="none" xmlns="http://www.w3.org/2000/svg">
<mask id="mask0_6004_8400" style="mask-type:alpha" maskUnits="userSpaceOnUse" x="0" y="0" width="180" height="38">
<path d="M30.6916 25.4068L22.5615 33.611C20.5064 35.7162 17.1489 35.7428 15.06 33.6642C15.0411 33.6452 15.0223 33.6262 15.0073 33.611L4.36663 22.8608C2.25507 20.7366 2.24754 17.2862 4.35158 15.1544C4.35534 15.1506 4.36287 15.143 4.36663 15.1392L15.0186 4.3852C17.0812 2.28 20.4424 2.261 22.5276 4.3396C22.5427 4.3548 22.5577 4.37 22.5728 4.3852L30.3378 12.2512L32.295 10.2752L24.5225 2.4092C22.9981 0.8778 20.9392 0.0114 18.7863 0C16.6333 0.0114 14.5707 0.874 13.0463 2.4092L2.3981 13.1632C-0.793713 16.3818 -0.801242 21.603 2.38681 24.8254C2.39057 24.8292 2.39434 24.833 2.3981 24.8368L13.0463 35.5908C14.4314 36.9892 16.2719 37.8366 18.2254 37.9772C18.4174 37.9772 18.6018 38 18.7825 38C18.9669 38 19.1589 38 19.3395 37.9772C21.293 37.8366 23.1336 36.9892 24.5187 35.5908L32.6488 27.3828L30.6916 25.4068Z" fill="url(#paint0_linear_6004_8400)"/>
<path fill-rule="evenodd" clip-rule="evenodd" d="M18.7544 9.54326L25.9059 16.7633L27.7879 14.8633L20.6364 7.64327C20.1509 7.08087 19.4432 6.76547 18.7055 6.78827C18.0205 6.84147 17.3806 7.14927 16.9101 7.65466L11.2981 13.3243C10.0673 14.5707 10.0673 15.8209 11.2981 17.0711L18.7544 24.6027V20.8559L13.1575 15.1977L18.7544 9.54326Z" fill="url(#paint1_linear_6004_8400)"/>
<path fill-rule="evenodd" clip-rule="evenodd" d="M18.8147 28.4559L11.6632 21.2359L9.78125 23.1359L16.9327 30.3559C17.4145 30.9183 18.1259 31.2337 18.8636 31.2109C19.5486 31.1577 20.1885 30.8461 20.659 30.3407L26.2673 24.6749C27.5056 23.4247 27.5056 22.1745 26.2673 20.9281L18.8147 13.3965V17.1433L24.4154 22.8015L18.8147 28.4559Z" fill="url(#paint2_linear_6004_8400)"/>
<path fill-rule="evenodd" clip-rule="evenodd" d="M27.7734 18.6521L29.6403 16.7559L31.511 18.6521L29.6403 20.5369L27.7734 18.6521Z" fill="white"/>
<path fill-rule="evenodd" clip-rule="evenodd" d="M6.11719 19.0525L7.98786 17.1562L9.85477 19.0525L7.98786 20.9373L6.11719 19.0525Z" fill="white"/>
<path d="M43.9537 28.6289V20.4437H41.6953V17.0731H43.9537V9.37813H54.1163C55.5616 9.31733 56.9731 9.80373 58.0797 10.7423C59.1035 11.6505 59.6154 12.9159 59.6154 14.5423C59.6154 16.4043 58.8363 17.6811 57.2742 18.3765C59.5326 19.1099 60.6618 20.6717 60.6618 23.0657C60.7257 24.6009 60.1198 26.0867 59.0056 27.1279C57.8501 28.1615 56.3445 28.7049 54.8013 28.6479L43.9537 28.6289ZM47.4767 12.7487V17.0731H53.7324C54.3496 17.0959 54.9556 16.8907 55.4299 16.4879C55.8816 16.0889 56.13 15.5037 56.0999 14.8957C56.1338 14.2839 55.8816 13.6949 55.4148 13.3035C54.9406 12.9159 54.3421 12.7145 53.7324 12.7335L47.4767 12.7487ZM47.4767 20.4437V25.2583H54.4287C55.1213 25.2697 55.795 25.0417 56.3408 24.6123C56.8828 24.2019 57.1877 23.5483 57.1613 22.8643C57.1877 22.1803 56.8865 21.5267 56.3558 21.1049C55.8101 20.6603 55.1288 20.4247 54.4287 20.4437H47.4767Z" fill="white"/>
<path d="M62.2344 25.4585L64.9068 23.0379C66.5478 24.7935 68.4298 25.6637 70.5527 25.6447C71.5652 25.6827 72.5739 25.4889 73.4998 25.0785C74.5725 24.5883 75.1108 23.8245 75.1108 22.7985C75.1108 21.6775 74.0493 20.9289 71.9227 20.5603C68.411 19.9485 66.4349 19.5609 66.0021 19.3975C63.8755 18.5805 62.8103 17.0491 62.814 14.7995C62.814 12.9185 63.7023 11.4479 65.4826 10.3839C67.0635 9.44147 68.8739 8.96267 70.707 9.00447C73.8649 9.00447 76.3943 9.98487 78.2988 11.9495L75.6867 14.3093C74.1472 12.7741 72.4271 12.0141 70.5263 12.0293C69.638 11.9951 68.7535 12.1661 67.9443 12.5385C66.992 13.0097 66.5177 13.6937 66.5177 14.5905C66.5177 15.7153 67.5792 16.4525 69.7058 16.7983C73.1648 17.3721 75.1371 17.7521 75.6264 17.9383C77.753 18.7743 78.8182 20.3285 78.8145 22.5971C78.8145 24.6605 77.8848 26.2983 76.0216 27.5029C74.3354 28.5517 72.3819 29.0799 70.4021 29.0229C67.3006 29.0723 64.3234 27.7727 62.2344 25.4585Z" fill="white"/>
<path d="M96.5101 22.9863L99.3632 25.0801C97.436 27.6413 94.4098 29.1119 91.2255 29.0359C88.523 29.0967 85.9109 28.0669 83.9687 26.1707C82.0114 24.3163 80.9274 21.7095 80.9952 19.0001C80.9312 16.2946 82.0114 13.6916 83.9687 11.841C85.9146 9.94855 88.5268 8.91495 91.2255 8.97575C94.4061 8.89595 97.436 10.3628 99.3632 12.9202L96.4499 15.128C95.3132 13.3382 93.3296 12.278 91.2255 12.335C89.4828 12.3122 87.8117 13.0228 86.611 14.2996C84.0628 16.895 84.0628 21.0825 86.611 23.6779C89.1441 26.2733 93.2769 26.3037 95.8476 23.7463C96.0885 23.5069 96.3106 23.2485 96.5101 22.9749V22.9863Z" fill="white"/>
<path d="M106.138 9.5625V28.7487H104.32V9.5625H106.138Z" fill="white"/>
<path d="M120.467 15.2001H122.176V28.7509H120.489V26.0643C119.36 27.9301 117.339 29.0549 115.171 29.0245C111.369 29.0245 108.328 26.2847 108.328 21.9793C108.328 17.6739 111.396 15.0215 115.197 15.0215C117.26 15.0215 119.458 15.9791 120.467 17.8981V15.2001ZM110.154 21.9679C110.154 25.1751 112.431 27.2879 115.254 27.2879C122.179 27.2879 122.179 16.6783 115.254 16.6783C112.431 16.6897 110.154 18.8025 110.154 21.9793V21.9679Z" fill="white"/>
<path d="M126.693 15.1992V22.7992C126.693 25.6226 128.375 27.2376 131.093 27.211C133.671 27.211 135.489 25.1818 135.489 22.5788V15.1992H137.281V28.75H135.598L135.542 26.47C134.413 28.199 132.666 28.9362 130.792 28.9628C127.318 28.9628 124.875 26.6828 124.875 22.8258V15.1992H126.693Z" fill="white"/>
<path d="M150.736 28.7495V21.1494C150.736 18.2386 149.05 16.7186 146.363 16.7186C143.758 16.7452 141.966 18.7744 141.966 21.3774V28.7495H140.148V15.1986H141.887L141.94 17.4786C142.956 15.8826 144.725 14.9364 146.607 14.982C150.085 14.982 152.581 17.0644 152.581 21.1228V28.7228L150.736 28.7495Z" fill="white"/>
<path d="M166.338 26.9159C165.021 28.2421 163.229 28.9831 161.37 28.9679C157.572 28.9679 154.422 26.3953 154.422 21.9797C154.422 17.5641 157.489 15.0219 161.37 15.0219C163.158 15.0029 164.874 15.7249 166.12 17.0207L164.927 18.1987C163.99 17.2601 162.721 16.7357 161.4 16.7471C158.547 16.7471 156.24 18.6471 156.24 21.9797C156.24 25.3997 158.573 27.2161 161.37 27.2161C162.759 27.2237 164.095 26.6765 165.089 25.6961L166.338 26.9159Z" fill="white"/>
<path d="M169.737 9.5625V17.5653C170.866 15.7299 172.616 15.0459 174.408 15.0193C178.153 15.0193 179.997 17.5121 179.997 21.1563V28.7563H178.179V21.1563C178.179 18.4431 176.877 16.7711 174.19 16.7711C171.585 16.7711 169.763 18.8269 169.763 21.4565V28.7487H167.945V9.5625H169.737Z" fill="white"/>
</mask>
<g mask="url(#mask0_6004_8400)">
<rect x="-3.07812" y="-18.2422" width="204.169" height="85.9081" fill="white"/>
</g>
<defs>
<linearGradient id="paint0_linear_6004_8400" x1="-0.000126533" y1="19" x2="32.6488" y2="19" gradientUnits="userSpaceOnUse">
<stop stop-color="#F7CE2A"/>
<stop offset="0.13" stop-color="#F7CF2D" stop-opacity="0.98"/>
<stop offset="0.26" stop-color="#F8D138" stop-opacity="0.94"/>
<stop offset="0.38" stop-color="#F8D549" stop-opacity="0.85"/>
<stop offset="0.51" stop-color="#F9DB61" stop-opacity="0.74"/>
<stop offset="0.64" stop-color="#FAE281" stop-opacity="0.59"/>
<stop offset="0.77" stop-color="#FCEBA7" stop-opacity="0.41"/>
<stop offset="0.89" stop-color="#FDF5D4" stop-opacity="0.2"/>
<stop offset="1" stop-color="white" stop-opacity="0"/>
</linearGradient>
<linearGradient id="paint1_linear_6004_8400" x1="10.3741" y1="15.6949" x2="27.7672" y2="15.6949" gradientUnits="userSpaceOnUse">
<stop stop-color="white"/>
<stop offset="0.13" stop-color="white" stop-opacity="0.98"/>
<stop offset="0.25" stop-color="white" stop-opacity="0.94"/>
<stop offset="0.38" stop-color="white" stop-opacity="0.86"/>
<stop offset="0.5" stop-color="white" stop-opacity="0.75"/>
<stop offset="0.63" stop-color="white" stop-opacity="0.61"/>
<stop offset="0.75" stop-color="white" stop-opacity="0.43"/>
<stop offset="0.88" stop-color="white" stop-opacity="0.23"/>
<stop offset="1" stop-color="white" stop-opacity="0"/>
</linearGradient>
<linearGradient id="paint2_linear_6004_8400" x1="9.80383" y1="22.3043" x2="27.197" y2="22.3043" gradientUnits="userSpaceOnUse">
<stop stop-color="white" stop-opacity="0"/>
<stop offset="0.12" stop-color="white" stop-opacity="0.23"/>
<stop offset="0.25" stop-color="white" stop-opacity="0.43"/>
<stop offset="0.37" stop-color="white" stop-opacity="0.61"/>
<stop offset="0.5" stop-color="white" stop-opacity="0.75"/>
<stop offset="0.62" stop-color="white" stop-opacity="0.86"/>
<stop offset="0.75" stop-color="white" stop-opacity="0.94"/>
<stop offset="0.87" stop-color="white" stop-opacity="0.98"/>
<stop offset="1" stop-color="white"/>
</linearGradient>
</defs>
</svg>
