<svg width="118" height="56" viewBox="0 0 118 56" fill="none" xmlns="http://www.w3.org/2000/svg">
<path fill-rule="evenodd" clip-rule="evenodd" d="M44.424 51.2001C51.8962 46.1481 56.799 37.6613 56.799 28.0438C56.799 12.5556 44.0841 0 28.3995 0C24.0047 0 19.8429 0.985798 16.1288 2.74568C14.9141 3.99358 14.3726 6.35056 14.3013 7.61922L14.0449 12.8678C13.874 16.8496 13.7886 19.8781 13.7886 21.9534C13.7886 24.0287 13.8008 25.4284 13.8252 26.1523C13.874 26.8762 13.9717 27.4675 14.1182 27.926C14.4111 28.8912 15.1435 29.3498 16.3154 29.3015C17.5117 29.2532 18.5858 29.0119 19.538 28.5775C20.4901 28.119 21.2713 27.5399 21.8817 26.8401C23.1023 25.4886 23.7127 24.0528 23.7127 22.5326C23.7127 21.0123 23.1633 19.5282 23.1633 19.5282C22.5053 17.4612 36.0799 14.4628 35.1869 16.5794C34.644 17.8658 34.1254 18.9945 33.7473 19.8175C33.5033 20.3484 33.3178 20.7521 33.2221 20.9887C33.0955 21.3224 32.8675 21.764 32.6457 22.1938C32.4824 22.5099 32.3224 22.8198 32.2086 23.0755C30.4752 26.8883 27.7409 29.6513 24.0057 31.3647C24.2498 36.36 25.9099 41.3673 28.986 46.3866C31.85 50.978 39.0857 52.345 44.424 51.2001ZM26.1388 56C23.7772 54.7423 21.8578 50.8863 20.3802 44.432C19.8676 42.1878 19.5258 40.028 19.3548 37.9527C19.1839 35.8773 18.9154 34.526 18.5492 33.8985C18.183 33.247 17.5238 32.9212 16.5717 32.9212C14.7163 32.9212 13.7886 34.6345 13.7886 38.0612V40.7398C13.7886 45.4445 14.0945 51.7077 16.096 53.3263C19.1758 54.7905 22.5642 55.722 26.1388 56ZM5.82141 45.0572C2.1694 40.3385 0 34.4413 0 28.0438C0 21.6215 2.18623 15.7034 5.86387 10.9757C5.97737 12.5587 6.06774 14.5409 6.13496 16.922L6.20821 21.3381C6.23262 22.7859 6.24483 25.6335 6.24483 29.8806C6.24483 33.6095 6.10369 38.6683 5.82141 45.0572Z" fill="white"/>
<path d="M38.227 43.742C41.7782 43.742 44.657 40.8993 44.657 37.3925C44.657 33.8858 41.7782 31.043 38.227 31.043C34.6757 31.043 31.7969 33.8858 31.7969 37.3925C31.7969 40.8993 34.6757 43.742 38.227 43.742Z" fill="white"/>
<path d="M67.3555 47.2571C66.7804 47.2571 66.2027 47.2112 65.6221 47.1193C65.0471 47.0327 64.5049 46.9056 63.9956 46.738V45.2616C64.5214 45.4346 65.08 45.5671 65.6714 45.6591C66.2684 45.751 66.8324 45.797 67.3636 45.797C68.3604 45.797 69.0942 45.632 69.5652 45.3021C70.0362 44.9723 70.2716 44.4856 70.2716 43.842C70.2716 43.4797 70.195 43.1823 70.0416 42.9497C69.8938 42.7118 69.6501 42.5117 69.3106 42.3494C68.9711 42.1872 68.5083 42.0412 67.9222 41.9114L67.1336 41.733C65.9836 41.4842 65.1348 41.0894 64.5871 40.5486C64.0394 40.0078 63.7656 39.2913 63.7656 38.399C63.7656 37.6744 63.9436 37.0551 64.2995 36.5413C64.6556 36.0276 65.1895 35.6328 65.9014 35.357C66.6188 35.0812 67.5006 34.9434 68.5466 34.9434C69.0778 34.9434 69.5954 34.9785 70.0992 35.0488C70.6085 35.1137 71.0768 35.2083 71.5039 35.3327V36.8091C70.6167 36.5387 69.6501 36.4035 68.6041 36.4035C66.5833 36.4035 65.5729 37.0389 65.5729 38.3098C65.5729 38.6613 65.6386 38.956 65.77 39.1939C65.9069 39.4265 66.1287 39.6239 66.4354 39.7861C66.7476 39.9484 67.172 40.0889 67.7087 40.2079L68.4891 40.3864C69.7432 40.6568 70.655 41.0624 71.2246 41.6032C71.7941 42.1385 72.0789 42.8524 72.0789 43.7447C72.0789 44.4802 71.8927 45.1129 71.5204 45.6428C71.1479 46.1674 70.6085 46.5677 69.902 46.8435C69.1956 47.1193 68.3467 47.2571 67.3555 47.2571Z" fill="white"/>
<path d="M78.0978 45.7972C78.421 45.7972 78.7988 45.7513 79.2314 45.6593V47.0789C78.7331 47.1979 78.21 47.2573 77.6625 47.2573C76.6164 47.2573 75.8169 47.0005 75.2637 46.4867C74.7161 45.9729 74.4422 45.1861 74.4422 44.1262V39.689H72.75V38.2776H74.4422L74.7544 35.0977H76.2166V38.2776H79.1164V39.689H76.2166V43.826C76.2166 44.5398 76.3672 45.0482 76.6684 45.351C76.9751 45.6485 77.4515 45.7972 78.0978 45.7972Z" fill="white"/>
<path d="M83.6944 38.1406C84.5809 38.1406 85.304 38.2488 85.8627 38.4651C86.4265 38.6814 86.8485 39.0384 87.1279 39.5358C87.4072 40.0334 87.5465 40.7067 87.5465 41.5557V47.1042H86.0679L85.9369 46.147H85.8377C85.5366 46.4985 85.148 46.7716 84.6718 46.9663C84.1948 47.1556 83.6827 47.2503 83.1354 47.2503C82.5221 47.2503 81.9962 47.1502 81.5581 46.9501C81.1201 46.75 80.786 46.4661 80.556 46.0983C80.3259 45.7252 80.2109 45.2898 80.2109 44.7924C80.2109 44.0028 80.493 43.3917 81.0571 42.9591C81.6266 42.5211 82.5302 42.2479 83.7678 42.1398L85.8052 41.937V41.4584C85.8052 40.9554 85.7201 40.5634 85.5508 40.2821C85.3865 39.9955 85.1313 39.7954 84.7869 39.6819C84.4466 39.5629 83.9954 39.5034 83.4308 39.5034C83.0368 39.5034 82.6124 39.5358 82.1579 39.6007C81.7033 39.6656 81.2679 39.7657 80.8517 39.9009V38.5462C81.2624 38.4164 81.7224 38.3164 82.2317 38.2461C82.7411 38.1758 83.2285 38.1406 83.6944 38.1406ZM83.6285 45.9929C84.0338 45.9929 84.4224 45.9172 84.7944 45.7658C85.173 45.6143 85.5091 45.3872 85.8052 45.0844V43.0078L83.9079 43.1943C83.2285 43.2646 82.7383 43.4187 82.4372 43.6567C82.1359 43.8892 81.9853 44.2191 81.9853 44.6463C81.9853 45.0789 82.1222 45.4116 82.396 45.644C82.6699 45.8766 83.0807 45.9929 83.6285 45.9929Z" fill="white"/>
<path d="M89.9531 38.279H91.4151L91.5552 39.4309H91.6619C91.963 39.0306 92.3516 38.7224 92.8278 38.5061C93.3099 38.2898 93.8219 38.1816 94.364 38.1816C94.6492 38.1816 94.9178 38.2059 95.1696 38.2546V39.8445C94.9119 39.8013 94.6109 39.7796 94.2656 39.7796C93.8003 39.7796 93.3324 39.8742 92.8612 40.0636C92.39 40.2474 92.0122 40.5178 91.727 40.8748V47.1047H89.9531V38.279Z" fill="white"/>
<path d="M101.035 45.7972C101.359 45.7972 101.736 45.7513 102.169 45.6593V47.0789C101.67 47.1979 101.148 47.2573 100.6 47.2573C99.5538 47.2573 98.754 47.0005 98.2011 46.4867C97.6532 45.9729 97.3796 45.1861 97.3796 44.1262V39.689H95.6875V38.2776H97.3796L97.6915 35.0977H99.1543V38.2776H102.054V39.689H99.1543V43.826C99.1543 44.5398 99.3045 45.0482 99.6055 45.351C99.9124 45.6485 100.389 45.7972 101.035 45.7972Z" fill="white"/>
<path d="M110.875 43.2267H104.83C104.857 43.8703 104.983 44.3895 105.208 44.7842C105.438 45.1736 105.78 45.4602 106.234 45.644C106.689 45.8225 107.278 45.9118 108.001 45.9118C108.735 45.9118 109.534 45.7955 110.399 45.5629V46.9096C109.496 47.1475 108.617 47.2665 107.762 47.2665C106.179 47.2665 104.997 46.8987 104.214 46.1632C103.436 45.4224 103.047 44.265 103.047 42.6914C103.047 41.7072 103.203 40.877 103.516 40.201C103.833 39.5196 104.29 39.0059 104.887 38.6598C105.49 38.3136 106.213 38.1406 107.056 38.1406C108.293 38.1406 109.238 38.5327 109.89 39.3169C110.547 40.0956 110.875 41.2367 110.875 42.74V43.2267ZM107.039 39.3169C106.328 39.3169 105.786 39.5413 105.413 39.9901C105.041 40.439 104.843 41.1556 104.822 42.1398H109.2C109.178 41.1556 108.986 40.439 108.625 39.9901C108.269 39.5413 107.74 39.3169 107.039 39.3169Z" fill="white"/>
<path d="M112.781 38.279H114.243L114.383 39.4309H114.49C114.791 39.0306 115.18 38.7224 115.657 38.5061C116.139 38.2898 116.651 38.1816 117.193 38.1816C117.477 38.1816 117.746 38.2059 117.998 38.2546V39.8445C117.74 39.8013 117.439 39.7796 117.094 39.7796C116.628 39.7796 116.161 39.8742 115.689 40.0636C115.218 40.2474 114.84 40.5178 114.556 40.8748V47.1047H112.781V38.279Z" fill="white"/>
<path d="M63.2724 28.0047C63.7606 28.0047 64.1736 27.8379 64.5117 27.5041C64.8684 27.1519 65.0562 26.7347 65.0749 26.2526V10.8169C65.0562 10.1495 64.7463 9.64885 64.1455 9.31508C63.8827 9.16676 63.5916 9.09256 63.2724 9.09256H62.9062V8.81445H71.4684L71.4402 9.09256H71.1022C70.614 9.09256 70.1915 9.25949 69.8348 9.59318C69.4781 9.92696 69.2997 10.3349 69.2997 10.8169V26.2526C69.2997 26.7347 69.4781 27.1519 69.8348 27.5041C70.1915 27.8379 70.614 28.0047 71.1022 28.0047H71.4402L71.4684 28.2828H62.9062V28.0047H63.2724ZM91.2399 33.0109C89.8697 33.7155 88.6204 34.0678 87.4945 34.0678C86.3678 34.0678 85.3537 33.9102 84.4522 33.5949C82.218 32.7977 79.9366 30.9713 77.6083 28.116L70.201 19.1049L76.876 10.3719C77.0262 10.1865 77.1014 10.0197 77.1014 9.87137C77.1014 9.72297 77.0732 9.59318 77.0169 9.48201C76.8666 9.20382 76.6037 9.06481 76.2282 9.06481H75.9466V8.81445H82.3964V9.06481H82.2837C81.0256 9.06481 80.0023 9.50976 79.2137 10.3997L73.7216 16.8522L81.3824 26.2526C83.0911 28.4775 84.6965 30.0907 86.1985 31.0919C87.7005 32.0932 89.3718 32.6401 91.2116 32.7328L91.2399 33.0109Z" fill="white"/>
<path d="M94.3423 8.42383C97.8166 8.42383 100.576 9.33235 102.623 11.1495C104.669 12.9665 105.693 15.4325 105.693 18.5474C105.693 21.6624 104.669 24.1284 102.623 25.9454C100.576 27.7624 97.8166 28.671 94.3423 28.671C90.8688 28.671 88.1091 27.7624 86.0626 25.9454C84.0151 24.1284 82.9922 21.6624 82.9922 18.5474C82.9922 16.4893 83.4522 14.7001 84.3721 13.1797C85.3111 11.6408 86.6347 10.4634 88.3435 9.64759C90.0523 8.83172 92.0522 8.42383 94.3423 8.42383ZM89.4135 25.1111C90.6344 26.7056 92.2773 27.5029 94.3423 27.5029C96.408 27.5029 98.0418 26.7056 99.2435 25.1111C100.464 23.498 101.074 21.3101 101.074 18.5474C101.074 16.7304 100.801 15.1451 100.257 13.7916C99.7131 12.438 98.9333 11.3997 97.9192 10.6766C96.9059 9.95353 95.7133 9.59192 94.3423 9.59192C92.2773 9.59192 90.6344 10.3985 89.4135 12.0116C88.2117 13.6061 87.6112 15.7848 87.6112 18.5474C87.6112 21.3101 88.2117 23.498 89.4135 25.1111Z" fill="white"/>
<path d="M107.694 28.0047C108.182 28.0047 108.596 27.8379 108.934 27.5041C109.29 27.1519 109.478 26.7347 109.496 26.2526V10.8169C109.478 10.3349 109.29 9.92696 108.934 9.59318C108.596 9.25949 108.182 9.09256 107.694 9.09256H107.328V8.81445H115.89L115.862 9.09256H115.524C115.036 9.09256 114.613 9.25949 114.257 9.59318C113.9 9.92696 113.721 10.3349 113.721 10.8169V26.2526C113.721 26.7347 113.9 27.1519 114.257 27.5041C114.613 27.8379 115.036 28.0047 115.524 28.0047H115.862L115.89 28.2828H107.328V28.0047H107.694Z" fill="white"/>
</svg>
