<svg width="170" height="36" viewBox="0 0 170 36" fill="none" xmlns="http://www.w3.org/2000/svg">
<g clip-path="url(#clip0_6004_8376)">
<path d="M64.9208 10.2117V9.54834H60.9218L57.829 14.2807C57.5486 14.7217 57.2589 15.1746 56.9847 15.6791C56.7445 15.2461 56.4764 14.8031 56.129 14.2678L53.0166 9.54834H49.0156V10.2117L55.0589 19.179V25.7338H58.8837V19.179L64.9105 10.2346L64.9208 10.2117Z" fill="white"/>
<path d="M68.2913 14.0674C66.6499 14.1105 65.0929 14.7777 63.9605 15.9233C62.8282 17.0688 62.2124 18.5995 62.2478 20.181C62.2832 21.7625 62.9669 23.2663 64.1495 24.3637C65.3322 25.4611 66.9176 26.063 68.5594 26.0379C70.2163 26.0606 71.8264 25.5083 73.0955 24.4817L73.4315 24.2214L71.7748 21.7932L71.3625 22.1378C70.6576 22.7373 69.739 23.0505 68.7996 23.0117C68.2041 23.0638 67.607 22.9298 67.0968 22.6294C66.5865 22.3291 66.1902 21.8785 65.9666 21.3443H73.5614L73.6088 20.937C73.6668 20.5154 73.7013 20.0911 73.7119 19.6658C73.7099 16.2643 71.581 14.0674 68.2913 14.0674ZM68.2429 17.0707C68.7238 17.0429 69.197 17.1964 69.5626 17.4987C69.9281 17.801 70.1573 18.2284 70.2016 18.6905H65.9748C66.112 18.2163 66.409 17.7995 66.819 17.5057C67.229 17.2119 67.7289 17.0578 68.2398 17.0677L68.2429 17.0707Z" fill="white"/>
<path d="M75.1592 9.39648V25.734H78.7901L78.7643 9.39648H75.1592Z" fill="white"/>
<path d="M81.0005 9.39648V25.734H84.6314L84.6056 9.39648H81.0005Z" fill="white"/>
<path d="M92.4527 14.0671C91.622 14.0236 90.791 14.1477 90.0129 14.4312C89.2348 14.7148 88.5267 15.1517 87.9338 15.714C87.341 16.2762 86.8764 16.9515 86.5699 17.6965C86.2634 18.4416 86.1217 19.2401 86.1537 20.0409C86.1318 21.2483 86.4836 22.4345 87.1641 23.4485C87.8447 24.4626 88.8234 25.2584 89.9752 25.7345C91.1271 26.2107 92.4001 26.3457 93.6319 26.1223C94.8637 25.8988 95.9985 25.3271 96.8918 24.48C97.785 23.6329 98.3962 22.5487 98.6474 21.3657C98.8986 20.1826 98.7784 18.9543 98.3022 17.8374C97.8261 16.7204 97.0154 15.7652 95.9736 15.0937C94.9319 14.4223 93.7061 14.0649 92.4527 14.0671ZM92.4527 22.8456C91.866 22.895 91.2776 22.7726 90.7644 22.4943C90.2512 22.216 89.8373 21.7949 89.5768 21.2861C89.3163 20.7773 89.2215 20.2046 89.3047 19.643C89.3878 19.0813 89.6452 18.557 90.043 18.1387C90.4408 17.7204 90.9604 17.4277 91.5339 17.2988C92.1074 17.1699 92.7079 17.2108 93.2568 17.4163C93.8057 17.6218 94.2773 17.9823 94.6099 18.4504C94.9425 18.9186 95.1206 19.4726 95.1207 20.0399C95.1579 20.3973 95.1163 20.7582 94.9987 21.0991C94.8811 21.4399 94.6902 21.753 94.4383 22.0178C94.1865 22.2827 93.8794 22.4933 93.5372 22.636C93.195 22.7786 92.8255 22.85 92.4527 22.8456Z" fill="white"/>
<path d="M109.879 19.3055L109.829 19.4465C109.789 19.371 109.747 19.2975 109.706 19.227L107.481 14.9157L107.456 14.865H106.309L104.059 19.226L103.967 19.4038L103.933 19.3045L102.141 14.3496H98.5021C98.5021 14.7423 98.575 15.1318 98.7175 15.4997L102.716 25.8285H104.144L106.895 20.5489L109.624 25.8285H111.076L115.074 15.5195C115.214 15.1604 115.287 14.7806 115.291 14.3973V14.3506H111.67L109.879 19.3055Z" fill="white"/>
<path d="M138.575 14.0671C137.744 14.0236 136.913 14.1477 136.135 14.4312C135.357 14.7148 134.649 15.1517 134.056 15.714C133.463 16.2762 132.998 16.9515 132.692 17.6965C132.385 18.4416 132.243 19.2401 132.276 20.0409C132.254 21.2483 132.605 22.4345 133.286 23.4485C133.967 24.4626 134.945 25.2584 136.097 25.7345C137.249 26.2107 138.522 26.3457 139.754 26.1223C140.986 25.8988 142.12 25.3271 143.014 24.48C143.907 23.6329 144.518 22.5487 144.769 21.3657C145.02 20.1826 144.9 18.9543 144.424 17.8374C143.948 16.7204 143.137 15.7652 142.095 15.0937C141.054 14.4223 139.828 14.0649 138.575 14.0671ZM138.575 22.8456C137.988 22.895 137.399 22.7726 136.886 22.4943C136.373 22.216 135.959 21.7949 135.699 21.2861C135.438 20.7773 135.343 20.2046 135.426 19.643C135.51 19.0813 135.767 18.557 136.165 18.1387C136.563 17.7204 137.082 17.4277 137.656 17.2988C138.229 17.1699 138.83 17.2108 139.379 17.4163C139.927 17.6218 140.399 17.9823 140.732 18.4504C141.064 18.9186 141.242 19.4726 141.243 20.0399C141.28 20.3973 141.238 20.7582 141.121 21.0991C141.003 21.4399 140.812 21.753 140.56 22.0178C140.308 22.2827 140.001 22.4933 139.659 22.636C139.317 22.7786 138.947 22.85 138.575 22.8456Z" fill="white"/>
<path d="M151.211 14.1602C149.561 14.1996 147.94 14.582 146.458 15.2814L146.055 15.4582L147.146 18.2748L147.614 18.0593C148.602 17.5715 149.688 17.2983 150.797 17.2588C151.962 17.2588 152.532 17.6342 152.539 18.4059C152.23 18.392 151.95 18.385 151.649 18.385C147.959 18.385 145.669 19.982 145.669 22.5563C145.669 24.6161 147.195 25.9479 149.556 25.9479C150.909 25.9942 152.227 25.5246 153.224 24.6409L153.563 25.7334H156.17V18.5161C156.169 15.7879 154.317 14.1602 151.211 14.1602ZM150.334 23.1035C149.604 23.1035 149.25 22.8383 149.25 22.2931C149.25 21.0745 151.047 20.9434 151.821 20.9434C152.098 20.9434 152.336 20.9513 152.58 20.9692C152.576 21.539 152.337 22.0839 151.915 22.484C151.494 22.8842 150.926 23.107 150.334 23.1035Z" fill="white"/>
<path d="M166.393 7.9165V13.0452C166.393 13.7523 166.403 14.378 166.422 14.9968C165.504 14.3984 164.419 14.0822 163.311 14.09C160 14.09 157.597 16.563 157.597 19.9705C157.597 23.5151 159.947 25.991 163.311 25.991C164.682 26.0257 166.013 25.5391 167.015 24.6363L167.338 25.7288H169.998V7.9165H166.393ZM163.847 22.8457C163.262 22.8977 162.675 22.7784 162.163 22.5035C161.65 22.2285 161.235 21.8107 160.973 21.3047C160.711 20.7988 160.614 20.2284 160.694 19.6683C160.774 19.1082 161.028 18.5845 161.423 18.1659C161.817 17.7473 162.334 17.4533 162.905 17.3224C163.476 17.1915 164.075 17.2299 164.622 17.4326C165.17 17.6352 165.642 17.9925 165.976 18.4578C166.309 18.9231 166.489 19.4746 166.491 20.04C166.536 20.3969 166.5 20.7588 166.387 21.1012C166.274 21.4436 166.085 21.7586 165.834 22.0247C165.583 22.2908 165.276 22.5018 164.933 22.6435C164.59 22.7851 164.22 22.8541 163.847 22.8457Z" fill="white"/>
<path d="M12.6637 12.8228C12.7174 12.7585 12.7466 12.6784 12.7466 12.5959C12.7466 12.5134 12.7174 12.4333 12.6637 12.3689L7.35961 6.00675C7.34241 5.98613 7.32075 5.96935 7.29616 5.95758C7.27156 5.94581 7.24463 5.93931 7.21719 5.93855C7.18974 5.9378 7.16243 5.94282 7.13718 5.95322C7.11193 5.96362 7.08935 5.97917 7.07095 5.9988C5.26432 7.9423 3.9182 10.2412 3.12601 12.736C2.33382 15.2307 2.11452 17.8617 2.48331 20.4463C2.52115 20.7012 2.49316 20.9611 2.40186 21.2031L0.0121755 27.4381C-0.00351906 27.4784 -0.00373145 27.5228 0.0115463 27.5633C0.026824 27.6038 0.0565985 27.6377 0.0955168 27.6589C0.134435 27.6801 0.179934 27.6872 0.223816 27.679C0.267699 27.6707 0.307088 27.6476 0.334875 27.6139L6.87712 19.7342L12.6637 12.8228Z" fill="white"/>
<path d="M20.6054 23.8568C20.4991 23.7287 20.4411 23.5695 20.4411 23.4055C20.4411 23.2414 20.4991 23.0822 20.6054 22.954L34.5435 6.06241C34.6001 5.99383 34.6292 5.90791 34.6254 5.82037C34.6216 5.73282 34.5853 5.64952 34.5229 5.58572C31.8642 2.89583 28.4067 1.06442 24.6246 0.342841C20.8426 -0.378742 16.9214 0.0448724 13.3992 1.5555C13.3728 1.56704 13.3496 1.58422 13.3312 1.60575C13.3128 1.62728 13.2998 1.65258 13.2932 1.6797C13.2865 1.70683 13.2864 1.73508 13.2928 1.76226C13.2992 1.78945 13.312 1.81482 13.3301 1.83652L21.9229 12.1435C22.0303 12.272 22.0888 12.432 22.0888 12.5969C22.0888 12.7619 22.0303 12.9218 21.9229 13.0503L7.63733 30.1147C7.57923 30.1837 7.54934 30.2708 7.55333 30.3595C7.55732 30.4483 7.5949 30.5325 7.65898 30.5964C10.377 33.2698 13.8925 35.0604 17.7163 35.7191C21.54 36.3777 25.4818 35.8716 28.993 34.2711C29.0188 34.2592 29.0414 34.2419 29.0592 34.2204C29.0771 34.1989 29.0896 34.1737 29.0959 34.1469C29.1023 34.1201 29.1023 34.0922 29.0959 34.0654C29.0895 34.0385 29.0768 34.0135 29.059 33.992L20.6054 23.8568Z" fill="white"/>
<path d="M42.051 8.95518C42.0669 8.9147 42.0673 8.87007 42.0519 8.8294C42.0365 8.78872 42.0065 8.75473 41.9673 8.73356C41.9281 8.7124 41.8823 8.70545 41.8383 8.71404C41.7943 8.72264 41.7549 8.74622 41.7273 8.78042L35.2397 16.6502L29.8541 23.1772C29.8011 23.2413 29.7722 23.3207 29.7722 23.4027C29.7722 23.4846 29.8011 23.5641 29.8541 23.6282L34.9057 29.6864C34.9231 29.7073 34.9451 29.7243 34.9701 29.7362C34.9951 29.748 35.0225 29.7544 35.0503 29.7548C35.0782 29.7553 35.1058 29.7499 35.1312 29.7389C35.1567 29.7279 35.1792 29.7117 35.1974 29.6914C38.0943 26.437 39.6843 22.29 39.6789 18.0029C39.6803 17.3815 39.6459 16.7604 39.5758 16.1427C39.5388 15.8346 39.5644 15.5226 39.651 15.224L39.6706 15.1585L42.051 8.95518Z" fill="white"/>
<path d="M128.106 19.6886C129.149 19.3348 130.05 18.6764 130.686 17.8053C131.321 16.9342 131.659 15.8938 131.651 14.8291C131.651 11.6808 129.084 9.39551 125.547 9.39551H118.567V25.732H122.392V20.216H124.175L128.045 25.6922L128.074 25.732H132.065V25.0586L128.106 19.6886ZM125.255 17.0011H122.395V12.7047H125.307C125.622 12.6758 125.94 12.7103 126.24 12.8061C126.541 12.9019 126.817 13.0569 127.052 13.2612C127.287 13.4654 127.475 13.7145 127.605 13.9927C127.735 14.2708 127.803 14.5719 127.805 14.8768C127.802 16.2066 126.85 17.0011 125.256 17.0011H125.255Z" fill="white"/>
</g>
<defs>
<clipPath id="clip0_6004_8376">
<rect width="170" height="36" fill="white"/>
</clipPath>
</defs>
</svg>
