<svg width="138" height="80" viewBox="0 0 138 80" fill="none" xmlns="http://www.w3.org/2000/svg">
<g clip-path="url(#clip0_6004_8393)">
<path d="M0 4.31634H13.7909C13.8957 4.56041 14.0131 4.77327 14.0828 5.00045C14.5544 6.52628 15.0057 8.05772 15.4815 9.58252C16.0711 11.4757 16.6785 13.3613 17.277 15.2504C17.8475 17.0569 18.4195 18.8642 18.9928 20.6721C19.5693 22.4916 20.1567 24.3091 20.7327 26.1296C21.2835 27.8693 21.8175 29.6162 22.3757 31.3549C22.7079 32.389 23.0847 33.4098 23.4186 34.4429C23.6607 35.193 23.8572 35.9569 24.0909 36.7096C24.3346 37.4965 24.6056 38.2758 24.8524 39.0633C25.1988 40.1675 25.5243 41.2778 25.8764 42.38C26.1961 43.3824 26.5499 44.3755 26.8685 45.3769C27.1185 46.1628 27.3323 46.9595 27.5734 47.7485C27.695 48.1471 27.8412 48.539 28.0068 49.0241C29.6031 44.0046 31.1821 39.0628 32.7438 34.1174C34.3103 29.1496 35.8427 24.1709 37.4138 19.2041C38.9782 14.2572 40.5016 9.29701 42.1168 4.32146C46.65 4.32146 51.1198 4.32146 55.5901 4.32606C55.7253 4.32606 55.8605 4.39514 55.9753 4.4284C56.0943 4.86537 56.1126 58.9087 55.991 59.5017C55.8469 59.5253 55.6766 59.5769 55.5105 59.5774C53.1742 59.5826 50.8382 59.5826 48.5026 59.5774C48.3833 59.5695 48.2647 59.5545 48.1473 59.5324C48.1177 59.4 48.0956 59.2661 48.0813 59.1313C48.0697 58.921 48.0776 58.7102 48.0776 58.4999V12.889H46.9356C42.0562 27.6706 37.1743 42.46 32.29 57.257C31.8603 57.3941 24.4814 57.432 23.7477 57.302C18.841 42.5207 13.9263 27.7162 9.00351 12.8885H7.97214V59.3636C7.75151 59.6481 7.50048 59.5769 7.27722 59.5774C4.85113 59.5822 2.42539 59.5832 0 59.5805V4.31634ZM138 34.8425C137.898 35.3884 137.763 35.9303 137.701 36.4798C137.475 38.4728 136.979 40.3967 136.321 42.2945C135.889 43.5549 135.378 44.7882 134.791 45.9873C133.903 47.7839 132.84 49.4924 131.615 51.0892C130.388 52.7049 129.004 54.2014 127.483 55.5582C126.927 56.051 126.382 56.5606 125.792 57.0088C125.044 57.5747 124.267 58.1048 123.478 58.6155C122.674 59.1359 121.862 59.6506 121.015 60.0994C120.119 60.5737 119.175 60.96 118.258 61.3975C116.853 62.0693 115.369 62.5293 113.866 62.9218C112.535 63.2692 111.201 63.6079 109.816 63.7103C109.215 63.7548 108.624 63.9006 108.028 64.0004H102.316C101.877 63.9328 101.439 63.8663 101.001 63.7957C100.029 63.6422 99.048 63.5296 98.0864 63.326C97.0906 63.1152 96.1075 62.8251 95.1227 62.5559C93.703 62.1676 92.3452 61.6037 91.0198 60.9943C89.7589 60.4161 88.5237 59.7739 87.3801 58.9829C86.3718 58.2855 85.32 57.6423 84.3584 56.8886C83.4523 56.1789 82.6148 55.3802 81.7904 54.5768C81.0398 53.8523 80.3282 53.0903 79.6585 52.2937C78.9374 51.4239 78.2755 50.5059 77.6283 49.5818C77.1236 48.8614 76.665 48.1092 76.2175 47.353C75.859 46.7487 75.5509 46.1162 75.2144 45.4997C75.1342 45.3518 75.0289 45.2167 74.9136 45.0433L74.9801 44.9506C74.4168 43.4479 73.7161 42.0039 73.388 40.43C73.1884 39.4701 72.8891 38.5286 72.7288 37.5646C72.5422 36.4445 72.4368 35.3096 72.3383 34.1778C72.267 33.3591 72.2403 32.5343 72.2335 31.7125C72.2256 30.1519 72.396 28.6031 72.637 27.0624C72.7665 26.233 72.8938 25.3979 73.104 24.5859C73.5039 23.0412 73.921 21.4985 74.5845 20.032C74.8596 19.4246 75.1133 18.8081 75.3989 18.2058C75.8827 17.1922 76.431 16.2092 77.0408 15.2626C77.8101 14.0602 78.5989 12.8711 79.5563 11.8022C80.3812 10.8812 81.1993 9.94888 82.0886 9.09029C82.9168 8.29055 83.7938 7.54043 84.7147 6.84403C85.7419 6.06628 86.8157 5.34174 87.9116 4.65763C88.6777 4.17921 89.5026 3.78471 90.3223 3.39277C91.3018 2.92407 92.2781 2.43184 93.3006 2.07008C94.6286 1.60036 95.9901 1.20739 97.3574 0.859453C98.4123 0.590823 99.4977 0.433227 100.573 0.245441C100.995 0.17176 101.427 0.152828 101.854 0.100125C102.011 0.0811929 102.162 0.036677 102.316 0.00341797H107.814C108.163 0.0658426 108.509 0.153339 108.862 0.185575C110.255 0.314006 111.64 0.500768 112.991 0.853313C113.838 1.07436 114.675 1.33378 115.51 1.59269C116.158 1.79378 116.812 1.98719 117.438 2.24303C119.39 3.03869 121.309 3.89728 123.046 5.10074C123.615 5.49525 124.225 5.83346 124.782 6.24229C126.879 7.77733 128.79 9.51703 130.461 11.4952C131.362 12.5585 132.195 13.6743 132.957 14.8364C133.849 16.1895 134.63 17.6096 135.291 19.0833C135.905 20.4649 136.463 21.8674 136.852 23.3251C137.171 24.5238 137.454 25.7317 137.7 26.9488C137.829 27.5951 137.836 28.2644 137.906 28.9229C137.918 29.0395 137.971 29.1526 138.005 29.2678L138 34.8425ZM72.7088 31.9044C72.8084 33.2824 72.8603 34.6675 73.0233 36.0367C73.1491 37.0933 73.4048 38.1346 73.6223 39.181C74.0373 41.1822 74.7705 43.08 75.6289 44.9333C75.9313 45.5872 76.2678 46.2263 76.6095 46.8613C76.9763 47.5423 77.3175 48.2428 77.7546 48.8778C78.4028 49.8208 79.102 50.7341 79.8241 51.6255C80.4792 52.4339 81.1605 53.228 81.8932 53.9695C82.5744 54.6587 83.3301 55.2773 84.0659 55.9138C84.59 56.3651 85.1036 56.8349 85.6754 57.2212C86.7235 57.9283 87.7832 58.6211 88.8848 59.2423C90.0157 59.8798 91.1676 60.5046 92.3714 60.9917C94.1891 61.736 96.0672 62.331 97.9863 62.7703C99.5302 63.1182 101.092 63.304 102.659 63.4539C103.69 63.5474 104.726 63.5815 105.76 63.5562C106.797 63.5358 107.834 63.436 108.868 63.3393C109.545 63.2758 110.22 63.1786 110.887 63.0553C111.621 62.9192 112.348 62.7227 113.083 62.5754C114.426 62.3057 115.698 61.8165 116.977 61.3596C118.274 60.8982 119.522 60.3156 120.704 59.6199C121.715 59.0238 122.747 58.4589 123.718 57.803C124.598 57.2063 125.421 56.5238 126.24 55.8458C126.96 55.2487 127.662 54.627 128.329 53.9741C128.906 53.4082 129.446 52.7972 129.967 52.1832C130.67 51.3461 131.394 50.5172 132.01 49.6192C132.705 48.6035 133.29 47.5162 133.917 46.4575C134.602 45.3012 135.099 44.0593 135.574 42.8144C136.2 41.1724 136.674 39.4787 136.989 37.7539C137.226 36.4609 137.427 35.1653 137.461 33.8493C137.473 33.3811 137.517 32.914 137.527 32.4458C137.539 31.8742 137.555 31.3006 137.527 30.7301C137.492 30.0522 137.422 29.3752 137.348 28.6993C137.267 27.9696 137.223 27.2297 137.061 26.516C136.772 25.2368 136.433 23.9642 136.066 22.7029C135.607 21.1382 134.971 19.6411 134.229 18.1782C133.647 17.0305 132.982 15.9386 132.29 14.8554C131.234 13.1991 129.986 11.687 128.61 10.284C127.731 9.38911 126.775 8.56173 125.815 7.74969C124.142 6.33644 122.29 5.16624 120.34 4.15721C119.292 3.62143 118.217 3.13895 117.118 2.71172C115.579 2.09741 113.989 1.60929 112.366 1.25242C111.281 1.01807 110.194 0.797029 109.082 0.71209C107.958 0.62664 106.836 0.5197 105.711 0.448065C105.393 0.42811 105.062 0.558587 104.75 0.517653C104.2 0.451115 103.643 0.454727 103.093 0.528398C101.974 0.662969 100.84 0.700322 99.7309 0.891177C97.4162 1.28528 95.151 1.91854 92.9735 2.78029C91.4253 3.39156 89.9294 4.12233 88.5001 4.96566C87.2925 5.68589 86.1272 6.4717 85.0098 7.31937C83.8993 8.15699 82.8821 9.08824 81.9021 10.0528C81.0216 10.9195 80.225 11.8743 79.4468 12.8322C78.1712 14.3994 77.122 16.1136 76.185 17.8922C75.3989 19.3878 74.7658 20.951 74.2391 22.5484C73.6783 24.2491 73.2874 25.9989 73.072 27.7731C72.9038 29.1439 72.757 30.5142 72.7088 31.9044Z" fill="white"/>
<path d="M102.677 31.1154C103.386 30.5888 104.103 30.203 104.936 30.0731C106.227 29.8684 107.479 29.9554 108.626 30.6359C109.399 31.0964 109.863 31.8128 110.155 32.6136C110.65 33.971 110.721 35.3766 110.225 36.7392C109.649 38.329 108.48 39.3042 106.746 39.5939C105.683 39.7771 104.592 39.7402 103.544 39.4854C102.182 39.1543 101.242 38.3377 100.651 37.102C100.28 36.3268 100.157 35.5015 100.031 34.669C99.8509 33.4829 99.8734 32.2902 99.9509 31.1062C100.02 30.0454 100.14 28.9679 100.419 27.9455C100.682 26.9913 101.18 26.0886 102.004 25.4444C102.675 24.92 103.468 24.5971 104.324 24.55C105.128 24.5078 105.934 24.5286 106.735 24.6125C108.202 24.7624 109.751 26.1127 109.967 27.9563C110.017 28.381 110.214 28.8138 109.931 29.2314C109.209 29.0692 107.739 29.1352 107.41 29.3562C107.296 28.8563 107.197 28.361 107.068 27.8724C106.985 27.5664 106.806 27.2931 106.557 27.0906C106.308 26.8881 106.001 26.7663 105.677 26.7421C105.463 26.7262 105.245 26.7543 105.031 26.7318C104.18 26.6433 103.451 27.2435 103.15 28.0213C102.822 28.8696 102.77 29.761 102.697 30.6487C102.688 30.7864 102.686 30.9214 102.677 31.1154ZM105.29 37.4719C106.276 37.5461 107.013 37.1138 107.439 36.2439C107.848 35.4078 107.876 34.5231 107.521 33.6507C107.357 33.2465 107.187 32.8515 106.783 32.5859C106.217 32.2139 105.63 32.0998 104.954 32.1955C104.106 32.3147 103.51 32.7425 103.193 33.4788C102.855 34.2642 102.756 35.0829 103.061 35.9313C103.407 36.9014 104.121 37.5574 105.29 37.4719Z" fill="white"/>
</g>
<path d="M7.35535 74.893V78.6096C7.22419 78.7923 7.01899 78.9929 6.73976 79.2112C6.46475 79.4251 6.09878 79.6101 5.64185 79.766C5.18492 79.922 4.61587 80 3.9347 80C3.35507 80 2.8241 79.8975 2.34178 79.6925C1.85946 79.4831 1.44272 79.1778 1.09156 78.7767C0.744631 78.3757 0.475971 77.8877 0.285583 77.3128C0.0951943 76.7335 0 76.074 0 75.3342V74.6591C0 73.9238 0.0867326 73.2687 0.260198 72.6939C0.437894 72.1145 0.691745 71.6243 1.02175 71.2233C1.35176 70.8222 1.74946 70.5192 2.21485 70.3142C2.68448 70.1047 3.21545 70 3.80777 70C4.5651 70 5.19126 70.1337 5.68627 70.4011C6.18551 70.664 6.57052 71.0294 6.8413 71.4973C7.11207 71.9652 7.28342 72.5 7.35535 73.1016H5.79416C5.74339 72.7629 5.64396 72.4599 5.49588 72.1925C5.35204 71.9251 5.14472 71.7157 4.87395 71.5642C4.6074 71.4082 4.26047 71.3302 3.83316 71.3302C3.46507 71.3302 3.14141 71.4037 2.86218 71.5508C2.58294 71.6979 2.35024 71.914 2.16408 72.1992C1.98216 72.4844 1.84465 72.832 1.75158 73.242C1.6585 73.652 1.61196 74.1199 1.61196 74.6457V75.3342C1.61196 75.869 1.66484 76.3436 1.77061 76.758C1.88062 77.1725 2.03716 77.5223 2.24024 77.8075C2.44755 78.0927 2.69929 78.3088 2.99545 78.4559C3.29161 78.5985 3.62585 78.6698 3.99816 78.6698C4.36201 78.6698 4.66029 78.6386 4.89299 78.5762C5.12568 78.5094 5.30973 78.4314 5.44511 78.3422C5.58473 78.2487 5.69262 78.1595 5.76877 78.0749V76.143H3.84585V74.893H7.35535Z" fill="white"/>
<path d="M15.1676 78.5361V79.8663H10.2619V78.5361H15.1676ZM10.7125 70.1337V79.8663H9.11961V70.1337H10.7125ZM14.5267 74.1979V75.508H10.2619V74.1979H14.5267ZM15.1359 70.1337V71.4706H10.2619V70.1337H15.1359Z" fill="white"/>
<path d="M23.7986 70.1337V79.8663H22.2057L18.0615 72.8944V79.8663H16.4686V70.1337H18.0615L22.2183 77.119V70.1337H23.7986Z" fill="white"/>
<path d="M29.2056 76.2366H26.8004V74.9064H29.2056C29.6245 74.9064 29.9629 74.8351 30.221 74.6925C30.4791 74.5499 30.6674 74.3538 30.7858 74.1043C30.9085 73.8503 30.9699 73.5606 30.9699 73.2353C30.9699 72.9278 30.9085 72.6404 30.7858 72.373C30.6674 72.1012 30.4791 71.8828 30.221 71.7179C29.9629 71.553 29.6245 71.4706 29.2056 71.4706H27.289V79.8663H25.6961V70.1337H29.2056C29.9206 70.1337 30.5278 70.2674 31.027 70.5348C31.5305 70.7977 31.9134 71.1631 32.1757 71.631C32.438 72.0945 32.5691 72.6248 32.5691 73.2219C32.5691 73.8503 32.438 74.3895 32.1757 74.8396C31.9134 75.2897 31.5305 75.635 31.027 75.8757C30.5278 76.1163 29.9206 76.2366 29.2056 76.2366Z" fill="white"/>
<path d="M36.6308 71.4305L33.8701 79.8663H32.2011L35.6788 70.1337H36.745L36.6308 71.4305ZM38.9408 79.8663L36.1738 71.4305L36.0533 70.1337H37.1258L40.6162 79.8663H38.9408ZM38.8075 76.2567V77.5869H33.7813V76.2567H38.8075Z" fill="white"/>
<path d="M44.3352 79.8663H42.3615L42.3742 78.5361H44.3352C44.9063 78.5361 45.3844 78.4046 45.7694 78.1417C46.1587 77.8788 46.4506 77.5022 46.6452 77.012C46.8441 76.5218 46.9435 75.9381 46.9435 75.2607V74.7326C46.9435 74.2068 46.8864 73.7411 46.7721 73.3356C46.6621 72.93 46.4971 72.5891 46.2771 72.3128C46.0613 72.0365 45.7948 71.8271 45.4775 71.6845C45.1644 71.5419 44.8027 71.4706 44.3923 71.4706H42.3234V70.1337H44.3923C45.0057 70.1337 45.5663 70.2429 46.074 70.4612C46.5817 70.6751 47.0196 70.9848 47.3877 71.3904C47.76 71.7959 48.0456 72.2816 48.2445 72.8476C48.4433 73.4135 48.5427 74.0463 48.5427 74.746V75.2607C48.5427 75.9603 48.4433 76.5931 48.2445 77.1591C48.0456 77.725 47.76 78.2108 47.3877 78.6163C47.0154 79.0174 46.5712 79.3271 46.055 79.5455C45.5431 79.7594 44.9698 79.8663 44.3352 79.8663ZM43.2436 70.1337V79.8663H41.6507V70.1337H43.2436Z" fill="white"/>
<path d="M57.7576 70.0735H57.9479V71.3904H57.8401C57.2943 71.3904 56.8225 71.4795 56.4248 71.6578C56.0314 71.836 55.7077 72.0811 55.4539 72.393C55.2 72.705 55.0096 73.0704 54.8827 73.4893C54.76 73.9037 54.6986 74.3449 54.6986 74.8128V76.3436C54.6986 76.7313 54.7388 77.0744 54.8192 77.373C54.8996 77.6671 55.0117 77.9144 55.1556 78.115C55.3037 78.3111 55.4729 78.4603 55.6633 78.5628C55.8537 78.6653 56.0589 78.7166 56.2789 78.7166C56.5073 78.7166 56.7146 78.6676 56.9008 78.5695C57.087 78.467 57.2456 78.3266 57.3768 78.1484C57.5079 77.9701 57.6074 77.7585 57.6751 77.5134C57.7427 77.2683 57.7766 77.0009 57.7766 76.7112C57.7766 76.4349 57.7427 76.1765 57.6751 75.9358C57.6116 75.6907 57.5164 75.4768 57.3895 75.2941C57.2625 75.107 57.1039 74.9621 56.9135 74.8596C56.7273 74.7527 56.5116 74.6992 56.2662 74.6992C55.9616 74.6992 55.6844 74.775 55.4348 74.9265C55.1894 75.078 54.9906 75.2763 54.8383 75.5214C54.6902 75.762 54.6098 76.0183 54.5971 76.2901L54.0132 76.0896C54.0471 75.6751 54.1338 75.303 54.2734 74.9733C54.4173 74.6435 54.6056 74.3627 54.8383 74.131C55.071 73.8993 55.3396 73.7233 55.6442 73.6029C55.9531 73.4782 56.2916 73.4158 56.6596 73.4158C57.1081 73.4158 57.4974 73.5049 57.8274 73.6832C58.1574 73.8614 58.4303 74.1043 58.646 74.4118C58.866 74.7148 59.0289 75.0624 59.1347 75.4545C59.2447 75.8422 59.2997 76.2478 59.2997 76.6711C59.2997 77.139 59.232 77.5758 59.0966 77.9813C58.9612 78.3824 58.7624 78.7344 58.5001 79.0374C58.242 79.3405 57.9268 79.5766 57.5545 79.746C57.1864 79.9153 56.7675 80 56.2979 80C55.8029 80 55.3608 79.8997 54.9715 79.6992C54.5865 79.4987 54.2586 79.2224 53.9879 78.8703C53.7213 78.5183 53.5182 78.1127 53.3786 77.6537C53.239 77.1947 53.1692 76.709 53.1692 76.1965V75.5281C53.1692 74.7883 53.258 74.0909 53.4357 73.4358C53.6134 72.7763 53.8863 72.1947 54.2544 71.6912C54.6267 71.1876 55.1027 70.7932 55.6823 70.508C56.2619 70.2184 56.9537 70.0735 57.7576 70.0735Z" fill="white"/>
<path d="M64.6496 70.1337H66.0712L68.743 77.6404L71.4084 70.1337H72.83L69.3015 79.8663H68.1718L64.6496 70.1337ZM64.0023 70.1337H65.3541L65.5889 76.631V79.8663H64.0023V70.1337ZM72.1255 70.1337H73.4837V79.8663H71.8907V76.631L72.1255 70.1337Z" fill="white"/>
<path d="M82.7429 74.7326V75.2674C82.7429 76.0027 82.6519 76.6622 82.47 77.246C82.2881 77.8298 82.0279 78.3266 81.6894 78.7366C81.3552 79.1466 80.9532 79.4608 80.4836 79.6791C80.014 79.893 79.4936 80 78.9224 80C78.3555 80 77.8372 79.893 77.3676 79.6791C76.9022 79.4608 76.4981 79.1466 76.1554 78.7366C75.8127 78.3266 75.5462 77.8298 75.3558 77.246C75.1696 76.6622 75.0766 76.0027 75.0766 75.2674V74.7326C75.0766 73.9973 75.1696 73.34 75.3558 72.7607C75.542 72.1769 75.8043 71.68 76.1427 71.2701C76.4854 70.8556 76.8895 70.5414 77.3549 70.3275C77.8245 70.1092 78.3428 70 78.9097 70C79.4809 70 80.0013 70.1092 80.4709 70.3275C80.9405 70.5414 81.3446 70.8556 81.6831 71.2701C82.0215 71.68 82.2817 72.1769 82.4636 72.7607C82.6498 73.34 82.7429 73.9973 82.7429 74.7326ZM81.15 75.2674V74.7193C81.15 74.1756 81.0992 73.6965 80.9977 73.2821C80.9003 72.8632 80.7544 72.5134 80.5598 72.2326C80.3694 71.9474 80.1346 71.7335 79.8553 71.5909C79.5761 71.4439 79.2609 71.3703 78.9097 71.3703C78.5586 71.3703 78.2455 71.4439 77.9705 71.5909C77.6955 71.7335 77.4607 71.9474 77.266 72.2326C77.0757 72.5134 76.9297 72.8632 76.8281 73.2821C76.7266 73.6965 76.6758 74.1756 76.6758 74.7193V75.2674C76.6758 75.8111 76.7266 76.2923 76.8281 76.7112C76.9297 77.1301 77.0778 77.4844 77.2724 77.7741C77.4712 78.0593 77.7082 78.2754 77.9832 78.4225C78.2582 78.5651 78.5713 78.6364 78.9224 78.6364C79.2778 78.6364 79.593 78.5651 79.868 78.4225C80.143 78.2754 80.3757 78.0593 80.5661 77.7741C80.7565 77.4844 80.9003 77.1301 80.9977 76.7112C81.0992 76.2923 81.15 75.8111 81.15 75.2674Z" fill="white"/>
<path d="M84.9831 70.1337H86.4047L89.0765 77.6404L91.7419 70.1337H93.1635L89.6349 79.8663H88.5053L84.9831 70.1337ZM84.3358 70.1337H85.6876L85.9224 76.631V79.8663H84.3358V70.1337ZM92.4591 70.1337H93.8172V79.8663H92.2242V76.631L92.4591 70.1337Z" fill="white"/>
<path d="M101.756 78.5361V79.8663H96.8507V78.5361H101.756ZM97.3013 70.1337V79.8663H95.7084V70.1337H97.3013ZM101.115 74.1979V75.508H96.8507V74.1979H101.115ZM101.725 70.1337V71.4706H96.8507V70.1337H101.725Z" fill="white"/>
<path d="M110.387 70.1337V79.8663H108.794L104.65 72.8944V79.8663H103.057V70.1337H104.65L108.807 77.119V70.1337H110.387Z" fill="white"/>
<path d="M115.896 70.1337V79.8663H114.316V70.1337H115.896ZM118.796 70.1337V71.4706H111.441V70.1337H118.796Z" fill="white"/>
<path d="M125.2 70.1337H126.786V76.6377C126.786 77.3775 126.634 77.9969 126.329 78.496C126.025 78.9951 125.61 79.3717 125.085 79.6257C124.565 79.8752 123.983 80 123.34 80C122.676 80 122.084 79.8752 121.563 79.6257C121.043 79.3717 120.632 78.9951 120.332 78.496C120.036 77.9969 119.888 77.3775 119.888 76.6377V70.1337H121.474V76.6377C121.474 77.1056 121.55 77.4911 121.703 77.7941C121.855 78.0927 122.071 78.3133 122.35 78.4559C122.629 78.5985 122.959 78.6698 123.34 78.6698C123.721 78.6698 124.049 78.5985 124.324 78.4559C124.603 78.3133 124.819 78.0927 124.971 77.7941C125.123 77.4911 125.2 77.1056 125.2 76.6377V70.1337Z" fill="white"/>
<path d="M129.166 70.1337H130.588L133.259 77.6404L135.925 70.1337H137.346L133.818 79.8663H132.688L129.166 70.1337ZM128.519 70.1337H129.87L130.105 76.631V79.8663H128.519V70.1337ZM136.642 70.1337H138V79.8663H136.407V76.631L136.642 70.1337Z" fill="white"/>
<defs>
<clipPath id="clip0_6004_8393">
<rect width="138" height="64" fill="white"/>
</clipPath>
</defs>
</svg>
