<svg width="178" height="36" viewBox="0 0 178 36" fill="none" xmlns="http://www.w3.org/2000/svg">
<path d="M29.2265 24.2844C27.9359 26.9511 25.8602 29.1169 23.3035 30.4644C20.7467 31.8119 17.8434 32.2703 15.0187 31.7726L14.5094 34.0018V23.419C14.5094 23.038 14.6546 22.6725 14.913 22.403C15.1715 22.1336 15.522 21.9822 15.8875 21.9822H21.9438C23.0355 21.9827 24.0931 21.5851 24.9332 20.8582C25.7734 20.1313 26.3434 19.1209 26.5443 18.002H14.041C13.6172 18.0015 13.1974 18.0881 12.8057 18.257C12.4141 18.4259 12.0582 18.6737 11.7585 18.9862C11.4588 19.2986 11.2211 19.6697 11.0592 20.0781C10.8972 20.4865 10.8141 20.9242 10.8146 21.3661V30.2324C9.00474 29.1964 7.44938 27.7377 6.27031 25.9705C5.09125 24.2033 4.32048 22.1755 4.01835 20.0459C3.71622 17.9163 3.89093 15.7427 4.52881 13.6952C5.16668 11.6478 6.2504 9.78203 7.69513 8.2441L7.80009 8.13263C9.04216 6.83482 10.5175 5.80519 12.1417 5.10266C13.7659 4.40014 15.5071 4.03853 17.2655 4.03853C19.0239 4.03853 20.765 4.40014 22.3892 5.10266C24.0134 5.80519 25.4888 6.83482 26.7309 8.13263L26.8378 8.2441H15.4929C14.878 8.24222 14.2689 8.36712 13.7005 8.61159C13.1321 8.85607 12.6156 9.2153 12.1809 9.66864C11.7461 10.122 11.4016 10.6605 11.1671 11.2531C10.9326 11.8458 10.8128 12.4809 10.8146 13.122V15.9045C10.8941 15.5739 11.0074 15.2532 11.1528 14.948C11.4904 14.233 11.9909 13.6151 12.6105 13.1484C13.4077 12.5466 14.3669 12.2232 15.351 12.2243H27.4811C28.51 12.2251 29.5105 11.8721 30.3274 11.2199C31.1444 10.5678 31.7323 9.65286 32 8.61698C31.9261 8.49134 31.8523 8.36772 31.7745 8.2441C30.3638 5.967 28.4799 4.04986 26.2625 2.63456C23.5548 0.907472 20.4415 -0.00438209 17.2674 1.58336e-05C16.3444 -0.000641586 15.4228 0.0752553 14.5114 0.22699C11.5209 0.729592 8.71043 2.04589 6.36376 4.04302C3.84618 6.1818 1.95685 9.01631 0.911927 12.2223C-0.120992 15.4034 -0.27996 18.8223 0.452991 22.0927C1.18594 25.3631 2.78159 28.3545 5.05959 30.7289C6.70335 32.4425 8.66127 33.7934 10.8166 34.7009C11.8828 35.1492 12.9899 35.4839 14.1207 35.7C14.2509 35.7264 14.3831 35.7507 14.5094 35.773C15.421 35.9237 16.3425 35.9996 17.2655 36C20.3779 36.0057 23.4333 35.1294 26.105 33.4647C28.4987 31.9754 30.5118 29.9049 31.9728 27.4296C31.7717 26.7236 31.4203 26.074 30.9448 25.5293C30.4692 24.9847 29.8818 24.5592 29.2265 24.2844Z" fill="white"/>
<path d="M40 17.8449C40.0005 16.7555 40.2129 15.6752 40.6268 14.657C41.048 13.6113 41.668 12.6456 42.4568 11.8067C43.2724 10.9385 44.2734 10.24 45.3953 9.75619C46.6369 9.23445 47.9867 8.97675 49.3475 9.00165C51.0942 9.00165 52.6037 9.36006 53.8761 10.0769C55.0903 10.7365 56.0772 11.708 56.7199 12.8762L53.8882 14.7022C53.6095 14.0875 53.1792 13.5432 52.6326 13.1139C52.1459 12.7378 51.5831 12.4574 50.978 12.2896C50.4137 12.1344 49.8288 12.0543 49.2407 12.0519C48.4001 12.0329 47.5681 12.2133 46.8222 12.5763C46.1508 12.9161 45.5636 13.3847 45.099 13.9515C44.6346 14.5208 44.2861 15.1654 44.0711 15.8529C43.8508 16.5337 43.7381 17.2411 43.7366 17.9524C43.7343 18.7228 43.8705 19.4881 44.1397 20.2161C44.3915 20.9165 44.7759 21.5689 45.2743 22.1421C45.7568 22.693 46.3576 23.1429 47.0378 23.4625C47.7381 23.791 48.5119 23.9584 49.2951 23.9511C49.9034 23.9475 50.5073 23.8545 51.0848 23.6757C51.7001 23.4867 52.2712 23.1896 52.7676 22.8004C53.3005 22.3841 53.7157 21.8516 53.9769 21.2498L57 22.8758C56.6189 23.7667 55.9864 24.5439 55.17 25.1244C54.3172 25.745 53.3537 26.2195 52.3242 26.526C51.3159 26.8359 50.2617 26.9957 49.2004 26.9994C47.914 27.0139 46.6422 26.7445 45.488 26.2128C44.3803 25.6992 43.3935 24.9834 42.5858 24.1076C41.7755 23.2347 41.1338 22.2363 40.6893 21.1574C40.2394 20.1035 40.0056 18.9798 40 17.8449Z" fill="white"/>
<path d="M67 16.2426C65.9162 16.228 64.8431 16.441 63.8636 16.8652C62.9946 17.2298 62.2914 17.8592 61.8742 18.6455V27H58V13.3166H61.5478V16.1372C62.0266 15.2523 62.7286 14.4839 63.5959 13.8954C64.3588 13.3731 65.27 13.0624 66.2208 13.0003H66.7105C66.8078 12.9983 66.905 13.007 67 13.0261V16.2426Z" fill="white"/>
<path d="M69.6107 29.6101C69.9031 29.6813 70.1759 29.7439 70.429 29.7977C70.6419 29.8461 70.8584 29.8731 71.0758 29.8784C71.3513 29.8899 71.6224 29.8004 71.8462 29.6242C72.104 29.3771 72.3085 29.0704 72.4451 28.7264C72.6928 28.1436 72.8968 27.5397 73.0551 26.9207L68 13H71.3947L74.8373 23.2771L77.867 13H81L75.6279 29.6787C75.4309 30.2977 75.1282 30.87 74.7359 31.3653C74.3252 31.8786 73.8161 32.2864 73.245 32.5596C72.6178 32.8602 71.9391 33.0102 71.2546 32.9995C70.993 32.9994 70.7317 32.9771 70.4732 32.9329C70.1834 32.8803 69.8975 32.8041 69.6181 32.7049L69.6107 29.6101Z" fill="white"/>
<path d="M91.0957 27.5138C90.1254 27.5342 89.1679 27.2799 88.3239 26.7776C87.5406 26.3042 86.895 25.616 86.4565 24.787V33H83V13.2171H86.0169V15.6461C86.514 14.8464 87.1854 14.1823 87.9757 13.7086C88.8033 13.2273 89.7372 12.9832 90.6834 13.0009C91.5502 12.9914 92.4084 13.1829 93.1965 13.5618C93.9584 13.9328 94.6386 14.4654 95.1942 15.126C95.7662 15.8014 96.2164 16.5802 96.5227 17.4245C96.8448 18.3163 97.0064 19.263 96.9993 20.2166C97.0157 21.4909 96.7556 22.7525 96.2387 23.906C95.7724 24.9591 95.0524 25.8666 94.1496 26.5389C93.2547 27.1925 92.1861 27.5336 91.0957 27.5138ZM89.9286 24.4322C90.4297 24.4392 90.9251 24.3211 91.3739 24.0875C91.8042 23.8559 92.1853 23.5354 92.4943 23.1453C92.8135 22.7459 93.0583 22.2872 93.2159 21.7931C93.3801 21.2854 93.4629 20.7526 93.461 20.2166C93.4666 19.6646 93.3749 19.1163 93.1907 18.5993C93.016 18.1122 92.7516 17.6659 92.4126 17.2858C92.0732 16.9098 91.6659 16.6083 91.2144 16.3987C90.7472 16.1844 90.2421 16.076 89.7322 16.0805C89.3943 16.0824 89.0589 16.1403 88.7382 16.2518C88.3947 16.3681 88.0677 16.5321 87.7656 16.7393C87.4636 16.9435 87.1905 17.1913 86.9545 17.4755C86.7294 17.7444 86.5581 18.0578 86.4507 18.3974V21.685C86.6567 22.1961 86.9398 22.6692 87.2891 23.0861C87.6296 23.4993 88.0464 23.8358 88.5145 24.0753C88.955 24.3082 89.4411 24.4303 89.9345 24.4322H89.9286Z" fill="white"/>
<path d="M108 26.0729C107.679 26.1934 107.292 26.3294 106.839 26.4848C106.364 26.6439 105.877 26.7686 105.381 26.8579C104.863 26.9516 104.336 26.9991 103.807 26.9997C103.148 27.0062 102.494 26.8933 101.883 26.6675C101.307 26.4541 100.817 26.0843 100.48 25.6086C100.13 25.1241 99.955 24.4907 99.9564 23.7083V16.0297H98V13.3775H99.9564V9H103.754V13.3775H106.869V16.0297H103.752V22.5348C103.769 22.9933 103.911 23.3236 104.179 23.5257C104.458 23.7336 104.811 23.842 105.171 23.8307C105.567 23.8316 105.961 23.7711 106.334 23.652C106.711 23.5315 107.014 23.4285 107.241 23.3431L108 26.0729Z" fill="white"/>
<path d="M115.013 26.999C114.01 27.0155 113.013 26.8269 112.081 26.4444C111.248 26.0983 110.495 25.5754 109.874 24.9102C109.273 24.2618 108.802 23.5003 108.485 22.668C107.838 20.9508 107.838 19.0493 108.485 17.332C108.802 16.4994 109.274 15.7373 109.874 15.0879C110.495 14.4232 111.248 13.9009 112.081 13.5557C113.013 13.1732 114.01 12.9846 115.013 13.0011C116.013 12.984 117.006 13.1726 117.932 13.5557C118.753 13.9002 119.495 14.4131 120.114 15.0627C120.732 15.7122 121.214 16.4846 121.529 17.332C122.157 19.0527 122.157 20.9474 121.529 22.668C121.219 23.5012 120.751 24.2633 120.151 24.9102C119.53 25.5749 118.779 26.0978 117.946 26.4444C117.014 26.8265 116.017 27.015 115.013 26.999ZM111.519 20.0128C111.505 20.735 111.663 21.4499 111.979 22.0957C112.262 22.6759 112.694 23.1667 113.228 23.5157C113.762 23.8587 114.382 24.0363 115.013 24.0271C115.638 24.0334 116.249 23.8506 116.772 23.502C117.307 23.1448 117.742 22.6513 118.034 22.0701C118.344 21.4236 118.505 20.7131 118.505 19.9932C118.505 19.2732 118.344 18.5627 118.034 17.9162C117.747 17.3319 117.311 16.8374 116.772 16.4843C116.239 16.148 115.625 15.9708 114.998 15.9729C114.372 15.975 113.759 16.1562 113.228 16.4961C112.695 16.8522 112.264 17.3463 111.979 17.928C111.663 18.5745 111.505 19.29 111.519 20.0128Z" fill="white"/>
<path d="M125 26.9885V9H138V12.0589H128.762V16.6952H136.447V19.5438H128.762V27L125 26.9885Z" fill="white"/>
<path d="M139 21.5983V13H142.599V20.8175C142.599 21.8639 142.795 22.6526 143.187 23.1837C143.579 23.7149 144.16 23.9811 144.93 23.9825C145.403 23.9813 145.871 23.8883 146.308 23.7089C146.778 23.5207 147.206 23.244 147.568 22.8942C147.976 22.4988 148.307 22.0333 148.546 21.5204V13H152.141V22.7844C152.116 23.061 152.188 23.3376 152.343 23.5691C152.517 23.7433 152.752 23.846 153 23.8567V26.7401C152.642 26.794 152.343 26.8319 152.102 26.8599C151.884 26.8848 151.665 26.8981 151.445 26.8998C150.89 26.9241 150.341 26.7723 149.879 26.4665C149.682 26.3273 149.517 26.1486 149.394 25.9422C149.272 25.7357 149.195 25.5062 149.169 25.2684L149.088 24.1682C148.489 25.0716 147.656 25.8003 146.676 26.2788C145.669 26.7638 144.562 27.0106 143.442 26.9997C141.994 26.9997 140.896 26.5411 140.146 25.6238C139.397 24.7066 139.015 23.3648 139 21.5983Z" fill="white"/>
<path d="M163 16.2426C162.153 16.2253 161.315 16.4384 160.549 16.8652C159.874 17.2298 159.328 17.8592 159.004 18.6455V27H156V13.3166H158.757V16.1372C159.129 15.2523 159.674 14.4839 160.348 13.8954C160.941 13.3728 161.649 13.0621 162.388 13.0003H162.768C162.844 12.9983 162.919 13.007 162.993 13.0261L163 16.2426Z" fill="white"/>
<path d="M165.737 29.605C166.053 29.6763 166.347 29.7388 166.619 29.7926C166.848 29.841 167.081 29.868 167.315 29.8733C167.612 29.8848 167.904 29.7953 168.145 29.6192C168.423 29.3721 168.643 29.0656 168.79 28.7216C169.057 28.139 169.277 27.5353 169.448 26.9165L164 13H167.653L171.361 23.274L174.625 13H178L172.219 29.6797C172.008 30.2987 171.683 30.8711 171.26 31.3658C170.818 31.8789 170.269 32.2866 169.654 32.5598C168.978 32.8603 168.247 33.0102 167.51 32.9995C167.226 33.0024 166.942 32.9829 166.66 32.941C166.348 32.8884 166.04 32.8122 165.739 32.7131L165.737 29.605Z" fill="white"/>
</svg>
