<svg width="158" height="36" viewBox="0 0 158 36" fill="none" xmlns="http://www.w3.org/2000/svg">
<path fill-rule="evenodd" clip-rule="evenodd" d="M17.7898 0.391396C16.4771 0.843945 14.7539 2.33402 14.3366 3.37727C14.1692 3.79583 14.0305 6.16528 14.0289 8.64303L14.0252 13.1479L12.0243 14.033C10.9234 14.5198 10.0237 15.02 10.0243 15.1445C10.025 15.269 12.0169 15.3779 14.4512 15.3862L18.8767 15.4014L23.8882 17.0843C30.5802 19.3314 33.0953 19.9755 36.0828 20.207L38.5886 20.4014L37.2522 20.9743C35.7049 21.6374 32.3643 21.7447 29.6678 21.2175C28.6942 21.0273 25.567 20.1609 22.7188 19.2924C19.8706 18.4238 16.4878 17.4996 15.2016 17.2389C12.0627 16.6025 7.49754 16.6219 5.10973 17.2818C3.46061 17.7375 0 19.1942 0 19.4331C0 19.4778 1.84189 19.5198 4.09273 19.5261C7.45411 19.536 8.66321 19.6763 10.8583 20.3127L13.5311 21.0873L13.6981 26.4862L13.8652 31.885L14.797 31.9866C16.0285 32.1209 18.5068 30.9564 19.2338 29.9014C19.5753 29.406 19.9491 27.9051 20.1439 26.248C20.3961 24.0983 20.5809 23.4742 20.9267 23.6006C22.497 24.1732 27.3277 24.7642 28.8315 24.5677C30.936 24.2926 33.7772 23.3802 35.2813 22.4967C36.3985 21.8403 36.8172 22.0089 35.9993 22.7864C35.7417 23.0309 35.5817 24.0684 35.5817 25.4918C35.5817 27.4592 35.713 27.9889 36.4707 29.0785C37.6735 30.8078 39.365 31.5461 42.1514 31.5579C44.0969 31.5661 44.5562 31.447 45.7918 30.6147C47.8735 29.2122 48.5087 27.9038 48.3703 25.3054C48.2888 23.7728 48.063 22.9229 47.5682 22.2884C46.5906 21.034 44.8663 19.998 43.3799 19.7722L42.105 19.5782L44.0217 18.7001C45.0761 18.2171 46.2394 17.5844 46.607 17.2945L47.2752 16.767L46.607 16.9188C44.6157 17.3704 43.6993 17.4104 41.3238 17.1509C39.8879 16.9941 38.629 16.7854 38.5257 16.6873C38.4228 16.5895 38.7289 16.068 39.2063 15.5288C40.3793 14.2038 40.8681 12.2936 40.6687 9.8133C40.252 4.63011 36.766 1.18629 31.0426 0.303745C28.1483 -0.14277 19.1663 -0.0830652 17.7898 0.391396ZM30.9841 6.83283C33.0415 7.54421 33.7441 8.55029 33.7441 10.7845C33.7441 12.2987 33.5918 12.795 32.8791 13.5998C32.4034 14.1371 31.8043 14.577 31.5477 14.577C31.2911 14.577 29.7636 14.213 28.1529 13.7684C26.5422 13.3235 24.1344 12.7979 22.8023 12.5997L20.3801 12.2399L20.3798 9.2007V6.16116L24.9736 6.2523C28.0621 6.31359 30.0319 6.50382 30.9841 6.83283ZM110.008 14.0777C108.702 15.1229 108.364 16.4294 109.066 17.72C109.704 18.8929 110.518 19.3429 111.985 19.3337C114.168 19.3197 115.617 17.2484 114.775 15.3455C114.237 14.1289 113.569 13.6319 112.185 13.4184C111.284 13.2797 110.837 13.415 110.008 14.0777ZM50.115 23.485V31.7579L52.0361 31.6627L53.9572 31.5674L54.0514 24.1043C54.1032 19.9996 54.0627 16.3195 53.9615 15.9267C53.7985 15.2937 53.5679 15.2121 51.9462 15.2121H50.115V23.485ZM55.945 15.6151C55.8558 15.8368 55.8228 19.5166 55.8722 23.7928L55.9618 31.5674L57.8678 31.6624L59.7738 31.757L59.8724 29.5047L59.971 27.2528L61.7297 29.4895L63.4887 31.7262H65.6911C68.3331 31.7262 68.3372 31.7821 65.4385 28.2278C63.5625 25.9272 63.4182 25.6436 63.8669 25.1377C64.1385 24.8313 65.1395 23.7121 66.0913 22.6504C67.0435 21.5891 67.8223 20.6243 67.8223 20.5068C67.8223 20.3896 66.8477 20.2934 65.6563 20.2934H63.4904L61.7307 22.4227L59.971 24.5521L59.8784 19.8821L59.7862 15.2121H57.947C56.7693 15.2121 56.0493 15.3569 55.945 15.6151ZM83.0072 15.6151C82.9179 15.8368 82.8849 19.5166 82.9343 23.7928L83.0239 31.5674L88.0354 31.6576C92.0028 31.729 93.3409 31.6414 94.4574 31.2378C97.9782 29.9649 98.9601 26.3423 96.4096 24.0354L95.2947 23.0271L96.0805 22.4399C98.5558 20.589 97.2495 16.4135 93.9202 15.5345C92.0776 15.0479 83.2096 15.1134 83.0072 15.6151ZM124.842 15.424C124.72 15.5402 124.619 16.8299 124.619 18.2895V20.9431L123.782 20.4214C123.16 20.0346 122.426 19.9355 120.938 20.0377C119.23 20.1552 118.766 20.3286 117.813 21.2064C114.483 24.2742 115.82 30.6712 120.015 31.7449C121.476 32.1187 123.329 31.7548 124.325 30.8983C124.922 30.3847 124.953 30.392 124.953 31.0418C124.953 31.6725 125.124 31.7262 127.125 31.7262H129.297V23.4692V15.2121H127.181C126.017 15.2121 124.964 15.3074 124.842 15.424ZM92.2337 19.0342C92.6002 19.2209 92.8798 19.6966 92.8798 20.1346C92.8798 21.1788 91.9858 21.5637 89.5609 21.5637H87.5342V20.1346V18.7055H89.5609C90.6754 18.7055 91.8782 18.8535 92.2337 19.0342ZM70.8893 20.51C70.2789 20.7958 69.3769 21.5316 68.8847 22.1452C68.1257 23.0909 67.9747 23.6276 67.8935 25.6674C67.8123 27.7015 67.9159 28.2681 68.5617 29.3266C70.0461 31.7595 73.6413 32.6856 75.7772 31.1854C76.7612 30.4943 76.7755 30.4937 76.9486 31.1234C77.1013 31.6779 77.3565 31.7484 78.9047 31.6643L80.6852 31.5674L80.7764 25.9304L80.8676 20.2934H78.8553C77.288 20.2934 76.843 20.3988 76.843 20.7704C76.843 21.1664 76.6309 21.1394 75.5951 20.6116C74.09 19.845 72.3875 19.8081 70.8893 20.51ZM99.7847 20.1876C99.662 20.3039 99.5618 22.9477 99.5618 26.0628V31.7262H101.901H104.239V28.2821C104.239 24.2555 104.411 23.9817 107.163 23.6324L108.917 23.4095V21.6926V19.9758H107.488C106.164 19.9758 104.755 20.5735 104.161 21.3865C104.026 21.5713 103.913 21.3296 103.91 20.8491C103.905 19.9968 103.858 19.9758 101.956 19.9758C100.884 19.9758 99.9069 20.0711 99.7847 20.1876ZM109.793 20.4639C109.679 20.7482 109.585 23.3983 109.585 26.3534V31.7262H111.931H114.277L114.186 25.9304L114.095 20.1346L112.048 20.0412C110.406 19.966 109.961 20.0495 109.793 20.4639ZM133.606 20.6945C131.181 22.2297 130.373 26.1276 131.935 28.7511C133.378 31.1752 136.599 32.1117 138.902 30.777L139.988 30.1475V30.8878C139.988 32.6021 137.327 33.2153 134.298 32.1991C133.511 31.9352 132.832 31.7567 132.788 31.8021C132.744 31.8478 132.466 32.4407 132.169 33.12C131.794 33.981 131.735 34.4742 131.974 34.7476C132.552 35.4104 135.356 36.0113 137.817 35.9998C140.915 35.9855 142.835 35.0404 143.92 32.9965C144.637 31.6458 144.674 31.2543 144.588 25.851L144.498 20.1346L142.406 20.04C140.775 19.9663 140.27 20.052 140.118 20.429C139.945 20.8584 139.815 20.8599 138.97 20.4442C137.504 19.7236 134.951 19.8431 133.606 20.6945ZM149.121 20.7564C146.543 22.2586 145.586 25.8377 146.981 28.7581C148.287 31.4934 152.883 32.7396 156.286 31.2809C157.832 30.6185 157.931 30.3374 157.205 28.6854C156.716 27.5732 156.713 27.5716 155.718 28.0604C153.949 28.9302 151.013 28.5425 151.013 27.4389C151.013 27.0807 151.736 26.9657 154.438 26.8942L157.862 26.8037L157.974 25.6922C158.14 24.024 157.516 22.4662 156.193 21.2471C155.117 20.2559 154.799 20.1448 152.76 20.0501C150.823 19.9602 150.32 20.0577 149.121 20.7564ZM43.555 23.4923C44.2779 24.0329 44.4353 24.4114 44.4353 25.6109C44.4353 27.5431 43.7674 28.2328 41.8968 28.2328C40.795 28.2328 40.3439 28.0699 39.944 27.5269C39.1308 26.4236 39.2755 24.534 40.244 23.6137C41.246 22.6609 42.3873 22.619 43.555 23.4923ZM153.374 23.1627C154.649 23.8115 154.143 24.4219 152.33 24.4219C151.073 24.4219 150.701 24.32 150.879 24.0249C151.643 22.754 152.195 22.5631 153.374 23.1627ZM75.9222 23.7794C78.1974 25.4807 76.4421 29.399 73.6978 28.7444C71.7142 28.2713 71.051 25.186 72.6521 23.8769C73.7422 22.9855 74.8174 22.9534 75.9222 23.7794ZM124.122 23.7909C124.52 24.2088 124.731 24.9221 124.731 25.851C124.731 27.4862 123.942 28.5504 122.73 28.5504C121.45 28.5504 120.61 27.4808 120.61 25.851C120.61 23.493 122.682 22.2779 124.122 23.7909ZM139.245 23.6461C139.82 24.0287 139.988 24.454 139.988 25.5287C139.988 27.2137 139.348 27.9153 137.811 27.9153C135.778 27.9153 134.878 25.3975 136.371 23.8865C137.216 23.0312 138.199 22.949 139.245 23.6461ZM92.5678 25.3857C92.9807 25.596 93.2139 26.0501 93.2139 26.6449C93.2139 27.8797 92.4388 28.2328 89.7279 28.2328H87.5342V26.6449V25.0571H89.7279C90.9343 25.0571 92.2123 25.205 92.5678 25.3857Z" fill="white"/>
</svg>
