<svg width="154" height="30" viewBox="0 0 154 30" fill="none" xmlns="http://www.w3.org/2000/svg">
<path fill-rule="evenodd" clip-rule="evenodd" d="M67.9946 0.111856C65.5147 0.514813 64.1333 1.52031 63.2544 3.56211C63.0287 4.08653 62.9412 5.86401 63.1055 6.58795C63.1627 6.8401 63.2486 7.13309 63.2964 7.23902C63.3441 7.34496 63.3832 7.45016 63.3832 7.47284C63.3832 7.49552 63.5036 7.69767 63.6506 7.92207C63.9786 8.42265 64.5249 9.01302 64.8811 9.25166C65.0275 9.34977 65.1612 9.44391 65.1783 9.46078C65.2102 9.49233 65.476 9.6364 65.8591 9.82975C66.283 10.0436 66.7592 10.2483 66.9274 10.289C67.0214 10.3117 67.1136 10.3548 67.1323 10.3847C67.151 10.4146 67.2134 10.4392 67.271 10.4394C67.3285 10.4396 67.4503 10.4783 67.5417 10.5253C67.633 10.5724 67.7928 10.6294 67.8969 10.6519C68.0009 10.6745 68.1019 10.7183 68.1214 10.7494C68.1408 10.7804 68.223 10.8058 68.3041 10.8058C68.3852 10.8058 68.4675 10.8312 68.4868 10.8622C68.5063 10.8933 68.6122 10.9382 68.7223 10.9621C68.8325 10.9859 69.0202 11.0461 69.1395 11.0958C69.2588 11.1455 69.4399 11.221 69.5421 11.2638C70.8008 11.7903 71.2442 12.2158 71.2442 12.8973C71.2442 13.5007 70.9253 13.9141 70.3022 14.1184C69.9426 14.2362 69.4164 14.2637 69.3564 14.1678C69.3353 14.1342 69.2543 14.1067 69.1763 14.1067C69.0354 14.1067 68.5614 13.8065 68.4114 13.6223C68.2681 13.4463 68.1375 13.1018 68.0967 12.7924L68.0565 12.4868L65.4959 12.4709L62.9353 12.4549L62.98 12.9293C63.0046 13.1902 63.0461 13.445 63.0723 13.4954C63.0984 13.5459 63.1389 13.7171 63.1623 13.8761C63.1856 14.0349 63.231 14.181 63.263 14.2006C63.2951 14.2202 63.3213 14.2773 63.3213 14.3276C63.3213 14.6113 63.9792 15.6759 64.4337 16.1274C65.0952 16.7848 65.9555 17.3032 66.9424 17.6391C67.9658 17.9875 68.8884 18.104 70.2848 18.0611C71.2075 18.0328 71.5469 17.9832 72.3275 17.7626C72.678 17.6635 73.5083 17.3112 73.5964 17.2242C73.6134 17.2074 73.735 17.1395 73.8666 17.0732C73.9982 17.007 74.1196 16.9176 74.1363 16.8746C74.153 16.8315 74.1992 16.7963 74.2389 16.7963C74.3177 16.7963 75.2676 15.8755 75.2676 15.7991C75.2676 15.7732 75.3226 15.6938 75.3898 15.6225C75.536 15.4675 76.0104 14.5384 76.0104 14.407C76.0104 14.3562 76.0356 14.2884 76.0665 14.2565C76.1775 14.1414 76.2833 13.3274 76.2846 12.5785C76.2858 11.8095 76.2034 11.2445 76.0379 10.8882C75.9887 10.7823 75.9485 10.6796 75.9485 10.6599C75.9485 10.6222 75.5942 10.0383 75.4861 9.89773C75.3028 9.65957 74.5136 8.91754 74.274 8.75818C74.1226 8.65738 73.9848 8.5611 73.9677 8.54423C73.8767 8.45382 72.6553 7.89774 71.9561 7.62835C71.5135 7.45786 71.1031 7.29153 71.0439 7.25877C70.9848 7.22606 70.8965 7.19923 70.8478 7.19923C70.799 7.19923 70.6802 7.16017 70.5839 7.11243C70.4875 7.06462 70.2833 6.97831 70.1301 6.92055C69.3261 6.61735 68.7393 6.27699 68.4046 5.9197C67.7803 5.25309 68.1368 4.05132 68.9967 3.92393C69.5752 3.83829 70.1093 3.99062 70.4661 4.34296C70.72 4.59377 70.8174 4.79152 70.8641 5.15144L70.9038 5.45708L73.4688 5.47303C74.8795 5.48184 76.0565 5.46655 76.0843 5.43911C76.1121 5.4116 76.1082 5.2394 76.0755 5.05632C75.9216 4.19277 75.7976 3.66107 75.7086 3.48362C75.6797 3.42591 75.5757 3.2146 75.4773 3.01397C75.379 2.81335 75.1427 2.45459 74.9522 2.2168C74.599 1.77582 73.9804 1.20868 73.8527 1.20868C73.8139 1.20868 73.7821 1.18472 73.7821 1.15537C73.7821 1.08942 72.5493 0.474895 72.4172 0.475079C72.3644 0.475079 72.2948 0.450505 72.2625 0.42043C72.1816 0.345243 71.7207 0.243526 70.8419 0.106966C69.9176 -0.0367465 68.8983 -0.0349732 67.9946 0.111856ZM83.0474 0.0256045C83.0239 0.0487109 83.0048 6.80238 83.0048 15.0338C83.0048 29.9642 83.0051 30 83.1287 30C83.2524 30 83.2526 29.9694 83.237 15.0134C83.2261 4.50195 83.2018 0.0204082 83.1557 0.00518731C83.1195 -0.00667153 83.0708 0.00249812 83.0474 0.0256045ZM7.45867 0.170111C6.82001 0.244137 6.19107 0.388644 5.53984 0.610967C5.22751 0.717574 4.0556 1.2849 4.03369 1.34016C4.0223 1.36871 3.9864 1.39206 3.95378 1.39206C3.90253 1.39206 3.5554 1.60968 3.46627 1.6977C3.44925 1.71451 3.29649 1.8383 3.12676 1.97278C2.72121 2.29413 2.21625 2.80601 1.88014 3.23654C1.73122 3.42732 1.60934 3.59646 1.60934 3.61248C1.60934 3.62843 1.50863 3.78871 1.38552 3.96861C1.26247 4.14845 1.09324 4.44694 1.00955 4.63185C0.925804 4.81676 0.817607 5.05473 0.769079 5.16067C0.720551 5.2666 0.680875 5.39179 0.680875 5.4388C0.680875 5.48587 0.65463 5.55048 0.622505 5.58239C0.564383 5.64022 0.497038 5.87006 0.340004 6.54656C0.294571 6.7423 0.241834 6.94255 0.22277 6.99152C0.203767 7.04042 0.14317 7.53342 0.0881425 8.08699C-0.00501349 9.02329 -0.00464253 9.16492 0.0932177 10.1177C0.151092 10.6811 0.22345 11.1883 0.253966 11.2449C0.284482 11.3016 0.309488 11.4146 0.309488 11.4962C0.309488 11.7267 0.725255 12.9193 1.00479 13.4907C1.52151 14.5471 2.30934 15.5281 3.22976 16.2611C3.54494 16.5121 4.44624 17.0775 4.66139 17.1592C4.73604 17.1876 4.95547 17.2825 5.14902 17.3703C5.34258 17.458 5.53898 17.5299 5.5854 17.5299C5.63182 17.5299 5.69626 17.5545 5.72863 17.5846C5.79109 17.6427 6.09804 17.7209 6.90159 17.8836C7.59689 18.0243 9.85405 18.0248 10.5536 17.8844C11.1414 17.7664 11.5593 17.6614 11.7296 17.5891C11.7977 17.5602 11.9927 17.4783 12.1629 17.4072C12.7772 17.1506 13.5037 16.7585 13.5453 16.6612C13.5566 16.6347 13.6034 16.613 13.6492 16.613C13.695 16.613 13.7693 16.5786 13.8143 16.5365C13.8592 16.4945 14.0989 16.298 14.347 16.1C14.595 15.9018 14.9261 15.5993 15.0827 15.4276C15.4683 15.005 16.0934 14.1902 16.0934 14.1103C16.0934 14.0747 16.1177 14.0456 16.1474 14.0456C16.177 14.0456 16.3511 13.7501 16.5342 13.3891L16.8671 12.7325L16.8846 10.3021L16.9022 7.87164H12.4435H7.9848V9.61379V11.3559H10.3333C11.7716 11.3559 12.696 11.3787 12.7186 11.4148C12.7388 11.4471 12.6848 11.5841 12.5984 11.7192C12.5121 11.8543 12.4414 11.9813 12.4414 12.0016C12.4414 12.0364 12.0475 12.538 11.9153 12.6714C11.7458 12.8425 11.275 13.1898 11.2126 13.1898C11.1735 13.1898 11.1416 13.2173 11.1416 13.2509C11.1416 13.2845 11.111 13.312 11.0736 13.312C11.0362 13.312 10.9178 13.3512 10.8105 13.399C9.99004 13.7645 8.32827 13.7849 7.45867 13.4402C6.04963 12.8814 5.3872 12.0629 5.00548 10.4085C4.95417 10.1861 4.92087 9.68066 4.92087 9.12476C4.92087 7.97439 5.07221 7.26427 5.48754 6.46569C5.72201 6.01475 6.49734 5.25426 6.93254 5.04819C7.59379 4.73516 7.9005 4.67048 8.72758 4.66975C9.54636 4.66908 9.80268 4.72342 10.4298 5.03053C10.8263 5.22479 11.513 5.86291 11.513 6.03724C11.513 6.07771 12.3986 6.09892 14.0903 6.09892H16.6677L16.6306 5.78974C16.5649 5.24117 16.1054 4.08616 15.7202 3.50098C15.6539 3.40012 15.5669 3.25573 15.527 3.18006C15.4872 3.10438 15.4312 3.04252 15.4026 3.04252C15.374 3.04252 15.3506 3.01116 15.3506 2.97277C15.3506 2.85687 14.2326 1.7952 13.8189 1.51823C12.6737 0.7515 11.4503 0.322198 9.96553 0.165954C9.41031 0.107516 7.97781 0.1099 7.45867 0.170111ZM24.0441 0.503748C23.9948 0.620319 23.9544 0.752356 23.9544 0.797163C23.9544 0.84197 23.9309 0.904748 23.9024 0.936657C23.8737 0.968566 23.788 1.18728 23.7118 1.42263C23.6356 1.65797 23.5338 1.9372 23.4853 2.04314C23.4369 2.14907 23.3973 2.27658 23.3973 2.32653C23.3973 2.37641 23.3557 2.49603 23.3049 2.59237C23.254 2.68865 23.2123 2.81396 23.212 2.87081C23.2118 2.92766 23.1869 2.98928 23.1567 3.00768C23.1266 3.02608 23.0838 3.1366 23.0616 3.25323C23.0394 3.36986 22.9808 3.54206 22.9312 3.63595C22.8816 3.72978 22.8409 3.8414 22.8406 3.88389C22.8404 3.92637 22.8141 4.00889 22.7822 4.06727C22.7503 4.12565 22.6231 4.47597 22.4995 4.8458C22.3759 5.21562 22.2505 5.57322 22.2209 5.64046C22.1913 5.7077 22.105 5.95527 22.0291 6.19062C21.9533 6.42596 21.8705 6.64602 21.8451 6.67964C21.8198 6.71326 21.7796 6.84395 21.7557 6.97C21.7318 7.09611 21.6875 7.19923 21.6573 7.19923C21.6271 7.19923 21.6023 7.25693 21.6023 7.32754C21.6023 7.39808 21.5627 7.54252 21.5143 7.64846C21.4659 7.75439 21.3226 8.14366 21.1959 8.51348C20.7172 9.91081 20.6072 10.2277 20.57 10.3168C20.4829 10.5253 20.1681 11.3998 20.1188 11.5699C20.0599 11.7732 19.9399 12.1155 19.8616 12.3034C19.7813 12.496 19.6183 12.958 19.5596 13.1592C19.4931 13.3873 19.3549 13.7503 19.3034 13.8316C19.2821 13.8652 19.244 13.9881 19.2186 14.1047C19.1933 14.2213 19.1485 14.3588 19.1191 14.4103C19.0897 14.4619 18.9523 14.8341 18.8137 15.2376C18.2941 16.7501 18.244 16.8895 18.1977 16.9492C18.1716 16.9828 18.13 17.1066 18.1051 17.2242C18.0802 17.3419 18.039 17.4657 18.0136 17.4993C17.9882 17.5329 17.9491 17.6361 17.9267 17.7285L17.8861 17.8966H20.3866H22.8871L22.9524 17.7285C22.9882 17.6361 23.0352 17.4917 23.0566 17.4076C23.0781 17.3236 23.1183 17.1998 23.146 17.1325C23.1738 17.0653 23.2858 16.7215 23.395 16.3684C23.5042 16.0154 23.6444 15.5753 23.7066 15.3904L23.8197 15.0542L26.8046 15.0383C28.8713 15.0274 29.8144 15.0428 29.8701 15.0884C29.9144 15.1247 29.9679 15.2418 29.9891 15.3488C30.0102 15.4557 30.051 15.5982 30.0796 15.6655C30.1082 15.7327 30.1869 15.9665 30.2544 16.1851C30.3219 16.4036 30.4709 16.8776 30.5856 17.2384L30.7941 17.8943L33.3164 17.8955C34.98 17.8963 35.8388 17.8756 35.8388 17.8347C35.8388 17.8006 35.8131 17.7249 35.7818 17.6666C35.7506 17.6082 35.6647 17.3816 35.5912 17.1631C35.5176 16.9446 35.4354 16.7236 35.4084 16.6721C35.3814 16.6205 35.3386 16.483 35.3134 16.3664C35.2881 16.2499 35.246 16.127 35.2198 16.0934C35.1936 16.0597 35.0291 15.6059 34.8542 15.0848C34.6794 14.5636 34.511 14.0822 34.4801 14.015C34.4492 13.9478 34.3655 13.714 34.2939 13.4954C34.2224 13.2769 34.1392 13.0431 34.109 12.9758C34.0788 12.9086 34.0396 12.7986 34.0221 12.7313C33.9867 12.5962 33.8215 12.1276 33.7418 11.9367C33.6624 11.7462 33.5429 11.4048 33.485 11.2031C33.4561 11.1023 33.332 10.7447 33.2094 10.4085C32.9693 9.75084 32.5916 8.67529 32.2219 7.59656C32.0952 7.22674 31.9518 6.83747 31.9034 6.73154C31.855 6.6256 31.8154 6.49656 31.8154 6.44479C31.8154 6.39301 31.7907 6.33555 31.7605 6.31715C31.7304 6.29875 31.686 6.18022 31.6622 6.05375C31.6382 5.92728 31.5979 5.79634 31.5726 5.76272C31.5472 5.7291 31.4645 5.50904 31.3886 5.27369C31.3127 5.03835 31.2263 4.79078 31.1965 4.72354C31.1667 4.6563 31.0669 4.38122 30.9748 4.11226C30.8827 3.8433 30.6992 3.3069 30.5669 2.92026C30.4345 2.53363 30.301 2.16228 30.27 2.09503C30.239 2.02779 30.1519 1.78022 30.0763 1.54488C30.0007 1.30954 29.9154 1.09088 29.8867 1.05891C29.8581 1.027 29.8347 0.951512 29.8347 0.891239C29.8347 0.830967 29.7863 0.671423 29.7272 0.536696L29.6198 0.291756H26.8768H24.1338L24.0441 0.503748ZM37.3862 9.0942V17.8966H39.7693H42.1523V9.0942V0.291756H39.7693H37.3862V9.0942ZM44.8758 9.0942V17.8966H47.2589H49.642V13.0675C49.642 10.4115 49.6634 8.23841 49.6897 8.23841C49.7159 8.23841 49.8059 8.36219 49.8895 8.51348C49.9732 8.66477 50.0599 8.78856 50.0822 8.78856C50.1045 8.78856 50.1392 8.83673 50.1592 8.89553C50.1793 8.95434 50.3334 9.20881 50.5015 9.46097C50.6697 9.71312 50.9272 10.112 51.0738 10.3473C51.2204 10.5827 51.3571 10.789 51.3777 10.8058C51.3982 10.8226 51.435 10.8776 51.4594 10.928C51.5355 11.0854 51.8401 11.5605 52.362 12.3358C52.5551 12.6224 52.7326 12.8975 52.7566 12.947C52.7805 12.9965 52.8486 13.1131 52.9077 13.206C53.0442 13.4204 53.8173 14.6031 54.0478 14.9503C54.1438 15.0948 54.2224 15.2393 54.2224 15.2712C54.2224 15.3032 54.2502 15.3293 54.2843 15.3293C54.3183 15.3293 54.3462 15.3579 54.3462 15.3928C54.3462 15.4652 54.6006 15.8383 54.6711 15.8692C54.6967 15.8805 54.7176 15.9245 54.7176 15.967C54.7176 16.0096 54.7956 16.1517 54.8908 16.2829C54.9861 16.414 55.1724 16.7001 55.3048 16.9186C55.4372 17.1371 55.5612 17.3297 55.5804 17.3465C55.6348 17.3944 55.7641 17.6079 55.8304 17.7591L55.8905 17.8966H58.3061H60.7216V9.0942V0.291756H58.3386H55.9555V5.17179C55.9555 7.85587 55.9371 10.07 55.9146 10.0922C55.8921 10.1145 55.8434 10.0791 55.8063 10.0136C55.7367 9.89076 55.2654 9.14989 55.0727 8.86063C55.0128 8.77059 54.9468 8.6487 54.9263 8.58989C54.9057 8.53109 54.8687 8.48292 54.8441 8.48292C54.8194 8.48292 54.7686 8.41635 54.7311 8.33493C54.6935 8.25357 54.508 7.95245 54.3188 7.66576C54.1296 7.37907 53.9748 7.11787 53.9748 7.08529C53.9748 7.0527 53.9523 7.01688 53.9248 7.00564C53.8972 6.99445 53.7289 6.75147 53.5507 6.46569C52.9158 5.4476 52.6854 5.08933 52.6187 5.01647C52.5815 4.97588 52.5511 4.91597 52.5511 4.88333C52.5511 4.85069 52.5164 4.78644 52.4738 4.7406C52.4312 4.69475 52.363 4.60342 52.3222 4.53759C52.1417 4.24625 51.7061 3.56229 51.6081 3.41644C51.5491 3.32848 51.4713 3.20145 51.4352 3.13421C51.3437 2.96336 51.2673 2.84263 50.8631 2.23043C50.6681 1.93512 50.5085 1.66689 50.5085 1.63443C50.5085 1.60197 50.483 1.57545 50.4518 1.57545C50.4206 1.57545 50.3717 1.51358 50.3433 1.43791C50.3148 1.36223 50.1426 1.0734 49.9605 0.796063L49.6296 0.291756H47.2527H44.8758V9.0942ZM110.505 1.22396C110.473 1.26602 110.413 1.38411 110.372 1.4865C110.298 1.67129 110.294 1.67246 109.897 1.64752C109.485 1.62154 109.237 1.69617 108.971 1.92669C108.811 2.06526 108.63 2.34242 108.63 2.44982C108.63 2.69109 109.381 2.7543 109.737 2.5431C109.983 2.39743 110.234 2.13623 110.238 2.02223C110.241 1.89686 110.346 1.87662 110.646 1.94313C110.977 2.01642 111.043 1.9894 110.908 1.83561C110.856 1.77656 110.764 1.59764 110.704 1.43791C110.644 1.27818 110.588 1.14755 110.579 1.14755C110.571 1.14755 110.538 1.18196 110.505 1.22396ZM111.896 1.27971C111.67 1.36101 111.68 1.50869 111.927 1.74135C112.192 1.99209 112.573 2.10426 112.843 2.01129C113.113 1.91831 113.211 1.9243 113.211 2.03391C113.211 2.08434 113.239 2.1256 113.273 2.1256C113.307 2.1256 113.335 2.16686 113.335 2.21729C113.335 2.26772 113.376 2.30898 113.428 2.30898C113.488 2.30898 113.52 2.24938 113.52 2.13923C113.52 2.04583 113.564 1.90829 113.617 1.83359C113.726 1.6801 113.701 1.67197 113.396 1.76042C113.197 1.81825 113.168 1.80914 113.025 1.6455C112.833 1.42464 112.428 1.20709 112.221 1.21351C112.136 1.21613 111.989 1.24597 111.896 1.27971ZM107.795 1.35221C107.503 1.51841 107.502 1.51964 107.614 1.64146C107.766 1.80724 108.099 1.85248 108.377 1.74483C108.595 1.66011 108.616 1.66219 108.711 1.77784C108.82 1.91024 108.83 1.89887 108.905 1.56016C108.947 1.37305 108.825 1.32549 108.697 1.47843C108.635 1.55179 108.585 1.54268 108.364 1.41804C108.08 1.2574 107.982 1.24603 107.795 1.35221ZM113.842 1.36461C113.737 1.48235 113.79 1.55735 114.056 1.66702C114.247 1.74605 114.294 1.74599 114.451 1.6661C114.656 1.56145 114.82 1.5483 114.82 1.63657C114.82 1.67019 114.848 1.6977 114.882 1.6977C114.916 1.6977 114.944 1.60142 114.944 1.48375C114.944 1.36608 114.916 1.26981 114.882 1.26981C114.848 1.26981 114.82 1.29731 114.82 1.33093C114.82 1.36455 114.766 1.39206 114.7 1.39206C114.634 1.39206 114.563 1.36455 114.542 1.33093C114.482 1.23508 113.934 1.26143 113.842 1.36461ZM115.439 1.57221C114.866 1.68315 114.826 1.91623 115.303 2.3758C115.695 2.75436 116.122 2.86072 116.677 2.71817C117.086 2.61328 117.153 2.63186 117.204 2.86427C117.226 2.96232 117.268 3.04252 117.297 3.04252C117.326 3.04252 117.367 3.09753 117.389 3.16478C117.466 3.4044 117.606 3.30513 117.606 3.01073C117.606 2.82136 117.654 2.65833 117.76 2.49237C117.908 2.26191 117.953 2.1256 117.883 2.1256C117.865 2.1256 117.686 2.19186 117.484 2.27292L117.117 2.42017L116.946 2.19651C116.741 1.92791 116.652 1.85205 116.368 1.70491C116.105 1.56897 115.732 1.51554 115.439 1.57221ZM106.312 1.84092C106.203 1.91984 106.204 1.9306 106.342 2.11508C106.533 2.3698 106.931 2.52299 107.17 2.43332C107.361 2.36192 107.516 2.43319 107.516 2.59152C107.516 2.63785 107.551 2.67801 107.594 2.6807C107.721 2.68889 107.312 2.85339 107.157 2.85638C107.024 2.85895 106.421 3.15616 106.235 3.31038C106.002 3.50471 105.659 3.84214 105.659 3.87814C105.659 3.90076 105.614 3.96843 105.559 4.02858C105.398 4.20456 105.502 4.39547 105.896 4.64713C106.094 4.77324 106.288 4.87636 106.329 4.87636C106.369 4.87636 106.402 4.89763 106.402 4.92361C106.402 5.01708 107.002 5.13634 107.609 5.16342C108.094 5.18512 108.302 5.16739 108.569 5.08139C109.048 4.92685 109.533 4.61351 109.935 4.19815L110.279 3.84171L110.646 4.11409C110.848 4.26386 111.195 4.47389 111.416 4.58075C111.637 4.68766 111.843 4.7884 111.874 4.80472C111.936 4.83724 111.929 4.8101 111.696 4.14282C111.556 3.74231 111.537 3.59359 111.545 2.96623C111.55 2.57122 111.537 2.24798 111.516 2.24798C111.495 2.24792 111.457 2.24792 111.431 2.24798C111.36 2.2481 110.66 2.92179 110.462 3.18006C110.296 3.39767 110.102 3.47488 110.027 3.35391C109.971 3.26533 109.188 2.91733 108.816 2.8161C108.629 2.76512 108.302 2.71958 108.089 2.71487C107.713 2.70656 107.702 2.70191 107.702 2.54182C107.702 2.45135 107.73 2.36033 107.764 2.33955C107.798 2.31876 107.826 2.26216 107.826 2.21368C107.826 2.11331 107.634 2.09497 107.541 2.18642C107.5 2.22683 107.388 2.16509 107.206 2.00304C106.981 1.8018 106.889 1.75883 106.679 1.75883C106.54 1.75883 106.375 1.79575 106.312 1.84092ZM105.57 2.09717C105.456 2.30489 105.442 2.31173 105.189 2.27432C104.76 2.21087 104.459 2.29181 104.211 2.53754C103.905 2.83902 103.913 3.01544 104.236 3.11092C104.647 3.23244 105.061 3.0339 105.427 2.54011C105.491 2.453 105.547 2.44456 105.75 2.4909C105.886 2.52159 106.006 2.53687 106.018 2.52489C106.031 2.51284 106 2.4387 105.95 2.36015C105.9 2.2816 105.842 2.14161 105.82 2.04919C105.768 1.82638 105.711 1.8372 105.57 2.09717ZM118.235 2.09369L118.092 2.17199L118.254 2.33221C118.421 2.4972 118.724 2.54585 118.9 2.43582C118.958 2.39982 119.02 2.41376 119.084 2.47684C119.172 2.56364 119.185 2.55894 119.223 2.42549C119.294 2.17389 119.287 2.09069 119.203 2.1745C119.097 2.27915 118.96 2.26326 118.782 2.1256C118.606 1.98971 118.444 1.98024 118.235 2.09369ZM114.077 2.2426C113.675 2.75962 113.738 2.71897 113.531 2.59934C113.27 2.44799 112.602 2.45379 112.307 2.60998C112.023 2.76066 111.725 3.08916 111.725 3.25304C111.725 3.46155 112.157 3.60997 112.68 3.58087C112.941 3.56627 113.119 3.52794 113.134 3.48307C113.148 3.44248 113.193 3.40929 113.235 3.40929C113.331 3.40929 113.706 3.03005 113.706 2.93261C113.706 2.82613 113.776 2.84043 114.108 3.01501C114.272 3.10077 114.449 3.15432 114.503 3.13403C114.559 3.11257 114.575 3.07926 114.54 3.0545C114.428 2.97565 114.325 2.70833 114.278 2.375L114.232 2.04369L114.077 2.2426ZM120.615 2.23043C120.588 2.25684 120.528 2.36785 120.482 2.47708C120.388 2.69843 120.383 2.70002 120.085 2.6156C119.702 2.5071 119.165 2.73847 118.944 3.10689C118.809 3.33276 118.836 3.37414 119.177 3.46852C119.395 3.52867 119.501 3.52885 119.689 3.46962C119.944 3.38936 120.329 3.06978 120.329 2.93885C120.329 2.84587 120.564 2.8342 120.783 2.91635C120.952 2.97992 121.039 2.93732 120.952 2.83371C120.921 2.79672 120.844 2.63504 120.78 2.47446C120.716 2.31381 120.642 2.20403 120.615 2.23043ZM106.166 2.85137C106.122 2.879 105.948 2.88854 105.78 2.87264C105.467 2.84294 105.288 2.9177 105.288 3.07779C105.288 3.21032 105.719 3.25983 105.914 3.14962C106.033 3.08189 106.1 3.07376 106.147 3.12113C106.241 3.21301 106.291 3.14387 106.268 2.95804C106.253 2.84624 106.224 2.81561 106.166 2.85137ZM102.038 2.96776C101.806 3.09943 101.762 3.15878 101.806 3.28147C101.883 3.49976 102.243 3.90021 102.534 4.09172C102.831 4.28782 102.866 4.29565 103.443 4.29565C103.841 4.29565 104.07 4.26985 104.121 4.21923C104.267 4.07571 104.409 4.13561 104.522 4.38734C104.582 4.52182 104.653 4.63185 104.681 4.63185C104.708 4.63185 104.731 4.667 104.731 4.70997C104.731 4.75294 104.787 4.83516 104.855 4.89274C104.972 4.99226 104.978 4.99159 104.978 4.87875C104.978 4.55947 105.197 3.95657 105.406 3.69965C105.484 3.60331 105.477 3.59267 105.336 3.59267C105.181 3.59267 104.812 3.71658 104.581 3.84599C104.481 3.9021 104.442 3.88474 104.336 3.73742C104.135 3.45416 103.753 3.11257 103.493 2.98127C103.17 2.81849 102.315 2.8106 102.038 2.96776ZM121.864 3.10713C121.692 3.20573 121.846 3.46999 122.171 3.63681C122.354 3.73009 122.782 3.74042 122.837 3.65282C122.891 3.56663 122.988 3.63766 123.055 3.81255C123.127 3.99856 123.238 4.00327 123.238 3.82025C123.238 3.74366 123.282 3.61987 123.335 3.54518C123.427 3.41565 123.424 3.40929 123.276 3.40929C123.191 3.40929 123.104 3.43741 123.083 3.4717C123.06 3.50758 122.923 3.42958 122.761 3.28832C122.527 3.08519 122.434 3.04282 122.224 3.04435C122.084 3.04539 121.922 3.07363 121.864 3.10713ZM101.144 3.43209C101.022 3.6972 101.014 3.70282 100.778 3.67159C100.499 3.63467 100.105 3.7439 99.9528 3.90009C99.8952 3.95944 99.7918 4.11153 99.7231 4.23818L99.5982 4.46845L99.7576 4.55018C99.9812 4.66474 100.209 4.65202 100.51 4.50813C100.73 4.40311 100.871 4.25041 101.117 3.84843C101.123 3.83786 101.245 3.86029 101.388 3.89831C101.531 3.93633 101.66 3.95614 101.674 3.9422C101.688 3.92833 101.647 3.85088 101.583 3.77013C101.519 3.68932 101.447 3.53417 101.423 3.42524C101.357 3.12908 101.283 3.13085 101.144 3.43209ZM118.317 3.38869C118.215 3.51033 118.122 3.63351 118.111 3.66236C118.082 3.73571 117.915 3.72838 117.915 3.6538C117.915 3.62018 117.87 3.59267 117.815 3.59267C117.76 3.59267 117.58 3.54536 117.415 3.48747C117.128 3.38667 117.101 3.38716 116.757 3.50012C116.362 3.6299 115.911 4.00798 115.945 4.18048C115.983 4.37413 116.42 4.53673 116.901 4.53673C117.288 4.53673 117.375 4.51467 117.602 4.35952C117.744 4.26202 117.888 4.13213 117.921 4.07088C118.002 3.92069 118.119 3.93059 118.41 4.11226C118.665 4.27126 118.844 4.30897 118.844 4.20395C118.844 4.17033 118.818 4.14282 118.786 4.14282C118.705 4.14282 118.577 3.4915 118.623 3.31258C118.678 3.09319 118.536 3.12877 118.317 3.38869ZM116.12 3.31106C116.12 3.35788 116.166 3.41357 116.222 3.43478C116.35 3.4835 116.381 3.45342 116.332 3.32634C116.284 3.2042 116.12 3.19234 116.12 3.31106ZM115.683 3.48765C115.553 3.58735 115.492 3.76304 115.569 3.81041C115.727 3.9065 116.12 3.68235 116.12 3.49664C116.12 3.38832 115.82 3.38215 115.683 3.48765ZM113.52 3.5398C113.148 3.60007 112.721 3.77532 112.603 3.91616C112.511 4.02558 112.58 4.23329 112.818 4.5596C113.048 4.87508 113.586 5.3616 113.752 5.40414C113.829 5.42376 113.892 5.45977 113.892 5.48428C113.892 5.54027 114.686 5.73215 114.918 5.73215C115.162 5.73215 115.88 5.54853 116.026 5.44883C116.183 5.341 116.306 5.34234 116.306 5.45201C116.306 5.49962 116.327 5.54773 116.352 5.55898C116.378 5.57017 116.465 5.70312 116.547 5.85441C116.717 6.17002 117.036 6.58795 117.107 6.58795C117.133 6.58795 117.172 6.42009 117.194 6.21488C117.232 5.86138 117.407 5.24808 117.489 5.182C117.51 5.16519 117.545 5.09441 117.567 5.02466C117.589 4.95497 117.664 4.83767 117.733 4.76407C117.91 4.57702 117.835 4.50862 117.56 4.60557C117.432 4.65068 117.291 4.68882 117.246 4.69029C117.202 4.69175 116.997 4.7755 116.791 4.87636C116.585 4.97722 116.41 5.05975 116.401 5.05975C116.392 5.05975 116.304 4.94311 116.206 4.80056C115.925 4.3929 115.428 3.94324 115.062 3.76566C114.796 3.63607 114.01 3.44352 113.887 3.47757C113.872 3.48148 113.708 3.50954 113.52 3.5398ZM119.871 3.57226C119.639 3.61138 119.215 3.87606 119.215 3.98163C119.215 4.1564 119.926 4.99862 120.074 4.99862C120.107 4.99862 120.171 5.03303 120.216 5.07503C120.344 5.19466 120.909 5.36551 121.173 5.36447C121.408 5.36361 122.078 5.1864 122.163 5.1026C122.253 5.01451 122.311 5.07026 122.558 5.4808C122.697 5.71235 122.865 5.95044 122.932 6.00986C123.05 6.11524 123.053 6.11213 123.053 5.88345C123.053 5.63753 123.289 4.86047 123.374 4.82544C123.402 4.8142 123.424 4.77513 123.424 4.73852C123.424 4.70196 123.473 4.61797 123.532 4.55189C123.639 4.43386 123.636 4.43251 123.349 4.47402C123.083 4.51271 122.84 4.59896 122.535 4.76303C122.471 4.79726 122.399 4.8024 122.375 4.7744C122.352 4.7464 122.236 4.6 122.12 4.44895C121.644 3.83327 121.222 3.59903 120.528 3.56529C120.265 3.55251 119.97 3.55563 119.871 3.57226ZM98.4604 3.9411C98.1904 4.01024 98.6108 4.35035 98.9506 4.3377C99.1035 4.33202 99.2055 4.36423 99.2577 4.43459C99.3489 4.55782 99.3758 4.53863 99.4311 4.31093C99.471 4.14686 99.3937 4.07791 99.3136 4.20603C99.29 4.24362 99.1876 4.19423 99.0601 4.08378C98.858 3.90846 98.718 3.87514 98.4604 3.9411ZM124.411 3.95247C123.881 4.12406 123.85 4.30439 124.28 4.73185C124.444 4.89537 124.618 5.05755 124.667 5.09221C124.801 5.18793 125.239 5.30426 125.467 5.30426C125.696 5.30426 126.139 5.1905 126.258 5.10113C126.341 5.03884 126.513 5.20144 126.517 5.34576C126.518 5.38538 126.554 5.45531 126.596 5.50115C126.639 5.547 126.703 5.63673 126.74 5.70055C126.862 5.91371 126.934 5.86297 126.973 5.53648C126.994 5.35921 127.081 5.08316 127.165 4.923C127.342 4.58594 127.321 4.57775 126.783 4.76859L126.396 4.9054L126.29 4.75331C126.105 4.48771 125.752 4.16581 125.529 4.05749C125.279 3.93688 124.643 3.87716 124.411 3.95247ZM97.036 4.19601C96.8784 4.29864 96.8709 4.31851 96.958 4.40451C97.1079 4.55251 97.3892 4.58796 97.6288 4.48905C97.7613 4.43441 97.8764 4.42102 97.9293 4.45409C98.0755 4.5456 98.1078 4.51693 98.1078 4.29565C98.1078 4.05731 98.0672 4.02992 97.949 4.18867C97.8733 4.29057 97.8607 4.29057 97.6851 4.18867C97.4488 4.05156 97.2545 4.05376 97.036 4.19601ZM112.247 4.4797C112.225 4.59774 112.182 4.70942 112.152 4.72782C112.121 4.74622 112.097 4.81688 112.097 4.8848C112.097 4.98749 112.068 5.00229 111.927 4.97252C111.713 4.92765 111.021 5.03701 110.993 5.12014C110.982 5.15413 110.945 5.182 110.912 5.182C110.735 5.182 110.302 5.83595 110.302 6.10277C110.302 6.26623 110.404 6.30382 110.833 6.29741C111.132 6.29294 111.273 6.25694 111.467 6.13609C111.817 5.91805 112.028 5.67567 112.073 5.4418C112.094 5.33177 112.14 5.22394 112.176 5.20205C112.212 5.18023 112.424 5.16874 112.649 5.1765L113.056 5.19062L112.866 4.98768C112.628 4.73308 112.468 4.4808 112.468 4.35891C112.468 4.16825 112.288 4.26691 112.247 4.4797ZM110.544 4.50024C110.466 4.67342 110.43 4.69298 110.191 4.69298C109.877 4.69298 109.62 4.81059 109.441 5.03621C109.265 5.25658 109.275 5.41508 109.467 5.46264C109.821 5.55048 110.308 5.33115 110.399 5.04287C110.459 4.8546 110.535 4.81988 110.755 4.88192C110.988 4.948 111.034 4.9112 110.9 4.76493C110.843 4.70325 110.797 4.6258 110.797 4.59285C110.797 4.5599 110.759 4.48221 110.713 4.42022C110.635 4.31453 110.625 4.31955 110.544 4.50024ZM101.134 4.49902C100.868 4.56699 100.523 4.83376 100.522 4.97184C100.521 5.20572 101.148 5.54877 101.577 5.54877C101.829 5.54877 102.379 5.34528 102.379 5.25187C102.379 5.10969 102.578 5.14013 102.764 5.3108C103.152 5.66552 103.168 5.65892 103.135 5.15682C103.116 4.86285 103.13 4.69493 103.176 4.66706C103.214 4.64371 103.245 4.59878 103.245 4.56711C103.245 4.46197 103.111 4.50751 102.874 4.69298C102.745 4.79384 102.61 4.87636 102.574 4.87636C102.538 4.87636 102.389 4.79659 102.243 4.69915C101.962 4.51228 101.447 4.41925 101.134 4.49902ZM118.175 4.58295C117.942 4.81285 118.306 5.48361 118.841 5.81046C119.006 5.91126 119.156 5.94188 119.496 5.94372L119.936 5.9461L120.053 6.32815C120.117 6.53929 120.205 6.7102 120.249 6.7102C120.293 6.7102 120.329 6.67114 120.329 6.62346C120.329 6.48403 120.532 6.14764 120.716 5.98107C120.81 5.89641 120.886 5.80392 120.886 5.77543C120.886 5.74701 120.698 5.73063 120.468 5.73912L120.051 5.75447L119.986 5.5599C119.95 5.45286 119.887 5.33232 119.846 5.29197C119.805 5.25169 119.772 5.18903 119.772 5.15284C119.772 5.04679 119.392 4.74683 119.102 4.62348C118.799 4.4948 118.287 4.47243 118.175 4.58295ZM96.5795 4.64713C96.4659 4.82061 96.3773 4.97337 96.3402 5.05975C96.2394 5.29454 96.0956 5.54877 96.0636 5.54877C96.0441 5.54877 95.9953 5.51637 95.9552 5.47682C95.91 5.4322 95.653 5.40322 95.2775 5.40041C94.5768 5.39522 94.2466 5.51112 93.8518 5.90081C93.601 6.14838 93.335 6.62181 93.3807 6.73942C93.4914 7.02428 94.6298 7.12227 95.1562 6.8923C95.508 6.73863 95.8898 6.37168 96.0423 6.04085C96.1325 5.845 96.1854 5.79554 96.2819 5.81688C96.3901 5.84084 96.873 5.97985 97.1949 6.07961C97.3283 6.12099 97.3426 5.96285 97.215 5.8582C97.0724 5.74138 96.8748 5.30071 96.7952 4.92221C96.7209 4.56858 96.6719 4.50617 96.5795 4.64713ZM97.8912 4.68625C97.6418 4.75288 97.2979 4.90503 97.1585 5.01048C97.0488 5.09343 97.0498 5.1062 97.1865 5.3685C97.3638 5.70856 97.9962 6.3394 98.3245 6.50365C98.7321 6.70751 99.3385 6.84921 99.616 6.80544C99.9233 6.75691 100.47 6.58844 100.55 6.51796C100.699 6.38531 100.864 6.46997 100.984 6.74132C101.052 6.8923 101.124 7.01584 101.145 7.01584C101.166 7.01584 101.214 7.08272 101.251 7.16451C101.329 7.33341 101.575 7.62713 101.639 7.62713C101.662 7.62713 101.696 7.46893 101.714 7.27564C101.756 6.83625 101.904 6.40022 102.141 6.01585C102.242 5.85252 102.312 5.70673 102.297 5.69187C102.264 5.65911 101.579 5.88277 101.222 6.04305C101.08 6.10705 100.927 6.14471 100.882 6.1268C100.837 6.10889 100.731 5.98266 100.646 5.84628C100.384 5.42651 99.9658 5.0658 99.4768 4.83736C99.2062 4.71095 99.0173 4.67177 98.6042 4.6563C98.3142 4.64548 97.9933 4.65893 97.8912 4.68625ZM105.463 5.00834L105.252 5.26086L105.007 5.14502C104.716 5.00773 103.922 4.98022 103.88 5.10602C103.866 5.14783 103.824 5.182 103.788 5.182C103.711 5.182 103.307 5.5794 103.307 5.65483C103.307 5.73289 103.617 5.89524 103.917 5.97465C104.312 6.07893 104.735 5.95808 105.044 5.65312L105.283 5.41673L105.493 5.57444C105.761 5.77684 105.931 5.78576 105.875 5.59462C105.853 5.51894 105.821 5.4061 105.803 5.34381C105.785 5.28152 105.771 5.13701 105.771 5.0227C105.771 4.90839 105.749 4.8016 105.722 4.78534C105.696 4.76908 105.579 4.86945 105.463 5.00834ZM94.1885 4.9046C94.027 5.06415 94.0637 5.15566 94.3234 5.24032C94.5299 5.30762 94.5929 5.30383 94.788 5.21238C94.9715 5.12638 95.0313 5.121 95.1077 5.18353C95.2338 5.2869 95.2732 5.23384 95.2495 4.99287C95.2308 4.80454 95.2231 4.79848 95.1257 4.89531C95.0062 5.01414 94.9095 5.0282 94.8769 4.9315C94.8643 4.89458 94.7278 4.85026 94.5734 4.83308C94.362 4.80955 94.2669 4.82722 94.1885 4.9046ZM95.4462 4.89708C95.4462 5.001 95.7242 5.129 95.8478 5.08212C95.8993 5.06262 95.9414 5.07711 95.9414 5.11433C95.9414 5.15156 95.9832 5.182 96.0343 5.182C96.0853 5.182 96.1271 5.14074 96.1271 5.09031C96.1271 5.03988 96.0834 4.99862 96.0299 4.99862C95.9763 4.99862 95.8908 4.95736 95.8397 4.90693C95.7242 4.7928 95.4462 4.78589 95.4462 4.89708ZM128.442 5.02166C128.349 5.19233 128.232 5.21807 127.98 5.12314C127.702 5.0191 127.134 5.35371 127.219 5.57127C127.263 5.68368 127.579 5.75355 127.814 5.70257C127.914 5.68093 128.066 5.59376 128.152 5.50885C128.28 5.38183 128.343 5.36202 128.506 5.39736C128.682 5.43562 128.699 5.42792 128.656 5.32639C128.63 5.26379 128.59 5.13353 128.568 5.03695L128.529 4.86132L128.442 5.02166ZM123.61 5.05327C123.309 5.13585 123.416 5.44681 123.815 5.65067C123.922 5.70532 124.115 5.73258 124.311 5.72078C124.593 5.70385 124.638 5.71791 124.692 5.83913C124.786 6.05143 124.91 6.00827 124.91 5.76272C124.91 5.64505 124.937 5.54877 124.971 5.54877C125.005 5.54877 125.033 5.50751 125.033 5.45708C125.033 5.34748 125.04 5.34815 124.794 5.43299C124.617 5.49388 124.585 5.48563 124.477 5.34907C124.35 5.1908 123.992 4.99422 123.848 5.00473C123.802 5.00809 123.695 5.02992 123.61 5.05327ZM92.8753 5.22712C92.806 5.23873 92.6675 5.31257 92.5676 5.39124C92.4106 5.51491 92.3972 5.54773 92.4691 5.63325C92.6069 5.7972 93.1017 5.76529 93.3049 5.57933C93.4757 5.42303 93.5893 5.38379 93.5893 5.4811C93.5893 5.51112 93.631 5.55146 93.682 5.57078C93.7548 5.59841 93.7714 5.56063 93.7593 5.39405C93.7426 5.16269 93.6755 5.12583 93.5586 5.28384C93.4903 5.37602 93.4604 5.37712 93.2422 5.29582C93.1097 5.24649 92.9446 5.21556 92.8753 5.22712ZM106.356 5.42841C106.16 5.5061 106.182 5.6761 106.418 5.89806C106.683 6.1488 107.064 6.26097 107.334 6.168C107.612 6.07233 107.614 6.07294 107.764 6.31287C107.931 6.58043 108.011 6.58483 108.011 6.3265C108.011 6.21629 108.056 6.06322 108.111 5.98633C108.243 5.80031 108.191 5.76559 107.923 5.86114C107.708 5.93797 107.695 5.93406 107.47 5.71755C107.123 5.38495 106.725 5.2817 106.356 5.42841ZM112.824 5.49755C112.607 5.57567 112.61 5.66125 112.835 5.9101C113.007 6.10137 113.035 6.10993 113.454 6.10608C113.783 6.10302 113.892 6.12258 113.892 6.18469C113.892 6.23017 113.934 6.30156 113.985 6.34344C114.063 6.4075 114.077 6.39631 114.077 6.27283C114.077 6.19214 114.122 6.06322 114.177 5.98633C114.296 5.81773 114.241 5.73918 114.075 5.84145C113.901 5.94885 113.832 5.93424 113.694 5.76119C113.576 5.61302 113.21 5.42126 113.064 5.43134C113.026 5.43397 112.918 5.4638 112.824 5.49755ZM122.148 5.58441C122.116 5.71174 122.083 5.73429 121.977 5.70092C121.559 5.56949 121.244 5.62292 120.997 5.86706C120.858 6.00497 120.857 6.09397 120.995 6.19722C121.243 6.38335 121.692 6.28133 122.011 5.96621C122.099 5.87935 122.155 5.86908 122.282 5.91664C122.533 6.0109 122.58 5.98865 122.472 5.82599C122.417 5.74316 122.372 5.61937 122.372 5.55091C122.372 5.37113 122.196 5.39748 122.148 5.58441ZM90.8045 5.56827C90.6453 5.60959 90.5188 5.68075 90.5084 5.73466C90.4817 5.87367 90.9836 6.37828 91.2602 6.49063C91.5446 6.6061 92.0323 6.61747 92.2624 6.51398C92.4053 6.44968 92.4383 6.45567 92.5141 6.55983C92.5621 6.62572 92.6415 6.72683 92.6906 6.78447C92.8179 6.93412 92.7295 6.95936 92.3138 6.89218C92.1132 6.85972 91.5785 6.83301 91.1256 6.83283C90.128 6.8324 89.503 6.95068 89.3255 7.17362C89.1925 7.34056 89.0085 8.22636 89.0089 8.69687C89.0095 9.19769 89.3004 10.7279 89.4474 11.0036C89.4786 11.062 89.505 11.1445 89.5062 11.187C89.5074 11.2295 89.5621 11.3743 89.6279 11.5088C89.6937 11.6432 89.7484 11.7745 89.7495 11.8003C89.7569 11.966 90.649 13.6275 90.7526 13.6686C90.7808 13.6798 90.8039 13.7153 90.8039 13.7475C90.8039 13.816 91.0611 14.189 91.1289 14.2187C91.1544 14.23 91.1753 14.2658 91.1753 14.2983C91.1753 14.3733 92.2943 15.7644 92.6274 16.1034C92.765 16.2434 92.9777 16.4635 93.1002 16.5924C93.419 16.928 94.1112 17.567 94.5797 17.9581C94.801 18.1428 94.9959 18.311 95.013 18.3319C95.03 18.3527 95.2389 18.5161 95.4772 18.6949C95.7155 18.8738 95.9198 19.0424 95.9311 19.0696C95.9425 19.0969 95.9869 19.1192 96.0298 19.1192C96.0728 19.1192 96.1584 19.1742 96.22 19.2415C96.2816 19.3087 96.3672 19.3637 96.4101 19.3637C96.4531 19.3637 96.4975 19.386 96.5088 19.4131C96.5387 19.4846 97.0966 19.8527 97.175 19.8527C97.2115 19.8527 97.2413 19.8809 97.2413 19.9154C97.2413 19.9498 97.304 20.006 97.3805 20.0403C97.4571 20.0745 97.5755 20.1361 97.6436 20.1771C97.7117 20.2181 97.9622 20.3614 98.2003 20.4954C98.4384 20.6294 98.6891 20.7719 98.7574 20.8118C98.9079 20.9 99.1012 20.9924 99.7481 21.2853C100.02 21.4086 100.297 21.539 100.363 21.575C100.429 21.6109 100.554 21.6625 100.641 21.6896C100.878 21.7628 101.649 22.0453 101.791 22.1109C101.859 22.1424 102.11 22.2276 102.348 22.3003C102.586 22.373 102.837 22.4567 102.905 22.4863C102.973 22.516 103.14 22.5669 103.276 22.5997C103.412 22.6324 103.691 22.7042 103.895 22.7594C104.443 22.9072 104.973 23.0337 105.288 23.0918C105.441 23.12 105.645 23.173 105.741 23.2095C105.837 23.246 105.99 23.2757 106.081 23.2755C106.173 23.2753 106.484 23.3155 106.774 23.3649C108.126 23.5957 109.197 23.6691 111.168 23.666C112.325 23.6643 113.332 23.6333 113.644 23.5901C113.934 23.55 114.449 23.4924 114.789 23.462C115.417 23.4061 115.974 23.3289 116.646 23.2046C116.85 23.1669 117.129 23.1156 117.265 23.0907C117.825 22.9882 119.068 22.719 119.633 22.5779C119.846 22.5247 120.18 22.4426 120.376 22.3952C120.571 22.3479 120.815 22.282 120.917 22.2487C121.019 22.2155 121.27 22.1425 121.474 22.0867C121.678 22.0308 121.894 21.9592 121.953 21.9275C122.012 21.8959 122.11 21.8698 122.17 21.8696C122.23 21.8694 122.359 21.8281 122.456 21.7779C122.554 21.7277 122.673 21.6866 122.721 21.6866C122.939 21.6866 122.879 21.4702 122.484 20.8308C122.191 20.3558 121.948 19.8379 121.98 19.7561C122.02 19.6536 122.327 19.6415 122.505 19.7354C122.698 19.8376 122.714 19.754 122.543 19.5328L122.388 19.3317L122.544 19.1321C122.821 18.7776 122.785 18.178 122.475 17.9943C122.381 17.9382 122.333 17.9619 122.182 18.1383C121.931 18.4318 121.894 18.685 122.056 19.0142C122.212 19.3324 122.211 19.3298 122.089 19.4511C121.978 19.5603 121.815 19.5791 121.815 19.4826C121.815 19.4198 121.615 18.9384 121.511 18.7504C121.482 18.6989 121.438 18.5613 121.413 18.4448C121.388 18.3282 121.347 18.2053 121.323 18.1717C121.273 18.1011 121.157 17.7196 121.027 17.1937C120.929 16.7968 120.917 16.6636 120.821 14.9625C120.739 13.5045 120.706 13.1455 120.628 12.8841C120.594 12.7665 120.528 12.4914 120.482 12.2729C120.399 11.8806 120.36 11.7077 120.18 10.928C120.075 10.47 119.913 10.0067 119.83 9.92248C119.798 9.89057 119.772 9.82413 119.772 9.77486C119.772 9.59924 119.387 8.73611 119.256 8.61752C119.034 8.41702 117.533 8.04353 116.491 7.92953C116.236 7.90159 115.86 7.85073 115.656 7.8165C115.057 7.71613 112.696 7.56343 111.763 7.56477L110.903 7.566L110.939 7.27081C110.958 7.10851 111.035 6.87348 111.11 6.74865C111.184 6.62377 111.233 6.5094 111.218 6.49442C111.203 6.47951 111.026 6.53024 110.825 6.6072L110.459 6.74706L110.228 6.45848C110.101 6.29973 109.933 6.15021 109.855 6.12613C109.777 6.1021 109.695 6.05369 109.672 6.01854C109.649 5.98339 109.459 5.94237 109.25 5.9274C108.741 5.89109 108.36 6.05149 108.416 6.27858C108.461 6.45927 108.755 6.82195 108.863 6.82806C108.905 6.8305 108.94 6.85801 108.94 6.88925C108.94 6.92048 109.093 6.98999 109.28 7.04378C109.593 7.13339 109.652 7.13333 110.006 7.04292C110.275 6.97409 110.398 6.96468 110.414 7.01175C110.426 7.04885 110.476 7.11799 110.524 7.16536C110.572 7.2128 110.611 7.28108 110.611 7.31714C110.611 7.35315 110.639 7.38261 110.673 7.38261C110.707 7.38261 110.735 7.42308 110.735 7.47253C110.735 7.54925 110.465 7.56496 108.894 7.57951C107.881 7.58886 107.028 7.57841 106.999 7.55622C106.931 7.50481 107.133 6.89609 107.259 6.77274C107.344 6.68918 107.337 6.67762 107.184 6.6599C107.09 6.64908 106.946 6.68343 106.865 6.73631C106.635 6.88503 106.562 6.85813 106.175 6.48097C105.886 6.19942 105.752 6.11549 105.502 6.05919C105.147 5.97911 104.68 6.062 104.503 6.23628C104.409 6.32956 104.414 6.3534 104.579 6.56716C104.81 6.86596 104.914 6.96205 105.147 7.09225C105.386 7.22631 106.027 7.23591 106.275 7.10913C106.469 7.0101 106.469 7.01028 106.672 7.37155C106.734 7.48317 106.769 7.59124 106.748 7.61172C106.727 7.63226 106.369 7.67175 105.953 7.69944C105.536 7.72719 104.951 7.7797 104.652 7.81607C104.353 7.8525 103.796 7.90507 103.414 7.93301C103.032 7.96088 102.429 8.01657 102.074 8.05679C101.313 8.1428 98.7826 8.10643 97.9841 7.99799C95.9011 7.71515 95.7511 7.68972 95.2915 7.54124C94.3512 7.23756 93.667 7.06536 93.2583 7.02954L92.9582 7.00325L93.0007 6.71919C93.0241 6.56295 93.0826 6.39173 93.1306 6.33861C93.3443 6.10253 93.1264 6.02001 92.7523 6.19532C92.5575 6.28665 92.5398 6.285 92.418 6.16476C92.3473 6.09495 92.2895 6.01029 92.2895 5.97667C92.2895 5.94305 92.2477 5.91554 92.1966 5.91554C92.1456 5.91554 92.1038 5.88858 92.1038 5.85563C92.1038 5.76009 91.6649 5.56797 91.361 5.53049C91.2078 5.5116 90.9574 5.5286 90.8045 5.56827ZM117.59 5.61503C117.344 5.75642 117.825 6.14159 118.157 6.06952C118.275 6.04397 118.355 6.06316 118.411 6.13089C118.486 6.22002 118.502 6.21592 118.574 6.0878C118.69 5.88076 118.676 5.83668 118.506 5.87868C118.407 5.90331 118.338 5.88601 118.305 5.82849C118.246 5.72372 117.922 5.54889 117.791 5.55103C117.74 5.55183 117.65 5.58062 117.59 5.61503ZM116.12 5.65636C116.12 5.68191 116.052 5.77549 115.969 5.86425C115.82 6.02257 115.812 6.02392 115.551 5.93528C115.209 5.8189 114.802 5.87648 114.533 6.07924C114.14 6.37498 114.218 6.60066 114.74 6.67811C115.182 6.74389 115.487 6.62102 115.803 6.24869C115.85 6.19337 115.906 6.17197 115.927 6.20119C115.948 6.23035 116.049 6.29404 116.151 6.3427C116.253 6.39136 116.358 6.44124 116.383 6.45353C116.409 6.46581 116.43 6.43464 116.43 6.38421C116.43 6.33378 116.401 6.28316 116.367 6.27173C116.332 6.26036 116.286 6.10675 116.265 5.93045C116.244 5.75416 116.203 5.6099 116.173 5.6099C116.144 5.6099 116.12 5.6308 116.12 5.65636ZM27.007 6.11421C27.0669 6.32436 27.1392 6.53843 27.1676 6.58997C27.196 6.6415 27.2402 6.77812 27.2659 6.89359C27.2916 7.00906 27.3339 7.14568 27.3598 7.19721C27.3858 7.24874 27.4683 7.49723 27.5432 7.74938C27.6179 8.00153 27.701 8.26286 27.7276 8.3301C27.7542 8.39734 27.8792 8.78244 28.0055 9.18589C28.1318 9.58934 28.2608 9.96717 28.2921 10.0255C28.3235 10.0839 28.3491 10.1716 28.3491 10.2202C28.3491 10.269 28.3818 10.3863 28.4217 10.4809C28.5358 10.7516 28.6501 11.1979 28.6183 11.2487C28.6024 11.274 27.7973 11.2948 26.829 11.2948H25.0686V11.142C25.0686 11.0579 25.0939 10.9892 25.125 10.9892C25.1561 10.9892 25.2013 10.8733 25.2255 10.7317C25.2497 10.5901 25.292 10.432 25.3194 10.3802C25.3469 10.3285 25.4305 10.0799 25.5053 9.82774C25.58 9.57558 25.6631 9.31426 25.6899 9.24702C25.7166 9.17978 25.8006 8.91846 25.8765 8.6663C26.0298 8.15662 26.1712 7.72083 26.2434 7.53543C26.287 7.42332 26.3745 7.14085 26.6506 6.22118C26.7061 6.03627 26.762 5.85062 26.7747 5.80857C26.8242 5.64493 26.9026 5.74799 27.007 6.11421ZM89.779 5.86028C89.712 5.96725 89.9024 6.10791 90.1443 6.1301C90.2666 6.14135 90.3955 6.16806 90.4306 6.18945C90.4664 6.21128 90.4944 6.17399 90.4944 6.10442C90.4944 6.02722 90.4638 5.99213 90.4132 6.01133C90.3685 6.02826 90.2806 5.98614 90.2179 5.91768C90.0951 5.78369 89.8472 5.75129 89.779 5.86028ZM126.009 6.10528L125.798 6.35615L125.512 6.22754C125.026 6.00907 124.481 6.09691 124.108 6.45389C123.798 6.74982 123.843 6.88644 124.3 7.04366C124.811 7.21952 125.212 7.12954 125.607 6.75012L125.826 6.54076L126.086 6.68661C126.474 6.90441 126.619 6.87678 126.424 6.62212C126.371 6.55237 126.333 6.36966 126.333 6.17894C126.333 6.00045 126.308 5.85441 126.276 5.85441C126.245 5.85441 126.125 5.96731 126.009 6.10528ZM127.478 5.91114C127.178 5.9711 126.71 6.1982 126.669 6.30395C126.624 6.41844 126.77 6.71931 127.014 7.01872C127.218 7.26885 127.28 7.32949 127.615 7.61288C127.888 7.84401 128.544 8.05502 128.99 8.05502C129.318 8.05502 129.965 7.90514 130.075 7.80372C130.194 7.69333 130.397 7.74901 130.485 7.91644C130.694 8.31353 131.154 8.96338 131.23 8.96913C131.25 8.97066 131.284 8.77511 131.304 8.53457C131.325 8.29403 131.37 8.06847 131.406 8.03332C131.442 7.99817 131.471 7.91852 131.471 7.85623C131.471 7.72786 131.695 7.29881 131.858 7.11469C131.992 6.96303 131.908 6.85453 131.729 6.94903C131.66 6.98577 131.548 7.01584 131.481 7.01584C131.413 7.01584 131.172 7.09837 130.945 7.19923C130.717 7.30009 130.512 7.38188 130.49 7.38096C130.468 7.38005 130.38 7.26708 130.295 7.12985C130.065 6.76002 129.459 6.23322 129.064 6.06017C128.682 5.89311 127.925 5.82195 127.478 5.91114ZM102.45 5.96994C102.203 6.12435 102.677 6.50432 103.034 6.43818C103.195 6.40829 103.256 6.42174 103.284 6.49332C103.339 6.63453 103.396 6.60867 103.473 6.40811C103.549 6.20816 103.515 6.12729 103.395 6.2254C103.338 6.27247 103.247 6.23964 103.055 6.10259C102.792 5.91413 102.604 5.87312 102.45 5.96994ZM112.176 6.16274C111.946 6.21158 111.663 6.37944 111.663 6.46753C111.663 6.57132 111.964 6.79089 112.225 6.87806C112.489 6.96615 112.785 6.91486 113.049 6.73557C113.152 6.66595 113.186 6.67836 113.326 6.83595C113.414 6.93491 113.508 7.01584 113.534 7.01584C113.561 7.01584 113.582 6.90398 113.582 6.7673C113.582 6.63062 113.611 6.46557 113.646 6.40053C113.728 6.25064 113.577 6.23469 113.433 6.37773C113.293 6.51533 113.141 6.50854 112.931 6.35542C112.688 6.1787 112.422 6.1106 112.176 6.16274ZM119.585 6.14477C119.585 6.16995 119.504 6.28029 119.406 6.38995L119.228 6.58929L118.938 6.46636C118.595 6.32125 118.318 6.31049 118.031 6.43115C117.674 6.58135 117.269 7.01584 117.486 7.01584C117.523 7.01584 117.593 7.05546 117.642 7.10393C117.757 7.21744 118.209 7.28395 118.517 7.2326C118.661 7.20864 118.852 7.10998 118.99 6.98852C119.228 6.77934 119.388 6.76216 119.53 6.93075C119.569 6.97758 119.651 7.01584 119.711 7.01584C119.808 7.01584 119.814 6.98607 119.761 6.75605C119.728 6.61313 119.712 6.40683 119.724 6.29759C119.74 6.16378 119.721 6.09892 119.667 6.09892C119.623 6.09892 119.586 6.11958 119.585 6.14477ZM123.569 6.21024C123.511 6.30272 123.437 6.31727 123.136 6.29612C122.811 6.27326 122.759 6.28646 122.627 6.4262C122.441 6.62291 122.49 6.75324 122.769 6.80489C122.934 6.83564 123.038 6.81345 123.205 6.71161C123.325 6.63813 123.424 6.55274 123.424 6.52181C123.424 6.49094 123.466 6.46569 123.517 6.46569C123.568 6.46569 123.61 6.4932 123.61 6.52682C123.61 6.56044 123.655 6.58795 123.71 6.58795C123.783 6.58795 123.8 6.55152 123.772 6.45041C123.752 6.37473 123.735 6.26476 123.734 6.2059C123.733 6.06738 123.658 6.06934 123.569 6.21024ZM90.5509 6.37443C90.4695 6.45524 90.4246 6.45952 90.2906 6.39918C89.9937 6.26562 89.5348 6.56282 89.8118 6.70929C89.9775 6.79682 90.195 6.78307 90.3385 6.67591C90.4199 6.61515 90.5235 6.59797 90.6468 6.62469C90.7997 6.65788 90.8202 6.65012 90.7629 6.58061C90.7247 6.53422 90.6835 6.44686 90.6713 6.38653C90.651 6.28604 90.6409 6.285 90.5509 6.37443ZM103.915 6.41355C103.869 6.49265 103.799 6.6124 103.76 6.67964C103.722 6.74688 103.653 6.78979 103.607 6.77494C103.378 6.70079 102.885 6.7102 102.688 6.79254C102.42 6.90404 102.131 7.16102 102.131 7.28799C102.131 7.34007 102.103 7.38261 102.069 7.38261C102.035 7.38261 102.007 7.41715 102.007 7.45939C102.007 7.57144 102.371 7.71558 102.657 7.7168C103.079 7.71863 103.352 7.54546 103.697 7.0579C103.771 6.953 103.791 6.95245 104.073 7.04702C104.237 7.10191 104.386 7.13272 104.403 7.11542C104.421 7.09818 104.376 7.00252 104.304 6.90294C104.233 6.80336 104.174 6.69492 104.174 6.66191C104.174 6.6289 104.135 6.52719 104.087 6.43586L103.999 6.26978L103.915 6.41355ZM120.654 6.56252C120.419 6.66417 120.402 6.78203 120.585 7.04586C120.89 7.48506 121.615 7.70378 122.052 7.48836L122.238 7.39673L122.426 7.69528C122.643 8.03962 122.743 8.07397 122.743 7.80409C122.743 7.69975 122.812 7.47968 122.895 7.31507C123.029 7.0513 123.035 7.01609 122.942 7.01798C122.884 7.01921 122.766 7.05949 122.681 7.10754C122.433 7.24776 122.304 7.215 122.078 6.95368C121.701 6.51906 121.123 6.36012 120.654 6.56252ZM96.0918 6.60788C95.9874 6.64736 95.8204 6.73918 95.7209 6.81192L95.5401 6.9442L95.7686 7.16341C95.8943 7.28395 96.0241 7.38261 96.057 7.38261C96.0899 7.38261 96.1279 7.41538 96.1414 7.45542C96.1558 7.49827 96.3356 7.53886 96.5786 7.55414C96.9301 7.57627 97.0352 7.55738 97.288 7.42687L97.5847 7.27362L97.7618 7.48323C97.8592 7.59846 97.984 7.71662 98.0391 7.74577C98.1249 7.79113 98.1394 7.75763 98.1391 7.51428C98.1389 7.3578 98.1609 7.12704 98.1878 7.00148C98.2316 6.79762 98.225 6.77744 98.1259 6.8132C98.0649 6.83527 97.9486 6.90361 97.8674 6.96511C97.6686 7.11573 97.6075 7.10735 97.3687 6.89683C97.1476 6.70177 96.6961 6.52401 96.4411 6.53147C96.3535 6.53403 96.1964 6.56839 96.0918 6.60788ZM115.784 6.79144C115.692 6.85777 115.684 6.89634 115.741 7.00117C115.912 7.31635 116.431 7.48427 116.736 7.32295C116.829 7.27381 116.862 7.2952 116.925 7.44521C117.027 7.68685 117.172 7.68361 117.172 7.43971C117.172 7.33665 117.201 7.19911 117.236 7.13407C117.315 6.98962 117.248 6.98277 117.056 7.11561C116.917 7.21139 116.905 7.20797 116.748 7.02752C116.487 6.72836 116.027 6.6157 115.784 6.79144ZM100.388 7.01584C100.238 7.21598 100.064 7.24648 99.8756 7.10558C99.7059 6.97886 99.047 6.98614 98.8489 7.11689C98.6115 7.27374 98.3554 7.52088 98.3559 7.59271C98.3562 7.62847 98.4662 7.71955 98.6003 7.79523C99.0813 8.06645 99.7493 7.94756 100.081 7.5317C100.183 7.4034 100.208 7.39588 100.275 7.47492C100.317 7.52504 100.39 7.566 100.437 7.566C100.483 7.566 100.522 7.59033 100.522 7.61997C100.522 7.64968 100.581 7.68917 100.653 7.70775C100.77 7.73807 100.779 7.7223 100.745 7.55444C100.725 7.4515 100.708 7.24697 100.708 7.0999C100.708 6.77524 100.591 6.74462 100.388 7.01584ZM108.414 6.89371C108.392 6.92776 108.274 6.93925 108.147 6.91957C107.966 6.89145 107.889 6.91174 107.774 7.01829C107.613 7.16836 107.655 7.25278 107.901 7.27295C108.08 7.28756 108.383 7.15204 108.383 7.05717C108.383 7.02404 108.439 7.04671 108.507 7.10754C108.637 7.22362 108.653 7.19697 108.591 6.97C108.552 6.82427 108.477 6.79224 108.414 6.89371ZM125.8 7.17349C125.724 7.47278 125.831 7.99004 126.03 8.29092C126.233 8.59662 126.564 8.84969 126.762 8.84969C126.828 8.84969 126.9 8.87719 126.921 8.91081C126.942 8.94444 127.027 8.97194 127.111 8.97194C127.257 8.97194 127.262 8.98508 127.262 9.4304C127.262 9.68256 127.279 9.88886 127.3 9.88886C127.322 9.88886 127.449 9.76508 127.584 9.61379C127.719 9.46249 127.869 9.33871 127.917 9.33871C127.965 9.33871 128.004 9.3142 128.004 9.28418C128.004 9.25423 128.074 9.21242 128.159 9.19133C128.374 9.13809 128.352 9.05055 128.113 9.00214C127.533 8.88496 127.447 8.83929 127.447 8.64674C127.447 8.01975 126.957 7.33157 126.361 7.12251C125.945 6.97697 125.848 6.98583 125.8 7.17349ZM132.244 7.36244C132.062 7.4015 131.842 7.51813 131.842 7.57614C131.842 7.60402 131.939 7.7322 132.056 7.86112C132.33 8.1601 132.669 8.27013 133.025 8.17551C133.252 8.11517 133.292 8.12129 133.396 8.23168C133.461 8.29978 133.513 8.38126 133.513 8.41268C133.513 8.4441 133.555 8.48567 133.606 8.50505C133.673 8.53017 133.699 8.49912 133.699 8.3963C133.699 8.31714 133.741 8.17361 133.791 8.07727C133.882 7.90544 133.913 7.74938 133.856 7.74938C133.84 7.74938 133.734 7.79309 133.621 7.84657L133.414 7.94377L133.114 7.66319C132.939 7.50028 132.754 7.38261 132.673 7.38261C132.596 7.38261 132.496 7.3721 132.451 7.35932C132.405 7.34649 132.313 7.34789 132.244 7.36244ZM119.215 7.74785C119.215 7.88985 119.259 8.09677 119.312 8.20778C119.447 8.48787 119.795 8.78526 120.035 8.82469C120.542 8.90806 120.515 8.88367 120.515 9.24818C120.515 9.6309 120.602 9.68274 120.787 9.41017C120.851 9.31512 120.997 9.17415 121.112 9.09677C121.226 9.01944 121.319 8.93368 121.319 8.90611C121.319 8.8786 121.174 8.84779 120.995 8.83758C120.726 8.8223 120.667 8.79828 120.651 8.69687C120.632 8.571 120.602 8.49044 120.434 8.10692C120.288 7.77261 119.955 7.55035 119.551 7.51722L119.215 7.48971V7.74785ZM123.577 7.54301C123.507 7.55842 123.368 7.63678 123.267 7.71711L123.084 7.86308L123.35 8.11053C123.758 8.48817 124.239 8.56758 124.698 8.33266C124.856 8.25191 125.033 8.26408 125.033 8.35565C125.033 8.42222 125.278 8.6663 125.345 8.6663C125.378 8.6663 125.405 8.55542 125.405 8.41983C125.405 8.28425 125.445 8.07794 125.494 7.96137C125.57 7.78214 125.571 7.74938 125.498 7.74938C125.451 7.74938 125.396 7.77518 125.376 7.80666C125.357 7.83814 125.255 7.90581 125.151 7.95709C125 8.03149 124.938 8.03546 124.843 7.97684C124.777 7.93643 124.724 7.88521 124.724 7.86296C124.724 7.84077 124.622 7.76301 124.497 7.69015C124.273 7.55982 123.824 7.48794 123.577 7.54301ZM120.958 7.91547C120.836 7.93845 120.82 7.96804 120.855 8.10454C120.947 8.46978 121.447 8.72511 121.903 8.64057C122.09 8.60591 122.125 8.62052 122.197 8.76453C122.307 8.98429 122.382 8.96076 122.509 8.6674L122.615 8.42112L122.384 8.45749C122.171 8.49111 122.139 8.47515 121.953 8.24654C121.698 7.93411 121.395 7.83331 120.958 7.91547ZM134.001 8.34128C133.979 8.68806 134.11 8.94346 134.359 9.03674C134.488 9.08515 134.51 9.12391 134.478 9.24794C134.432 9.42924 134.53 9.44795 134.746 9.29892L134.892 9.19793L134.729 9.11357C134.601 9.0475 134.566 8.9838 134.566 8.82059C134.566 8.58794 134.373 8.33383 134.148 8.26976C134.041 8.23938 134.007 8.25601 134.001 8.34128ZM128.101 8.38096C127.995 8.45773 128 8.47387 128.188 8.66386C128.374 8.85164 128.408 8.86295 128.69 8.83C128.951 8.7995 129.005 8.8124 129.084 8.92408C129.176 9.05337 129.176 9.0533 129.24 8.88649C129.333 8.64417 129.322 8.61868 129.14 8.65316C129.038 8.67248 128.95 8.65084 128.908 8.59607C128.698 8.32313 128.321 8.22245 128.101 8.38096ZM129.739 8.5416C129.613 8.77328 129.56 9.28938 129.625 9.64435C129.696 10.0292 129.978 10.4169 130.361 10.6555L130.598 10.8032L130.437 11.2334C130.27 11.6795 130.278 11.8044 130.464 11.6554C130.71 11.4594 130.979 11.3559 131.244 11.3559C131.722 11.3559 131.674 11.2074 131.099 10.9067C130.79 10.7446 130.758 10.7032 130.856 10.5866C130.914 10.5174 130.942 10.3152 130.943 9.95751C130.945 9.37288 130.861 9.12929 130.552 8.81912C130.273 8.53971 130.189 8.48341 129.992 8.44453C129.848 8.41604 129.796 8.43591 129.739 8.5416ZM131.896 8.77804C131.374 8.96455 131.328 9.08204 131.619 9.48823C131.796 9.7361 131.942 9.86032 132.306 10.0734C132.572 10.2289 132.679 10.2546 133.062 10.2551C133.357 10.2554 133.585 10.2201 133.731 10.151C133.972 10.0376 134.099 10.0735 134.221 10.2893C134.418 10.6379 134.642 10.9263 134.693 10.8952C134.725 10.8757 134.751 10.7337 134.751 10.5797C134.751 10.3107 134.934 9.83599 135.107 9.65529C135.326 9.42637 135.033 9.42435 134.523 9.65126C134.227 9.78238 134.07 9.79833 134.07 9.69729C134.07 9.65914 133.895 9.45974 133.68 9.25411C133.359 8.94602 133.223 8.86142 132.909 8.77328C132.448 8.64381 132.27 8.64466 131.896 8.77804ZM124.416 9.00073C124.238 9.18809 124.297 9.27783 124.699 9.42943C124.968 9.53108 124.993 9.53096 125.224 9.42814C125.358 9.36873 125.467 9.29684 125.467 9.26829C125.467 9.17849 125.591 9.21181 125.728 9.33871C125.926 9.52069 125.962 9.49202 125.962 9.15025C125.962 8.97934 125.941 8.84956 125.915 8.86185C125.89 8.87414 125.794 8.92157 125.701 8.9673C125.556 9.03937 125.513 9.03704 125.378 8.95006C125.283 8.8885 125.095 8.84969 124.892 8.84969C124.619 8.84969 124.534 8.87652 124.416 9.00073ZM122.384 9.14096C122.34 9.15563 122.235 9.27428 122.152 9.40473C121.972 9.68622 121.95 10.116 122.096 10.4774C122.211 10.7599 122.39 11.1299 122.434 11.1726C122.527 11.2646 122.743 11.6046 122.743 11.6591C122.743 11.6941 122.771 11.7227 122.805 11.7227C122.839 11.7227 122.867 11.7513 122.867 11.7863C122.867 11.8464 123.102 12.2071 123.184 12.2729C123.205 12.2897 123.241 12.3653 123.265 12.441C123.289 12.5166 123.334 12.5785 123.366 12.5785C123.398 12.5785 123.424 12.6058 123.424 12.639C123.424 12.6723 123.549 12.8804 123.703 13.1013C123.856 13.3224 123.981 13.5228 123.981 13.5468C123.981 13.5708 124.064 13.6798 124.165 13.7891C124.266 13.8984 124.558 14.2691 124.814 14.6127C125.07 14.9564 125.308 15.2708 125.342 15.3114C125.377 15.352 125.405 15.4021 125.405 15.4227C125.405 15.4432 125.484 15.5751 125.58 15.7156C125.906 16.1899 126.087 16.662 126.299 17.591C126.356 17.8432 126.429 18.1457 126.461 18.2634C126.492 18.3811 126.549 18.7799 126.586 19.1498C126.771 21.002 126.814 21.414 126.828 21.4421C126.855 21.4978 126.945 20.9875 126.949 20.7575C126.953 20.4657 127.127 20.3306 127.943 19.9831C128.436 19.7729 130.585 19.1077 131.316 18.9386C131.452 18.9071 131.87 18.7957 132.244 18.6909C132.619 18.5862 133.078 18.463 133.266 18.4171C133.453 18.3712 133.787 18.2883 134.009 18.2328C135.376 17.8902 135.761 17.7988 136.376 17.6712C136.64 17.6165 136.856 17.5541 136.856 17.5327C136.856 17.5112 136.814 17.4399 136.763 17.3742C136.712 17.3085 136.453 16.9654 136.187 16.6118C135.921 16.2581 135.579 15.8422 135.428 15.6877C135.277 15.533 135.054 15.2996 134.933 15.1689C134.812 15.0381 134.55 14.7938 134.352 14.6259C134.154 14.458 133.922 14.2588 133.837 14.1831C133.751 14.1074 133.664 14.045 133.644 14.0444C133.623 14.0437 133.495 13.9472 133.359 13.8297C133.222 13.7124 132.993 13.5424 132.848 13.452C132.703 13.3616 132.585 13.2656 132.585 13.2387C132.585 13.2118 132.556 13.1898 132.52 13.1898C132.462 13.1898 132.102 12.9634 132.028 12.8799C132.011 12.8607 131.621 12.6225 131.161 12.3506C130.137 11.7447 128.26 10.8058 128.072 10.8058C128.035 10.8058 128.004 10.7805 128.004 10.7495C128.004 10.7186 127.919 10.6747 127.815 10.652C127.71 10.6294 127.55 10.5724 127.459 10.5253C127.367 10.4783 127.251 10.4387 127.2 10.4374C127.149 10.4361 127.053 10.3948 126.987 10.3454C126.921 10.296 126.808 10.2556 126.736 10.2556C126.664 10.2556 126.579 10.232 126.547 10.2032C126.514 10.1745 126.279 10.0884 126.024 10.0122C125.768 9.93587 125.504 9.85103 125.436 9.82358C125.368 9.79619 125.214 9.75518 125.095 9.73256C124.976 9.70988 124.851 9.67112 124.817 9.64637C124.783 9.62167 124.602 9.56935 124.414 9.53016C124.227 9.49098 123.893 9.41732 123.672 9.36652C122.921 9.19414 122.465 9.11431 122.384 9.14096ZM135.37 9.18241C135.37 9.29904 135.61 9.46097 135.783 9.46097C135.858 9.46097 135.937 9.48847 135.958 9.52209C136.02 9.62008 136.096 9.593 136.131 9.46097C136.153 9.37887 136.133 9.33871 136.071 9.33871C136.02 9.33871 135.907 9.2837 135.82 9.21645C135.636 9.07329 135.37 9.05318 135.37 9.18241ZM121.103 9.74008C120.979 9.86606 120.85 10.0851 120.798 10.2591C120.718 10.5258 120.718 10.5914 120.803 10.8372C120.91 11.1457 120.864 11.2596 120.595 11.3608C120.384 11.4397 120.413 11.6004 120.637 11.6004C120.738 11.6004 120.916 11.6535 121.033 11.7184C121.15 11.7832 121.26 11.8222 121.278 11.8049C121.315 11.7677 121.203 11.4185 121.119 11.3128C121.079 11.2617 121.13 11.1793 121.286 11.0442C121.708 10.6782 121.868 10.1026 121.658 9.70242C121.532 9.46127 121.366 9.47252 121.103 9.74008ZM129.07 9.67192C128.945 9.80145 128.903 9.81196 128.729 9.7575C128.62 9.72333 128.474 9.66862 128.404 9.63592C128.252 9.56409 127.79 9.74142 127.609 9.94094C127.456 10.1103 127.541 10.2143 127.92 10.319C128.241 10.4078 128.563 10.3342 128.765 10.1255C128.902 9.98386 128.918 9.98404 129.16 10.1296C129.323 10.2279 129.362 10.233 129.39 10.16C129.409 10.1117 129.397 10.0722 129.364 10.0722C129.331 10.0722 129.304 9.94846 129.304 9.79717C129.304 9.48358 129.269 9.46457 129.07 9.67192ZM135.392 9.96454C135.298 10.1144 135.343 10.8297 135.463 11.0961C135.527 11.239 135.602 11.3559 135.63 11.3559C135.657 11.3559 135.68 11.3904 135.68 11.4323C135.68 11.5176 136.159 11.8475 136.467 11.9745C136.683 12.0634 136.68 12.0398 136.571 12.7466C136.536 12.9735 136.601 12.9995 136.762 12.8236C136.905 12.6684 137.331 12.4245 137.552 12.3721C137.731 12.3295 137.788 12.2117 137.63 12.2117C137.578 12.2117 137.537 12.1842 137.537 12.1506C137.537 12.117 137.48 12.0895 137.411 12.0895C137.342 12.0895 137.189 12.0496 137.07 12.0009L136.856 11.9123L136.854 11.466C136.853 10.9694 136.735 10.6399 136.444 10.3172C136.145 9.98563 135.512 9.77333 135.392 9.96454ZM132.09 10.4934C131.959 10.5291 131.932 10.5773 131.915 10.8063C131.892 11.1313 132.049 11.6756 132.285 12.0895C132.314 12.1399 132.365 12.243 132.398 12.3187C132.431 12.3944 132.487 12.4562 132.521 12.4562C132.556 12.4562 132.585 12.485 132.585 12.5203C132.585 12.581 132.697 12.6971 133.027 12.9772C133.448 13.3342 134.162 13.5565 134.888 13.5565H135.37L135.37 13.7552C135.37 14.0063 135.538 14.8169 135.636 15.0389C135.711 15.2096 135.864 15.27 135.868 15.1306C135.87 15.0354 136.042 14.6858 136.206 14.4429C136.415 14.132 136.686 13.8572 137.042 13.5957L137.382 13.3452L136.949 13.2638C136.588 13.196 136.006 13.1982 135.665 13.2686C135.63 13.2757 135.577 13.1989 135.546 13.0981C135.231 12.067 135.014 11.6503 134.586 11.2572C134.397 11.0836 134.169 10.9043 134.079 10.8585C133.989 10.8128 133.902 10.76 133.885 10.7411C133.868 10.7222 133.671 10.6465 133.447 10.5729C133.04 10.439 132.422 10.4027 132.09 10.4934ZM129.072 10.6047C128.867 10.6432 128.899 10.835 129.14 11.0166C129.352 11.1766 129.576 11.2136 129.734 11.1148C129.797 11.0757 129.857 11.0971 129.936 11.1867C130.061 11.329 130.054 11.3318 130.161 11.0883C130.252 10.8775 130.225 10.8341 130.055 10.9238C129.949 10.9798 129.898 10.961 129.738 10.8065C129.633 10.7052 129.509 10.6224 129.462 10.6224C129.415 10.6224 129.339 10.6125 129.294 10.6004C129.249 10.5884 129.149 10.5902 129.072 10.6047ZM121.845 11.379C121.684 11.7947 121.756 12.1419 122.07 12.4641C122.206 12.6044 122.293 12.7356 122.263 12.7558C122.232 12.7759 122.161 12.8852 122.105 12.9986L122.002 13.2047L122.203 13.1619C122.313 13.1384 122.507 13.104 122.635 13.0853C122.763 13.0667 122.867 13.0296 122.867 13.0028C122.867 12.976 122.781 12.8879 122.677 12.8071L122.486 12.66L122.564 12.2881C122.685 11.7105 122.494 11.2359 122.102 11.1386C121.97 11.1059 121.94 11.1337 121.845 11.379ZM137.178 11.2459C137.068 11.3542 137.082 11.3932 137.324 11.6583C137.574 11.9307 137.944 12.0307 138.278 11.9157C138.476 11.8475 138.471 11.8445 138.699 12.1404L138.809 12.2829L138.939 11.9112C139.077 11.5161 139.059 11.4857 138.774 11.6315C138.596 11.7223 138.589 11.7195 138.314 11.4481C138.042 11.1795 138.025 11.1726 137.644 11.1726C137.421 11.1726 137.22 11.2043 137.178 11.2459ZM130.979 11.7218C130.76 11.773 130.763 11.8618 130.99 12.0619C131.155 12.2073 131.249 12.2405 131.496 12.2413C131.684 12.2419 131.811 12.2716 131.827 12.3187C131.868 12.4399 132.028 12.4073 132.028 12.2779C132.028 12.2134 132.045 12.1166 132.066 12.0628C132.098 11.9811 132.079 11.9744 131.952 12.0219C131.826 12.0694 131.774 12.0507 131.637 11.9079C131.466 11.7292 131.232 11.6629 130.979 11.7218ZM135.479 11.9912C135.325 12.1067 135.342 12.1619 135.587 12.3264C135.75 12.4361 135.851 12.4622 135.997 12.4332C136.143 12.4045 136.212 12.4219 136.271 12.5018C136.364 12.6275 136.398 12.6059 136.454 12.384C136.491 12.237 136.482 12.2239 136.357 12.2561C136.27 12.2785 136.193 12.2575 136.15 12.2001C136.081 12.1062 135.726 11.9045 135.636 11.908C135.609 11.9091 135.538 11.9465 135.479 11.9912ZM120.746 12.065C120.659 12.1509 120.701 12.5649 120.826 12.8424C120.971 13.1667 121.141 13.3156 121.5 13.4327C121.697 13.4968 121.748 13.5394 121.715 13.613C121.64 13.7817 121.613 14.1067 121.675 14.1067C121.707 14.1067 121.784 14.0517 121.846 13.9844C121.907 13.9172 121.995 13.8622 122.041 13.8622C122.087 13.8622 122.124 13.8347 122.124 13.8011C122.124 13.7674 122.166 13.7399 122.217 13.7399C122.406 13.7399 122.302 13.5762 122.078 13.5215C121.847 13.4652 121.845 13.4628 121.809 13.0911C121.772 12.7049 121.656 12.4828 121.36 12.2304C121.194 12.089 120.823 11.989 120.746 12.065ZM139.827 12.7918C139.624 13.067 139.584 13.0775 139.273 12.9397C138.819 12.7391 138.319 12.8132 137.903 13.1425C137.76 13.2553 137.662 13.4605 137.712 13.5407C137.778 13.6452 138.328 13.8622 138.527 13.8622C138.771 13.8622 139.21 13.6637 139.389 13.4723C139.572 13.2769 139.642 13.2739 139.95 13.4486C140.197 13.5891 140.336 13.5673 140.203 13.4088C140.161 13.3595 140.122 13.1526 140.116 12.949C140.11 12.7454 140.078 12.5795 140.044 12.5803C140.009 12.5812 139.912 12.6763 139.827 12.7918ZM123.09 12.9197C123.031 13.0728 123.046 13.301 123.12 13.3457C123.156 13.3682 123.17 13.4523 123.149 13.5326C123.117 13.6578 123.135 13.6788 123.268 13.6788C123.434 13.6788 123.466 13.622 123.359 13.5169C123.314 13.4723 123.316 13.4061 123.366 13.2983C123.424 13.1722 123.417 13.1143 123.33 12.9834C123.208 12.7994 123.144 12.7822 123.09 12.9197ZM121.103 13.6569C120.926 13.924 120.918 14.1897 121.079 14.4728C121.214 14.7098 121.217 14.7322 121.117 14.7871C120.918 14.8972 120.998 14.9931 121.289 14.9931C121.585 14.9931 121.623 14.962 121.474 14.8402C121.357 14.7438 121.356 14.5914 121.472 14.4393C121.595 14.2791 121.59 13.9503 121.462 13.736C121.318 13.496 121.223 13.4751 121.103 13.6569ZM134.519 13.7235C134.474 13.7391 134.442 13.8568 134.442 14.0087C134.442 14.2121 134.479 14.3022 134.615 14.4315C134.711 14.5218 134.822 14.5957 134.863 14.5957C134.956 14.5957 134.956 14.6286 134.862 14.7772C134.764 14.9325 134.841 15.005 134.969 14.8781C135.024 14.8237 135.123 14.7791 135.189 14.7791C135.255 14.7791 135.308 14.7378 135.308 14.6874C135.308 14.6322 135.251 14.5957 135.165 14.5957C135.033 14.5957 135.021 14.5702 135.025 14.2936C135.029 14.0664 134.999 13.9635 134.906 13.878C134.757 13.7408 134.623 13.6876 134.519 13.7235ZM122.58 13.8321C122.541 13.9321 122.694 14.2936 122.854 14.4777C122.909 14.5408 123.101 14.625 123.282 14.6649C123.516 14.7166 123.61 14.7664 123.61 14.8383C123.61 14.8937 123.645 14.9858 123.687 15.0428C123.757 15.1368 123.776 15.1295 123.888 14.9629C123.956 14.862 124.047 14.7794 124.089 14.7793C124.132 14.7792 124.167 14.7378 124.167 14.6874C124.167 14.6221 124.099 14.5957 123.933 14.5957C123.713 14.5957 123.693 14.5795 123.608 14.3384C123.546 14.162 123.439 14.028 123.269 13.9125C122.993 13.7247 122.637 13.6832 122.58 13.8321ZM139.837 13.8619C139.723 13.8885 139.603 13.9362 139.571 13.9679C139.474 14.0643 139.612 14.317 139.892 14.5537C140.196 14.8108 140.533 14.8839 140.98 14.7898C141.292 14.724 141.374 14.7385 141.374 14.8597C141.374 14.9001 141.451 15.0149 141.545 15.1148L141.715 15.2964L141.751 15.0225C141.771 14.8718 141.834 14.666 141.89 14.5652C142.042 14.2924 142.023 14.2793 141.668 14.4135L141.343 14.5364L141.232 14.398C140.934 14.0292 140.829 13.9491 140.531 13.8676C140.261 13.7934 140.134 13.7924 139.837 13.8619ZM136.919 14.2369C136.554 14.3964 136.429 14.5142 136.467 14.6603C136.485 14.7257 136.523 14.7791 136.554 14.7791C136.584 14.7791 136.608 14.8077 136.608 14.8427C136.608 14.9869 137.231 15.6902 137.362 15.6946C137.385 15.6954 137.441 15.7323 137.486 15.7768C137.639 15.9279 138.173 16.0628 138.618 16.0628C139.012 16.0628 139.621 15.9198 139.744 15.7982C139.8 15.7433 139.951 15.8751 139.951 15.9786C139.951 16.0249 139.979 16.0628 140.013 16.0628C140.047 16.0628 140.074 16.0972 140.074 16.1392C140.074 16.2405 140.563 16.9186 140.636 16.9186C140.668 16.9186 140.694 16.788 140.694 16.6282C140.696 16.2337 140.951 15.5147 141.173 15.28C141.239 15.2105 141.284 15.0236 141.235 15.0236C141.157 15.0236 140.162 15.4021 140.113 15.4501C140.031 15.5314 139.889 15.5307 139.889 15.449C139.889 15.2859 139.065 14.481 138.74 14.3269C138.606 14.2631 138.448 14.1875 138.389 14.1588C138.176 14.0558 137.216 14.1069 136.919 14.2369ZM122.031 14.4555C121.912 14.5801 121.797 14.7383 121.775 14.807C121.754 14.8757 121.705 14.9516 121.667 14.9756C121.624 15.0028 121.598 15.2442 121.598 15.6174C121.598 16.1314 121.617 16.2458 121.736 16.4296C122.053 16.9212 122.054 16.8904 121.702 17.2369C121.525 17.4099 121.381 17.5842 121.381 17.6242C121.381 17.676 121.501 17.6887 121.799 17.6684C122.083 17.6491 122.305 17.6702 122.491 17.7344C122.642 17.7864 122.788 17.8153 122.815 17.7987C122.87 17.7655 122.617 17.3356 122.413 17.1145C122.321 17.0155 122.301 16.9495 122.343 16.8903C122.997 15.9732 123.098 15.6185 122.898 14.9413C122.795 14.5912 122.518 14.229 122.354 14.229C122.296 14.229 122.15 14.3309 122.031 14.4555ZM124.638 14.9712C124.583 15.0486 124.538 15.1868 124.538 15.2782C124.538 15.4621 124.762 15.8794 124.861 15.8794C124.898 15.8794 124.908 15.9608 124.885 16.0811C124.847 16.2815 124.848 16.2827 125.064 16.2579C125.301 16.2305 125.341 16.163 125.174 16.0711C125.087 16.0226 125.071 15.9376 125.085 15.5938C125.101 15.2002 125.091 15.1652 124.92 15.003L124.738 14.8305L124.638 14.9712ZM136.177 15.4799C136.077 15.5985 136.246 16.1175 136.44 16.2885C136.628 16.4538 136.995 16.613 137.19 16.613C137.34 16.613 137.351 16.6326 137.351 16.888C137.351 17.1635 137.444 17.2571 137.518 17.0561C137.54 16.9973 137.655 16.8615 137.775 16.7544L137.992 16.5597L137.842 16.527C137.759 16.509 137.622 16.4867 137.537 16.4772C137.418 16.4641 137.377 16.4198 137.362 16.2859C137.321 15.9307 137.019 15.5975 136.614 15.4613C136.34 15.3688 136.268 15.3719 136.177 15.4799ZM123.718 15.4876C123.646 15.5579 123.663 15.8552 123.749 16.0438C123.856 16.2799 123.985 16.3953 124.286 16.5266C124.502 16.6206 124.539 16.6619 124.511 16.7741C124.492 16.8482 124.494 16.9535 124.515 17.0081C124.548 17.0931 124.577 17.0849 124.716 16.9511C124.805 16.8652 124.934 16.7564 125.002 16.7094C125.118 16.6286 125.112 16.6216 124.893 16.5811C124.757 16.5557 124.662 16.5031 124.662 16.4524C124.662 16.2378 124.491 15.8583 124.32 15.6946C124.132 15.5149 123.804 15.4021 123.718 15.4876ZM135.504 15.5479C135.517 15.6176 135.601 15.6757 135.722 15.7002C135.933 15.743 136.116 15.6818 135.996 15.6084C135.958 15.5854 135.927 15.5888 135.926 15.616C135.926 15.6432 135.905 15.6333 135.879 15.5939C135.854 15.5545 135.754 15.5027 135.658 15.4788C135.508 15.4418 135.485 15.4522 135.504 15.5479ZM141.432 15.643C141.393 15.7147 141.36 15.93 141.358 16.1214C141.354 16.5345 141.484 16.7885 141.814 17.0144C142.029 17.1615 142.036 17.1774 141.969 17.3645C141.931 17.4722 141.88 17.591 141.855 17.6283C141.77 17.7589 141.887 17.7682 142.122 17.6495C142.253 17.5837 142.43 17.5299 142.517 17.5299C142.675 17.5299 142.753 17.3486 142.597 17.3445C142.554 17.3433 142.46 17.2935 142.388 17.2336C142.269 17.1361 142.259 17.08 142.287 16.6902C142.323 16.1926 142.22 15.9571 141.842 15.672C141.585 15.4787 141.523 15.4743 141.432 15.643ZM142.566 15.7976C142.523 15.8146 142.488 15.8745 142.488 15.9307C142.488 16.0507 142.8 16.2039 142.938 16.1517C142.99 16.1318 143.051 16.145 143.074 16.1809C143.139 16.2842 143.214 16.2574 143.251 16.1179C143.278 16.0142 143.262 15.9955 143.165 16.0204C143.099 16.0374 143.046 16.0271 143.046 15.9975C143.046 15.9514 142.715 15.7482 142.662 15.762C142.652 15.7646 142.608 15.7807 142.566 15.7976ZM140.961 16.2366C140.777 16.3563 140.824 16.7102 141.06 16.9753C141.216 17.1522 141.19 17.1819 140.786 17.2858C140.616 17.3296 140.442 17.3924 140.399 17.4253C140.343 17.4678 140.284 17.4426 140.195 17.3395C139.874 16.9662 139.736 16.8507 139.474 16.7362C139.115 16.579 138.774 16.5796 138.459 16.7381C138.178 16.8801 138.176 16.987 138.449 17.3159C138.829 17.7738 139.399 17.9361 139.951 17.7438C140.095 17.6934 140.218 17.6521 140.223 17.6521C140.228 17.6521 140.3 17.7752 140.383 17.9257C140.591 18.3009 140.666 18.3097 140.752 17.9686C140.884 17.4475 140.942 17.3793 141.268 17.3584C141.576 17.3388 141.638 17.2699 141.442 17.1662C141.347 17.1159 141.33 17.0575 141.356 16.8647C141.403 16.521 141.148 16.115 140.961 16.2366ZM138.279 16.3379C138.279 16.4002 138.343 16.4296 138.477 16.4296C138.664 16.4296 138.668 16.4248 138.554 16.3398C138.398 16.2233 138.279 16.2224 138.279 16.3379ZM139.241 16.3044C139.165 16.4258 139.416 16.613 139.655 16.613C139.784 16.613 139.889 16.6405 139.889 16.6741C139.889 16.8081 140.062 16.725 140.091 16.5772C140.116 16.4463 140.101 16.4243 140.006 16.4491C139.942 16.4655 139.823 16.4265 139.74 16.3625C139.582 16.2393 139.302 16.2068 139.241 16.3044ZM146.285 16.3579C146.225 16.4524 146.157 16.4689 145.913 16.448C145.665 16.4267 145.583 16.4476 145.43 16.5716C145.272 16.7005 145.258 16.7342 145.33 16.8197C145.463 16.9782 145.833 16.9462 146.038 16.7584C146.188 16.6213 146.235 16.6079 146.362 16.6654C146.535 16.7432 146.551 16.6852 146.432 16.4123C146.362 16.2522 146.353 16.249 146.285 16.3579ZM143.293 16.5595C142.969 16.6559 142.921 16.7136 142.992 16.9159C143.081 17.167 143.454 17.5103 143.766 17.6282C144.057 17.7379 144.675 17.7178 144.8 17.5945C144.905 17.4908 145.015 17.5195 145.061 17.6627C145.084 17.7358 145.128 17.8252 145.159 17.8614C145.189 17.8976 145.269 17.9927 145.336 18.0728C145.472 18.236 145.468 18.2417 145.581 17.698C145.621 17.5046 145.677 17.3465 145.704 17.3465C145.732 17.3465 145.769 17.2915 145.787 17.2242C145.829 17.0657 145.7 17.0662 145.343 17.2261L145.073 17.3474L144.958 17.2094C144.732 16.9366 144.497 16.7334 144.299 16.6405C144.035 16.5166 143.564 16.4787 143.293 16.5595ZM147.819 16.7469C147.651 16.924 147.62 16.9353 147.473 16.8691C147.211 16.7515 146.673 16.7784 146.428 16.9216C146.133 17.0931 145.975 17.3335 146.088 17.4372C146.202 17.5415 146.553 17.6521 146.771 17.6521C147.005 17.6521 147.396 17.4525 147.556 17.2505L147.684 17.0899L147.895 17.2182C148.182 17.3934 148.257 17.3859 148.182 17.1897C148.148 17.1034 148.121 16.9246 148.121 16.7924C148.121 16.6601 148.095 16.5518 148.062 16.5518C148.03 16.5518 147.921 16.6396 147.819 16.7469ZM122.879 17.1339C122.894 17.4204 122.94 17.6872 122.98 17.7268C123.02 17.7664 123.053 17.8357 123.053 17.8807C123.053 17.9259 123.115 18.0497 123.192 18.156C123.496 18.5782 124.005 18.9052 124.46 18.9704C124.928 19.0374 124.975 19.079 124.932 19.3898C124.883 19.7411 125.011 20.2853 125.131 20.2396C125.18 20.2213 125.219 20.1726 125.219 20.1312C125.219 20.0075 125.821 19.4358 126.099 19.2959L126.357 19.1657L126.193 19.0806C126.103 19.0339 125.853 18.9784 125.639 18.9573C125.425 18.9362 125.215 18.8919 125.173 18.8588C125.13 18.8256 125.095 18.6672 125.095 18.5059C125.095 18.2081 124.874 17.5299 124.777 17.5299C124.748 17.5299 124.724 17.4971 124.724 17.457C124.724 17.341 124.239 16.9256 123.912 16.7623C123.692 16.652 123.514 16.613 123.233 16.613H122.851L122.879 17.1339ZM125.18 16.7219C124.944 17.0943 125.009 17.6688 125.321 17.9767L125.541 18.1943L125.4 18.4421C125.243 18.7177 125.265 18.7981 125.466 18.6914C125.54 18.6524 125.724 18.6158 125.874 18.61C126.024 18.6043 126.147 18.5816 126.147 18.5597C126.147 18.5378 126.05 18.4415 125.931 18.3457L125.715 18.1717L125.813 17.8966C125.949 17.5175 125.894 17.1034 125.671 16.8273C125.482 16.5931 125.288 16.5515 125.18 16.7219ZM136.629 16.7086C136.596 16.795 136.621 16.863 136.824 17.2348C136.858 17.2962 136.948 17.3465 137.025 17.3465C137.181 17.3465 137.215 17.2393 137.077 17.1868C137.026 17.1678 136.99 17.0773 136.993 16.9769C137.002 16.6831 136.72 16.4753 136.629 16.7086ZM148.864 17.6307C148.864 18.0114 148.894 18.1594 149.026 18.4263C149.251 18.8796 149.661 19.1899 150.224 19.3316L150.501 19.4014L150.482 19.9022C150.471 20.1776 150.487 20.4029 150.518 20.4029C150.548 20.4029 150.731 20.2509 150.926 20.0651C151.131 19.8689 151.356 19.712 151.464 19.6907C151.844 19.6157 151.589 19.4113 151.015 19.3302L150.721 19.2887V19.0276C150.721 18.086 149.941 17.1631 149.145 17.1631H148.864V17.6307ZM141.095 17.5915C141.032 17.693 141.228 17.8355 141.432 17.8355C141.536 17.8355 141.622 17.808 141.622 17.7744C141.622 17.7408 141.584 17.7133 141.537 17.7133C141.49 17.7133 141.417 17.672 141.374 17.6216C141.286 17.5161 141.152 17.5017 141.095 17.5915ZM142.427 17.6957C142.15 17.797 142.156 17.9479 142.451 18.2392C142.764 18.5486 143.117 18.6164 143.679 18.4753C143.824 18.439 143.857 18.4564 143.911 18.5973C144.046 18.9471 144.123 18.9419 144.247 18.5749C144.31 18.3868 144.392 18.2137 144.429 18.1903C144.594 18.0866 144.388 18.0772 144.125 18.1765C143.842 18.2832 143.832 18.283 143.75 18.1677C143.587 17.9411 143.391 17.7615 143.246 17.707C143.088 17.6477 142.577 17.6406 142.427 17.6957ZM146.574 17.894C146.214 17.999 146.14 18.0379 146.14 18.1242C146.14 18.2769 146.512 18.6888 146.764 18.8159C147.006 18.938 147.529 18.9799 147.59 18.8821C147.609 18.8525 147.679 18.8141 147.747 18.7966C147.842 18.7722 147.91 18.8273 148.042 19.0336C148.266 19.3839 148.369 19.3819 148.369 19.0275C148.369 18.8762 148.391 18.7524 148.417 18.7524C148.444 18.7524 148.498 18.6681 148.537 18.565L148.609 18.3776L148.413 18.42C148.306 18.4432 148.168 18.4933 148.106 18.531C148.011 18.5889 147.957 18.5602 147.757 18.347C147.41 17.9761 146.926 17.7911 146.574 17.894ZM141.806 18.0213C141.756 18.0526 141.587 18.0786 141.432 18.0791C141.211 18.0798 141.116 18.1135 141.004 18.2313C140.867 18.3754 140.866 18.3846 140.978 18.4269C141.186 18.5058 141.489 18.4741 141.617 18.3597C141.69 18.2942 141.793 18.2615 141.867 18.2805C141.976 18.3087 141.988 18.2917 141.953 18.1506C141.904 17.9462 141.913 17.9543 141.806 18.0213ZM144.615 18.4009C144.464 18.6879 144.468 19.2814 144.624 19.5785C144.757 19.8321 144.932 20.0361 145.017 20.0361C145.045 20.0361 145.119 20.0908 145.18 20.1576C145.288 20.2748 145.287 20.2912 145.161 20.616C145.035 20.9422 145.034 20.953 145.148 20.953C145.212 20.953 145.307 20.9118 145.358 20.8614C145.409 20.8109 145.521 20.7697 145.606 20.7697C145.691 20.7697 145.837 20.7412 145.929 20.7066L146.097 20.6434L145.887 20.4962C145.401 20.1565 145.424 20.1825 145.514 20.0757C145.566 20.0143 145.6 19.7972 145.606 19.5011C145.614 19.0629 145.599 19.0012 145.417 18.7206C145.234 18.4395 144.946 18.2023 144.786 18.2023C144.75 18.2023 144.673 18.2917 144.615 18.4009ZM150.91 18.5346C150.729 18.75 151.129 19.0383 151.51 18.9675C151.661 18.9396 151.722 18.9542 151.75 19.0246C151.787 19.1195 151.958 19.1594 151.96 19.0734C151.96 19.0481 151.978 18.9625 152 18.8832C152.036 18.7483 152.026 18.7416 151.844 18.781C151.727 18.8064 151.649 18.7989 151.649 18.7623C151.649 18.6757 151.257 18.4468 151.108 18.4468C151.04 18.4468 150.95 18.4863 150.91 18.5346ZM141.849 18.6709C141.767 18.7516 141.811 19.3409 141.926 19.7159C142.251 20.7706 143.023 21.4138 144.051 21.4866L144.531 21.5207L144.535 21.8329C144.541 22.2906 144.675 22.9871 144.764 23.0163C144.806 23.0302 144.841 23.0148 144.841 22.9821C144.841 22.8425 145.418 22.1646 145.732 21.9355C145.92 21.7986 146.099 21.6866 146.13 21.6866C146.162 21.6866 146.22 21.647 146.261 21.5985C146.323 21.5251 146.296 21.5041 146.099 21.4723C145.968 21.4513 145.728 21.4084 145.565 21.377C145.401 21.3455 145.16 21.3198 145.028 21.3198C144.766 21.3198 144.777 21.3388 144.682 20.7085C144.616 20.2685 144.304 19.6819 143.953 19.3351C143.664 19.0507 143.416 18.8997 142.903 18.6983C142.717 18.6248 141.917 18.6041 141.849 18.6709ZM123.3 18.7923C122.994 18.8918 122.933 18.9517 123.003 19.0823C123.111 19.2835 123.322 19.4838 123.427 19.4849C123.48 19.4855 123.551 19.5138 123.586 19.5477C123.628 19.5893 123.756 19.5892 123.979 19.5474C124.162 19.5133 124.315 19.4924 124.319 19.5009C124.424 19.6881 124.553 19.8527 124.595 19.8527C124.624 19.8527 124.668 19.7496 124.692 19.6235C124.715 19.4975 124.764 19.3593 124.8 19.3164C124.912 19.1833 124.794 19.1537 124.571 19.2588C124.359 19.3585 124.357 19.358 124.216 19.1843C123.976 18.8881 123.557 18.7089 123.3 18.7923ZM146.156 19.2485C146.045 19.3185 145.955 19.4102 145.955 19.4522C145.955 19.5724 146.296 20.0075 146.527 20.1814C146.985 20.526 147.53 20.6072 148.057 20.4095C148.391 20.2841 148.402 20.2887 148.572 20.6168C148.679 20.8244 148.915 21.1078 148.949 21.0698C148.962 21.056 149.002 20.8751 149.038 20.6677C149.074 20.4604 149.176 20.1769 149.265 20.0378L149.427 19.785L149.192 19.8271C149.063 19.8502 148.882 19.9067 148.79 19.9526C148.523 20.086 148.415 20.0465 148.152 19.7181C147.791 19.2671 147.469 19.119 146.853 19.1202C146.458 19.121 146.316 19.147 146.156 19.2485ZM148.762 19.2127C148.74 19.2676 148.784 19.356 148.866 19.4267C149.007 19.547 149.091 19.5693 149.334 19.5508C149.405 19.5454 149.499 19.584 149.543 19.6367C149.614 19.7215 149.633 19.714 149.708 19.5716C149.819 19.3603 149.815 19.3435 149.667 19.3819C149.588 19.4022 149.476 19.3594 149.364 19.2667C149.161 19.0976 148.819 19.0669 148.762 19.2127ZM153.692 19.2415C153.614 19.3854 153.394 19.4006 153.224 19.274C152.924 19.05 152.112 19.3182 152.156 19.6264C152.178 19.7774 152.515 19.9674 152.769 19.9721C152.952 19.9754 153.27 19.8336 153.384 19.6986C153.487 19.5755 153.59 19.5851 153.723 19.7305C153.785 19.7977 153.872 19.8527 153.918 19.8527C154.015 19.8527 154.031 19.6944 153.94 19.6388C153.906 19.618 153.878 19.4926 153.878 19.3601C153.878 19.0987 153.797 19.0473 153.692 19.2415ZM149.921 19.7082C149.773 19.8939 149.755 20.1454 149.878 20.3113C149.95 20.4092 149.95 20.4392 149.878 20.5108C149.751 20.6357 149.773 20.6906 149.963 20.7266C150.179 20.7675 150.21 20.7349 150.109 20.5753C150.061 20.4987 150.052 20.4325 150.087 20.41C150.215 20.3279 150.292 19.9438 150.221 19.7422C150.137 19.5052 150.087 19.4995 149.921 19.7082ZM122.79 19.7958C122.662 19.8623 122.558 19.9368 122.558 19.9612C122.558 20.0494 122.905 20.5196 123.054 20.6346C123.371 20.8783 123.599 20.953 124.024 20.9527C124.277 20.9524 124.516 20.9157 124.623 20.861C124.855 20.7413 124.91 20.7458 124.91 20.8845C124.91 20.9475 124.951 21.0334 125.002 21.0753C125.053 21.1172 125.095 21.185 125.095 21.2261C125.095 21.2985 125.287 21.5032 125.355 21.5032C125.374 21.5032 125.408 21.3382 125.431 21.1364C125.454 20.9347 125.496 20.7697 125.525 20.7697C125.554 20.7697 125.596 20.6943 125.62 20.6022C125.643 20.5101 125.694 20.4152 125.733 20.3915C125.772 20.3678 125.786 20.3312 125.765 20.3102C125.72 20.2658 125.167 20.4409 125.051 20.5363C124.992 20.5846 124.887 20.5123 124.631 20.2474C124.443 20.053 124.176 19.8434 124.036 19.7817C123.69 19.6288 123.097 19.6356 122.79 19.7958ZM126.008 19.9257C125.866 20.0908 125.838 20.1808 125.838 20.4697C125.838 20.7028 125.868 20.8407 125.931 20.8919C126.036 20.9784 126.054 21.1716 125.962 21.2279C125.928 21.2486 125.872 21.319 125.836 21.3844C125.776 21.4962 125.795 21.5031 126.161 21.5023C126.375 21.5017 126.52 21.4811 126.484 21.4564C126.448 21.4317 126.374 21.3462 126.318 21.2663C126.223 21.1292 126.226 21.1077 126.368 20.8854C126.581 20.5532 126.573 20.1863 126.349 19.9255L126.178 19.7277L126.008 19.9257ZM151.23 20.1313C151.154 20.1836 151.092 20.2478 151.092 20.2739C151.092 20.3 151.197 20.4251 151.324 20.552C151.554 20.78 151.561 20.7823 151.951 20.752C152.296 20.7253 152.349 20.7354 152.375 20.833C152.422 21.0098 152.578 21.0359 152.578 20.8669C152.578 20.7881 152.62 20.6893 152.671 20.6474C152.759 20.5747 152.801 20.4029 152.729 20.4029C152.711 20.4029 152.615 20.4439 152.517 20.4941C152.346 20.5816 152.333 20.5781 152.195 20.4094C151.919 20.0708 151.494 19.9484 151.23 20.1313ZM146.396 20.5421C146.264 20.6719 146.315 21.0452 146.489 21.2306C146.621 21.3719 146.638 21.4239 146.581 21.5137C146.476 21.6806 146.494 21.7 146.713 21.6537C147.003 21.5921 147.031 21.5621 146.889 21.4638C146.783 21.3904 146.768 21.3333 146.799 21.1122C146.851 20.7349 146.584 20.3565 146.396 20.5421ZM10.9559 20.6843C10.2775 20.9086 9.7396 21.2754 9.43965 21.7182C9.25135 21.996 9.16686 22.2161 9.06665 22.69C8.98457 23.078 8.98538 23.1788 9.07439 23.658C9.12898 23.9522 9.19565 24.1928 9.22245 24.1928C9.24931 24.1928 9.28738 24.2562 9.30706 24.3337C9.36444 24.5597 9.85331 25.0017 10.2817 25.2151C10.7189 25.433 11.3545 25.6599 11.5271 25.6599C11.5884 25.6599 11.6868 25.6859 11.746 25.7178C11.8051 25.7496 12.0623 25.8359 12.3176 25.9094C13.4076 26.2233 13.8651 26.6755 13.8651 27.439C13.8651 28.0363 13.5708 28.5151 13.0303 28.7971C12.8196 28.907 12.6737 28.9269 12.0686 28.9284C11.3657 28.9303 11.3508 28.9273 11.0366 28.7282C10.7039 28.5174 10.3988 28.1791 10.3988 28.021C10.3988 27.9704 10.3741 27.9138 10.3439 27.8954C10.3138 27.877 10.2707 27.7653 10.2483 27.6472L10.2075 27.4326H9.59136H8.97517V27.6743C8.97517 28.2431 9.48254 29.0744 10.0519 29.4387C10.7273 29.8708 11.1082 29.9694 12.101 29.9694H12.9676L13.4968 29.7138C14.1323 29.4069 14.5281 29.0382 14.786 28.5132C15.1246 27.8239 15.1507 26.9751 14.8536 26.3118C14.743 26.0649 14.3207 25.5866 14.0767 25.4318C13.7485 25.2236 12.9889 24.9414 11.9772 24.652C11.7729 24.5935 11.5223 24.5095 11.4201 24.4652C11.318 24.4208 11.176 24.3685 11.1046 24.3487C10.9325 24.3011 10.4478 23.8414 10.3343 23.6182C10.2103 23.3744 10.2185 22.7473 10.3491 22.4812C10.4908 22.1927 10.7552 21.9262 11.0463 21.7783C11.402 21.5976 12.43 21.6047 12.7819 21.7902C13.1156 21.9661 13.453 22.3274 13.6127 22.6799L13.7444 22.9703H14.3618C15.0713 22.9703 15.073 22.9683 14.8658 22.3896C14.5557 21.5237 13.9993 21.0047 13.0647 20.7099C12.5722 20.5545 11.3915 20.5401 10.9559 20.6843ZM18.5384 20.6885C18.2351 20.7813 17.8615 20.9395 17.7354 21.0285C17.3545 21.2971 17.0164 21.6754 16.8352 22.0354C16.634 22.4355 16.6263 22.4768 16.6262 23.1634C16.626 23.5806 16.6536 23.9101 16.6926 23.958C16.7292 24.0032 16.7802 24.1088 16.8059 24.1928C16.9339 24.6108 17.5889 25.1617 18.2153 25.3781C18.427 25.4513 18.6281 25.5276 18.6622 25.5478C18.6962 25.5679 18.8215 25.6039 18.9407 25.6278C19.1606 25.6719 19.6744 25.8231 19.9001 25.9101C19.9682 25.9364 20.0935 25.9759 20.1786 25.9979C20.478 26.0755 20.8541 26.2805 21.0387 26.467C21.3203 26.7515 21.4166 27.0044 21.4166 27.4596C21.4166 28.0518 21.2073 28.4096 20.6543 28.7632C20.4095 28.9196 20.3544 28.9288 19.6525 28.9295C18.9127 28.9303 18.9085 28.9295 18.597 28.7252C18.2247 28.4811 18.0155 28.202 17.8857 27.7765L17.7902 27.4632L17.1802 27.4456L16.5703 27.428L16.6067 27.8137C16.6268 28.0259 16.6864 28.2813 16.7393 28.3815C16.7922 28.4816 16.8356 28.5838 16.8358 28.6087C16.8372 28.7744 17.5052 29.3946 17.902 29.5985C18.5394 29.926 18.7294 29.9669 19.6216 29.9682C20.586 29.9696 20.8452 29.9031 21.5094 29.4832C22.5676 28.8144 22.9662 27.2673 22.3607 26.1795C22.2299 25.9446 21.8655 25.5543 21.6878 25.4588C21.1514 25.1706 20.7552 25.009 20.1477 24.8308C19.9434 24.7709 19.5813 24.6558 19.343 24.5751C19.1047 24.4943 18.854 24.4127 18.7859 24.3938C18.6327 24.3512 18.308 24.1161 18.1017 23.8983C17.5795 23.3471 17.7624 22.327 18.4661 21.8656C18.7795 21.6602 18.7991 21.656 19.4359 21.656C19.9439 21.656 20.1387 21.681 20.328 21.7706C20.7638 21.9768 21.0401 22.2935 21.2278 22.8022L21.2897 22.9703H21.9102C22.5306 22.9703 22.5308 22.9702 22.5308 22.8177C22.5308 22.6311 22.2852 21.9084 22.2121 21.8802C22.1831 21.8689 22.1594 21.8236 22.1594 21.7795C22.1594 21.6605 21.4426 21.0371 21.1468 20.8988C20.6428 20.663 20.2412 20.5862 19.5329 20.5901C19.099 20.5925 18.7344 20.6285 18.5384 20.6885ZM27.235 20.7077C26.6913 20.8553 26.1641 21.1014 25.7515 21.4001C25.4095 21.6477 24.6972 22.3432 24.6972 22.4295C24.6972 22.4546 24.6136 22.5974 24.5115 22.7468C24.4094 22.8963 24.3258 23.0611 24.3258 23.1131C24.3258 23.165 24.2998 23.2235 24.268 23.2428C24.2362 23.2623 24.1621 23.4358 24.1035 23.6285C23.5283 25.5176 23.9376 27.4496 25.1796 28.7073C25.7433 29.2782 26.5268 29.7134 27.3428 29.9089C27.6955 29.9934 27.9629 30.0101 28.5985 29.9875C29.0916 29.9699 29.4341 29.931 29.478 29.8876C29.5176 29.8486 29.5992 29.8166 29.6593 29.8166C29.8169 29.8166 30.6843 29.4311 30.7632 29.3261C30.7802 29.3033 30.8277 29.2738 30.8688 29.2604C31.0341 29.2063 31.6245 28.6678 31.8219 28.3911C31.9375 28.2291 32.0599 28.064 32.094 28.0243C32.1934 27.9084 32.5284 27.1843 32.6363 26.8519C32.6908 26.6838 32.7681 26.2643 32.8081 25.9197C32.9286 24.88 32.7623 23.8742 32.3204 22.9703C32.1315 22.5838 32.1604 22.6267 31.7588 22.1369C30.919 21.1123 29.7413 20.5841 28.3182 20.5938C27.8689 20.5969 27.5005 20.6356 27.235 20.7077ZM37.6028 20.6143C37.5688 20.6243 37.4156 20.667 37.2624 20.709C37.1092 20.7511 36.8961 20.8232 36.7888 20.8693C36.6816 20.9153 36.5775 20.953 36.5576 20.953C36.5135 20.953 35.9164 21.3127 35.7477 21.441C35.4892 21.6374 34.7865 22.373 34.7865 22.4471C34.7865 22.4625 34.7066 22.5934 34.609 22.738C34.3554 23.1134 34.0681 24.0032 33.9767 24.696C33.8657 25.5373 33.9986 26.5145 34.3322 27.3104C34.6362 28.0357 35.1736 28.7019 35.8389 29.1782C36.2344 29.4614 36.6873 29.6826 37.2624 29.8735C37.7841 30.0467 38.9821 30.0213 39.7876 29.82C40.1914 29.7191 41.1607 29.2316 41.1616 29.1289C41.1618 29.1037 41.1893 29.0831 41.2228 29.0831C41.3974 29.0831 42.1107 28.2192 42.3801 27.6813L42.5812 27.2798L41.889 27.2624C41.2306 27.2458 41.1914 27.2518 41.0879 27.3846C41.028 27.4615 40.9784 27.5587 40.9776 27.6007C40.9769 27.6428 40.9554 27.6779 40.9299 27.6788C40.9043 27.6797 40.8186 27.7828 40.7393 27.908C40.5485 28.2094 40.1175 28.5183 39.5943 28.7285C39.2106 28.8828 39.097 28.8995 38.4475 28.8977C37.9286 28.8963 37.6397 28.866 37.4164 28.7897C35.9913 28.3031 35.1579 26.9946 35.1579 25.2439C35.1579 24.5839 35.1666 24.5337 35.408 23.7955C35.5537 23.3498 35.8347 22.876 36.1413 22.5592C36.4499 22.2403 37.1729 21.8088 37.3986 21.8088C37.4463 21.8088 37.5184 21.7761 37.5589 21.7361C37.679 21.6175 39.165 21.6445 39.3979 21.7695C39.5 21.8244 39.6197 21.8694 39.6639 21.8696C39.8126 21.8703 40.3863 22.2757 40.6235 22.5477C40.943 22.9142 40.9761 22.9576 40.9776 23.0136C40.9784 23.0402 41.028 23.1248 41.0879 23.2016C41.1914 23.3345 41.2306 23.3405 41.889 23.3239L42.5812 23.3065L42.3812 22.9091C42.1195 22.389 41.9486 22.1574 41.5191 21.7407C41.2245 21.455 40.4972 20.953 40.3777 20.953C40.3597 20.953 40.2573 20.9148 40.15 20.8681C39.6829 20.6645 39.1985 20.5863 38.4344 20.5911C38.0111 20.5937 37.6369 20.6042 37.6028 20.6143ZM71.4609 20.6885C71.1559 20.7819 70.7476 20.954 70.6872 21.0147C70.6701 21.0318 70.5587 21.1103 70.4396 21.1892C69.8018 21.6111 69.4661 22.4455 69.5438 23.4156C69.5923 24.0208 69.7531 24.3789 70.154 24.7738C70.4728 25.0878 71.1707 25.4765 71.4157 25.4765C71.4876 25.4765 71.5617 25.5009 71.5804 25.5307C71.599 25.5605 71.719 25.6037 71.8471 25.6268C72.1085 25.6737 72.6429 25.8332 72.8063 25.913C72.8654 25.9419 72.9455 25.9655 72.9843 25.9655C73.1035 25.9655 73.7821 26.2846 73.7821 26.3407C73.7821 26.3697 73.8138 26.3934 73.8526 26.3934C73.9387 26.3934 74.0546 26.5338 74.2168 26.8342C74.3821 27.1407 74.3846 27.7774 74.2216 28.093C74.0711 28.3842 73.8186 28.6327 73.5043 28.7987C73.2916 28.9111 73.1535 28.93 72.5441 28.9301C71.9003 28.9303 71.8094 28.9163 71.5934 28.7836C71.1411 28.5059 70.9583 28.2732 70.7845 27.7535L70.6772 27.4326H70.0978C69.7377 27.4326 69.5023 27.4585 69.4756 27.5009C69.4184 27.5924 69.5585 28.1911 69.717 28.5329C69.9598 29.0563 70.6247 29.5746 71.4299 29.868C71.7908 29.9995 73.2684 30.0121 73.5964 29.8865C74.4661 29.5535 74.9347 29.1705 75.3089 28.4867C75.4227 28.2789 75.5771 27.6368 75.5771 27.3715C75.5771 27.1019 75.4165 26.4382 75.2944 26.2033C75.2047 26.0307 74.7457 25.5539 74.5516 25.4318C74.2208 25.2235 73.5054 24.9572 72.4513 24.65C71.4459 24.357 70.9749 24.027 70.7878 23.4846C70.6622 23.1205 70.6623 23.0283 70.7894 22.6303C70.906 22.2649 71.1712 21.9559 71.5206 21.7783C71.7168 21.6785 71.8815 21.6561 72.4157 21.6568C73.0196 21.6575 73.09 21.6702 73.3259 21.8211C73.7326 22.0811 73.8933 22.2562 74.0644 22.6251L74.2244 22.9703H74.8473H75.4701L75.4317 22.6934C75.3682 22.2365 75.1003 21.7491 74.7102 21.3809C74.3311 21.0232 74.0171 20.8455 73.4809 20.6854C73.0435 20.5549 71.892 20.5566 71.4609 20.6885ZM44.41 20.7214C44.3933 20.7648 44.3868 22.8495 44.3956 25.3543L44.4116 29.9083L44.9845 29.9259L45.5575 29.9435L45.5416 25.3107L45.5258 20.678L44.9832 20.6603C44.5839 20.6473 44.4325 20.6634 44.41 20.7214ZM55.646 21.167V21.6866H56.853H58.06V25.8151V29.9435L58.6326 29.9259L59.2051 29.9083L59.2361 25.8127L59.267 21.7171L60.4895 21.7006L61.712 21.684V21.2028C61.712 20.8204 61.6919 20.714 61.6141 20.6845C61.5602 20.6641 60.1954 20.6474 58.5811 20.6474H55.646V21.167ZM63.2388 20.6882C63.2161 20.7106 63.1975 22.8011 63.1975 25.3339V29.9389H65.5806H67.9637V29.4193V28.8997H66.1377H64.3117V27.3409V25.7822H65.952H67.5923V25.2626V24.743H65.9509H64.3095L64.3261 23.2301L64.3427 21.7171L66.1532 21.7009L67.9637 21.6847V21.1661V20.6474H65.6219C64.3339 20.6474 63.2615 20.6657 63.2388 20.6882ZM3.16632 20.8766C3.13506 20.9354 2.96775 21.3962 2.79437 21.9005C2.62106 22.4048 2.37898 23.0925 2.25636 23.4287C2.13374 23.7649 2.01007 24.1225 1.98147 24.2234C1.95293 24.3243 1.869 24.5581 1.79503 24.743C1.72107 24.9279 1.63757 25.1617 1.6094 25.2626C1.54707 25.4864 1.43132 25.8086 1.32059 26.0665C1.27515 26.1724 1.23795 26.2897 1.23795 26.3271C1.23795 26.3645 1.21115 26.4429 1.17835 26.5013C1.12623 26.5941 0.958857 27.0685 0.267645 29.0831C0.181112 29.3352 0.0855425 29.5677 0.0551508 29.5996C0.0248209 29.6316 0 29.721 0 29.7983C0 29.9354 0.0147317 29.9389 0.610249 29.9389H1.22056L1.34974 29.5568C1.7358 28.4153 1.88429 28.0058 1.93715 27.9369C1.9819 27.8787 2.44886 27.8605 3.89776 27.8605H5.79957L5.90807 28.1203C5.96774 28.2632 6.05551 28.4705 6.10317 28.5809C6.15077 28.6912 6.18977 28.821 6.18977 28.8691C6.18977 28.9173 6.22914 29.047 6.27717 29.1574C6.32526 29.2678 6.41112 29.4888 6.468 29.6485L6.57137 29.9389H7.14398C7.45892 29.9389 7.73127 29.9244 7.74916 29.9067C7.7824 29.8739 7.28691 28.335 7.18812 28.1641C7.15834 28.1126 7.11434 27.9823 7.09038 27.8745C7.06643 27.7667 7.02112 27.6628 6.98967 27.6436C6.95823 27.6245 6.93254 27.5563 6.93254 27.4922C6.93254 27.4281 6.89441 27.2853 6.8478 27.1749C6.7406 26.9211 6.62689 26.599 6.56109 26.3629C6.53293 26.262 6.44943 26.0282 6.37546 25.8433C6.3015 25.6584 6.21731 25.4246 6.18835 25.3237C6.15944 25.2228 6.00692 24.7827 5.84939 24.3457C5.52486 23.4452 5.08199 22.1831 4.85197 21.5032C4.58458 20.7128 4.6591 20.7697 3.89126 20.7697C3.31772 20.7697 3.21497 20.7848 3.16632 20.8766ZM50.0706 21.2128C49.9922 21.4566 49.9056 21.6822 49.8779 21.7141C49.8502 21.746 49.8275 21.8148 49.8273 21.8669C49.827 21.9191 49.7863 22.0385 49.7367 22.1323C49.6871 22.2262 49.6285 22.3984 49.6063 22.5151C49.5841 22.6317 49.5437 22.7407 49.5165 22.7573C49.4893 22.7739 49.4483 22.8973 49.4253 23.0314C49.4023 23.1655 49.3582 23.2908 49.3271 23.3098C49.296 23.3287 49.2704 23.3908 49.2702 23.4476C49.2699 23.5045 49.2308 23.6248 49.1832 23.715C49.1355 23.8052 49.0767 23.9702 49.0525 24.0818C49.0282 24.1933 48.9918 24.312 48.9714 24.3457C48.9282 24.417 48.6835 25.0947 48.3422 26.0878C48.2094 26.4744 48.0002 27.0659 47.8772 27.4021C47.7544 27.7383 47.6393 28.0684 47.6214 28.1356C47.6036 28.2028 47.5642 28.3129 47.534 28.3801C47.4638 28.5359 47.2917 29.0152 47.2486 29.1748C47.2305 29.242 47.1766 29.3837 47.129 29.4896C47.0812 29.5956 47.0422 29.741 47.0422 29.8128C47.0422 29.9383 47.0653 29.9426 47.6444 29.9258L48.2465 29.9083L48.3035 29.7249C48.3349 29.6241 48.3982 29.4549 48.4442 29.3489C48.4902 29.243 48.5278 29.1292 48.5278 29.0961C48.5278 29.063 48.5694 28.9572 48.6203 28.8608C48.6711 28.7645 48.7129 28.6294 48.7131 28.5604C48.7133 28.4915 48.7392 28.409 48.7706 28.3771C48.8019 28.3451 48.8524 28.2227 48.8828 28.105L48.9379 27.8911L50.8906 27.8749L52.8432 27.8588L52.9417 28.1195C52.9959 28.2628 53.0993 28.5589 53.1715 28.7774C53.2437 28.996 53.3283 29.2298 53.3594 29.297C53.3905 29.3643 53.4513 29.5293 53.4943 29.6638L53.5727 29.9083L54.1761 29.9258C54.6354 29.9391 54.7796 29.9245 54.7803 29.8647C54.7816 29.7556 54.5132 28.9372 54.4638 28.8997C54.4417 28.8829 54.403 28.7729 54.3777 28.6552C54.3526 28.5375 54.3105 28.4137 54.2843 28.3801C54.2581 28.3465 54.2163 28.2227 54.1914 28.105C54.1665 27.9874 54.1258 27.8636 54.1008 27.83C54.0758 27.7963 53.9901 27.5625 53.9103 27.3104C53.8304 27.0582 53.7452 26.8244 53.7208 26.7908C53.6964 26.7572 53.6568 26.6262 53.6329 26.4997C53.609 26.3733 53.5647 26.2547 53.5345 26.2363C53.5043 26.2179 53.4796 26.1605 53.4796 26.1087C53.4796 26.0569 53.4399 25.9279 53.3913 25.822C53.3427 25.716 53.1611 25.203 52.9876 24.6819C52.8142 24.1607 52.647 23.6794 52.6161 23.6121C52.5852 23.5449 52.5015 23.3111 52.4299 23.0925C52.3585 22.874 52.2752 22.6402 52.245 22.5729C52.2148 22.5057 52.1762 22.3957 52.1592 22.3284C52.1422 22.2612 52.0678 22.0549 51.9939 21.87C51.92 21.6851 51.8366 21.4512 51.8084 21.3504C51.7803 21.2495 51.7209 21.0776 51.6765 20.9683L51.5956 20.7697H50.9042H50.213L50.0706 21.2128ZM122.888 21.2548C122.968 21.6489 123.366 21.9922 123.743 21.9922C123.824 21.9922 123.872 22.049 123.898 22.1756C123.943 22.4021 123.977 22.4034 124.186 22.1875C124.401 21.9658 124.396 21.9311 124.146 21.9311C123.96 21.9311 123.931 21.9067 123.858 21.6896C123.74 21.3359 123.493 21.129 123.141 21.0898L122.848 21.0573L122.888 21.2548ZM124.414 21.3239C124.414 21.4586 124.475 21.5676 124.629 21.7112C124.779 21.851 124.824 21.9302 124.778 21.9752C124.674 22.0786 124.824 22.1302 124.969 22.0407C125.118 21.9489 125.133 21.87 125.002 21.87C124.936 21.87 124.91 21.8032 124.91 21.6361C124.91 21.4707 124.868 21.3633 124.766 21.2693C124.555 21.0735 124.414 21.0954 124.414 21.3239ZM142.227 21.4268C142.01 21.6734 141.903 22.1812 141.903 22.9703C141.902 23.7234 141.946 23.9304 142.184 24.3151C142.216 24.3655 142.266 24.4622 142.296 24.53C142.4 24.7651 142.955 25.2813 143.372 25.5311C143.602 25.6691 143.816 25.7822 143.848 25.7822C143.972 25.7822 143.973 25.9129 143.852 26.1757C143.669 26.5733 143.409 27.5714 143.473 27.6342C143.503 27.6642 143.657 27.5886 143.827 27.4603C144.302 27.1027 145.004 26.8239 145.661 26.7325C145.822 26.71 145.955 26.6722 145.955 26.6485C145.955 26.5815 145.372 26.2206 144.833 25.9545C144.368 25.7244 144.28 25.6333 144.399 25.504C144.474 25.423 144.606 24.5423 144.602 24.1574C144.587 22.9735 143.751 21.7878 142.668 21.4153C142.329 21.2985 142.341 21.2982 142.227 21.4268ZM29.2436 21.7526C29.2759 21.7835 29.3455 21.809 29.3983 21.8091C29.4511 21.8092 29.6238 21.8742 29.7821 21.9536C30.7021 22.4146 31.263 23.1531 31.5369 24.2636C31.7086 24.9602 31.6041 26.4432 31.3492 26.9257C31.2997 27.0196 31.259 27.1206 31.2587 27.1502C31.258 27.2432 30.7565 27.9344 30.5544 28.1207C30.339 28.3192 29.7955 28.6417 29.4633 28.7682C29.3442 28.8136 29.0448 28.8753 28.7979 28.9054C27.2544 29.0936 25.9717 28.3624 25.3563 26.9436C25.1685 26.5106 25.107 26.1036 25.107 25.2931C25.107 24.3122 25.1985 23.8858 25.5463 23.2453C25.6712 23.0153 25.9952 22.5956 26.1197 22.5027C26.1713 22.4641 26.2972 22.3609 26.3994 22.2734C26.6061 22.0963 27.1671 21.8088 27.3062 21.8088C27.3555 21.8088 27.4224 21.783 27.4547 21.7516C27.5832 21.6264 29.1126 21.6273 29.2436 21.7526ZM125.607 21.8153C125.471 21.9014 125.386 22.0186 125.341 22.181C125.294 22.3559 125.244 22.4201 125.155 22.4201C124.989 22.4201 125.002 22.5082 125.186 22.627C125.387 22.7572 125.405 22.7529 125.405 22.5729C125.405 22.4737 125.439 22.4201 125.504 22.4201C125.666 22.4201 125.962 22.0609 125.962 21.8635C125.962 21.6535 125.88 21.6424 125.607 21.8153ZM146.302 21.8587C146.18 22.0543 146.519 22.6035 146.762 22.6035C146.855 22.6035 146.883 22.6455 146.883 22.7869C146.883 22.9816 147.027 23.0448 147.091 22.8786C147.111 22.8281 147.172 22.7869 147.227 22.7869C147.372 22.7869 147.3 22.6376 147.144 22.6148C147.047 22.6008 147 22.5372 146.97 22.3803C146.948 22.2619 146.869 22.1006 146.795 22.0217C146.644 21.8614 146.36 21.7671 146.302 21.8587ZM124.459 22.1929C124.359 22.3152 124.309 22.6035 124.389 22.6035C124.46 22.6035 124.658 22.327 124.66 22.2251C124.663 22.0642 124.576 22.0503 124.459 22.1929ZM51.3683 23.551C51.5397 24.0553 51.8618 24.9906 52.0839 25.6293C52.306 26.2681 52.4881 26.8114 52.4885 26.8366C52.4889 26.8619 51.7771 26.8825 50.9067 26.8825C49.3537 26.8825 49.3248 26.8802 49.3593 26.7602C49.3786 26.693 49.41 26.576 49.4292 26.5004C49.4483 26.4248 49.4882 26.3079 49.5178 26.2406C49.5865 26.0843 49.9868 24.9333 50.4213 23.6427C50.6081 23.0879 50.7935 22.5606 50.8334 22.4707L50.9058 22.3074L50.9812 22.4707C51.0226 22.5606 51.1968 23.0467 51.3683 23.551ZM3.99463 22.5577C4.01827 22.667 4.05907 22.7838 4.08525 22.8175C4.11143 22.8511 4.15352 22.9739 4.17884 23.0905C4.20409 23.2071 4.24792 23.3446 4.2762 23.3962C4.30443 23.4477 4.42692 23.7924 4.5483 24.1623C4.66975 24.5321 4.7946 24.8897 4.82573 24.9569C4.85686 25.0242 4.94414 25.2717 5.01972 25.5071C5.09529 25.7424 5.18059 25.9611 5.20925 25.9931C5.23784 26.025 5.26149 26.1075 5.26168 26.1764C5.26192 26.2453 5.3037 26.3805 5.35452 26.4768C5.4054 26.5732 5.447 26.7038 5.447 26.7672C5.447 26.8772 5.37377 26.8825 3.86446 26.8825H2.28186L2.32184 26.7449C2.34388 26.6693 2.42812 26.4286 2.50915 26.2101C2.59011 25.9915 2.75624 25.5101 2.87824 25.1403C3.00031 24.7705 3.1233 24.4257 3.15152 24.3742C3.17981 24.3227 3.22301 24.1901 3.24759 24.0797C3.27216 23.9693 3.33121 23.8052 3.37887 23.715C3.42653 23.6248 3.46565 23.506 3.4659 23.451C3.46609 23.396 3.50787 23.2722 3.55875 23.1759C3.60956 23.0796 3.65135 22.9543 3.65159 22.8975C3.65178 22.8406 3.67623 22.7793 3.70588 22.7612C3.73553 22.7431 3.77663 22.6452 3.79718 22.5437C3.8462 22.3017 3.94065 22.3084 3.99463 22.5577ZM145.588 22.7324C145.415 22.9041 145.274 23.0719 145.274 23.1052C145.274 23.1385 145.229 23.2596 145.174 23.3743C145.029 23.6745 145.082 24.2184 145.294 24.6217L145.461 24.9404L145.073 25.2975L144.686 25.6545L145.159 25.6572C145.452 25.6589 145.698 25.6944 145.808 25.7512C146.034 25.8675 146.14 25.8676 146.14 25.7516C146.14 25.7012 146.119 25.6599 146.092 25.6599C146.066 25.6599 146.012 25.5843 145.973 25.4918C145.934 25.3993 145.853 25.2508 145.794 25.1618L145.686 24.9998L146.006 24.6453C146.182 24.4502 146.326 24.2581 146.326 24.2182C146.326 24.1783 146.368 24.0669 146.419 23.9706C146.541 23.7388 146.536 23.3397 146.407 23.0173C146.279 22.6965 146.081 22.4201 145.979 22.4201C145.937 22.4201 145.761 22.5607 145.588 22.7324ZM144.775 27.4094C144.727 27.4975 144.689 27.7244 144.69 27.9137C144.693 28.4231 144.94 28.8186 145.401 29.0542C145.574 29.1424 145.648 29.2665 145.528 29.2665C145.498 29.2665 145.455 29.3421 145.432 29.4346C145.41 29.5271 145.377 29.6508 145.36 29.7096C145.323 29.8326 145.457 29.8556 145.569 29.7452C145.655 29.6604 146.064 29.5132 146.218 29.5119C146.402 29.5104 146.339 29.4075 146.053 29.242L145.779 29.0836L145.787 28.5365C145.793 28.0993 145.773 27.9663 145.689 27.8743C145.631 27.811 145.583 27.737 145.583 27.7099C145.583 27.5833 145.094 27.2492 144.909 27.2492C144.883 27.2492 144.822 27.3213 144.775 27.4094Z" fill="white"/>
</svg>
