<svg width="103" height="84" viewBox="0 0 103 84" fill="none" xmlns="http://www.w3.org/2000/svg">
<g clip-path="url(#clip0_6004_8612)">
<path d="M51.634 0L81.3722 52.8239H35.3254L38.6532 46.9362H38.7408L45.1392 35.8466L48.8535 41.1819L45.5333 46.9362H71.3066L57.8825 23.091C57.0702 21.6474 56.2222 20.1406 55.3384 18.5705L51.634 11.9915V12.0004L51.5913 11.9254C50.6039 10.1804 49.4899 8.21191 48.2492 6.02001L51.634 0ZM44.8535 12.0467L45.0068 12.319L45.0199 12.2958L61.3427 41.1731H54.5842L44.8765 23.9974L43.9537 25.6358L43.9406 25.628L28.5657 52.8239H21.8958L44.8535 12.0467Z" fill="white"/>
<path d="M3.67489 84.0001L4.5725 81.398H9.98355L10.8823 84.0001H14.5976L9.31033 69.8398H5.28736L0 83.999L3.67489 84.0001ZM9.19097 78.8268H5.40666L7.30921 73.6536L9.19097 78.8268ZM22.6556 84.0001V75.3086L28.4421 84.0001H31.9024V69.8398H28.4421V78.6119L22.6545 69.8398H19.1953V83.999L22.6556 84.0001ZM45.4524 84.0001V79.2943L50.5558 69.8409H46.5187L43.6856 75.6084L40.8482 69.8398H36.7661L41.8684 79.2933V83.999L45.4524 84.0001ZM58.8776 84.0001V79.0386H61.02C62.1387 79.0386 63.0875 78.8415 63.8662 78.4476C64.6022 78.0951 65.2176 77.5302 65.6341 76.8246C66.0396 76.1087 66.2457 75.2958 66.2306 74.4717C66.2306 73.0575 65.7858 71.9329 64.8962 71.0979C64.0066 70.2629 62.7138 69.8435 61.0178 69.8398H55.4195V83.999L58.8776 84.0001ZM60.6697 76.3758H58.9357V72.5643H60.6697C62.0366 72.5643 62.7203 73.2064 62.7211 74.4905C62.7203 75.7474 62.0358 76.3758 60.6675 76.3758H60.6697ZM74.2361 84.0001L75.1337 81.398H80.5448L81.4435 84.0001H85.161L79.8682 69.8398H75.8464L70.559 83.999L74.2361 84.0001ZM79.7522 78.8268H75.9657L77.8682 73.6536L79.7522 78.8268ZM95.6251 84.0001C97.1307 84.0001 98.4392 83.6998 99.5507 83.0993C100.629 82.5318 101.518 81.6576 102.108 80.5854C102.701 79.5108 102.997 78.2793 102.997 76.8908C102.996 75.5023 102.7 74.274 102.108 73.206C101.521 72.1431 100.634 71.2791 99.5605 70.723C98.4556 70.1349 97.142 69.8409 95.6197 69.8409H90.2853V84.0001H95.6251ZM94.9902 80.7332H93.265V72.8366H94.9902C96.4089 72.8366 97.5123 73.1817 98.3005 73.8719C99.0887 74.5621 99.4828 75.5332 99.4828 76.7849C99.4828 78.0345 99.0887 79.0051 98.3005 79.6968C97.5123 80.3884 96.4097 80.7339 94.9924 80.7332H94.9902Z" fill="white"/>
</g>
<defs>
<clipPath id="clip0_6004_8612">
<rect width="103" height="84" fill="white"/>
</clipPath>
</defs>
</svg>
