<svg width="194" height="40" viewBox="0 0 194 40" fill="none" xmlns="http://www.w3.org/2000/svg">
<g clip-path="url(#clip0_6004_8628)">
<path d="M55.5518 15.5334C55.1048 15.2049 54.5934 14.9802 54.0532 14.875C53.3072 14.7314 52.5488 14.6661 51.7899 14.6801H41.3508V27.7272H45.4053V17.9511H51.4409C51.8154 17.9525 52.1779 18.0864 52.4673 18.3303C52.6129 18.439 52.7341 18.5784 52.8226 18.7393C52.9112 18.9001 52.965 19.0786 52.9806 19.2626C52.9905 19.4654 52.9517 19.6675 52.8675 19.8512C52.7834 20.0349 52.6565 20.1946 52.4981 20.3161C52.1798 20.5646 51.7895 20.6963 51.3896 20.6901H45.9647L49.157 23.5608H52.5802C54.084 23.5608 55.1464 23.171 55.7674 22.3914C56.3884 21.6119 56.7015 20.3951 56.7015 18.7464C56.7211 18.0761 56.6256 17.4075 56.4192 16.7712C56.2539 16.2806 55.9524 15.8503 55.5518 15.5334ZM61.7824 14.6801H57.7279V27.7272H70.5586V24.5668H61.7824V14.6801ZM83.5484 23.3764C83.5497 23.5003 83.5208 23.6225 83.4643 23.732C83.4079 23.8415 83.3256 23.9347 83.2251 24.0032C82.9127 24.1832 82.556 24.2656 82.1986 24.2403H76.4197C76.0619 24.2722 75.7032 24.1894 75.3932 24.0032C75.2927 23.9347 75.2104 23.8415 75.1539 23.732C75.0975 23.6225 75.0686 23.5003 75.0699 23.3764V14.6801H71.0821V23.9453C71.0728 24.4491 71.1368 24.9515 71.272 25.4359C71.4168 25.8731 71.6634 26.2672 71.9905 26.5842C72.2806 26.8579 72.595 27.103 72.9297 27.3164C73.2503 27.4908 73.5974 27.6084 73.9562 27.664C74.5563 27.7538 75.1615 27.8031 75.7679 27.8115C76.5377 27.8326 77.7113 27.8431 79.2886 27.8431C80.8796 27.8431 82.0549 27.8431 82.8247 27.8115C83.4277 27.8026 84.0295 27.7534 84.6262 27.664C84.9853 27.6128 85.3328 27.4969 85.6526 27.3216C85.9858 27.1063 86.2985 26.8594 86.5867 26.5842C86.9138 26.2672 87.1604 25.8731 87.3052 25.4359C87.4429 24.952 87.5069 24.4492 87.4951 23.9453V14.6801H83.5073L83.5484 23.3764ZM116.734 22.2861H121.635V23.7767C121.633 23.8815 121.607 23.9843 121.558 24.0761C121.508 24.1679 121.438 24.2459 121.353 24.3035C121.072 24.4646 120.75 24.5361 120.429 24.5089H113.423C113.1 24.5353 112.776 24.4867 112.474 24.3667C112.315 24.2771 112.233 24.0717 112.233 23.7609V18.5463C112.236 18.4484 112.264 18.3531 112.314 18.2693C112.363 18.1855 112.432 18.1159 112.515 18.067C112.795 17.9213 113.111 17.861 113.423 17.8931H125.12V14.6801H112.977C111.535 14.6801 110.457 14.9856 109.754 15.5913C109.39 15.9282 109.106 16.3457 108.923 16.812C108.74 17.2783 108.662 17.7814 108.697 18.2829V24.2929C108.683 24.7565 108.743 25.2192 108.876 25.6624C109.013 26.0422 109.247 26.377 109.554 26.6316C109.817 26.8993 110.125 27.1169 110.462 27.2742C110.87 27.4415 111.298 27.553 111.735 27.6061C112.248 27.6798 112.89 27.722 113.639 27.7483C114.388 27.7746 115.481 27.7799 116.913 27.7799C118.345 27.7799 119.444 27.7799 120.198 27.7483C120.952 27.7167 121.594 27.6798 122.117 27.6061C122.565 27.5519 123.005 27.4404 123.426 27.2742C123.777 27.1191 124.098 26.9015 124.376 26.6316C124.658 26.36 124.871 26.0219 124.997 25.6466C125.122 25.2073 125.181 24.7507 125.171 24.2929V19.8262H116.734V22.2861ZM103.451 24.5247L103.385 24.3561L95.5733 14.6801H88.9578V27.6798H92.7814V17.8141L92.8275 17.9353L100.7 27.6798H107.265V14.6801H103.446L103.451 24.5247ZM140.85 17.6772V14.6801H126.593V27.7272H140.85V24.6933H130.642V22.5336H140.224V19.9H130.642V17.7035L140.85 17.6772Z" fill="white"/>
<path d="M157.684 22.3915C158.303 21.6119 158.615 20.3969 158.618 18.7465C158.635 18.0763 158.54 17.4081 158.336 16.7713C158.169 16.2816 157.868 15.8518 157.469 15.5334C157.022 15.2037 156.511 14.9789 155.97 14.875C155.222 14.7312 154.462 14.6659 153.702 14.6801H143.268V27.7273H147.296V17.9511H153.337C153.712 17.9525 154.074 18.0865 154.364 18.3304C154.514 18.4456 154.637 18.5953 154.721 18.7677C154.806 18.9401 154.849 19.1304 154.849 19.3233C154.849 19.5162 154.806 19.7064 154.721 19.8788C154.637 20.0512 154.514 20.201 154.364 20.3162C154.045 20.5647 153.655 20.6964 153.255 20.6901H147.882L151.074 23.5608H154.482C155.99 23.5608 157.058 23.171 157.684 22.3915ZM192.974 15.5808C192.281 14.9804 191.213 14.6801 189.781 14.6801H177.11V27.7273H189.766C191.198 27.7273 192.265 27.427 192.958 26.8266C193.311 26.4946 193.586 26.0855 193.764 25.6297C193.941 25.1738 194.017 24.6828 193.985 24.1929V18.2303C194.021 17.7391 193.949 17.2458 193.774 16.787C193.599 16.3283 193.325 15.916 192.974 15.5808ZM190.474 23.8927C190.474 23.9965 190.449 24.0986 190.401 24.1904C190.354 24.2821 190.286 24.3607 190.202 24.4194C189.94 24.5774 189.638 24.6491 189.335 24.6248H180.882V17.7773H189.319C189.623 17.7543 189.926 17.8278 190.187 17.988C190.271 18.0457 190.34 18.1241 190.388 18.2161C190.435 18.308 190.46 18.4107 190.459 18.5147L190.474 23.8927ZM163.843 14.6801L156.714 27.7273H161.215L162.421 25.5045H170.392L171.582 27.7273H176.078L169.037 14.6801H163.843ZM163.894 22.697L166.409 17.9985L168.924 22.697H163.894Z" fill="white"/>
<path d="M30.8707 7.68004L30.3061 6.83727C30.3061 6.83727 34.956 6.2052 37.4913 0.0266339C30.8501 -0.352613 28.284 3.59787 28.284 3.59787L27.7708 2.71823C26.7873 3.50126 25.9802 4.49306 25.4048 5.62579C26.0096 5.22708 26.6734 4.93178 27.3704 4.75142L26.965 5.58892L27.9915 7.16911H28.9204C28.4547 7.72608 27.9034 8.20114 27.2883 8.57549C28.5302 8.53662 29.7504 8.23161 30.8707 7.68004ZM32.554 3.14488C32.4874 3.03919 32.4421 2.92088 32.4207 2.79693C32.3994 2.67297 32.4024 2.54588 32.4297 2.42314C32.4569 2.30041 32.5079 2.18453 32.5795 2.08232C32.6511 1.98012 32.7419 1.89366 32.8466 1.82806C33.0605 1.69257 33.3176 1.64813 33.563 1.70421C33.8083 1.76028 34.0227 1.91244 34.1604 2.1283C34.2262 2.23452 34.2706 2.35309 34.2912 2.47712C34.3118 2.60115 34.3081 2.72815 34.2804 2.85071C34.2527 2.97327 34.2015 3.08896 34.1298 3.19101C34.0581 3.29306 33.9673 3.37945 33.8628 3.44513C33.6496 3.58033 33.3934 3.62462 33.1488 3.56851C32.9043 3.51241 32.6908 3.36037 32.554 3.14488Z" fill="white"/>
<path d="M14.4114 11.3356C20.2417 9.46047 23.3621 8.13837 25.0301 7.29033C24.0227 6.26078 22.8274 5.4452 21.5126 4.89025C20.1978 4.3353 18.7893 4.05187 17.3676 4.0562H0C0 4.0562 0.718519 15.7391 14.4114 11.3356ZM25.6152 7.93295C-0.646664 26.2263 9.81804 37.8566 12.1738 40.0162V25.6259H17.3676C20.1849 25.6568 22.8988 24.5384 24.9131 22.5166C26.9273 20.4949 28.077 17.735 28.1095 14.8437C28.1099 12.3081 27.225 9.85634 25.6152 7.93295ZM1.38571 18.2095V25.7944C4.46508 20.0004 17.5934 11.9782 17.5934 11.9782C7.87804 17.6248 1.38571 18.2095 1.38571 18.2095Z" fill="white"/>
<path d="M25.4869 8.77573C18.8868 13.432 14.7091 17.6354 12.1892 21.3067C9.62302 25.0728 8.75054 28.2701 8.74541 30.8932C8.74737 32.9091 9.27929 34.8872 10.2851 36.6188C10.6596 37.2764 11.0926 37.897 11.5784 38.4729V25.0096H17.3676C20.0513 25.0233 22.6324 23.9523 24.5528 22.0283C26.2703 20.3254 27.3169 18.0331 27.493 15.5889C27.6691 13.1446 26.9623 10.7194 25.5074 8.77573H25.4869ZM2.0016 18.752V23.7507C2.8576 22.6729 3.79454 21.6655 4.80382 20.7378C6.48577 19.1797 8.25056 17.7184 10.0901 16.3607C7.48689 17.458 4.77462 18.2599 2.0016 18.752ZM4.26493 10.5192C5.6443 11.3544 7.22688 11.7691 8.82752 11.7149C10.6642 11.678 12.4847 11.3548 14.2267 10.7562C17.5448 9.74936 20.801 8.53922 23.978 7.13233C22.1326 5.54142 19.7982 4.67192 17.3882 4.67776H0.697998C0.739056 4.90953 0.79551 5.20449 0.877627 5.50473C1.15727 6.62017 1.63391 7.67351 2.28387 8.61245C2.81478 9.37632 3.48814 10.0244 4.26493 10.5192Z" fill="white"/>
<g style="mix-blend-mode:screen">
<path d="M23.7573 6.96892C21.9436 5.48046 19.6899 4.67046 17.3676 4.67237H0.697998C0.697998 4.73031 0.697999 4.79879 0.739057 4.86726C2.17609 5.73637 11.291 10.7772 23.7573 6.96892Z" fill="white"/>
</g>
<g style="mix-blend-mode:screen">
<path d="M1.02646 5.03055H17.1623C19.3619 5.02978 21.5027 5.75968 23.2646 7.11114C23.4288 7.06373 23.5931 7.02159 23.7778 6.96892C21.9641 5.48046 19.7104 4.67046 17.3882 4.67237H0.697998C0.697998 4.73031 0.697999 4.79879 0.739057 4.86726L1.02646 5.03055Z" fill="white"/>
</g>
<g style="mix-blend-mode:screen">
<path d="M25.3123 8.9018C24.8607 18.4198 14.5345 24.0243 12.5637 25.0093H17.3675C20.0512 25.0229 22.6323 23.952 24.5527 22.028C26.2702 20.325 27.3168 18.0328 27.4929 15.5885C27.669 13.1443 26.9622 10.719 25.5073 8.77539L25.3123 8.9018Z" fill="white"/>
</g>
<g style="mix-blend-mode:screen">
<path d="M25.4868 8.77557L25.3123 8.90198C25.3123 9.04419 25.3123 9.18642 25.2764 9.32864C26.4521 11.01 27.0856 13.0268 27.088 15.0963C27.0883 16.4376 26.8258 17.7653 26.3162 19.0004C25.8066 20.2356 25.0603 21.353 24.1216 22.2862C23.6324 22.7762 23.0958 23.2139 22.5203 23.5925C23.2542 23.1565 23.9303 22.6254 24.5322 22.0123C26.2497 20.3094 27.2963 18.0172 27.4724 15.5729C27.6484 13.1286 26.9416 10.7034 25.4868 8.75977V8.77557ZM12.6561 25.0094C13.1693 24.7408 13.8724 24.3352 14.709 23.8085C13.7493 24.4037 12.9794 24.804 12.574 25.0094H12.6561Z" fill="white"/>
</g>
<g style="mix-blend-mode:screen">
<path d="M9.77711 16.4814C7.27139 17.5199 4.66482 18.281 2.00171 18.7517V20.8586C4.03409 19.684 7.04674 17.9932 9.77711 16.4814Z" fill="white"/>
</g>
<g style="mix-blend-mode:screen">
<path d="M33.6934 0.784939C33.6934 0.784939 36.1209 0.479431 36.8087 0.426758C35.0483 1.68565 34.5607 2.11757 34.5607 2.11757L33.6934 0.784939Z" fill="white"/>
</g>
<g style="mix-blend-mode:screen">
<path d="M157.469 15.5334C157.022 15.2037 156.511 14.9789 155.97 14.875C155.222 14.7312 154.462 14.6659 153.702 14.6801H143.268V23.1605C144.633 23.0868 145.983 23.013 147.317 22.9287V17.9511H153.358C153.732 17.9525 154.095 18.0865 154.384 18.3304C154.535 18.4456 154.657 18.5953 154.742 18.7677C154.826 18.9401 154.87 19.1304 154.87 19.3233C154.87 19.5162 154.826 19.7064 154.742 19.8788C154.657 20.0512 154.535 20.201 154.384 20.3162C154.066 20.5647 153.675 20.6964 153.276 20.6901H147.882L150.165 22.7444C152.79 22.5653 155.356 22.3704 157.864 22.1597C158.442 21.1243 158.711 19.9375 158.639 18.7465C158.656 18.0763 158.56 17.4081 158.356 16.7713C158.184 16.279 157.875 15.8489 157.469 15.5334ZM163.843 14.6801L159.85 21.9859C161.436 21.8437 162.991 21.6909 164.515 21.5382L166.409 17.9985L168.098 21.1589C169.519 21.0009 170.915 20.8376 172.275 20.6691L169.037 14.6854L163.843 14.6801ZM192.974 15.5808C192.281 14.9804 191.213 14.6801 189.781 14.6801H177.11V20.0001C178.398 19.8158 179.676 19.6261 180.882 19.4312V17.7984H189.32C189.429 17.7927 189.539 17.7927 189.648 17.7984C191.112 17.4894 192.496 17.1716 193.8 16.845C193.642 16.3543 193.356 15.9172 192.974 15.5808Z" fill="white"/>
</g>
<g style="mix-blend-mode:screen">
<path d="M71.1078 22.7075L75.0955 22.9656V14.6801H71.1078V22.7075ZM55.5518 15.5334C55.1048 15.2049 54.5934 14.9802 54.0532 14.875C53.3072 14.7314 52.5488 14.6661 51.7899 14.6801H41.3508V19.5102C42.6647 19.7156 44.0145 19.9211 45.4053 20.1107V17.9511H51.4409C51.8154 17.9525 52.1779 18.0864 52.4673 18.3303C52.6129 18.439 52.7341 18.5784 52.8226 18.7393C52.9112 18.9001 52.965 19.0786 52.9806 19.2626C52.9905 19.4654 52.9517 19.6675 52.8675 19.8512C52.7834 20.0349 52.6565 20.1946 52.4981 20.3161C52.1798 20.5646 51.7895 20.6963 51.3896 20.6901H49.7832C51.8874 20.9535 54.0635 21.201 56.3114 21.4328C56.6051 20.5702 56.7425 19.6598 56.7169 18.7464C56.7365 18.0761 56.641 17.4075 56.4346 16.7712C56.2652 16.2786 55.9581 15.8481 55.5518 15.5334ZM88.9578 14.6801V23.6345L92.7814 23.7557V17.8141L92.8275 17.9353L97.6262 23.8716C99.4225 23.9067 101.234 23.9365 103.061 23.9611L95.5733 14.6801H88.9578ZM57.7279 21.5803C59.0589 21.7172 60.4104 21.8454 61.7824 21.9648V14.6801H57.7279V21.5803ZM83.5484 23.3764C83.5509 23.3886 83.5509 23.4011 83.5484 23.4133L87.5413 23.5766V14.6801H83.5535L83.5484 23.3764ZM140.85 17.6983V14.6801H126.593V23.8189L130.642 23.703V22.5336H140.224V19.9H130.642V17.7035L140.85 17.6983ZM116.729 22.2861H121.635V23.7767C121.64 23.824 121.64 23.8717 121.635 23.919L125.176 23.8505V19.8262H116.734L116.729 22.2861ZM103.446 23.9664C104.709 23.9664 105.987 23.9927 107.265 23.998V14.6801H103.446V23.9664ZM125.115 14.6801H112.977C111.535 14.6801 110.457 14.9856 109.754 15.5913C109.39 15.9282 109.106 16.3457 108.923 16.812C108.74 17.2783 108.662 17.7814 108.697 18.2829V24.0032H112.253C112.247 23.9261 112.247 23.8486 112.253 23.7715V18.5568C112.257 18.459 112.285 18.3637 112.334 18.2798C112.384 18.196 112.453 18.1264 112.535 18.0775C112.809 17.9321 113.116 17.8682 113.423 17.8931H125.12L125.115 14.6801Z" fill="white"/>
</g>
</g>
<defs>
<clipPath id="clip0_6004_8628">
<rect width="194" height="40" fill="white"/>
</clipPath>
</defs>
</svg>
