<svg width="160" height="48" viewBox="0 0 160 48" fill="none" xmlns="http://www.w3.org/2000/svg">
<g clip-path="url(#clip0_6004_7798)">
<path d="M24.297 48.0023C37.7159 48.0023 48.5941 37.2566 48.5941 24.0011C48.5941 10.7457 37.7159 0 24.297 0C10.8782 0 0 10.7457 0 24.0011C0 37.2566 10.8782 48.0023 24.297 48.0023Z" fill="url(#paint0_linear_6004_7798)"/>
<path d="M23.8669 37.4163C30.8389 37.4163 36.4908 31.8113 36.4908 24.8971C36.4908 17.983 30.8389 12.3779 23.8669 12.3779C16.8949 12.3779 11.2429 17.983 11.2429 24.8971C11.2429 31.8113 16.8949 37.4163 23.8669 37.4163Z" fill="white"/>
<path d="M55.866 30.2112V4.16699H62.7304L75.4086 20.0877V4.17149H82.2345V30.2157H75.4064L62.7281 14.2951V30.2157L55.866 30.2112Z" fill="white"/>
<path d="M102.787 9.90347H94.6366V14.2569H102.334V19.9889H94.6366V24.4793H102.787V30.2112H87.7654V4.16699H102.787V9.90347Z" fill="white"/>
<path d="M107.722 4.17139H117.949C120.376 4.17139 122.219 4.74691 123.48 5.89794C124.74 7.04898 125.37 8.70668 125.37 10.871C125.37 12.1822 125.131 13.2704 124.652 14.1356C124.13 15.0437 123.376 15.7995 122.465 16.3269C123.34 16.4764 124.185 16.7621 124.969 17.1733C125.619 17.5222 126.19 17.998 126.649 18.5721C127.082 19.1259 127.397 19.7604 127.578 20.4378C127.768 21.1597 127.862 21.9032 127.858 22.6493C127.88 23.765 127.659 24.8723 127.211 25.8959C126.799 26.8168 126.179 27.6317 125.4 28.278C124.561 28.9529 123.589 29.4469 122.547 29.7284C121.315 30.0655 120.042 30.2281 118.764 30.2111H107.722V4.17139ZM114.587 14.3938H115.848C117.994 14.3938 119.068 13.5533 119.069 11.8724C119.071 10.1915 117.997 9.35104 115.848 9.35104H114.587V14.3938ZM114.587 24.9619H116.092C117.821 24.9619 119.057 24.7433 119.803 24.3063C120.549 23.8692 120.926 23.1672 120.935 22.2003C120.935 21.2334 120.558 20.5306 119.803 20.0921C119.048 19.6535 117.811 19.435 116.092 19.4365H114.587V24.9619Z" fill="white"/>
<path d="M138.816 4.17139V30.2156H131.965V4.17139H138.816Z" fill="white"/>
<path d="M154.363 9.90337V30.2111H147.501V9.90337H141.863V4.17139H160V9.90337H154.363Z" fill="white"/>
<path d="M111.168 35.7456H112.255L109.033 43.2985H108.784L105.499 35.7456H106.609L108.902 41.0263L111.168 35.7456Z" fill="white"/>
<path d="M113.09 35.7456H117.412V36.7043H114.182V38.9989H117.304V39.9621H114.182V42.2971H117.516V43.2558H113.09V35.7456Z" fill="white"/>
<path d="M124.738 35.7456H125.775V43.267H124.836L119.74 37.4744V43.267H118.714V35.7456H119.599L124.741 41.5831L124.738 35.7456Z" fill="white"/>
<path d="M126.758 35.7368H133.127V36.6933H130.469V43.2672H129.371V36.6933H126.758V35.7368Z" fill="white"/>
<path d="M139.463 35.7457H140.568V40.0116C140.583 40.4509 140.54 40.8902 140.439 41.3183C140.367 41.5763 140.258 41.8227 140.115 42.0502C139.991 42.2456 139.839 42.4219 139.663 42.5733C139.059 43.0867 138.27 43.3434 137.295 43.3434C136.32 43.3434 135.523 43.089 134.904 42.5801C134.729 42.4253 134.576 42.2469 134.451 42.0502C134.313 41.8259 134.209 41.5832 134.141 41.3295C134.042 40.892 134.001 40.4438 134.016 39.9958V35.73H135.114V39.9958C135.114 40.7023 135.196 41.194 135.359 41.4709C135.537 41.763 135.798 41.9971 136.108 42.1445C136.478 42.3183 136.883 42.4036 137.292 42.3937C137.864 42.4195 138.426 42.2419 138.877 41.893C139.08 41.7229 139.236 41.5042 139.33 41.2576C139.446 40.8506 139.495 40.4274 139.472 40.0048L139.463 35.7457Z" fill="white"/>
<path d="M142.103 43.2671V35.7457H144.014C144.675 35.7102 145.326 35.9109 145.85 36.3115C146.074 36.4978 146.251 36.7326 146.369 36.9977C146.487 37.2627 146.542 37.5511 146.529 37.8405C146.54 38.2442 146.423 38.6412 146.197 38.9766C145.96 39.3069 145.626 39.557 145.241 39.6928C145.51 39.8724 145.751 40.0902 145.957 40.3394C146.316 40.792 146.645 41.2683 146.939 41.7651C147.203 42.1917 147.416 42.5128 147.578 42.7283L147.983 43.2671H146.681L146.348 42.771C146.348 42.753 146.317 42.7238 146.283 42.6789L146.07 42.3825L145.735 41.8257L145.37 41.2375C145.184 40.9758 144.976 40.7295 144.75 40.501C144.599 40.3477 144.429 40.2148 144.243 40.1059C144.001 40.0087 143.74 39.9673 143.48 39.9847H143.194V43.2582L142.103 43.2671ZM143.523 36.6618H143.194V39.0349H143.611C143.994 39.059 144.378 39.0118 144.743 38.8957C144.943 38.8077 145.111 38.6602 145.223 38.4736C145.34 38.2789 145.399 38.0558 145.395 37.8293C145.398 37.6012 145.331 37.3776 145.205 37.1872C145.078 36.994 144.888 36.8504 144.666 36.7808C144.293 36.6842 143.908 36.644 143.523 36.6618Z" fill="white"/>
<path d="M148.823 35.7456H153.145V36.7043H149.914V38.9989H153.036V39.9621H149.914V42.2971H153.247V43.2558H148.823V35.7456Z" fill="white"/>
<path d="M156.298 40.1149L155.47 39.6187C155.043 39.384 154.665 39.0699 154.358 38.6937C154.138 38.389 154.023 38.0221 154.03 37.6475C154.021 37.3761 154.072 37.106 154.18 36.8565C154.288 36.607 154.45 36.3841 154.655 36.2038C155.105 35.8215 155.686 35.6233 156.278 35.6492C156.903 35.6462 157.514 35.8309 158.03 36.1791V37.4005C157.801 37.161 157.526 36.9687 157.221 36.8346C156.917 36.7006 156.589 36.6273 156.255 36.6192C155.944 36.6063 155.637 36.6912 155.377 36.8616C155.271 36.9292 155.185 37.0219 155.124 37.1314C155.064 37.2408 155.033 37.3634 155.033 37.488C155.036 37.7222 155.126 37.9468 155.286 38.1189C155.522 38.3681 155.798 38.5774 156.101 38.7386L156.935 39.2258C157.864 39.7737 158.329 40.4712 158.329 41.3183C158.339 41.5928 158.29 41.8661 158.184 42.1198C158.078 42.3736 157.918 42.6018 157.716 42.7889C157.28 43.1718 156.713 43.3737 156.131 43.3525C155.389 43.3599 154.665 43.123 154.073 42.6789V41.3116C154.662 42.048 155.341 42.4163 156.111 42.4163C156.42 42.427 156.723 42.3274 156.964 42.1356C157.072 42.0523 157.159 41.9453 157.219 41.823C157.278 41.7006 157.308 41.5663 157.306 41.4306C157.304 40.9651 156.969 40.5265 156.298 40.1149Z" fill="white"/>
</g>
<defs>
<linearGradient id="paint0_linear_6004_7798" x1="42.6013" y1="2.97039" x2="36.2464" y2="10.3937" gradientUnits="userSpaceOnUse">
<stop stop-color="white"/>
<stop offset="1" stop-color="#E1E1E1"/>
</linearGradient>
<clipPath id="clip0_6004_7798">
<rect width="160" height="48" fill="white"/>
</clipPath>
</defs>
</svg>
