<svg width="152" height="50" viewBox="0 0 152 50" fill="none" xmlns="http://www.w3.org/2000/svg">
<path d="M93.9818 15.441C94.9181 12.8324 97.3493 10.9252 100.137 10.6127C100.575 10.5635 105.355 10.5169 110.758 10.5093L120.582 10.4952V13.0883V15.6814L110.344 15.7101C100.203 15.7385 100.104 15.7409 99.7957 15.9618C99.1265 16.4415 99.0266 16.6852 98.9866 17.9342C98.9534 18.9711 98.9765 19.1406 99.2102 19.577C99.3911 19.9149 99.6085 20.1296 99.9212 20.2798C100.353 20.4871 100.664 20.4985 107.521 20.556C112.924 20.6014 114.781 20.6503 115.121 20.7561C115.369 20.8331 116.024 21.1195 116.576 21.3926C118.346 22.2666 119.7 23.8487 120.297 25.7396C120.581 26.6378 120.649 28.729 120.431 29.8323C120.017 31.9207 118.542 33.817 116.569 34.7971C114.792 35.6799 115.512 35.6323 103.918 35.6323H93.6161L93.586 33.0674L93.5558 30.5023L103.719 30.4726C113.651 30.4434 113.891 30.4377 114.265 30.2265C115.026 29.7956 115.121 29.5569 115.121 28.0641C115.121 26.5714 115.026 26.3327 114.265 25.9018C113.896 25.6935 113.622 25.6834 106.733 25.6273C98.7267 25.5621 99.2111 25.6088 97.45 24.7329C95.5262 23.7759 94.0975 21.868 93.7105 19.7392C93.4485 18.2981 93.5535 16.634 93.9818 15.441Z" fill="white"/>
<path d="M123.039 15.5767C124.053 12.8569 126.437 10.9285 129.181 10.6097C129.622 10.5584 133.428 10.5266 137.639 10.5389C146.171 10.5637 145.787 10.5327 147.491 11.3352C148.569 11.8433 150.083 13.2506 150.626 14.2496C151.407 15.6885 151.463 15.9526 151.517 18.4688L151.566 20.7663H148.92H146.275L146.235 18.9013C146.189 16.6894 146.07 16.3367 145.232 15.926L144.732 15.6806L136.944 15.7098C129.283 15.7384 129.15 15.7425 128.837 15.9615C128.662 16.0839 128.404 16.4001 128.263 16.6642L128.007 17.1444L128.038 23.1989C128.068 29.0301 128.077 29.2671 128.294 29.6212C128.418 29.8236 128.722 30.0912 128.97 30.2159C129.412 30.4384 129.559 30.4434 136.795 30.4768C144.755 30.5135 145.103 30.4939 145.602 29.9791C146.17 29.3939 146.194 29.2778 146.159 27.2262L146.126 25.3072H148.766C151.071 25.3072 151.416 25.329 151.476 25.4782C151.614 25.8231 151.542 29.3535 151.382 30.0762C151.193 30.935 150.503 32.2877 149.862 33.0589C148.981 34.1189 147.297 35.1248 145.802 35.4837C145.305 35.6029 143.588 35.6323 137.132 35.6323C128.191 35.6323 128.519 35.6559 126.887 34.8959C125.508 34.2541 124.174 32.9759 123.519 31.6703C122.722 30.0788 122.705 29.8807 122.743 22.6382C122.777 16.2959 122.778 16.2776 123.039 15.5767Z" fill="white"/>
<path d="M62.6335 45.1352C61.5818 44.3817 61.5989 42.732 62.6655 42.0568C62.9621 41.869 63.222 41.8504 65.5529 41.8498L68.1143 41.849V42.3875V42.9261L65.6092 42.9552L63.1041 42.9842L63.0687 43.5213C63.0169 44.309 63.0875 44.3356 65.2366 44.3364C66.8182 44.337 67.085 44.3626 67.3666 44.5409C67.92 44.8912 68.1129 45.285 68.1132 46.0656C68.1135 46.958 67.8541 47.4024 67.1611 47.6968C66.7108 47.8881 66.4396 47.9052 64.2649 47.8787L61.8656 47.8495L61.8312 47.3359L61.7969 46.8224H64.2023C67.0099 46.8224 67.0207 46.8191 66.9675 46.0079L66.9321 45.4709L64.9416 45.4169C63.1441 45.368 62.9203 45.3407 62.6335 45.1352Z" fill="white"/>
<path d="M76.6712 42.9302V42.3896V41.849H79.8238H82.9763V42.3896V42.9302H81.6837H80.391L80.3607 45.3898L80.3304 47.8495H79.8238H79.3171L79.2868 45.3898L79.2565 42.9302H77.9639H76.6712Z" fill="white"/>
<path d="M106.339 42.8761L106.305 42.3626L106.27 41.849H109.429H112.588V42.3896V42.9302H111.351H110.115L110.085 45.3898L110.054 47.8495H109.491H108.928L108.898 45.3934L108.868 42.9372L107.603 42.9067L106.339 42.8761Z" fill="white"/>
<path d="M121.201 47.8495L121.171 44.8493L121.141 41.849H121.708H122.274L122.244 44.8493L122.214 47.8495H121.708H121.201Z" fill="white"/>
<path d="M145.689 47.9154V44.8822V41.849L146.28 41.8554L146.872 41.8617L148.842 44.135L150.812 46.4083L150.843 44.1286L150.873 41.849H151.436H151.998L151.968 44.8493L151.938 47.8495L151.413 47.882C150.792 47.9206 151.03 48.1351 148.638 45.3897L146.872 43.3624L146.815 45.606L146.759 47.8495L146.224 47.8825L145.689 47.9154Z" fill="white"/>
<path fill-rule="evenodd" clip-rule="evenodd" d="M62.147 14.9786V19.4689H64.7903H67.4336L67.4644 17.5498L67.4951 15.6307H75.8268H84.1585L84.619 15.8842C85.3818 16.304 85.5096 16.6195 85.5096 18.0825C85.5096 19.4568 85.4323 19.6647 84.7344 20.1649C84.426 20.3861 84.336 20.3881 73.2853 20.4164L62.147 20.4451V28.0697V35.6943L73.4342 35.6585C83.8507 35.6254 85.0957 35.6517 86.119 35.2072C86.3305 35.1153 86.5326 35.0033 86.8044 34.8664C88.39 34.0679 89.5075 32.9454 90.2395 31.4158C90.6848 30.4852 90.8219 29.9513 90.9207 28.7619C91.069 26.9769 90.6648 25.2936 89.7207 23.7646L89.2689 23.0328L89.5069 22.7118C89.8521 22.2464 90.5827 20.6865 90.7289 20.1031C91.0967 18.6342 90.9772 16.4988 90.4523 15.1585C89.6717 13.1659 87.9695 11.6132 85.7337 10.8546L84.8341 10.5493L73.4905 10.5188L62.147 10.4883V14.9786ZM85.5659 28.1114C85.5659 26.7271 85.2757 26.1088 84.4717 25.7798C84.1757 25.6587 82.5838 25.6315 75.7741 25.6315H67.4388V28.0669V30.5021L75.7987 30.4724C83.9847 30.4434 84.1679 30.4381 84.6089 30.2202C85.2951 29.8812 85.5659 29.2845 85.5659 28.1114Z" fill="white"/>
<path fill-rule="evenodd" clip-rule="evenodd" d="M93.8662 41.9842C92.4621 45.4028 91.5332 47.7206 91.5332 47.8059C91.5332 47.8689 91.7584 47.9014 92.0642 47.8825L92.5952 47.8495L92.9368 47.0093L93.2784 46.169L94.6704 46.1984L96.0626 46.2277L96.3628 46.9554C96.5278 47.3556 96.718 47.736 96.7853 47.8006C96.9745 47.9823 97.7895 47.8864 97.7487 47.6873C97.7303 47.5981 97.1983 46.2484 96.5665 44.6879L95.4176 41.8509L94.6696 41.8499C94.1753 41.8493 93.9029 41.8949 93.8662 41.9842ZM95.5865 45.0594C95.5865 45.0413 95.4047 44.5913 95.1827 44.0593C94.9607 43.5275 94.7417 43.0547 94.6961 43.0089C94.6255 42.9377 93.785 44.787 93.785 45.0135C93.785 45.0569 94.1903 45.0925 94.6857 45.0925C95.1811 45.0925 95.5865 45.0776 95.5865 45.0594Z" fill="white"/>
<path fill-rule="evenodd" clip-rule="evenodd" d="M131.604 42.0944C130.893 42.5505 130.816 42.8481 130.852 45.0057L130.884 46.919L131.274 47.3052C131.814 47.8401 132.27 47.9283 134.273 47.8858C136.143 47.8462 136.306 47.7967 136.844 47.1054C137.054 46.8358 137.079 46.6299 137.108 44.9498C137.144 42.8537 137.063 42.5483 136.356 42.0944C135.994 41.8623 135.865 41.849 133.98 41.849C132.095 41.849 131.966 41.8623 131.604 42.0944ZM136.007 44.8377C136.007 43.7001 135.965 43.1494 135.871 43.0599C135.778 42.9701 135.196 42.9302 133.98 42.9302C132.764 42.9302 132.182 42.9701 132.088 43.0599C131.995 43.1494 131.953 43.6996 131.953 44.8362C131.953 46.1887 131.985 46.5129 132.13 46.6525C132.274 46.791 132.603 46.8224 133.907 46.8224C135.019 46.8224 135.544 46.8497 135.79 46.6115C136.035 46.3755 136.007 45.8791 136.007 44.8377Z" fill="white"/>
<path fill-rule="evenodd" clip-rule="evenodd" d="M41.3908 3.71067C42.6218 2.36602 43.88 0.981158 44.1869 0.633023C44.4938 0.284887 44.8331 0 44.9408 0C45.1231 0 45.1207 0.0433548 44.9071 0.62167C44.4668 1.8143 42.2006 8.59765 42.1407 8.90254C42.0961 9.1298 42.2161 9.46777 42.6016 10.1999C43.2029 11.342 43.3776 12.1648 43.2201 13.1125C43.0456 14.1626 42.6696 14.9503 41.8988 15.8807L41.506 16.3547L41.7934 16.8538C42.0793 17.35 42.2101 17.6945 42.4439 18.566C42.5627 19.009 42.6417 19.0709 45.0994 20.6476C46.4928 21.5414 47.9984 22.4484 48.4455 22.6633C50.6981 23.7461 51.5397 24.7328 51.9021 26.7151C52.0818 27.6983 52.119 27.786 52.3583 27.786C52.7439 27.786 52.8288 28.1606 52.7876 29.6816C52.7435 31.3144 52.6483 31.5148 51.7878 31.7875C51.3614 31.9226 51.3414 31.9495 51.3414 32.3851C51.3414 32.7874 51.3802 32.8566 51.671 32.9723C51.8523 33.0444 52.0899 33.1982 52.199 33.314C52.3892 33.5158 52.3851 33.5486 52.0939 34.1187C51.7593 34.7738 51.4741 34.9432 50.9491 34.7985C50.3595 34.6361 50.0858 34.695 49.642 35.0801C48.6226 35.9644 47.2753 36.3623 45.3178 36.3571C43.4862 36.3522 42.6701 36.1269 40.0525 34.904L37.9397 33.917L36.8999 33.9827C36.3281 34.0188 35.6321 34.1185 35.3535 34.2041C34.6138 34.4315 33.8129 34.7787 33.7295 34.9085C33.6217 35.0758 34.3375 36.8242 34.91 37.7919C35.5307 38.8413 36.9741 40.3219 38.1142 41.0788C38.9821 41.6548 40.7563 42.5031 43.4493 43.6297C44.5965 44.1095 44.9071 44.2801 44.7441 44.3408C44.6261 44.3847 43.9216 44.4992 43.1785 44.5952C40.2675 44.9713 38.3567 45.5049 32.5857 47.5532C26.8975 49.5723 24.8703 49.9961 20.8856 49.9999C18.8685 50.0019 18.3355 49.9662 17.257 49.757C10.9744 48.5384 7.19792 44.9423 5.9377 38.9786C5.71623 37.9305 5.68606 37.4588 5.68729 35.07L5.68876 32.3534L5.19584 32.1022C4.29635 31.644 1.80145 29.666 1.80145 29.4111C1.80145 29.3671 2.34617 29.2721 3.0118 29.2001C3.67755 29.1281 4.39036 29.042 4.59595 29.0088L4.96975 28.9483L4.33677 28.7013C3.1754 28.2481 2.43061 27.7414 1.21035 26.5745C0.544601 25.938 0 25.3688 0 25.3096C0 25.2405 0.475245 25.2248 1.32407 25.2658C2.7909 25.3366 3.56913 25.1931 4.47075 24.6857C5.40796 24.1583 5.8483 23.5829 8.67692 19.1907C9.92791 17.2481 11.0579 15.7551 11.9674 14.8433L12.6372 14.172L12.0059 13.9039C10.8268 13.4032 10.1588 12.7288 9.84268 11.7198C9.71534 11.3135 9.34503 8.93054 9.34503 8.51743C9.34503 8.34693 9.546 8.44434 10.1979 8.93108C11.5447 9.93646 12.4551 10.197 13.7609 9.95105C14.323 9.8451 15.6982 9.38225 15.8502 9.24775C15.8673 9.23262 15.7056 8.96957 15.4909 8.66317C14.4777 7.21732 14.9828 5.67785 17.136 3.64926C17.6885 3.12879 18.1754 2.70281 18.2182 2.7027C18.261 2.70259 18.2796 3.03321 18.2595 3.43757C18.2293 4.04421 18.2622 4.21914 18.447 4.43797C18.7796 4.83173 19.4883 4.77043 22.0678 4.12454C24.9869 3.39367 25.6741 3.2622 27.2688 3.12922C30.1241 2.89115 32.5211 3.37637 34.3018 4.55279L34.8311 4.90244L35.0078 4.64501C35.4935 3.93782 36.4899 3.13538 36.8821 3.13538C36.9555 3.13538 37.0745 3.36026 37.1467 3.6352C37.3454 4.39299 37.7631 5.10602 38.2622 5.53892C38.3201 5.58918 38.3731 5.63671 38.4224 5.68086C38.6261 5.86346 38.7653 5.98825 38.9196 6.00876C39.2526 6.05303 39.6556 5.61139 40.9288 4.21638L40.9307 4.21429L40.9314 4.21352C41.0734 4.05795 41.2261 3.89055 41.3908 3.71067ZM17.0536 19.9131C16.0624 20.8034 14.938 22.2579 13.5163 24.4884C11.0815 28.3084 10.748 28.7341 9.65916 29.4124C9.30562 29.6327 9.04126 29.8367 9.07166 29.866C9.16331 29.9539 10.1157 29.7497 10.619 29.5342C10.8782 29.4233 11.3357 29.1516 11.6358 28.9304L12.1814 28.5284L11.9736 28.8695C11.8593 29.0571 11.5554 29.3974 11.2984 29.6259C10.3492 30.4692 9.31497 30.7673 7.66686 30.6727C6.55368 30.6088 5.29176 30.4022 5.29176 30.2839C5.29176 30.2469 5.73515 30.1076 6.27693 29.9739C7.81222 29.5955 8.59135 29.1779 9.63472 28.174C10.5354 27.3073 10.7672 26.9769 12.649 23.8743C13.882 21.8414 15.204 20.5335 16.8886 19.6795C17.353 19.4441 17.7476 19.2499 17.7654 19.2481C17.783 19.2463 17.4627 19.5455 17.0536 19.9131ZM25.6658 10.6398C25.2592 9.82153 24.7821 9.50237 23.3852 9.1138C22.3477 8.82523 21.2031 8.79799 20.2663 9.03941C19.9257 9.1272 18.6591 9.58 17.4516 10.0455C14.2329 11.2864 13.5051 11.4988 12.4914 11.4936C11.8779 11.4904 11.4908 11.4254 11.1023 11.2605L10.5639 11.0318L10.7928 11.3812C11.1034 11.8552 11.8394 12.2176 12.4871 12.2154C13.071 12.2136 14.4623 11.7727 17.5403 10.6142C19.9353 9.71287 20.837 9.52659 21.8974 9.71428C23.4088 9.98165 25.241 10.6967 25.7404 11.2142C26.0928 11.5793 26.0786 11.4702 25.6658 10.6398ZM27.0951 7.01169C27.9487 7.54146 29.1477 8.61689 29.8203 9.45599C30.1079 9.81472 30.6252 10.6435 30.97 11.2979L31.5968 12.4875L32.414 12.8687C33.1577 13.2157 33.2624 13.306 33.5796 13.8736C34.0543 14.723 35.158 15.6977 35.9933 16.0051C36.7718 16.2915 38.058 16.3416 38.8789 16.1174L39.4207 15.9694L39.9235 16.4432C40.704 17.1788 41.295 18.4792 40.786 18.3408C40.6777 18.3114 40.2596 18.2545 39.8571 18.2145C39.3052 18.1596 39.1558 18.1725 39.2496 18.2666C39.3179 18.3353 41.2143 19.593 43.4637 21.0615L47.5537 23.7316L48.2934 24.9451C48.9703 26.0552 49.3071 26.456 49.1591 25.975C49.127 25.8709 49.0702 25.4209 49.0328 24.9749L48.9647 24.1641L49.4241 24.6506C50.4118 25.6966 50.7784 26.6698 50.7784 28.2461C50.7784 29.2817 50.7567 29.3244 49.9287 29.9152L49.5962 30.1525L49.9609 30.1585C50.1615 30.1618 50.5824 30.0709 50.8961 29.9564L51.4666 29.7483L51.4321 30.1449C51.3873 30.6609 51.0228 30.8347 49.8489 30.9004C48.8259 30.9576 47.9925 30.8245 46.4437 30.3564C45.3389 30.0227 41.7712 28.3965 41.7712 28.2266C41.7712 28.1792 42.2294 28.1152 42.7894 28.0846C43.3494 28.0539 43.8319 28.0054 43.8616 27.9769C43.8913 27.9484 43.8847 27.8475 43.8468 27.7527C43.7066 27.4019 42.9045 27.2582 40.5327 27.159C38.364 27.0682 38.1892 27.0452 37.6404 26.777C37.0009 26.4647 36.6095 26.041 36.2731 25.2971L36.0541 24.8128L35.929 25.1171C35.4672 26.2402 36.1665 28.0657 37.3884 28.927C37.6935 29.1421 37.9424 29.3504 37.9417 29.3899C37.9386 29.5528 36.2472 30.658 35.4098 31.0443C34.1229 31.6378 32.9678 31.8944 31.5817 31.8944C29.3955 31.8944 27.8697 31.316 26.4588 29.9524C25.5428 29.0671 24.9387 28.0614 24.6055 26.867C24.3493 25.9492 24.2615 24.0286 24.425 22.9207L24.4455 22.7816C24.6216 21.5894 24.6718 21.2491 24.6171 21.2328C24.5953 21.2262 24.5567 21.2714 24.5027 21.3346C24.4976 21.3406 24.4923 21.3467 24.4869 21.353C24.1696 21.7228 23.6769 22.7305 23.4013 23.5732C23.063 24.6079 23.0334 26.5827 23.3396 27.6778C23.5703 28.5025 24.2714 29.9552 24.784 30.6707C25.7317 31.9933 27.4301 33.4198 29.0652 34.2665L29.9264 34.7125L30.1736 35.601C30.6519 37.3204 31.5161 38.806 33.0639 40.5699L33.8933 41.5149L33.3032 41.2916C29.8455 39.9828 26.2447 37.2711 23.9437 34.2432C23.6375 33.8403 23.3694 33.5276 23.3478 33.5484C23.3262 33.569 23.4639 34.0689 23.6538 34.6593C24.3117 36.7049 25.8042 39.3198 27.3443 41.1252C27.6933 41.5343 28.0694 41.9812 28.1801 42.1187L28.3815 42.3683L27.392 42.1139C21.9192 40.7069 18.2618 36.7659 17.1554 31.0835C16.8432 29.48 16.871 26.5181 17.2129 24.9749C18.2009 20.5142 20.4035 17.2257 23.9255 14.9528C25.4458 13.9718 27.1181 13.3248 29.1506 12.9312L30.4255 12.6843L29.8182 12.3552C28.6993 11.7488 28.2103 11.0384 26.8488 8.04106C26.5105 7.29603 26.2336 6.66593 26.2336 6.64074C26.2336 6.52332 26.4771 6.62809 27.0951 7.01169ZM29.6626 17.7963C29.3324 17.9094 30.1252 17.1343 30.5562 16.9227C30.7891 16.8083 31.1169 16.763 31.5363 16.7872C32.0772 16.8184 32.2684 16.8946 32.8874 17.3257L34.6216 18.5341C35.179 18.9226 35.7208 19.2414 35.8256 19.2426C36.1228 19.2459 36.3666 18.8121 36.3693 18.2746L36.3718 17.7852L36.602 18.0555C37.1797 18.734 37.4491 19.7812 37.1268 20.0956C37.0139 20.2058 37.0527 20.2874 37.3238 20.5092C38.5491 21.5116 39.4003 22.272 39.2972 22.272C39.2308 22.272 38.3037 21.8802 37.2368 21.4015L35.2972 20.5308L34.4528 20.6139C32.917 20.7652 32.2971 20.6008 31.7702 19.9023C31.5875 19.6602 31.3482 19.1335 31.2383 18.7317C30.9334 17.6175 30.9074 17.586 30.3549 17.6588C30.0952 17.693 29.7836 17.7548 29.6626 17.7963ZM42.268 24.4012C41.8935 23.9832 41.8204 23.6244 42.0428 23.2984C42.3648 22.8264 43.1698 22.9817 43.8184 23.6409C44.1853 24.0138 44.9237 25.1757 44.9237 25.3804C44.9237 25.4666 44.6481 25.3246 44.2614 25.0388C43.2998 24.3282 43.0665 24.2433 42.7742 24.4973C42.5407 24.7002 42.5349 24.6991 42.268 24.4012ZM34.115 19.2275C33.8363 18.9837 33.2584 18.5472 32.8307 18.2576C32.4029 17.968 32.0093 17.7311 31.9559 17.7311C31.8624 17.7311 31.8852 17.8893 32.0966 18.7047C32.1506 18.9132 32.3402 19.2509 32.5179 19.4553C32.8148 19.7969 32.8995 19.8301 33.5624 19.8648C33.9631 19.8859 34.359 19.8512 34.4528 19.7869C34.5941 19.6898 34.539 19.5986 34.115 19.2275ZM41.4163 29.4078C42.3392 29.9532 44.9218 31.0994 45.9933 31.4393C47.0134 31.7628 47.9408 31.9347 49.3429 32.0599C50.005 32.1191 50.1029 32.1557 50.1029 32.3447C50.1029 32.5509 50.0599 32.5572 49.2303 32.4712C47.6261 32.3052 44.0884 32.3656 42.6422 32.5835C41.6113 32.739 41.2818 32.7548 41.1562 32.6547C40.9723 32.5081 40.5833 31.5934 40.6697 31.5105C40.7011 31.4804 41.2023 31.4191 41.7838 31.3742L42.8408 31.2926L41.94 31.1028C41.4446 30.9982 40.9186 30.8878 40.771 30.8573C40.5184 30.8051 40.5068 30.769 40.573 30.24C40.6117 29.9309 40.6438 29.5442 40.6442 29.3807C40.6455 29.0048 40.7396 29.0081 41.4163 29.4078ZM39.8277 32.8237C39.852 32.8003 39.8103 32.5695 39.735 32.3108C39.6596 32.052 39.5676 31.2322 39.5305 30.4889L39.463 29.1374L39.1571 29.6274C38.4289 30.7937 38.4849 31.7988 39.3161 32.482C39.5732 32.6933 39.8033 32.847 39.8277 32.8237ZM48.6703 33.6783C48.9546 33.7912 48.7588 33.9796 48.0446 34.2806C46.9367 34.7474 44.8741 34.5804 44.0271 33.9554L43.7499 33.7508L44.1397 33.689C44.3542 33.6551 44.6816 33.6064 44.8674 33.581C45.3841 33.5102 48.4437 33.5885 48.6703 33.6783ZM38.968 12.2846C38.8942 12.1993 38.4605 11.8816 38.0041 11.5786C37.5478 11.2757 37.0968 11.0279 37.0019 11.0279C36.819 11.0279 34.6779 13.4755 34.6779 13.6847C34.6779 13.7524 34.8565 14.0325 35.0748 14.3069C35.5177 14.864 36.2572 15.3276 36.9366 15.4742C37.7803 15.6563 37.8344 15.6032 38.4992 13.9441C38.9796 12.7452 39.0748 12.4082 38.968 12.2846ZM39.9794 8.43904C40.2741 8.62068 40.5654 8.8275 40.6267 8.89854C40.7029 8.98708 40.6124 9.34235 40.3389 10.0278C40.0285 10.8057 39.8921 11.0279 39.7252 11.0279C39.4015 11.0279 38.6943 10.6494 38.2266 10.2259C38.1916 10.1942 38.159 10.1656 38.129 10.1392C38.0057 10.0309 37.9266 9.96131 37.9076 9.87896C37.8735 9.73127 38.0329 9.54242 38.4781 9.01489C38.5384 8.94346 38.6039 8.86582 38.6749 8.78123C38.9845 8.41234 39.2841 8.11015 39.3405 8.10961C39.3971 8.10918 39.6845 8.25741 39.9794 8.43904ZM41.5901 6.62214C41.8927 5.86392 42.2338 5.0125 42.3482 4.7301C42.4625 4.4477 42.541 4.21655 42.5228 4.21655C42.45 4.21655 39.9697 7.24651 39.9697 7.33539C39.9697 7.44545 40.7737 8.00063 40.9331 8.00063C40.9919 8.00063 41.2876 7.38036 41.5901 6.62214Z" fill="white"/>
</svg>
