<svg width="193" height="42" viewBox="0 0 193 42" fill="none" xmlns="http://www.w3.org/2000/svg">
<path fill-rule="evenodd" clip-rule="evenodd" d="M22.4291 22.4856C21.5957 22.4856 20.8969 21.9111 20.7093 21.1359C20.6777 21.0035 20.6603 20.8642 20.6603 20.7218C20.6603 20.0696 21.0155 19.4999 21.5434 19.194C21.8043 19.0441 22.1063 18.9575 22.4291 18.9575C23.4068 18.9575 24.1985 19.7475 24.1985 20.7218C24.1985 21.6962 23.4068 22.4856 22.4291 22.4856ZM21.6954 0C33.6771 0 43.3909 9.68658 43.3909 21.6353C43.3909 30.9944 37.4309 38.9641 29.0903 41.9796C28.9693 42.0237 28.841 41.9952 28.7492 41.9046C28.6575 41.8142 28.628 41.6866 28.6715 41.5648C30.8991 35.2839 31.2896 29.8818 30.8867 23.4271C30.8784 23.296 30.944 23.1794 31.0606 23.1182L34.3921 21.3744C34.5168 21.3096 34.5839 21.1791 34.5638 21.0403C34.5444 20.9013 34.4442 20.7951 34.3062 20.7672L30.3364 19.954C30.2197 19.9303 30.1317 19.8527 30.0932 19.7409C29.8127 18.925 28.4515 15.4504 25.0278 13.4555C23.7538 12.7133 22.1934 12.1756 20.2969 12.0569C18.2661 11.9296 16.2267 12.3518 14.1899 13.2037C9.56037 15.1401 4.98241 19.0308 0.662953 23.8537C0.57457 23.9529 0.443482 23.9877 0.31711 23.9466C0.19113 23.9049 0.106591 23.7994 0.0944954 23.6672C0.0317023 22.9985 0 22.3205 0 21.6353C0 9.68658 9.71338 0 21.6954 0Z" fill="white"/>
<path d="M63.0701 25.0475V21.4863C63.0701 21.2705 63.0001 21.1118 62.8601 21.0102C62.7328 20.9087 62.5736 20.8261 62.3827 20.7627H60.2439C60.1293 20.6992 60.0466 20.604 59.9957 20.477V17.5633C59.9957 17.284 60.0338 17.0619 60.1102 16.8968C60.1866 16.7191 60.2566 16.5985 60.3203 16.535L63.4711 12.8596C63.573 12.7199 63.713 12.6056 63.8913 12.5168C64.0695 12.4279 64.2605 12.3835 64.4642 12.3835H66.5647C66.6411 12.3835 66.7684 12.4279 66.9466 12.5168C67.1249 12.6056 67.214 12.7072 67.214 12.8215V15.3543C67.214 15.4051 67.1885 15.4558 67.1376 15.5066C67.0867 15.5574 67.023 15.6082 66.9466 15.659C66.883 15.6971 66.813 15.7288 66.7366 15.7542C66.6602 15.7796 66.6029 15.7923 66.5647 15.7923H66.3929C66.2401 15.805 66.0937 15.8621 65.9537 15.9637C65.8263 16.0525 65.7118 16.1605 65.6099 16.2874C65.5081 16.4144 65.419 16.554 65.3426 16.7064C65.2662 16.846 65.2025 16.9793 65.1516 17.1063L65.3617 17.2206V17.2777C65.5144 17.3285 65.6927 17.4046 65.8964 17.5062C66.1128 17.6078 66.3101 17.722 66.4883 17.849C66.6793 17.976 66.8384 18.1156 66.9657 18.268C67.0931 18.4076 67.1567 18.5536 67.1567 18.706V25.0094C67.1567 25.111 67.0803 25.2316 66.9276 25.3712C66.7875 25.4982 66.6666 25.5617 66.5647 25.5617H63.6621C63.4839 25.5617 63.3375 25.5109 63.2229 25.4093C63.1211 25.2951 63.0701 25.1744 63.0701 25.0475ZM55.2025 25.0475V12.9167C55.2025 12.777 55.2789 12.6564 55.4317 12.5549C55.5844 12.4406 55.7054 12.3835 55.7945 12.3835H58.678C58.7799 12.3835 58.9072 12.4533 59.0599 12.5929C59.2127 12.7199 59.2891 12.8342 59.2891 12.9357V25.0094C59.2891 25.111 59.2127 25.2316 59.0599 25.3712C58.9072 25.4982 58.7799 25.5617 58.678 25.5617H55.7945C55.6163 25.5617 55.4699 25.5109 55.3553 25.4093C55.2534 25.2951 55.2025 25.1744 55.2025 25.0475Z" fill="white"/>
<path d="M69.408 21.353H72.9217C72.9217 21.5054 72.9662 21.6831 73.0553 21.8862C73.1444 22.0767 73.3036 22.1719 73.5327 22.1719H75.4232C75.6397 22.1719 75.7861 22.0894 75.8625 21.9243C75.9389 21.7593 75.9961 21.6006 76.0343 21.4482V21.3721C76.0216 21.2451 75.9834 21.1182 75.9197 20.9912C75.8561 20.8515 75.7542 20.75 75.6142 20.6865H70.8975C70.6683 20.6865 70.4264 20.6357 70.1718 20.5341C69.9299 20.4199 69.7071 20.2802 69.5034 20.1152C69.2998 19.9501 69.1342 19.7661 69.0069 19.5629C68.8796 19.3598 68.816 19.1567 68.816 18.9535V14.1164C68.816 13.9133 68.8796 13.7102 69.0069 13.507C69.1342 13.3039 69.2998 13.1198 69.5034 12.9548C69.7071 12.7897 69.9299 12.6564 70.1718 12.5549C70.4264 12.4406 70.6683 12.3835 70.8975 12.3835H78.0585C78.2877 12.3835 78.5232 12.4406 78.7651 12.5549C79.0197 12.6564 79.2488 12.7897 79.4525 12.9548C79.6562 13.1198 79.8217 13.3039 79.949 13.507C80.0763 13.7102 80.14 13.9133 80.14 14.1164V16.0398C80.14 16.0906 80.1145 16.1478 80.0636 16.2112C80.0254 16.2747 79.9745 16.3382 79.9108 16.4017C79.8472 16.4525 79.7835 16.4969 79.7199 16.535C79.6562 16.5731 79.5989 16.5921 79.548 16.5921H76.0343C76.0343 16.4398 75.9898 16.2684 75.9007 16.0779C75.8115 15.8748 75.6524 15.7732 75.4232 15.7732H73.5327C73.3163 15.7732 73.1635 15.8558 73.0744 16.0208C72.9853 16.1858 72.9344 16.3445 72.9217 16.4969C72.9217 16.6492 72.9598 16.8143 73.0362 16.992C73.1126 17.1698 73.259 17.2713 73.4754 17.2967H78.0585C78.2877 17.2967 78.5232 17.3539 78.7651 17.4681C79.0197 17.5697 79.2488 17.703 79.4525 17.868C79.6562 18.0331 79.8217 18.2172 79.949 18.4203C80.0763 18.6234 80.14 18.8266 80.14 19.0297V23.8287C80.14 24.0318 80.0763 24.235 79.949 24.4381C79.8217 24.6412 79.6562 24.8253 79.4525 24.9904C79.2488 25.1554 79.0197 25.2951 78.7651 25.4093C78.5232 25.5109 78.2877 25.5617 78.0585 25.5617H70.8975C70.6683 25.5617 70.4264 25.5109 70.1718 25.4093C69.9299 25.2951 69.7071 25.1554 69.5034 24.9904C69.2998 24.8253 69.1342 24.6412 69.0069 24.4381C68.8796 24.235 68.816 24.0318 68.816 23.8287V21.9053C68.816 21.8037 68.886 21.6895 69.026 21.5625C69.1788 21.4228 69.3061 21.353 69.408 21.353Z" fill="white"/>
<path d="M99.7089 12.3835C99.849 12.3835 99.9826 12.4279 100.11 12.5168C100.25 12.6056 100.32 12.7263 100.32 12.8786V25.0284C100.32 25.1681 100.244 25.2951 100.091 25.4093C99.9508 25.5109 99.8299 25.5617 99.728 25.5617H96.8254C96.7236 25.5617 96.5962 25.4982 96.4435 25.3712C96.2907 25.2316 96.2143 25.111 96.2143 25.0094V16.116C96.2143 16.0398 96.1952 15.9637 96.157 15.8875C96.1188 15.8113 96.0552 15.7732 95.9661 15.7732H95.0495C94.9858 15.7732 94.884 15.8431 94.7439 15.9827C94.6166 16.1224 94.4638 16.3255 94.2856 16.5921C94.1074 16.8587 93.9164 17.1888 93.7127 17.5824C93.509 17.9633 93.3053 18.4013 93.1016 18.8964C93.1016 18.9218 93.0953 18.9535 93.0826 18.9916C93.0826 19.0297 93.0826 19.1122 93.0826 19.2392V25.0475C93.0698 25.1744 93.0062 25.2951 92.8916 25.4093C92.7897 25.5109 92.6497 25.5617 92.4715 25.5617H89.5689C89.5179 25.5617 89.4606 25.5426 89.397 25.5045C89.3333 25.4664 89.2697 25.422 89.206 25.3712C89.1424 25.3078 89.0851 25.2443 89.0342 25.1808C88.996 25.1173 88.9769 25.0602 88.9769 25.0094V18.9535C88.9769 18.8012 88.8814 18.5473 88.6904 18.1918C88.4995 17.8363 88.2831 17.4808 88.0412 17.1253C87.812 16.7699 87.5892 16.4588 87.3728 16.1922C87.1564 15.9129 87.0291 15.7732 86.9909 15.7732H86.0743C85.9852 15.7732 85.9215 15.8113 85.8833 15.8875C85.8451 15.9637 85.826 16.0398 85.826 16.116V25.0094C85.826 25.111 85.7496 25.2316 85.5969 25.3712C85.4441 25.4982 85.3168 25.5617 85.2149 25.5617H82.3123C82.2105 25.5617 82.0832 25.5109 81.9304 25.4093C81.7904 25.2951 81.7204 25.1681 81.7204 25.0284V12.8786C81.7204 12.7263 81.784 12.6056 81.9113 12.5168C82.0514 12.4279 82.1914 12.3835 82.3314 12.3835H88.7095C88.9005 12.3835 89.0851 12.4279 89.2633 12.5168C89.4416 12.6056 89.5816 12.7199 89.6834 12.8596L91.0202 14.5354L92.3569 12.8596C92.4587 12.7199 92.5988 12.6056 92.777 12.5168C92.9552 12.4279 93.1398 12.3835 93.3308 12.3835H99.7089Z" fill="white"/>
<path d="M108.831 21.353H112.345C112.345 21.5054 112.389 21.6831 112.478 21.8862C112.568 22.0767 112.727 22.1719 112.956 22.1719H114.846C115.063 22.1719 115.209 22.0894 115.286 21.9243C115.362 21.7593 115.419 21.6006 115.457 21.4482V21.3721C115.445 21.2451 115.406 21.1182 115.343 20.9912C115.279 20.8515 115.177 20.75 115.037 20.6865H110.321C110.091 20.6865 109.85 20.6357 109.595 20.5341C109.353 20.4199 109.13 20.2802 108.927 20.1152C108.723 19.9501 108.557 19.7661 108.43 19.5629C108.303 19.3598 108.239 19.1567 108.239 18.9535V14.1164C108.239 13.9133 108.303 13.7102 108.43 13.507C108.557 13.3039 108.723 13.1198 108.927 12.9548C109.13 12.7897 109.353 12.6564 109.595 12.5549C109.85 12.4406 110.091 12.3835 110.321 12.3835H117.482C117.711 12.3835 117.946 12.4406 118.188 12.5549C118.443 12.6564 118.672 12.7897 118.876 12.9548C119.079 13.1198 119.245 13.3039 119.372 13.507C119.499 13.7102 119.563 13.9133 119.563 14.1164V16.0398C119.563 16.0906 119.538 16.1478 119.487 16.2112C119.449 16.2747 119.398 16.3382 119.334 16.4017C119.27 16.4525 119.207 16.4969 119.143 16.535C119.079 16.5731 119.022 16.5921 118.971 16.5921H115.457C115.457 16.4398 115.413 16.2684 115.324 16.0779C115.235 15.8748 115.075 15.7732 114.846 15.7732H112.956C112.739 15.7732 112.587 15.8558 112.498 16.0208C112.408 16.1858 112.357 16.3445 112.345 16.4969C112.345 16.6492 112.383 16.8143 112.459 16.992C112.536 17.1698 112.682 17.2713 112.899 17.2967H117.482C117.711 17.2967 117.946 17.3539 118.188 17.4681C118.443 17.5697 118.672 17.703 118.876 17.868C119.079 18.0331 119.245 18.2172 119.372 18.4203C119.499 18.6234 119.563 18.8266 119.563 19.0297V23.8287C119.563 24.0318 119.499 24.235 119.372 24.4381C119.245 24.6412 119.079 24.8253 118.876 24.9904C118.672 25.1554 118.443 25.2951 118.188 25.4093C117.946 25.5109 117.711 25.5617 117.482 25.5617H110.321C110.091 25.5617 109.85 25.5109 109.595 25.4093C109.353 25.2951 109.13 25.1554 108.927 24.9904C108.723 24.8253 108.557 24.6412 108.43 24.4381C108.303 24.235 108.239 24.0318 108.239 23.8287V21.9053C108.239 21.8037 108.309 21.6895 108.449 21.5625C108.602 21.4228 108.729 21.353 108.831 21.353Z" fill="white"/>
<path d="M121.774 12.3835H130.52C130.698 12.3835 130.844 12.4469 130.959 12.5739C131.086 12.7009 131.15 12.8024 131.15 12.8786V15.2781C131.15 15.367 131.073 15.4749 130.921 15.6018C130.768 15.7161 130.621 15.7732 130.481 15.7732H128.457C128.368 15.7732 128.298 15.8113 128.247 15.8875C128.209 15.9637 128.19 16.0398 128.19 16.116V25.0094C128.19 25.111 128.114 25.2316 127.961 25.3712C127.821 25.4982 127.7 25.5617 127.598 25.5617H124.714C124.613 25.5617 124.485 25.5109 124.332 25.4093C124.192 25.2951 124.122 25.1681 124.122 25.0284V16.116C124.122 16.0525 124.097 15.9827 124.046 15.9065C123.995 15.8177 123.938 15.7732 123.874 15.7732H121.831C121.704 15.7732 121.557 15.7161 121.392 15.6018C121.239 15.4749 121.163 15.367 121.163 15.2781V12.8786C121.163 12.7263 121.226 12.6056 121.354 12.5168C121.494 12.4279 121.634 12.3835 121.774 12.3835Z" fill="white"/>
<path d="M143.06 25.0475C143.06 25.1744 143.003 25.2951 142.888 25.4093C142.787 25.5109 142.647 25.5617 142.468 25.5617H139.566C139.515 25.5617 139.457 25.5426 139.394 25.5045C139.33 25.4664 139.267 25.422 139.203 25.3712C139.139 25.3078 139.082 25.2443 139.031 25.1808C138.993 25.1173 138.974 25.0602 138.974 25.0094V23.8668H138.955C138.955 23.651 138.891 23.4732 138.764 23.3336C138.649 23.1939 138.484 23.1241 138.267 23.1241H136.778C136.638 23.086 136.555 22.9908 136.529 22.8384V19.9438C136.555 19.7661 136.638 19.6708 136.778 19.6581H138.496C138.713 19.6581 138.84 19.6074 138.878 19.5058C138.916 19.3915 138.942 19.2138 138.955 18.9726L138.076 17.1253C138 16.9857 137.904 16.8333 137.79 16.6683C137.675 16.4905 137.542 16.3319 137.389 16.1922C137.249 16.3319 137.121 16.4905 137.007 16.6683C136.892 16.8333 136.79 16.9857 136.701 17.1253L135.861 18.8964C135.848 18.9599 135.836 19.0107 135.823 19.0487C135.823 19.0868 135.823 19.1186 135.823 19.144V25.0094C135.823 25.111 135.746 25.2316 135.594 25.3712C135.441 25.4982 135.314 25.5617 135.212 25.5617H132.328C132.15 25.5617 132.004 25.5109 131.889 25.4093C131.787 25.2951 131.736 25.1744 131.736 25.0475V17.6586C131.736 17.5062 131.774 17.3475 131.851 17.1825C131.927 17.0174 131.997 16.9032 132.061 16.8397L135.04 12.8596C135.142 12.7199 135.282 12.6056 135.46 12.5168C135.638 12.4279 135.823 12.3835 136.014 12.3835H138.764C138.967 12.3835 139.158 12.4279 139.337 12.5168C139.515 12.6056 139.655 12.7199 139.757 12.8596L142.736 16.8397C142.799 16.9032 142.869 17.0174 142.946 17.1825C143.022 17.3475 143.06 17.5062 143.06 17.6586V25.0475Z" fill="white"/>
<path d="M155.984 19.2392V14.1164C155.984 13.9133 155.92 13.7102 155.793 13.507C155.665 13.3039 155.5 13.1198 155.296 12.9548C155.093 12.7897 154.863 12.6564 154.609 12.5549C154.367 12.4406 154.131 12.3835 153.902 12.3835H145.137C144.959 12.3835 144.832 12.4406 144.755 12.5549C144.692 12.6691 144.66 12.7834 144.66 12.8976V25.0284C144.66 25.1681 144.736 25.2951 144.889 25.4093C145.042 25.5109 145.163 25.5617 145.252 25.5617H148.135C148.237 25.5617 148.364 25.4982 148.517 25.3712C148.67 25.2316 148.746 25.111 148.746 25.0094V16.116C148.759 16.0652 148.791 15.9954 148.842 15.9065C148.893 15.8177 148.956 15.7732 149.033 15.7732H151.267C151.496 15.7732 151.655 15.8558 151.744 16.0208C151.834 16.1858 151.878 16.3445 151.878 16.4969C151.878 16.7127 151.808 16.8714 151.668 16.973C151.541 17.0746 151.382 17.1571 151.191 17.2206H149.701C149.587 17.284 149.504 17.3792 149.453 17.5062V20.3628C149.453 20.6421 149.491 20.8579 149.567 21.0102C149.644 21.1626 149.714 21.2705 149.778 21.334L152.871 25.0856C152.973 25.2252 153.113 25.3395 153.291 25.4284C153.469 25.5172 153.654 25.5617 153.845 25.5617H156.079C156.168 25.5617 156.296 25.5172 156.461 25.4284C156.639 25.3395 156.729 25.2379 156.729 25.1237V22.5909C156.729 22.4893 156.646 22.3941 156.48 22.3052C156.315 22.2036 156.181 22.1529 156.079 22.1529H155.85C155.697 22.1402 155.551 22.0894 155.411 22.0005C155.284 21.8989 155.163 21.7847 155.048 21.6577C154.946 21.5308 154.857 21.3975 154.781 21.2578C154.704 21.1055 154.641 20.9658 154.59 20.8388L154.532 20.7246V20.6675C154.698 20.6167 154.863 20.5405 155.029 20.4389C155.207 20.3374 155.366 20.2231 155.506 20.0961C155.646 19.9692 155.761 19.8359 155.85 19.6962C155.939 19.5439 155.984 19.3915 155.984 19.2392Z" fill="white"/>
<path d="M158.008 12.3835H166.754C166.932 12.3835 167.078 12.4469 167.193 12.5739C167.32 12.7009 167.384 12.8024 167.384 12.8786V15.2781C167.384 15.367 167.308 15.4749 167.155 15.6018C167.002 15.7161 166.856 15.7732 166.716 15.7732H164.691C164.602 15.7732 164.532 15.8113 164.481 15.8875C164.443 15.9637 164.424 16.0398 164.424 16.116V25.0094C164.424 25.111 164.348 25.2316 164.195 25.3712C164.055 25.4982 163.934 25.5617 163.832 25.5617H160.949C160.847 25.5617 160.719 25.5109 160.567 25.4093C160.427 25.2951 160.357 25.1681 160.357 25.0284V16.116C160.357 16.0525 160.331 15.9827 160.28 15.9065C160.229 15.8177 160.172 15.7732 160.108 15.7732H158.065C157.938 15.7732 157.791 15.7161 157.626 15.6018C157.473 15.4749 157.397 15.367 157.397 15.2781V12.8786C157.397 12.7263 157.46 12.6056 157.588 12.5168C157.728 12.4279 157.868 12.3835 158.008 12.3835Z" fill="white"/>
<path d="M169.607 12.3835H178.697C178.875 12.3835 179.022 12.4469 179.136 12.5739C179.264 12.7009 179.327 12.8024 179.327 12.8786V15.2781C179.327 15.367 179.251 15.4749 179.098 15.6018C178.945 15.7161 178.799 15.7732 178.659 15.7732H173.35C173.274 15.7732 173.21 15.8431 173.159 15.9827C173.121 16.1097 173.102 16.2811 173.102 16.4969V16.7825C173.102 16.9222 173.115 17.0428 173.14 17.1444C173.165 17.2332 173.229 17.2777 173.331 17.2777H178.697C178.773 17.2904 178.875 17.3539 179.003 17.4681C179.143 17.5697 179.219 17.6649 179.232 17.7538V20.1914C179.219 20.2802 179.143 20.3818 179.003 20.4961C178.875 20.5976 178.773 20.6548 178.697 20.6675H173.312C173.261 20.6675 173.21 20.7563 173.159 20.9341C173.121 21.0991 173.102 21.2832 173.102 21.4863V21.5815C173.115 21.6831 173.134 21.8101 173.159 21.9624C173.185 22.1021 173.242 22.1719 173.331 22.1719H178.659C178.799 22.1719 178.945 22.2354 179.098 22.3623C179.251 22.4766 179.327 22.5782 179.327 22.667V25.0665C179.327 25.1427 179.264 25.2443 179.136 25.3712C179.022 25.4982 178.875 25.5617 178.697 25.5617H169.607C169.467 25.5617 169.327 25.5172 169.187 25.4284C169.06 25.3395 168.996 25.2189 168.996 25.0665V12.8786C168.996 12.7263 169.06 12.6056 169.187 12.5168C169.327 12.4279 169.467 12.3835 169.607 12.3835Z" fill="white"/>
<path d="M192.255 19.2392V14.1164C192.255 13.9133 192.192 13.7102 192.064 13.507C191.937 13.3039 191.771 13.1198 191.568 12.9548C191.364 12.7897 191.135 12.6564 190.88 12.5549C190.638 12.4406 190.403 12.3835 190.174 12.3835H181.409C181.23 12.3835 181.103 12.4406 181.027 12.5549C180.963 12.6691 180.931 12.7834 180.931 12.8976V25.0284C180.931 25.1681 181.008 25.2951 181.16 25.4093C181.313 25.5109 181.434 25.5617 181.523 25.5617H184.407C184.509 25.5617 184.636 25.4982 184.789 25.3712C184.941 25.2316 185.018 25.111 185.018 25.0094V16.116C185.031 16.0652 185.062 15.9954 185.113 15.9065C185.164 15.8177 185.228 15.7732 185.304 15.7732H187.538C187.768 15.7732 187.927 15.8558 188.016 16.0208C188.105 16.1858 188.15 16.3445 188.15 16.4969C188.15 16.7127 188.08 16.8714 187.94 16.973C187.812 17.0746 187.653 17.1571 187.462 17.2206H185.973C185.858 17.284 185.775 17.3792 185.724 17.5062V20.3628C185.724 20.6421 185.763 20.8579 185.839 21.0102C185.915 21.1626 185.985 21.2705 186.049 21.334L189.143 25.0856C189.244 25.2252 189.384 25.3395 189.563 25.4284C189.741 25.5172 189.926 25.5617 190.116 25.5617H192.351C192.44 25.5617 192.567 25.5172 192.733 25.4284C192.911 25.3395 193 25.2379 193 25.1237V22.5909C193 22.4893 192.917 22.3941 192.752 22.3052C192.586 22.2036 192.453 22.1529 192.351 22.1529H192.122C191.969 22.1402 191.822 22.0894 191.682 22.0005C191.555 21.8989 191.434 21.7847 191.32 21.6577C191.218 21.5308 191.129 21.3975 191.052 21.2578C190.976 21.1055 190.912 20.9658 190.861 20.8388L190.804 20.7246V20.6675C190.969 20.6167 191.135 20.5405 191.3 20.4389C191.479 20.3374 191.638 20.2231 191.778 20.0961C191.918 19.9692 192.032 19.8359 192.122 19.6962C192.211 19.5439 192.255 19.3915 192.255 19.2392Z" fill="white"/>
</svg>
