<svg width="166" height="29" viewBox="0 0 166 29" fill="none" xmlns="http://www.w3.org/2000/svg">
<path d="M2.56032 25.9458C2.82422 26.0026 3.02167 26.0935 3.15268 26.2184C3.33422 26.3925 3.425 26.6055 3.425 26.8572C3.425 27.0484 3.36511 27.232 3.24532 27.408C3.12554 27.5821 2.96084 27.7099 2.75123 27.7913C2.54348 27.8708 2.22531 27.9105 1.79672 27.9105H0V27.8055H0.143176C0.302261 27.8055 0.416427 27.7544 0.485676 27.6522C0.528722 27.5859 0.550245 27.4449 0.550245 27.2291V24.7421C0.550245 24.5036 0.523107 24.3531 0.468831 24.2906C0.39584 24.2074 0.287288 24.1657 0.143176 24.1657H0V24.0607H1.64512C1.95206 24.0607 2.19817 24.0834 2.38346 24.1288C2.6642 24.1969 2.87849 24.3181 3.02635 24.4922C3.1742 24.6645 3.24813 24.8632 3.24813 25.0884C3.24813 25.2815 3.19011 25.4547 3.07407 25.608C2.95804 25.7594 2.78679 25.872 2.56032 25.9458ZM1.08926 25.7925C1.15851 25.8058 1.23712 25.8162 1.32508 25.8238C1.41492 25.8294 1.51317 25.8323 1.61985 25.8323C1.89311 25.8323 2.09804 25.8029 2.23467 25.7443C2.37317 25.6837 2.47891 25.5919 2.5519 25.4689C2.62489 25.3458 2.66139 25.2115 2.66139 25.0657C2.66139 24.8405 2.57062 24.6484 2.38907 24.4894C2.20753 24.3304 1.9427 24.2509 1.59459 24.2509C1.40743 24.2509 1.23899 24.2717 1.08926 24.3134V25.7925ZM1.08926 27.6323C1.30636 27.6834 1.52066 27.7089 1.73215 27.7089C2.07091 27.7089 2.32918 27.6323 2.50698 27.479C2.68478 27.3238 2.77368 27.1326 2.77368 26.9055C2.77368 26.7559 2.73345 26.6121 2.65297 26.4739C2.57249 26.3357 2.44148 26.2269 2.25994 26.1474C2.07839 26.0679 1.8538 26.0282 1.58617 26.0282C1.47013 26.0282 1.37093 26.0301 1.28858 26.0339C1.20623 26.0376 1.13979 26.0443 1.08926 26.0537V27.6323Z" fill="white"/>
<path d="M6.36993 26.6216H4.89606L4.63778 27.2291C4.57415 27.3786 4.54233 27.4903 4.54233 27.5641C4.54233 27.6228 4.56947 27.6749 4.62374 27.7203C4.67989 27.7638 4.79967 27.7922 4.98309 27.8055V27.9105H3.78434V27.8055C3.94342 27.7771 4.04636 27.7402 4.09315 27.6947C4.1886 27.6039 4.29435 27.4193 4.41038 27.1411L5.7495 23.9727H5.84776L7.17284 27.1752C7.27952 27.4326 7.37591 27.6001 7.462 27.6777C7.54996 27.7534 7.67162 27.796 7.82696 27.8055V27.9105H6.32501V27.8055C6.47661 27.7979 6.57861 27.7723 6.63102 27.7288C6.68529 27.6853 6.71243 27.6323 6.71243 27.5698C6.71243 27.4865 6.675 27.355 6.60014 27.1752L6.36993 26.6216ZM6.29132 26.4115L5.64563 24.8556L4.98309 26.4115H6.29132Z" fill="white"/>
<path d="M11.3558 23.9727L11.4429 25.2815H11.3558C11.2398 24.8897 11.0742 24.6077 10.8589 24.4354C10.6437 24.2632 10.3854 24.1771 10.0841 24.1771C9.83142 24.1771 9.60309 24.2424 9.39909 24.373C9.19508 24.5017 9.03413 24.708 8.91622 24.9919C8.80018 25.2758 8.74216 25.6288 8.74216 26.0509C8.74216 26.3992 8.79737 26.701 8.9078 26.9566C9.01822 27.2121 9.18386 27.408 9.4047 27.5443C9.62742 27.6805 9.88102 27.7487 10.1655 27.7487C10.4125 27.7487 10.6306 27.6957 10.8196 27.5897C11.0086 27.4818 11.2164 27.2689 11.4429 26.9509L11.5299 27.0077C11.339 27.3503 11.1163 27.601 10.8617 27.76C10.6072 27.919 10.3049 27.9985 9.95495 27.9985C9.32422 27.9985 8.83574 27.7619 8.4895 27.2887C8.23122 26.9367 8.10208 26.5222 8.10208 26.0452C8.10208 25.661 8.18724 25.308 8.35755 24.9862C8.52787 24.6645 8.76181 24.4156 9.05939 24.2395C9.35885 24.0616 9.68544 23.9727 10.0392 23.9727C10.3143 23.9727 10.5857 24.0408 10.8533 24.1771C10.9319 24.2187 10.9881 24.2395 11.0217 24.2395C11.0723 24.2395 11.1163 24.2216 11.1537 24.1856C11.2024 24.1345 11.237 24.0635 11.2576 23.9727H11.3558Z" fill="white"/>
<path d="M13.4473 25.7755L14.851 27.1865C15.0812 27.4193 15.2777 27.5783 15.4406 27.6635C15.6034 27.7468 15.7662 27.7941 15.929 27.8055V27.9105H14.1183V27.8055C14.2268 27.8055 14.3045 27.7875 14.3513 27.7515C14.4 27.7137 14.4243 27.672 14.4243 27.6266C14.4243 27.5812 14.4149 27.5405 14.3962 27.5045C14.3794 27.4686 14.3213 27.4014 14.2222 27.3029L12.9083 25.9884V27.2291C12.9083 27.4241 12.9205 27.5528 12.9448 27.6152C12.9635 27.6626 13.0028 27.7033 13.0627 27.7373C13.1432 27.7828 13.2283 27.8055 13.3182 27.8055H13.4473V27.9105H11.8247V27.8055H11.9594C12.1166 27.8055 12.2308 27.7591 12.3019 27.6663C12.3468 27.6058 12.3693 27.46 12.3693 27.2291V24.7421C12.3693 24.5471 12.3571 24.4175 12.3328 24.3531C12.3141 24.3077 12.2757 24.2679 12.2177 24.2339C12.1353 24.1884 12.0492 24.1657 11.9594 24.1657H11.8247V24.0607H13.4473V24.1657H13.3182C13.2302 24.1657 13.1451 24.1875 13.0627 24.231C13.0047 24.2613 12.9645 24.3067 12.942 24.3673C12.9195 24.4279 12.9083 24.5528 12.9083 24.7421V25.9203C12.9457 25.8843 13.0739 25.7641 13.2929 25.5597C13.8488 25.0449 14.1847 24.7014 14.3008 24.5291C14.3513 24.4534 14.3766 24.3872 14.3766 24.3304C14.3766 24.2869 14.3569 24.249 14.3176 24.2168C14.2783 24.1828 14.2119 24.1657 14.1183 24.1657H14.0313V24.0607H15.4293V24.1657C15.347 24.1676 15.2721 24.179 15.2047 24.1998C15.1374 24.2206 15.055 24.2613 14.9577 24.3219C14.8604 24.3805 14.7406 24.4761 14.5983 24.6086C14.5572 24.6465 14.3672 24.8405 14.0284 25.1906L13.4473 25.7755Z" fill="white"/>
<path d="M17.6584 27.8055V27.9105H16.0273V27.8055H16.1621C16.3193 27.8055 16.4334 27.7591 16.5045 27.6663C16.5495 27.6058 16.5719 27.46 16.5719 27.2291V24.7421C16.5719 24.5471 16.5598 24.4184 16.5354 24.3559C16.5167 24.3086 16.4783 24.2679 16.4203 24.2339C16.338 24.1884 16.2519 24.1657 16.1621 24.1657H16.0273V24.0607H17.6584V24.1657H17.5208C17.3655 24.1657 17.2522 24.2121 17.1811 24.3048C17.1343 24.3654 17.1109 24.5111 17.1109 24.7421V27.2291C17.1109 27.4241 17.1231 27.5528 17.1474 27.6152C17.1662 27.6626 17.2055 27.7033 17.2653 27.7373C17.3458 27.7828 17.431 27.8055 17.5208 27.8055H17.6584Z" fill="white"/>
<path d="M17.7229 24.0607H18.7561L21.0834 26.9481V24.7279C21.0834 24.4913 21.0572 24.3436 21.0048 24.285C20.9355 24.2055 20.826 24.1657 20.6763 24.1657H20.5444V24.0607H21.8694V24.1657H21.7347C21.5737 24.1657 21.4596 24.2149 21.3922 24.3134C21.351 24.3739 21.3304 24.5121 21.3304 24.7279V27.973H21.2294L18.7196 24.8727V27.2433C18.7196 27.4799 18.7448 27.6275 18.7954 27.6862C18.8665 27.7657 18.976 27.8055 19.1238 27.8055H19.2586V27.9105H17.9335V27.8055H18.0654C18.2283 27.8055 18.3434 27.7563 18.4108 27.6578C18.4519 27.5973 18.4725 27.4591 18.4725 27.2433V24.566C18.3621 24.4354 18.2779 24.3493 18.2199 24.3077C18.1637 24.266 18.0804 24.2272 17.97 24.1913C17.9157 24.1742 17.8334 24.1657 17.7229 24.1657V24.0607Z" fill="white"/>
<path d="M25.4825 23.9727L25.5808 25.1878H25.4825C25.3833 24.885 25.2551 24.6569 25.0979 24.5036C24.8715 24.2821 24.5804 24.1714 24.2248 24.1714C23.7401 24.1714 23.3714 24.3654 23.1187 24.7534C22.9072 25.0809 22.8015 25.4708 22.8015 25.9231C22.8015 26.2903 22.8717 26.6253 23.012 26.9282C23.1524 27.231 23.3358 27.4534 23.5623 27.5954C23.7906 27.7354 24.0246 27.8055 24.2641 27.8055C24.4045 27.8055 24.5402 27.7875 24.6712 27.7515C24.8022 27.7156 24.9285 27.6626 25.0502 27.5925V26.4796C25.0502 26.2865 25.0352 26.1607 25.0053 26.102C24.9772 26.0414 24.9323 25.996 24.8705 25.9657C24.8106 25.9335 24.704 25.9175 24.5505 25.9175V25.8096H26.0244V25.9175H25.9542C25.8082 25.9175 25.7081 25.9667 25.6538 26.0651C25.6163 26.1351 25.5976 26.2733 25.5976 26.4796V27.6578C25.3824 27.7752 25.17 27.8613 24.9604 27.9162C24.7507 27.9711 24.5177 27.9985 24.2613 27.9985C23.5258 27.9985 22.9671 27.76 22.5853 27.2831C22.299 26.9253 22.1558 26.5127 22.1558 26.0452C22.1558 25.7064 22.2363 25.3818 22.3972 25.0714C22.5881 24.7023 22.8501 24.4184 23.1833 24.2197C23.4622 24.055 23.7916 23.9727 24.1715 23.9727C24.31 23.9727 24.4354 23.984 24.5477 24.0067C24.6618 24.0294 24.8228 24.0796 25.0305 24.1572C25.1354 24.1969 25.2055 24.2168 25.2411 24.2168C25.2767 24.2168 25.3066 24.2007 25.3309 24.1686C25.3571 24.1345 25.373 24.0692 25.3787 23.9727H25.4825Z" fill="white"/>
<path d="M30.766 24.0607L30.8081 24.9635H30.7014C30.6808 24.8045 30.6528 24.691 30.6172 24.6228C30.5592 24.513 30.4815 24.4326 30.3842 24.3815C30.2888 24.3285 30.1624 24.302 30.0052 24.302H29.469V27.2433C29.469 27.4799 29.4943 27.6275 29.5448 27.6862C29.6159 27.7657 29.7254 27.8055 29.8733 27.8055H30.0052V27.9105H28.391V27.8055H28.5257C28.6867 27.8055 28.8008 27.7563 28.8682 27.6578C28.9094 27.5973 28.93 27.4591 28.93 27.2433V24.302H28.4724C28.2946 24.302 28.1683 24.3152 28.0934 24.3417C27.9961 24.3777 27.9128 24.4468 27.8435 24.549C27.7743 24.6512 27.7331 24.7894 27.72 24.9635H27.6133L27.6582 24.0607H30.766Z" fill="white"/>
<path d="M32.136 25.8465H33.9047V24.7449C33.9047 24.5481 33.8925 24.4184 33.8682 24.3559C33.8494 24.3086 33.8101 24.2679 33.7502 24.2339C33.6698 24.1884 33.5846 24.1657 33.4948 24.1657H33.36V24.0607H34.9883V24.1657H34.8535C34.7637 24.1657 34.6786 24.1875 34.5981 24.231C34.5382 24.2613 34.497 24.3077 34.4745 24.3701C34.454 24.4307 34.4437 24.5556 34.4437 24.7449V27.2291C34.4437 27.4241 34.4558 27.5528 34.4802 27.6152C34.4989 27.6626 34.5372 27.7033 34.5953 27.7373C34.6776 27.7828 34.7637 27.8055 34.8535 27.8055H34.9883V27.9105H33.36V27.8055H33.4948C33.6501 27.8055 33.7633 27.7591 33.8345 27.6663C33.8813 27.6058 33.9047 27.46 33.9047 27.2291V26.0566H32.136V27.2291C32.136 27.4241 32.1482 27.5528 32.1725 27.6152C32.1912 27.6626 32.2305 27.7033 32.2904 27.7373C32.3709 27.7828 32.456 27.8055 32.5459 27.8055H32.6834V27.9105H31.0524V27.8055H31.1871C31.3443 27.8055 31.4585 27.7591 31.5296 27.6663C31.5745 27.6058 31.597 27.46 31.597 27.2291V24.7449C31.597 24.5481 31.5848 24.4184 31.5605 24.3559C31.5418 24.3086 31.5034 24.2679 31.4454 24.2339C31.363 24.1884 31.2769 24.1657 31.1871 24.1657H31.0524V24.0607H32.6834V24.1657H32.5459C32.456 24.1657 32.3709 24.1875 32.2904 24.231C32.2324 24.2613 32.1922 24.3077 32.1697 24.3701C32.1472 24.4307 32.136 24.5556 32.136 24.7449V25.8465Z" fill="white"/>
<path d="M36.3106 24.2708V25.7925H37.1472C37.3643 25.7925 37.5093 25.7594 37.5823 25.6932C37.6796 25.6061 37.7339 25.4528 37.7451 25.2332H37.849V26.5733H37.7451C37.7189 26.3859 37.6927 26.2657 37.6665 26.2127C37.6328 26.1465 37.5776 26.0944 37.5009 26.0566C37.4242 26.0187 37.3063 25.9998 37.1472 25.9998H36.3106V27.2689C36.3106 27.4392 36.3181 27.5433 36.333 27.5812C36.348 27.6171 36.3742 27.6465 36.4116 27.6692C36.4491 27.69 36.5202 27.7004 36.625 27.7004H37.2707C37.4859 27.7004 37.6422 27.6853 37.7395 27.655C37.8368 27.6247 37.9304 27.5651 38.0203 27.4761C38.1363 27.3588 38.2551 27.1818 38.3768 26.9452H38.4891L38.1606 27.9105H35.2269V27.8055H35.3617C35.4515 27.8055 35.5367 27.7837 35.6171 27.7402C35.677 27.7099 35.7173 27.6645 35.7379 27.6039C35.7603 27.5433 35.7716 27.4193 35.7716 27.232V24.7307C35.7716 24.4865 35.7472 24.3361 35.6986 24.2793C35.6312 24.2036 35.5189 24.1657 35.3617 24.1657H35.2269V24.0607H38.1606L38.2027 24.9039H38.0933C38.0539 24.7014 38.01 24.5622 37.9613 24.4865C37.9145 24.4108 37.8443 24.3531 37.7508 24.3134C37.6759 24.285 37.5439 24.2708 37.3549 24.2708H36.3106Z" fill="white"/>
<path d="M42.4138 27.9105L40.9427 24.6711V27.2433C40.9427 27.4799 40.968 27.6275 41.0185 27.6862C41.0878 27.7657 41.1973 27.8055 41.347 27.8055H41.4818V27.9105H40.1567V27.8055H40.2914C40.4524 27.8055 40.5665 27.7563 40.6339 27.6578C40.6751 27.5973 40.6957 27.4591 40.6957 27.2433V24.7279C40.6957 24.5575 40.677 24.4345 40.6395 24.3588C40.6133 24.3039 40.5647 24.2585 40.4936 24.2225C40.4243 24.1846 40.312 24.1657 40.1567 24.1657V24.0607H41.2347L42.6159 27.073L43.9747 24.0607H45.0527V24.1657H44.9208C44.758 24.1657 44.6429 24.2149 44.5755 24.3134C44.5343 24.3739 44.5137 24.5121 44.5137 24.7279V27.2433C44.5137 27.4799 44.5399 27.6275 44.5923 27.6862C44.6616 27.7657 44.7711 27.8055 44.9208 27.8055H45.0527V27.9105H43.4357V27.8055H43.5704C43.7333 27.8055 43.8474 27.7563 43.9129 27.6578C43.9541 27.5973 43.9747 27.4591 43.9747 27.2433V24.6711L42.5064 27.9105H42.4138Z" fill="white"/>
<path d="M47.279 23.9727C47.7731 23.9727 48.2007 24.1629 48.5619 24.5433C48.925 24.9219 49.1066 25.3951 49.1066 25.9629C49.1066 26.5477 48.9241 27.0332 48.5591 27.4193C48.1942 27.8055 47.7525 27.9985 47.2341 27.9985C46.71 27.9985 46.2693 27.8102 45.9118 27.4335C45.5562 27.0569 45.3784 26.5695 45.3784 25.9714C45.3784 25.36 45.5843 24.8613 45.996 24.4752C46.3535 24.1402 46.7811 23.9727 47.279 23.9727ZM47.2256 24.1799C46.885 24.1799 46.6118 24.3077 46.4059 24.5632C46.1495 24.8812 46.0213 25.3468 46.0213 25.96C46.0213 26.5884 46.1542 27.072 46.4199 27.4108C46.6239 27.6682 46.8934 27.7969 47.2284 27.7969C47.5859 27.7969 47.8807 27.6559 48.1128 27.3739C48.3467 27.0919 48.4637 26.6471 48.4637 26.0395C48.4637 25.3809 48.3355 24.8897 48.0791 24.566C47.8732 24.3086 47.5887 24.1799 47.2256 24.1799Z" fill="white"/>
<path d="M51.9673 23.9727V25.3042H51.8634C51.8297 25.0487 51.7689 24.8452 51.6809 24.6938C51.5948 24.5424 51.4713 24.4222 51.3104 24.3332C51.1494 24.2443 50.9828 24.1998 50.8107 24.1998C50.616 24.1998 50.4551 24.2604 50.3278 24.3815C50.2005 24.5007 50.1369 24.637 50.1369 24.7903C50.1369 24.9077 50.1771 25.0146 50.2576 25.1111C50.3736 25.2531 50.6497 25.4424 51.0858 25.679C51.4414 25.872 51.6837 26.0206 51.8129 26.1247C51.9439 26.2269 52.044 26.3481 52.1133 26.4881C52.1844 26.6282 52.22 26.7749 52.22 26.9282C52.22 27.2197 52.1077 27.4714 51.8831 27.6834C51.6604 27.8935 51.3731 27.9985 51.0212 27.9985C50.9108 27.9985 50.8069 27.99 50.7096 27.973C50.6516 27.9635 50.5309 27.9294 50.3474 27.8708C50.1659 27.8102 50.0508 27.7799 50.0021 27.7799C49.9553 27.7799 49.9179 27.7941 49.8898 27.8225C49.8636 27.8509 49.844 27.9096 49.8309 27.9985H49.727V26.6783H49.8309C49.8795 26.9547 49.945 27.1619 50.0274 27.3001C50.1097 27.4364 50.2351 27.5499 50.4036 27.6408C50.5739 27.7316 50.7601 27.7771 50.9623 27.7771C51.1962 27.7771 51.3806 27.7146 51.5153 27.5897C51.6519 27.4648 51.7202 27.3171 51.7202 27.1468C51.7202 27.0522 51.694 26.9566 51.6416 26.86C51.5911 26.7635 51.5116 26.6736 51.403 26.5903C51.33 26.5335 51.1307 26.4133 50.805 26.2298C50.4794 26.0443 50.2473 25.8966 50.1088 25.7869C49.9722 25.6771 49.8683 25.5559 49.7972 25.4234C49.7261 25.291 49.6905 25.1452 49.6905 24.9862C49.6905 24.7099 49.7953 24.4723 50.0049 24.2736C50.2146 24.073 50.4813 23.9727 50.805 23.9727C51.0072 23.9727 51.2215 24.0228 51.4479 24.1231C51.5527 24.1704 51.6267 24.1941 51.6697 24.1941C51.7184 24.1941 51.7577 24.1799 51.7876 24.1515C51.8194 24.1212 51.8447 24.0616 51.8634 23.9727H51.9673Z" fill="white"/>
<path d="M55.8583 24.0607L55.9004 24.9635H55.7937C55.7732 24.8045 55.7451 24.691 55.7095 24.6228C55.6515 24.513 55.5738 24.4326 55.4765 24.3815C55.3811 24.3285 55.2547 24.302 55.0975 24.302H54.5613V27.2433C54.5613 27.4799 54.5866 27.6275 54.6371 27.6862C54.7082 27.7657 54.8177 27.8055 54.9656 27.8055H55.0975V27.9105H53.4833V27.8055H53.618C53.779 27.8055 53.8932 27.7563 53.9605 27.6578C54.0017 27.5973 54.0223 27.4591 54.0223 27.2433V24.302H53.5647C53.3869 24.302 53.2606 24.3152 53.1857 24.3417C53.0884 24.3777 53.0051 24.4468 52.9358 24.549C52.8666 24.6512 52.8254 24.7894 52.8123 24.9635H52.7056L52.7505 24.0607H55.8583Z" fill="white"/>
<path d="M60.0329 25.9458C60.2968 26.0026 60.4942 26.0935 60.6252 26.2184C60.8068 26.3925 60.8975 26.6055 60.8975 26.8572C60.8975 27.0484 60.8377 27.232 60.7179 27.408C60.5981 27.5821 60.4334 27.7099 60.2238 27.7913C60.016 27.8708 59.6979 27.9105 59.2693 27.9105H57.4725V27.8055H57.6157C57.7748 27.8055 57.889 27.7544 57.9582 27.6522C58.0013 27.5859 58.0228 27.4449 58.0228 27.2291V24.7421C58.0228 24.5036 57.9957 24.3531 57.9414 24.2906C57.8684 24.2074 57.7598 24.1657 57.6157 24.1657H57.4725V24.0607H59.1177C59.4246 24.0607 59.6707 24.0834 59.856 24.1288C60.1367 24.1969 60.351 24.3181 60.4989 24.4922C60.6468 24.6645 60.7207 24.8632 60.7207 25.0884C60.7207 25.2815 60.6627 25.4547 60.5466 25.608C60.4306 25.7594 60.2593 25.872 60.0329 25.9458ZM58.5618 25.7925C58.6311 25.8058 58.7097 25.8162 58.7976 25.8238C58.8875 25.8294 58.9857 25.8323 59.0924 25.8323C59.3657 25.8323 59.5706 25.8029 59.7072 25.7443C59.8457 25.6837 59.9515 25.5919 60.0245 25.4689C60.0974 25.3458 60.1339 25.2115 60.1339 25.0657C60.1339 24.8405 60.0432 24.6484 59.8616 24.4894C59.6801 24.3304 59.4153 24.2509 59.0671 24.2509C58.88 24.2509 58.7115 24.2717 58.5618 24.3134V25.7925ZM58.5618 27.6323C58.7789 27.6834 58.9932 27.7089 59.2047 27.7089C59.5435 27.7089 59.8017 27.6323 59.9795 27.479C60.1573 27.3238 60.2462 27.1326 60.2462 26.9055C60.2462 26.7559 60.206 26.6121 60.1255 26.4739C60.045 26.3357 59.914 26.2269 59.7325 26.1474C59.5509 26.0679 59.3264 26.0282 59.0587 26.0282C58.9427 26.0282 58.8435 26.0301 58.7611 26.0339C58.6788 26.0376 58.6123 26.0443 58.5618 26.0537V27.6323Z" fill="white"/>
<path d="M65.0974 27.9105H64.0811L62.7925 26.1105C62.6971 26.1143 62.6194 26.1162 62.5595 26.1162C62.5352 26.1162 62.509 26.1162 62.4809 26.1162C62.4528 26.1143 62.4238 26.1124 62.3939 26.1105V27.2291C62.3939 27.4714 62.4201 27.6219 62.4725 27.6805C62.5436 27.7638 62.6503 27.8055 62.7925 27.8055H62.9413V27.9105H61.3102V27.8055H61.4534C61.6144 27.8055 61.7295 27.7525 61.7987 27.6465C61.838 27.5878 61.8577 27.4487 61.8577 27.2291V24.7421C61.8577 24.4998 61.8315 24.3493 61.7791 24.2906C61.7061 24.2074 61.5975 24.1657 61.4534 24.1657H61.3102V24.0607H62.6971C63.1013 24.0607 63.3989 24.091 63.5898 24.1515C63.7826 24.2102 63.9454 24.32 64.0783 24.4809C64.2131 24.6398 64.2804 24.8301 64.2804 25.0515C64.2804 25.2881 64.2037 25.4935 64.0502 25.6676C63.8986 25.8417 63.6628 25.9648 63.3428 26.0367L64.1288 27.1411C64.3085 27.3947 64.4629 27.5632 64.592 27.6465C64.7212 27.7298 64.8896 27.7828 65.0974 27.8055V27.9105ZM62.3939 25.9316C62.4294 25.9316 62.4603 25.9326 62.4865 25.9345C62.5127 25.9345 62.5342 25.9345 62.5511 25.9345C62.9142 25.9345 63.1874 25.855 63.3708 25.696C63.5561 25.537 63.6488 25.3345 63.6488 25.0884C63.6488 24.8481 63.5739 24.6531 63.4242 24.5036C63.2763 24.3522 63.0798 24.2764 62.8346 24.2764C62.7261 24.2764 62.5792 24.2944 62.3939 24.3304V25.9316Z" fill="white"/>
<path d="M66.8211 27.8055V27.9105H65.19V27.8055H65.3248C65.482 27.8055 65.5962 27.7591 65.6673 27.6663C65.7122 27.6058 65.7346 27.46 65.7346 27.2291V24.7421C65.7346 24.5471 65.7225 24.4184 65.6982 24.3559C65.6794 24.3086 65.6411 24.2679 65.5831 24.2339C65.5007 24.1884 65.4146 24.1657 65.3248 24.1657H65.19V24.0607H66.8211V24.1657H66.6835C66.5282 24.1657 66.415 24.2121 66.3438 24.3048C66.2971 24.3654 66.2737 24.5111 66.2737 24.7421V27.2291C66.2737 27.4241 66.2858 27.5528 66.3102 27.6152C66.3289 27.6626 66.3682 27.7033 66.4281 27.7373C66.5086 27.7828 66.5937 27.8055 66.6835 27.8055H66.8211Z" fill="white"/>
<path d="M70.2573 26.8458L70.35 26.8657L70.0243 27.9105H67.0766V27.8055H67.2197C67.3807 27.8055 67.4958 27.7525 67.5651 27.6465C67.6044 27.5859 67.624 27.4458 67.624 27.2263V24.7421C67.624 24.5017 67.5978 24.3512 67.5454 24.2906C67.4724 24.2074 67.3639 24.1657 67.2197 24.1657H67.0766V24.0607H68.8003V24.1657C68.5982 24.1638 68.4559 24.1828 68.3736 24.2225C68.2931 24.2622 68.2379 24.3124 68.2079 24.373C68.178 24.4335 68.163 24.5783 68.163 24.8074V27.2263C68.163 27.3834 68.178 27.4913 68.2079 27.5499C68.2304 27.5897 68.265 27.619 68.3118 27.638C68.3586 27.6569 68.5046 27.6663 68.7498 27.6663H69.0277C69.3197 27.6663 69.5246 27.6446 69.6425 27.601C69.7604 27.5575 69.868 27.4809 69.9654 27.3711C70.0627 27.2594 70.16 27.0843 70.2573 26.8458Z" fill="white"/>
<path d="M73.7722 26.8458L73.8648 26.8657L73.5391 27.9105H70.5914V27.8055H70.7346C70.8955 27.8055 71.0106 27.7525 71.0799 27.6465C71.1192 27.5859 71.1388 27.4458 71.1388 27.2263V24.7421C71.1388 24.5017 71.1126 24.3512 71.0602 24.2906C70.9872 24.2074 70.8787 24.1657 70.7346 24.1657H70.5914V24.0607H72.3151V24.1657C72.113 24.1638 71.9708 24.1828 71.8884 24.2225C71.8079 24.2622 71.7527 24.3124 71.7228 24.373C71.6928 24.4335 71.6779 24.5783 71.6779 24.8074V27.2263C71.6779 27.3834 71.6928 27.4913 71.7228 27.5499C71.7452 27.5897 71.7799 27.619 71.8267 27.638C71.8734 27.6569 72.0194 27.6663 72.2646 27.6663H72.5425C72.8345 27.6663 73.0394 27.6446 73.1573 27.601C73.2753 27.5575 73.3829 27.4809 73.4802 27.3711C73.5775 27.2594 73.6748 27.0843 73.7722 26.8458Z" fill="white"/>
<path d="M75.7654 27.8055V27.9105H74.1343V27.8055H74.2691C74.4263 27.8055 74.5404 27.7591 74.6116 27.6663C74.6565 27.6058 74.6789 27.46 74.6789 27.2291V24.7421C74.6789 24.5471 74.6668 24.4184 74.6424 24.3559C74.6237 24.3086 74.5854 24.2679 74.5273 24.2339C74.445 24.1884 74.3589 24.1657 74.2691 24.1657H74.1343V24.0607H75.7654V24.1657H75.6278C75.4725 24.1657 75.3593 24.2121 75.2881 24.3048C75.2414 24.3654 75.218 24.5111 75.218 24.7421V27.2291C75.218 27.4241 75.2301 27.5528 75.2545 27.6152C75.2732 27.6626 75.3125 27.7033 75.3724 27.7373C75.4528 27.7828 75.538 27.8055 75.6278 27.8055H75.7654Z" fill="white"/>
<path d="M78.5363 26.6216H77.0624L76.8041 27.2291C76.7405 27.3786 76.7087 27.4903 76.7087 27.5641C76.7087 27.6228 76.7358 27.6749 76.7901 27.7203C76.8462 27.7638 76.966 27.7922 77.1494 27.8055V27.9105H75.9507V27.8055C76.1098 27.7771 76.2127 27.7402 76.2595 27.6947C76.3549 27.6039 76.4607 27.4193 76.5767 27.1411L77.9158 23.9727H78.0141L79.3392 27.1752C79.4459 27.4326 79.5423 27.6001 79.6283 27.6777C79.7163 27.7534 79.838 27.796 79.9933 27.8055V27.9105H78.4914V27.8055C78.643 27.7979 78.745 27.7723 78.7974 27.7288C78.8516 27.6853 78.8788 27.6323 78.8788 27.5698C78.8788 27.4865 78.8413 27.355 78.7665 27.1752L78.5363 26.6216ZM78.4577 26.4115L77.812 24.8556L77.1494 26.4115H78.4577Z" fill="white"/>
<path d="M79.9849 24.0607H81.018L83.3453 26.9481V24.7279C83.3453 24.4913 83.3191 24.3436 83.2667 24.285C83.1974 24.2055 83.088 24.1657 82.9382 24.1657H82.8063V24.0607H84.1314V24.1657H83.9966C83.8357 24.1657 83.7215 24.2149 83.6541 24.3134C83.6129 24.3739 83.5924 24.5121 83.5924 24.7279V27.973H83.4913L80.9815 24.8727V27.2433C80.9815 27.4799 81.0068 27.6275 81.0573 27.6862C81.1284 27.7657 81.2379 27.8055 81.3858 27.8055H81.5205V27.9105H80.1954V27.8055H80.3274C80.4902 27.8055 80.6053 27.7563 80.6727 27.6578C80.7139 27.5973 80.7345 27.4591 80.7345 27.2433V24.566C80.624 24.4354 80.5398 24.3493 80.4818 24.3077C80.4256 24.266 80.3424 24.2272 80.2319 24.1913C80.1777 24.1742 80.0953 24.1657 79.9849 24.1657V24.0607Z" fill="white"/>
<path d="M87.5423 24.0607L87.5844 24.9635H87.4778C87.4572 24.8045 87.4291 24.691 87.3935 24.6228C87.3355 24.513 87.2579 24.4326 87.1605 24.3815C87.0651 24.3285 86.9387 24.302 86.7815 24.302H86.2453V27.2433C86.2453 27.4799 86.2706 27.6275 86.3211 27.6862C86.3922 27.7657 86.5017 27.8055 86.6496 27.8055H86.7815V27.9105H85.1673V27.8055H85.302C85.463 27.8055 85.5772 27.7563 85.6445 27.6578C85.6857 27.5973 85.7063 27.4591 85.7063 27.2433V24.302H85.2487C85.0709 24.302 84.9446 24.3152 84.8697 24.3417C84.7724 24.3777 84.6891 24.4468 84.6199 24.549C84.5506 24.6512 84.5094 24.7894 84.4963 24.9635H84.3896L84.4346 24.0607H87.5423Z" fill="white"/>
<path d="M90.2374 24.2708V25.784H90.9308C91.0899 25.784 91.2059 25.749 91.2789 25.679C91.3538 25.607 91.4034 25.466 91.4277 25.2559H91.5316V26.5591H91.4277C91.4259 26.4096 91.4062 26.2998 91.3688 26.2298C91.3332 26.1597 91.2827 26.1077 91.2172 26.0736C91.1535 26.0376 91.0581 26.0197 90.9308 26.0197H90.2374V27.2291C90.2374 27.4241 90.2496 27.5528 90.2739 27.6152C90.2926 27.6626 90.3319 27.7033 90.3918 27.7373C90.4742 27.7828 90.5603 27.8055 90.6501 27.8055H90.7877V27.9105H89.1538V27.8055H89.2885C89.4457 27.8055 89.5599 27.7591 89.631 27.6663C89.6759 27.6058 89.6984 27.46 89.6984 27.2291V24.7421C89.6984 24.5471 89.6862 24.4184 89.6619 24.3559C89.6432 24.3086 89.6048 24.2679 89.5468 24.2339C89.4663 24.1884 89.3802 24.1657 89.2885 24.1657H89.1538V24.0607H91.9864L92.0229 24.9067H91.9246C91.876 24.7269 91.8189 24.5954 91.7534 24.5121C91.6898 24.4269 91.6102 24.3654 91.5148 24.3275C91.4212 24.2897 91.2752 24.2708 91.0768 24.2708H90.2374Z" fill="white"/>
<path d="M94.3643 23.9727C94.8583 23.9727 95.286 24.1629 95.6472 24.5433C96.0103 24.9219 96.1918 25.3951 96.1918 25.9629C96.1918 26.5477 96.0094 27.0332 95.6444 27.4193C95.2794 27.8055 94.8378 27.9985 94.3193 27.9985C93.7953 27.9985 93.3545 27.8102 92.9971 27.4335C92.6415 27.0569 92.4637 26.5695 92.4637 25.9714C92.4637 25.36 92.6695 24.8613 93.0813 24.4752C93.4388 24.1402 93.8664 23.9727 94.3643 23.9727ZM94.3109 24.1799C93.9703 24.1799 93.697 24.3077 93.4911 24.5632C93.2347 24.8812 93.1065 25.3468 93.1065 25.96C93.1065 26.5884 93.2394 27.072 93.5052 27.4108C93.7092 27.6682 93.9787 27.7969 94.3137 27.7969C94.6712 27.7969 94.966 27.6559 95.198 27.3739C95.432 27.0919 95.549 26.6471 95.549 26.0395C95.549 25.3809 95.4208 24.8897 95.1643 24.566C94.9585 24.3086 94.674 24.1799 94.3109 24.1799Z" fill="white"/>
<path d="M99.1592 24.1657V24.0607H100.507V24.1657H100.364C100.214 24.1657 100.099 24.2291 100.018 24.3559C99.979 24.4146 99.9593 24.5509 99.9593 24.7648V26.3263C99.9593 26.7124 99.921 27.0124 99.8442 27.2263C99.7694 27.4383 99.6206 27.6209 99.3979 27.7742C99.177 27.9257 98.8757 28.0014 98.4939 28.0014C98.0784 28.0014 97.763 27.9285 97.5478 27.7828C97.3326 27.637 97.18 27.4411 97.0902 27.1951C97.0303 27.0266 97.0004 26.7105 97.0004 26.2468V24.7421C97.0004 24.5055 96.9676 24.3503 96.9021 24.2764C96.8385 24.2026 96.7346 24.1657 96.5905 24.1657H96.4473V24.0607H98.0924V24.1657H97.9465C97.7892 24.1657 97.6769 24.2159 97.6096 24.3162C97.5628 24.3843 97.5394 24.5263 97.5394 24.7421V26.42C97.5394 26.5695 97.5525 26.7408 97.5787 26.9339C97.6068 27.1269 97.6564 27.2774 97.7275 27.3853C97.7986 27.4932 97.9006 27.5821 98.0335 27.6522C98.1682 27.7222 98.3329 27.7572 98.5276 27.7572C98.7765 27.7572 98.9992 27.7023 99.1957 27.5925C99.3923 27.4828 99.5261 27.3427 99.5972 27.1723C99.6702 27.0001 99.7067 26.7096 99.7067 26.3007V24.7421C99.7067 24.5017 99.6805 24.3512 99.6281 24.2906C99.5551 24.2074 99.4465 24.1657 99.3024 24.1657H99.1592Z" fill="white"/>
<path d="M100.496 24.0607H101.529L103.856 26.9481V24.7279C103.856 24.4913 103.83 24.3436 103.777 24.285C103.708 24.2055 103.599 24.1657 103.449 24.1657H103.317V24.0607H104.642V24.1657H104.507C104.346 24.1657 104.232 24.2149 104.165 24.3134C104.124 24.3739 104.103 24.5121 104.103 24.7279V27.973H104.002L101.492 24.8727V27.2433C101.492 27.4799 101.517 27.6275 101.568 27.6862C101.639 27.7657 101.749 27.8055 101.896 27.8055H102.031V27.9105H100.706V27.8055H100.838C101.001 27.8055 101.116 27.7563 101.183 27.6578C101.225 27.5973 101.245 27.4591 101.245 27.2433V24.566C101.135 24.4354 101.05 24.3493 100.992 24.3077C100.936 24.266 100.853 24.2272 100.743 24.1913C100.688 24.1742 100.606 24.1657 100.496 24.1657V24.0607Z" fill="white"/>
<path d="M104.825 27.9105V27.8055H104.968C105.129 27.8055 105.243 27.7534 105.31 27.6493C105.351 27.5869 105.372 27.4468 105.372 27.2291V24.7421C105.372 24.5017 105.346 24.3512 105.293 24.2906C105.22 24.2074 105.112 24.1657 104.968 24.1657H104.825V24.0607H106.374C106.943 24.0607 107.375 24.126 107.671 24.2566C107.969 24.3872 108.207 24.6048 108.387 24.9096C108.569 25.2143 108.659 25.5663 108.659 25.9657C108.659 26.5014 108.498 26.949 108.177 27.3086C107.815 27.7099 107.265 27.9105 106.526 27.9105H104.825ZM105.911 27.6323C106.149 27.6853 106.348 27.7118 106.509 27.7118C106.943 27.7118 107.303 27.5575 107.59 27.249C107.876 26.9405 108.019 26.5222 108.019 25.9941C108.019 25.4622 107.876 25.043 107.59 24.7364C107.303 24.4298 106.936 24.2764 106.486 24.2764C106.318 24.2764 106.126 24.3039 105.911 24.3588V27.6323Z" fill="white"/>
<path d="M110.083 24.2708V25.7925H110.919C111.136 25.7925 111.281 25.7594 111.354 25.6932C111.452 25.6061 111.506 25.4528 111.517 25.2332H111.621V26.5733H111.517C111.491 26.3859 111.465 26.2657 111.439 26.2127C111.405 26.1465 111.35 26.0944 111.273 26.0566C111.196 26.0187 111.078 25.9998 110.919 25.9998H110.083V27.2689C110.083 27.4392 110.09 27.5433 110.105 27.5812C110.12 27.6171 110.146 27.6465 110.184 27.6692C110.221 27.69 110.292 27.7004 110.397 27.7004H111.043C111.258 27.7004 111.414 27.6853 111.512 27.655C111.609 27.6247 111.703 27.5651 111.792 27.4761C111.908 27.3588 112.027 27.1818 112.149 26.9452H112.261L111.933 27.9105H108.999V27.8055H109.134C109.224 27.8055 109.309 27.7837 109.389 27.7402C109.449 27.7099 109.489 27.6645 109.51 27.6039C109.532 27.5433 109.544 27.4193 109.544 27.232V24.7307C109.544 24.4865 109.519 24.3361 109.471 24.2793C109.403 24.2036 109.291 24.1657 109.134 24.1657H108.999V24.0607H111.933L111.975 24.9039H111.865C111.826 24.7014 111.782 24.5622 111.733 24.4865C111.687 24.4108 111.616 24.3531 111.523 24.3134C111.448 24.285 111.316 24.2708 111.127 24.2708H110.083Z" fill="white"/>
<path d="M116.281 27.9105H115.265L113.977 26.1105C113.881 26.1143 113.803 26.1162 113.744 26.1162C113.719 26.1162 113.693 26.1162 113.665 26.1162C113.637 26.1143 113.608 26.1124 113.578 26.1105V27.2291C113.578 27.4714 113.604 27.6219 113.657 27.6805C113.728 27.7638 113.834 27.8055 113.977 27.8055H114.125V27.9105H112.494V27.8055H112.637C112.798 27.8055 112.913 27.7525 112.983 27.6465C113.022 27.5878 113.042 27.4487 113.042 27.2291V24.7421C113.042 24.4998 113.016 24.3493 112.963 24.2906C112.89 24.2074 112.782 24.1657 112.637 24.1657H112.494V24.0607H113.881C114.285 24.0607 114.583 24.091 114.774 24.1515C114.967 24.2102 115.129 24.32 115.262 24.4809C115.397 24.6398 115.464 24.8301 115.464 25.0515C115.464 25.2881 115.388 25.4935 115.234 25.6676C115.083 25.8417 114.847 25.9648 114.527 26.0367L115.313 27.1411C115.493 27.3947 115.647 27.5632 115.776 27.6465C115.905 27.7298 116.074 27.7828 116.281 27.8055V27.9105ZM113.578 25.9316C113.613 25.9316 113.644 25.9326 113.671 25.9345C113.697 25.9345 113.718 25.9345 113.735 25.9345C114.098 25.9345 114.371 25.855 114.555 25.696C114.74 25.537 114.833 25.3345 114.833 25.0884C114.833 24.8481 114.758 24.6531 114.608 24.5036C114.46 24.3522 114.264 24.2764 114.019 24.2764C113.91 24.2764 113.763 24.2944 113.578 24.3304V25.9316Z" fill="white"/>
<path d="M118.867 23.9727V25.3042H118.763C118.729 25.0487 118.669 24.8452 118.581 24.6938C118.495 24.5424 118.371 24.4222 118.21 24.3332C118.049 24.2443 117.883 24.1998 117.71 24.1998C117.516 24.1998 117.355 24.2604 117.227 24.3815C117.1 24.5007 117.037 24.637 117.037 24.7903C117.037 24.9077 117.077 25.0146 117.157 25.1111C117.273 25.2531 117.549 25.4424 117.985 25.679C118.341 25.872 118.583 26.0206 118.713 26.1247C118.844 26.2269 118.944 26.3481 119.013 26.4881C119.084 26.6282 119.12 26.7749 119.12 26.9282C119.12 27.2197 119.007 27.4714 118.783 27.6834C118.56 27.8935 118.273 27.9985 117.921 27.9985C117.81 27.9985 117.707 27.99 117.609 27.973C117.551 27.9635 117.431 27.9294 117.247 27.8708C117.066 27.8102 116.951 27.7799 116.902 27.7799C116.855 27.7799 116.818 27.7941 116.79 27.8225C116.763 27.8509 116.744 27.9096 116.731 27.9985H116.627V26.6783H116.731C116.779 26.9547 116.845 27.1619 116.927 27.3001C117.009 27.4364 117.135 27.5499 117.303 27.6408C117.474 27.7316 117.66 27.7771 117.862 27.7771C118.096 27.7771 118.28 27.7146 118.415 27.5897C118.552 27.4648 118.62 27.3171 118.62 27.1468C118.62 27.0522 118.594 26.9566 118.541 26.86C118.491 26.7635 118.411 26.6736 118.303 26.5903C118.23 26.5335 118.03 26.4133 117.705 26.2298C117.379 26.0443 117.147 25.8966 117.009 25.7869C116.872 25.6771 116.768 25.5559 116.697 25.4234C116.626 25.291 116.59 25.1452 116.59 24.9862C116.59 24.7099 116.695 24.4723 116.905 24.2736C117.114 24.073 117.381 23.9727 117.705 23.9727C117.907 23.9727 118.121 24.0228 118.348 24.1231C118.452 24.1704 118.526 24.1941 118.569 24.1941C118.618 24.1941 118.657 24.1799 118.687 24.1515C118.719 24.1212 118.744 24.0616 118.763 23.9727H118.867Z" fill="white"/>
<path d="M122.643 27.8055V27.9105H121.012V27.8055H121.147C121.304 27.8055 121.418 27.7591 121.489 27.6663C121.534 27.6058 121.556 27.46 121.556 27.2291V24.7421C121.556 24.5471 121.544 24.4184 121.52 24.3559C121.501 24.3086 121.463 24.2679 121.405 24.2339C121.323 24.1884 121.236 24.1657 121.147 24.1657H121.012V24.0607H122.643V24.1657H122.505C122.35 24.1657 122.237 24.2121 122.166 24.3048C122.119 24.3654 122.095 24.5111 122.095 24.7421V27.2291C122.095 27.4241 122.108 27.5528 122.132 27.6152C122.151 27.6626 122.19 27.7033 122.25 27.7373C122.33 27.7828 122.416 27.8055 122.505 27.8055H122.643Z" fill="white"/>
<path d="M122.707 24.0607H123.741L126.068 26.9481V24.7279C126.068 24.4913 126.042 24.3436 125.989 24.285C125.92 24.2055 125.811 24.1657 125.661 24.1657H125.529V24.0607H126.854V24.1657H126.719C126.558 24.1657 126.444 24.2149 126.377 24.3134C126.336 24.3739 126.315 24.5121 126.315 24.7279V27.973H126.214L123.704 24.8727V27.2433C123.704 27.4799 123.729 27.6275 123.78 27.6862C123.851 27.7657 123.961 27.8055 124.108 27.8055H124.243V27.9105H122.918V27.8055H123.05C123.213 27.8055 123.328 27.7563 123.395 27.6578C123.436 27.5973 123.457 27.4591 123.457 27.2433V24.566C123.347 24.4354 123.262 24.3493 123.204 24.3077C123.148 24.266 123.065 24.2272 122.955 24.1913C122.9 24.1742 122.818 24.1657 122.707 24.1657V24.0607Z" fill="white"/>
<path d="M131.031 25.9458C131.295 26.0026 131.493 26.0935 131.624 26.2184C131.805 26.3925 131.896 26.6055 131.896 26.8572C131.896 27.0484 131.836 27.232 131.716 27.408C131.597 27.5821 131.432 27.7099 131.222 27.7913C131.015 27.8708 130.696 27.9105 130.268 27.9105H128.471V27.8055H128.614C128.773 27.8055 128.887 27.7544 128.957 27.6522C129 27.5859 129.021 27.4449 129.021 27.2291V24.7421C129.021 24.5036 128.994 24.3531 128.94 24.2906C128.867 24.2074 128.758 24.1657 128.614 24.1657H128.471V24.0607H130.116C130.423 24.0607 130.669 24.0834 130.854 24.1288C131.135 24.1969 131.35 24.3181 131.497 24.4922C131.645 24.6645 131.719 24.8632 131.719 25.0884C131.719 25.2815 131.661 25.4547 131.545 25.608C131.429 25.7594 131.258 25.872 131.031 25.9458ZM129.56 25.7925C129.63 25.8058 129.708 25.8162 129.796 25.8238C129.886 25.8294 129.984 25.8323 130.091 25.8323C130.364 25.8323 130.569 25.8029 130.706 25.7443C130.844 25.6837 130.95 25.5919 131.023 25.4689C131.096 25.3458 131.132 25.2115 131.132 25.0657C131.132 24.8405 131.042 24.6484 130.86 24.4894C130.679 24.3304 130.414 24.2509 130.066 24.2509C129.878 24.2509 129.71 24.2717 129.56 24.3134V25.7925ZM129.56 27.6323C129.777 27.6834 129.992 27.7089 130.203 27.7089C130.542 27.7089 130.8 27.6323 130.978 27.479C131.156 27.3238 131.245 27.1326 131.245 26.9055C131.245 26.7559 131.204 26.6121 131.124 26.4739C131.044 26.3357 130.913 26.2269 130.731 26.1474C130.549 26.0679 130.325 26.0282 130.057 26.0282C129.941 26.0282 129.842 26.0301 129.76 26.0339C129.677 26.0376 129.611 26.0443 129.56 26.0537V27.6323Z" fill="white"/>
<path d="M135.506 26.8458L135.599 26.8657L135.273 27.9105H132.326V27.8055H132.469C132.63 27.8055 132.745 27.7525 132.814 27.6465C132.853 27.5859 132.873 27.4458 132.873 27.2263V24.7421C132.873 24.5017 132.847 24.3512 132.794 24.2906C132.721 24.2074 132.613 24.1657 132.469 24.1657H132.326V24.0607H134.049V24.1657C133.847 24.1638 133.705 24.1828 133.623 24.2225C133.542 24.2622 133.487 24.3124 133.457 24.373C133.427 24.4335 133.412 24.5783 133.412 24.8074V27.2263C133.412 27.3834 133.427 27.4913 133.457 27.5499C133.479 27.5897 133.514 27.619 133.561 27.638C133.608 27.6569 133.754 27.6663 133.999 27.6663H134.277C134.569 27.6663 134.774 27.6446 134.891 27.601C135.009 27.5575 135.117 27.4809 135.214 27.3711C135.312 27.2594 135.409 27.0843 135.506 26.8458Z" fill="white"/>
<path d="M137.828 23.9727C138.322 23.9727 138.75 24.1629 139.111 24.5433C139.474 24.9219 139.656 25.3951 139.656 25.9629C139.656 26.5477 139.473 27.0332 139.108 27.4193C138.743 27.8055 138.302 27.9985 137.783 27.9985C137.259 27.9985 136.818 27.8102 136.461 27.4335C136.105 27.0569 135.927 26.5695 135.927 25.9714C135.927 25.36 136.133 24.8613 136.545 24.4752C136.903 24.1402 137.33 23.9727 137.828 23.9727ZM137.775 24.1799C137.434 24.1799 137.161 24.3077 136.955 24.5632C136.699 24.8812 136.57 25.3468 136.57 25.96C136.57 26.5884 136.703 27.072 136.969 27.4108C137.173 27.6682 137.442 27.7969 137.777 27.7969C138.135 27.7969 138.43 27.6559 138.662 27.3739C138.896 27.0919 139.013 26.6471 139.013 26.0395C139.013 25.3809 138.885 24.8897 138.628 24.566C138.422 24.3086 138.138 24.1799 137.775 24.1799Z" fill="white"/>
<path d="M143.342 23.9727L143.429 25.2815H143.342C143.226 24.8897 143.06 24.6077 142.845 24.4354C142.63 24.2632 142.371 24.1771 142.07 24.1771C141.817 24.1771 141.589 24.2424 141.385 24.373C141.181 24.5017 141.02 24.708 140.902 24.9919C140.786 25.2758 140.728 25.6288 140.728 26.0509C140.728 26.3992 140.783 26.701 140.894 26.9566C141.004 27.2121 141.17 27.408 141.391 27.5443C141.613 27.6805 141.867 27.7487 142.151 27.7487C142.398 27.7487 142.616 27.6957 142.805 27.5897C142.995 27.4818 143.202 27.2689 143.429 26.9509L143.516 27.0077C143.325 27.3503 143.102 27.601 142.848 27.76C142.593 27.919 142.291 27.9985 141.941 27.9985C141.31 27.9985 140.822 27.7619 140.475 27.2887C140.217 26.9367 140.088 26.5222 140.088 26.0452C140.088 25.661 140.173 25.308 140.343 24.9862C140.514 24.6645 140.748 24.4156 141.045 24.2395C141.345 24.0616 141.671 23.9727 142.025 23.9727C142.3 23.9727 142.572 24.0408 142.839 24.1771C142.918 24.2187 142.974 24.2395 143.008 24.2395C143.058 24.2395 143.102 24.2216 143.14 24.1856C143.188 24.1345 143.223 24.0635 143.243 23.9727H143.342Z" fill="white"/>
<path d="M145.433 25.7755L146.837 27.1865C147.067 27.4193 147.264 27.5783 147.426 27.6635C147.589 27.7468 147.752 27.7941 147.915 27.8055V27.9105H146.104V27.8055C146.213 27.8055 146.29 27.7875 146.337 27.7515C146.386 27.7137 146.41 27.672 146.41 27.6266C146.41 27.5812 146.401 27.5405 146.382 27.5045C146.365 27.4686 146.307 27.4014 146.208 27.3029L144.894 25.9884V27.2291C144.894 27.4241 144.906 27.5528 144.931 27.6152C144.949 27.6626 144.989 27.7033 145.049 27.7373C145.129 27.7828 145.214 27.8055 145.304 27.8055H145.433V27.9105H143.811V27.8055H143.945C144.102 27.8055 144.217 27.7591 144.288 27.6663C144.333 27.6058 144.355 27.46 144.355 27.2291V24.7421C144.355 24.5471 144.343 24.4175 144.319 24.3531C144.3 24.3077 144.262 24.2679 144.204 24.2339C144.121 24.1884 144.035 24.1657 143.945 24.1657H143.811V24.0607H145.433V24.1657H145.304C145.216 24.1657 145.131 24.1875 145.049 24.231C144.991 24.2613 144.95 24.3067 144.928 24.3673C144.905 24.4279 144.894 24.5528 144.894 24.7421V25.9203C144.932 25.8843 145.06 25.7641 145.279 25.5597C145.835 25.0449 146.171 24.7014 146.287 24.5291C146.337 24.4534 146.362 24.3872 146.362 24.3304C146.362 24.2869 146.343 24.249 146.303 24.2168C146.264 24.1828 146.198 24.1657 146.104 24.1657H146.017V24.0607H147.415V24.1657C147.333 24.1676 147.258 24.179 147.191 24.1998C147.123 24.2206 147.041 24.2613 146.944 24.3219C146.846 24.3805 146.726 24.4761 146.584 24.6086C146.543 24.6465 146.353 24.8405 146.014 25.1906L145.433 25.7755Z" fill="white"/>
<path d="M151.331 23.9727L151.419 25.2815H151.331C151.215 24.8897 151.05 24.6077 150.835 24.4354C150.619 24.2632 150.361 24.1771 150.06 24.1771C149.807 24.1771 149.579 24.2424 149.375 24.373C149.171 24.5017 149.01 24.708 148.892 24.9919C148.776 25.2758 148.718 25.6288 148.718 26.0509C148.718 26.3992 148.773 26.701 148.883 26.9566C148.994 27.2121 149.16 27.408 149.38 27.5443C149.603 27.6805 149.857 27.7487 150.141 27.7487C150.388 27.7487 150.606 27.6957 150.795 27.5897C150.984 27.4818 151.192 27.2689 151.419 26.9509L151.506 27.0077C151.315 27.3503 151.092 27.601 150.837 27.76C150.583 27.919 150.281 27.9985 149.931 27.9985C149.3 27.9985 148.811 27.7619 148.465 27.2887C148.207 26.9367 148.078 26.5222 148.078 26.0452C148.078 25.661 148.163 25.308 148.333 24.9862C148.504 24.6645 148.737 24.4156 149.035 24.2395C149.334 24.0616 149.661 23.9727 150.015 23.9727C150.29 23.9727 150.561 24.0408 150.829 24.1771C150.908 24.2187 150.964 24.2395 150.997 24.2395C151.048 24.2395 151.092 24.2216 151.129 24.1856C151.178 24.1345 151.213 24.0635 151.233 23.9727H151.331Z" fill="white"/>
<path d="M152.887 25.8465H154.655V24.7449C154.655 24.5481 154.643 24.4184 154.619 24.3559C154.6 24.3086 154.561 24.2679 154.501 24.2339C154.421 24.1884 154.335 24.1657 154.246 24.1657H154.111V24.0607H155.739V24.1657H155.604C155.514 24.1657 155.429 24.1875 155.349 24.231C155.289 24.2613 155.248 24.3077 155.225 24.3701C155.205 24.4307 155.194 24.5556 155.194 24.7449V27.2291C155.194 27.4241 155.207 27.5528 155.231 27.6152C155.25 27.6626 155.288 27.7033 155.346 27.7373C155.428 27.7828 155.514 27.8055 155.604 27.8055H155.739V27.9105H154.111V27.8055H154.246C154.401 27.8055 154.514 27.7591 154.585 27.6663C154.632 27.6058 154.655 27.46 154.655 27.2291V26.0566H152.887V27.2291C152.887 27.4241 152.899 27.5528 152.923 27.6152C152.942 27.6626 152.981 27.7033 153.041 27.7373C153.122 27.7828 153.207 27.8055 153.297 27.8055H153.434V27.9105H151.803V27.8055H151.938C152.095 27.8055 152.209 27.7591 152.28 27.6663C152.325 27.6058 152.348 27.46 152.348 27.2291V24.7449C152.348 24.5481 152.336 24.4184 152.311 24.3559C152.293 24.3086 152.254 24.2679 152.196 24.2339C152.114 24.1884 152.028 24.1657 151.938 24.1657H151.803V24.0607H153.434V24.1657H153.297C153.207 24.1657 153.122 24.1875 153.041 24.231C152.983 24.2613 152.943 24.3077 152.92 24.3701C152.898 24.4307 152.887 24.5556 152.887 24.7449V25.8465Z" fill="white"/>
<path d="M158.49 26.6216H157.016L156.758 27.2291C156.694 27.3786 156.663 27.4903 156.663 27.5641C156.663 27.6228 156.69 27.6749 156.744 27.7203C156.8 27.7638 156.92 27.7922 157.103 27.8055V27.9105H155.905V27.8055C156.064 27.7771 156.167 27.7402 156.213 27.6947C156.309 27.6039 156.415 27.4193 156.531 27.1411L157.87 23.9727H157.968L159.293 27.1752C159.4 27.4326 159.496 27.6001 159.582 27.6777C159.67 27.7534 159.792 27.796 159.947 27.8055V27.9105H158.445V27.8055C158.597 27.7979 158.699 27.7723 158.751 27.7288C158.806 27.6853 158.833 27.6323 158.833 27.5698C158.833 27.4865 158.795 27.355 158.72 27.1752L158.49 26.6216ZM158.412 26.4115L157.766 24.8556L157.103 26.4115H158.412Z" fill="white"/>
<path d="M161.789 27.8055V27.9105H160.158V27.8055H160.293C160.45 27.8055 160.564 27.7591 160.635 27.6663C160.68 27.6058 160.702 27.46 160.702 27.2291V24.7421C160.702 24.5471 160.69 24.4184 160.666 24.3559C160.647 24.3086 160.609 24.2679 160.551 24.2339C160.469 24.1884 160.382 24.1657 160.293 24.1657H160.158V24.0607H161.789V24.1657H161.651C161.496 24.1657 161.383 24.2121 161.312 24.3048C161.265 24.3654 161.242 24.5111 161.242 24.7421V27.2291C161.242 27.4241 161.254 27.5528 161.278 27.6152C161.297 27.6626 161.336 27.7033 161.396 27.7373C161.476 27.7828 161.562 27.8055 161.651 27.8055H161.789Z" fill="white"/>
<path d="M161.854 24.0607H162.887L165.214 26.9481V24.7279C165.214 24.4913 165.188 24.3436 165.135 24.285C165.066 24.2055 164.957 24.1657 164.807 24.1657H164.675V24.0607H166V24.1657H165.865C165.704 24.1657 165.59 24.2149 165.523 24.3134C165.482 24.3739 165.461 24.5121 165.461 24.7279V27.973H165.36L162.85 24.8727V27.2433C162.85 27.4799 162.875 27.6275 162.926 27.6862C162.997 27.7657 163.107 27.8055 163.254 27.8055H163.389V27.9105H162.064V27.8055H162.196C162.359 27.8055 162.474 27.7563 162.541 27.6578C162.582 27.5973 162.603 27.4591 162.603 27.2433V24.566C162.493 24.4354 162.408 24.3493 162.35 24.3077C162.294 24.266 162.211 24.2272 162.101 24.1913C162.046 24.1742 161.964 24.1657 161.854 24.1657V24.0607Z" fill="white"/>
<path d="M11.083 11.0869H4.84994L3.75767 13.6299C3.48856 14.2557 3.35401 14.7231 3.35401 15.0321C3.35401 15.2777 3.46878 15.4955 3.69831 15.6857C3.93576 15.8679 4.44232 15.9867 5.21799 16.0421V16.4818H0.148438V16.0421C0.821212 15.9233 1.25654 15.7688 1.45441 15.5787C1.85808 15.1985 2.30527 14.4261 2.796 13.2615L8.45918 0H8.87472L14.4785 13.4041C14.9297 14.4815 15.3373 15.1826 15.7014 15.5074C16.0734 15.8243 16.5879 16.0025 17.2448 16.0421V16.4818H10.893V16.0421C11.5342 16.0105 11.9655 15.9035 12.1871 15.7213C12.4167 15.5391 12.5314 15.3173 12.5314 15.0559C12.5314 14.7073 12.3731 14.1567 12.0565 13.4041L11.083 11.0869ZM10.7506 10.2076L8.0199 3.69564L5.21799 10.2076H10.7506Z" fill="white"/>
<path d="M29.1292 0.808049V0.368375H34.828V0.808049H34.2225C33.5893 0.808049 33.1025 1.07344 32.7622 1.60421C32.596 1.8498 32.5128 2.42019 32.5128 3.31538V9.85107C32.5128 11.4672 32.3506 12.7228 32.0261 13.618C31.7095 14.5053 31.0802 15.2697 30.1383 15.9114C29.2044 16.5452 27.9301 16.8621 26.3154 16.8621C24.5583 16.8621 23.2246 16.5571 22.3144 15.9471C21.4042 15.3371 20.7591 14.5172 20.3792 13.4873C20.1259 12.7822 19.9992 11.4592 19.9992 9.51834V3.22031C19.9992 2.23006 19.8607 1.58045 19.5837 1.27149C19.3146 0.962529 18.8753 0.808049 18.2659 0.808049H17.6604V0.368375H24.6176V0.808049H24.0003C23.3354 0.808049 22.8605 1.01798 22.5756 1.43785C22.3777 1.72305 22.2788 2.3172 22.2788 3.22031V10.2432C22.2788 10.8691 22.3342 11.586 22.445 12.394C22.5637 13.2021 22.7734 13.8319 23.0742 14.2835C23.375 14.735 23.8064 15.1073 24.3683 15.4005C24.9382 15.6936 25.6347 15.8401 26.4579 15.8401C27.5106 15.8401 28.4525 15.6104 29.2835 15.1509C30.1146 14.6914 30.6805 14.1052 30.9813 13.3922C31.29 12.6713 31.4443 11.4553 31.4443 9.74412V3.22031C31.4443 2.21421 31.3335 1.58441 31.1119 1.3309C30.8032 0.982334 30.3441 0.808049 29.7347 0.808049H29.1292Z" fill="white"/>
<path d="M46.2493 13.3803L45.1214 16.4818H35.6234V16.0421C38.4174 13.4912 40.3843 11.4077 41.5241 9.79165C42.6638 8.17555 43.2337 6.69809 43.2337 5.35927C43.2337 4.33732 42.9211 3.49758 42.2958 2.84005C41.6705 2.18252 40.9225 1.85376 40.0519 1.85376C39.2604 1.85376 38.548 2.08746 37.9148 2.55486C37.2895 3.01434 36.8265 3.69167 36.5257 4.58687H36.0865C36.2843 3.12129 36.7909 1.99636 37.6061 1.21207C38.4293 0.427791 39.4543 0.0356492 40.6811 0.0356492C41.9871 0.0356492 43.0754 0.455518 43.9461 1.29525C44.8246 2.13499 45.2639 3.12525 45.2639 4.26602C45.2639 5.08199 45.0739 5.89796 44.694 6.71394C44.1083 7.99731 43.1585 9.35594 41.8446 10.7898C39.8738 12.9446 38.643 14.2438 38.1523 14.6875H42.3551C43.21 14.6875 43.8075 14.6558 44.1479 14.5924C44.4961 14.529 44.8088 14.4023 45.0858 14.2122C45.3628 14.0141 45.6042 13.7368 45.81 13.3803H46.2493Z" fill="white"/>
<path d="M50.1079 1.94882L54.0258 0.0356492H54.4176V13.6418C54.4176 14.5449 54.4532 15.1073 54.5244 15.3292C54.6036 15.551 54.7619 15.7213 54.9993 15.8401C55.2368 15.959 55.7196 16.0263 56.4478 16.0421V16.4818H50.3928V16.0421C51.1527 16.0263 51.6434 15.9629 51.865 15.852C52.0866 15.7332 52.241 15.5787 52.328 15.3886C52.4151 15.1905 52.4586 14.6083 52.4586 13.6418V4.94336C52.4586 3.7709 52.4191 3.0183 52.3399 2.68557C52.2845 2.43207 52.1816 2.2459 52.0312 2.12707C51.8888 2.00824 51.7146 1.94882 51.5088 1.94882C51.216 1.94882 50.8084 2.07162 50.286 2.3172L50.1079 1.94882Z" fill="white"/>
<path d="M80.1334 0L80.5014 5.4781H80.1334C79.6427 3.83823 78.9422 2.65785 78.032 1.93694C77.1217 1.21603 76.0295 0.855581 74.7552 0.855581C73.6866 0.855581 72.721 1.12889 71.8583 1.67551C70.9955 2.21421 70.3149 3.07772 69.8162 4.26602C69.3255 5.45433 69.0801 6.93179 69.0801 8.69841C69.0801 10.1561 69.3136 11.4196 69.7806 12.4891C70.2476 13.5586 70.9481 14.3785 71.882 14.9489C72.8239 15.5193 73.8964 15.8045 75.0995 15.8045C76.1442 15.8045 77.0663 15.5827 77.8658 15.139C78.6652 14.6875 79.5437 13.7962 80.5014 12.4653L80.8695 12.703C80.0622 14.1369 79.1203 15.1866 78.0438 15.852C76.9674 16.5175 75.6891 16.8502 74.209 16.8502C71.5417 16.8502 69.4759 15.8599 68.0116 13.8794C66.9193 12.4059 66.3732 10.671 66.3732 8.67464C66.3732 7.06647 66.7333 5.589 67.4536 4.24226C68.1739 2.89551 69.1632 1.85376 70.4217 1.11701C71.6881 0.372336 73.0693 0 74.5652 0C75.7287 0 76.8764 0.285194 78.0082 0.855581C78.3407 1.02987 78.5781 1.11701 78.7206 1.11701C78.9343 1.11701 79.1203 1.04175 79.2786 0.89123C79.4844 0.677335 79.6308 0.380258 79.7179 0H80.1334Z" fill="white"/>
<path d="M92.837 11.0869H86.6039L85.5116 13.6299C85.2425 14.2557 85.108 14.7231 85.108 15.0321C85.108 15.2777 85.2227 15.4955 85.4523 15.6857C85.6897 15.8679 86.1963 15.9867 86.972 16.0421V16.4818H81.9024V16.0421C82.5752 15.9233 83.0105 15.7688 83.2084 15.5787C83.612 15.1985 84.0592 14.4261 84.55 13.2615L90.2132 0H90.6287L96.2325 13.4041C96.6837 14.4815 97.0913 15.1826 97.4554 15.5074C97.8274 15.8243 98.3419 16.0025 98.9988 16.0421V16.4818H92.647V16.0421C93.2881 16.0105 93.7195 15.9035 93.9411 15.7213C94.1706 15.5391 94.2854 15.3173 94.2854 15.0559C94.2854 14.7073 94.1271 14.1567 93.8105 13.4041L92.837 11.0869ZM92.5045 10.2076L89.7739 3.69564L86.972 10.2076H92.5045Z" fill="white"/>
<path d="M104.27 8.93607V13.6299C104.27 14.6439 104.381 15.2737 104.603 15.5193C104.903 15.8679 105.358 16.0421 105.968 16.0421H106.585V16.4818H99.6874V16.0421H100.293C100.974 16.0421 101.46 15.8203 101.753 15.3767C101.912 15.1311 101.991 14.5488 101.991 13.6299V3.22031C101.991 2.20629 101.884 1.57649 101.67 1.3309C101.361 0.982334 100.902 0.808049 100.293 0.808049H99.6874V0.368375H105.588C107.029 0.368375 108.164 0.518894 108.995 0.819932C109.827 1.11305 110.527 1.61214 111.097 2.3172C111.667 3.02226 111.952 3.85804 111.952 4.82453C111.952 6.13959 111.516 7.20906 110.646 8.03296C109.783 8.85685 108.56 9.2688 106.977 9.2688C106.589 9.2688 106.17 9.24107 105.719 9.18561C105.267 9.13016 104.785 9.04698 104.27 8.93607ZM104.27 8.25874C104.69 8.33796 105.062 8.39737 105.386 8.43698C105.711 8.47659 105.988 8.4964 106.217 8.4964C107.04 8.4964 107.749 8.17951 108.342 7.54575C108.944 6.90407 109.245 6.07621 109.245 5.06219C109.245 4.36505 109.102 3.7194 108.817 3.12525C108.532 2.52317 108.129 2.07558 107.606 1.78246C107.084 1.48142 106.49 1.3309 105.825 1.3309C105.422 1.3309 104.903 1.40616 104.27 1.55668V8.25874Z" fill="white"/>
<path d="M120.322 16.0421V16.4818H113.424V16.0421H113.994C114.659 16.0421 115.141 15.8481 115.442 15.4599C115.632 15.2064 115.727 14.5964 115.727 13.6299V3.22031C115.727 2.40434 115.676 1.86564 115.573 1.60421C115.494 1.40616 115.331 1.23584 115.086 1.09324C114.738 0.903113 114.374 0.808049 113.994 0.808049H113.424V0.368375H120.322V0.808049H119.74C119.083 0.808049 118.604 1.00214 118.303 1.39032C118.106 1.64383 118.007 2.25382 118.007 3.22031V13.6299C118.007 14.4459 118.058 14.9846 118.161 15.246C118.24 15.444 118.406 15.6144 118.66 15.757C119 15.9471 119.36 16.0421 119.74 16.0421H120.322Z" fill="white"/>
<path d="M134.984 0.368375L135.162 4.14719H134.711C134.624 3.48174 134.505 3.00642 134.355 2.72122C134.11 2.26174 133.781 1.92506 133.37 1.71116C132.966 1.48935 132.432 1.37844 131.767 1.37844H129.499V13.6893C129.499 14.6796 129.606 15.2975 129.82 15.5431C130.121 15.8758 130.584 16.0421 131.209 16.0421H131.767V16.4818H124.94V16.0421H125.51C126.191 16.0421 126.674 15.8362 126.959 15.4242C127.133 15.1707 127.22 14.5924 127.22 13.6893V1.37844H125.284C124.533 1.37844 123.998 1.43389 123.682 1.5448C123.27 1.69532 122.918 1.98447 122.625 2.41226C122.332 2.84005 122.158 3.41836 122.103 4.14719H121.652L121.841 0.368375H134.984Z" fill="white"/>
<path d="M144.957 11.0869H138.724L137.632 13.6299C137.363 14.2557 137.228 14.7231 137.228 15.0321C137.228 15.2777 137.343 15.4955 137.573 15.6857C137.81 15.8679 138.317 15.9867 139.092 16.0421V16.4818H134.023V16.0421C134.695 15.9233 135.131 15.7688 135.329 15.5787C135.732 15.1985 136.179 14.4261 136.67 13.2615L142.333 0H142.749L148.353 13.4041C148.804 14.4815 149.212 15.1826 149.576 15.5074C149.948 15.8243 150.462 16.0025 151.119 16.0421V16.4818H144.767V16.0421C145.408 16.0105 145.84 15.9035 146.061 15.7213C146.291 15.5391 146.406 15.3173 146.406 15.0559C146.406 14.7073 146.247 14.1567 145.931 13.4041L144.957 11.0869ZM144.625 10.2076L141.894 3.69564L139.092 10.2076H144.625Z" fill="white"/>
<path d="M165.342 12.0257L165.734 12.1089L164.357 16.4818H151.891V16.0421H152.496C153.177 16.0421 153.664 15.8203 153.957 15.3767C154.123 15.1232 154.206 14.537 154.206 13.618V3.22031C154.206 2.21421 154.095 1.58441 153.873 1.3309C153.565 0.982334 153.106 0.808049 152.496 0.808049H151.891V0.368375H159.18V0.808049C158.326 0.800127 157.724 0.879347 157.376 1.04571C157.035 1.21207 156.802 1.42201 156.675 1.67551C156.549 1.92902 156.485 2.53506 156.485 3.49362V13.618C156.485 14.2755 156.549 14.7271 156.675 14.9727C156.77 15.139 156.917 15.2618 157.115 15.341C157.313 15.4203 157.93 15.4599 158.967 15.4599H160.142C161.377 15.4599 162.244 15.3688 162.742 15.1866C163.241 15.0044 163.696 14.6835 164.108 14.224C164.519 13.7566 164.931 13.0238 165.342 12.0257Z" fill="white"/>
</svg>
