<svg width="172" height="58" viewBox="0 0 172 58" fill="none" xmlns="http://www.w3.org/2000/svg">
<path d="M4.77667 51.8122C5.38983 52.0539 5.87441 52.3989 6.23044 52.8471C6.58647 53.2952 6.76448 53.8164 6.76448 54.4107C6.76448 55.1056 6.59883 55.6822 6.26752 56.1405C5.93622 56.5987 5.50108 56.9361 4.9621 57.1527C4.42311 57.3692 3.83222 57.4775 3.18939 57.4775H0V46.5548H2.77403C3.87178 46.5548 4.72227 46.7839 5.32554 47.2422C5.92881 47.7004 6.23044 48.3878 6.23044 49.3043C6.23044 49.8784 6.10435 50.3795 5.85216 50.8075C5.59998 51.2356 5.24148 51.5705 4.77667 51.8122ZM1.43893 51.3288H3.07072C3.62454 51.3288 4.04237 51.1676 4.32422 50.8453C4.60608 50.523 4.747 50.1101 4.747 49.6065C4.747 49.0526 4.57888 48.6396 4.24263 48.3677C3.90638 48.0957 3.43663 47.9598 2.83337 47.9598H1.43893V51.3288ZM3.13005 56.1178C3.7531 56.1178 4.26735 55.9743 4.67283 55.6873C5.0783 55.4002 5.28104 54.9797 5.28104 54.4258C5.28104 53.8517 5.061 53.4287 4.62091 53.1568C4.18082 52.8848 3.64926 52.7489 3.02621 52.7489H1.43893V56.1178H3.13005ZM15.0866 57.4775L12.5647 53.4438C12.4856 53.4539 12.3669 53.4589 12.2087 53.4589H10.6214V57.4775H9.18248V46.5548H12.0455C12.7773 46.5548 13.4301 46.6857 14.0037 46.9476C14.5773 47.2094 15.0272 47.5947 15.3536 48.1033C15.6799 48.6119 15.8431 49.2238 15.8431 49.9389C15.8431 50.6137 15.6972 51.2331 15.4055 51.7971C15.1138 52.3611 14.6663 52.7891 14.063 53.0812L16.7628 57.4775H15.0866ZM12.179 52.0388C12.9504 52.0388 13.5067 51.8323 13.8479 51.4194C14.1891 51.0065 14.3597 50.5331 14.3597 49.9993C14.3597 49.677 14.288 49.3597 14.1446 49.0475C14.0012 48.7353 13.7737 48.476 13.4622 48.2695C13.1507 48.063 12.7576 47.9598 12.2829 47.9598H10.6214V52.0388H12.179ZM20.4121 46.5548V57.4775H18.9732V46.5548H20.4121ZM24.9366 46.5548V56.0574H30.3956V57.4775H23.4977V46.5548H24.9366ZM34.1636 46.5548V56.0574H39.6226V57.4775H32.7246V46.5548H34.1636ZM43.3906 46.5548V57.4775H41.9516V46.5548H43.3906ZM52.0983 54.6071H47.9744L46.8321 57.4775H45.408L50.0957 46.1016H50.1847L54.8724 57.4775H53.2109L52.0983 54.6071ZM51.6088 53.338L50.0809 49.3497L48.4936 53.338H51.6088ZM66.2207 46.5548V57.8401H66.1762L58.2991 49.6971L58.3288 57.4775H56.875V46.2224H56.9492L64.8114 54.456L64.7817 46.5548H66.2207ZM77.1833 56.6617C76.8371 56.8933 76.3995 57.1074 75.8704 57.3038C75.3413 57.5002 74.7653 57.5984 74.1422 57.5984C73.0445 57.5984 72.0778 57.3516 71.2421 56.8581C70.4064 56.3646 69.7636 55.6999 69.3136 54.8639C68.8637 54.028 68.6387 53.1064 68.6387 52.0992C68.6387 51.0216 68.8661 50.0522 69.321 49.191C69.776 48.3299 70.4064 47.6551 71.2124 47.1666C72.0184 46.6782 72.9307 46.4339 73.9494 46.4339C74.5526 46.4339 75.1163 46.5145 75.6405 46.6756C76.1646 46.8368 76.6344 47.0483 77.0498 47.3102L76.4712 48.6849C75.6504 48.1209 74.8246 47.8389 73.9939 47.8389C73.3016 47.8389 72.6613 48.0252 72.0728 48.3979C71.4844 48.7706 71.0146 49.2766 70.6636 49.9162C70.3125 50.5558 70.1369 51.2582 70.1369 52.0237C70.1369 52.8093 70.2977 53.5193 70.6191 54.1539C70.9405 54.7884 71.4003 55.2844 71.9987 55.6419C72.597 55.9995 73.2868 56.1783 74.068 56.1783C75.0273 56.1783 75.863 55.9013 76.5751 55.3473L77.1833 56.6617ZM86.5734 46.5548V47.9598H81.0402V51.2834H85.9801V52.6884H81.0402V56.0574H86.7811V57.4775H79.6013V46.5548H86.5734Z" fill="#EDEBEB"/>
<path d="M4.77667 51.8122C5.38983 52.0539 5.87441 52.3989 6.23044 52.8471C6.58647 53.2952 6.76448 53.8164 6.76448 54.4107C6.76448 55.1056 6.59883 55.6822 6.26752 56.1405C5.93622 56.5987 5.50108 56.9361 4.9621 57.1527C4.42311 57.3692 3.83222 57.4775 3.18939 57.4775H0V46.5548H2.77403C3.87178 46.5548 4.72227 46.7839 5.32554 47.2422C5.92881 47.7004 6.23044 48.3878 6.23044 49.3043C6.23044 49.8784 6.10435 50.3795 5.85216 50.8075C5.59998 51.2356 5.24148 51.5705 4.77667 51.8122ZM1.43893 51.3288H3.07072C3.62454 51.3288 4.04237 51.1676 4.32422 50.8453C4.60608 50.523 4.747 50.1101 4.747 49.6065C4.747 49.0526 4.57888 48.6396 4.24263 48.3677C3.90638 48.0957 3.43663 47.9598 2.83337 47.9598H1.43893V51.3288ZM3.13005 56.1178C3.7531 56.1178 4.26735 55.9743 4.67283 55.6873C5.0783 55.4002 5.28104 54.9797 5.28104 54.4258C5.28104 53.8517 5.061 53.4287 4.62091 53.1568C4.18082 52.8848 3.64926 52.7489 3.02621 52.7489H1.43893V56.1178H3.13005ZM15.0866 57.4775L12.5647 53.4438C12.4856 53.4539 12.3669 53.4589 12.2087 53.4589H10.6214V57.4775H9.18248V46.5548H12.0455C12.7773 46.5548 13.4301 46.6857 14.0037 46.9476C14.5773 47.2094 15.0272 47.5947 15.3536 48.1033C15.6799 48.6119 15.8431 49.2238 15.8431 49.9389C15.8431 50.6137 15.6972 51.2331 15.4055 51.7971C15.1138 52.3611 14.6663 52.7891 14.063 53.0812L16.7628 57.4775H15.0866ZM12.179 52.0388C12.9504 52.0388 13.5067 51.8323 13.8479 51.4194C14.1891 51.0065 14.3597 50.5331 14.3597 49.9993C14.3597 49.677 14.288 49.3597 14.1446 49.0475C14.0012 48.7353 13.7737 48.476 13.4622 48.2695C13.1507 48.063 12.7576 47.9598 12.2829 47.9598H10.6214V52.0388H12.179ZM20.4121 46.5548V57.4775H18.9732V46.5548H20.4121ZM24.9366 46.5548V56.0574H30.3956V57.4775H23.4977V46.5548H24.9366ZM34.1636 46.5548V56.0574H39.6226V57.4775H32.7246V46.5548H34.1636ZM43.3906 46.5548V57.4775H41.9516V46.5548H43.3906ZM52.0983 54.6071H47.9744L46.8321 57.4775H45.408L50.0957 46.1016H50.1847L54.8724 57.4775H53.2109L52.0983 54.6071ZM51.6088 53.338L50.0809 49.3497L48.4936 53.338H51.6088ZM66.2207 46.5548V57.8401H66.1762L58.2991 49.6971L58.3288 57.4775H56.875V46.2224H56.9492L64.8114 54.456L64.7817 46.5548H66.2207ZM77.1833 56.6617C76.8371 56.8933 76.3995 57.1074 75.8704 57.3038C75.3413 57.5002 74.7653 57.5984 74.1422 57.5984C73.0445 57.5984 72.0778 57.3516 71.2421 56.8581C70.4064 56.3646 69.7636 55.6999 69.3136 54.8639C68.8637 54.028 68.6387 53.1064 68.6387 52.0992C68.6387 51.0216 68.8661 50.0522 69.321 49.191C69.776 48.3299 70.4064 47.6551 71.2124 47.1666C72.0184 46.6782 72.9307 46.4339 73.9494 46.4339C74.5526 46.4339 75.1163 46.5145 75.6405 46.6756C76.1646 46.8368 76.6344 47.0483 77.0498 47.3102L76.4712 48.6849C75.6504 48.1209 74.8246 47.8389 73.9939 47.8389C73.3016 47.8389 72.6613 48.0252 72.0728 48.3979C71.4844 48.7706 71.0146 49.2766 70.6636 49.9162C70.3125 50.5558 70.1369 51.2582 70.1369 52.0237C70.1369 52.8093 70.2977 53.5193 70.6191 54.1539C70.9405 54.7884 71.4003 55.2844 71.9987 55.6419C72.597 55.9995 73.2868 56.1783 74.068 56.1783C75.0273 56.1783 75.863 55.9013 76.5751 55.3473L77.1833 56.6617ZM86.5734 46.5548V47.9598H81.0402V51.2834H85.9801V52.6884H81.0402V56.0574H86.7811V57.4775H79.6013V46.5548H86.5734Z" fill="#EDEBEB"/>
<path d="M100.969 46.3678L95.9844 58.0006L91 46.3678H93.5812L96.0734 52.6374L98.4172 46.3678H100.969ZM110.3 46.3678V48.4829H105.004V50.8547H109.691V52.9698H105.004V55.3719H110.507V57.4869H102.853V46.3678H110.3ZM122.568 46.3678V57.9401H122.508L114.869 50.9152L114.913 57.4869H112.732V45.9297H112.821L120.446 53.0604L120.402 46.3678H122.568ZM132.002 46.3678V48.4829H129.347V57.4869H127.196V48.4829H124.644V46.3678H132.002ZM136.007 53.3777C136.007 53.7302 136.111 54.0676 136.319 54.3899C136.527 54.7122 136.804 54.974 137.15 55.1755C137.496 55.3769 137.867 55.4776 138.262 55.4776C138.688 55.4776 139.078 55.3769 139.434 55.1755C139.79 54.974 140.07 54.7122 140.272 54.3899C140.475 54.0676 140.576 53.7302 140.576 53.3777V46.3678H142.698V53.423C142.698 54.2187 142.5 54.9363 142.104 55.5758C141.709 56.2154 141.172 56.7139 140.495 57.0715C139.817 57.429 139.073 57.6078 138.262 57.6078C137.451 57.6078 136.71 57.429 136.037 57.0715C135.365 56.7139 134.833 56.2154 134.442 55.5758C134.052 54.9363 133.857 54.2187 133.857 53.423V46.3678H136.007V53.3777ZM151.183 57.4869L148.884 53.9518H147.445V57.4869H145.294V46.3678H148.602C149.957 46.3678 151.008 46.7027 151.754 47.3725C152.501 48.0422 152.874 48.9562 152.874 50.1145C152.874 50.7993 152.733 51.4414 152.451 52.0407C152.17 52.6399 151.737 53.1108 151.153 53.4532L153.69 57.4869H151.183ZM147.445 51.8367H148.973C149.556 51.8367 149.981 51.663 150.248 51.3155C150.516 50.968 150.649 50.5929 150.649 50.19C150.649 49.7871 150.535 49.4019 150.308 49.0343C150.08 48.6667 149.64 48.4829 148.988 48.4829H147.445V51.8367ZM162.917 46.3678V48.4829H157.621V50.8547H162.309V52.9698H157.621V55.3719H163.125V57.4869H155.47V46.3678H162.917ZM171.18 49.0569C170.23 48.5231 169.405 48.2562 168.702 48.2562C168.228 48.2562 167.859 48.3519 167.597 48.5433C167.335 48.7346 167.204 49.0217 167.204 49.4044C167.204 49.7569 167.395 50.0666 167.775 50.3335C168.156 50.6004 168.663 50.8547 169.296 51.0964C169.81 51.2878 170.25 51.5069 170.616 51.7536C170.982 52.0004 171.286 52.3403 171.528 52.7734C171.771 53.2065 171.892 53.7554 171.892 54.4201C171.892 54.9942 171.746 55.5255 171.454 56.0139C171.162 56.5024 170.735 56.8902 170.171 57.1772C169.607 57.4642 168.935 57.6078 168.154 57.6078C167.501 57.6078 166.853 57.5096 166.21 57.3132C165.567 57.1168 164.969 56.8171 164.415 56.4143L165.365 54.7071C165.741 54.9891 166.171 55.2208 166.655 55.4021C167.14 55.5834 167.575 55.674 167.961 55.674C168.416 55.674 168.811 55.5758 169.147 55.3794C169.484 55.183 169.652 54.8632 169.652 54.4201C169.652 53.846 169.123 53.3475 168.065 52.9245C167.442 52.6727 166.922 52.4309 166.507 52.1993C166.092 51.9676 165.733 51.6353 165.431 51.2022C165.13 50.7691 164.979 50.2253 164.979 49.5706C164.979 48.6138 165.288 47.8433 165.906 47.2591C166.524 46.675 167.348 46.3577 168.376 46.3074C169.187 46.3074 169.864 46.4005 170.408 46.5869C170.952 46.7732 171.481 47.0376 171.996 47.38L171.18 49.0569Z" fill="#EDEBEB"/>
<path d="M100.969 46.3678L95.9844 58.0006L91 46.3678H93.5812L96.0734 52.6374L98.4172 46.3678H100.969ZM110.3 46.3678V48.4829H105.004V50.8547H109.691V52.9698H105.004V55.3719H110.507V57.4869H102.853V46.3678H110.3ZM122.568 46.3678V57.9401H122.508L114.869 50.9152L114.913 57.4869H112.732V45.9297H112.821L120.446 53.0604L120.402 46.3678H122.568ZM132.002 46.3678V48.4829H129.347V57.4869H127.196V48.4829H124.644V46.3678H132.002ZM136.007 53.3777C136.007 53.7302 136.111 54.0676 136.319 54.3899C136.527 54.7122 136.804 54.974 137.15 55.1755C137.496 55.3769 137.867 55.4776 138.262 55.4776C138.688 55.4776 139.078 55.3769 139.434 55.1755C139.79 54.974 140.07 54.7122 140.272 54.3899C140.475 54.0676 140.576 53.7302 140.576 53.3777V46.3678H142.698V53.423C142.698 54.2187 142.5 54.9363 142.104 55.5758C141.709 56.2154 141.172 56.7139 140.495 57.0715C139.817 57.429 139.073 57.6078 138.262 57.6078C137.451 57.6078 136.71 57.429 136.037 57.0715C135.365 56.7139 134.833 56.2154 134.442 55.5758C134.052 54.9363 133.857 54.2187 133.857 53.423V46.3678H136.007V53.3777ZM151.183 57.4869L148.884 53.9518H147.445V57.4869H145.294V46.3678H148.602C149.957 46.3678 151.008 46.7027 151.754 47.3725C152.501 48.0422 152.874 48.9562 152.874 50.1145C152.874 50.7993 152.733 51.4414 152.451 52.0407C152.17 52.6399 151.737 53.1108 151.153 53.4532L153.69 57.4869H151.183ZM147.445 51.8367H148.973C149.556 51.8367 149.981 51.663 150.248 51.3155C150.516 50.968 150.649 50.5929 150.649 50.19C150.649 49.7871 150.535 49.4019 150.308 49.0343C150.08 48.6667 149.64 48.4829 148.988 48.4829H147.445V51.8367ZM162.917 46.3678V48.4829H157.621V50.8547H162.309V52.9698H157.621V55.3719H163.125V57.4869H155.47V46.3678H162.917ZM171.18 49.0569C170.23 48.5231 169.405 48.2562 168.702 48.2562C168.228 48.2562 167.859 48.3519 167.597 48.5433C167.335 48.7346 167.204 49.0217 167.204 49.4044C167.204 49.7569 167.395 50.0666 167.775 50.3335C168.156 50.6004 168.663 50.8547 169.296 51.0964C169.81 51.2878 170.25 51.5069 170.616 51.7536C170.982 52.0004 171.286 52.3403 171.528 52.7734C171.771 53.2065 171.892 53.7554 171.892 54.4201C171.892 54.9942 171.746 55.5255 171.454 56.0139C171.162 56.5024 170.735 56.8902 170.171 57.1772C169.607 57.4642 168.935 57.6078 168.154 57.6078C167.501 57.6078 166.853 57.5096 166.21 57.3132C165.567 57.1168 164.969 56.8171 164.415 56.4143L165.365 54.7071C165.741 54.9891 166.171 55.2208 166.655 55.4021C167.14 55.5834 167.575 55.674 167.961 55.674C168.416 55.674 168.811 55.5758 169.147 55.3794C169.484 55.183 169.652 54.8632 169.652 54.4201C169.652 53.846 169.123 53.3475 168.065 52.9245C167.442 52.6727 166.922 52.4309 166.507 52.1993C166.092 51.9676 165.733 51.6353 165.431 51.2022C165.13 50.7691 164.979 50.2253 164.979 49.5706C164.979 48.6138 165.288 47.8433 165.906 47.2591C166.524 46.675 167.348 46.3577 168.376 46.3074C169.187 46.3074 169.864 46.4005 170.408 46.5869C170.952 46.7732 171.481 47.0376 171.996 47.38L171.18 49.0569Z" fill="#EDEBEB"/>
<path d="M86.3913 15.8906V15.9193L101.982 31.7824H70.7734L86.3913 15.8906Z" fill="#EDEBEB"/>
<path d="M101.985 0L86.3987 15.8917L78.5781 7.94587L86.3705 0H101.985Z" fill="#FFFDFD"/>
<path d="M86.3779 15.8716V15.9289L70.8001 31.7829H70.7734V15.9289L78.5757 7.94531L86.3779 15.8716Z" fill="#F9F8F8"/>
<path d="M101.979 0V31.7835H101.951L86.375 15.9137L101.979 0Z" fill="white"/>
</svg>
