<svg width="142" height="56" viewBox="0 0 142 56" fill="none" xmlns="http://www.w3.org/2000/svg">
<path fill-rule="evenodd" clip-rule="evenodd" d="M26.2449 0.429081C25.6161 0.654492 25.0159 0.887906 24.9111 0.947545C24.8063 1.00738 24.2396 1.21392 23.6516 1.40675L22.5826 1.75715L22.3178 2.91755C22.0562 4.06365 22.0423 4.08118 21.1955 4.32565C20.7239 4.46188 19.6702 4.78256 18.8541 5.03827C18.0378 5.29398 16.6268 5.85798 15.7183 6.29165C14.8098 6.72532 13.5913 7.38802 13.0103 7.76453C12.4293 8.14104 11.2682 9.0061 10.4298 9.68709C9.59138 10.3681 8.61619 11.228 8.26273 11.5982C7.90927 11.9684 7.12842 12.8716 6.52764 13.6052C5.92685 14.3388 5.12657 15.422 4.7493 16.0123C4.37202 16.6028 3.75599 17.7171 3.38043 18.4888C3.00487 19.2604 2.45096 20.6209 2.14952 21.5121C1.84808 22.4032 1.44413 23.8182 1.25206 24.6566C0.979012 25.848 0.902604 26.9716 0.902604 29.8012C0.902604 32.5577 0.984347 33.8079 1.24501 35.0411C1.43346 35.9318 1.63181 36.8095 1.68574 36.9914C1.75662 37.23 1.59523 37.4123 1.10706 37.6452C0.734735 37.8226 0.391566 38.1025 0.344502 38.2669C0.297438 38.4315 0.200831 39.7716 0.129568 41.2451L0 43.9241L2.20325 45.3912C3.41492 46.1982 4.53589 46.9081 4.69423 46.9687C4.85238 47.0295 5.33045 46.8834 5.75651 46.644L6.53107 46.2087L6.84508 46.6745C7.01791 46.9308 7.89517 47.8568 8.79453 48.7324C9.6939 49.6079 11.2491 50.8704 12.2506 51.5379C13.2521 52.2054 14.7955 53.0906 15.6804 53.5052C16.5653 53.9197 17.9711 54.4814 18.8043 54.7533C19.6376 55.0252 21.2605 55.4169 22.4104 55.6241C23.7686 55.8687 25.3411 56.0004 26.8975 56C28.2153 55.9996 30.0653 55.8678 31.0085 55.7071C31.9517 55.5463 33.3236 55.2355 34.0572 55.0164C34.7907 54.7973 35.9054 54.4103 36.5342 54.1563C37.163 53.9025 38.1062 53.4734 38.6302 53.2032C39.1542 52.9329 40.0116 52.4491 40.5356 52.128C41.0596 51.8071 42.1823 51.0095 43.0304 50.3558C43.8787 49.7019 45.147 48.5468 45.8487 47.7886L47.125 46.4103L47.7477 46.7073C48.3645 47.0015 48.394 46.9927 50.8661 45.7975C53.0581 44.7375 53.3746 44.5254 53.465 44.0554C53.5217 43.761 53.617 42.4055 53.6768 41.0431L53.7858 38.5661L52.8769 37.9676C52.3771 37.6383 51.989 37.2757 52.0145 37.1618C52.0399 37.0478 52.2363 36.1662 52.4511 35.2026C52.6656 34.2391 52.8914 32.3723 52.9526 31.0544C53.0143 29.7232 52.9722 27.923 52.8581 27.0048C52.7449 26.0955 52.4724 24.6072 52.2523 23.697C52.0325 22.787 51.5925 21.3873 51.275 20.5866C50.9574 19.786 50.3427 18.4449 49.909 17.6065C49.4754 16.7682 49.0554 15.9965 48.9758 15.8917C48.8959 15.7869 48.3792 15.0882 47.8272 14.339C47.2752 13.5898 46.3775 12.5058 45.8322 11.9303C45.2868 11.3549 44.3436 10.4571 43.7362 9.93517C43.1287 9.41347 42.1998 8.68751 41.6722 8.32224C41.1444 7.95679 40.0726 7.30704 39.2904 6.87832C38.5081 6.44961 37.0769 5.79376 36.1099 5.42088C35.1431 5.04799 33.9211 4.65052 33.3946 4.53772C32.5776 4.36242 32.4375 4.26734 32.4375 3.88778C32.4375 3.59264 32.1674 3.22984 31.6329 2.80799C31.1904 2.45853 30.272 1.6796 29.592 1.07711C28.7372 0.319711 28.2063 -0.0125926 27.8719 0.000364152C27.6057 0.0108439 26.8737 0.203862 26.2449 0.429081ZM22.3285 8.25917L22.7659 8.72467L21.8271 10.3075C21.3108 11.1781 20.089 13.2378 19.1119 14.8849C17.5631 17.496 17.2916 17.856 16.9915 17.6953C16.8023 17.5942 16.5054 17.5113 16.3317 17.5113C16.1579 17.5113 14.9508 18.0473 13.6492 18.7022C12.3476 19.3572 11.2476 20.0217 11.2049 20.1789C11.162 20.336 11.0698 21.6773 10.9999 23.1593L10.8728 25.8537L11.461 26.2013C11.7847 26.3924 12.0494 26.6327 12.0494 26.7348C12.0494 26.8371 11.6963 27.5261 11.2645 28.2658C10.833 29.0055 10.2853 29.9107 10.0477 30.2775C9.81013 30.6443 8.95001 32.0804 8.13658 33.4691C7.32296 34.8577 6.56308 35.9911 6.44761 35.9877C6.33214 35.9844 6.08386 35.8648 5.8956 35.722C5.70716 35.5793 5.39752 35.5031 5.20736 35.5528C4.93241 35.6249 4.81941 35.4745 4.65497 34.8181C4.54122 34.3644 4.35239 33.2214 4.23502 32.2782C4.11688 31.3274 4.07496 29.7568 4.14108 28.7532C4.20663 27.7576 4.38745 26.32 4.54294 25.5584C4.69842 24.7968 5.04711 23.5107 5.31788 22.7003C5.58864 21.8899 6.11035 20.6266 6.47714 19.893C6.84394 19.1595 7.64974 17.8196 8.26787 16.9153C8.8858 16.0111 10.1824 14.5106 11.1493 13.5808C12.1159 12.651 13.6357 11.4115 14.5265 10.8265C15.4172 10.2416 16.8978 9.44263 17.8166 9.05106C18.7354 8.6595 19.85 8.22488 20.2936 8.08521C20.7372 7.94554 21.2782 7.82284 21.4958 7.81255C21.7132 7.80207 22.088 8.00309 22.3285 8.25917ZM33.6263 8.17324C34.3022 8.38208 35.4247 8.81098 36.1209 9.12671C36.817 9.44244 37.8808 10.012 38.4848 10.3925C39.0888 10.7728 40.0545 11.4361 40.6309 11.8661C41.2073 12.2962 42.31 13.2921 43.0815 14.0793C43.8528 14.8666 44.7476 15.8964 45.0696 16.368C45.3916 16.8396 45.7173 17.2685 45.7931 17.3211C45.8689 17.3737 46.2767 18.0597 46.6993 18.8454C47.122 19.6312 47.7262 20.9214 48.0417 21.7125C48.3574 22.5036 48.8069 23.9613 49.0405 24.9517C49.3795 26.3884 49.4681 27.3495 49.4784 29.7059C49.4858 31.4242 49.3841 33.2393 49.2349 34.0461C48.9899 35.372 48.946 35.4494 48.2382 35.8106L47.4977 36.1883L47.048 35.4719C46.8007 35.0776 46.3657 34.3364 46.0812 33.8246C45.7967 33.3128 45.2619 32.4217 44.8926 31.8443C44.5231 31.267 44.1384 30.6138 44.0374 30.3932C43.9365 30.1723 43.7503 29.82 43.6238 29.6101C43.4972 29.4001 43.0584 28.6802 42.6486 28.0103C41.9956 26.9431 41.9401 26.7653 42.2002 26.5751C42.3849 26.4402 42.5379 25.9286 42.6049 25.2215C42.6642 24.5964 42.7673 23.2992 42.834 22.3388L42.9553 20.5929L40.6555 19.052C39.3257 18.161 38.1571 17.5113 37.8848 17.5113C37.626 17.5113 37.3612 17.597 37.2964 17.7018C37.2316 17.8066 37.0696 17.8924 36.9365 17.8924C36.8035 17.8924 36.0461 16.799 35.2534 15.463C34.4609 14.1269 33.6218 12.6906 33.3885 12.2714C33.1553 11.8522 32.8032 11.2817 32.6058 11.0035C32.4084 10.7253 32.247 10.4432 32.247 10.3765C32.247 10.3098 32.0765 10.023 31.8682 9.73911C31.5797 9.34583 31.5176 9.05259 31.6073 8.50821C31.6916 7.99718 31.8209 7.79368 32.0614 7.79368C32.2462 7.79368 32.9505 7.96441 33.6263 8.17324ZM30.7011 14.2721C31.7196 16.0012 32.8019 17.8594 33.1065 18.4013L33.6603 19.3866L33.2453 19.7351C32.8748 20.046 32.8087 20.378 32.6304 22.8226C32.4911 24.7294 32.4909 25.6346 32.6298 25.8017C32.7394 25.934 33.8247 26.7051 35.0417 27.5154L37.2543 28.9891L37.901 28.6806C38.2567 28.5108 38.6578 28.3721 38.7922 28.3721C38.9265 28.3721 39.2397 28.7366 39.4886 29.1819C39.7373 29.6272 40.7818 31.3968 41.8102 33.1139C42.8383 34.8311 43.6796 36.2756 43.6796 36.3238C43.6796 36.3718 43.861 36.6662 44.0828 36.9775C44.4852 37.5427 44.4852 37.5446 44.1066 37.8973C43.7753 38.2059 43.7093 38.6074 43.5868 41.0591C43.4469 43.8559 43.4483 43.8688 43.8921 44.2036L44.3377 44.5397L42.8166 46.0305C41.9801 46.8506 40.653 47.962 39.8676 48.5003C39.0822 49.0388 37.7537 49.8244 36.9153 50.2462C36.0769 50.6681 34.8336 51.2005 34.1524 51.4293C33.4712 51.6581 32.1851 52.0068 31.2943 52.204C30.1577 52.4557 28.9075 52.5638 27.1023 52.5664C25.6875 52.5685 23.8294 52.447 22.9729 52.2963C22.1164 52.1455 20.6383 51.7618 19.6885 51.4436C18.7384 51.1252 17.51 50.6374 16.9584 50.3594C16.4067 50.0814 15.3553 49.469 14.6217 48.9984C13.8881 48.5279 12.8163 47.7479 12.2399 47.2648C11.6635 46.782 10.8697 46.0419 10.4761 45.6203C10.0123 45.1237 9.80575 44.7533 9.88959 44.5681C9.96066 44.4109 10.0977 43.0415 10.1943 41.525L10.3696 38.7677L9.8772 38.3751L9.38483 37.9826L11.2213 34.8446C12.2314 33.1187 13.1557 31.5351 13.2753 31.3255C13.3948 31.1159 13.7763 30.4515 14.1231 29.8488C14.4697 29.2463 14.8275 28.7075 14.918 28.6514C15.0085 28.5956 15.2406 28.6484 15.4338 28.769C15.7181 28.9466 15.9776 28.8908 16.7985 28.4748C17.3558 28.1922 17.8777 28.0322 17.958 28.1191C18.0384 28.2058 18.5639 28.826 19.1258 29.4971C19.6877 30.1682 20.6033 31.2798 21.1602 31.9674L22.173 33.2176L22.0682 34.558C22.0104 35.2952 21.9405 36.5844 21.9127 37.4228L21.8624 38.9471L24.1489 40.5044C25.4065 41.3609 26.5006 42.0682 26.58 42.0764C26.6595 42.0844 27.8742 41.5292 29.2791 40.8425L31.8333 39.5937L31.9467 37.9367C32.009 37.0252 32.1026 35.7022 32.1546 34.9967L32.2491 33.7137L29.9538 32.1862C28.6915 31.3461 27.5067 30.6586 27.3209 30.6586C27.1353 30.6586 26.6161 30.836 26.1669 31.053C25.718 31.2699 25.2386 31.4044 25.1018 31.352C24.965 31.2994 24.3859 30.6718 23.8151 29.9572C23.2444 29.2425 22.357 28.1663 21.8435 27.5656L20.9097 26.4732L21.0324 24.5169C21.0998 23.4409 21.1642 22.0822 21.1753 21.4972C21.1934 20.5477 21.1444 20.4065 20.7191 20.1789C20.4571 20.0386 20.2428 19.8304 20.2428 19.7158C20.2428 19.6015 20.8514 18.4798 21.5954 17.2234C22.3393 15.9669 23.0895 14.6955 23.2627 14.398C23.4357 14.1006 23.9881 13.1803 24.4902 12.3529C25.3154 10.9932 25.4379 10.8707 25.7672 11.0763C26.062 11.2604 26.3422 11.2261 27.2361 10.897C28.2635 10.5188 28.3586 10.5127 28.5952 10.8092C28.7351 10.9847 29.6827 12.5429 30.7011 14.2721ZM62.9996 15.3706C62.8837 15.4475 62.3405 16.711 61.7923 18.1782C61.2441 19.6453 60.4509 21.7247 60.0296 22.7992C59.6083 23.8734 59.3129 24.881 59.3731 25.038C59.4478 25.2326 59.7535 25.3235 60.3333 25.3235C61.0492 25.3235 61.2048 25.2556 61.3163 24.8947C61.3891 24.6589 61.6154 24.0158 61.8191 23.4657L62.1897 22.4653H63.862H65.5342L65.8682 23.2751C66.0519 23.7204 66.3175 24.3567 66.4585 24.689L66.7146 25.293L70.8172 25.3115L74.92 25.3297L75.0354 24.8696C75.0989 24.6166 75.1223 24.2078 75.0874 23.9615C75.0255 23.5236 74.9727 23.5122 72.7851 23.4596L70.5462 23.406L70.5434 19.5535C70.5416 17.4347 70.4687 15.588 70.381 15.4498C70.2812 15.2922 69.9443 15.2212 69.4788 15.2593L68.7361 15.3201L68.6408 19.9675L68.5455 24.6148L66.7527 20.1581C65.7666 17.7068 64.8772 15.5941 64.7762 15.463C64.6754 15.3321 64.2817 15.2261 63.9016 15.2276C63.5213 15.2294 63.1154 15.2936 62.9996 15.3706ZM75.7385 15.4367C75.5613 15.6194 75.5004 16.8646 75.5004 20.3056C75.5004 24.5184 75.5299 24.9437 75.8338 25.095C76.0171 25.1865 76.4245 25.2537 76.7389 25.2448L77.3105 25.2282L77.3648 23.3929L77.4191 21.5576L79.175 21.4797C80.4114 21.4248 81.1526 21.2912 81.6806 21.0285C82.0932 20.8233 82.6002 20.4229 82.8077 20.139C83.0331 19.8305 83.2196 19.2016 83.2717 18.5754C83.3446 17.6953 83.2791 17.3924 82.8628 16.682C82.5407 16.1323 82.149 15.7532 81.7443 15.5988C81.4017 15.4683 79.9638 15.3233 78.549 15.2764C76.6095 15.2122 75.9182 15.2516 75.7385 15.4367ZM84.0007 15.5243C83.9374 15.6889 83.9353 17.895 83.9959 20.4267C84.0567 22.9583 84.1426 25.0887 84.1874 25.1609C84.232 25.2331 84.5893 25.2743 84.9814 25.2524L85.6944 25.2128L85.7897 23.0293L85.885 20.8457L87.9333 20.7916L89.9817 20.7375V22.662C89.9817 23.7204 90.0704 24.7522 90.1789 24.955C90.3004 25.1819 90.5748 25.3223 90.8934 25.3206C91.1779 25.3189 91.5193 25.2486 91.6523 25.1644C91.8391 25.0457 91.8823 23.915 91.8429 20.1655L91.7918 15.3201L91.1333 15.2574C90.6708 15.2133 90.4014 15.2951 90.2282 15.5319C90.0737 15.7434 89.9817 16.4555 89.9817 17.4396C89.9817 18.7759 89.9319 19.0225 89.6482 19.0947C89.4649 19.1412 88.543 19.1684 87.5999 19.1551L85.885 19.1309L85.8741 17.416C85.868 16.4728 85.8467 15.5941 85.8265 15.463C85.8034 15.3141 85.4757 15.2248 84.9526 15.2248C84.3675 15.2248 84.0811 15.3149 84.0007 15.5243ZM95.8822 15.3664C95.6939 15.4056 94.9668 17.0666 93.8339 20.0459C92.868 22.5861 92.0776 24.764 92.0776 24.8858C92.0776 25.0075 92.2278 25.1527 92.4111 25.2082C92.5944 25.2638 92.9831 25.281 93.2748 25.2467C93.5663 25.2122 93.8316 25.151 93.8642 25.1108C93.8967 25.0706 94.1241 24.4588 94.3695 23.7515L94.8157 22.4653H96.5741H98.3322L98.8356 23.7827C99.1125 24.5074 99.4699 25.1504 99.63 25.2118C99.7901 25.2732 100.174 25.3235 100.483 25.3235C100.802 25.3235 101.092 25.2023 101.153 25.0428C101.212 24.8883 100.698 23.3664 100.011 21.6607C99.3234 19.955 98.4576 17.8337 98.0868 16.9469C97.7162 16.0599 97.4128 15.3071 97.4128 15.2736C97.4128 15.2402 97.1343 15.2337 96.7936 15.2591C96.4529 15.2846 96.0428 15.3328 95.8822 15.3664ZM104.463 15.354C104.306 15.4191 104.114 15.5668 104.037 15.6821C103.96 15.7974 103.896 17.9175 103.894 20.3938C103.892 24.0356 103.943 24.9382 104.16 25.1184C104.307 25.241 104.629 25.3136 104.874 25.2798C105.12 25.2461 105.428 25.1514 105.559 25.0693C105.732 24.9607 105.799 24.1282 105.803 22.0254L105.81 19.1309L106.807 22.03C107.355 23.6244 107.898 25.0239 108.014 25.14C108.13 25.2562 108.506 25.3235 108.85 25.2897L109.475 25.2282L110.446 22.3264C110.981 20.7303 111.49 19.4228 111.577 19.4207C111.665 19.4184 111.702 20.2526 111.66 21.2745C111.617 22.2963 111.631 23.6038 111.691 24.1802C111.789 25.1297 111.844 25.2314 112.275 25.2623C112.537 25.2812 112.902 25.2539 113.085 25.2019C113.391 25.115 113.418 24.7135 113.418 20.265V15.4226L112.99 15.3185C112.754 15.2612 112.279 15.2488 111.934 15.2907C111.589 15.3328 111.27 15.4047 111.224 15.4504C111.178 15.4961 110.616 17.0719 109.975 18.952C109.334 20.8318 108.786 22.3945 108.758 22.4242C108.729 22.4539 108.211 20.9829 107.607 19.1553C107.003 17.3276 106.446 15.732 106.37 15.6093C106.295 15.4868 105.899 15.3524 105.491 15.3111C105.083 15.2696 104.62 15.289 104.463 15.354ZM116.929 15.495C116.606 15.6356 116.032 16.0232 115.652 16.3566C115.226 16.7301 114.812 17.363 114.571 18.0063C114.328 18.6551 114.181 19.5068 114.181 20.2574C114.181 20.9214 114.306 21.8198 114.459 22.2538C114.612 22.6879 114.97 23.3477 115.254 23.7204C115.538 24.0929 116.182 24.6059 116.684 24.8606C117.385 25.2158 117.899 25.3235 118.893 25.3235C119.842 25.3235 120.391 25.2164 120.948 24.9224C121.365 24.7017 121.911 24.3372 122.161 24.1126C122.411 23.8877 122.817 23.2751 123.064 22.7512C123.409 22.0206 123.514 21.4705 123.515 20.3915C123.517 19.6177 123.412 18.6317 123.284 18.2003C123.143 17.7253 122.702 17.0652 122.166 16.5268C121.628 15.9868 120.99 15.5569 120.541 15.4323C120.134 15.3193 119.287 15.2297 118.658 15.2334C118.03 15.2368 117.251 15.3545 116.929 15.495ZM126.757 15.4757C126.391 15.5925 125.739 16.05 125.309 16.4926C124.748 17.0698 124.438 17.6138 124.213 18.4171C124.04 19.0329 123.898 19.8803 123.898 20.2997C123.898 20.7192 124.032 21.5117 124.195 22.061C124.368 22.6444 124.784 23.3843 125.195 23.8403C125.582 24.2696 126.242 24.777 126.661 24.9679C127.146 25.1887 127.878 25.3166 128.672 25.3193C129.636 25.3225 130.144 25.2122 130.901 24.8351C131.566 24.5038 132.063 24.0726 132.445 23.495C132.756 23.0267 133.114 22.2075 133.242 21.6746C133.37 21.1418 133.427 20.2507 133.37 19.6945C133.313 19.1383 133.1 18.3123 132.897 17.859C132.695 17.4057 132.28 16.7868 131.977 16.4837C131.673 16.1805 131.082 15.7751 130.663 15.5828C130.155 15.3498 129.487 15.2383 128.662 15.2484C127.981 15.2568 127.124 15.3591 126.757 15.4757ZM134.426 15.4212C133.998 15.5935 133.997 15.599 133.997 20.2568C133.997 23.7799 134.055 24.9567 134.235 25.0706C134.366 25.1533 134.707 25.2341 134.993 25.2497C135.279 25.2655 135.598 25.1752 135.702 25.0493C135.807 24.9233 135.916 23.4796 135.945 21.8411L135.998 18.862L138.078 21.9947C139.949 24.8126 140.222 25.1396 140.795 25.2471C141.189 25.321 141.541 25.2766 141.716 25.1312C141.954 24.9342 142 24.1211 142 20.1556C142 17.5484 141.936 15.4068 141.857 15.3965C141.778 15.386 141.414 15.3645 141.047 15.3488L140.38 15.3201L140.285 18.5593L140.19 21.7985L138.061 18.6328C136.89 16.8918 135.79 15.4127 135.616 15.346C135.442 15.2793 135.2 15.2303 135.077 15.2368C134.955 15.2435 134.662 15.3265 134.426 15.4212ZM120.095 17.1778C120.691 17.4787 121.057 17.8339 121.322 18.3687C121.573 18.8757 121.698 19.5137 121.696 20.2741C121.694 20.9999 121.562 21.6866 121.334 22.1544C121.137 22.5597 120.711 23.0524 120.389 23.2492C120.024 23.4714 119.445 23.6074 118.861 23.6078C118.201 23.6084 117.736 23.4825 117.305 23.1871C116.967 22.9554 116.554 22.481 116.388 22.1329C116.208 21.7562 116.086 20.998 116.086 20.2615C116.086 19.5805 116.203 18.7435 116.346 18.4015C116.489 18.0595 116.846 17.6224 117.139 17.4301C117.433 17.2379 117.895 17.0134 118.166 16.9313C118.437 16.8491 118.79 16.7745 118.951 16.7655C119.113 16.7565 119.627 16.9419 120.095 17.1778ZM130.182 17.2792C130.446 17.4715 130.856 18.0065 131.091 18.4678C131.345 18.964 131.52 19.6512 131.52 20.1495C131.52 20.6129 131.42 21.3276 131.297 21.7379C131.174 22.1481 130.785 22.7367 130.433 23.0461C129.895 23.5183 129.629 23.6086 128.779 23.6086C128.043 23.6086 127.589 23.4903 127.118 23.1761C126.762 22.9383 126.321 22.4451 126.138 22.0805C125.953 21.7125 125.805 20.9932 125.805 20.4647C125.806 19.9407 125.891 19.2069 125.994 18.8342C126.098 18.4615 126.428 17.9215 126.728 17.6344C127.027 17.347 127.521 17.034 127.824 16.9383C128.128 16.8429 128.674 16.8019 129.039 16.8472C129.403 16.8926 129.917 17.0869 130.182 17.2792ZM81.0261 17.5113C81.2357 17.7209 81.4072 18.0522 81.4072 18.2477C81.4072 18.4432 81.2294 18.8291 81.0122 19.1052C80.6414 19.5765 80.5195 19.6072 79.0115 19.6072H77.4058V18.3687V17.1302H79.0254C80.391 17.1302 80.7049 17.19 81.0261 17.5113ZM97.4795 20.2265L97.6106 20.7505H96.559C95.9807 20.7505 95.5074 20.7126 95.5074 20.6661C95.5074 20.6198 95.7364 19.9639 96.0164 19.2086L96.5253 17.8356L96.9369 18.769C97.1632 19.2824 97.4073 19.9384 97.4795 20.2265ZM64.3433 19.1785C64.5331 19.7812 64.7295 20.3814 64.7796 20.5123C64.8452 20.6836 64.5976 20.7505 63.8976 20.7505C63.3624 20.7505 62.9245 20.6922 62.9245 20.6209C62.9245 20.5498 63.1076 19.9496 63.3313 19.2871C63.555 18.6248 63.7966 18.0829 63.8681 18.0829C63.9397 18.0829 64.1535 18.5758 64.3433 19.1785ZM63.044 30.9267C62.6383 31.0778 62.0011 31.4482 61.6284 31.75C61.2555 32.0517 60.7824 32.6225 60.577 33.0186C60.3714 33.4146 60.1496 34.2246 60.0839 34.8185C60.0181 35.4126 60.0216 36.3386 60.0913 36.8767C60.161 37.4148 60.3699 38.1749 60.5555 38.5661C60.7411 38.9571 61.1822 39.558 61.5356 39.9014C61.9047 40.2598 62.5352 40.6153 63.0169 40.7367C63.478 40.8527 64.2489 40.9478 64.7299 40.9478C65.2108 40.9478 65.9231 40.8146 66.3127 40.6519C66.7024 40.4892 67.2647 40.1247 67.5621 39.8421C67.8597 39.5595 68.2241 39.0967 68.3719 38.8138C68.5198 38.5306 68.6408 38.0857 68.6408 37.8247C68.6408 37.5636 68.5766 37.3121 68.4979 37.266C68.4192 37.2197 68.0861 37.1242 67.7576 37.0537C67.1976 36.9339 67.1355 36.9771 66.7615 37.7502C66.542 38.2035 66.1115 38.7225 65.8049 38.9037C65.4983 39.0847 64.9178 39.2326 64.5148 39.2322C64.1118 39.2318 63.498 39.0584 63.1512 38.8469C62.8027 38.6347 62.3835 38.1444 62.2145 37.7521C62.0413 37.3496 61.9055 36.5004 61.9011 35.7927C61.8954 34.8865 61.9956 34.369 62.266 33.9071C62.471 33.5571 62.8807 33.0903 63.1766 32.8698C63.5558 32.5871 63.9963 32.4687 64.6689 32.4687C65.4985 32.4687 65.6898 32.5457 66.1317 33.0568C66.4112 33.3801 66.7298 33.8002 66.8394 33.9904C67.001 34.2707 67.1736 34.3105 67.7544 34.2015C68.1482 34.1278 68.5173 33.9445 68.5751 33.7943C68.6326 33.6442 68.452 33.1326 68.1734 32.6574C67.8948 32.1822 67.3314 31.5713 66.9211 31.2998C66.3733 30.9372 65.8577 30.7857 64.9785 30.7291C64.2234 30.6803 63.5096 30.7533 63.044 30.9267ZM71.8962 31.2674C71.8013 31.509 71.3204 32.7355 70.8277 33.9931C70.3349 35.2506 69.5985 37.1705 69.1911 38.2595C68.7835 39.3484 68.4502 40.3608 68.4502 40.5088C68.4502 40.711 68.6739 40.7638 69.3475 40.7201L70.2448 40.662L70.7511 39.3282L71.2573 37.9944L72.7596 37.9781C73.5858 37.9691 74.3573 37.9952 74.4739 38.0362C74.5905 38.0769 74.9257 38.7059 75.2187 39.4338L75.7515 40.7573H76.6739C77.2644 40.7573 77.5963 40.675 77.5963 40.5286C77.5963 40.3509 77.6472 40.3509 77.825 40.5286C77.9507 40.6544 78.3795 40.7573 78.7777 40.7573C79.2245 40.7573 79.5058 40.666 79.5121 40.5191C79.5176 40.3882 79.5391 39.5527 79.5597 38.6627L79.597 37.0442L81.404 36.9899C82.6394 36.9526 83.419 36.8318 83.8688 36.6075C84.2305 36.427 84.6981 36.045 84.9077 35.7581C85.1525 35.4231 85.3143 34.8442 85.3602 34.1385C85.4141 33.3125 85.341 32.8752 85.0652 32.3735C84.8637 32.0067 84.4083 31.5351 84.0533 31.3255C83.4877 30.9917 83.0657 30.9444 80.645 30.9444H77.8821L77.7869 35.6127C77.7345 38.1802 77.6253 40.1788 77.5443 40.054C77.4633 39.9292 77.1891 39.2861 76.9348 38.6249C76.6804 37.9638 75.8761 35.9652 75.1473 34.1836L73.822 30.9444L72.9455 30.8863C72.1801 30.8356 72.0471 30.8838 71.8962 31.2674ZM86.4974 30.9671C86.4225 31.042 86.3613 33.2753 86.3613 35.9303V40.7573H87.203C87.6658 40.7573 88.073 40.6725 88.108 40.5686C88.1429 40.465 88.1286 38.257 88.0762 35.6622L87.9809 30.9444L87.3072 30.8876C86.9368 30.8566 86.5723 30.8922 86.4974 30.9671ZM88.9693 30.9722C88.8973 31.0443 88.8384 31.4318 88.8384 31.8337V32.564H90.2675C91.2804 32.564 91.6984 32.6334 91.7028 32.8022C91.7063 32.9333 91.7284 34.7552 91.7522 36.8512L91.7952 40.662L92.6986 40.7201L93.602 40.7782V36.6711V32.564H95.1372H96.6726L96.6139 31.7542L96.5554 30.9444L92.8278 30.8928C90.7777 30.8646 89.0413 30.9002 88.9693 30.9722ZM98.6146 31.1721C98.5439 31.3613 97.7303 33.4769 96.8063 35.8733C95.8824 38.2698 95.1263 40.3537 95.1263 40.5044C95.1263 40.7119 95.3435 40.7641 96.0236 40.7201L96.9209 40.662L97.4275 39.3282L97.934 37.9944L99.6266 38.0291L101.319 38.0636L101.862 39.4006L102.405 40.7379L106.589 40.7495L110.773 40.7613L110.714 39.9494L110.656 39.1377L108.421 39.084L106.185 39.0304L106.134 34.9873L106.083 30.9444H105.32H104.558L104.463 35.6127C104.386 39.3715 104.324 40.1881 104.145 39.8046C104.023 39.5426 103.152 37.4419 102.211 35.1363L100.499 30.9444L99.621 30.8863C98.9158 30.8396 98.7175 30.8958 98.6146 31.1721ZM82.8012 32.7831C83.0301 32.9036 83.2804 33.0966 83.3574 33.2119C83.4344 33.3271 83.4986 33.6895 83.5003 34.0175C83.5018 34.3452 83.3618 34.731 83.1888 34.8749C83.0038 35.0289 82.221 35.1756 81.2852 35.2316C80.069 35.3046 79.6733 35.2672 79.5989 35.0731C79.5454 34.9336 79.5018 34.3119 79.5018 33.6916V32.564H80.9434C81.7363 32.564 82.5722 32.6625 82.8012 32.7831ZM73.4941 34.9128C73.7592 35.6169 73.976 36.2338 73.976 36.284C73.976 36.3339 73.5044 36.3748 72.928 36.3748C72.3516 36.3748 71.88 36.3369 71.88 36.2904C71.88 36.2441 72.1054 35.5978 72.3812 34.8543C72.6567 34.1108 72.9114 33.532 72.9473 33.5678C72.9831 33.6034 73.2291 34.2088 73.4941 34.9128ZM100.17 34.9128C100.435 35.6169 100.652 36.2338 100.652 36.284C100.652 36.3339 100.18 36.3748 99.6041 36.3748C99.0277 36.3748 98.5561 36.3302 98.5561 36.2759C98.5561 36.2215 98.7878 35.5814 99.071 34.8536C99.3541 34.1257 99.6088 33.5533 99.6371 33.5815C99.6653 33.6097 99.9052 34.2088 100.17 34.9128Z" fill="white"/>
</svg>
