<svg width="170" height="28" viewBox="0 0 170 28" fill="none" xmlns="http://www.w3.org/2000/svg">
<path d="M60.6306 24.3222V26.7443C60.6373 26.8598 60.6373 26.9755 60.6306 27.091C60.5744 27.6242 60.3908 27.8839 59.8384 27.9507C59.2893 28.0194 58.7327 28.0163 58.1845 27.9414C57.5924 27.8574 57.4204 27.5838 57.4105 26.9557C57.3989 26.2593 57.4105 25.5566 57.4105 24.8679C57.0318 24.4295 57.0318 24.4295 56.5422 24.6907V26.5111C56.5422 26.7055 56.5588 26.8998 56.5422 27.091C56.4893 27.6227 56.3024 27.8839 55.75 27.9507C55.2007 28.0182 54.6441 28.0141 54.0961 27.9383C53.5056 27.8543 53.332 27.5823 53.3237 26.9526C53.3138 26.082 53.3237 25.2115 53.3237 24.3409V23.8745C53.1693 23.7485 53.0032 23.6356 52.8276 23.5371C51.5146 22.9542 50.3418 22.1258 49.3808 21.1026C48.9283 20.59 48.507 20.0539 48.1189 19.4966C48.0076 19.2969 47.9215 19.0856 47.8625 18.867C47.8195 18.7613 47.8013 18.6074 47.717 18.5561C47.2208 18.2825 47.2688 17.7353 47.0306 17.3342C46.852 17.0326 46.8487 16.6423 46.7462 16.2972C46.4055 15.1313 46.4782 13.9357 46.5245 12.7527C46.5277 12.147 46.6563 11.5476 46.9033 10.9882C47.3995 9.9901 47.7302 8.91896 48.4331 8.00795C48.9442 7.33946 49.4255 6.65076 50.1019 6.10819C50.7784 5.56563 51.4829 4.98109 52.3132 4.59709C52.7283 4.40587 53.1302 4.19134 53.5569 3.97524V0.269011C53.5913 0.180163 53.6574 0.105271 53.744 0.0570835C53.8305 0.00889631 53.9321 -0.00960686 54.0316 0.00472492C54.713 0.00472492 55.3928 0.00472492 56.0907 0.00472492C56.2399 0.145673 56.3574 0.31344 56.4361 0.49801C56.5148 0.68258 56.5532 0.880167 56.5488 1.07897C56.5488 1.64019 56.5488 2.20141 56.5488 2.76263V3.25545C56.8796 3.23369 57.1624 3.37049 57.4171 3.06579C57.4171 2.44394 57.4171 1.78477 57.4171 1.12872C57.4171 0.69498 57.5329 0.418256 57.8587 0.0218259H60.2122C60.4933 0.319087 60.6456 0.70463 60.6389 1.10229C60.6389 1.95112 60.6389 2.8015 60.6389 3.63944C63.1198 4.48516 64.5686 5.44437 65.9578 6.9337V7.44673L63.525 9.4864C62.8948 9.62943 62.5492 9.39779 62.2018 9.09308C61.8042 8.76584 61.3879 8.45913 60.9548 8.17429C60.8986 8.13543 60.7994 8.15253 60.6852 8.13854C60.6641 8.272 60.6503 8.40639 60.6439 8.54119C60.6439 12.0826 60.6439 15.623 60.6439 19.1624C60.6439 19.3661 60.5628 19.6008 60.9085 19.7625L62.8733 18.3711H63.4919L65.8371 20.3315V21.0824C65.0581 21.8597 64.2378 22.637 63.1644 23.1687C62.489 23.5079 61.79 23.8039 61.0722 24.0548C60.9138 24.1264 60.7655 24.2163 60.6306 24.3222ZM53.3072 9.11484C53.2259 9.07359 53.1308 9.06366 53.0419 9.08716C52.953 9.11066 52.8773 9.16575 52.8309 9.24077C52.2636 9.92791 51.6466 10.5715 51.3043 11.4172C51.1278 11.917 50.9788 12.425 50.8577 12.9392C50.7514 13.3267 50.7107 13.7275 50.737 14.127C50.768 14.5789 50.8473 15.0268 50.9735 15.4639C51.1306 16.0454 51.2629 16.6517 51.5524 17.174C51.8418 17.6964 52.3115 18.1581 52.7101 18.6385C52.7393 18.6852 52.7788 18.7254 52.8259 18.7565C52.873 18.7876 52.9267 18.8088 52.9833 18.8187C53.04 18.8285 53.0982 18.8269 53.1541 18.8137C53.2099 18.8006 53.2621 18.7764 53.3072 18.7427V9.11484ZM56.6844 7.72967V20.1931C56.7655 20.2475 56.825 20.3159 56.8978 20.3299C57.0221 20.3402 57.1472 20.3402 57.2716 20.3299V7.60996C57.0483 7.52446 56.8597 7.50269 56.6795 7.72967H56.6844Z" fill="white"/>
<path d="M14.9579 24.0481L14.4948 23.633V22.9831C14.4948 19.5205 14.4948 16.0578 14.4948 12.5951C14.4948 12.3821 14.6072 12.1194 14.255 11.9484C14.1047 12.0623 13.9663 12.1893 13.8415 12.3277C13.0311 13.3911 12.2356 14.4622 11.4318 15.5303C11.2432 15.7806 11.0332 16.0184 10.8612 16.278C10.4063 16.9605 9.71831 17.004 8.97571 16.9077C8.79378 16.8843 8.61516 16.8455 8.39354 16.8066C7.81633 16.463 7.50705 15.8552 7.09854 15.3313C6.39894 14.4311 5.74565 13.4999 5.05267 12.5951C4.87239 12.3619 4.72189 12.0494 4.24391 12.0914V12.8392C4.24391 16.2438 4.24391 19.6485 4.24391 23.0531C4.24391 23.4464 4.1695 23.7807 3.75933 24.0278H0.49617C0.132312 23.8382 0 23.5304 0 23.1246C0.00661559 16.9144 0.00661559 10.7042 0 4.49396C0 4.18303 1.45504e-05 3.87211 0.345679 3.61715H3.94951C4.28029 4.12707 4.6425 4.66186 4.99148 5.20131C6.22528 7.11351 7.45688 9.02673 8.68628 10.941C8.88971 11.2519 9.11133 11.524 9.67862 11.3592C9.90024 11.0172 10.1748 10.6099 10.4312 10.201C11.6848 8.25564 12.939 6.31028 14.1938 4.36492C14.3592 4.10375 14.5676 3.86278 14.7561 3.60938H18.3417C18.6444 3.80059 18.6891 4.06799 18.7106 4.3385C18.7254 4.55148 18.7106 4.76446 18.7106 4.97745C18.7106 10.9369 18.7106 16.8963 18.7106 22.8557C18.6951 23.147 18.6614 23.4371 18.6097 23.7247C18.5089 23.8332 18.3834 23.9191 18.2426 23.9758C18.1017 24.0326 17.9491 24.0589 17.796 24.0527C16.8747 24.0434 15.9452 24.0481 14.9579 24.0481Z" fill="white"/>
<path d="M27.9018 12.062V12.8393C27.9018 16.2253 27.9018 19.6113 27.9018 22.9973C27.9018 23.4062 27.8456 23.7653 27.4056 24.0187H24.1524C23.7753 23.8166 23.6562 23.501 23.6562 23.0999C23.6629 16.8897 23.6629 10.6789 23.6562 4.46768C23.6562 4.15675 23.6562 3.84583 24.0036 3.60175H27.6025C27.8208 3.92667 28.054 4.26402 28.2756 4.60604C29.6274 6.69857 30.9764 8.79265 32.3227 10.8883C32.5377 11.2241 32.7494 11.5101 33.3299 11.3469C33.6756 10.8137 34.0626 10.226 34.443 9.63681C35.5809 7.87231 36.7121 6.10626 37.8533 4.35108C38.0187 4.0899 38.2271 3.85049 38.4322 3.57377H40.4929C40.8866 3.57377 41.2785 3.56599 41.6705 3.57377C42.1055 3.5862 42.213 3.66083 42.3073 4.06037C42.3531 4.28675 42.3725 4.51716 42.3652 4.74751C42.3652 9.9296 42.3652 15.1148 42.3652 20.3031C42.3652 21.1737 42.3751 22.0443 42.3652 22.9149C42.3498 23.1756 42.3177 23.4351 42.2692 23.6922C42.1719 23.8091 42.0457 23.9019 41.9016 23.9626C41.7575 24.0232 41.5998 24.05 41.4423 24.0404C40.5128 24.0327 39.5849 24.0404 38.6306 24.0404L38.151 23.644V22.9631C38.151 19.4994 38.151 16.0362 38.151 12.5735C38.151 12.3636 38.2618 12.0978 37.8996 11.9377C37.7403 12.0741 37.5921 12.2217 37.4564 12.3792C36.5318 13.5996 35.6222 14.8308 34.696 16.0512C34.4149 16.4212 34.1519 16.8378 33.5929 16.886C33.2884 16.9132 32.9823 16.9226 32.6766 16.914C32.4609 16.8888 32.2475 16.8482 32.0382 16.7928C31.4709 16.4414 31.1567 15.8382 30.7498 15.3112C30.0519 14.4095 29.3953 13.4814 28.7023 12.5766C28.5336 12.3605 28.3765 12.0776 27.9018 12.062Z" fill="white"/>
<path d="M150.53 6.76418C151.393 5.90291 152.309 5.10228 153.427 4.53018C154.861 3.76497 156.463 3.32275 158.109 3.23828C158.212 3.23828 158.316 3.23828 158.419 3.23828C158.474 3.24407 158.53 3.25342 158.584 3.26626C158.93 3.43883 159.012 3.74975 159.024 4.05446C159.066 4.78875 159.066 5.52464 159.024 6.25892C158.971 6.92275 158.842 7.02535 158.088 7.1917C157.674 7.28342 157.239 7.31296 156.839 7.44044C154.524 8.168 152.966 9.61692 152.208 11.7934C151.914 12.6544 151.813 13.5634 151.911 14.463C152.009 15.3625 152.305 16.2332 152.779 17.0201C153.253 17.807 153.896 18.493 154.666 19.0348C155.436 19.5766 156.317 19.9625 157.254 20.1682C160.901 20.9766 164.3 19.2214 165.549 15.8681C166.174 14.1906 166.045 12.5054 165.259 10.8746C164.897 10.1206 164.746 9.6962 165.84 9.06036C166.399 8.73389 166.93 8.367 167.404 8.06229C167.975 7.92082 168.322 8.11048 168.579 8.48981C168.607 8.57996 168.642 8.66825 168.683 8.7541C169.906 10.9222 170.293 13.4219 169.777 15.8278C169.261 18.2337 167.873 20.3971 165.851 21.9498C164.565 22.9494 163.088 23.5479 161.492 23.9444C160.445 24.2055 159.381 24.1853 158.314 24.1916C157.357 24.1734 156.409 24.0161 155.503 23.7252C153.187 23.0473 151.386 21.7041 149.972 19.8946C149.109 18.77 148.49 17.4966 148.152 16.147C147.813 14.7974 147.76 13.3983 147.997 12.0297C148.219 10.7471 148.613 9.53141 149.337 8.41675C149.57 8.05918 149.797 7.6954 150.027 7.32851L150.134 7.20414L150.53 6.76418Z" fill="white"/>
<path d="M70.8812 3.82812L71.1293 3.49543H71.7991C73.802 3.49543 75.8049 3.47056 77.8077 3.49543C80.8559 3.54051 83.0886 4.86972 84.3572 7.45351C85.3495 9.47453 85.1295 11.4955 83.9238 13.4171C83.6305 13.8827 83.2654 14.3049 82.8406 14.6701C82.5842 14.8924 82.3328 15.1225 82.0384 15.3852C82.0929 15.6057 82.162 15.8227 82.2452 16.0351C82.8984 17.4233 83.5683 18.8085 84.2298 20.1937C84.7574 21.2975 85.2867 22.3997 85.806 23.4833C85.7996 23.5632 85.7762 23.6412 85.7373 23.7125C85.6984 23.7839 85.6446 23.8472 85.5793 23.8988C85.514 23.9503 85.4384 23.9891 85.3569 24.0128C85.2754 24.0365 85.1896 24.0446 85.1047 24.0367C84.3191 24.0367 83.5352 24.0274 82.7513 24.0367C82.5554 24.051 82.36 24.0044 82.195 23.9042C82.0301 23.8039 81.9048 23.6555 81.8383 23.4817C81.4215 22.6034 81.0014 21.725 80.5879 20.8389C80.0311 19.6604 79.4765 18.482 78.9241 17.3036C78.8365 17.0754 78.6703 16.8812 78.4519 16.7519C78.2334 16.6226 77.9753 16.5656 77.7185 16.5901C76.9957 16.6149 76.2729 16.5901 75.5502 16.5978C75.1764 16.5978 74.8092 16.6367 74.5248 16.9989V17.7047C74.5248 19.4848 74.5 21.2648 74.5364 23.0433C74.5512 23.7382 74.1162 24.074 73.5043 24.0352C72.8923 23.9963 72.3069 24.0352 71.7082 24.0243C71.0797 24.015 70.7985 23.7584 70.7969 23.1786C70.7969 19.9294 70.7969 16.6797 70.7969 13.4295C70.7969 12.8216 71.0036 12.6429 71.6552 12.6429C73.6581 12.6429 75.661 12.6429 77.6639 12.6429C78.7025 12.6429 79.6022 12.3319 80.2208 11.4971C80.76 10.9032 80.8609 10.2332 80.7269 9.47608C80.5185 8.307 79.2384 7.31048 77.9301 7.32759C77.1054 7.33795 76.2784 7.33795 75.4493 7.32759C75.257 7.31161 75.064 7.34943 74.8945 7.43628C74.725 7.52314 74.5865 7.65516 74.4966 7.81574C74.4966 8.04738 74.5099 8.31944 74.4966 8.59305C74.4553 9.23978 74.1311 9.52583 73.4448 9.5336C72.9089 9.5336 72.3714 9.5336 71.8355 9.5336C71.2104 9.52583 70.8845 9.25377 70.8134 8.68167C70.8043 8.54655 70.8043 8.41103 70.8134 8.27591C70.8289 6.79487 70.8515 5.31227 70.8812 3.82812Z" fill="white"/>
<path d="M110.938 3.94734L111.227 3.49806C113.772 3.49806 116.263 3.43898 118.749 3.51671C120.775 3.58045 122.447 4.4386 123.729 5.92172C124.012 6.24819 124.238 6.61664 124.491 6.96643C124.52 7.07544 124.556 7.18246 124.6 7.28668C125.22 8.51191 125.401 9.89314 125.115 11.223C124.772 12.9797 123.772 14.3323 122.235 15.3505C121.046 16.1387 119.695 16.4668 118.266 16.501C117.274 16.5258 116.281 16.501 115.289 16.501H114.627C114.599 16.7963 114.556 17.0373 114.556 17.2783C114.556 19.136 114.556 20.9923 114.546 22.8501C114.531 23.1144 114.499 23.3777 114.449 23.6383C114.347 23.7378 114.223 23.8157 114.087 23.8667C113.95 23.9176 113.803 23.9405 113.657 23.9336C113.058 23.9222 112.459 23.9222 111.86 23.9336C111.679 23.9502 111.497 23.9154 111.337 23.8336C111.178 23.7519 111.047 23.627 110.964 23.475V13.0108L111.295 12.6595H112.418C114.374 12.6595 116.333 12.6672 118.289 12.6595C119.166 12.6595 119.935 12.3827 120.505 11.7267L120.767 11.3971C120.801 11.3785 120.851 11.3691 120.868 11.3411C121.114 10.9471 121.248 10.4997 121.256 10.0425C121.263 9.58536 121.145 9.13415 120.911 8.73298C120.678 8.3318 120.338 7.99438 119.925 7.75369C119.511 7.51299 119.038 7.37726 118.552 7.35975C116.867 7.30378 115.176 7.34731 113.488 7.34731H111.384C111.234 7.20118 111.093 7.06437 110.949 6.92134L110.938 3.94734Z" fill="white"/>
<path d="M128.289 3.83649C128.313 3.76193 128.363 3.69699 128.431 3.65174C128.498 3.60649 128.58 3.58345 128.663 3.58619C128.787 3.58619 128.911 3.58619 129.035 3.58619H144.701C144.984 3.58619 145.291 3.53023 145.47 3.82872C145.44 4.09733 145.437 4.36794 145.46 4.63712C145.6 5.41443 145.506 6.16687 145.415 6.89444C145.18 7.14007 144.907 7.1152 144.641 7.11364H139.67L139.201 7.52873V8.50659C139.201 13.1487 139.201 17.7913 139.201 22.4345C139.201 22.8729 139.15 23.3129 139.12 23.8134C138.883 23.8745 138.641 23.9167 138.396 23.9394C137.404 23.9534 136.411 23.9487 135.419 23.9394C134.802 23.9394 134.647 23.7839 134.635 23.232C134.635 23.1154 134.635 22.9988 134.635 22.8838V7.58936C134.542 7.43242 134.403 7.3037 134.235 7.21833C134.067 7.13295 133.876 7.09448 133.686 7.10742C133.171 7.12297 132.654 7.10742 132.138 7.10742H128.607C128.484 7.01104 128.377 6.92398 128.291 6.85402L128.289 3.83649Z" fill="white"/>
<path d="M98.9061 9.17518C98.9252 9.14958 98.9381 9.12041 98.9441 9.08967L99.2915 8.48337L99.6768 7.79933C99.7909 7.60034 99.9067 7.40135 100.022 7.20236C100.042 7.17618 100.055 7.14651 100.061 7.1153L100.41 6.51055L100.667 6.04416L100.795 5.82029C100.911 5.6213 101.025 5.42231 101.139 5.22332C101.159 5.19749 101.172 5.16767 101.177 5.13626L101.526 4.53151L101.655 4.30142L101.786 4.07445C102.057 3.62361 102.462 3.46192 103.014 3.48213C103.901 3.51478 104.791 3.49302 105.679 3.49146C105.909 3.49146 106.139 3.48369 106.276 3.70756C106.302 4.03247 106.137 4.30609 105.98 4.57348C104.616 6.9106 103.248 9.24617 101.875 11.5802C101.283 12.5876 100.685 13.5919 100.082 14.5931C99.6268 15.3017 99.3914 16.1159 99.4023 16.9437C99.4519 18.9538 99.4172 20.9639 99.4205 22.9741C99.4205 23.2477 99.4205 23.5151 99.1608 23.7918C99.021 23.8595 98.87 23.9047 98.7143 23.9255C97.8691 23.9426 97.0223 23.9457 96.1772 23.9255C95.7968 23.9177 95.5933 23.6938 95.5636 23.3332C95.552 23.1979 95.5636 23.0627 95.5636 22.9274C95.5636 20.9748 95.5818 19.0222 95.5553 17.0711C95.5423 16.1472 95.7356 15.231 96.1226 14.3816C96.3111 13.9619 96.4881 13.5375 96.67 13.1146L96.9561 12.5456L97.0802 12.3202L97.5598 11.4947C97.6045 11.4185 97.6491 11.3392 97.6921 11.2677L97.8244 11.0423L98.3074 10.2183L98.5687 9.75195L98.6961 9.52808L98.9061 9.17518Z" fill="white"/>
<path d="M93.2254 4.53784L93.356 4.76792L94.0837 6.05826C94.1681 6.21373 94.2491 6.36919 94.3384 6.51221L94.4691 6.74385L95.0744 7.80411C95.1174 7.87873 95.1588 7.95957 95.2001 8.02798C95.2035 8.10465 95.2157 8.18075 95.2365 8.25495C95.3421 8.48514 95.3878 8.73571 95.3697 8.98583C95.3516 9.23595 95.2702 9.47839 95.1323 9.69298C94.7304 10.3599 94.3417 11.0346 93.9547 11.714C93.9004 11.8394 93.8034 11.9443 93.6789 12.0123C93.5545 12.0804 93.4095 12.1078 93.2667 12.0902C93.1456 11.9592 93.035 11.82 92.9359 11.6736C92.2314 10.4858 91.5417 9.29033 90.8388 8.09794C90.2847 7.16516 89.6943 6.23238 89.1667 5.28717C88.8888 4.78502 88.4836 4.32019 88.4688 3.71078C88.6143 3.50401 88.8342 3.49624 89.0691 3.49779C89.9969 3.49779 90.9264 3.52888 91.851 3.48846C92.0863 3.46014 92.325 3.50757 92.528 3.62303C92.731 3.7385 92.8865 3.91518 92.969 4.12431C93.0077 4.19003 93.0508 4.25338 93.098 4.31397L93.2254 4.53784Z" fill="white"/>
</svg>
