<svg width="74" height="68" viewBox="0 0 74 68" fill="none" xmlns="http://www.w3.org/2000/svg">
<path fill-rule="evenodd" clip-rule="evenodd" d="M34.623 0.025275C34.623 0.0391728 34.8208 0.468195 35.0626 0.978729C35.3043 1.4892 35.6964 2.31415 35.9339 2.81188C36.1713 3.30962 36.6018 4.2259 36.8904 4.84807C37.179 5.47024 37.64 6.45188 37.9148 7.02944L38.4145 8.07967L46.9618 8.09602L55.509 8.11244L55.15 8.85833C54.9525 9.26854 54.5629 10.083 54.2841 10.6683C54.0054 11.2535 53.1928 12.9357 52.4783 14.4064C51.7638 15.8772 51.1792 17.0907 51.1792 17.1033C51.1792 17.1158 50.5464 18.4249 49.7729 20.0122C48.9994 21.5996 48.3666 22.9124 48.3666 22.9294C48.3666 22.9466 47.7887 24.143 47.0824 25.5882C46.3762 27.0334 45.6813 28.4776 45.5383 28.7975C45.3953 29.1175 44.6931 30.5651 43.9778 32.0145C43.2626 33.4638 42.6774 34.6744 42.6774 34.7048C42.6774 34.735 42.1359 35.8617 41.4741 37.2085C40.8124 38.5553 40.1867 39.8453 40.0838 40.0752C39.9809 40.3052 39.6306 41.0407 39.3055 41.7096L38.7143 42.926L39.2322 44.0065C39.5172 44.6008 39.8303 45.2761 39.9281 45.5072C40.0259 45.7383 40.491 46.7273 40.9616 47.705C41.4322 48.6827 42.0467 49.968 42.3272 50.5611L42.8372 51.6396L58.4186 51.6452C66.9884 51.6482 74 51.6272 74 51.5985C74 51.5698 73.9029 51.3147 73.7842 51.0316C73.6655 50.7485 73.2594 49.8769 72.8817 49.0948C72.504 48.3126 71.9658 47.1927 71.6856 46.6061C71.4055 46.0195 71.1187 45.4086 71.0483 45.2487C70.9779 45.0887 70.7651 44.6306 70.5755 44.2308L70.2308 43.5037L59.3407 43.4874L48.4506 43.471L49.2875 41.758C49.7478 40.8159 50.4245 39.4197 50.7911 38.6553C51.1577 37.8909 52.0279 36.0909 52.7248 34.6554C53.4217 33.2198 53.9919 32.0377 53.9919 32.0287C53.9919 32.0196 54.562 30.838 55.2588 29.4029C55.9556 27.9678 56.8388 26.1392 57.2214 25.3392C57.604 24.5393 58.2996 23.106 58.7671 22.1542C59.2346 21.2024 59.6171 20.4101 59.6171 20.3937C59.6171 20.3773 60.223 19.1199 60.9636 17.5995C61.7041 16.079 62.4871 14.4569 62.7038 13.9948C62.9203 13.5326 63.5946 12.1424 64.202 10.9055C64.8094 9.6686 65.3064 8.64275 65.3064 8.62588C65.3064 8.60894 65.6042 7.97747 65.9681 7.22259C66.3321 6.46765 66.8899 5.31187 67.2077 4.65415C67.5255 3.99643 68.1482 2.70535 68.5915 1.78506C69.0348 0.864767 69.3975 0.0866839 69.3975 0.0559148C69.3975 0.0245639 61.7521 0 52.0102 0C42.4472 0 34.623 0.0113772 34.623 0.025275ZM24.4794 2.56948C23.8089 3.94717 22.881 5.86054 22.4174 6.82149L21.5744 8.56867L22.2497 9.97403C22.621 10.747 22.9249 11.3919 22.9249 11.4071C22.9249 11.4223 23.5652 12.738 24.3478 14.3308C25.1303 15.9236 25.9264 17.5613 26.1169 17.9702C26.3074 18.379 26.8685 19.5426 27.3638 20.5558C27.8591 21.5691 28.3416 22.5726 28.436 22.7859C28.5303 22.9992 29.2418 24.476 30.0171 26.0676C30.7925 27.6591 31.4268 28.9708 31.4268 28.9824C31.4268 28.994 32.0001 30.1823 32.7008 31.6231C33.4016 33.0638 34.1474 34.6101 34.3583 35.0592C34.5691 35.5083 34.7583 35.8757 34.7788 35.8757C34.7992 35.8757 35.2349 35.0103 35.747 33.9527C36.2591 32.895 37.0276 31.3024 37.4548 30.4136C37.882 29.5247 38.3944 28.4648 38.5935 28.0582L38.9554 27.3189L37.9877 25.3402C37.4555 24.2519 36.9507 23.2029 36.8658 23.0091C36.7809 22.8152 36.2977 21.8131 35.792 20.7821C35.2863 19.751 34.6893 18.5148 34.4654 18.0348C34.2414 17.5549 33.4661 15.9473 32.7425 14.4625C32.0188 12.9777 31.4268 11.7522 31.4268 11.7393C31.4268 11.7264 30.8205 10.4687 30.0794 8.9445C29.3384 7.42033 28.2995 5.28601 27.7707 4.20166C27.2419 3.11731 26.5769 1.74291 26.2927 1.14738C26.0087 0.55184 25.7587 0.0646409 25.7374 0.0646409C25.716 0.0646409 25.1499 1.19185 24.4794 2.56948ZM17.428 17.146C17.3125 17.4038 16.5891 18.9059 15.8205 20.4842C15.0519 22.0624 14.423 23.3763 14.423 23.4039C14.423 23.4315 13.9815 24.351 13.4419 25.4471C12.9023 26.5433 12.2769 27.8328 12.0522 28.3127C11.8275 28.7927 11.2818 29.9271 10.8396 30.8337C10.3974 31.7403 9.75016 33.0784 9.40132 33.8072C9.05249 34.536 8.13397 36.4314 7.36011 38.019C6.58631 39.6067 5.8191 41.192 5.65526 41.542C5.49143 41.8919 4.85475 43.2109 4.24038 44.473C3.62607 45.7351 3.00831 47.015 2.86774 47.3172C2.72711 47.6194 2.206 48.699 1.7097 49.7163C1.21333 50.7336 0.807285 51.5837 0.807285 51.6054C0.807285 51.6272 8.40143 51.6457 17.6832 51.6468C26.9649 51.6478 34.559 51.6365 34.559 51.6218C34.559 51.607 34.4612 51.3669 34.3418 51.0883C34.2223 50.8095 33.6293 49.578 33.0242 48.3514C32.4189 47.1249 31.8099 45.8741 31.6708 45.5719C31.5316 45.2697 31.2688 44.7099 31.0866 44.3279L30.7556 43.6335L22.3268 43.633C15.6094 43.6327 13.9045 43.6162 13.9301 43.5518C13.9476 43.5074 14.2439 42.8747 14.5883 42.1459C14.9326 41.4171 15.6836 39.8676 16.257 38.7025C16.8305 37.5374 17.2996 36.5706 17.2996 36.554C17.2996 36.5374 17.4689 36.1671 17.6758 35.7311C17.8827 35.2951 18.5228 33.9785 19.0981 32.8053C19.6735 31.632 20.2273 30.4831 20.3289 30.252C20.4304 30.0209 20.9123 29.0241 21.3996 28.0369C21.8869 27.0497 22.2857 26.2174 22.2857 26.1873C22.2857 26.1572 21.8803 25.2942 21.3849 24.2696C20.8894 23.245 20.2475 21.9103 19.9585 21.3035C19.6695 20.6967 19.0478 19.4077 18.577 18.4388C18.1063 17.47 17.7024 16.6774 17.6796 16.6774C17.6568 16.6774 17.5436 16.8882 17.428 17.146ZM18.4759 58.5607C18.2967 58.5894 18.0378 58.649 17.9006 58.6934C17.7634 58.7377 17.4985 58.8609 17.3118 58.9671C17.1252 59.0734 16.8451 59.2909 16.6895 59.4505C16.5339 59.6101 16.3207 59.9197 16.2157 60.1384C16.1106 60.3572 15.9953 60.7253 15.9595 60.9564C15.9236 61.1875 15.8943 62.2201 15.8943 63.2512C15.8943 64.2822 15.9236 65.3084 15.9594 65.5316C15.9952 65.7548 16.101 66.1007 16.1944 66.3003C16.2879 66.4999 16.5199 66.833 16.71 67.0407C16.9308 67.2818 17.1978 67.4888 17.4493 67.6138C17.6658 67.7213 18.0587 67.8556 18.3224 67.9122C18.6476 67.9819 18.9686 68.0038 19.3201 67.9802C19.6212 67.9599 20.052 67.8738 20.3484 67.7747C20.635 67.6789 20.9954 67.4996 21.171 67.3654C21.3429 67.234 21.5924 66.9818 21.7253 66.8049C21.8582 66.6279 22.0273 66.3232 22.1011 66.1277C22.185 65.9052 22.2387 65.6029 22.2444 65.3197L22.2537 64.8672L21.6843 64.8192C21.2944 64.7865 21.0878 64.794 21.0291 64.8433C20.9796 64.8848 20.9433 65.0436 20.9433 65.2179C20.9433 65.4139 20.885 65.6389 20.7777 65.8565C20.6866 66.0413 20.5069 66.2804 20.3782 66.3877C20.2495 66.495 19.9922 66.6404 19.8062 66.7107C19.6203 66.7811 19.3163 66.8387 19.1307 66.8387C18.945 66.8387 18.6487 66.7954 18.4723 66.7424C18.2959 66.6894 18.0337 66.5597 17.8897 66.4542C17.7456 66.3488 17.5467 66.123 17.4477 65.9526L17.2677 65.6429V63.2512V60.8594L17.4434 60.5572C17.54 60.3909 17.7219 60.1692 17.8475 60.0645C17.9731 59.9598 18.221 59.8268 18.3982 59.7689C18.5755 59.711 18.8971 59.6635 19.1128 59.6633C19.3285 59.6631 19.6441 59.7134 19.8143 59.775C19.9843 59.8367 20.2399 59.9879 20.3823 60.1111C20.5246 60.2343 20.7088 60.4822 20.7915 60.6619C20.8795 60.853 20.9423 61.1108 20.9426 61.2828C20.943 61.4446 20.9758 61.6099 21.0156 61.6501C21.0622 61.6972 21.2493 61.7118 21.5429 61.6912C21.7932 61.6737 22.0627 61.6461 22.1418 61.6298C22.2616 61.6053 22.2857 61.558 22.2857 61.3462C22.2857 61.2064 22.2538 60.9379 22.2148 60.7495C22.1758 60.5611 22.0592 60.2443 21.9556 60.0455C21.852 59.8467 21.6322 59.5514 21.4671 59.3893C21.3021 59.2272 21.0176 59.0168 20.8349 58.9217C20.6523 58.8266 20.3514 58.7084 20.1663 58.659C19.9812 58.6096 19.5984 58.5556 19.3158 58.5389C19.0331 58.5223 18.6552 58.532 18.4759 58.5607ZM26.4025 58.5607C26.2232 58.5894 25.9644 58.649 25.8272 58.6934C25.69 58.7377 25.4285 58.8589 25.246 58.9627C25.0636 59.0665 24.7808 59.2884 24.6175 59.4558C24.4543 59.6233 24.2241 59.9639 24.1059 60.2128C23.9877 60.4618 23.8608 60.8546 23.8239 61.0857C23.787 61.3168 23.7569 62.2912 23.7569 63.2512C23.7569 64.2111 23.7865 65.1814 23.8228 65.4075C23.8591 65.6336 23.9724 66.0049 24.0745 66.2327C24.187 66.4835 24.4051 66.8005 24.6275 67.0363C24.8679 67.2911 25.1342 67.4929 25.3984 67.6204C25.6204 67.7275 25.9961 67.8568 26.2332 67.9076C26.4704 67.9584 26.8227 68 27.016 68C27.2094 68 27.569 67.9571 27.8151 67.9046C28.0612 67.8521 28.4351 67.723 28.6461 67.6177C28.857 67.5123 29.1669 67.2923 29.3348 67.1286C29.5027 66.9651 29.707 66.7238 29.789 66.5925C29.871 66.4612 30.007 66.1647 30.0911 65.9336C30.2418 65.5203 30.2442 65.4777 30.2442 63.2512C30.2442 61.2095 30.2325 60.954 30.1245 60.6332C30.0586 60.4377 29.945 60.1759 29.872 60.0514C29.7991 59.927 29.6516 59.7116 29.5443 59.5728C29.437 59.434 29.1787 59.2081 28.9703 59.0709C28.7619 58.9337 28.412 58.7653 28.1927 58.6968C27.9735 58.6284 27.5543 58.558 27.2612 58.5405C26.9682 58.5229 26.5817 58.532 26.4025 58.5607ZM61.6245 58.5603C61.4452 58.5892 61.1863 58.6489 61.0492 58.6929C60.912 58.737 60.6225 58.8715 60.406 58.992C60.1894 59.1124 59.9385 59.2995 59.8484 59.4078C59.7583 59.5161 59.6287 59.7325 59.5603 59.8887C59.492 60.0448 59.4024 60.3369 59.3612 60.5376C59.3045 60.8137 59.3041 61.0058 59.3593 61.3269C59.3996 61.5602 59.4866 61.8586 59.5528 61.99C59.6191 62.1213 59.8117 62.3673 59.9808 62.5366C60.1936 62.7497 60.5049 62.9501 60.9915 63.1872C61.3783 63.3756 61.9111 63.6163 62.1756 63.722C62.4402 63.8278 62.8817 64.0223 63.1569 64.1543C63.4487 64.2943 63.7847 64.5198 63.9633 64.6954C64.1968 64.925 64.2799 65.0599 64.3129 65.2639C64.3369 65.4118 64.3242 65.6519 64.2845 65.8009C64.2451 65.9491 64.1105 66.1849 63.9854 66.3249C63.8137 66.517 63.6562 66.6112 63.3429 66.7091C63.1146 66.7804 62.7551 66.8387 62.5442 66.8387C62.3332 66.8387 61.9839 66.7934 61.7678 66.738C61.5518 66.6825 61.2403 66.5455 61.0756 66.4334C60.9109 66.3214 60.7097 66.1122 60.6283 65.9686C60.5324 65.7992 60.4692 65.5599 60.4484 65.2873L60.4162 64.8672H59.8089H59.2016L59.207 65.449C59.2116 65.9452 59.2385 66.0863 59.3905 66.4091C59.4886 66.6173 59.6524 66.8838 59.7545 67.0014C59.8567 67.1191 60.0761 67.3029 60.2422 67.4099C60.4082 67.5168 60.7191 67.6635 60.9332 67.7358C61.1472 67.8081 61.5822 67.901 61.9 67.9422C62.3291 67.9978 62.6156 67.9987 63.0131 67.9456C63.3075 67.9062 63.7413 67.8107 63.977 67.7334C64.2128 67.656 64.5436 67.4878 64.7121 67.3594C64.8808 67.2311 65.1124 66.985 65.227 66.8127C65.3416 66.6403 65.4817 66.3381 65.5383 66.1412C65.609 65.8951 65.6321 65.6298 65.6121 65.2928C65.5904 64.9268 65.5381 64.7125 65.4056 64.447C65.3081 64.2515 65.0913 63.9599 64.924 63.7991C64.7566 63.6383 64.3772 63.3853 64.081 63.2369C63.7848 63.0885 63.1411 62.802 62.6505 62.6004C62.16 62.3988 61.5971 62.1516 61.3995 62.051C61.2021 61.9505 60.9648 61.7771 60.8722 61.6659C60.7796 61.5546 60.6861 61.392 60.6643 61.3046C60.6427 61.2172 60.6373 60.9719 60.6525 60.7594C60.6763 60.4273 60.7104 60.3416 60.8965 60.1475C61.0154 60.0234 61.2725 59.861 61.4677 59.7866C61.7592 59.6754 61.9251 59.6562 62.3978 59.6783C62.8128 59.6977 63.0663 59.7465 63.3073 59.8533C63.4911 59.9348 63.7544 60.1253 63.8924 60.2767C64.0798 60.4823 64.1603 60.64 64.2107 60.8996C64.2478 61.0909 64.2866 61.32 64.2969 61.4089C64.3154 61.5686 64.3226 61.5705 64.9228 61.5705H65.5301L65.5499 61.2563C65.5607 61.0836 65.5396 60.8006 65.5029 60.6274C65.4662 60.4543 65.3742 60.1795 65.2985 60.0167C65.2228 59.8538 65.0317 59.59 64.8737 59.4302C64.7158 59.2705 64.4179 59.0537 64.2118 58.9485C64.0056 58.8433 63.6734 58.7141 63.4734 58.6615C63.2734 58.6088 62.8489 58.5526 62.53 58.5367C62.2112 58.5208 61.8037 58.5314 61.6245 58.5603ZM2.79787 58.8071C2.75913 58.9049 2.62886 59.3048 2.50842 59.6959C2.38806 60.087 1.85218 61.7596 1.31772 63.4128C0.783186 65.066 0.261248 66.7063 0.157756 67.0581C0.0542629 67.4098 -0.0154138 67.737 0.00293234 67.7853C0.0277348 67.8507 0.191955 67.873 0.648754 67.873H1.26127L1.34597 67.6629C1.39257 67.5474 1.51332 67.1689 1.61439 66.8219L1.7981 66.191L3.64889 66.2078L5.49974 66.2246L5.7266 66.968C5.85138 67.3769 5.97667 67.7478 6.00499 67.7922C6.0406 67.8479 6.25378 67.873 6.69204 67.873C7.2547 67.873 7.32751 67.86 7.32732 67.7599C7.32725 67.6976 7.14443 67.0795 6.92115 66.3862C6.6978 65.693 6.39352 64.7331 6.24496 64.2531C6.09634 63.7731 5.64203 62.3478 5.23541 61.0857C4.82879 59.8236 4.46801 58.7546 4.43374 58.7101C4.39015 58.6536 4.14519 58.6293 3.61987 58.6293H2.86838L2.79787 58.8071ZM8.50531 58.7156C8.48709 58.7637 8.48069 59.0185 8.49111 59.2818L8.5101 59.7605L10.7685 59.7775C12.0106 59.7869 13.0174 59.8183 13.0058 59.8473C12.9942 59.8763 12.2656 60.979 11.3867 62.2978C10.5077 63.6165 9.49274 65.14 9.13112 65.6833L8.47366 66.6711L8.49188 67.2559L8.5101 67.8407H11.5145H14.5189V67.2912V66.7418L12.2337 66.7248C10.9767 66.7155 9.94838 66.6961 9.94838 66.6818C9.94838 66.6676 10.242 66.2243 10.6009 65.6968C10.9598 65.1694 11.4048 64.5052 11.5898 64.2208C11.7748 63.9364 12.1405 63.3837 12.4025 62.9926C12.6646 62.6015 13.0195 62.0779 13.1912 61.8291C13.363 61.5802 13.7403 61.0232 14.0298 60.5914L14.5561 59.8062L14.5375 59.2339L14.5189 58.6617L11.5287 58.6448C9.06221 58.631 8.53273 58.6434 8.50531 58.7156ZM32.1056 58.7293C32.0838 58.7868 32.066 60.835 32.066 63.2808C32.066 67.0154 32.0803 67.7399 32.1556 67.803C32.2129 67.8511 32.4487 67.8714 32.8108 67.8594L33.3764 67.8407V63.2512V58.6617L32.7609 58.6432C32.2421 58.6277 32.1391 58.6412 32.1056 58.7293ZM35.4987 58.6703C35.4741 58.6951 35.4544 60.7396 35.4549 63.2135C35.4555 65.6873 35.4795 67.7489 35.5082 67.7948C35.5463 67.8555 35.724 67.8731 36.1625 67.8594L36.7644 67.8407L36.7822 64.447L36.7999 61.0534L37.0111 61.4412C37.1274 61.6545 37.6062 62.4545 38.0754 63.2188C38.5444 63.9832 39.3285 65.2776 39.8177 66.0954C40.3069 66.9131 40.7671 67.6476 40.8404 67.7275C40.9575 67.8554 41.0366 67.873 41.4931 67.873C41.8119 67.873 42.0422 67.843 42.0893 67.7954C42.1474 67.7366 42.1657 66.6409 42.165 63.2544C42.1644 60.7995 42.1405 58.7534 42.1117 58.7075C42.0736 58.6468 41.896 58.6293 41.4574 58.6429L40.8555 58.6617L40.839 62.05L40.8224 65.4384L39.9413 63.9569C39.4567 63.1421 38.9298 62.2719 38.7703 62.023C38.6108 61.7741 38.2346 61.1633 37.9344 60.6655C37.6342 60.1678 37.2471 59.5133 37.0742 59.2111L36.7597 58.6617L36.1516 58.6433C35.8172 58.6332 35.5234 58.6454 35.4987 58.6703ZM43.5886 58.8071C43.6055 58.9049 43.7404 59.363 43.8883 59.8252C44.0362 60.2874 44.2099 60.8401 44.2742 61.0534C44.3385 61.2667 44.6418 62.2557 44.9482 63.2512C45.2546 64.2466 45.6921 65.6574 45.9203 66.3862C46.1485 67.1151 46.3643 67.7478 46.3999 67.7922C46.4432 67.8463 46.6572 67.8727 47.0479 67.872C47.3689 67.8714 47.6638 67.8496 47.7034 67.8235C47.7429 67.7974 47.9076 67.3542 48.0693 66.8387C48.231 66.3232 48.5631 65.2469 48.8074 64.447C49.0517 63.6471 49.4427 62.3963 49.6764 61.6675C49.9101 60.9386 50.2146 59.9837 50.3532 59.5453C50.4918 59.107 50.5888 58.7216 50.5688 58.6888C50.5488 58.6561 50.2644 58.6293 49.9367 58.6293C49.5354 58.6293 49.3211 58.6557 49.28 58.7101C49.2464 58.7546 49.0261 59.4454 48.7905 60.2454C48.5548 61.0453 48.2789 61.9907 48.1772 62.3462C48.0756 62.7017 47.8434 63.5016 47.6614 64.1238C47.4793 64.746 47.2902 65.3797 47.2412 65.532C47.1922 65.6844 47.1511 65.8589 47.1501 65.9199C47.1484 66.0142 47.1397 66.0162 47.092 65.9338C47.0611 65.8804 46.8869 65.3423 46.705 64.7379C46.5231 64.1335 46.3065 63.4063 46.2237 63.1219C46.1409 62.8375 45.9706 62.2495 45.8453 61.8152C45.72 61.381 45.5769 60.872 45.5275 60.684C45.478 60.4961 45.332 59.9936 45.2032 59.5673C45.0744 59.1411 44.9388 58.7557 44.902 58.7108C44.8563 58.6552 44.6324 58.6293 44.1964 58.6293H43.5578L43.5886 58.8071ZM51.912 58.7095C51.8951 58.7543 51.8887 60.8271 51.8978 63.3158L51.9143 67.8407H54.9188H57.9232V67.2912V66.7418L55.542 66.7248L53.1609 66.7079V65.2553V63.8027L54.8388 63.7855L56.5168 63.7683V63.2188V62.6694L54.8388 62.6521L53.1609 62.6349V61.2139V59.7929L55.4781 59.7919C56.7526 59.7913 57.8326 59.767 57.8781 59.7378C57.9372 59.6998 57.9555 59.5387 57.942 59.1732L57.9232 58.6617L54.9329 58.6448C52.5749 58.6316 51.9363 58.6453 51.912 58.7095ZM66.484 58.7162C66.4658 58.764 66.4596 59.0185 66.47 59.2818L66.489 59.7605L67.7509 59.7781L69.013 59.7956L69.0294 63.8181L69.0459 67.8407H69.6852H70.3244L70.3409 63.8168L70.3573 59.7929H71.6226C72.5213 59.7929 72.91 59.7704 72.9644 59.7153C73.0077 59.6716 73.0411 59.4622 73.0411 59.2358C73.0411 59.0147 73.0237 58.7878 73.0023 58.7316C72.9677 58.6402 72.6205 58.6293 69.7403 58.6293C67.1008 58.6293 66.5109 58.645 66.484 58.7162ZM27.9733 59.8936C28.1701 60.0009 28.4126 60.2046 28.5303 60.3613C28.6449 60.514 28.7826 60.7883 28.8362 60.971C28.9142 61.2366 28.9337 61.6932 28.9337 63.2512C28.9337 64.8091 28.9142 65.2658 28.8362 65.5313C28.7826 65.714 28.6459 65.9883 28.5324 66.141C28.3965 66.3239 28.1846 66.492 27.9108 66.6339C27.5184 66.8374 27.4654 66.848 26.9521 66.8248C26.5 66.8043 26.351 66.7683 26.0649 66.6107C25.8715 66.5042 25.6261 66.2955 25.5041 66.134C25.3848 65.976 25.2432 65.6937 25.1894 65.5065C25.1087 65.2258 25.095 64.8071 25.111 63.1099C25.1293 61.1645 25.1377 61.0371 25.2677 60.7528C25.3432 60.5876 25.5198 60.3362 25.6601 60.1944C25.8003 60.0526 26.0693 59.8749 26.2578 59.7996C26.529 59.6912 26.7073 59.6669 27.1126 59.683C27.5339 59.6998 27.6863 59.7371 27.9733 59.8936ZM4.77471 63.8652C4.9583 64.4519 5.12188 64.9682 5.13819 65.0126C5.16133 65.0758 4.83915 65.0934 3.65873 65.0934C2.82875 65.0934 2.14968 65.0832 2.14968 65.0707C2.14968 65.0583 2.17666 64.9638 2.20971 64.8607C2.24269 64.7576 2.46898 64.0333 2.7126 63.2512C2.95627 62.469 3.23562 61.5527 3.33342 61.215C3.43129 60.8772 3.53977 60.5282 3.57448 60.4393C3.62946 60.2986 3.68961 60.4406 4.03927 61.5382C4.26019 62.2314 4.59113 63.2786 4.77471 63.8652Z" fill="white"/>
</svg>
