<svg width="140" height="60" viewBox="0 0 140 60" fill="none" xmlns="http://www.w3.org/2000/svg">
<path fill-rule="evenodd" clip-rule="evenodd" d="M32.076 0.594314C31.8809 0.961222 31.4155 2.00818 31.042 2.92106C30.6683 3.83395 30.0838 5.1882 29.7427 5.93056C29.4016 6.67292 28.967 7.63462 28.7771 8.06767C28.5871 8.50071 28.3388 9.05749 28.2252 9.30494C28.1118 9.5524 27.4543 11.0754 26.7641 12.6894C26.074 14.3033 25.2831 16.1255 25.0065 16.7387C24.73 17.3517 24.4111 18.0558 24.298 18.3033C24.1851 18.5507 23.8386 19.3118 23.5286 19.9943L22.9646 21.2354L21.4906 21.5281C20.68 21.6889 19.2876 21.9582 18.3967 22.1265C17.5058 22.2947 15.8397 22.5962 14.6942 22.7962C13.5488 22.9964 12.143 23.2537 11.5702 23.368C10.9975 23.4823 8.60248 23.9261 6.24793 24.3545C3.89339 24.7826 1.5245 25.1996 0.983471 25.2811C0.442446 25.3625 0 25.506 0 25.6003C0 25.6943 3.07329 28.2415 6.82969 31.2607C10.5859 34.2796 13.7596 36.783 13.8822 36.8232C14.0049 36.8635 14.7153 36.4401 15.4611 35.8822C16.2069 35.3243 18.3699 33.8655 20.2681 32.6404C22.166 31.4152 25.004 29.6781 26.5745 28.7805C28.1451 27.8827 31.4253 26.1557 33.8638 24.9427C36.3023 23.7297 39.4171 22.2545 40.7851 21.6642C42.1532 21.0739 43.2727 20.5171 43.2727 20.4269C43.2727 20.3367 42.532 18.8603 41.6265 17.1459C40.721 15.4317 39.3023 12.7637 38.4734 11.2171C37.6445 9.6705 35.9763 6.53233 34.766 4.24337C33.5558 1.95441 32.5353 0.0469899 32.4983 0.00447275C32.4613 -0.0380444 32.2713 0.227407 32.076 0.594314ZM49.1407 9.3866C48.9475 9.88421 48.6929 10.0667 48.0205 10.1893L47.1501 10.3479L47.8055 11.0128C48.3951 11.6112 48.4349 11.7448 48.201 12.3473C48.0054 12.8512 48.0075 13.0147 48.2102 13.0089C48.3583 13.0044 48.7394 12.8609 49.0572 12.6899C49.3749 12.5189 49.7393 12.4595 49.8671 12.5578C49.9948 12.6562 50.3472 12.8107 50.6504 12.9014C51.1768 13.0586 51.1944 13.0298 51.0459 12.2596C50.9202 11.6087 50.9813 11.3775 51.3624 11.0603C51.6223 10.8441 51.8347 10.5913 51.8347 10.4986C51.8347 10.4059 51.4962 10.2455 51.0826 10.142C50.609 10.0235 50.2188 9.72966 50.0286 9.34813C49.8627 9.01519 49.6512 8.74255 49.5588 8.74255C49.4663 8.74255 49.2782 9.03229 49.1407 9.3866ZM50.3306 10.4367C50.7124 10.7409 50.8947 10.9903 50.7355 10.991C50.5766 10.9917 50.4463 11.225 50.4463 11.5095C50.4463 11.9509 50.3273 12.0269 49.6364 12.0269C49.0208 12.0269 48.8264 11.9329 48.8264 11.6353C48.8264 11.4198 48.7223 11.1811 48.595 11.1046C48.4678 11.0281 48.3636 10.8704 48.3636 10.7539C48.3636 10.6374 48.5231 10.5422 48.7179 10.5422C48.913 10.5422 49.1324 10.3904 49.2055 10.2048C49.2788 10.0192 49.4057 9.87094 49.4876 9.87544C49.5695 9.87994 49.9488 10.1326 50.3306 10.4367ZM44.2238 13.3243C44.0239 13.5587 44.047 13.7011 44.321 13.9222C44.5806 14.1317 44.7509 14.1443 44.9331 13.9672C45.0719 13.8322 45.1228 13.5632 45.0462 13.3693C44.9696 13.1754 44.8125 13.0168 44.6968 13.0168C44.5811 13.0168 44.3682 13.1551 44.2238 13.3243ZM47.8321 16.0607C47.6035 16.3662 47.1948 16.6161 46.9241 16.6161H46.4316L46.9266 17.1283C47.2746 17.4885 47.3788 17.8003 47.277 18.1787C47.152 18.643 47.1927 18.6916 47.5743 18.5336C47.8175 18.4331 48.1727 18.3508 48.3636 18.3508C48.5546 18.3508 48.8926 18.4266 49.1148 18.5195C49.4617 18.6643 49.4996 18.5942 49.3818 18.0219C49.2812 17.533 49.3432 17.3191 49.6142 17.2179C49.8173 17.1421 49.9835 16.9758 49.9835 16.848C49.9835 16.7205 49.8349 16.6161 49.6533 16.6161C49.4714 16.6161 49.118 16.363 48.8679 16.0537C48.6175 15.7444 48.3757 15.4945 48.3303 15.4983C48.285 15.5023 48.0607 15.7554 47.8321 16.0607ZM51.9504 20.5675C51.0595 20.7344 49.7579 21.0341 49.0578 21.2336C48.3578 21.4331 47.4727 21.6837 47.0909 21.7904C46.7091 21.897 45.9688 22.1377 45.4459 22.3251C44.9229 22.5125 43.5692 23.0364 42.4376 23.489C41.306 23.9417 39.0264 24.9481 37.3719 25.7254C35.7174 26.5028 32.9669 27.9632 31.2596 28.9708C29.5525 29.9784 26.7428 31.8373 25.0158 33.1015C23.1659 34.4558 20.5402 36.6941 18.6253 38.5496C16.6015 40.5103 14.4938 42.8452 13.0406 44.7359C11.757 46.4063 10.2165 48.6176 9.61742 49.6499C9.01831 50.6823 8.56291 51.5605 8.60526 51.6019C8.64783 51.6431 9.31058 51.102 10.0784 50.3997C10.846 49.6974 12.4591 48.2552 13.6626 47.1947C14.8664 46.1345 16.9446 44.3697 18.281 43.2733C19.6174 42.1768 21.6479 40.6071 22.7934 39.7853C23.9388 38.9633 25.6457 37.8104 26.5866 37.223C27.5275 36.6356 29.3498 35.6222 30.6362 34.9709C31.9225 34.3195 34.381 33.2194 36.0992 32.5261C37.8174 31.8328 40.3165 30.9023 41.6529 30.4583C42.9893 30.0144 44.395 29.5575 44.7769 29.4428C45.1587 29.3283 46.4955 29.0664 47.7476 28.8613C49.6533 28.549 50.2565 28.5324 51.4501 28.7598C52.2343 28.9092 53.3044 29.2205 53.828 29.4518C54.3517 29.6828 55.1047 30.2315 55.5013 30.6708C55.8982 31.11 56.3971 31.797 56.6102 32.1974C56.8236 32.5981 57.1165 33.733 57.2619 34.7199L57.5257 36.5141L58.7232 35.0573C59.3818 34.256 60.343 32.8205 60.8593 31.8672C61.3753 30.9138 62.0031 29.5087 62.2542 28.7447C62.5228 27.9275 62.7087 26.7424 62.7057 25.8664C62.7024 24.8971 62.5504 24.0629 62.2706 23.4773C62.0344 22.9824 61.6153 22.3492 61.3397 22.07C61.0643 21.7908 60.5897 21.4037 60.2852 21.2098C59.9806 21.0156 59.1783 20.7139 58.5022 20.5389C57.826 20.3639 56.4397 20.2305 55.4215 20.2424C54.4033 20.2544 52.8413 20.4006 51.9504 20.5675ZM92.8964 21.331C92.6349 21.434 92.0883 21.8867 91.6815 22.3368L90.9421 23.1556V28.4343V33.713H92.6777H94.4132L94.4167 29.8324C94.4188 27.698 94.5123 25.8106 94.6247 25.6378C94.7372 25.4653 94.9797 25.38 95.1634 25.4484C95.3469 25.517 96.0995 26.62 96.8356 27.8996C97.5717 29.1791 98.6391 31.0108 99.2079 31.9695L100.242 33.713H102.022C103.72 33.713 103.818 33.6846 104.168 33.0943C104.369 32.7542 104.879 31.8683 105.301 31.1259C105.722 30.3836 106.469 29.0676 106.961 28.2015C107.452 27.3354 107.973 26.3944 108.118 26.1103C108.289 25.7744 108.549 25.6171 108.86 25.6603C109.321 25.7245 109.341 25.8772 109.402 29.7199L109.465 33.713H111.323H113.181L113.111 28.5781C113.043 23.5484 113.03 23.4265 112.473 22.638C112.161 22.1951 111.624 21.6714 111.281 21.4741C110.937 21.2768 110.151 21.1157 109.535 21.1162C108.825 21.1166 108.137 21.2808 107.66 21.5634C107.246 21.809 106.56 22.5424 106.136 23.1934C105.711 23.8445 104.967 25.0858 104.482 25.9519C103.997 26.818 103.355 27.9043 103.056 28.3657C102.757 28.8273 102.512 29.2957 102.512 29.4068C102.512 29.5177 102.37 29.7235 102.196 29.8639C101.958 30.0558 101.821 30.0486 101.644 29.8351C101.515 29.679 100.86 28.5389 100.19 27.3016C99.5192 26.0644 98.5197 24.3684 97.9688 23.5327C97.4175 22.697 96.6266 21.8115 96.2108 21.5652C95.7364 21.284 95.0665 21.122 94.4132 21.1303C93.8405 21.1378 93.1579 21.228 92.8964 21.331ZM72.6419 21.4336C72.589 21.4847 72.5811 22.092 72.6248 22.7833L72.704 24.0397H78.4319C83.6869 24.0397 84.1914 24.0737 84.5426 24.4512C84.7532 24.6775 84.9256 25.0282 84.9256 25.2307C84.9256 25.4329 84.7243 25.7033 84.4781 25.8315C84.2319 25.9595 83.3937 26.0644 82.6157 26.0644C81.3703 26.0644 81.1303 26.1384 80.609 26.683C80.2836 27.0231 79.707 27.6814 79.3279 28.1452C78.9489 28.6093 78.7256 28.9947 78.8318 29.0019C78.938 29.0093 80.1304 29.0039 81.4818 28.9902C82.8333 28.9765 84.2094 29.0313 84.5396 29.1119C84.8701 29.1926 85.2049 29.4558 85.2836 29.6968C85.3623 29.9379 85.2993 30.2844 85.1436 30.4668C84.9094 30.741 84.1243 30.7876 80.5879 30.7372L76.315 30.676L76.2815 28.4264L76.2479 26.1768L74.8692 26.108C74.1109 26.0702 73.2778 26.0909 73.018 26.1541C72.5626 26.2648 72.548 26.4032 72.6142 29.991L72.6827 33.713H80.3836H88.0845L88.5878 33.1924C89.0243 32.7407 89.0909 32.414 89.0909 30.7287C89.0909 28.7915 89.0884 28.783 88.2537 27.9952L87.4165 27.2047L88.0223 26.5048C88.5374 25.9096 88.6281 25.5897 88.6281 24.3677C88.6281 23.081 88.5529 22.8475 87.9098 22.1355L87.1918 21.3402H79.965C75.9904 21.3402 72.6949 21.3823 72.6419 21.4336ZM114.457 21.9589C114.541 22.2992 114.685 22.6787 114.778 22.8025C114.871 22.9262 115.161 23.6391 115.423 24.3866C115.685 25.1342 116.026 26.0452 116.181 26.4113C116.335 26.7773 116.603 27.3957 116.776 27.7855C116.949 28.1754 117.091 28.6071 117.091 28.7447C117.091 28.8824 117.187 29.1708 117.304 29.3857C117.421 29.6005 117.74 30.3442 118.012 31.0387C118.284 31.7331 118.839 32.6066 119.245 32.98C119.651 33.3535 120.211 33.7724 120.489 33.9109C120.767 34.0495 121.402 34.1629 121.9 34.1629C122.397 34.1629 123.131 34.005 123.529 33.8117C123.927 33.6187 124.454 33.1861 124.7 32.8505C124.946 32.5148 125.524 31.0297 125.986 29.5501C126.447 28.0705 126.922 26.7651 127.041 26.6495C127.176 26.5188 127.3 26.5599 127.368 26.7579C127.429 26.9332 127.693 27.7963 127.954 28.6757C128.216 29.5551 128.43 30.3964 128.43 30.5455C128.43 30.6945 128.694 31.359 129.017 32.0222C129.411 32.8327 129.87 33.3814 130.418 33.6954C130.977 34.0158 131.633 34.1629 132.504 34.1629C133.203 34.1629 134.057 34.0214 134.4 33.8484C134.745 33.6756 135.188 33.3465 135.387 33.1173C135.585 32.8883 135.936 32.2451 136.166 31.6883C136.396 31.1316 136.667 30.4736 136.768 30.2261C136.868 29.9786 137.637 27.9662 138.475 25.7539C139.314 23.5415 140 21.6394 140 21.5272C140 21.4147 139.094 21.3519 137.986 21.3877L135.972 21.4527L135.423 22.9149C135.122 23.7192 134.734 24.7315 134.562 25.1645C134.39 25.5976 133.968 26.7111 133.624 27.6391C133.28 28.567 132.855 29.4745 132.681 29.6556C132.402 29.9449 132.323 29.9449 132.027 29.6556C131.842 29.4745 131.54 28.7695 131.355 28.089C131.17 27.4085 130.746 25.8394 130.412 24.6021C130.079 23.3649 129.706 22.1247 129.585 21.8464C129.379 21.3726 129.226 21.3402 127.19 21.3402C125.03 21.3402 125.013 21.3445 124.774 21.9589C124.641 22.2992 124.372 23.1343 124.174 23.8148C123.977 24.4953 123.499 26.0792 123.112 27.3347C122.719 28.6096 122.259 29.6732 122.071 29.7433C121.886 29.8124 121.654 29.7469 121.556 29.5976C121.459 29.4484 121.186 28.8201 120.95 28.2015C120.714 27.5828 120.326 26.5705 120.089 25.9519C119.851 25.3333 119.433 24.2703 119.16 23.5898C118.888 22.9093 118.611 22.1247 118.545 21.8464C118.432 21.3681 118.312 21.3402 116.365 21.3402H114.305L114.457 21.9589ZM44.8926 32.4856C43.938 32.6543 42.2198 33.057 41.0744 33.38C39.9289 33.7033 38.5359 34.1633 37.9789 34.4027C37.4217 34.642 36.8674 34.8378 36.7469 34.8378C36.6265 34.8378 34.9998 35.5518 33.1319 36.4244C31.2637 37.2972 28.9545 38.4783 28 39.0492C27.0455 39.6202 24.9107 41.0702 23.2562 42.2713C21.6017 43.4726 18.9979 45.5629 17.4701 46.9169C15.9424 48.2707 13.5807 50.5356 12.2223 51.9501C10.8638 53.3645 9.51699 54.8148 9.22959 55.1731C8.94195 55.5313 8.80427 55.7843 8.92367 55.7355C9.04284 55.6865 10.8066 54.4373 12.843 52.9595C14.8793 51.4818 18.2636 49.1433 20.3636 47.7632C22.4636 46.3829 25.0669 44.7492 26.1488 44.1326C27.2306 43.516 29.0008 42.55 30.0826 41.9858C31.1645 41.4218 32.9868 40.5855 34.1322 40.1274C35.2777 39.6692 36.5793 39.1633 37.0248 39.0029C37.4702 38.8427 38.5116 38.4506 39.3388 38.1316C40.1661 37.8128 41.7802 37.2819 42.9256 36.9517C44.6126 36.4658 45.4919 36.3497 47.5537 36.3414C49.0111 36.3355 50.3771 36.4446 50.7494 36.5963C51.1072 36.7423 51.3425 36.9515 51.2726 37.0615C51.2027 37.1712 50.8061 37.324 50.391 37.4005C49.9758 37.477 48.6992 37.8351 47.5537 38.1964C46.4083 38.5577 44.5788 39.1581 43.4879 39.5311C42.3973 39.9038 40.3503 40.6658 38.939 41.2241C37.5279 41.7825 34.9838 42.8377 33.2858 43.5693C31.5877 44.3009 27.9357 45.9959 25.1701 47.3362C22.4046 48.6765 19.8851 49.9811 19.5715 50.2353C19.0546 50.6539 18.9454 51.0778 18.4097 54.7466C18.0843 56.9737 17.8182 59.0827 17.8182 59.4332C17.8182 59.7839 17.9001 60.037 18.0001 59.9956C18.1 59.9544 20.8336 58.3095 24.0744 56.3404C27.3153 54.3714 31.6101 51.7648 33.6185 50.5477C35.6269 49.3309 37.4154 48.3353 37.5931 48.3353C37.7708 48.3353 40.1367 49.3854 42.8506 50.6688C45.5646 51.9522 50.1256 54.1226 52.9862 55.4921C55.8468 56.8614 58.2236 57.9466 58.2678 57.9035C58.312 57.8605 58.0736 56.7276 57.7379 55.3862C57.4023 54.0445 56.5574 50.6692 55.8609 47.8854C55.1642 45.1015 54.3605 41.9127 54.0752 40.7992C53.6059 38.9684 53.5885 38.71 53.8938 38.0997C54.0796 37.7285 54.2365 36.9692 54.2427 36.4125C54.249 35.8557 54.0613 35.0186 53.8257 34.5521C53.5901 34.0857 53.1107 33.5056 52.7601 33.263C52.4097 33.0203 51.5156 32.668 50.7733 32.48C50.0309 32.2921 48.7945 32.1472 48.0258 32.1585C47.2571 32.1695 45.8471 32.3169 44.8926 32.4856ZM75.3223 38.4837C74.9405 38.6132 74.2977 38.959 73.8936 39.2517C73.4896 39.5443 72.8909 40.3348 72.563 41.0086C72.0417 42.0799 71.9669 42.5264 71.9669 44.5695C71.9669 46.1084 72.0917 47.2613 72.3326 47.9488C72.5339 48.5227 73.0284 49.3078 73.4317 49.6938C73.8353 50.0796 74.5163 50.5392 74.9456 50.7151C75.4936 50.9396 76.6825 51.0348 78.9373 51.0348H82.1488V50.0474V49.0599L79.6612 48.9766C77.6826 48.9105 77.0086 48.7996 76.3666 48.4347C75.7823 48.1027 75.4419 47.6689 75.1319 46.8622C74.8199 46.0506 74.7271 45.3208 74.7903 44.1735C74.838 43.3075 75.0294 42.2951 75.2156 41.924C75.4019 41.5528 75.9186 41.072 76.3639 40.8559C76.9838 40.5546 77.7565 40.4624 79.6612 40.4622L82.1488 40.4617V39.3369V38.2121L79.0826 38.2299C77.3962 38.2396 75.7041 38.3539 75.3223 38.4837ZM109.321 38.5136C109.25 38.6929 109.225 39.2299 109.265 39.707L109.339 40.5742H110.496H111.653V39.4494V38.3246L110.551 38.256C109.754 38.2063 109.414 38.2771 109.321 38.5136ZM115.702 39.8852V41.5579L114.95 41.6286C114.24 41.6952 114.198 41.7483 114.198 42.5966C114.198 43.4181 114.257 43.5041 114.893 43.6105L115.587 43.7266L115.707 46.4247C115.794 48.3879 115.936 49.3199 116.23 49.847C116.451 50.2456 116.833 50.6758 117.078 50.8031C117.323 50.9306 118.207 51.0348 119.043 51.0348H120.562V50.1637C120.562 49.3204 120.532 49.288 119.629 49.1476C118.903 49.0347 118.645 48.8711 118.464 48.4084C118.336 48.0815 118.261 46.8937 118.298 45.7689L118.364 43.7236L119.463 43.655L120.562 43.5864V42.5865V41.5865H119.405H118.248V39.8993V38.2121H116.975H115.702V39.8852ZM135.603 44.6235V51.0348H136.76H137.917V44.6235V38.2121H136.76H135.603V44.6235ZM85.3306 41.712C85.235 41.8079 85.157 42.2744 85.157 42.7489V43.6111H87.4366C88.6903 43.6111 90.0337 43.7187 90.4217 43.8503C90.8176 43.9844 91.1833 44.2977 91.255 44.5641C91.3251 44.8252 91.3295 45.1226 91.2645 45.225C91.1995 45.3271 90.2412 45.4115 89.1351 45.4122C88.029 45.4128 86.738 45.5174 86.2662 45.645C85.7691 45.7791 85.2096 46.148 84.9356 46.5219C84.5968 46.9846 84.4628 47.5194 84.4628 48.4088C84.4628 49.4954 84.5517 49.737 85.1748 50.3426L85.8869 51.0348H89.9462H94.0057L93.8953 47.4917C93.813 44.8455 93.6917 43.7774 93.4161 43.2724C93.2134 42.9005 92.7082 42.4015 92.2935 42.1635C91.6843 41.8135 90.962 41.712 88.5221 41.634C86.8622 41.5809 85.4261 41.616 85.3306 41.712ZM97.3636 41.7105C97.2681 41.8072 97.1901 44.76 97.1901 48.2721V54.6577L98.3929 54.5896L99.5958 54.5216L99.5333 53.2313C99.499 52.5215 99.5375 51.7371 99.6189 51.4879C99.7513 51.0825 99.966 51.0348 101.66 51.0339C103.182 51.0332 103.712 50.9394 104.359 50.5556C104.803 50.2929 105.299 49.9136 105.463 49.7127C105.626 49.512 105.914 49.0063 106.103 48.589C106.292 48.1717 106.446 47.1972 106.446 46.4231C106.446 45.649 106.293 44.6745 106.106 44.2572C105.918 43.8399 105.58 43.2836 105.354 43.0206C105.127 42.7577 104.654 42.3651 104.301 42.1485C103.804 41.8423 102.976 41.7296 100.599 41.6443C98.915 41.5838 97.4592 41.6135 97.3636 41.7105ZM109.377 41.7366C109.293 41.8189 109.223 43.9448 109.223 46.4607V51.0348H110.496H111.769V46.4472C111.769 42.4715 111.72 41.8414 111.403 41.7231C111.201 41.6479 110.698 41.5865 110.284 41.5865C109.87 41.5865 109.462 41.654 109.377 41.7366ZM123.511 41.7552C123.464 41.8479 123.431 42.2783 123.44 42.7113L123.455 43.4987L126.116 43.6262C127.579 43.6962 128.959 43.8336 129.182 43.9315C129.404 44.0291 129.587 44.3009 129.587 44.5351C129.587 44.7692 129.613 45.0369 129.645 45.1296C129.677 45.2223 128.533 45.353 127.104 45.4196C124.968 45.5192 124.392 45.6232 123.868 46.0036C123.502 46.2695 123.113 46.8605 122.954 47.3941C122.759 48.0487 122.746 48.5719 122.908 49.1721C123.034 49.6398 123.417 50.2497 123.759 50.5275C124.35 51.008 124.575 51.0325 128.372 51.0337L132.364 51.0348V48.1135C132.364 46.5068 132.238 44.7337 132.083 44.1733C131.929 43.6127 131.513 42.8848 131.16 42.5552C130.714 42.1401 130.143 41.9046 129.3 41.7879C128.63 41.6952 127.073 41.6119 125.84 41.6029C124.607 41.5939 123.559 41.6626 123.511 41.7552ZM103.159 44.363C103.712 44.9008 103.785 45.1427 103.781 46.4281C103.777 47.6753 103.694 47.9634 103.202 48.4394C102.781 48.8471 102.267 49.0363 101.275 49.1487C100.235 49.2666 99.8737 49.2293 99.7163 48.9874C99.6034 48.8144 99.5097 47.6015 99.5076 46.292C99.5058 44.9825 99.5821 43.8339 99.6777 43.7396C99.7733 43.6451 100.455 43.6098 101.192 43.6609C102.267 43.7353 102.657 43.8746 103.159 44.363ZM129.818 48.3584C129.818 48.8592 129.688 49.0333 129.231 49.1449C128.909 49.2236 128.02 49.2441 127.257 49.1906C126.423 49.1319 125.726 48.9526 125.508 48.7404C125.222 48.4633 125.2 48.2878 125.402 47.9209C125.622 47.5205 125.913 47.4449 127.449 47.3887C128.434 47.3524 129.37 47.4114 129.529 47.5191C129.688 47.6271 129.818 48.0048 129.818 48.3584ZM91.361 48.279L91.2893 49.1226H89.388C87.9374 49.1226 87.3973 49.0356 87.1092 48.7553C86.8074 48.4615 86.7843 48.2921 86.9939 47.9117C87.2311 47.4807 87.4544 47.4354 89.3445 47.4354H91.433L91.361 48.279Z" fill="white"/>
</svg>
