<svg width="167" height="38" viewBox="0 0 167 38" fill="none" xmlns="http://www.w3.org/2000/svg">
<path d="M0 37.9299L16.4281 6.57107L30.9369 0L14.486 31.3588L0 37.9299Z" fill="white"/>
<path d="M16.3818 30.7743L28.8572 6.94531L35.9859 14.1244L23.6477 38.0001L16.3818 30.7743Z" fill="white"/>
<path d="M37.3582 14.8257L46.589 18.2866L41.9736 26.9857L30.7778 27.3833L37.3582 14.8257Z" fill="white"/>
<path d="M63.8983 29.8751H58.0864V13.0918H63.9414C65.5835 13.0918 67.0094 13.4235 68.1978 14.0869C69.3861 14.7502 70.3151 15.7231 70.9417 16.9615C71.5898 18.2219 71.8922 19.7034 71.8922 21.4502C71.8922 23.1971 71.5682 24.7008 70.92 25.9612C70.2718 27.2216 69.3644 28.1724 68.1545 28.8579C66.9879 29.5434 65.5619 29.8751 63.8983 29.8751ZM61.5432 26.8235H63.747C65.281 26.8235 66.4477 26.4035 67.2471 25.541C68.0465 24.7008 68.4354 23.3298 68.4354 21.4502C68.4354 19.5928 68.0465 18.244 67.2471 17.3816C66.4477 16.5413 65.281 16.1212 63.747 16.1212H61.5432V26.8235Z" fill="white"/>
<path d="M74.4841 29.875H70.7681L76.4287 13.1138H80.901L86.5404 29.875H82.8239L81.614 26.0495H75.6941L74.4841 29.875ZM76.5799 23.2855H80.7497L78.7404 16.9392H78.6108L76.5799 23.2855Z" fill="white"/>
<path d="M100.758 21.4948C100.758 23.3301 100.412 24.8779 99.7424 26.1605C99.0727 27.443 98.1434 28.4159 96.9986 29.1014C95.8321 29.7648 94.5353 30.1186 93.0875 30.1186C91.6404 30.1186 90.3219 29.7869 89.1771 29.1014C88.0106 28.4159 87.103 27.443 86.4333 26.1605C85.7637 24.8779 85.418 23.3301 85.418 21.5169C85.418 19.6815 85.7637 18.1337 86.4333 16.8512C87.103 15.5686 88.0106 14.5957 89.1771 13.9103C90.3436 13.2468 91.6404 12.8931 93.0875 12.8931C94.5353 12.8931 95.8321 13.2247 96.9986 13.9103C98.1651 14.5736 99.0727 15.5686 99.7424 16.8512C100.434 18.0895 100.758 19.6594 100.758 21.4948ZM97.2574 21.4948C97.2574 19.7258 96.8692 18.3548 96.1127 17.4261C95.3561 16.4974 94.3408 16.0109 93.0875 16.0109C91.8349 16.0109 90.8196 16.4753 90.0631 17.4261C89.3066 18.3769 88.9183 19.7258 88.9183 21.4948C88.9183 23.2638 89.3066 24.6347 90.0631 25.5635C90.8196 26.4921 91.8349 26.9786 93.0875 26.9786C94.3408 26.9786 95.3561 26.5143 96.1127 25.5635C96.8692 24.6126 97.2574 23.2638 97.2574 21.4948Z" fill="white"/>
<path d="M105.402 13.0918H109.68L114.195 24.3691H114.39L118.905 13.0918H123.162V29.8751H119.791V18.9516H119.662L115.427 29.7867H113.137L108.902 18.9074H108.773V29.8751H105.402V13.0918Z" fill="white"/>
<path d="M128.197 30.0961C127.03 30.0961 126.058 29.7866 125.28 29.1454C124.502 28.5262 124.114 27.5754 124.114 26.3371C124.114 25.4083 124.329 24.6565 124.762 24.1258C125.193 23.5951 125.755 23.1971 126.468 22.9539C127.16 22.7107 127.916 22.5337 128.737 22.4674C129.796 22.3568 130.573 22.2463 131.028 22.1136C131.481 21.9809 131.719 21.7377 131.719 21.3175V21.2733C131.719 20.7647 131.567 20.3447 131.243 20.0793C130.919 19.7918 130.487 19.6591 129.904 19.6591C129.299 19.6591 128.801 19.7918 128.435 20.0793C128.067 20.3447 127.83 20.6984 127.722 21.1186L124.567 20.8532C124.805 19.7033 125.388 18.7968 126.317 18.1334C127.246 17.47 128.456 17.1162 129.925 17.1162C130.833 17.1162 131.697 17.271 132.475 17.5585C133.275 17.8459 133.901 18.3103 134.398 18.9294C134.894 19.5486 135.132 20.3668 135.132 21.3618V29.8751H131.892V28.1282H131.805C131.503 28.7031 131.07 29.1896 130.466 29.5654C129.86 29.9193 129.105 30.0961 128.197 30.0961ZM129.169 27.708C129.925 27.708 130.53 27.4869 131.006 27.0447C131.481 26.6024 131.719 26.0496 131.719 25.3862V24.0595C131.589 24.1479 131.373 24.2364 131.092 24.3027C130.811 24.369 130.509 24.4354 130.206 24.4797C129.882 24.5239 129.601 24.5681 129.363 24.6123C128.759 24.7008 128.283 24.8776 127.916 25.1209C127.549 25.3862 127.376 25.7622 127.376 26.2486C127.376 26.735 127.549 27.0889 127.895 27.3322C128.219 27.5754 128.65 27.708 129.169 27.708Z" fill="white"/>
<path d="M136.428 29.8751V13.0918H139.842V22.0473H140.036L143.968 17.271H147.879L143.32 22.7106L148.117 29.853H144.119L140.749 24.7892L139.82 25.8728V29.8751H136.428Z" fill="white"/>
<path d="M153.043 30.1187C151.79 30.1187 150.71 29.8533 149.781 29.3226C148.873 28.7919 148.16 28.0401 147.685 27.0892C147.188 26.1163 146.95 24.9665 146.95 23.6398C146.95 22.3572 147.188 21.2073 147.685 20.2345C148.182 19.2615 148.873 18.4876 149.759 17.9569C150.645 17.4041 151.704 17.1387 152.914 17.1387C153.993 17.1387 154.966 17.382 155.852 17.8463C156.716 18.3106 157.408 19.0183 157.926 19.9691C158.445 20.9199 158.704 22.0919 158.704 23.5291V24.48H150.343C150.343 25.4088 150.602 26.1606 151.098 26.6913C151.595 27.222 152.287 27.5094 153.129 27.5094C153.691 27.5094 154.188 27.3767 154.599 27.1335C155.01 26.8903 155.312 26.5143 155.485 26.05L158.639 26.2711C158.401 27.4431 157.796 28.3718 156.824 29.0794C155.83 29.7649 154.577 30.1187 153.043 30.1187ZM150.321 22.313H155.485C155.485 21.5612 155.247 20.942 154.772 20.4556C154.297 19.9691 153.713 19.7259 152.956 19.7259C152.201 19.7259 151.574 19.9691 151.098 20.4777C150.623 20.9863 150.365 21.6054 150.321 22.313Z" fill="white"/>
<path d="M159.545 29.8751V17.2931H162.851V19.4822H162.98C163.196 18.7083 163.585 18.1113 164.104 17.7132C164.623 17.3152 165.249 17.1162 165.918 17.1162C166.308 17.1162 166.653 17.1604 166.999 17.2489V20.3447C166.848 20.3004 166.61 20.2561 166.329 20.2119C166.049 20.1677 165.789 20.1677 165.551 20.1677C164.795 20.1677 164.168 20.411 163.693 20.8975C163.196 21.3839 162.958 22.003 162.958 22.777V29.8751H159.545Z" fill="white"/>
</svg>
