<svg width="142" height="42" viewBox="0 0 142 42" fill="none" xmlns="http://www.w3.org/2000/svg">
<path d="M30.0234 39.928C33.5742 38.2069 36.5701 35.5183 38.6684 32.1698C40.7668 28.8212 41.8829 24.9481 41.889 20.9933C41.8895 17.0371 40.7761 13.1612 38.677 9.81147C36.5779 6.46176 33.5783 3.77439 30.0234 2.05859V39.928Z" fill="white"/>
<path d="M14.8984 0.877709V41.1074C16.2886 41.5295 17.7191 41.8036 19.1665 41.9253C19.7512 41.9739 20.3471 42 20.943 42C22.9119 41.997 24.8705 41.7141 26.7603 41.1597V0.825419C22.8823 -0.297565 18.7635 -0.274226 14.8984 0.89264" fill="white"/>
<path d="M1.66833e-06 20.9933C-0.00157225 24.9488 1.11052 28.8244 3.20832 32.1741C5.30613 35.5238 8.3044 38.2115 11.8581 39.928V2.05859C8.3044 3.7751 5.30613 6.46284 3.20832 9.81255C1.11052 13.1623 -0.00157225 17.0378 1.66833e-06 20.9933Z" fill="white"/>
<path d="M70.4 16.7462C71.5318 16.2118 72.488 15.3644 73.156 14.3037C73.7977 13.165 74.1291 11.8768 74.1166 10.5689C74.1042 9.26095 73.7485 7.97936 73.0852 6.85309C72.3725 5.75557 71.353 4.89302 70.1542 4.37327C68.7447 3.76283 67.22 3.46596 65.685 3.5031H57V7.80542H65.3536C66.456 7.80542 67.289 8.0544 67.8526 8.55235C68.1379 8.81805 68.3612 9.14356 68.5067 9.5057C68.6521 9.86784 68.7162 10.2577 68.6943 10.6475C68.7174 11.0358 68.6539 11.4243 68.5082 11.7848C68.3626 12.1453 68.1386 12.4687 67.8526 12.7314C67.2902 13.2169 66.456 13.4784 65.3536 13.4784H57V22.815H62.3704V17.6836H65.3014L68.7576 22.815H74.5079L70.4 16.7462Z" fill="white"/>
<path d="M86.8669 12.9375H78.9453V16.9672H86.8669V12.9375Z" fill="white"/>
<path d="M104.955 5.57133C103.384 3.93555 101.231 3.11642 98.4972 3.11393C97.1995 3.09798 95.9149 3.37629 94.7394 3.92808C93.6501 4.43949 92.7224 5.24191 92.0579 6.2473C91.3872 7.27495 91.0407 8.48136 91.0636 9.70933C91.0438 10.8345 91.3504 11.9413 91.9462 12.895C92.5266 13.8169 93.3486 14.5611 94.3223 15.0461C95.3421 15.5545 96.4684 15.8107 97.6071 15.7931C99.3451 15.7931 100.763 15.3238 101.86 14.3851C101.719 15.8367 101.222 16.9446 100.371 17.709C99.4572 18.497 98.2783 18.9057 97.0745 18.8518C95.8326 18.9017 94.6068 18.5551 93.5737 17.8621L91.6185 21.776C92.3905 22.2535 93.2343 22.6029 94.1175 22.8105C95.1195 23.0634 96.1493 23.1889 97.1826 23.184C99.026 23.2221 100.849 22.7957 102.486 21.9441C104.009 21.1215 105.247 19.856 106.039 18.314C106.921 16.5488 107.355 14.5924 107.301 12.6186C107.301 9.54873 106.514 7.19467 104.94 5.5564L104.955 5.57133ZM100.784 11.2144C100.248 11.6479 99.5805 11.8843 98.892 11.8843C98.2035 11.8843 97.5359 11.6479 97.0001 11.2144C96.7613 10.9888 96.5738 10.7142 96.4504 10.4093C96.327 10.1045 96.2706 9.77658 96.285 9.4479C96.269 9.11516 96.3246 8.78286 96.448 8.47356C96.5714 8.16426 96.7597 7.88519 97.0001 7.65527C97.5127 7.20265 98.1798 6.96585 98.8622 6.99423C99.5723 6.95604 100.269 7.19875 100.803 7.6702C101.268 8.13971 101.529 8.77476 101.529 9.4367C101.529 10.0986 101.268 10.7337 100.803 11.2032" fill="white"/>
<path d="M122.258 13.1952C121.303 12.1501 120.026 11.4559 118.631 11.2233L122.567 6.92093V3.5H108.843V7.72016H116.329L112.936 11.4548V14.9056H115.171C117.107 14.9056 118.076 15.5281 118.076 16.773C118.086 17.0719 118.016 17.3681 117.873 17.6308C117.73 17.8935 117.52 18.1131 117.264 18.2668C116.596 18.6462 115.834 18.8275 115.067 18.7897C114.142 18.7812 113.223 18.6417 112.337 18.3751C111.443 18.1163 110.597 17.7153 109.83 17.1875L107.875 21.2956C108.929 21.9411 110.077 22.415 111.279 22.6999C112.578 23.0301 113.913 23.1969 115.253 23.1966C116.834 23.2462 118.405 22.94 119.852 22.3003C120.981 21.7978 121.942 20.9797 122.619 19.9437C123.218 18.9942 123.534 17.8927 123.528 16.7692C123.56 15.4634 123.112 14.1914 122.269 13.1952" fill="white"/>
<path d="M140.91 7.76708C140.279 6.35629 139.254 5.1587 137.959 4.31848C136.664 3.47826 135.155 3.03125 133.613 3.03125C132.07 3.03125 130.561 3.47826 129.266 4.31848C127.971 5.1587 126.947 6.35629 126.315 7.76708C125.607 9.47635 125.242 11.309 125.242 13.1599C125.242 15.0108 125.607 16.8435 126.315 18.5528C126.947 19.9765 127.983 21.182 129.294 22.0185C130.605 22.7938 132.098 23.2027 133.62 23.2027C135.142 23.2027 136.635 22.7938 137.946 22.0185C139.255 21.18 140.291 19.9751 140.925 18.5528C142.35 15.0996 142.35 11.2203 140.925 7.76708H140.91ZM135.789 17.395C135.587 17.7982 135.277 18.1371 134.894 18.3739C134.511 18.6107 134.07 18.7361 133.62 18.7361C133.17 18.7361 132.729 18.6107 132.346 18.3739C131.963 18.1371 131.653 17.7982 131.451 17.395C130.914 16.5037 130.647 15.092 130.65 13.1599C130.652 11.2279 130.919 9.81616 131.451 8.92482C131.654 8.52278 131.964 8.18506 132.347 7.94914C132.73 7.71321 133.171 7.58831 133.62 7.58831C134.069 7.58831 134.51 7.71321 134.893 7.94914C135.276 8.18506 135.586 8.52278 135.789 8.92482C136.321 9.81616 136.588 11.2279 136.59 13.1599C136.593 15.092 136.326 16.5037 135.789 17.395Z" fill="white"/>
<path d="M61.6429 36.7692C62.1248 36.7784 62.602 36.672 63.0347 36.4589C63.4675 36.2459 63.8432 35.9323 64.1307 35.5443L65.4528 36.9298C65.0205 37.4551 64.4849 37.8854 63.8794 38.1938C63.2739 38.5023 62.6115 38.6823 61.9335 38.7226C61.2556 38.7629 60.5766 38.6626 59.939 38.428C59.3014 38.1935 58.7188 37.8297 58.2277 37.3593C57.7721 36.9087 57.4143 36.3686 57.1765 35.7729C56.9388 35.1772 56.8262 34.5386 56.846 33.8973C56.8339 33.255 56.9507 32.6168 57.1894 32.0207C57.4281 31.4245 57.7838 30.8825 58.2354 30.4269C58.687 29.9712 59.2253 29.6112 59.8183 29.3682C60.4113 29.1252 61.047 29.0042 61.6875 29.0123C62.4129 29.0009 63.1315 29.153 63.7903 29.4575C64.4491 29.7619 65.0313 30.2109 65.4938 30.7714L64.2089 32.2652C63.9309 31.88 63.5652 31.5668 63.1422 31.3518C62.7192 31.1368 62.2511 31.0261 61.7769 31.029C61.0508 31.0186 60.3488 31.2903 59.8179 31.7872C59.5399 32.0553 59.3222 32.38 59.1796 32.7394C59.037 33.0988 58.9727 33.4847 58.9912 33.8711C58.973 34.2564 59.033 34.6414 59.1674 35.0028C59.3018 35.3642 59.5079 35.6945 59.7733 35.9737C60.016 36.2301 60.3091 36.4332 60.6341 36.5701C60.9592 36.7071 61.309 36.7749 61.6615 36.7692" fill="white"/>
<path d="M77.7719 38.6182L76.9116 36.5865H73.0383L72.178 38.6182H69.9844L73.9694 29.2031H75.9656L79.958 38.6032L77.7719 38.6182ZM74.9824 32.0153L73.8167 34.7454H76.1332L74.9824 32.0153Z" fill="white"/>
<path d="M91.7007 30.0584C92.3488 30.6186 92.6728 31.4813 92.6728 32.639C92.6728 33.7968 92.3413 34.652 91.6747 35.1898C91.008 35.7276 89.995 35.9965 88.6282 35.9965H87.3992V38.6107H85.3359V29.2031H88.6021C90.0223 29.2031 91.0552 29.4832 91.7007 30.0434V30.0584ZM90.1887 33.7407C90.4591 33.3881 90.5916 32.9484 90.5611 32.5046C90.5822 32.2869 90.5494 32.0673 90.4656 31.8653C90.3818 31.6634 90.2496 31.4853 90.0807 31.3468C89.6283 31.0888 89.1101 30.9706 88.591 31.007H87.4141V34.1665H88.8032C89.4885 34.1665 89.9578 34.0246 90.2036 33.7407" fill="white"/>
<path d="M100.509 29.2227H98.4453V38.619H100.509V29.2227Z" fill="white"/>
<path d="M110.99 31.0377V38.619H108.931V31.0377H106.312V29.2227H113.608V31.0377H110.99Z" fill="white"/>
<path d="M125.514 38.6182L124.654 36.5865H120.78L119.92 38.6182H117.727L121.719 29.2031H123.715L127.708 38.6032L125.514 38.6182ZM122.725 32.0153L121.559 34.7454H123.868L122.725 32.0153Z" fill="white"/>
<path d="M133.078 38.619V29.2227H135.138V36.7517H139.078V38.619H133.078Z" fill="white"/>
</svg>
