<svg width="72" height="80" viewBox="0 0 72 80" fill="none" xmlns="http://www.w3.org/2000/svg">
<path fill-rule="evenodd" clip-rule="evenodd" d="M5.88949 0.0513427C5.88949 0.079566 6.07965 0.389053 6.312 0.739062L6.73451 1.37544L37.155 1.37467L67.5755 1.37396L68.0108 0.730692C68.2503 0.376906 68.4538 0.0677764 68.4632 0.0437382C68.4727 0.0194957 54.5371 0 37.1849 0C16.2371 0 5.88949 0.016995 5.88949 0.0513427ZM14.0338 12.185C24.5213 27.9202 37.1228 46.7728 37.1611 46.7847C37.1928 46.7945 62.2309 9.3319 63.2146 7.80264L63.3093 7.6555H57.1641H51.0189L44.1126 18.014C40.3141 23.7111 37.1917 28.3733 37.174 28.3744C37.14 28.3765 24.275 9.11714 24.275 9.06422C24.275 9.04732 27.0174 9.03349 30.3693 9.03349H36.4636L36.4643 13.6396L36.4649 18.2456L37.1545 19.2919L37.8441 20.3381L37.8453 13.9968L37.8464 7.6555H29.7803C25.344 7.6555 21.7143 7.66704 21.7143 7.68112C21.7143 7.73257 37.1185 30.797 37.1617 30.8102C37.1862 30.8178 40.4756 25.9211 44.4715 19.9287L51.7368 9.03349H56.2402C60.0887 9.03349 60.7377 9.0439 60.7027 9.10505C60.5486 9.37437 37.1993 44.3484 37.1729 44.3495C37.1546 44.3503 31.6351 36.0955 24.9074 26.0056L12.6752 7.66025L11.845 7.6579L11.0149 7.6555L14.0338 12.185ZM37.0423 51.866C37.0062 51.9137 30.5678 66.8067 30.4339 67.1525C30.414 67.2039 30.6501 67.2144 31.5794 67.2035L32.75 67.1898L33.1319 66.258L33.5138 65.3263L37.1777 65.3394L40.8416 65.3525L41.2261 66.2834L41.6105 67.2144L42.8585 67.2149C44.0223 67.2153 44.1047 67.2093 44.0815 67.126C44.0678 67.0769 42.5409 63.609 40.6881 59.4195C37.6596 52.5709 37.3081 51.8022 37.2052 51.8022C37.1423 51.8022 37.069 51.831 37.0423 51.866ZM46.655 59.5088V67.2153H47.7854H48.9158L48.8931 62.4306C48.8775 59.1365 48.8514 57.5051 48.8094 57.194C48.7759 56.9455 48.7569 56.7337 48.7672 56.7234C48.7775 56.7131 49.0457 57.0083 49.3633 57.3794C49.6807 57.7506 51.9223 60.1499 54.3446 62.7113C58.2365 66.8267 58.7662 67.3684 58.8987 67.3684H59.0486V59.6619V51.9553H57.9186H56.7886L56.8102 56.7655C56.8249 60.0311 56.851 61.7134 56.8915 62.0042C56.9243 62.2398 56.943 62.4406 56.9333 62.4504C56.9234 62.4602 56.6625 62.1641 56.3534 61.7923C56.0443 61.4206 53.8044 59.0208 51.3757 56.4593C47.4436 52.3123 46.9433 51.8022 46.8075 51.8022H46.655V59.5088ZM65.9879 51.8383C64.3006 52.0665 63.0239 53.0463 62.545 54.4806C62.4204 54.8538 62.4081 54.9621 62.4057 55.7065C62.4034 56.4124 62.419 56.5785 62.5212 56.9314C62.7999 57.8949 63.4361 58.6895 64.4363 59.3237C64.8132 59.5626 65.9282 60.1065 66.9354 60.5427C68.0789 61.038 68.5311 61.3047 68.9891 61.7544C69.3302 62.0892 69.3934 62.1809 69.4946 62.4868C69.5901 62.7757 69.6066 62.9175 69.5892 63.3033C69.5707 63.7144 69.5475 63.8089 69.395 64.0929C69.0954 64.651 68.5536 65.0211 67.7665 65.2055C67.2676 65.3223 66.1708 65.279 65.6806 65.1231C64.7563 64.8291 64.1098 64.2977 63.4499 63.2897L63.3702 63.1678L62.3874 63.6987C61.8469 63.9908 61.4046 64.2526 61.4045 64.2807C61.4044 64.3088 61.5151 64.504 61.6505 64.7145C62.5525 66.1173 63.8629 66.9675 65.6294 67.2962C66.3135 67.4234 67.6719 67.414 68.3437 67.2774C69.488 67.0447 70.2796 66.636 70.966 65.9235C71.4571 65.4138 71.7344 64.8991 71.9062 64.1786C71.9997 63.7867 72.0122 63.6144 71.9913 63.0048C71.9494 61.7806 71.6734 61.0705 70.9187 60.2455C70.3081 59.5779 69.4517 59.0641 67.5074 58.1989C65.6545 57.3743 65.1749 57.0527 64.8953 56.4476C64.7257 56.0804 64.687 55.5085 64.8044 55.1059C64.9607 54.5701 65.4201 54.1337 66.0072 53.9634C66.6011 53.7911 67.5303 53.8795 68.0838 54.161C68.352 54.2973 68.8385 54.7633 69.0409 55.0776C69.1295 55.2152 69.2185 55.3212 69.2387 55.313C69.4319 55.235 71.0814 54.213 71.0823 54.1707C71.0846 54.0723 70.594 53.416 70.2833 53.1017C69.4289 52.2376 68.2019 51.7915 66.7305 51.8101C66.4066 51.8142 66.0724 51.8269 65.9879 51.8383ZM0 53.0008V54.0468L2.29178 54.0601L4.58356 54.0734L4.59657 60.6453L4.60958 67.2172L5.80007 67.2035L6.99057 67.1898L7.00358 60.6188L7.01659 54.0478H9.32199H11.6274L11.6136 53.0144L11.5997 51.9809L5.79987 51.9679L0 51.9549V53.0008ZM14.2884 59.5853V67.2153H15.4919H16.6954V59.5853V51.9553H15.4919H14.2884V59.5853ZM19.3585 53.0014V54.0478H21.6631H23.9677V60.6316V67.2153H25.1712H26.3747V60.6316V54.0478H28.6803H30.986L30.9721 53.0144L30.9582 51.9809L25.1584 51.9679L19.3585 51.9549V53.0014ZM37.6651 57.6665C37.7751 57.9585 38.3529 59.3709 38.9491 60.8053L40.033 63.4131L37.1904 63.4262C35.6269 63.4335 34.3387 63.4304 34.3276 63.4195C34.3165 63.4084 34.8063 62.1852 35.4159 60.7013C36.4154 58.2682 36.9142 56.9484 37.0813 56.2944L37.1398 56.0656L37.3025 56.6006C37.3919 56.8948 37.5551 57.3745 37.6651 57.6665ZM25.0431 76.0404V79.9234H25.248H25.4529V76.5721V73.2207L25.6485 73.4971C26.1499 74.2056 30.69 80 30.7438 80C30.7901 80 30.8077 79.0776 30.8177 76.134L30.8309 72.2679H30.598H30.3651L30.38 75.6148C30.39 77.8616 30.3781 78.9343 30.3437 78.8783C30.1969 78.639 25.1616 72.1967 25.1072 72.1786C25.0563 72.1617 25.0431 72.9567 25.0431 76.0404ZM61.0119 72.2254C60.4085 72.2931 59.8513 72.6682 59.6069 73.1713C59.4676 73.4581 59.4191 74.0488 59.5064 74.3967C59.5964 74.7558 59.8484 75.1118 60.1896 75.3621C60.3552 75.4837 60.9556 75.8108 61.5237 76.0891C62.6798 76.6554 62.958 76.8677 63.1814 77.3541C63.2804 77.5695 63.3116 77.7223 63.3133 78.0014C63.3173 78.6484 63.0128 79.1183 62.4095 79.3962C62.1202 79.5294 62.0479 79.5407 61.4812 79.5407C60.9553 79.5407 60.8195 79.5229 60.5401 79.4172C60.1654 79.2755 59.6852 78.867 59.4767 78.5123C59.4049 78.3901 59.3376 78.2903 59.3271 78.2903C59.2757 78.2903 58.9461 78.4664 58.9461 78.4939C58.9461 78.5113 59.0165 78.6359 59.1023 78.7709C59.444 79.3078 60.0335 79.7327 60.6639 79.8963C61.0075 79.9855 61.876 79.9989 62.218 79.9203C62.8121 79.7839 63.3719 79.3663 63.5935 78.8944C63.9308 78.1761 63.7946 77.2385 63.2686 76.6582C62.9757 76.3351 62.5825 76.0911 61.5465 75.5894C61.0246 75.3366 60.5112 75.0505 60.3859 74.9425C59.6878 74.3407 59.7771 73.1672 60.5515 72.7677C60.8472 72.6151 61.5339 72.5813 61.941 72.6992C62.1852 72.77 62.3005 72.8469 62.6 73.1389C62.7996 73.3335 62.9752 73.4927 62.9903 73.4926C63.0053 73.4924 63.0841 73.4392 63.1655 73.3744L63.3134 73.2564L62.9937 72.9159C62.4597 72.3469 61.8432 72.1322 61.0119 72.2254ZM10.5732 72.3573C10.5899 72.4064 11.2905 74.1461 12.1301 76.2233C13.0922 78.6038 13.6821 80 13.7256 80C13.7691 80 14.3678 78.5792 15.3475 76.1509C16.2015 74.0339 16.9003 72.2929 16.9003 72.2821C16.9003 72.2713 16.7938 72.2694 16.6637 72.2779L16.4271 72.2935L15.2532 75.2281C14.6075 76.8421 14.0028 78.3852 13.9093 78.6572L13.7395 79.1518L13.6768 78.9379C13.6423 78.8203 13.0355 77.2714 12.3282 75.496L11.0424 72.2679H10.7927C10.5775 72.2679 10.5472 72.2803 10.5732 72.3573ZM18.5516 76.0829L18.5647 79.8979L20.8821 79.9112L23.1995 79.9245V79.7198V79.5152H21.1254H19.0512V78.3413V77.1675H20.8437H22.6361V76.9633V76.7592H20.8437H19.0512V74.7177V72.6762H21.0485H23.0458V72.4721V72.2679H20.7922H18.5384L18.5516 76.0829ZM32.3666 72.4721V72.6762H33.5697H34.7729L34.7861 76.2871L34.7992 79.8979L35.0165 79.9136L35.2339 79.9293L35.247 76.3155L35.2601 72.7018L36.4764 72.6881L37.6928 72.6744V72.4712V72.2679H35.0297H32.3666V72.4721ZM39.1486 72.3357C39.133 72.3762 39.1288 73.6464 39.1391 75.1585C39.1555 77.5494 39.1693 77.9458 39.2444 78.2018C39.5066 79.0956 40.0868 79.6731 40.9469 79.8963C41.1158 79.9402 41.4633 79.9745 41.7386 79.9745C43.0257 79.9745 43.839 79.4074 44.2275 78.2392C44.3124 77.9839 44.3225 77.7009 44.3384 75.1132L44.356 72.2679H44.1262H43.8965L43.878 75.0622C43.8599 77.786 43.8566 77.865 43.7459 78.1961C43.6834 78.3829 43.5304 78.6737 43.4059 78.8423C43.216 79.0994 43.1151 79.1806 42.7817 79.3448C42.3842 79.5406 42.3839 79.5407 41.7386 79.5407C41.0941 79.5407 41.0925 79.5404 40.6981 79.3461C40.2551 79.1279 39.9782 78.8233 39.776 78.3318C39.6671 78.067 39.6638 77.9922 39.6388 75.177L39.6132 72.2935L39.3951 72.2777C39.2412 72.2667 39.1687 72.2837 39.1486 72.3357ZM46.5789 72.3247C46.5639 72.3636 46.5577 74.0836 46.5649 76.1467L46.5782 79.8979H46.8087H47.0391L47.0529 78.87L47.0668 77.8421L48.0004 77.8193C48.5139 77.8067 48.9686 77.7821 49.0108 77.7644C49.0669 77.741 49.3018 78.0242 49.882 78.8151L50.6764 79.8979L50.9447 79.9133C51.0922 79.9219 51.213 79.9137 51.213 79.8953C51.213 79.8768 50.8442 79.3592 50.3936 78.7449C49.9429 78.1306 49.5742 77.6176 49.5742 77.6049C49.5742 77.5921 49.7132 77.5079 49.883 77.4177C50.7772 76.9427 51.2803 75.886 51.159 74.7377C51.1021 74.1984 50.9976 73.8773 50.7611 73.5146C50.3961 72.9547 49.8622 72.5853 49.1389 72.3923C48.7041 72.2762 46.6186 72.2211 46.5789 72.3247ZM53.2103 76.0957V79.9234H55.5405H57.8707V79.7193V79.5152H55.7709H53.6712V78.3413V77.1675H55.4923H57.3135L57.2976 76.9761L57.2817 76.7847L55.4765 76.7713L53.6712 76.7578V74.717V72.6762H55.6941H57.717V72.4721V72.2679H55.4637H53.2103V76.0957ZM49.0245 72.8011C49.6436 72.9655 50.0415 73.2393 50.3477 73.7114C50.7784 74.3755 50.8204 75.515 50.4414 76.2554C50.2981 76.5353 49.9617 76.891 49.6905 77.0494C49.251 77.3061 48.8995 77.3787 47.9482 77.4091L47.0647 77.4374V75.049V72.6606L47.8969 72.6917C48.3819 72.7097 48.8524 72.7554 49.0245 72.8011Z" fill="white"/>
</svg>
