<svg width="168" height="43" viewBox="0 0 168 43" fill="none" xmlns="http://www.w3.org/2000/svg">
<path d="M10.3673 10.0402H10.3927C12.6588 10.0615 15.0807 10.0704 18.2477 10.0704H22.2233H26.1916H27.9519C28.416 10.0667 28.8797 10.0988 29.3387 10.1664C30.5016 10.3613 31.5901 10.8581 32.4912 11.6052L33.1565 12.2828C34.3312 13.9029 34.6956 15.8592 34.2696 18.2583C34.1107 19.0752 33.9098 19.8836 33.6677 20.6806C33.5753 21.006 33.4865 21.3403 33.3922 21.6765L32.7921 22.5532L32.2846 23.2966L33.0441 23.7893C33.1112 23.8337 33.1783 23.8746 33.2435 23.9155C33.3348 23.9695 33.4226 24.0289 33.5064 24.0934C35.5295 25.7046 36.5882 27.8281 36.7514 30.6078C36.8275 31.9007 36.862 33.0603 36.5193 34.1558C35.9555 35.9556 34.8878 37.188 33.2798 37.9225C33.142 37.9848 33.0061 38.0505 32.8719 38.1164L32.823 38.1395C32.5945 38.1715 32.3698 38.2106 32.1522 38.2462C31.6408 38.347 31.1218 38.4065 30.6004 38.424C27.3228 38.4365 23.815 38.4418 19.5657 38.4418H10.8151H10.3383C8.74845 38.4418 7.80033 37.5117 7.80033 35.952C7.80033 33.0798 7.80033 30.1578 7.80033 27.3337C7.80033 22.4981 7.80034 17.4971 7.78584 12.5727C7.77588 12.2432 7.83365 11.9151 7.95575 11.608C8.07784 11.301 8.26175 11.0212 8.49648 10.7853C8.99722 10.3038 9.67162 10.036 10.3728 10.0402H10.3673ZM22.8415 33.7645C25.3226 33.7645 27.8044 33.7645 30.2868 33.7645C30.5217 33.7596 30.7555 33.7316 30.9847 33.6809C31.0554 33.6685 31.1243 33.6543 31.195 33.6436L31.8549 33.544L31.9528 32.8949C32.1206 31.8662 32.0588 30.814 31.7715 29.8111C31.3002 28.1749 30.1907 27.1327 28.561 26.7877C27.9109 26.6556 27.2489 26.5883 26.585 26.5867C24.9715 26.5867 23.2439 26.5867 20.9815 26.5867H15.3871V21.8917H15.4596C15.6952 21.8917 15.8874 21.8917 16.0705 21.8917C16.56 21.8774 17.0513 21.8543 17.5208 21.8294L18.1136 21.801C18.8387 21.801 19.5638 21.801 20.2654 21.8116C21.0177 21.8116 21.7973 21.8223 22.5641 21.8223C23.6301 21.8223 24.5111 21.8116 25.3414 21.7903C25.9022 21.7816 26.4556 21.6623 26.9685 21.4396C27.4814 21.2169 27.9434 20.8952 28.3271 20.4938C29.0844 19.6716 29.5014 18.6017 29.4964 17.4936V15.1461L28.8674 14.9469C28.1422 14.7175 21.509 14.6997 19.495 14.6997C17.4809 14.6997 13.9966 14.7157 13.3676 14.833L12.7186 14.954L12.637 15.596C12.5228 16.4852 12.5047 21.0131 12.5246 24.6233C12.5681 32.5392 12.7186 32.9624 12.7748 33.1225L12.9561 33.6151L13.48 33.7076H13.5162C13.6407 33.7389 13.7685 33.7556 13.8969 33.7574H22.8415V33.7645ZM10.3728 9.14383C8.58168 9.14383 6.87217 10.4385 6.87942 12.5691C6.90842 20.3587 6.87941 28.15 6.89391 35.9413C6.89391 37.9883 8.25354 39.3097 10.3383 39.3204C13.4153 39.3204 16.4911 39.3204 19.5657 39.3204C23.2457 39.3204 26.9252 39.3144 30.604 39.3026C31.4343 39.3026 32.2628 39.0963 33.0931 38.986C33.2744 38.8953 33.4701 38.8082 33.6605 38.7157C35.5839 37.8407 36.7695 36.3681 37.3859 34.403C37.7829 33.1296 37.7321 31.8331 37.656 30.542C37.4892 27.6769 36.387 25.2351 34.0793 23.3891C33.9179 23.2611 33.7312 23.1615 33.5354 23.0334L34.2207 22.0322C34.5379 20.821 34.9458 19.6242 35.1543 18.397C35.5748 16.021 35.3464 13.7304 33.8454 11.6977L33.0949 10.9347C32.06 10.0721 30.8077 9.49838 29.4692 9.27365C28.9634 9.19897 28.4524 9.1633 27.941 9.16695H26.1807C23.534 9.16695 20.8854 9.16695 18.2369 9.16695C15.6215 9.16695 13.0056 9.15687 10.3891 9.13672L10.3728 9.14383ZM22.8415 32.8682H13.8987C13.811 32.8618 13.7242 32.8469 13.6395 32.8237C13.4292 32.2297 13.3476 17.2233 13.5434 15.6991C13.9767 15.6191 16.5781 15.5818 19.5022 15.5818C23.5322 15.5818 28.1785 15.6529 28.5972 15.7863V17.4865C28.5791 19.377 27.234 20.8459 25.3251 20.894C24.4078 20.9171 23.4905 20.926 22.5713 20.926C21.0812 20.926 19.5911 20.9064 18.1009 20.9046C17.4138 20.9366 16.7286 20.9758 16.0433 20.9971C15.8493 20.9971 15.6554 20.9971 15.4596 20.9971C15.1441 20.9971 14.8215 20.9971 14.4806 20.9971V27.4671H20.9815C22.8487 27.4671 24.7153 27.4671 26.5813 27.4671C27.1835 27.4675 27.7842 27.5271 28.3742 27.6449C29.7085 27.9206 30.537 28.7707 30.8995 30.0316C31.1504 30.914 31.2042 31.8391 31.0573 32.7437C30.8036 32.7993 30.5461 32.8362 30.2868 32.854C27.8044 32.854 25.3226 32.854 22.8415 32.854V32.8682Z" fill="white"/>
<path d="M33.1025 10.9446C32.0676 10.082 30.8153 9.5083 29.4768 9.28357C28.971 9.20889 28.46 9.17321 27.9485 9.17687C22.0985 9.17687 16.2485 9.20532 10.3966 9.15197C8.59468 9.13596 6.86341 10.4342 6.87066 12.5772C6.89966 20.3668 6.87067 28.1581 6.88518 35.9495C6.88518 37.9964 8.24481 39.3178 10.3296 39.3285C17.0842 39.3285 23.8406 39.3427 30.5953 39.316C31.4256 39.316 32.254 39.1097 33.0843 38.9995V41.9535C32.7217 41.9695 32.439 41.9926 32.1471 41.9926C24.7144 41.9926 17.2963 41.9819 9.87092 42.0015C7.15166 42.0015 4.76414 41.1994 2.78996 39.3979C1.33094 38.0921 0.406244 36.3101 0.188535 34.3844C0.0709714 33.3903 0.010448 32.3904 0.00725136 31.3896C-0.0090642 26.3103 0.00725136 21.2293 0.00725136 16.1501C-0.018586 13.9209 0.728695 11.7492 2.12647 9.99139C2.84302 9.05645 3.75279 8.28055 4.79623 7.71449C5.83966 7.14842 6.99321 6.80496 8.18134 6.70661C9.37931 6.59723 10.5822 6.54737 11.7853 6.55723C18.5169 6.54538 25.248 6.54538 31.9785 6.55723H32.9121C33.0009 6.72263 33.0789 6.7991 33.0807 6.87557C33.0934 8.22896 33.0934 9.58591 33.1025 10.9446Z" fill="white"/>
<path d="M99.9386 32.3736H95.1599C95.1381 32.1157 95.1001 31.8899 95.1001 31.6622C95.1001 26.6447 95.1001 21.6277 95.1001 16.6113C95.1001 13.138 97.6888 10.8687 101.026 10.8154C103.318 10.7763 105.611 10.8261 107.902 10.8029C111.628 10.7638 113.91 13.5631 113.885 16.7251C113.885 18.3773 113.885 20.0312 113.885 21.6834C113.872 24.5858 112.235 26.6524 109.229 27.3886C109.023 27.4314 108.811 27.4494 108.6 27.442C106.062 27.442 103.529 27.442 101.001 27.442C100.883 27.442 100.767 27.4153 100.589 27.3958V22.7594C100.928 22.7398 101.218 22.7078 101.508 22.7078C103.588 22.7078 105.678 22.7078 107.75 22.7078C108.89 22.7078 109.041 22.5495 109.044 21.4078C109.044 19.9032 109.044 18.3986 109.044 16.8941C109.044 15.7879 108.802 15.5674 107.649 15.5638C105.536 15.5638 103.425 15.5638 101.315 15.5638C100.174 15.5638 99.9386 15.7932 99.9386 16.9083C99.9386 21.7184 99.9386 26.5291 99.9386 31.3403V32.3736Z" fill="white"/>
<path d="M73.0556 22.8239C73.1687 24.3633 73.1687 25.9086 73.0556 27.4479H72.0876C67.5555 27.4479 63.0342 27.4639 58.5076 27.4479C55.2082 27.4319 52.7826 25.0772 52.7391 21.8938C52.6902 18.3814 52.6793 14.8672 52.7391 11.353C52.7808 8.9877 54.1894 6.87493 56.5152 6.03372C57.0764 5.82482 57.67 5.71173 58.2701 5.69938C63.0669 5.67092 67.8654 5.67804 72.6622 5.67804C72.7885 5.69266 72.9133 5.71704 73.0357 5.75095C73.217 7.23772 73.0756 8.74762 73.1318 10.35C72.7076 10.3731 72.3885 10.4051 72.0712 10.4051C67.8413 10.4051 63.6168 10.4051 59.3977 10.4051C59.1566 10.4051 58.9137 10.4051 58.6726 10.4051C57.8858 10.4478 57.6084 10.7252 57.5649 11.5006C57.5558 11.6785 57.5649 11.8563 57.5649 12.0342V21.1576C57.5649 22.5803 57.806 22.8186 59.3125 22.8204C61.9073 22.8204 64.502 22.8204 67.0968 22.8204H73.0483L73.0556 22.8239Z" fill="white"/>
<path d="M152.255 20.6779H148.401C147.375 20.6779 146.348 20.6779 145.319 20.6779C143.95 20.6779 143.622 21.0816 143.869 22.4278C144.343 23.0379 145.085 22.9151 145.705 22.9614C146.845 23.0556 147.996 23.0058 149.149 22.988C150.302 22.9703 151.426 22.9134 152.469 22.876C152.667 22.7352 152.826 22.5469 152.93 22.3291C153.034 22.1112 153.079 21.871 153.061 21.6311C153.061 20.0074 153.061 18.3837 153.061 16.76C153.061 15.6733 152.733 15.3692 151.58 15.3657C149.042 15.3657 146.504 15.3657 143.966 15.3657H143.113C142.859 14.6721 142.832 11.7554 143.055 10.8751C143.277 10.8422 143.501 10.8208 143.725 10.8111C146.384 10.8111 149.04 10.8111 151.693 10.8111C152.689 10.8069 153.672 11.031 154.564 11.4656C156.558 12.4312 157.577 14.0585 157.684 16.1749C157.788 18.1215 157.788 20.0722 157.684 22.0188C157.554 24.3308 156.415 26.1092 154.211 27.0909C153.659 27.3186 153.067 27.4359 152.469 27.4359C149.903 27.4715 147.336 27.4199 144.773 27.4573C143.393 27.4598 142.059 26.9679 141.023 26.0739C139.986 25.1799 139.318 23.9453 139.144 22.6021C138.836 19.9878 140.268 17.2455 143.015 16.4221C143.528 16.2592 144.062 16.1676 144.601 16.15C147.016 16.1197 149.429 16.1322 151.852 16.1322C151.97 16.1322 152.086 16.1553 152.267 16.1749L152.255 20.6779Z" fill="white"/>
<path d="M87.4506 16.157V20.5854C87.1171 20.6174 86.8052 20.6743 86.4916 20.6761C84.4975 20.6849 82.5034 20.6761 80.5092 20.6761C79.1025 20.6761 78.8233 20.998 79.0064 22.4154C79.4306 22.8671 80.0089 22.988 80.6216 22.9916C82.5831 22.9916 84.5465 23.0022 86.5079 22.9916C86.9044 22.9663 87.2986 22.9152 87.6881 22.8386C88.1322 22.4829 88.2156 22.0615 88.2138 21.5937C88.2138 19.9398 88.2138 18.2858 88.2138 16.6337C88.2138 15.7107 87.8512 15.3656 86.8832 15.3621C84.318 15.3496 81.7528 15.3621 79.1877 15.3621H78.2541C78.0347 14.6258 78.0039 11.8354 78.1815 10.8413C78.4027 10.8288 78.6366 10.8057 78.8704 10.8057C81.5262 10.8057 84.182 10.7862 86.8379 10.8182C87.4974 10.8372 88.1522 10.9333 88.7885 11.1045C90.9639 11.6558 92.8202 13.8184 92.8674 16.3651C92.9 18.076 92.9145 19.7904 92.8674 21.5012C92.8166 23.2939 92.2891 24.9301 90.8569 26.1572C89.9288 26.9522 88.8737 27.4608 87.5938 27.4501C85.0281 27.4323 82.4629 27.4323 79.8983 27.4501C76.1657 27.4786 73.1147 23.7865 74.6665 19.7175C75.0857 18.6544 75.8241 17.7412 76.7839 17.0988C77.7436 16.4564 78.8796 16.1149 80.0415 16.1197C82.2731 16.1517 84.5065 16.1197 86.749 16.1197C86.9394 16.1233 87.1497 16.1428 87.4506 16.157Z" fill="white"/>
<path d="M132.748 27.4166H127.853V15.5882H122.866V10.8344H127.828V5.73389H132.668C132.761 6.5573 132.701 7.37538 132.712 8.18813C132.723 9.00087 132.712 9.83674 132.712 10.7615H139.368V15.5188H132.741L132.748 27.4166Z" fill="white"/>
<path d="M34.2234 22.041C34.5406 20.8299 34.9485 19.633 35.157 18.4058C35.5776 16.0298 35.3491 13.7392 33.8481 11.7065C33.8481 9.81776 33.8808 7.93084 33.859 6.04214C33.859 5.68645 33.6777 5.33076 33.5581 4.90572H18.1489V0.0416949C18.419 0.0292458 18.6529 0.00790417 18.8868 0.00790417C23.3482 0.00790417 27.8114 -0.00988021 32.2746 0.00790417C34.0294 0.0185748 35.641 0.464961 36.988 1.68497C37.5352 2.17144 37.9728 2.76481 38.2725 3.42697C38.5722 4.08913 38.7274 4.80545 38.7283 5.52995C38.7863 9.24688 38.8117 12.9674 38.7283 16.6825C38.6666 19.3377 36.7759 21.6248 34.2234 22.041Z" fill="white"/>
<path d="M160.016 4.16699H164.788V21.0248C164.776 21.2904 164.78 21.5564 164.801 21.8215C164.878 22.4475 165.149 22.6841 165.81 22.7019C166.523 22.7196 167.235 22.7125 168 22.7179V27.3827C165.584 27.5819 163.24 27.6121 161.432 25.6327C160.517 24.6315 159.964 23.4648 159.958 22.1221C159.937 16.3368 159.948 10.5516 159.948 4.76632C159.96 4.56553 159.983 4.36549 160.016 4.16699Z" fill="white"/>
<path d="M121.046 27.4079H116.349V10.8133C117.886 10.8027 119.431 10.8133 120.977 10.8133C121.169 11.4554 121.227 26.0972 121.046 27.4079Z" fill="white"/>
<path d="M146.903 35.9179C147.874 36.6542 148.11 37.2855 147.787 38.2441C147.707 38.4827 147.576 38.7019 147.403 38.8876C147.23 39.0732 147.02 39.2212 146.785 39.3219C145.371 39.9817 143.922 39.8714 142.472 39.4588C142.001 39.3254 141.827 38.9395 141.823 38.5002C141.812 36.8178 141.823 35.1372 141.823 33.4566C141.823 33.0155 142.004 32.715 142.467 32.6243C143.716 32.3771 144.976 32.2686 146.221 32.61C147.329 32.9195 147.831 33.6771 147.593 34.7442C147.499 35.1461 147.162 35.4911 146.903 35.9179ZM143.857 38.1641C144.255 38.1866 144.654 38.183 145.052 38.1534C145.554 38.0841 145.793 37.7977 145.777 37.3994C145.761 37.001 145.52 36.7573 144.997 36.7129C144.62 36.6809 144.238 36.7129 143.852 36.7129L143.857 38.1641ZM143.857 35.3186C144.219 35.341 144.583 35.341 144.945 35.3186C145.036 35.3155 145.126 35.2944 145.208 35.2567C145.291 35.219 145.365 35.1654 145.426 35.099C145.488 35.0327 145.535 34.955 145.565 34.8705C145.595 34.786 145.607 34.6965 145.601 34.6072C145.61 34.4431 145.553 34.2821 145.441 34.1592C145.33 34.0363 145.174 33.9615 145.007 33.951C144.624 33.9182 144.239 33.914 143.855 33.9385L143.857 35.3186Z" fill="white"/>
<path d="M123.173 39.6219V41.4804C122.973 41.526 122.771 41.5616 122.568 41.5871C121.44 41.6582 121.186 41.4235 121.181 40.2906C121.181 38.7564 121.181 37.2216 121.181 35.6862C121.181 34.6405 121.387 34.315 122.401 34.0056C123.299 33.7273 124.262 33.7273 125.16 34.0056C126.862 34.5267 127.335 36.2678 126.973 37.6763C126.576 39.1826 125.29 39.9758 123.672 39.7037L123.173 39.6219ZM123.224 35.471V38.0604C123.846 38.144 124.438 38.2596 124.776 37.6496C124.947 37.3718 125.037 37.0528 125.035 36.728C125.034 36.4032 124.941 36.0851 124.766 35.8089C124.397 35.2292 123.82 35.3359 123.224 35.471Z" fill="white"/>
<path d="M115.309 40.5949L116.525 39.3589C115.336 37.8401 114.977 36.0794 114.482 34.3793C115.432 33.49 116.283 33.6946 116.658 34.8648C116.839 35.4534 117.002 36.0528 117.182 36.6432C117.265 36.9118 117.363 37.1767 117.544 37.6231C118.088 36.3925 118.248 35.272 118.543 34.0769C118.793 33.9793 119.052 33.9078 119.317 33.8635C120.148 33.7942 120.55 34.1676 120.394 34.9644C119.979 37.0985 119.201 39.0957 117.831 40.8332C117.684 41.0216 117.509 41.1866 117.31 41.3223C116.438 41.9092 115.538 41.5357 115.309 40.5949Z" fill="white"/>
<path d="M108.592 37.7203C109.249 38.5847 109.102 39.248 108.183 39.5717C106.138 40.292 103.587 39.2729 103.185 37.0357C102.875 35.3177 103.417 33.7064 104.718 32.9079C105.764 32.2677 106.894 32.2801 108.027 32.5878C109.115 32.8794 109.278 33.5215 108.571 34.4445C107.534 34.0888 106.444 33.6424 105.578 34.7664C105.07 35.4244 105.088 36.7226 105.61 37.354C106.442 38.3837 107.494 38.149 108.592 37.7203Z" fill="white"/>
<path d="M152.065 35.8856C151.499 35.2294 150.964 35.1742 149.345 35.5299C148.76 34.6976 148.934 34.0876 149.906 33.9453C150.739 33.8268 151.584 33.8166 152.42 33.9151C153.346 34.0236 153.945 34.7047 154.033 35.6935C154.094 36.6052 154.105 37.5195 154.064 38.4323C154.059 38.6245 153.996 38.811 153.885 38.9689C153.773 39.1268 153.617 39.2494 153.435 39.3216C152.851 39.5966 152.215 39.7504 151.567 39.7734C150.919 39.7963 150.273 39.6879 149.67 39.4549C148.91 39.1846 148.582 38.5017 148.673 37.6569C148.745 36.9118 149.15 36.412 149.927 36.2342C150.598 36.0741 151.291 36.0065 152.065 35.8856ZM150.576 37.664C150.856 38.3559 151.011 38.4039 152.081 38.13V37.2586C151.51 37.2835 150.982 37.2426 150.576 37.6623V37.664Z" fill="white"/>
<path d="M135.424 33.8281C137.311 33.8281 138.545 34.9663 138.518 36.7448C138.489 38.6406 137.385 39.7325 135.58 39.7432C133.585 39.7539 132.433 38.6993 132.394 36.7999C132.356 34.9894 133.547 33.8352 135.424 33.8281ZM136.493 36.7448C136.508 35.9747 136.064 35.3594 135.498 35.322C134.891 35.29 134.401 35.9107 134.41 36.6967C134.41 36.7554 134.41 36.8141 134.41 36.8746C134.49 37.6233 134.885 38.1462 135.4 38.1835C135.915 38.2209 136.321 37.7585 136.448 36.9617C136.471 36.8799 136.486 36.7928 136.493 36.7448Z" fill="white"/>
<path d="M163.004 37.7362C163.867 38.565 164.866 38.051 165.819 37.9016C165.908 37.9297 165.99 37.976 166.06 38.0375C166.129 38.099 166.185 38.1743 166.222 38.2584C166.26 38.3425 166.279 38.4334 166.278 38.5252C166.277 38.617 166.256 38.7076 166.216 38.7908C166.091 39.0843 165.81 39.4347 165.524 39.5218C164.409 39.8597 163.279 39.9344 162.214 39.2941C160.439 38.2271 160.297 35.5381 161.96 34.2985C163.57 33.0963 166.196 34.0157 166.503 35.8884C166.622 36.6176 166.349 37.0213 165.607 37.1458C164.752 37.2881 163.89 37.4019 163.031 37.5282L163.004 37.7362ZM164.587 35.908C164.443 35.3407 164.081 35.2269 163.618 35.2589C163.058 35.2998 162.779 35.6146 162.65 36.2246L164.587 35.908Z" fill="white"/>
<path d="M155.543 37.8197C156.339 38.0509 157.142 38.412 158.188 37.898C157.955 37.7578 157.713 37.6319 157.463 37.521C157.101 37.3911 156.711 37.3093 156.347 37.1777C155.496 36.8718 155.096 36.3525 155.114 35.6234C155.135 35.2385 155.275 34.8691 155.515 34.5641C155.756 34.2592 156.085 34.0332 156.459 33.9161C157.27 33.6673 158.141 33.6792 158.944 33.9499C159.784 34.2042 159.938 34.6879 159.461 35.5505C158.721 35.4882 157.947 35.0934 157.023 35.5665C157.216 35.6863 157.416 35.7939 157.623 35.8884C158.129 36.0662 158.66 36.2049 159.147 36.4219C159.782 36.71 160.07 37.2667 160.054 37.93C160.038 38.5934 159.731 39.1393 159.084 39.4061C158.083 39.8187 157.045 39.929 156.002 39.5484C155.121 39.2318 154.976 38.6592 155.543 37.8197Z" fill="white"/>
<path d="M121.074 4.14366V8.41191H116.36V4.16144C117.93 4.06906 119.504 4.06313 121.074 4.14366Z" fill="white"/>
<path d="M128.082 32.9083C129.666 32.565 129.838 32.686 130.13 34.379H131.497C131.851 34.9126 131.849 35.3678 131.424 35.8747L130.083 35.9672V37.9893L131.477 38.1671C131.84 39.0563 131.512 39.6503 130.571 39.7552C129.032 39.9331 128.058 39.1186 128.044 37.6318C128.029 36.2197 128.044 34.8076 128.044 33.3938C128.045 33.2319 128.082 33.063 128.082 32.9083Z" fill="white"/>
<path d="M113.664 35.302L111.917 35.6115V39.524C111.215 39.6894 110.611 39.773 109.959 39.3355C109.921 39.0047 109.85 38.6242 109.841 38.256C109.821 37.4593 109.841 36.6554 109.841 35.864C109.841 34.708 110.098 34.3328 111.23 34.0002C111.719 33.8569 112.229 33.7897 112.74 33.801C113.699 33.8188 114.014 34.3666 113.664 35.302Z" fill="white"/>
<path d="M18.0923 20.9108V17.5176L28.5886 17.4927C28.5705 19.3832 27.2254 20.8521 25.3164 20.9002C22.909 20.9624 20.4997 20.9126 18.0923 20.9108Z" fill="white"/>
</svg>
