<svg width="104" height="54" viewBox="0 0 104 54" fill="none" xmlns="http://www.w3.org/2000/svg">
<path fill-rule="evenodd" clip-rule="evenodd" d="M3.06853 0.430588C3.75915 0.0748737 4.52203 -0.0509443 5.31385 0.0182026C6.51338 0.122921 7.78102 0.673246 9.05022 1.54949C9.75426 0.944629 10.5991 0.517486 11.5491 0.325728C14.4527 -0.260309 17.891 1.41796 20.8585 5.9344C23.7658 10.3594 25.9706 14.1583 27.4494 16.853C28.1326 18.0979 28.6611 19.1074 29.0324 19.8343C29.449 19.0943 30.0402 18.0546 30.7841 16.773C32.356 14.0647 34.6109 10.2747 37.3428 5.94566C40.1549 1.48868 43.6258 -0.147964 46.5854 0.4179C47.5018 0.592977 48.332 0.974569 49.0398 1.51755C50.3939 0.63133 51.7443 0.135182 53.0138 0.121923C54.6609 0.104743 56.0351 0.90093 56.9573 2.38317C57.8566 3.82912 58.3307 5.92071 58.3307 8.5922V33.1785C58.3307 35.3835 56.4698 37.1586 54.1802 37.1586C51.8905 37.1586 50.0289 35.3857 50.0289 33.1802V6.93923C50.0289 5.54339 49.5963 4.34758 48.8966 3.46129C47.3741 4.69546 45.7522 6.53968 44.1585 9.00836C40.856 14.1262 37.4704 19.9783 34.8016 24.7593C32.3619 29.129 25.6774 29.1003 23.2723 24.7152C20.5163 19.6903 17.0465 13.6379 13.9347 9.02048C12.3663 6.6933 10.7604 4.85613 9.24654 3.57356C8.65854 4.45344 8.30165 5.60449 8.30165 6.93923V33.1803C8.30165 35.3857 6.4403 37.1586 4.15083 37.1586C1.86024 37.1586 0 35.3807 0 33.1765V8.5922C0 5.69601 0.4638 3.52174 1.35623 2.07678C1.80853 1.34454 2.38043 0.785019 3.06853 0.430588ZM5.176 1.47571C4.6452 1.42937 4.18629 1.51548 3.78823 1.7205C3.38765 1.9268 3.00405 2.27674 2.66624 2.82364C1.97836 3.93733 1.52332 5.80123 1.52332 8.5922V33.1765C1.52332 34.569 2.69792 35.6951 4.15083 35.6951C5.60492 35.6951 6.77841 34.5718 6.77841 33.1803V6.93923C6.77841 5.31122 7.23546 3.82335 8.04842 2.66097C6.96056 1.92858 5.9877 1.54656 5.176 1.47571ZM55.65 3.13416C54.9703 2.04292 54.0711 1.57451 53.0308 1.58534C52.2073 1.59389 51.2212 1.9042 50.1179 2.58669C51.0261 3.74529 51.5521 5.26046 51.5521 6.93923V33.1802C51.5521 34.5717 52.7259 35.6951 54.1802 35.6951C55.6337 35.6951 56.8074 34.5705 56.8074 33.1785V8.5922C56.8074 6.05373 56.3511 4.26197 55.65 3.13416ZM19.5703 6.71561C16.7478 2.41974 13.849 1.35694 11.8623 1.75793C11.2814 1.87519 10.7405 2.12312 10.2638 2.48418C11.9059 3.87738 13.595 5.82362 15.2133 8.22508C18.3635 12.8995 21.8592 18.9993 24.6199 24.0329C26.457 27.3823 31.5973 27.4024 33.459 24.0676C36.1342 19.2752 39.5376 13.3927 42.8645 8.2372C44.4731 5.74342 46.1484 3.80489 47.7837 2.44954C47.3289 2.15891 46.8243 1.95574 46.2879 1.85323C44.2119 1.45624 41.2841 2.52218 38.645 6.70442C35.9242 11.0153 33.679 14.7897 32.1145 17.4858C31.3321 18.8337 30.72 19.9118 30.3037 20.6526C30.0956 21.0229 29.9364 21.3088 29.8295 21.5018L29.7729 21.6041L29.7086 21.7206L29.6783 21.7759L29.6684 21.794C29.6146 21.8921 29.5087 21.9535 29.3933 21.9535H28.6448C28.5295 21.9475 28.4271 21.8805 28.379 21.7796L28.3716 21.764C28.379 21.7796 25.1772 15.8277 25.1772 15.8277L19.5703 6.71561Z" fill="white"/>
<path fill-rule="evenodd" clip-rule="evenodd" d="M72.1513 6.04093C74.9626 2.6014 79.188 0.3125 84.7728 0.3125H100.183C102.293 0.3125 103.998 1.95706 103.998 3.98285C103.998 6.00985 102.288 7.65312 100.178 7.65312H75.4945C74.4729 7.65312 73.4831 7.78371 72.5423 8.02837C70.5278 11 69.5047 14.7271 69.5047 18.4796C69.5047 22.2321 70.5278 25.9592 72.5423 28.9309C73.4831 29.1755 74.4729 29.3061 75.4945 29.3061H100.178C102.288 29.3061 103.998 30.9494 103.998 32.9764C103.998 35.0024 102.293 36.647 100.183 36.647H84.7728C79.188 36.647 74.9626 34.3579 72.1513 30.9183C71.9561 30.6792 71.7677 30.4347 71.5859 30.1853C66.4337 28.5984 62.7031 23.958 62.7031 18.4796C62.7031 13.0013 66.4337 8.36084 71.5859 6.77396C71.7677 6.52446 71.9561 6.28002 72.1513 6.04093ZM73.926 6.28116C74.4402 6.22071 74.964 6.18963 75.4945 6.18963H100.178C101.447 6.18963 102.475 5.20161 102.475 3.98285C102.475 2.76279 101.45 1.77606 100.183 1.77606H84.7728C80.045 1.77606 76.4435 3.55413 73.926 6.28116ZM70.2748 8.88215C66.6793 10.6912 64.2264 14.3105 64.2264 18.4796C64.2264 22.6487 66.6793 26.2681 70.2748 28.0771C68.7405 25.1711 67.9814 21.8168 67.9814 18.4796C67.9814 15.1424 68.7405 11.7881 70.2748 8.88215ZM73.926 30.6781C76.4435 33.4051 80.045 35.1835 84.7728 35.1835H100.183C101.45 35.1835 102.475 34.1965 102.475 32.9764C102.475 31.7577 101.447 30.7696 100.178 30.7696H75.4945C74.964 30.7696 74.4402 30.7386 73.926 30.6781Z" fill="white"/>
<path d="M100.749 45.9024C100.366 45.7613 99.9584 45.6914 99.5258 45.6914C99.1541 45.6914 98.7801 45.742 98.4047 45.8432C98.0285 45.9438 97.6835 46.0942 97.3674 46.2931C97.0557 46.4877 96.8042 46.73 96.612 47.0195C96.4243 47.3046 96.3308 47.6354 96.3308 48.011C96.3308 48.4373 96.451 48.7902 96.6914 49.0682C96.9356 49.3427 97.2056 49.5522 97.5024 49.6969C97.8519 49.8666 98.2281 49.9842 98.6302 50.0491C99.0316 50.1104 99.436 50.1703 99.8419 50.228C100.248 50.2822 100.629 50.3834 100.986 50.5317C101.143 50.5966 101.288 50.6928 101.42 50.819C101.555 50.9416 101.623 51.0991 101.623 51.2909C101.623 51.5903 101.512 51.8384 101.29 52.033C101.072 52.2247 100.802 52.3673 100.478 52.4614C100.156 52.5519 99.8344 52.5968 99.5147 52.5968C99.0034 52.5968 98.5508 52.4921 98.1568 52.2825C97.7621 52.0693 97.4824 51.7806 97.3169 51.4149C97.2791 51.3215 97.2093 51.2438 97.1084 51.1825C97.0068 51.117 96.9036 51.0849 96.7983 51.0849C96.644 51.0849 96.5111 51.1391 96.3984 51.2474C96.2893 51.3522 96.2344 51.4784 96.2344 51.6266C96.2344 51.6986 96.2514 51.7714 96.2856 51.8434C96.4547 52.2155 96.6989 52.5412 97.0179 52.8193C97.3377 53.0937 97.7117 53.3069 98.1398 53.4587C98.5679 53.607 99.0264 53.6811 99.5147 53.6811C99.8753 53.6811 100.244 53.6326 100.619 53.535C100.999 53.4337 101.35 53.2833 101.673 53.0852C101.997 52.8863 102.258 52.6368 102.457 52.3366C102.656 52.0365 102.756 51.688 102.756 51.2909C102.756 50.9837 102.692 50.7163 102.564 50.4882C102.436 50.2608 102.271 50.0676 102.068 49.9087C101.865 49.7497 101.653 49.6249 101.431 49.5344C101.082 49.3897 100.704 49.2885 100.298 49.2307C99.8923 49.173 99.4902 49.1131 99.0917 49.0518C98.6977 48.9905 98.3371 48.8822 98.0099 48.7267C97.8712 48.6583 97.745 48.5642 97.6323 48.4445C97.5195 48.3218 97.4631 48.1771 97.4631 48.011C97.4631 47.805 97.5291 47.6247 97.6605 47.4693C97.7918 47.3139 97.9632 47.1856 98.1732 47.0843C98.3839 46.9795 98.6072 46.9018 98.8439 46.8512C99.0843 46.8006 99.3121 46.7749 99.5258 46.7749C99.9621 46.7749 100.345 46.8676 100.676 47.0515C101.01 47.2362 101.249 47.4835 101.392 47.7943C101.433 47.8849 101.505 47.9626 101.606 48.0274C101.707 48.0887 101.809 48.1194 101.91 48.1194C102.064 48.1194 102.195 48.0674 102.304 47.9626C102.417 47.8542 102.474 47.7259 102.474 47.5776C102.474 47.5014 102.457 47.4272 102.423 47.3552C102.273 47.0266 102.053 46.7372 101.764 46.4877C101.474 46.2389 101.136 46.0436 100.749 45.9024Z" fill="white"/>
<path d="M0.749391 45.9558C0.640397 46.0606 0.585938 46.176 0.585938 46.3029C0.585938 46.4148 0.602855 46.5032 0.636689 46.5681L3.91111 53.6746C4.01632 53.892 4.18727 54.0003 4.42396 54.0003C4.54416 54.0003 4.6513 53.964 4.74523 53.892C4.84287 53.8228 4.91054 53.7437 4.94808 53.6532L7.89004 46.4761C7.91631 46.4113 7.92943 46.3279 7.92943 46.2266C7.92943 46.0969 7.87497 45.9814 7.76598 45.8802C7.65706 45.7754 7.53308 45.7227 7.39404 45.7227C7.11602 45.7227 6.93194 45.8367 6.84172 46.0641L4.39013 52.0756L1.66802 46.124C1.57408 45.9073 1.39186 45.7989 1.12134 45.7989C0.986077 45.7989 0.862095 45.851 0.749391 45.9558Z" fill="white"/>
<path d="M15.4308 45.7969C15.2767 45.7969 15.1433 45.8489 15.0306 45.9537C14.9216 46.0549 14.8672 46.1775 14.8672 46.3222L14.8841 53.0388C14.8841 53.1828 14.9386 53.3096 15.0476 53.418C15.1603 53.5228 15.2936 53.5755 15.4477 53.5755L20.2607 53.5698H20.2663C20.4203 53.5698 20.5519 53.5171 20.6608 53.4123C20.7736 53.3039 20.8299 53.1756 20.8299 53.0281C20.8299 52.8798 20.7736 52.7529 20.6608 52.6481C20.5519 52.5398 20.4203 52.4856 20.2663 52.4856H20.2607L16.0112 52.4913L16.0057 50.198L19.7929 50.2251H19.7986C19.9413 50.2251 20.0709 50.1766 20.1874 50.079C20.3039 49.9778 20.3622 49.8552 20.3622 49.7104C20.3622 49.5408 20.3076 49.4011 20.1987 49.2927C20.0935 49.1844 19.9601 49.1302 19.7986 49.1302L16 49.1031L15.9944 46.8804L20.2607 46.8861H20.2663C20.4203 46.8861 20.5519 46.8341 20.6608 46.7293C20.7736 46.6202 20.8299 46.4926 20.8299 46.3443C20.8299 46.1961 20.7736 46.0692 20.6608 45.9644C20.5519 45.856 20.4203 45.8019 20.2663 45.8019H20.2607L15.4308 45.7969Z" fill="white"/>
<path d="M28.4609 46.3222C28.4609 46.1704 28.5173 46.0457 28.63 45.9487C28.7465 45.8475 28.8836 45.7969 29.0414 45.7969C29.218 45.7969 29.3626 45.8653 29.4754 46.0029L33.7303 51.5589V46.3386C33.7303 46.1939 33.7852 46.0713 33.8943 45.9701C34.0063 45.8653 34.1399 45.8126 34.2942 45.8126C34.4478 45.8126 34.5799 45.8653 34.6889 45.9701C34.801 46.0713 34.8574 46.1939 34.8574 46.3386L34.8522 53.1364C34.8522 53.2882 34.7936 53.4144 34.6771 53.5157C34.5643 53.6133 34.4292 53.6618 34.2712 53.6618C34.0946 53.6618 33.9499 53.5898 33.8379 53.4451L29.5881 47.8941V53.1307C29.5881 53.2754 29.5317 53.4002 29.419 53.505C29.31 53.6062 29.1786 53.6568 29.0245 53.6568C28.8705 53.6568 28.7371 53.6062 28.6244 53.505C28.5154 53.4002 28.4609 53.2754 28.4609 53.1307V46.3222Z" fill="white"/>
<path d="M41.9687 45.9805C41.8596 46.0853 41.8047 46.2114 41.8047 46.3597C41.8047 46.508 41.8596 46.6363 41.9687 46.7447C42.0807 46.8494 42.2143 46.9022 42.3686 46.9022H42.3738L44.6397 46.8858L44.6115 53.0976V53.1083C44.6115 53.253 44.6657 53.3778 44.7747 53.4826C44.8875 53.5874 45.0211 53.6401 45.1754 53.6401C45.329 53.6401 45.4603 53.5874 45.5694 53.4826C45.6822 53.3778 45.7386 53.253 45.7386 53.1083V53.1033L45.7668 46.8801L48.0097 46.8694H48.0156C48.17 46.8694 48.3013 46.8174 48.4103 46.7126C48.5231 46.6035 48.5788 46.4759 48.5788 46.3276C48.5788 46.1794 48.5231 46.0525 48.4103 45.9477C48.3013 45.8393 48.17 45.7852 48.0156 45.7852H48.0045L42.3738 45.8179H42.3686C42.2143 45.8179 42.0807 45.8721 41.9687 45.9805Z" fill="white"/>
<path d="M55.5078 46.3269C55.5078 46.1901 55.5605 46.0667 55.6658 45.9584C55.7749 45.85 55.9003 45.7958 56.0435 45.7958C56.2201 45.7958 56.3611 45.8429 56.4664 45.937C56.5747 46.0275 56.6311 46.1573 56.6348 46.3269L56.6749 50.2462C56.6823 51.0268 56.8456 51.6427 57.1646 52.0946C57.4844 52.5466 58.0142 52.7725 58.7539 52.7725C59.3029 52.7725 59.7422 52.6692 60.0731 52.4632C60.404 52.2571 60.6422 51.9699 60.7891 51.6013C60.9353 51.2328 61.0087 50.8079 61.0087 50.3274L60.9976 46.3219V46.3162C60.9976 46.168 61.0517 46.0432 61.1608 45.942C61.2699 45.8372 61.4012 45.7852 61.5555 45.7852C61.7091 45.7852 61.8427 45.8372 61.9555 45.942C62.0682 46.0432 62.1246 46.168 62.1246 46.3162V46.3219L62.1357 50.3274C62.1357 51.4117 61.856 52.27 61.2958 52.9023C60.7401 53.5346 59.9002 53.8511 58.7769 53.8511C58.052 53.8511 57.4525 53.6971 56.9791 53.3899C56.5058 53.0791 56.1503 52.6549 55.9137 52.116C55.677 51.5742 55.5553 50.9562 55.5471 50.2626L55.5078 46.3326V46.3269Z" fill="white"/>
<path fill-rule="evenodd" clip-rule="evenodd" d="M75.2405 53.5474C75.3496 53.4426 75.4045 53.32 75.4045 53.1789C75.4045 53.0848 75.38 52.9999 75.331 52.9237C75.2858 52.8445 75.2294 52.7832 75.1619 52.7398C74.8235 52.5045 74.5512 52.2336 74.345 51.9264C74.138 51.6156 73.9258 51.2599 73.7076 50.8585C73.58 50.6311 73.4524 50.4394 73.3248 50.284C73.6023 50.1792 73.862 50.033 74.1023 49.8449C74.3427 49.6574 74.5364 49.4278 74.6826 49.157C74.8332 48.8854 74.9081 48.5767 74.9081 48.2295C74.9081 47.6913 74.762 47.2415 74.4689 46.8801C74.1758 46.5151 73.7751 46.2421 73.2684 46.0617C72.7609 45.8771 72.1844 45.7852 71.5381 45.7852H71.4083L69.9095 45.7901C69.7589 45.7944 69.6276 45.8486 69.5148 45.9534C69.4057 46.0546 69.3516 46.1808 69.3516 46.3326L69.3679 53.0598C69.3679 53.2188 69.4228 53.3557 69.5319 53.4711C69.6446 53.5873 69.7774 53.6451 69.9318 53.6451C70.0861 53.6451 70.2174 53.5909 70.3265 53.4825C70.4393 53.3742 70.4957 53.2473 70.4957 53.1026V53.0919L70.4897 50.4686L71.0024 50.4736C71.363 50.4772 71.6561 50.5156 71.8817 50.5876C72.1072 50.6596 72.2986 50.783 72.4567 50.9562C72.6184 51.1294 72.7757 51.3718 72.93 51.6826C73.1066 52.0298 73.3188 52.3512 73.5667 52.6478C73.8189 52.9401 74.1157 53.2024 74.457 53.4334C74.4874 53.4697 74.5416 53.5218 74.621 53.5909C74.6996 53.6629 74.7916 53.6993 74.897 53.6993C75.0209 53.6993 75.1352 53.6486 75.2405 53.5474ZM70.4786 46.8694H71.5663C72.2163 46.8694 72.7497 46.9827 73.1667 47.2109C73.5837 47.4347 73.7922 47.7669 73.7922 48.2081C73.7922 48.638 73.5948 48.9509 73.2009 49.1455C72.8099 49.3409 72.269 49.4421 71.5774 49.4492L70.4897 49.4599L70.4786 46.8694Z" fill="white"/>
<path d="M83.2257 45.9537C83.3385 45.8489 83.4721 45.7969 83.6256 45.7969L88.4558 45.8019H88.4618C88.6153 45.8019 88.7467 45.856 88.8557 45.9644C88.9685 46.0692 89.0249 46.1961 89.0249 46.3443C89.0249 46.4926 88.9685 46.6202 88.8557 46.7293C88.7467 46.8341 88.6153 46.8861 88.4618 46.8861H88.4558L84.1895 46.8804L84.1955 49.1031L87.9936 49.1302C88.1553 49.1302 88.2889 49.1844 88.3935 49.2927C88.5026 49.4011 88.5575 49.5408 88.5575 49.7104C88.5575 49.8552 88.4989 49.9778 88.3824 50.079C88.2659 50.1766 88.1368 50.2251 87.9936 50.2251H87.9884L84.2007 50.198L84.2066 52.4913L88.4558 52.4856H88.4618C88.6153 52.4856 88.7467 52.5398 88.8557 52.6481C88.9685 52.7529 89.0249 52.8798 89.0249 53.0281C89.0249 53.1756 88.9685 53.3039 88.8557 53.4123C88.7467 53.5171 88.6153 53.5698 88.4618 53.5698H88.4558L83.6427 53.5755C83.4891 53.5755 83.3556 53.5228 83.2428 53.418C83.1337 53.3096 83.0796 53.1828 83.0796 53.0388L83.0625 46.3222C83.0625 46.1775 83.1167 46.0549 83.2257 45.9537Z" fill="white"/>
</svg>
