<svg width="106" height="93" viewBox="0 0 106 93" fill="none" xmlns="http://www.w3.org/2000/svg">
<path d="M45.7502 17.6702L45.049 17.3928C44.9786 17.3533 44.9057 17.3188 44.8307 17.2894L4.78881 1.48407C4.69831 1.44815 4.60509 1.41965 4.51006 1.39886L3.17337 0.871799C0.543352 -0.0714864 0.0862541 -0.62268 0 1.22153L0.00730974 3.70855C0.0521424 6.08179 1.84837 6.35911 1.83765 6.37438L14.3937 11.2918V58.1285C14.3946 58.3372 14.477 58.5371 14.6231 58.6847C14.7691 58.8324 14.9669 58.9157 15.1734 58.9166H20.0153C20.2218 58.9157 20.4196 58.8324 20.5657 58.6847C20.7117 58.5371 20.7941 58.3372 20.795 58.1285V13.8005L23.4114 14.8255L44.3984 23.1663C47.0255 24.1175 47.4811 24.6702 47.5723 22.8279V20.3409C47.5343 17.9691 45.739 17.6849 45.7502 17.6702Z" fill="white"/>
<path d="M100.327 62.9536C102.91 62.9536 105.005 60.8364 105.005 58.2248C105.005 55.6132 102.91 53.4961 100.327 53.4961C97.7429 53.4961 95.6484 55.6132 95.6484 58.2248C95.6484 60.8364 97.7429 62.9536 100.327 62.9536Z" fill="white"/>
<path d="M58.8471 22.2854L56.3511 21.2421C54.396 20.5663 54.375 21.7391 54.3214 24.4749V25.8674L44.4329 29.7637L34.1955 25.729L34.1989 25.3034C34.1789 25.3093 34.6375 23.2838 32.1843 22.246L29.6878 21.2027C27.7327 20.5269 27.7113 21.6997 27.6577 24.4355L27.6484 63.1703C27.6493 63.379 27.7318 63.579 27.8778 63.7266C28.0238 63.8742 28.2216 63.9575 28.4281 63.9584H33.2696C33.4761 63.9575 33.6739 63.8742 33.8199 63.7266C33.9659 63.579 34.0484 63.379 34.0493 63.1703L34.1428 31.7015L41.0553 34.3826V58.0095C41.0562 58.2183 41.1387 58.4182 41.2847 58.5658C41.4307 58.7134 41.6285 58.7968 41.835 58.7977H46.6765C46.8829 58.7966 47.0807 58.7133 47.2267 58.5657C47.3727 58.4181 47.4551 58.2183 47.4562 58.0095V34.5171L54.3102 31.8571L54.3053 63.2077C54.3065 63.4164 54.389 63.6162 54.535 63.7637C54.6809 63.9113 54.8786 63.9947 55.085 63.9958H59.9265C60.1329 63.9948 60.3307 63.9114 60.4767 63.7639C60.6227 63.6163 60.7051 63.4164 60.7062 63.2077L60.8524 25.3408C60.8416 25.3487 61.3007 23.3213 58.8471 22.2854Z" fill="white"/>
<path d="M90.2231 52.6702L77.8162 47.7701L86.5469 44.6176C86.5357 44.6028 88.3324 44.3269 88.3796 41.9537L88.3889 39.4667C88.3046 37.6244 87.847 38.1751 85.216 39.116L74.0644 43.2305L74.1974 30.6919C74.177 30.6973 74.636 28.6699 72.1824 27.634L69.6859 26.5892C67.7308 25.9139 67.7099 27.0863 67.6562 29.822L67.667 58.6329C67.6679 58.8416 67.7503 59.0415 67.8963 59.1891C68.0424 59.3367 68.2402 59.4201 68.4467 59.421H73.2384C73.4449 59.4201 73.6427 59.3367 73.7887 59.1891C73.9348 59.0415 74.0172 58.8416 74.0181 58.6329V52.2643L88.8665 58.1664C91.494 59.1176 91.9497 59.6702 92.0408 57.828V55.341C92.0052 52.9677 90.2095 52.685 90.2231 52.6702Z" fill="white"/>
<path d="M11.4384 80.1348V82.0558H8.27637V92.0008H5.89638V82.0558H2.73438V80.1348H11.4384Z" fill="white"/>
<path d="M18.6829 92.1198C17.5722 92.1198 16.5522 91.8592 15.6229 91.3378C14.6936 90.8165 13.9569 90.0968 13.4129 89.1788C12.8689 88.2495 12.5969 87.2012 12.5969 86.0338C12.5969 84.8778 12.8689 83.8408 13.4129 82.9228C13.9569 81.9935 14.6936 81.2682 15.6229 80.7468C16.5522 80.2255 17.5722 79.9648 18.6829 79.9648C19.8049 79.9648 20.8249 80.2255 21.7429 80.7468C22.6722 81.2682 23.4032 81.9935 23.9359 82.9228C24.4799 83.8408 24.7519 84.8778 24.7519 86.0338C24.7519 87.2012 24.4799 88.2495 23.9359 89.1788C23.4032 90.0968 22.6722 90.8165 21.7429 91.3378C20.8136 91.8592 19.7936 92.1198 18.6829 92.1198ZM18.6829 89.9948C19.3969 89.9948 20.0259 89.8362 20.5699 89.5188C21.1139 89.1902 21.5389 88.7255 21.8449 88.1248C22.1509 87.5242 22.3039 86.8272 22.3039 86.0338C22.3039 85.2405 22.1509 84.5492 21.8449 83.9598C21.5389 83.3592 21.1139 82.9002 20.5699 82.5828C20.0259 82.2655 19.3969 82.1068 18.6829 82.1068C17.9689 82.1068 17.3342 82.2655 16.7789 82.5828C16.2349 82.9002 15.8099 83.3592 15.5039 83.9598C15.1979 84.5492 15.0449 85.2405 15.0449 86.0338C15.0449 86.8272 15.1979 87.5242 15.5039 88.1248C15.8099 88.7255 16.2349 89.1902 16.7789 89.5188C17.3342 89.8362 17.9689 89.9948 18.6829 89.9948Z" fill="white"/>
<path d="M33.2206 92.0008L28.9026 86.7138V92.0008H26.5226V80.1348H28.9026V85.4558L33.2206 80.1348H36.0936L31.1976 86.0168L36.2296 92.0008H33.2206Z" fill="white"/>
<path d="M40.175 82.0558V85.0308H44.17V86.9178H40.175V90.0628H44.68V92.0008H37.795V80.1178H44.68V82.0558H40.175Z" fill="white"/>
<path d="M56.9919 92.0008H54.6119L49.2229 83.8578V92.0008H46.8429V80.1178H49.2229L54.6119 88.2778V80.1178H56.9919V92.0008Z" fill="white"/>
<path d="M64.8518 92.1198C63.7412 92.1198 62.7212 91.8592 61.7918 91.3378C60.8625 90.8165 60.1258 90.0968 59.5818 89.1788C59.0378 88.2495 58.7658 87.2012 58.7658 86.0338C58.7658 84.8778 59.0378 83.8408 59.5818 82.9228C60.1258 81.9935 60.8625 81.2682 61.7918 80.7468C62.7212 80.2255 63.7412 79.9648 64.8518 79.9648C65.9738 79.9648 66.9938 80.2255 67.9118 80.7468C68.8412 81.2682 69.5722 81.9935 70.1048 82.9228C70.6488 83.8408 70.9208 84.8778 70.9208 86.0338C70.9208 87.2012 70.6488 88.2495 70.1048 89.1788C69.5722 90.0968 68.8412 90.8165 67.9118 91.3378C66.9825 91.8592 65.9625 92.1198 64.8518 92.1198ZM64.8518 89.9948C65.5658 89.9948 66.1948 89.8362 66.7388 89.5188C67.2828 89.1902 67.7078 88.7255 68.0138 88.1248C68.3198 87.5242 68.4728 86.8272 68.4728 86.0338C68.4728 85.2405 68.3198 84.5492 68.0138 83.9598C67.7078 83.3592 67.2828 82.9002 66.7388 82.5828C66.1948 82.2655 65.5658 82.1068 64.8518 82.1068C64.1378 82.1068 63.5032 82.2655 62.9478 82.5828C62.4038 82.9002 61.9788 83.3592 61.6728 83.9598C61.3668 84.5492 61.2138 85.2405 61.2138 86.0338C61.2138 86.8272 61.3668 87.5242 61.6728 88.1248C61.9788 88.7255 62.4038 89.1902 62.9478 89.5188C63.5032 89.8362 64.1378 89.9948 64.8518 89.9948Z" fill="white"/>
<path d="M85.6285 80.1348V92.0008H83.2485V84.2828L80.0695 92.0008H78.2675L75.0715 84.2828V92.0008H72.6915V80.1348H75.3945L79.1685 88.9578L82.9425 80.1348H85.6285Z" fill="white"/>
<path d="M90.3615 80.1348V92.0008H87.9815V80.1348H90.3615Z" fill="white"/>
<path d="M99.411 92.0008L95.093 86.7138V92.0008H92.713V80.1348H95.093V85.4558L99.411 80.1348H102.284L97.388 86.0168L102.42 92.0008H99.411Z" fill="white"/>
</svg>
