<svg width="104" height="52" viewBox="0 0 104 52" fill="none" xmlns="http://www.w3.org/2000/svg">
<path fill-rule="evenodd" clip-rule="evenodd" d="M0.0183731 0.0758367C0.0014172 0.117875 -0.00494899 11.6594 0.00414611 25.7237L0.0207769 51.2952H10.0254C20.5382 51.2952 20.6704 51.2922 22.3687 51.0186C25.3919 50.5314 27.5555 49.8885 29.9047 48.7793C32.6606 47.4779 34.9221 45.8303 36.8166 43.7434C38.2015 42.2179 38.924 41.2113 40.0136 39.2885C40.8731 37.7718 41.9275 35.076 42.3199 33.3921C42.8026 31.3211 42.9191 30.6023 43.1226 28.4428C43.2889 26.6769 43.2585 23.723 43.0572 22.0972C42.8419 20.3583 42.7709 19.9164 42.5406 18.8843C42.0929 16.8776 42.1361 17.0325 41.594 15.489C39.8046 10.3944 36.7637 6.55474 32.3084 3.76387C31.2485 3.09993 28.3877 1.71033 28.0808 1.71033C28.023 1.71033 27.8982 1.67056 27.8033 1.62198C26.9256 1.17239 23.5132 0.386911 21.5567 0.184111C20.0382 0.0267715 18.3102 0.000497293 9.42245 8.47127e-06C1.98317 -0.000419248 0.0427999 0.0152229 0.0183731 0.0758367ZM65.0335 0.0706426C64.9701 0.130279 64.9533 5.50194 64.9533 25.6988C64.9533 48.9432 64.9626 51.2549 65.0561 51.2886C65.1126 51.309 69.2419 51.3269 74.2324 51.3284C82.1938 51.3307 83.3377 51.3425 83.5658 51.4241C83.9908 51.5762 84.0642 51.5905 84.1083 51.53C84.2321 51.3603 84.9107 51.3257 88.116 51.3257C90.7078 51.3257 91.5422 51.306 92.1227 51.2314C92.8234 51.1412 94.0668 50.8524 94.4799 50.6838C94.5871 50.6401 94.894 50.5284 95.162 50.4358C95.8836 50.186 97.4959 49.3107 98.0806 48.8511C98.2516 48.7166 98.4761 48.5529 98.5795 48.4872C98.683 48.4215 99.1012 48.0503 99.509 47.6623C100.561 46.6617 100.681 46.5401 100.769 46.3941C100.811 46.3226 101.079 45.9388 101.363 45.5412C102.496 43.9543 103.246 42.2271 103.774 39.986C104.005 39.0059 104.068 37.222 103.907 36.1991C103.785 35.4168 103.406 33.9338 103.211 33.468C103.137 33.2918 103.031 33.0239 102.977 32.8727C102.812 32.4171 101.94 30.8578 101.569 30.354C100.619 29.0653 99.474 27.9434 98.1179 26.9738C97.271 26.3682 95.6006 25.5211 94.6969 25.2387C94.4028 25.1468 94.1534 25.0465 94.1426 25.0158C94.1319 24.985 94.3477 24.8515 94.6221 24.719C96.0455 24.0316 97.4508 22.9474 98.4932 21.7324C99.1826 20.9288 99.9947 19.7631 100.138 19.371C100.184 19.246 100.282 19.0476 100.356 18.93C100.776 18.2601 101.233 16.8529 101.571 15.1835C101.714 14.4809 101.734 12.2026 101.604 11.4257C101.141 8.64512 100.151 6.38811 98.5372 4.4294C98.0691 3.86127 96.9467 2.80762 96.2884 2.31831C95.2593 1.55342 93.863 0.854835 92.5959 0.470865C91.0529 0.00336874 92.2048 0.0391139 77.9128 0.0158948C67.8183 -0.000480686 65.0968 0.0111286 65.0335 0.0706426ZM49.4673 0.842492C49.4483 0.871394 49.4281 1.64129 49.4225 2.55343C49.4141 3.8975 49.3948 4.22544 49.3205 4.28343C49.2531 4.33604 48.8957 4.34337 47.9684 4.31117C47.0856 4.2805 46.6675 4.28777 46.5731 4.33531C46.4488 4.39787 46.4383 4.45727 46.4383 5.09652V5.78985L47.9812 5.82988C50.3514 5.89135 52.2998 5.92061 54.7538 5.93155C57.2736 5.94279 57.2321 5.94878 57.811 5.48972C58.03 5.316 58.1982 5.10948 58.323 4.86079L58.5089 4.49051L58.5316 2.71853L58.5542 0.94655L57.7584 0.92938L56.9626 0.91221L56.9477 2.02923C56.9395 2.64362 56.9316 3.29748 56.9302 3.48231C56.9257 4.04525 56.8458 4.31245 56.6581 4.39292C56.4929 4.46374 54.3974 4.44278 51.9954 4.34624L51.0234 4.3072L51.0209 2.56577L51.0183 0.824345L50.26 0.807174C49.843 0.797703 49.4862 0.81359 49.4673 0.842492ZM84.5077 1.61006C91.0857 1.6353 91.1173 1.63725 91.0841 2.01438C91.0674 2.2049 91.1556 2.38246 91.2671 2.38246C91.2957 2.38246 91.406 2.31372 91.5121 2.22971C91.6183 2.14569 91.7374 2.07695 91.7769 2.07695C91.827 2.07695 91.8488 2.44601 91.8488 3.29467C91.8488 4.64039 91.8439 4.65726 91.4363 4.72917C91.1599 4.77793 91.0534 4.89103 91.0808 5.10697C91.1164 5.38872 91.2358 5.40925 92.1452 5.29034C93.2073 5.15139 93.3687 5.05882 93.2143 4.67687C93.1525 4.52399 93.1232 4.51262 92.8391 4.53132L92.5309 4.55161L92.5133 3.37538C92.5019 2.61966 92.5189 2.19915 92.5607 2.19915C92.5965 2.19915 92.938 2.32778 93.3197 2.48499C94.103 2.80762 95.1335 3.41583 95.1825 3.58441C95.2003 3.64588 95.2336 3.77481 95.2565 3.87092C95.3462 4.24872 95.5534 4.56022 95.7833 4.66336C96.0407 4.77879 96.2396 4.79461 96.2989 4.70437C96.3663 4.60171 96.5063 4.63538 96.722 4.8061C97.084 5.09255 97.9256 6.18299 98.262 6.80129C98.3933 7.04264 98.5337 7.28137 98.574 7.33178C98.8575 7.68654 99.5077 9.42357 99.6977 10.3335C99.9495 11.54 99.9789 11.7662 100.015 12.7699C100.065 14.1848 99.8946 15.2799 99.4019 16.711C98.7411 18.6306 97.6769 20.2632 96.1755 21.6607C95.8503 21.9632 95.5112 22.2664 95.4219 22.3343C94.9301 22.7083 94.1715 23.2091 93.8302 23.385C93.3404 23.6376 92.5006 24.0128 92.4254 24.0128C92.3941 24.0128 92.3685 23.5509 92.3685 22.9863C92.3685 21.8759 92.3502 21.8131 92.0259 21.8131C91.8023 21.8131 91.0367 22.4164 90.9771 22.6396C90.8955 22.9456 91.0937 23.0896 91.3949 22.9431C91.4981 22.8929 91.6132 22.8519 91.6506 22.8519C91.7391 22.8519 91.7426 24.0403 91.6545 24.195C91.6149 24.2647 91.4594 24.3346 91.2485 24.3776C90.4605 24.5381 89.8409 24.6216 89.4296 24.6227L88.9918 24.6238L89.0316 24.0892C89.1358 22.6899 88.6074 21.6293 87.8449 21.7077C87.1246 21.7819 86.7865 22.4124 86.7231 23.799L86.6841 24.6544L85.9207 24.6716C85.5009 24.6811 85.1571 24.6673 85.1567 24.6411C85.1293 22.726 85.068 22.4146 84.6341 21.9855C84.443 21.7966 84.3518 21.752 84.1562 21.752C83.7233 21.752 83.4863 21.9515 83.2161 22.5434C83.0634 22.8781 83.0495 23.0224 83.0145 24.6391C83.0128 24.7203 81.5194 24.6939 81.5194 24.6127C81.5194 24.5729 81.5109 24.1536 81.5006 23.6808C81.4833 22.8841 81.4683 22.7931 81.2953 22.4361C81.1926 22.2243 81.0363 21.9975 80.9479 21.932C80.7418 21.7795 80.3873 21.7798 80.159 21.9327C79.7595 22.2003 79.4669 23.2608 79.5177 24.2572L79.5379 24.6544H78.791H78.0442L78.0656 24.0128C78.0972 23.0709 77.8994 22.3524 77.5619 22.1825C77.4454 22.1238 77.4415 22.1338 77.5011 22.3367C77.5588 22.5336 77.5354 22.6084 77.2475 23.1458C77.073 23.4714 76.9131 23.7997 76.8922 23.8753C76.8712 23.9509 76.8226 24.0128 76.7843 24.0128C76.671 24.0128 76.6367 23.7649 76.6587 23.1056C76.6825 22.3965 76.6048 22.2993 76.4195 22.806C76.3359 23.0346 76.2976 23.3464 76.2861 23.8906L76.2701 24.6544L75.4028 24.672C74.9259 24.6816 74.4738 24.6752 74.3983 24.6576C74.2695 24.6277 74.2581 24.5729 74.217 23.7846C74.1668 22.8241 74.0695 22.3019 73.9406 22.3019C73.8411 22.3019 73.8244 22.4325 73.9129 22.5189C73.9657 22.5704 73.881 24.3968 73.8161 24.6086C73.7876 24.7013 71.5094 24.7193 71.3286 24.6282C71.2548 24.5911 71.2084 24.4804 71.1943 24.3075C71.1825 24.1622 71.1659 23.9746 71.1573 23.8906C71.1487 23.8066 71.1375 23.6279 71.1324 23.4934C71.1253 23.3114 71.1069 23.2724 71.06 23.3407C71.0254 23.3911 70.9966 23.6833 70.996 23.9901C70.9953 24.3868 70.9694 24.5678 70.906 24.6172C70.8428 24.6667 70.2286 24.6821 68.7784 24.6705L66.7398 24.6544L66.7234 13.1187L66.707 1.583L67.2106 1.60084C67.6734 1.61721 67.7125 1.62864 67.6922 1.74088C67.5987 2.25769 67.6052 2.32252 67.7796 2.60237C67.9483 2.87318 67.9658 2.88363 68.1924 2.84917C68.5779 2.79063 68.7819 2.49483 68.9462 1.75616L68.9836 1.58813H69.9243C70.6878 1.58813 70.8651 1.60426 70.8651 1.67373C70.8651 1.72084 70.7621 1.81653 70.6362 1.88643C70.3608 2.03925 70.2926 2.17575 70.4281 2.30321C70.519 2.38857 70.5846 2.38815 71.1029 2.29875C71.5207 2.22671 71.7079 2.16475 71.7899 2.07157C71.9462 1.89389 71.8382 1.71033 71.5774 1.71033C71.4715 1.71033 71.3848 1.68284 71.3848 1.64923C71.3848 1.61129 71.7421 1.58813 72.3268 1.58813C73.1734 1.58813 73.2816 1.60017 73.3952 1.70703C73.5341 1.83767 73.5837 1.83547 74.552 1.65662C74.9826 1.57707 75.4426 1.56057 76.8907 1.57267C77.8822 1.58092 81.3098 1.59778 84.5077 1.61006ZM4.05081 1.72561C3.93641 2.07194 3.81805 2.58312 3.84611 2.60952C3.86313 2.62559 3.93998 2.52282 4.01684 2.38112C4.19894 2.04548 4.2726 2.12253 4.30704 2.68455C4.32198 2.92945 4.34959 3.14417 4.3683 3.16177C4.46087 3.2489 4.56638 2.77474 4.5756 2.22971L4.58593 1.61868L5.17471 1.60114L5.76342 1.58361L5.75719 2.05941C5.75075 2.54396 5.88952 3.14289 6.06908 3.40593C6.13645 3.50455 6.22584 3.54341 6.38553 3.54341C6.80176 3.54341 7.10235 2.98066 7.17946 2.05709L7.21942 1.57896L13.6572 1.60597C17.7322 1.62302 20.2738 1.65693 20.5822 1.69842C20.8502 1.73441 21.3683 1.79459 21.7336 1.83205C22.8239 1.94399 25.0094 2.37208 25.1509 2.50149C25.1803 2.52844 25.101 2.5687 24.9745 2.59101C24.6754 2.6438 24.3363 3.02899 24.1898 3.48231C24.1289 3.67069 24.0649 4.14381 24.0442 4.55888C23.9697 6.04875 24.4066 6.85927 25.1785 6.66374C25.3266 6.62623 25.535 6.51355 25.6416 6.41322C26.3085 5.78607 26.4295 3.44088 25.8268 2.8257C25.7528 2.75024 25.7112 2.67062 25.7344 2.64881C25.8365 2.55276 28.074 3.39096 29.4293 4.03303C32.274 5.38053 34.6367 7.27239 36.5979 9.77289L37.0508 10.3503L37.074 10.828C37.1009 11.3833 37.0583 11.4574 36.6847 11.5045C36.538 11.5231 36.3928 11.5619 36.3621 11.5908C36.2731 11.6744 36.2295 11.9981 36.2948 12.0904C36.3604 12.1835 36.9312 12.1897 37.6582 12.1055C37.9734 12.0689 38.0917 12.0773 38.1592 12.1408C38.2968 12.2702 39.1154 13.8839 39.4391 14.6641C39.6848 15.2561 40.0143 16.17 40.2652 16.9555C40.3636 17.2634 40.7065 18.5779 40.8152 19.0635C41.0284 20.0158 41.1014 20.4045 41.2436 21.3442L41.39 22.3112L41.0881 22.5718C40.8382 22.7876 40.7863 22.8695 40.7863 23.0486C40.7863 23.3513 40.9149 23.4372 41.1775 23.3095C41.2906 23.2545 41.4017 23.227 41.4243 23.2483C41.4789 23.2996 41.5778 25.5924 41.5331 25.7695C41.5044 25.8836 41.4544 25.907 41.2398 25.907C40.9772 25.907 40.7213 26.0662 40.7213 26.2294C40.7213 26.4195 40.921 26.5724 41.1934 26.5909L41.4684 26.6097L41.4538 27.2513C41.4458 27.6041 41.3896 28.3184 41.329 28.8385L41.2189 29.7841L40.9702 29.9942C40.7752 30.1588 40.7213 30.2488 40.7213 30.41C40.7213 30.5502 40.7576 30.6283 40.835 30.6552C40.8975 30.6769 40.9663 30.7191 40.9878 30.7491C41.0813 30.8795 40.542 33.1855 40.0456 34.7773C39.8044 35.5508 39.1565 37.1487 38.7988 37.8526C38.5539 38.3342 38.4834 38.4313 38.4654 38.3108C38.3897 37.8014 38.2216 37.0931 38.1392 36.936C37.9041 36.4881 37.5103 36.2334 37.0532 36.2334C36.4894 36.2334 36.0846 36.6649 35.9068 37.4554C35.8028 37.9175 35.8687 39.4036 36.0111 39.8079C36.1649 40.2446 36.4251 40.5732 36.7329 40.7197C37.048 40.8696 37.0441 40.8964 36.6285 41.424C35.4225 42.9553 33.3815 44.9934 33.1745 44.873C33.1436 44.8551 33.1245 44.4186 33.1323 43.9032C33.1477 42.8818 33.1153 42.7704 32.8039 42.7724C32.6533 42.7734 32.3906 42.9068 31.9023 43.2302C31.7362 43.3402 31.713 43.5479 31.8476 43.7211C31.9291 43.8259 31.9632 43.8305 32.1608 43.7633C32.5441 43.6329 32.5358 43.6157 32.5358 44.5433C32.5358 45.5181 32.5756 45.4358 31.8763 45.9052C31.4239 46.2089 30.0933 46.9874 30.0267 46.9874C30.0047 46.9874 29.822 47.0805 29.6208 47.1944C28.6665 47.7343 25.9736 48.7531 25.7918 48.6429C25.7589 48.623 25.6701 48.4921 25.5947 48.3521C25.4013 47.9933 25.1178 47.8193 24.7264 47.8193C24.4765 47.8193 24.3787 47.8505 24.2579 47.9686C24.1026 48.1202 23.8304 48.7805 23.8304 49.0056C23.8304 49.0838 23.7655 49.1523 23.6532 49.1924C23.4281 49.2729 22.4575 49.4337 22.3997 49.4001C22.3757 49.3862 22.338 49.1195 22.3158 48.8074C22.2618 48.0491 22.0763 47.5456 21.7483 47.2668C21.3118 46.896 21.0107 46.9098 20.6814 47.3158C20.4254 47.6316 20.324 48.0781 20.3231 48.8933C20.3227 49.3115 20.2949 49.6236 20.2561 49.6461C20.2198 49.6673 19.8643 49.7007 19.4663 49.7205L18.7426 49.7564L18.7886 49.6092C19.1025 48.6056 18.883 46.9765 18.3758 46.5457C17.8444 46.0943 17.3292 46.3562 17.1381 47.1749C17.0244 47.6621 17.0803 49.1417 17.2243 49.4533C17.2841 49.5829 17.3158 49.7153 17.2946 49.7474C17.2544 49.8087 2.84396 49.8162 2.08335 49.7553L1.67719 49.7228L1.69356 26.2869C1.70597 8.44819 1.72806 2.84519 1.78594 2.82705C1.83473 2.81177 1.87819 2.92487 1.9071 3.14276C1.95439 3.49893 2.02514 3.57659 2.09121 3.34483C2.17066 3.06584 2.13051 1.99018 2.03469 1.83254C1.98363 1.74852 1.94082 1.65913 1.93952 1.63396C1.93828 1.60878 2.42299 1.58813 3.01677 1.58813H4.09623L4.05081 1.72561ZM6.41983 1.68675C6.41983 1.80944 6.1551 2.26026 6.08305 2.26026C6.02153 2.26026 6.01133 1.82735 6.06947 1.68479C6.12248 1.55477 6.41983 1.55642 6.41983 1.68675ZM68.5635 1.81726C68.4977 2.17294 68.3941 2.37489 68.2564 2.41601C68.0518 2.47711 67.9253 2.33108 67.9734 2.0896C68.0595 1.65827 68.1149 1.58813 68.3696 1.58813H68.6058L68.5635 1.81726ZM6.8916 1.86547C6.85275 2.32057 6.75134 2.91729 6.68618 3.0739C6.62902 3.21157 6.58016 3.24212 6.44257 3.22666C6.13769 3.19244 6.12079 3.06217 6.34824 2.49886C6.46232 2.21639 6.59088 1.90904 6.63389 1.81586C6.73842 1.58953 6.91233 1.62308 6.8916 1.86547ZM14.4066 1.83957C14.3114 2.0068 14.4578 2.04212 14.7576 1.92425C15.0453 1.81121 15.0208 1.72255 14.7018 1.72255C14.543 1.72255 14.4527 1.7583 14.4066 1.83957ZM87.4913 2.09223C87.1045 2.47564 86.9947 2.66885 87.0654 2.84196C87.1304 3.00125 87.3018 3.0161 87.4982 2.87953C87.6014 2.8078 87.7016 2.74908 87.7209 2.74908C87.7402 2.74908 87.756 3.29803 87.756 3.96899C87.756 5.11253 87.7481 5.19282 87.6304 5.25215C87.5612 5.28692 87.4488 5.31539 87.3806 5.31539C87.2335 5.31539 87.0414 5.49797 87.0414 5.63753C87.0414 5.8259 87.2734 5.91175 87.6426 5.86006C87.8301 5.83385 88.183 5.7846 88.4269 5.75069C88.9414 5.67926 89.0553 5.6104 89.0553 5.37118C89.0553 5.16098 88.9066 5.07434 88.6168 5.11577C88.4672 5.13716 88.4045 5.1217 88.4016 5.06261C88.3994 5.01684 88.4011 4.28294 88.4054 3.43178C88.4139 1.75567 88.405 1.71033 88.0682 1.71033C87.9174 1.71033 87.7941 1.79191 87.4913 2.09223ZM8.50053 2.12626C8.50313 2.62351 8.72245 3.01683 9.01193 3.04353C9.18493 3.05948 9.26023 3.02435 9.42485 2.851C9.61429 2.6515 9.82464 2.10585 9.75377 1.99788C9.69582 1.90971 9.55264 2.07677 9.51216 2.27981C9.45584 2.56204 9.29739 2.74908 9.11445 2.74908C8.8846 2.74908 8.80963 2.57158 8.89025 2.21816C8.98335 1.80969 8.9825 1.80749 8.727 1.79209L8.49871 1.7784L8.50053 2.12626ZM3.32853 2.05226C3.27858 2.3026 3.32561 3.00406 3.39993 3.11716C3.43683 3.17332 3.46496 3.16641 3.5105 3.08979C3.55104 3.02172 3.54571 2.95768 3.49465 2.89988C3.44047 2.83841 3.43131 2.66769 3.46379 2.32258C3.49497 1.99116 3.48763 1.83254 3.44112 1.83254C3.40331 1.83254 3.35264 1.9314 3.32853 2.05226ZM11.9433 1.95224C11.9058 2.01811 11.7705 2.11868 11.6427 2.17575C11.3985 2.28476 11.3008 2.4157 11.3973 2.50467C11.4934 2.59333 12.5992 2.36829 12.682 2.24327C12.7655 2.11703 12.6517 2.01835 12.4208 2.01676C12.3448 2.01627 12.2462 1.9746 12.2017 1.92419C12.0933 1.80132 12.0249 1.80877 11.9433 1.95224ZM84.0855 2.24834C83.6049 2.40538 83.3156 2.87098 83.17 3.72153C83.0962 4.15236 83.0885 4.41193 83.1364 4.85174C83.2166 5.58968 83.312 5.87735 83.5691 6.15708C83.7533 6.3575 83.8135 6.38469 84.0733 6.38469C84.4725 6.38469 84.6865 6.22601 84.9511 5.7334C85.4598 4.78685 85.3633 2.85858 84.7825 2.36456C84.639 2.24248 84.2844 2.18339 84.0855 2.24834ZM84.3171 2.87342C84.3863 2.90825 84.4428 2.98781 84.4428 3.05031C84.4428 3.14673 84.1962 3.75929 83.9861 4.18499C83.9529 4.25221 83.8966 4.38284 83.861 4.47523C83.7471 4.77103 83.6632 4.66312 83.6632 4.22098C83.6632 3.75953 83.8432 3.11661 84.0254 2.92725C84.1569 2.79069 84.1538 2.79124 84.3171 2.87342ZM80.1839 3.08466C79.8281 3.43942 79.6884 3.88516 79.6506 4.78698C79.6014 5.95911 79.7984 6.62103 80.2577 6.82701C80.473 6.92355 80.4975 6.92294 80.7101 6.81522C81.1824 6.57606 81.4018 6.12604 81.516 5.16288C81.6014 4.44309 81.5461 3.73784 81.3749 3.36011C81.1847 2.9407 81.0919 2.87128 80.7211 2.87128C80.4359 2.87128 80.3726 2.89646 80.1839 3.08466ZM21.3223 3.11435C21.0544 3.21621 20.7911 3.60525 20.6447 4.11558C20.5231 4.53945 20.5072 4.72227 20.5323 5.4054C20.5733 6.52083 20.8105 7.06385 21.3075 7.17982C21.5588 7.23848 21.9194 7.05486 22.1355 6.75833C22.7586 5.90308 22.7273 3.82357 22.0819 3.19207C21.9339 3.0472 21.5913 3.01213 21.3223 3.11435ZM25.3529 3.22531C25.3837 3.31666 24.824 4.64577 24.7092 4.75368C24.6106 4.84637 24.5968 4.64595 24.6656 4.11998C24.768 3.33628 24.8682 3.1157 25.1221 3.1157C25.2514 3.1157 25.3282 3.15217 25.3529 3.22531ZM76.8507 3.63482C76.494 3.93789 76.3559 4.40356 76.3614 5.28484C76.3658 5.99479 76.4624 6.3922 76.7476 6.87351C76.9383 7.19552 77.2719 7.29487 77.5415 7.1101C77.7586 6.96125 77.9938 6.51875 78.0782 6.09995C78.1787 5.60141 78.156 4.46802 78.038 4.09438C77.8241 3.41699 77.3315 3.22635 76.8507 3.63482ZM80.8583 3.59193C80.87 3.66904 80.7573 4.04024 80.608 4.41682C80.2046 5.43436 80.0584 5.51703 80.0765 4.71738C80.0884 4.19379 80.2149 3.71756 80.3908 3.53474C80.5489 3.37043 80.8301 3.40489 80.8583 3.59193ZM17.9866 3.67918C17.4254 3.9569 17.1254 4.94603 17.2575 6.08351C17.3422 6.81351 17.4684 7.15092 17.7359 7.36258C18.2138 7.7408 18.7664 7.37889 18.9958 6.53745C19.1269 6.05651 19.1471 4.8856 19.0327 4.3939C18.8919 3.78831 18.419 3.4652 17.9866 3.67918ZM21.7369 3.84893C21.7575 4.0249 21.2111 5.27097 21.0978 5.30653C20.9396 5.35609 21.1425 4.08717 21.3387 3.79937C21.4686 3.60879 21.7124 3.63916 21.7369 3.84893ZM77.428 4.09603C77.4857 4.19721 77.4488 4.34502 77.2335 4.87509C76.9223 5.64144 76.8931 5.69649 76.7782 5.73254C76.5998 5.78845 76.8433 4.29314 77.0526 4.04751C77.1519 3.93099 77.3487 3.95641 77.428 4.09603ZM28.8392 4.1776C28.7984 4.22391 28.7469 4.49203 28.725 4.77335C28.6786 5.36635 28.6234 5.4987 28.4226 5.4987C28.1902 5.4987 27.9882 5.66728 27.9882 5.86128C27.9882 6.16551 28.0888 6.18788 28.9407 6.073C29.823 5.95398 30.0021 5.87876 30.0021 5.62695C30.0021 5.40032 29.8574 5.29064 29.6179 5.33574C29.359 5.38444 29.3063 5.29957 29.2767 4.7852C29.2582 4.46655 29.218 4.31209 29.1294 4.22C28.986 4.07104 28.9394 4.06419 28.8392 4.1776ZM84.6477 4.79425C84.5651 5.50933 84.4299 5.77366 84.1468 5.77366C83.9956 5.77366 83.951 5.74366 83.934 5.63038C83.9128 5.48978 83.9684 5.3468 84.3751 4.49558C84.6528 3.91418 84.7385 4.0081 84.6477 4.79425ZM73.8877 4.33469C73.7586 4.56939 73.7612 4.58216 73.9379 4.58216C74.1284 4.58216 74.2433 4.47407 74.2433 4.29498C74.2433 4.08546 74.0104 4.11149 73.8877 4.33469ZM18.3291 4.3463C18.3798 4.42195 18.3277 4.62469 18.1171 5.17119C17.9636 5.56976 17.8253 5.90882 17.8098 5.92465C17.7255 6.01074 17.6642 5.72631 17.6983 5.40705C17.8025 4.43075 18.0768 3.96948 18.3291 4.3463ZM14.7947 4.53633C14.7152 4.64552 14.6128 4.76412 14.5672 4.79981C14.5215 4.83549 14.4648 4.93717 14.4411 5.02583C14.3987 5.18469 14.401 5.18598 14.6044 5.11375C14.7863 5.04917 14.8217 5.05454 14.903 5.15903C14.9562 5.22746 14.9952 5.42 14.9952 5.61425C14.9952 6.16393 15.1107 5.89911 15.1788 5.19319C15.2418 4.54037 15.2065 4.33775 15.0298 4.33775C14.9799 4.33775 14.8741 4.42714 14.7947 4.53633ZM25.6061 4.68811C25.5167 5.62689 25.3289 6.07526 25.0411 6.03665C24.83 6.00836 24.8338 5.77861 25.0528 5.32254C25.1596 5.10019 25.3076 4.78557 25.3817 4.62346C25.5453 4.26571 25.6436 4.294 25.6061 4.68811ZM81.129 4.876C81.1283 5.40283 81.0088 5.98709 80.8622 6.18079C80.695 6.40155 80.4415 6.41463 80.3412 6.20761C80.2813 6.084 80.3189 5.94787 80.5814 5.3369C80.7525 4.93863 80.9199 4.57862 80.9534 4.537C81.0647 4.39879 81.1296 4.52411 81.129 4.876ZM11.8213 5.13031C11.587 5.40448 11.566 5.4987 11.739 5.4987C11.9532 5.4987 11.998 5.63123 11.9773 6.20224C11.9529 6.87351 12.0045 7.46254 12.0835 7.41659C12.1506 7.37761 12.1371 4.95617 12.0696 4.91694C12.0453 4.90283 11.9335 4.99888 11.8213 5.13031ZM22.0088 5.14736C22.0041 5.51373 21.8454 6.21195 21.7288 6.37925C21.5916 6.57631 21.3401 6.57796 21.3103 6.38194C21.2998 6.3132 21.3773 6.06573 21.4824 5.83202C21.5875 5.5983 21.7188 5.30397 21.7742 5.17791C21.898 4.89604 22.0123 4.8812 22.0088 5.14736ZM77.6864 5.58736C77.6864 6.43192 77.4736 6.93712 77.1371 6.89117C77.0658 6.88145 76.9735 6.80899 76.9319 6.7301C76.8675 6.60826 76.8879 6.52119 77.0685 6.14963C77.1853 5.90925 77.3412 5.58198 77.415 5.42232C77.6077 5.0056 77.6864 5.05344 77.6864 5.58736ZM18.6187 5.91395C18.5869 6.43895 18.4202 6.95404 18.2502 7.05285C18.1496 7.11132 17.9383 7.04026 17.8947 6.93339C17.8589 6.84583 17.9566 6.5336 18.1383 6.15427C18.1903 6.04575 18.292 5.82639 18.3644 5.66673C18.573 5.20687 18.6566 5.2882 18.6187 5.91395ZM9.10581 5.53432C9.08002 5.59872 9.01336 5.6836 8.95762 5.72282C8.84107 5.80489 8.86024 5.83256 9.07696 5.89532C9.20787 5.93326 9.22599 5.92336 9.18955 5.83409C9.16564 5.7755 9.18045 5.68867 9.22242 5.64113C9.279 5.57703 9.27985 5.53683 9.22567 5.48587C9.17155 5.43497 9.1405 5.44756 9.10581 5.53432ZM96.3904 7.44818C96.2229 7.50831 95.3603 8.26415 95.3188 8.38721C95.2976 8.45008 95.298 8.56831 95.3198 8.64989C95.3702 8.83888 95.673 8.85397 95.8441 8.67604C96.1163 8.39313 96.1365 8.47519 96.1365 9.86944C96.1365 10.8698 96.117 11.1902 96.0553 11.2065C96.0106 11.2183 95.8581 11.2518 95.7163 11.281C95.4084 11.3443 95.2117 11.5973 95.331 11.7765C95.4275 11.9213 95.8031 11.9416 96.7084 11.8507C97.5 11.7713 97.6307 11.7119 97.6307 11.4316C97.6307 11.2185 97.4025 11.0905 97.1249 11.1478C96.9975 11.1741 96.911 11.1619 96.8788 11.1129C96.8516 11.0714 96.8363 10.2881 96.8449 9.37224C96.8549 8.30667 96.8362 7.66418 96.7929 7.58811C96.7169 7.45441 96.5421 7.39368 96.3904 7.44818ZM51.0508 7.51576C50.6925 7.57393 50.2062 7.75327 50.2062 7.82726C50.2062 7.8572 50.1704 7.8817 50.1266 7.8817C50.0079 7.8817 49.6418 8.29286 49.4776 8.6106C49.3462 8.86503 49.3286 9.02329 49.28 10.3869C49.2507 11.2103 49.2205 12.4888 49.213 13.2282C49.1966 14.8313 49.2561 15.0878 49.7666 15.6144C50.2526 16.1158 50.5462 16.192 52.0108 16.1972C53.1667 16.2013 53.2055 16.1973 53.4777 16.0473C53.8808 15.8251 54.2074 15.4845 54.4216 15.0628L54.6086 14.6947L54.6424 12.0881C54.6684 10.0686 54.696 9.44245 54.7644 9.3079L54.8528 9.13431L55.6654 9.11732C56.2959 9.10412 56.5068 9.1202 56.6066 9.18912C56.7318 9.27564 56.7348 9.3475 56.7174 11.8915C56.7016 14.2067 56.6875 14.5176 56.5937 14.6151C56.5354 14.6757 56.4373 14.7252 56.3758 14.7252C56.1823 14.7252 56.135 14.8613 56.1255 15.4458C56.1203 15.7581 56.1131 16.0331 56.1094 16.0568C56.075 16.2772 56.3332 16.3382 56.8091 16.2222C57.2775 16.108 57.4711 16 57.8134 15.6618C58.3591 15.1226 58.3832 14.9625 58.3957 11.7923C58.4069 8.93823 58.3914 8.77209 58.0819 8.4191C57.5694 7.8349 57.3907 7.73487 56.5841 7.58108C56.1653 7.50122 54.9479 7.49376 54.7406 7.56984C54.6585 7.59996 54.4598 7.66106 54.299 7.70573C53.9341 7.80704 53.4878 8.22131 53.2495 8.68007L53.0768 9.0121L53.0105 11.7581L52.9442 14.5041L52.7933 14.6163C52.6626 14.7135 52.5558 14.7244 51.9928 14.6981C51.6355 14.6814 51.2931 14.6669 51.232 14.6659C51.1708 14.6649 51.0579 14.6023 50.9811 14.5266L50.8414 14.3891L50.8868 11.8891C50.9118 10.5141 50.9577 9.32593 50.9889 9.24875C51.024 9.16205 51.1272 9.08867 51.2593 9.05665L51.473 9.00477L51.5072 8.33631C51.5389 7.71483 51.5024 7.44372 51.3896 7.4612C51.364 7.46511 51.2116 7.48973 51.0508 7.51576ZM14.692 7.67805C14.7159 7.70041 14.7548 7.70041 14.7787 7.67805C14.8025 7.65562 14.783 7.63729 14.7353 7.63729C14.6877 7.63729 14.6682 7.65562 14.692 7.67805ZM91.7515 7.91684C91.1895 8.19247 90.9208 8.76317 90.8473 9.83699C90.771 10.9522 90.9714 11.7845 91.3974 12.1216C91.7613 12.4097 92.1342 12.4088 92.5382 12.119C92.9946 11.7915 93.2048 11.1872 93.2575 10.0508C93.29 9.35 93.2779 9.20684 93.1552 8.83436C93.0786 8.60223 92.9536 8.31724 92.8773 8.20109C92.6473 7.85115 92.1444 7.72418 91.7515 7.91684ZM12.3966 8.00391C12.3966 8.0487 12.4161 8.06703 12.4399 8.04467C12.4637 8.02224 12.4637 7.98558 12.4399 7.96315C12.4161 7.94079 12.3966 7.95912 12.3966 8.00391ZM32.7306 8.10791C32.5556 8.1676 32.2024 8.51797 32.0657 8.76769C31.845 9.17067 31.7609 9.63963 31.759 10.4786C31.7563 11.641 32.0019 12.3019 32.5109 12.5019C33.487 12.8855 34.2256 11.8687 34.2243 10.1429C34.2236 9.08879 33.9377 8.3335 33.47 8.14964C33.2541 8.06483 32.9133 8.04558 32.7306 8.10791ZM87.5825 8.42802C87.0985 8.70561 86.8197 9.50245 86.8223 10.6008C86.8251 11.7506 87.1113 12.4426 87.6485 12.5982C88.1959 12.7567 88.7039 12.3666 88.9645 11.5876C89.1051 11.1672 89.1584 9.98932 89.0602 9.47221C88.9681 8.98791 88.662 8.45057 88.431 8.36802C88.1696 8.27447 87.8052 8.30026 87.5825 8.42802ZM28.7235 8.55939C28.4307 8.63993 28.0829 9.05237 27.9093 9.5247C27.7057 10.0788 27.6924 11.5042 27.8857 12.0587C28.1617 12.8506 28.8431 13.1235 29.4148 12.671C29.967 12.2339 30.2312 10.7619 29.9683 9.58641C29.7799 8.74453 29.3475 8.3877 28.7235 8.55939ZM92.3056 8.61842C92.3653 8.72339 92.3105 8.88 91.9738 9.56728C91.7519 10.0201 91.5409 10.4076 91.5049 10.4285C91.4616 10.4538 91.4511 10.2511 91.4739 9.83106C91.5085 9.19523 91.6159 8.82324 91.8288 8.60192C91.9706 8.45454 92.2171 8.4631 92.3056 8.61842ZM33.1847 8.828C33.2968 8.95497 33.2344 9.14201 32.8079 9.95889L32.4408 10.6619L32.4199 10.3045C32.3917 9.82245 32.5655 9.05524 32.7433 8.87719C32.9044 8.71594 33.0696 8.69749 33.1847 8.828ZM83.8838 8.9144C83.6375 9.05561 83.4626 9.32269 83.2995 9.80644C83.1122 10.3624 83.1258 11.6851 83.3242 12.1871C83.4708 12.558 83.698 12.792 83.978 12.8602C84.1991 12.9141 84.6696 12.6799 84.8193 12.4414C85.1117 11.9752 85.1864 11.62 85.187 10.6924C85.1877 9.68472 85.0978 9.3354 84.7508 8.99683C84.5098 8.76164 84.2012 8.73232 83.8838 8.9144ZM24.8149 9.02102C24.5612 9.14207 24.3548 9.42779 24.1816 9.89809C24.0801 10.1736 24.0581 10.4048 24.0598 11.1812C24.0615 12.0211 24.0785 12.1678 24.2096 12.4771C24.3979 12.9213 24.6595 13.1365 25.011 13.1365C25.33 13.1365 25.574 13.0084 25.7582 12.7441C26.0397 12.3401 26.124 11.9856 26.1544 11.0769C26.1796 10.3229 26.1658 10.1541 26.0491 9.79373C25.8095 9.05396 25.3497 8.7661 24.8149 9.02102ZM88.176 9.00294C88.2517 9.05506 88.2821 9.12826 88.2583 9.20152C88.1581 9.51027 87.5617 10.7228 87.5006 10.7419C87.3759 10.781 87.419 9.88685 87.563 9.44826C87.7252 8.95448 87.9101 8.82012 88.176 9.00294ZM29.0796 9.23818C29.2003 9.35165 29.1736 9.51681 28.9744 9.89052C28.8737 10.0795 28.7242 10.3922 28.6421 10.5855C28.4263 11.0936 28.3516 11.0378 28.3967 10.4022C28.4621 9.48235 28.774 8.9507 29.0796 9.23818ZM80.3914 9.2347C79.9964 9.45052 79.8275 9.85001 79.7815 10.6765C79.7289 11.6228 79.9262 12.6803 80.2093 12.9685C80.3971 13.1598 80.5338 13.1767 80.8092 13.0427C81.1324 12.8855 81.369 12.5128 81.4569 12.0226C81.5663 11.4128 81.509 10.073 81.3589 9.72982C81.1576 9.26959 80.7289 9.05023 80.3914 9.2347ZM84.3778 9.34817C84.4493 9.41538 84.5077 9.5027 84.5077 9.54211C84.5077 9.58158 84.3651 9.93219 84.1907 10.3212C84.0162 10.7102 83.8564 11.0766 83.8354 11.1354C83.7718 11.3137 83.6179 11.2578 83.5808 11.0431C83.5292 10.7438 83.636 9.9031 83.7639 9.60266C83.8608 9.37481 84.0128 9.24466 84.1992 9.22981C84.2259 9.22773 84.3064 9.28096 84.3778 9.34817ZM21.4035 9.41098C21.0088 9.52225 20.8458 9.76128 20.6779 10.4747C20.4298 11.529 20.7129 13.0391 21.1975 13.2468C21.7824 13.4975 22.2377 13.0481 22.4468 12.0141C22.6176 11.169 22.4694 9.98333 22.1486 9.62997C22.0619 9.53441 21.6717 9.33503 21.6075 9.35342C21.5974 9.3563 21.5056 9.3822 21.4035 9.41098ZM25.2467 9.6659C25.2896 9.70623 25.3246 9.77858 25.3246 9.82666C25.3246 9.92278 24.7506 11.1767 24.664 11.2698C24.5848 11.3551 24.5982 10.6287 24.6829 10.2524C24.8141 9.66939 25.0213 9.45388 25.2467 9.6659ZM80.7699 9.73617C80.8611 9.79886 80.8813 9.86858 80.854 10.0264C80.8243 10.1982 80.5563 10.9047 80.2827 11.5326C80.2496 11.6086 80.1665 11.6701 80.0967 11.6701C79.9054 11.6701 79.8725 11.3898 79.9892 10.754C80.1567 9.84078 80.421 9.49622 80.7699 9.73617ZM92.5953 10.3455C92.5271 10.9209 92.3894 11.4249 92.2653 11.5539C92.0763 11.7503 91.7189 11.6714 91.7189 11.4332C91.7189 11.3836 91.8685 11.0523 92.0513 10.6969C92.2341 10.3416 92.4116 9.98211 92.4456 9.89809C92.5542 9.63028 92.6471 9.90799 92.5953 10.3455ZM17.9847 9.97667C17.7228 10.1013 17.4848 10.644 17.4333 11.2336C17.402 11.5928 17.4096 11.7322 17.4588 11.7036C17.4973 11.6812 17.5292 11.5339 17.5296 11.3762C17.5312 10.7634 17.8272 10.1425 18.1177 10.1425C18.1789 10.1425 18.2967 10.194 18.3793 10.2569C18.5706 10.4026 18.5707 10.7276 18.3798 11.032C18.3048 11.1515 18.2444 11.3096 18.2455 11.3833C18.2474 11.5097 18.257 11.5072 18.4157 11.3373C18.5792 11.1624 18.5865 11.1607 18.6776 11.2762C18.7514 11.3699 18.7623 11.5184 18.7292 11.9756C18.6761 12.7094 18.5996 12.9904 18.4028 13.1756C18.2429 13.3259 18.0028 13.3283 17.8049 13.1818C17.6776 13.0874 17.7091 12.7224 17.8613 12.5289C18.0123 12.3367 17.9753 12.1948 17.7888 12.2505C17.7104 12.2739 17.6354 12.2399 17.5691 12.1508C17.4789 12.0297 17.4639 12.0265 17.4256 12.1205C17.371 12.2544 17.4518 12.9384 17.5416 13.103C17.6675 13.3335 17.8749 13.5032 18.0306 13.5032C18.4256 13.5032 18.6586 13.2487 18.8936 12.561C19.0111 12.2169 18.9914 10.9538 18.8629 10.5978C18.7032 10.1554 18.5854 9.97771 18.4247 9.93726C18.2171 9.88496 18.1682 9.88936 17.9847 9.97667ZM21.7405 10.0661C21.8096 10.1925 21.8135 10.1787 21.4744 10.9979C21.0863 11.9354 20.9705 12.0309 20.9744 11.4104C20.9776 10.8893 21.1215 10.2299 21.2642 10.0815C21.4093 9.93066 21.662 9.92253 21.7405 10.0661ZM33.5453 10.5014C33.434 11.5405 33.0704 12.1484 32.7436 11.8412C32.6285 11.7328 32.6458 11.6354 32.8543 11.2205C32.9581 11.0141 33.1327 10.6575 33.2423 10.4281C33.4939 9.90164 33.6066 9.92889 33.5453 10.5014ZM88.4996 10.7447C88.4314 11.4409 88.2769 11.8699 88.0697 11.9384C87.8455 12.0126 87.691 11.9492 87.691 11.783C87.691 11.6529 88.2317 10.436 88.3585 10.2807C88.4926 10.1165 88.5444 10.2872 88.4996 10.7447ZM14.7893 10.599C14.7261 10.7297 14.7371 10.7658 14.8716 10.8683C15.0725 11.0213 15.1251 10.9841 15.1251 10.6888C15.1251 10.4879 15.1034 10.448 14.9938 10.448C14.9172 10.448 14.832 10.5109 14.7893 10.599ZM29.3536 11.3848C29.2596 11.9541 29.1158 12.1894 28.8616 12.1894C28.685 12.1894 28.6709 12.1731 28.6777 11.9756C28.6819 11.8531 28.8338 11.4745 29.0332 11.0896L29.3812 10.4175L29.4033 10.683C29.4156 10.8291 29.3931 11.1448 29.3536 11.3848ZM84.6753 11.204C84.6246 11.8355 84.4612 12.2555 84.2349 12.3358C84.0323 12.4078 83.8581 12.3112 83.8581 12.1269C83.8581 11.9793 84.2045 11.1353 84.4576 10.6663C84.5725 10.4533 84.5946 10.4389 84.6535 10.5378C84.6947 10.6071 84.703 10.8594 84.6753 11.204ZM81.1296 11.1489C81.1296 11.5195 80.9766 12.3377 80.8733 12.519C80.7834 12.6771 80.6027 12.7265 80.391 12.6508C80.1316 12.558 80.1687 12.3038 80.5449 11.5972C80.7235 11.2615 80.8697 10.9504 80.8697 10.9059C80.8697 10.8199 80.9992 10.7525 81.0808 10.7959C81.1076 10.8102 81.1296 10.969 81.1296 11.1489ZM25.5685 11.3501C25.5258 11.9353 25.4146 12.2988 25.2277 12.464C25.0672 12.6058 24.896 12.577 24.8356 12.3981C24.7913 12.2666 25.4333 10.8757 25.5384 10.8757C25.5787 10.8757 25.5901 11.0542 25.5685 11.3501ZM21.9953 11.7604C21.9556 12.4938 21.823 12.8228 21.5275 12.9215C21.3755 12.9722 21.3299 12.9601 21.228 12.8417C21.0905 12.6819 21.106 12.6223 21.454 11.9756C21.5715 11.7571 21.7035 11.4753 21.7471 11.3493C21.7941 11.2138 21.8682 11.1201 21.9283 11.1201C22.0164 11.1201 22.0254 11.2061 21.9953 11.7604ZM14.9952 11.3071C14.9952 11.3762 15.0244 11.4159 15.0602 11.3951C15.0959 11.3743 15.1251 11.3178 15.1251 11.2693C15.1251 11.2208 15.0959 11.1812 15.0602 11.1812C15.0244 11.1812 14.9952 11.2379 14.9952 11.3071ZM18.0915 11.7128C17.9715 11.9304 17.9548 12.0367 18.0407 12.0367C18.1183 12.0367 18.2635 11.6957 18.2279 11.5968C18.2112 11.5502 18.1547 11.5983 18.0915 11.7128ZM95.8147 15.0052C95.291 15.4029 95.2852 15.4104 95.3047 15.6621C95.3209 15.8711 95.3501 15.9201 95.4676 15.9359C95.5464 15.9464 95.7014 15.8921 95.812 15.8152C95.9837 15.6958 96.0223 15.6884 96.0753 15.7654C96.1519 15.8766 96.1436 18.0604 96.0657 18.2528C96.0219 18.3613 95.9591 18.3914 95.7765 18.3914C95.4263 18.3914 95.2919 18.4831 95.2919 18.7221C95.2919 19.0631 95.377 19.087 96.439 19.0438C96.9952 19.0213 97.4232 18.9764 97.4759 18.9353C97.5969 18.8409 97.5897 18.5449 97.4636 18.4263C97.4015 18.3679 97.2487 18.3303 97.0739 18.3303H96.7861V16.5626C96.7861 15.0372 96.7722 14.7819 96.6841 14.699C96.5111 14.5363 96.3638 14.5883 95.8147 15.0052ZM91.8488 14.8009C91.3319 14.9275 90.9911 15.4538 90.8127 16.4015C90.6755 17.1302 90.799 18.1671 91.0856 18.6909C91.5199 19.4847 92.4648 19.4264 92.9215 18.5776C93.1924 18.0744 93.3078 16.6785 93.14 15.935C92.95 15.0926 92.4502 14.6537 91.8488 14.8009ZM37.2132 14.8925C37.1596 14.912 36.9184 15.0926 36.6773 15.2938C36.3348 15.5794 36.2388 15.6967 36.2388 15.829C36.2388 16.2095 36.4084 16.2935 36.7166 16.0655C36.8104 15.9961 36.9167 15.9565 36.9527 15.9774C37.0237 16.0187 37.0478 18.3704 36.9789 18.5391C36.9534 18.6015 36.8598 18.6358 36.7148 18.6358C36.373 18.6358 36.2388 18.7291 36.2388 18.9665C36.2388 19.3083 36.3228 19.3316 37.3944 19.2863C38.1819 19.2532 38.3644 19.2279 38.4313 19.1431C38.6497 18.8662 38.4014 18.5571 37.9857 18.5885L37.7654 18.6052L37.733 16.8273C37.7077 15.4453 37.6806 15.0267 37.6113 14.9484C37.521 14.8462 37.3908 14.8279 37.2132 14.8925ZM32.6281 15.0563C32.3348 15.1764 32.0383 15.5506 31.8762 16.0054C31.7555 16.3441 31.7331 16.5464 31.7302 17.3221C31.7261 18.409 31.8218 18.7885 32.2011 19.1905C32.4204 19.4231 32.4795 19.4512 32.7987 19.4753C33.2337 19.5082 33.5094 19.3573 33.7874 18.9343C34.06 18.5197 34.2491 17.592 34.1972 16.9249C34.1157 15.8797 33.8662 15.325 33.3706 15.0872C33.0854 14.9503 32.9053 14.9428 32.6281 15.0563ZM87.7761 15.0429C87.5023 15.1097 87.1523 15.4927 86.9711 15.924C86.8375 16.242 86.8198 16.3887 86.8171 17.1999C86.8135 18.2576 86.9055 18.6404 87.2561 19.027C87.4512 19.2422 87.5087 19.2683 87.8447 19.2945C88.2169 19.3235 88.2172 19.3234 88.5041 19.0418C88.934 18.6198 89.0228 18.2835 89.0228 17.0777C89.0228 15.9561 88.9319 15.5908 88.5674 15.2481C88.3353 15.0297 88.0906 14.9663 87.7761 15.0429ZM28.5029 15.353C28.2033 15.5428 28.0094 15.8321 27.8492 16.3281C27.7317 16.692 27.7178 16.8602 27.7428 17.6149C27.7768 18.6374 27.907 19.0523 28.2942 19.3721C28.5085 19.5491 28.5589 19.5635 28.8761 19.5388C29.3036 19.5054 29.4821 19.3633 29.7403 18.8509C30.1496 18.0389 30.122 16.3738 29.6878 15.6745C29.5333 15.4257 29.185 15.214 28.9302 15.214C28.8157 15.214 28.6234 15.2765 28.5029 15.353ZM84.0855 15.2629C83.8451 15.3086 83.5391 15.5813 83.4025 15.8716C82.9075 16.9242 83.0442 18.802 83.6485 19.2491C83.8681 19.4115 84.239 19.404 84.5085 19.2315C84.853 19.011 85.0788 18.5144 85.1621 17.7935C85.3363 16.2877 84.8394 15.1198 84.0855 15.2629ZM92.1847 15.4985C92.2501 15.5541 92.3035 15.645 92.3035 15.7006C92.3035 15.8475 91.5378 17.2915 91.4599 17.2915C91.3652 17.2915 91.3823 16.59 91.4867 16.1917C91.6824 15.4456 91.8856 15.2438 92.1847 15.4985ZM24.8272 15.5506C24.5624 15.6628 24.3938 15.8904 24.2236 16.3655C24.1106 16.681 24.0865 16.8953 24.0866 17.5851C24.0867 18.7295 24.2794 19.2978 24.744 19.5238C25.2259 19.7581 25.7679 19.3523 25.9707 18.6052C26.0884 18.1718 26.1323 17.0227 26.0474 16.5971C25.9626 16.1718 25.735 15.7184 25.5488 15.6036C25.3424 15.4763 25.0528 15.4551 24.8272 15.5506ZM80.3717 15.537C80.1459 15.6561 79.982 15.8936 79.8342 16.3163C79.638 16.8774 79.6345 18.1447 79.8279 18.6358C80.0075 19.0922 80.1589 19.2668 80.4183 19.3167C80.7386 19.3784 80.9466 19.2474 81.1783 18.8383C81.4295 18.3947 81.5251 17.6936 81.4495 16.8505C81.3881 16.1656 81.2107 15.7476 80.9078 15.5739C80.6763 15.4411 80.5676 15.4336 80.3717 15.537ZM88.0919 15.6818C88.1573 15.7374 88.2107 15.8309 88.2107 15.8895C88.2107 16.0646 87.4829 17.4743 87.4134 17.4339C87.335 17.3884 87.3924 16.4395 87.4928 16.1224C87.5714 15.8739 87.7928 15.5806 87.9018 15.5806C87.941 15.5806 88.0266 15.6262 88.0919 15.6818ZM33.1156 15.7594C33.2741 15.9085 33.2543 15.9777 32.8118 16.8229C32.5201 17.3801 32.4466 17.48 32.3935 17.3909C32.2643 17.1737 32.4981 15.9757 32.7141 15.7487C32.8456 15.6104 32.9604 15.6135 33.1156 15.7594ZM84.3676 15.9484C84.452 16.0904 84.4357 16.154 84.1557 16.7732C83.7955 17.57 83.7716 17.614 83.6831 17.6417C83.5691 17.6774 83.5482 17.4622 83.6045 16.8342C83.6485 16.3442 83.6889 16.1917 83.8268 15.9958C84.0221 15.7181 84.2203 15.7008 84.3676 15.9484ZM21.1122 15.9675C20.9395 16.1405 20.7482 16.6348 20.6397 17.189C20.576 17.5142 20.5757 17.7337 20.6384 18.2411C20.7582 19.2104 20.9946 19.6134 21.4435 19.6134C22.0709 19.6134 22.4742 18.6445 22.3812 17.3607C22.3079 16.3487 22.0106 15.8251 21.5094 15.8251C21.3264 15.8251 21.2144 15.8653 21.1122 15.9675ZM29.0901 16.004C29.1683 16.1414 29.1545 16.1854 28.8276 16.8349C28.6918 17.1047 28.5498 17.4019 28.512 17.4954C28.3189 17.9729 28.2371 17.1639 28.4138 16.5253C28.4692 16.325 28.5576 16.0993 28.6102 16.0236C28.7289 15.853 28.9979 15.842 29.0901 16.004ZM80.8168 16.1006C80.9021 16.2767 80.8779 16.3639 80.5103 17.1999C80.2429 17.8082 80.1811 17.9025 80.0497 17.9025C79.9805 17.9025 79.9602 17.7806 79.9602 17.3637C79.9602 16.7685 80.0909 16.252 80.2886 16.0661C80.4704 15.8951 80.7254 15.9118 80.8168 16.1006ZM25.2226 16.1044C25.3786 16.2511 25.348 16.431 25.061 17.0547C24.916 17.3698 24.7694 17.6916 24.7353 17.7699C24.5174 18.2688 24.4291 17.2049 24.6337 16.5459C24.6978 16.3391 24.8002 16.1589 24.8853 16.1029C25.0641 15.985 25.0958 15.9852 25.2226 16.1044ZM21.7317 16.2178L21.914 16.3661L21.7745 16.7219C21.4621 17.5189 21.1788 18.1052 21.0815 18.1566C20.7457 18.3333 20.7656 17.0024 21.1082 16.3653C21.2876 16.0317 21.4544 15.9922 21.7317 16.2178ZM17.7817 16.4311C17.6069 16.5963 17.4639 16.7567 17.4639 16.7875C17.4639 16.9163 17.5615 16.9174 17.7056 16.79C17.8263 16.6834 17.8835 16.6682 17.9703 16.7197C18.0673 16.7772 18.0833 16.9316 18.0996 17.9649C18.1115 18.7206 18.094 19.1674 18.0509 19.2079C17.9318 19.3199 17.9768 19.4872 18.1359 19.5249C18.4024 19.5878 18.7957 19.5312 18.7957 19.4301C18.7957 19.3762 18.7241 19.3307 18.6217 19.3196C18.3073 19.2854 18.2946 19.2249 18.2781 17.674C18.2697 16.8755 18.2584 16.2016 18.2531 16.1764C18.2303 16.0682 18.0789 16.1501 17.7817 16.4311ZM92.4941 17.704C92.3888 18.3549 92.2451 18.5892 91.9675 18.5632C91.595 18.5282 91.6062 18.4274 92.0849 17.5046L92.5283 16.6499L92.5521 16.9249C92.5652 17.0761 92.5391 17.4267 92.4941 17.704ZM88.4706 17.2787C88.4706 17.7244 88.3287 18.3363 88.1735 18.5594C88.0135 18.7894 87.6261 18.708 87.6261 18.4444C87.6261 18.3862 87.7539 18.0915 87.9102 17.7896C88.0664 17.4877 88.2257 17.1558 88.2641 17.0522C88.3818 16.7346 88.4706 16.832 88.4706 17.2787ZM33.5091 17.3373C33.5078 17.7647 33.3021 18.5419 33.1479 18.7021C33.0122 18.8432 32.8402 18.8523 32.7056 18.7257C32.5889 18.6159 32.5946 18.5971 32.974 17.8414C33.1343 17.5222 33.2906 17.1991 33.3212 17.1235C33.4219 16.8755 33.5102 16.9761 33.5091 17.3373ZM81.1296 17.4375C81.1296 17.8628 80.9688 18.6756 80.8533 18.8344C80.7118 19.0287 80.458 19.058 80.2739 18.9013C80.0808 18.737 80.1045 18.6399 80.5253 17.872C80.5622 17.8048 80.6722 17.5855 80.7699 17.3847C80.9354 17.0445 80.9538 17.0276 81.0386 17.1367C81.0886 17.2011 81.1296 17.3364 81.1296 17.4375ZM84.6243 17.6482C84.5921 18.2755 84.4619 18.6524 84.2316 18.784C84.0835 18.8687 83.8984 18.7642 83.8692 18.5795C83.8487 18.449 84.0611 17.8855 84.2743 17.5054C84.3308 17.4046 84.3772 17.2932 84.3774 17.2579C84.3779 17.1782 84.5129 17.0471 84.5944 17.0471C84.6299 17.0471 84.6423 17.296 84.6243 17.6482ZM29.3529 17.8992C29.2452 18.7259 28.9698 19.114 28.6616 18.8734C28.5194 18.7624 28.5826 18.5383 28.9677 17.7894C29.3795 16.9885 29.4682 17.0138 29.3529 17.8992ZM22.0655 17.6587C22.1158 18.578 21.8025 19.3181 21.4031 19.2238C21.3065 19.201 21.1946 19.1146 21.1545 19.0319C21.0766 18.871 21.0605 18.9218 21.492 17.9636C21.6055 17.7116 21.725 17.4415 21.7576 17.3634C21.7945 17.2751 21.8597 17.2292 21.9304 17.2418C22.0218 17.2582 22.0481 17.3397 22.0655 17.6587ZM25.5714 17.8567C25.5261 18.7984 25.2592 19.2595 24.8724 19.0647C24.6654 18.9605 24.7081 18.6768 25.0238 18.06C25.1799 17.755 25.328 17.4435 25.353 17.3679C25.3779 17.2923 25.444 17.2304 25.4999 17.2304C25.5874 17.2304 25.5974 17.3173 25.5714 17.8567ZM50.5635 17.8625C50.0052 18.034 49.5687 18.377 49.3122 18.8458C49.1459 19.1498 49.1421 19.1848 49.0948 20.866C49.0684 21.807 49.0445 23.1315 49.0418 23.8092C49.0369 25.0228 49.0395 25.0464 49.2078 25.3617C49.4253 25.7689 49.8656 26.1843 50.2395 26.335C50.5029 26.4412 50.8067 26.4585 53.438 26.5164C56.5922 26.5858 56.7585 26.5748 57.234 26.266C57.5522 26.0593 57.9039 25.6725 58.0326 25.3876C58.1705 25.0827 58.2753 22.27 58.2475 19.6214L58.2294 17.8878L57.4632 17.8799C56.6241 17.8713 56.6361 17.8655 56.6438 18.2692C56.6559 18.9057 56.5607 24.2341 56.5326 24.4914C56.4752 25.0181 56.4151 25.0462 55.3919 25.0241C54.9159 25.0138 54.5022 25.002 54.4727 24.9979C54.4197 24.9906 54.4659 19.6157 54.5282 18.5441C54.5457 18.2417 54.5378 17.9634 54.5107 17.9258C54.432 17.8166 50.8974 17.7599 50.5635 17.8625ZM52.9299 19.4078C52.9451 19.4206 52.9574 19.5203 52.9572 19.6292C52.95 23.4486 52.9191 24.8655 52.8414 24.9261C52.7159 25.0241 51.2021 25.0005 50.9373 24.8964L50.7259 24.8134V22.2715C50.7259 19.5787 50.7421 19.4249 51.0336 19.3481C51.1582 19.3153 52.8847 19.3697 52.9299 19.4078ZM28.4237 22.0696C27.808 22.4127 27.5127 23.7134 27.7574 25.0044C27.8738 25.6183 28.0741 25.9566 28.4307 26.1416C29.0023 26.4382 29.5496 26.1075 29.8072 25.3099C29.9327 24.9211 29.946 24.7663 29.9221 23.9681C29.8904 22.9122 29.7877 22.5501 29.4255 22.2181C29.1102 21.9291 28.7671 21.8782 28.4237 22.0696ZM24.74 22.0848C24.5141 22.2008 24.3276 22.4573 24.182 22.8519C24.0809 23.1261 24.0586 23.3566 24.0606 24.1045C24.0628 24.9037 24.0815 25.0645 24.2068 25.3611C24.4727 25.9903 24.9548 26.2199 25.4146 25.9366C25.9256 25.6216 26.1825 24.2619 25.9488 23.1094C25.8412 22.5788 25.6017 22.2058 25.2899 22.0833C25.0208 21.9775 24.9483 21.9777 24.74 22.0848ZM21.0635 22.2732C20.9333 22.403 20.8313 22.5792 20.8072 22.7162C20.7851 22.8412 20.7401 23.0233 20.7071 23.1207C20.624 23.3662 20.632 24.3792 20.7208 24.8588C20.7613 25.0776 20.8728 25.3823 20.9685 25.536C21.1271 25.7904 21.1673 25.8171 21.4194 25.8343C21.7321 25.8559 21.8293 25.799 22.0548 25.463C22.4564 24.8646 22.4831 23.2663 22.1041 22.5149C21.8601 22.0314 21.4106 21.927 21.0635 22.2732ZM32.4002 22.371C31.9157 22.7356 31.8884 22.7681 31.8871 22.9819C31.8855 23.24 32.0424 23.3195 32.3137 23.1978C32.4382 23.142 32.5721 23.0963 32.6112 23.0963C32.7116 23.0963 32.6153 25.5536 32.5125 25.6158C32.4717 25.6405 32.3492 25.6611 32.2402 25.6617C32.1312 25.6622 32.0069 25.6956 31.9641 25.7359C31.8591 25.8347 31.8651 26.1201 31.974 26.2051C32.0231 26.2434 32.4523 26.2913 32.9461 26.3136C33.9226 26.3576 34.0299 26.329 34.0299 26.0254C34.0299 25.8222 33.9656 25.775 33.5752 25.6923L33.2829 25.6303V23.9457C33.2829 22.1449 33.268 22.0575 32.9607 22.0575C32.8816 22.0575 32.6294 22.1986 32.4002 22.371ZM36.946 22.199C36.8607 22.2768 36.6784 22.4196 36.541 22.5163C36.2617 22.7129 36.1546 22.9114 36.2121 23.1266C36.267 23.3325 36.4154 23.3613 36.6672 23.2149C36.7875 23.1449 36.9132 23.1035 36.9464 23.1228C37.0172 23.1639 37.0307 24.7066 36.9657 25.3265L36.9209 25.7542L36.5973 25.7848C36.3141 25.8115 36.2657 25.8368 36.21 25.9866C36.071 26.3603 36.3034 26.4455 37.5016 26.46C38.1795 26.4682 38.288 26.4555 38.3624 26.3598C38.5608 26.1047 38.41 25.8774 37.9928 25.8027L37.7005 25.7504L37.6832 23.9854C37.6717 22.8079 37.642 22.1934 37.5941 22.139C37.4778 22.0072 37.1198 22.0404 36.946 22.199ZM80.7268 22.3142C80.8613 22.4406 80.8132 22.6832 80.5536 23.1882C80.4155 23.4569 80.282 23.7386 80.257 23.8142C80.2318 23.8898 80.1694 23.9517 80.1183 23.9517C79.9184 23.9517 80.0425 22.5813 80.2631 22.352C80.3855 22.2249 80.6122 22.2064 80.7268 22.3142ZM84.3355 22.5861C84.3249 22.7755 83.7283 24.0128 83.6477 24.0128C83.5726 24.0128 83.5886 23.2056 83.6709 22.8449C83.7132 22.6591 83.8092 22.4645 83.9012 22.378C84.0463 22.2416 84.0705 22.237 84.2021 22.3209C84.2992 22.3827 84.3421 22.4681 84.3355 22.5861ZM88.027 22.4031C88.1949 22.546 88.1783 22.6476 87.8978 23.1938C87.7614 23.4594 87.6116 23.7661 87.5651 23.8753C87.4096 24.2399 87.3472 24.1048 87.3815 23.4782C87.4133 22.896 87.4893 22.6249 87.6812 22.4089C87.7995 22.2756 87.8757 22.2743 88.027 22.4031ZM21.6927 22.5521C21.8709 22.7197 21.8251 22.9595 21.4863 23.6321C21.3464 23.91 21.2318 24.1765 21.2318 24.2244C21.2318 24.3536 20.9609 24.5158 20.8772 24.4367C20.7772 24.3424 20.8246 23.2193 20.9417 22.9072C21.1226 22.4249 21.412 22.2881 21.6927 22.5521ZM73.555 22.4947C73.5262 22.5384 73.5371 22.5487 73.5836 22.5216C73.6585 22.4781 73.6841 22.4241 73.6299 22.4241C73.6142 22.4241 73.5804 22.4559 73.555 22.4947ZM25.2516 22.6423C25.4015 22.8215 25.4038 22.8125 25.0075 23.5851C24.861 23.8708 24.7408 24.1516 24.7405 24.2093C24.7402 24.2669 24.685 24.3417 24.6178 24.3755C24.5129 24.4283 24.4899 24.4103 24.4555 24.2488C24.4336 24.1453 24.4345 23.8642 24.4576 23.6243C24.549 22.6756 24.9081 22.2315 25.2516 22.6423ZM28.9738 22.6475C29.1377 22.787 29.125 22.8801 28.8753 23.3714C28.7558 23.6066 28.6023 23.9295 28.5342 24.0889C28.4662 24.2485 28.3696 24.3791 28.3197 24.3792C28.2459 24.3794 28.2359 24.2742 28.2664 23.8142C28.3067 23.2061 28.4406 22.7607 28.6221 22.6311C28.7721 22.524 28.832 22.5268 28.9738 22.6475ZM77.6507 23.5099C77.7042 23.7393 77.5725 24.5764 77.4736 24.6356C77.3602 24.7033 77.0518 24.6961 77.0047 24.6246C76.9829 24.5913 77.0251 24.4366 77.0984 24.2807C77.1717 24.1248 77.2317 23.9768 77.2317 23.9517C77.2317 23.8513 77.5013 23.3407 77.5544 23.3407C77.5856 23.3407 77.6289 23.4169 77.6507 23.5099ZM80.9782 24.0202C80.9325 24.577 80.8715 24.6849 80.6019 24.6849C80.3703 24.6849 80.3675 24.6202 80.5796 24.1579C80.954 23.3414 81.0362 23.3131 80.9782 24.0202ZM84.512 24.5217C84.461 24.648 84.4024 24.6849 84.2533 24.6849C84.1474 24.6849 84.0438 24.6593 84.0232 24.6279C84.0026 24.5967 84.0594 24.4196 84.1493 24.2347C84.2392 24.0498 84.3129 23.8753 84.3129 23.847C84.3129 23.8188 84.364 23.7276 84.4265 23.6446C84.5397 23.4942 84.5403 23.4955 84.5591 23.926C84.5695 24.1639 84.5483 24.432 84.512 24.5217ZM22.0155 23.7144C22.0701 23.8104 22.0703 23.9927 22.0166 24.4217C21.9319 25.0969 21.8265 25.3692 21.5946 25.5121C21.4391 25.608 21.4149 25.6082 21.2654 25.5161C20.9929 25.3482 20.9876 25.1424 21.2435 24.6573C21.3685 24.4205 21.5389 24.0823 21.6222 23.9059C21.7845 23.5624 21.8976 23.5073 22.0155 23.7144ZM88.4129 24.0883C88.3995 24.5646 88.3242 24.6849 88.0398 24.6849C87.8189 24.6849 87.809 24.6089 87.985 24.2658C88.0734 24.0934 88.1458 23.9375 88.1458 23.9193C88.1458 23.8497 88.36 23.5829 88.3918 23.6128C88.4103 23.6302 88.4198 23.8442 88.4129 24.0883ZM25.5835 24.0892C25.5813 25.1523 25.1664 25.8716 24.7704 25.4992C24.6176 25.3555 24.6772 25.0907 25.0062 24.4514C25.1563 24.1598 25.3089 23.8593 25.3453 23.7837C25.3817 23.7081 25.4505 23.6462 25.498 23.6462C25.5622 23.6462 25.5842 23.7607 25.5835 24.0892ZM29.3324 24.3947C29.2865 25.0564 29.2088 25.3434 29.0256 25.5284C28.7157 25.8413 28.4066 25.5587 28.5915 25.1317C28.8437 24.5491 29.2354 23.8295 29.3002 23.8295C29.3497 23.8295 29.3595 24.0024 29.3324 24.3947ZM92.5974 26.3775C94.1804 26.655 95.4143 27.1242 96.7817 27.9685C97.5304 28.4308 97.877 28.7033 98.5892 29.3899C99.2514 30.028 99.8023 30.6876 100.299 31.4368L100.623 31.9256L100.605 32.4755L100.587 33.0255L100.263 33.0446C100.086 33.0552 99.903 33.0929 99.8573 33.1285C99.7451 33.2162 99.7524 33.5126 99.8692 33.6037C99.9213 33.6444 100.306 33.715 100.723 33.7607C101.141 33.8064 101.504 33.8658 101.531 33.8929C101.558 33.9199 101.652 34.1345 101.74 34.3697C101.879 34.7429 101.994 35.2472 102.246 36.5949C102.32 36.9888 102.32 38.4103 102.246 38.7997C102.199 39.0516 102.194 39.0336 102.184 38.5858C102.162 37.5683 101.883 36.9478 101.302 36.6275C100.799 36.3502 100.23 36.4747 99.8908 36.936C99.5689 37.3744 99.4497 37.8625 99.4497 38.742C99.4497 39.6668 99.5228 40.0479 99.7924 40.5289C100.023 40.94 100.263 41.1508 100.616 41.2501C101.032 41.3674 101.322 41.278 101.679 40.9222C102.016 40.5867 102 40.5727 101.881 41.1063C101.803 41.4518 101.3 42.6396 100.981 43.2288C100.647 43.8477 100.315 44.2242 99.9012 44.4539C99.6932 44.5694 99.6771 44.6003 99.6771 44.884C99.6771 45.1605 99.6451 45.2271 99.3407 45.5844C99.0094 45.9732 98.1574 46.7801 97.6779 47.1591L97.4328 47.3528L97.1916 47.2312C97.059 47.1643 96.901 47.1096 96.8404 47.1096C96.78 47.1096 96.6845 47.0664 96.6283 47.0136C96.5403 46.9308 96.5263 46.6761 96.5263 45.1575C96.5263 43.2922 96.5314 43.3235 96.2113 43.2311C96.0963 43.1979 95.9895 43.2337 95.7784 43.3763C95.6242 43.4805 95.4755 43.5657 95.4479 43.5657C95.308 43.5657 95.097 43.8463 95.097 44.0324C95.097 44.2982 95.2521 44.3782 95.5439 44.2628C95.6637 44.2154 95.7875 44.1767 95.8191 44.1767C95.8508 44.1767 95.8766 44.7816 95.8766 45.521V46.8652H95.5216C95.2261 46.8652 95.1542 46.887 95.0927 46.9951C95.0327 47.1004 95.0422 47.1544 95.143 47.2813C95.2669 47.4374 95.3751 47.4712 96.3476 47.6577C96.553 47.6971 96.7212 47.7538 96.7212 47.7838C96.7212 48.0064 94.451 49.0757 93.3694 49.3626C92.5237 49.5869 92.3783 49.5947 92.094 49.4318C91.9646 49.3575 91.7663 49.3097 91.5878 49.3096C91.3408 49.3094 91.2443 49.3481 90.9798 49.5537L90.6653 49.7981H89.8331C89.3754 49.7981 88.9562 49.782 88.9016 49.7623C88.847 49.7425 88.7404 49.5516 88.6648 49.3379C88.4945 48.8567 88.3295 48.6544 87.9885 48.5086C87.6608 48.3686 87.4975 48.365 87.2156 48.4915C86.9408 48.6147 86.7906 48.85 86.6578 49.3652L86.5541 49.7676L85.937 49.7855C85.0937 49.81 85.0277 49.7898 85.0264 49.5067C85.0244 49.1231 84.8482 48.4667 84.6568 48.131C84.4432 47.7561 83.99 47.493 83.6827 47.5655C83.2281 47.6728 82.8836 48.3777 82.8836 49.2007C82.8836 49.7807 82.8478 49.8064 82.0706 49.7853L81.4219 49.7676L81.3794 48.9427C81.316 47.711 81.0682 47.0848 80.5663 46.8875C79.7682 46.5738 79.2414 47.6193 79.4207 49.1614C79.4656 49.547 79.4635 49.7196 79.4136 49.7514C79.3098 49.8174 77.7655 49.808 77.7216 49.7411C77.7009 49.7097 77.7357 49.5653 77.7989 49.4203C77.8919 49.2068 77.9131 48.9819 77.9102 48.24C77.907 47.42 77.89 47.2823 77.7478 46.9326C77.6279 46.6374 77.5269 46.499 77.3356 46.3674C77.0206 46.1507 76.9242 46.1498 76.6569 46.3611C76.1033 46.7989 76.0151 48.7593 76.5146 49.5196L76.6548 49.7329L76.5047 49.7682C76.4222 49.7876 74.5129 49.7897 72.2618 49.7726C70.0108 49.7556 68.0229 49.7454 67.8442 49.75C67.6656 49.7546 67.344 49.7604 67.1296 49.763L66.7398 49.7676L66.7231 38.0664C66.714 31.6308 66.7206 26.3303 66.7379 26.2875C66.7633 26.2247 69.2021 26.2138 79.3254 26.2308C91.6672 26.2516 91.8935 26.2541 92.5974 26.3775ZM48.9593 28.5455C48.9437 29.1763 48.9593 29.3696 49.031 29.4369C49.1829 29.5795 49.5996 29.8101 49.7838 29.8536C49.879 29.876 49.9706 29.9281 49.9874 29.9693C50.0129 30.0318 50.4907 30.2812 51.5557 30.7878C51.6532 30.8342 51.7914 30.918 51.8628 30.9739C51.9343 31.0299 52.0805 31.1156 52.1877 31.1645C52.2949 31.2132 52.626 31.3838 52.9236 31.5435C53.2213 31.7033 53.4877 31.834 53.5158 31.834C53.5439 31.834 53.6366 31.885 53.7218 31.9475C53.807 32.01 54.1545 32.1998 54.4939 32.3693C54.8334 32.5388 55.228 32.7433 55.3709 32.8237C55.5139 32.9041 55.7262 33.0236 55.8428 33.0893C55.9594 33.155 56.0471 33.25 56.0377 33.3004C56.0283 33.3508 55.7575 33.5178 55.4359 33.6714C55.1143 33.8249 54.5297 34.1113 54.1366 34.3075C53.7436 34.5038 53.3197 34.7154 53.1946 34.7776C53.0696 34.8399 52.9234 34.9137 52.8698 34.9416C52.7295 35.0146 52.5986 35.0783 51.3224 35.694C50.6906 35.9988 49.9786 36.3549 49.7402 36.4852C49.5017 36.6155 49.2648 36.7222 49.2137 36.7222C49.1626 36.7222 49.0434 36.7896 48.9489 36.872C48.7807 37.0186 48.777 37.0383 48.777 37.7849C48.777 38.2046 48.8031 38.5632 48.8349 38.5817C48.9104 38.6256 49.4508 38.4002 49.5559 38.281C49.6008 38.2302 49.6783 38.1886 49.7282 38.1886C49.7782 38.1886 49.9281 38.125 50.0614 38.0471C50.1946 37.9693 50.5522 37.7872 50.8559 37.6424C51.1596 37.4977 51.4542 37.3414 51.5107 37.2952C51.5671 37.2489 51.6413 37.211 51.6756 37.211C51.7405 37.211 52.2496 36.9696 53.1946 36.4906C54.0653 36.0494 54.4989 35.8332 54.8837 35.6488C55.0802 35.5546 55.3811 35.4001 55.5525 35.3055C55.7238 35.2109 55.8893 35.1335 55.9203 35.1335C55.9513 35.1335 56.1912 35.0169 56.4534 34.8744C57.1503 34.4956 57.3019 34.4164 57.4823 34.3367C57.994 34.1104 57.9668 34.1526 58.002 33.5337C58.0549 32.6064 58.0331 32.5402 57.5928 32.2913C57.3855 32.1742 57.2032 32.0784 57.1876 32.0784C57.172 32.0784 56.9177 31.9441 56.6224 31.7799C55.8267 31.3375 54.8503 30.8145 54.299 30.5353C54.031 30.3996 53.7342 30.2376 53.6394 30.1753C53.5445 30.1129 53.4422 30.0608 53.412 30.0593C53.3818 30.0578 53.1232 29.9211 52.8373 29.7555C52.5515 29.5899 52.2299 29.4125 52.1227 29.3611C52.0155 29.3099 51.8401 29.2136 51.7329 29.1472C51.6257 29.0808 51.4055 28.9596 51.2435 28.8778C51.0815 28.796 50.6193 28.5478 50.2166 28.3262C49.8137 28.1047 49.4602 27.9234 49.4309 27.9234C49.4016 27.9234 49.3412 27.8821 49.2967 27.8317C49.2522 27.7813 49.1626 27.7401 49.0975 27.7401C48.99 27.7401 48.9773 27.8139 48.9593 28.5455ZM80.1662 28.4996C79.8336 28.8389 79.7927 29.0004 80.0824 28.8303C80.1487 28.7913 80.2506 28.7767 80.3089 28.7978C80.4017 28.8313 80.4149 28.9769 80.4149 29.9608C80.4149 31.3412 80.3964 31.448 80.1484 31.4993C79.9645 31.5372 79.8511 31.6295 79.9147 31.6894C80.0626 31.8285 81.2796 31.9516 81.3561 31.8352C81.4248 31.7306 81.2608 31.5284 81.1072 31.5284C81.0259 31.5284 80.9073 31.4925 80.8435 31.4486C80.7379 31.3761 80.7266 31.2297 80.7174 29.8141C80.7075 28.2898 80.7046 28.2591 80.5722 28.2413C80.4808 28.229 80.3497 28.3124 80.1662 28.4996ZM83.6957 28.5697C83.2408 28.9467 83.2084 28.9814 83.2084 29.092C83.2084 29.2702 83.4074 29.3334 83.6113 29.2201C83.7091 29.1658 83.8116 29.1424 83.8391 29.1682C83.9038 29.2292 83.9478 31.099 83.8926 31.4456C83.8509 31.707 83.8457 31.7118 83.5986 31.7118C83.3998 31.7118 83.338 31.7388 83.3036 31.8408C83.2775 31.9181 83.2952 32.0025 83.3479 32.0515C83.4413 32.1383 84.7905 32.2933 84.8998 32.2298C84.9343 32.2097 84.9625 32.1272 84.9625 32.0464C84.9625 31.8825 84.7968 31.7729 84.5489 31.7729C84.4393 31.7729 84.372 31.7297 84.3418 31.6401C84.3171 31.5672 84.3182 30.8558 84.3441 30.0592C84.3944 28.5106 84.3713 28.3496 84.0994 28.3528C84.0203 28.3537 83.8386 28.4513 83.6957 28.5697ZM21.1692 28.7156C20.8725 28.9838 20.8436 29.0531 21.0498 29.0023C21.3404 28.9309 21.3618 29.0203 21.3618 30.3089C21.3618 30.9741 21.344 31.5621 21.3222 31.6155C21.3 31.67 21.1719 31.7291 21.0299 31.7504C20.7749 31.7888 20.7139 31.8511 20.8523 31.9316C20.9611 31.9948 22.0806 32.1442 22.1488 32.1046C22.1805 32.0862 22.2063 32.0207 22.2063 31.9591C22.2063 31.8428 22.0853 31.7729 21.8842 31.7729C21.6459 31.7729 21.6264 31.6484 21.6183 30.0781C21.6092 28.3408 21.6034 28.3232 21.1692 28.7156ZM87.4312 28.7493C87.0381 29.0408 86.9114 29.1916 86.9114 29.368C86.9114 29.5666 87.0705 29.6118 87.3417 29.4902C87.5168 29.4117 87.5721 29.4069 87.5971 29.4681C87.6146 29.5111 87.621 30.0816 87.6113 30.7359L87.5936 31.9256L87.3346 31.9455C87.1921 31.9563 87.0386 31.9941 86.9935 32.0293C86.886 32.1132 86.8884 32.3509 86.9975 32.4361C87.0948 32.5121 88.6196 32.6579 88.7655 32.6053C88.8195 32.5858 88.8604 32.4921 88.8604 32.388C88.8604 32.1983 88.7188 32.0792 88.4911 32.0774C88.1829 32.075 88.1802 32.0601 88.1963 30.4164C88.2126 28.7399 88.1858 28.5792 87.8844 28.5487C87.78 28.5381 87.6208 28.6086 87.4312 28.7493ZM24.5358 28.9534C24.3622 29.1167 24.2202 29.2825 24.2202 29.322C24.2202 29.4368 24.4109 29.4737 24.5757 29.3908C24.6593 29.3487 24.7596 29.333 24.7987 29.3557C24.8858 29.4063 24.897 31.7603 24.8107 31.8883C24.7793 31.9351 24.6411 31.9905 24.5038 32.0115C24.1946 32.0588 24.1271 32.2314 24.382 32.3225C24.4761 32.3562 24.843 32.4016 25.1971 32.4235C25.7804 32.4594 25.8453 32.4527 25.886 32.3529C25.9419 32.2158 25.703 32.0173 25.4821 32.0173C25.1957 32.0173 25.1717 31.8621 25.22 30.3244C25.2507 29.3499 25.2428 28.8634 25.195 28.7793C25.0818 28.5804 24.8741 28.6352 24.5358 28.9534ZM91.4572 28.9662C91.0068 29.2809 90.9393 29.3659 90.9393 29.6173C90.9393 29.8721 91.0863 29.9373 91.3452 29.7975C91.4493 29.7413 91.5614 29.6954 91.5942 29.6954C91.6286 29.6954 91.6539 30.2388 91.6539 30.9774V32.2594L91.4952 32.2968C91.4079 32.3174 91.3042 32.3156 91.2649 32.2927C91.2256 32.2699 91.119 32.297 91.0282 32.353C90.8946 32.4353 90.8711 32.4862 90.9057 32.618C90.9292 32.7077 90.9726 32.8043 91.0022 32.8328C91.0317 32.8613 91.4608 32.9244 91.9558 32.973C92.8537 33.0613 92.856 33.0612 92.9694 32.9298C93.1914 32.6726 93.043 32.4421 92.6215 32.3891L92.336 32.3533L92.3288 30.6284C92.3234 29.3382 92.3009 28.8801 92.2397 28.8106C92.0991 28.6513 91.8318 28.7045 91.4572 28.9662ZM28.2318 29.1033C27.8452 29.4391 27.7736 29.6143 27.9625 29.7617C28.0501 29.8301 28.0977 29.8264 28.2605 29.7384C28.3672 29.6808 28.4811 29.6492 28.5137 29.6682C28.5787 29.706 28.5969 31.9483 28.5335 32.1039C28.5073 32.1679 28.4129 32.2006 28.2541 32.2006C27.9813 32.2006 27.8583 32.2875 27.8583 32.4803C27.8583 32.6972 28.0002 32.7509 28.8084 32.8393C29.6658 32.9331 29.8072 32.9046 29.8072 32.6384C29.8072 32.4313 29.7007 32.3228 29.4976 32.3228C29.4131 32.3228 29.2859 32.2936 29.2151 32.2579C29.0911 32.1955 29.0866 32.1313 29.0968 30.5525C29.1027 29.6501 29.0877 28.882 29.0637 28.8454C29.0397 28.8088 28.9267 28.7788 28.8127 28.7788C28.6525 28.7789 28.5204 28.8527 28.2318 29.1033ZM32.3261 29.264C31.9112 29.5594 31.777 29.7605 31.8597 29.9631C31.9191 30.1087 32.1349 30.144 32.3093 30.0365C32.3956 29.9833 32.4965 29.9398 32.5335 29.9398C32.6064 29.9398 32.6322 32.2356 32.5613 32.4094C32.534 32.4763 32.4379 32.5061 32.2495 32.5061C32.0996 32.5061 31.942 32.5391 31.8991 32.5794C31.7878 32.6841 31.8028 32.9656 31.9247 33.0608C32.0362 33.1478 33.5944 33.3171 33.7864 33.2631C34.096 33.1759 34.049 32.7216 33.7236 32.6567C33.6241 32.6368 33.4769 32.6081 33.3965 32.5927L33.2504 32.5649V30.9202C33.2504 29.9995 33.2225 29.2066 33.187 29.1189C33.085 28.8666 32.8219 28.911 32.3261 29.264ZM95.7008 29.2968C95.1429 29.7045 95.0377 29.9624 95.3625 30.1259C95.4514 30.1707 95.5458 30.1547 95.7246 30.0645C95.8575 29.9975 95.9776 29.9532 95.9912 29.9661C96.0049 29.979 96.013 30.5753 96.0091 31.2913C96.0043 32.1865 95.9791 32.6064 95.9287 32.6358C95.8883 32.6593 95.7571 32.6635 95.6371 32.6452C95.2489 32.5859 95.0319 32.8995 95.2757 33.1675C95.3736 33.2752 95.5218 33.3031 96.3428 33.3688C97.3993 33.4534 97.5007 33.4313 97.5007 33.1171C97.5007 32.9077 97.4097 32.8346 97.0785 32.7785C96.6229 32.7014 96.642 32.7888 96.6665 30.8847C96.6906 29.0127 96.6819 28.9621 96.3345 28.9621C96.2205 28.9621 95.9976 29.0798 95.7008 29.2968ZM36.6605 29.5279C36.1583 29.8903 36.0463 30.098 36.2349 30.3171L36.3496 30.4503L36.6126 30.3214C36.7572 30.2505 36.8931 30.2089 36.9145 30.229C36.9662 30.2777 36.9647 32.7126 36.9129 32.8398C36.8805 32.9192 36.8167 32.9312 36.5938 32.8998C36.3406 32.864 36.3048 32.8756 36.1996 33.0264C36.0956 33.1757 36.0937 33.2084 36.18 33.3533C36.2683 33.5013 36.3279 33.52 36.9232 33.5849C38.1795 33.7218 38.3826 33.6895 38.3826 33.3528C38.3826 33.1468 38.1726 32.9949 37.8878 32.9949C37.76 32.9949 37.6669 32.9582 37.6425 32.8982C37.6208 32.8451 37.603 32.0212 37.603 31.0673C37.603 29.4152 37.597 29.33 37.4774 29.2698C37.2531 29.1569 37.1132 29.2012 36.6605 29.5279ZM53.9526 30.7138C53.9287 30.7361 53.8897 30.7361 53.8659 30.7138C53.8421 30.6913 53.8616 30.673 53.9092 30.673C53.9569 30.673 53.9763 30.6913 53.9526 30.7138ZM80.3525 34.5072C80.3539 34.5324 80.4478 34.608 80.5612 34.6752C80.8292 34.8339 80.9336 35.1854 80.779 35.4074C80.7217 35.4896 80.6738 35.5923 80.6726 35.6355C80.6714 35.6787 80.6139 35.824 80.5449 35.9584C80.3993 36.2419 80.3897 36.2945 80.4833 36.2945C80.5209 36.2945 80.5824 36.2114 80.62 36.1099C80.6846 35.9359 80.9073 35.7595 80.9782 35.8262C81.0659 35.9087 81.0749 36.4319 80.9979 36.9787C80.8933 37.7221 80.7877 37.8831 80.4048 37.8831C80.1092 37.8831 80.0873 37.999 80.3654 38.0915C80.6386 38.1823 80.9174 38.0343 81.0712 37.7169C81.2714 37.3034 81.3604 36.4652 81.2724 35.8209C81.162 35.012 81.0958 34.85 80.7913 34.6425C80.5361 34.4687 80.3472 34.4104 80.3525 34.5072ZM21.1669 34.6282C20.6855 34.7863 20.4364 35.6418 20.5187 36.8548C20.555 37.3891 20.5939 37.5527 20.7648 37.8894C21.1419 38.6325 21.701 38.63 22.1152 37.8831C22.2161 37.7012 22.2342 37.5144 22.2363 36.6305C22.2385 35.6912 22.2248 35.5592 22.0925 35.2519C21.9003 34.8053 21.4834 34.5244 21.1669 34.6282ZM83.6465 35.1074C83.3244 35.3434 83.2314 35.4851 83.3349 35.5824C83.3793 35.6242 83.4525 35.6182 83.56 35.5641C83.9062 35.3898 83.9231 35.4464 83.9231 36.7854C83.9231 38.1498 83.8929 38.2838 83.5979 38.2283C83.4041 38.1918 83.1993 38.333 83.3119 38.4256C83.3444 38.4523 83.6877 38.535 84.0749 38.6094C84.6196 38.7141 84.7997 38.7285 84.8707 38.6731C84.9212 38.6336 84.9625 38.5792 84.9625 38.5521C84.9625 38.4458 84.7493 38.3108 84.5811 38.3108C84.2545 38.3108 84.2479 38.2771 84.2479 36.6233C84.2479 35.7758 84.2301 35.0389 84.2084 34.9858C84.1461 34.8331 83.9683 34.8716 83.6465 35.1074ZM21.5265 35.0489C21.7707 35.1994 21.7332 35.4577 21.36 36.1945C21.1804 36.5491 21.0083 36.8539 20.9776 36.8717C20.6511 37.0615 20.7705 35.4174 21.1113 35.0313C21.2062 34.9237 21.332 34.929 21.5265 35.0489ZM24.5186 35.3507C24.1524 35.6312 24.0566 35.835 24.2569 35.9072C24.3127 35.9274 24.4304 35.9131 24.5184 35.8754C24.792 35.7581 24.826 35.9453 24.763 37.218L24.7075 38.3397L24.4631 38.3768C24.1613 38.4228 24.1297 38.4512 24.1783 38.6332C24.2132 38.7642 24.2885 38.7909 24.9706 38.9147C25.8004 39.0652 25.933 39.0407 25.8964 38.7438C25.8802 38.6125 25.8283 38.5748 25.5896 38.5207C25.4064 38.4791 25.2855 38.4127 25.256 38.3374C25.2306 38.2724 25.2054 37.5328 25.1999 36.6939C25.1881 34.8557 25.1815 34.8428 24.5186 35.3507ZM87.4325 35.1406C86.9266 35.3304 86.6521 36.0179 86.6546 37.0888C86.6578 38.4292 87.0589 39.2449 87.758 39.3332C88.5022 39.427 88.9251 38.6894 88.9221 37.3026C88.9198 36.2183 88.6796 35.5327 88.1995 35.2399C87.9133 35.0653 87.7049 35.0384 87.4325 35.1406ZM28.3873 35.3353C28.1 35.4196 27.7643 35.9002 27.6642 36.3706C27.5605 36.857 27.5707 37.9618 27.6828 38.4025C27.8605 39.1008 28.1458 39.4659 28.6152 39.5961C29.4337 39.823 29.9401 38.859 29.852 37.2415C29.8318 36.8719 29.7717 36.4362 29.7183 36.2733C29.4774 35.538 28.9537 35.169 28.3873 35.3353ZM91.3224 35.64C90.3781 36.2382 90.3838 38.9893 91.3309 39.7388C91.9079 40.1955 92.5978 39.9314 92.8919 39.1413C93.067 38.671 93.1393 37.4511 93.0212 36.9591C92.8665 36.314 92.7558 36.0726 92.5134 35.8511C92.0999 35.4732 91.6981 35.4019 91.3224 35.64ZM87.9509 35.7445C88.0223 35.8117 88.0808 35.9156 88.0808 35.9753C88.0808 36.1246 87.3786 37.4554 87.2998 37.4554C87.1987 37.4554 87.2257 36.5334 87.3373 36.1799C87.4349 35.8709 87.6216 35.6223 87.756 35.6223C87.7917 35.6223 87.8794 35.6773 87.9509 35.7445ZM32.3026 35.8601C31.8357 36.1279 31.6372 36.5932 31.5802 37.5535C31.5017 38.8767 31.8185 39.8049 32.4513 40.1061C33.0258 40.3795 33.5586 40.0972 33.8366 39.3719C33.9802 38.9973 33.9973 38.8577 33.9958 38.0664C33.9945 37.3114 33.9724 37.1185 33.8466 36.7616C33.6624 36.2388 33.4944 36.0222 33.1525 35.8666C32.8175 35.714 32.5607 35.7121 32.3026 35.8601ZM28.7968 35.9656C29.0543 36.0585 29.0357 36.2019 28.6718 36.9303C28.4772 37.3199 28.2836 37.6387 28.2416 37.6387C28.1276 37.6387 28.2037 36.5676 28.3391 36.266C28.4801 35.9523 28.5794 35.8871 28.7968 35.9656ZM95.5185 36.1811C95.0989 36.5276 94.9026 37.1421 94.9063 38.097C94.911 39.2797 95.1461 40.0476 95.6042 40.3762C95.8018 40.518 95.8959 40.5411 96.2765 40.5411C96.6958 40.5411 96.731 40.5298 96.9468 40.3268C97.3056 39.9893 97.4515 39.5221 97.4866 38.5979C97.5332 37.3712 97.3194 36.6463 96.7838 36.2151C96.53 36.0108 96.4666 35.9889 96.1271 35.9889C95.7982 35.9889 95.7221 36.013 95.5185 36.1811ZM21.907 36.2078C21.9839 36.3963 21.945 37.2276 21.8439 37.5547C21.6836 38.0732 21.3512 38.21 21.0806 37.8687L20.948 37.7016L21.0833 37.441C21.1577 37.2977 21.341 36.9399 21.4906 36.6458C21.7655 36.1056 21.8354 36.0321 21.907 36.2078ZM92.0412 36.2449C92.114 36.3184 92.1736 36.4142 92.1736 36.4577C92.1736 36.6019 91.385 38.0073 91.324 37.9718C91.2413 37.9238 91.2488 37.2247 91.3362 36.8321C91.4256 36.43 91.6248 36.1111 91.7866 36.1111C91.8537 36.1111 91.9683 36.1713 92.0412 36.2449ZM32.9367 36.4567C33.002 36.5123 33.0555 36.6219 33.0555 36.7003C33.0555 36.8776 32.3557 38.1886 32.261 38.1886C32.1672 38.1886 32.2432 37.1316 32.3585 36.8317C32.4521 36.5885 32.6445 36.3556 32.7518 36.3556C32.7881 36.3556 32.8713 36.4011 32.9367 36.4567ZM96.3963 36.7833C96.4678 36.8505 96.5263 36.9366 96.5263 36.9747C96.5263 37.0463 96.2344 37.6025 95.8901 38.1869C95.5851 38.7047 95.5317 38.6689 95.5629 37.9671C95.5847 37.4783 95.6225 37.297 95.7621 37.0124C95.9062 36.7186 95.9616 36.6611 96.1004 36.6611C96.1917 36.6611 96.3249 36.7161 96.3963 36.7833ZM37.3406 37.0392C37.4135 37.1127 37.4728 37.2021 37.4724 37.2378C37.472 37.2734 37.3087 37.5776 37.1094 37.9137C36.9102 38.2497 36.7212 38.5866 36.6894 38.6622C36.5716 38.9431 36.4986 38.798 36.4986 38.2824C36.4986 37.7702 36.6056 37.3279 36.7984 37.043C36.9176 36.8667 37.168 36.865 37.3406 37.0392ZM88.3407 37.3913C88.3407 38.2333 88.112 38.7647 87.7659 38.7266C87.6475 38.7137 87.5768 38.6563 87.5325 38.5373C87.4775 38.3894 87.5184 38.2734 87.8395 37.6666C88.0433 37.2816 88.2394 36.9666 88.2754 36.9666C88.3129 36.9666 88.3407 37.1473 88.3407 37.3913ZM18.6332 37.1499C18.6332 37.1947 18.6527 37.213 18.6766 37.1906C18.7004 37.1682 18.7004 37.1316 18.6766 37.1091C18.6527 37.0868 18.6332 37.1051 18.6332 37.1499ZM79.9602 37.1499C79.9602 37.1947 79.9797 37.213 80.0035 37.1906C80.0273 37.1682 80.0273 37.1316 80.0035 37.1091C79.9797 37.0868 79.9602 37.1051 79.9602 37.1499ZM100.951 37.2147C101.233 37.3564 101.219 37.5327 100.883 38.1085C100.301 39.1048 100.262 39.1652 100.205 39.1658C100.173 39.166 100.162 38.8707 100.179 38.5094C100.213 37.7997 100.34 37.3958 100.576 37.2399C100.739 37.1327 100.782 37.1297 100.951 37.2147ZM29.2353 37.9785C29.1493 38.6193 29.0356 38.8919 28.8288 38.9536C28.6816 38.9975 28.443 38.8405 28.443 38.6996C28.443 38.6057 28.9211 37.6161 29.0694 37.403C29.1428 37.2976 29.189 37.2772 29.2417 37.3268C29.2945 37.3764 29.2928 37.551 29.2353 37.9785ZM92.4128 38.1547C92.3629 38.8697 92.2595 39.1711 92.0287 39.2752C91.6994 39.4236 91.3898 39.0768 91.5869 38.7801C91.6319 38.7123 91.7789 38.4599 91.9137 38.2192C92.4048 37.3423 92.4701 37.3339 92.4128 38.1547ZM18.081 37.7609C18.059 37.7945 18.0865 37.822 18.1422 37.822C18.1979 37.822 18.2435 37.7945 18.2435 37.7609C18.2435 37.7273 18.216 37.6998 18.1823 37.6998C18.1487 37.6998 18.1031 37.7273 18.081 37.7609ZM33.3418 38.2986C33.2769 39.1381 33.2001 39.4004 32.9889 39.5031C32.8862 39.5531 32.7872 39.594 32.7689 39.594C32.6987 39.594 32.4708 39.3223 32.4708 39.2387C32.4708 39.0933 33.2554 37.7566 33.319 37.7936C33.3515 37.8125 33.3618 38.0397 33.3418 38.2986ZM96.7691 38.6791C96.7138 39.6227 96.4325 40.0528 96.0099 39.8401C95.8473 39.7582 95.8331 39.4963 95.9806 39.2982C96.0379 39.2213 96.2127 38.9128 96.3693 38.6124C96.5259 38.3121 96.688 38.0664 96.7295 38.0664C96.7842 38.0664 96.7952 38.235 96.7691 38.6791ZM37.7146 38.876C37.6788 39.4166 37.5537 39.8873 37.3993 40.0623C37.2916 40.1843 36.9898 40.1608 36.854 40.0198C36.7378 39.899 36.7385 39.8878 36.8811 39.6073C37.138 39.1015 37.6335 38.3113 37.6938 38.311C37.7267 38.3109 37.7357 38.5571 37.7146 38.876ZM101.398 39.6403C101.273 40.4521 100.918 40.7835 100.56 40.4246L100.407 40.2721L100.534 40.04C100.799 39.5525 101.162 38.9451 101.294 38.7691L101.431 38.5858L101.454 38.8608C101.466 39.012 101.441 39.3628 101.398 39.6403ZM50.0113 40.0453C49.5626 40.2296 49.092 40.6526 48.9063 41.0387C48.7763 41.3087 48.7585 41.481 48.709 42.9546C48.679 43.8452 48.6528 45.4701 48.6508 46.5655L48.6471 48.5571L50.3849 48.5966C51.3406 48.6183 53.387 48.6544 54.9324 48.6768L57.7422 48.7174V47.9577V47.1979L56.9139 47.1996C55.6297 47.2022 50.9783 47.1073 50.7443 47.0737C50.3215 47.0131 50.3362 47.11 50.3362 44.3842C50.3362 41.6632 50.3524 41.5327 50.7009 41.4504C50.799 41.4273 52.2407 41.4308 53.9048 41.4584C55.5687 41.4859 57.1347 41.5108 57.3849 41.5136L57.8396 41.5187V40.7567V39.9947L57.4498 39.9863C57.2354 39.9817 55.5545 39.96 53.7143 39.9382L50.3686 39.8985L50.0113 40.0453ZM17.8635 40.6522C17.8108 40.7119 17.8213 40.7711 17.9042 40.8813C18.0365 41.057 18.0414 41.1606 17.978 42.4229C17.9479 43.0221 17.8998 43.4217 17.8511 43.4769C17.8081 43.5257 17.6865 43.5657 17.5811 43.5657C17.434 43.5657 17.3944 43.5904 17.4111 43.6719C17.4365 43.7958 18.1254 44.0076 18.5358 44.0176C18.753 44.0229 18.7957 44.0043 18.7957 43.904C18.7957 43.8205 18.7298 43.7663 18.5788 43.7256C18.4595 43.6934 18.3234 43.6099 18.2763 43.54C18.2033 43.4314 18.1367 42.2594 18.1154 40.7091C18.1133 40.5576 17.9746 40.5262 17.8635 40.6522ZM80.031 41.0008C79.6724 41.2674 79.6489 41.3109 79.8005 41.4292C79.8765 41.4885 79.919 41.4903 79.9759 41.4367C80.0836 41.3354 80.2644 41.3495 80.3105 41.4626C80.3322 41.5158 80.35 42.0497 80.35 42.6491C80.35 43.2486 80.3322 43.7825 80.3105 43.8356C80.2839 43.9009 80.1889 43.9323 80.0182 43.9323C79.8112 43.9323 79.7653 43.9538 79.7653 44.0509C79.7653 44.1161 79.7921 44.1851 79.8247 44.2041C79.9557 44.2801 81.091 44.5299 81.1724 44.5006C81.3694 44.4295 81.218 44.1156 80.9866 44.1156C80.9223 44.1156 80.8089 44.0584 80.7345 43.9884C80.6038 43.8655 80.6001 43.8127 80.6206 42.3845C80.6322 41.5723 80.6182 40.8734 80.5895 40.8313C80.5029 40.7048 80.378 40.7427 80.031 41.0008ZM21.0269 41.158C20.7058 41.4079 20.5923 41.5833 20.6914 41.6764C20.736 41.7184 20.8136 41.7143 20.9314 41.6639C21.2391 41.532 21.2551 41.6081 21.1919 42.9048L21.1344 44.085L20.8745 44.1156C20.6498 44.1421 20.6147 44.1667 20.6147 44.2981C20.6147 44.4903 20.7712 44.5629 21.511 44.7138C22.167 44.8476 22.323 44.8065 22.2467 44.5204C22.2148 44.4009 22.1497 44.3463 22.0073 44.3195C21.6389 44.2502 21.6216 44.1722 21.6216 42.5788C21.6216 41.3434 21.6066 41.1162 21.5196 41.0342C21.378 40.9012 21.3466 40.909 21.0269 41.158ZM83.5487 41.5493C83.3692 41.6837 83.2089 41.828 83.1925 41.8701C83.1104 42.0802 83.3382 42.169 83.6095 42.0324C83.689 41.9924 83.7658 41.9879 83.8011 42.0212C83.8359 42.0539 83.8397 42.577 83.8104 43.2947L83.7606 44.5128L83.5333 44.5202C83.1799 44.5318 83.1598 44.5374 83.1198 44.6355C83.0409 44.8288 83.1912 45.0238 83.4491 45.0631C83.5847 45.0837 83.9218 45.1551 84.1981 45.2218C84.7621 45.358 84.9625 45.3177 84.9625 45.068C84.9625 44.9009 84.8678 44.8137 84.6237 44.7561C84.5272 44.7333 84.4211 44.6829 84.388 44.6443C84.3549 44.6055 84.3148 43.8634 84.2987 42.9951C84.2682 41.3446 84.2614 41.3083 83.9803 41.3058C83.9224 41.3053 83.7282 41.4149 83.5487 41.5493ZM24.5985 41.6276C24.5028 41.7022 24.3477 41.8137 24.2538 41.8755C24.0272 42.0247 24.0394 42.3631 24.2725 42.3942C24.3549 42.4051 24.4657 42.3802 24.5189 42.3387C24.722 42.1802 24.7473 42.3584 24.6943 43.5716L24.6425 44.7572L24.4545 44.7445C24.3511 44.7375 24.2122 44.7591 24.1459 44.7924C24.0079 44.8619 23.9853 45.1081 24.1082 45.204C24.1537 45.2396 24.5217 45.3389 24.9258 45.4247C25.7288 45.5952 25.9093 45.574 25.9093 45.3093C25.9093 45.1258 25.7496 44.971 25.5604 44.971C25.2705 44.971 25.2597 44.9102 25.2597 43.2745C25.2597 42.3229 25.2337 41.6789 25.1924 41.6064C25.1017 41.4469 24.8173 41.4571 24.5985 41.6276ZM87.2688 42.1192C86.9209 42.3514 86.879 42.4021 86.879 42.5907C86.879 42.7921 86.8895 42.8017 87.1063 42.7979C87.2314 42.7957 87.3776 42.7819 87.4312 42.7673C87.515 42.7445 87.5311 42.9064 87.5463 43.9244C87.5657 45.227 87.5454 45.3098 87.2233 45.2433C86.8877 45.174 86.7043 45.5057 86.9602 45.7191C87.0956 45.832 88.5321 46.1086 88.689 46.052C88.9691 45.9509 88.813 45.5456 88.4691 45.4809C88.3643 45.4613 88.2459 45.408 88.2059 45.3627C88.1562 45.3064 88.1344 44.7825 88.1369 43.706C88.141 42.0081 88.1129 41.8524 87.8032 41.8569C87.7236 41.858 87.4831 41.9761 87.2688 42.1192ZM28.1831 42.3521C27.8034 42.6097 27.7339 42.7097 27.7793 42.9332C27.8133 43.1004 27.9994 43.1693 28.1763 43.0802C28.4932 42.9208 28.5079 42.9556 28.5079 43.8622C28.5079 44.3278 28.4891 44.8777 28.4662 45.0843L28.4244 45.4599H28.1437C27.7949 45.4599 27.6731 45.6096 27.8072 45.8735C27.8756 46.0081 27.9609 46.0538 28.2487 46.1099C28.4448 46.1482 28.81 46.2208 29.0601 46.2712C29.5479 46.3697 29.7034 46.3393 29.7603 46.1347C29.8021 45.9845 29.5839 45.7043 29.4252 45.7043C29.3631 45.7043 29.26 45.6683 29.196 45.6243C29.0893 45.5509 29.0799 45.4134 29.0821 43.9592C29.084 42.6701 29.0668 42.3485 28.9896 42.2367C28.8503 42.0349 28.5974 42.071 28.1831 42.3521ZM91.2863 42.7963C90.832 43.1072 90.7656 43.2189 90.9111 43.4276C91.0164 43.5789 91.0625 43.5827 91.4428 43.4718L91.5889 43.4292L91.588 44.6125C91.5876 45.2634 91.571 45.8525 91.5512 45.9217C91.5214 46.0261 91.4649 46.0469 91.2194 46.0439C91.0052 46.0413 90.9033 46.07 90.8502 46.1478C90.735 46.3165 90.922 46.5747 91.2001 46.631C91.3247 46.6562 91.6935 46.7312 92.0199 46.7977C92.684 46.933 92.8725 46.915 92.9269 46.7109C92.9817 46.5058 92.8535 46.3311 92.6126 46.2827C92.2275 46.2052 92.2386 46.2601 92.2386 44.4231C92.2386 42.8596 92.2294 42.7214 92.1198 42.6281C91.9278 42.4647 91.7053 42.5096 91.2863 42.7963ZM74.2315 46.1864C74.2461 46.3309 74.2168 46.4807 74.1566 46.5683C74.1022 46.6476 73.9551 46.8912 73.8297 47.1096C73.6783 47.3735 73.5622 47.5068 73.484 47.5068C73.379 47.5068 73.3652 47.442 73.3567 46.9071C73.3514 46.5773 73.3335 46.2947 73.3169 46.2791C73.2357 46.2027 73.1071 46.9004 73.1076 47.4151C73.1082 48.1327 73.2376 48.5686 73.5359 48.8581C73.7231 49.0398 73.7916 49.0679 74.0088 49.0525C74.3353 49.0292 74.4866 48.844 74.6032 48.3245C74.752 47.6616 74.665 46.7712 74.3934 46.1778C74.2587 45.8835 74.201 45.8866 74.2315 46.1864ZM15.1573 46.3C15.1854 46.4904 15.1333 46.6371 14.8495 47.1681C14.6617 47.5195 14.4741 47.8166 14.4327 47.8282C14.3535 47.8504 14.3152 47.7183 14.2446 47.1803C14.1702 46.6129 14.0693 46.9179 14.0726 47.7007C14.0748 48.2299 14.1042 48.4869 14.1826 48.6607C14.3459 49.0228 14.5415 49.2391 14.7697 49.3099C15.0793 49.406 15.2785 49.3065 15.4522 48.9688C15.7504 48.3895 15.686 46.8044 15.3437 46.3C15.2582 46.174 15.1737 46.0709 15.1559 46.0709C15.1381 46.0709 15.1388 46.174 15.1573 46.3ZM77.2269 46.5985C77.4116 46.8192 77.3969 46.9672 77.1457 47.4217C77.027 47.6366 76.897 47.9016 76.8568 48.0109C76.8063 48.1481 76.7425 48.2095 76.6504 48.2095C76.5263 48.2095 76.5171 48.1732 76.5171 47.6866C76.5171 47.1653 76.6087 46.6588 76.7293 46.5139C76.8362 46.3854 77.084 46.4275 77.2269 46.5985ZM18.1246 46.9052C18.2975 47.0524 18.2764 47.1569 17.9423 47.8069C17.5175 48.6333 17.3958 48.5851 17.5242 47.6414C17.6295 46.8674 17.8142 46.641 18.1246 46.9052ZM74.4107 47.0826C74.4648 47.354 74.3549 48.1941 74.2353 48.4237C74.0994 48.6843 73.9631 48.7399 73.7626 48.6163C73.5386 48.4783 73.5424 48.2521 73.7769 47.7651C73.8777 47.5559 74.0149 47.2677 74.0817 47.1249C74.23 46.8082 74.3528 46.7924 74.4107 47.0826ZM15.272 47.727C15.255 48.2915 15.157 48.7196 15.0204 48.8262C14.8728 48.9414 14.6206 48.8413 14.5759 48.6498C14.5386 48.4902 14.5927 48.3126 14.8307 47.8123C14.8786 47.7115 14.9641 47.5235 15.0205 47.3945C15.1906 47.0064 15.2898 47.1376 15.272 47.727ZM80.5401 47.4539C80.6142 47.5425 80.6748 47.6521 80.6748 47.6976C80.6748 47.8482 80.0623 48.9427 79.978 48.9427C79.9188 48.9427 79.896 48.8251 79.8981 48.5303C79.9016 48.0151 79.9749 47.6491 80.1149 47.4482C80.2529 47.2502 80.3711 47.2518 80.5401 47.4539ZM21.5202 47.7994C21.5744 47.9453 21.5396 48.0528 21.2782 48.5479C21.1102 48.8658 20.9398 49.126 20.8995 49.126C20.7896 49.126 20.8621 48.1082 20.9923 47.8234C21.0837 47.6236 21.1247 47.5929 21.2779 47.6095C21.4058 47.6234 21.4749 47.6776 21.5202 47.7994ZM70.8326 47.7207C70.768 47.7879 70.6482 47.8429 70.5665 47.8429C70.3546 47.8429 70.316 47.9449 70.4895 48.0468C70.7 48.1705 71.3457 48.3478 71.4904 48.3215C71.6905 48.2852 71.6288 48.1255 71.3684 48.0058C71.2193 47.9373 71.1094 47.8365 71.0853 47.7461C71.0374 47.5666 70.9859 47.5614 70.8326 47.7207ZM77.522 47.8954C77.5784 48.1371 77.452 49.0248 77.3293 49.2479C77.2162 49.4536 77.0726 49.4809 76.8957 49.3304C76.7357 49.1941 76.7449 49.0934 76.9639 48.5941C77.3675 47.6736 77.447 47.5741 77.522 47.8954ZM18.3892 48.742C18.2954 49.454 18.2267 49.6148 18.0163 49.6148C17.9058 49.6148 17.8278 49.5672 17.7814 49.4714C17.7245 49.3538 17.7468 49.2576 17.9057 48.9368C18.0123 48.7216 18.1472 48.4376 18.2055 48.3056C18.2849 48.1257 18.33 48.0831 18.3856 48.1354C18.4408 48.1873 18.4417 48.343 18.3892 48.742ZM84.1345 48.3396L84.2616 48.5003L83.9224 49.1214C83.7358 49.463 83.55 49.7316 83.5095 49.7183C83.3893 49.6789 83.4572 48.7148 83.6021 48.4036C83.7 48.1934 83.7538 48.1435 83.8663 48.1592C83.9439 48.1701 84.0647 48.2512 84.1345 48.3396ZM24.9973 48.5265C25.2234 48.7548 25.1741 48.8431 24.7408 48.9858C24.451 49.0813 24.4043 49.0298 24.5133 48.735C24.6463 48.3752 24.7873 48.3145 24.9973 48.5265ZM80.8602 49.1588C80.8435 49.5382 80.8107 49.6962 80.7398 49.7383C80.6122 49.8142 80.3034 49.8145 80.2536 49.7388C80.2025 49.6609 80.7226 48.6372 80.8132 48.6372C80.8593 48.6372 80.8752 48.8144 80.8602 49.1588ZM21.8165 49.1749C21.8165 49.4279 21.7259 49.5537 21.5437 49.5537C21.3936 49.5537 21.3964 49.4826 21.558 49.1847C21.7234 48.8798 21.8165 48.8763 21.8165 49.1749ZM87.8859 49.126C88.1708 49.394 87.9365 49.7969 87.4961 49.7964C87.2663 49.7961 87.2309 49.7122 87.33 49.4026C87.4628 48.9875 87.6432 48.8977 87.8859 49.126ZM84.4428 49.6148C84.4428 49.6827 84.3994 49.737 84.3453 49.737C84.2279 49.737 84.2197 49.6657 84.3258 49.566C84.4307 49.4673 84.4428 49.4724 84.4428 49.6148ZM91.9462 49.61C91.8748 49.6367 91.7011 49.6784 91.5603 49.7028C91.3318 49.7422 91.3135 49.7366 91.3897 49.6503C91.4461 49.5864 91.5767 49.555 91.7755 49.5576C91.9927 49.5604 92.0401 49.5749 91.9462 49.61ZM45.619 50.3591C45.5512 50.4622 45.5145 51.6477 45.5764 51.7339C45.658 51.8475 47.0819 51.8608 47.1574 51.7487C47.1895 51.7009 47.2163 51.37 47.2169 51.0134L47.2178 50.3651L46.8768 50.3266C46.3161 50.2632 45.671 50.2799 45.619 50.3591ZM48.6099 50.4292C48.592 50.4729 48.5858 50.8094 48.596 51.1769L48.6146 51.8451L50.661 51.885C51.7865 51.907 53.8119 51.941 55.1618 51.9606L57.6161 51.9961L57.6792 51.8402C57.7551 51.6524 57.7617 50.6548 57.6877 50.5452C57.6182 50.4422 56.8269 50.4179 52.2989 50.3802C49.3343 50.3555 48.6362 50.3648 48.6099 50.4292Z" fill="white"/>
</svg>
