<svg width="135" height="54" viewBox="0 0 135 54" fill="none" xmlns="http://www.w3.org/2000/svg">
<path fill-rule="evenodd" clip-rule="evenodd" d="M7.39001 0.368366C4.34085 1.1827 2.14784 2.9766 0.831342 5.73384L0 7.47468V26.7957C0 40.5545 0.0811488 46.366 0.281912 46.9822C1.29863 50.1007 3.30055 52.1073 6.82445 53.5404C7.9655 54.0044 46.9902 53.9027 48.3563 53.4321C51.5452 52.3336 53.868 49.9131 54.7614 46.7571C55.2502 45.0305 55.2229 9.23272 54.7316 7.3906C53.763 3.75992 51.4253 1.49379 47.3813 0.264909C46.0238 -0.147708 8.96335 -0.0515191 7.39001 0.368366ZM103.483 0.278962C100.36 1.11994 99.1863 1.60912 97.7211 2.68052C94.5203 5.02078 92.7874 9.00788 93.5883 12.1891C93.9275 13.5358 95.0321 15.3381 95.8088 15.8116C96.4831 16.2227 96.4074 16.4466 95.4644 16.8314C94.4104 17.2612 92.3137 18.805 91.5109 19.742C89.8276 21.7064 89.0675 24.2514 89.5705 26.2375C90.2234 28.8142 91.6605 30.5255 94.1774 31.7229C96.7506 32.9469 97.3859 33.0613 101.622 33.0622C105.822 33.063 107.126 32.8139 110.122 31.4389C111.91 30.6183 113.992 28.5639 114.922 26.7029C115.659 25.2283 115.737 24.8637 115.737 22.8917C115.737 21.4215 115.619 20.5137 115.376 20.1054C114.55 18.7219 114.08 18.1831 113.15 17.5534C112.611 17.1885 112.169 16.8127 112.169 16.7185C112.169 16.6242 112.692 16.2848 113.332 15.964C114.909 15.1731 117.04 13.0754 117.683 11.6806C118.489 9.93487 118.463 6.789 117.631 5.20928C116.589 3.23149 114.646 1.64111 112.293 0.840828C109.986 0.0558147 105.399 -0.236869 103.483 0.278962ZM65.1953 0.661777C65.0876 0.856577 64.6327 2.61801 64.2565 4.2961C64.1297 4.86233 63.916 5.78932 63.7818 6.35555C63.6478 6.92178 63.3542 8.25751 63.1294 9.32358C62.098 14.2163 61.8168 15.5291 61.5724 16.5922C61.2419 18.0285 60.2743 22.5053 60.0534 23.6186C59.8695 24.5461 59.5184 26.1367 59.0369 28.222C58.9139 28.7551 58.7074 29.7652 58.5778 30.4666C58.4485 31.1683 58.2671 31.8619 58.1746 32.008C57.8296 32.553 58.7962 32.6971 62.8167 32.7007C67.327 32.7046 67.3422 32.7 67.5809 31.2507C67.6578 30.7842 67.8286 29.912 67.9608 29.3123C68.0929 28.7127 68.3271 27.6224 68.4817 26.8895C68.6361 26.1565 68.8696 25.0662 69.0009 24.4666C69.1319 23.8669 69.3093 22.9675 69.395 22.4677C69.5101 21.7963 69.6717 21.5591 70.0144 21.5591C70.2692 21.5591 70.4779 21.6706 70.4779 21.8065C70.4779 21.9427 70.7427 22.4607 71.0661 22.9574C71.3897 23.4543 72.7853 25.7282 74.1679 28.0103C75.5501 30.2926 76.8356 32.2847 77.0239 32.4376C77.485 32.8112 86.6516 32.7003 86.7814 32.3196C86.8308 32.1745 85.5488 30.1029 83.9328 27.7162C80.8109 23.1057 79.5415 21.0925 79.6919 20.9895C79.7426 20.9549 80.3982 20.7828 81.1489 20.6074C86.533 19.3495 89.8447 15.2948 89.8308 9.978C89.8239 7.27721 88.465 4.6559 86.1149 2.81087C85.1282 2.03628 82.8885 1.1512 81.0471 0.808119C79.1383 0.452683 65.3812 0.325724 65.1953 0.661777ZM108.221 8.14799C109.534 9.4297 109.057 11.5497 107.229 12.5523C105.991 13.2322 104.769 13.223 103.706 12.5257C102.955 12.0328 102.855 11.8368 102.789 10.7305C102.723 9.63468 102.805 9.38827 103.483 8.63403C104.345 7.67529 104.817 7.51829 106.544 7.61448C107.327 7.65809 107.91 7.84344 108.221 8.14799ZM79.6681 9.08129C80.5516 9.85128 80.8742 10.811 80.5511 11.7089C80.1443 12.8401 79.9686 13.0391 78.9085 13.567C78.0896 13.975 77.4451 14.0482 74.6744 14.0482H71.4061L71.5535 13.0185C71.7669 11.5299 72.1379 9.9121 72.4483 9.11763L72.7181 8.42711L75.9149 8.51191C78.6869 8.58533 79.1859 8.66116 79.6681 9.08129ZM37.8447 27.0106V37.1867L27.5623 37.25C19.501 37.2996 17.2371 37.2473 17.0812 37.0077C16.7375 36.479 16.8276 17.3411 17.1755 17.0014C17.4031 16.7793 19.946 16.7233 27.6604 16.7713L37.8447 16.8345V27.0106ZM105.45 20.3014C105.782 20.5408 106.21 21.1671 106.402 21.6931C106.709 22.5322 106.704 22.7589 106.361 23.5435C106.146 24.0353 105.56 24.7438 105.058 25.1179C104.265 25.7078 103.922 25.798 102.466 25.7984C100.947 25.7992 100.715 25.7316 100.026 25.0876C99.3712 24.4753 99.2647 24.2032 99.2647 23.1401C99.2647 22.145 99.3975 21.7505 99.9472 21.1145C101.209 19.6543 103.988 19.2436 105.45 20.3014ZM64.5221 34.2584C61.6938 34.8755 59.9541 36.1817 58.8473 38.5193C57.1067 42.1958 58.5592 47.0803 61.8868 48.7414C64.1014 49.847 66.5203 50.1889 68.2696 49.644C70.6263 48.9098 72.6791 47.4132 72.3784 46.6483C72.2962 46.4392 71.9557 46.1468 71.6215 45.998C71.0911 45.762 70.8936 45.8267 70.063 46.5075C68.1792 48.0516 65.9336 48.3576 63.6671 47.379C61.2215 46.3229 59.7147 43.366 60.3264 40.8227C60.9721 38.1375 62.3757 36.7004 64.9266 36.1129C66.764 35.6899 68.8426 36.2825 70.3712 37.666L71.0358 38.2671L71.7495 37.7711C72.1421 37.4981 72.4632 37.1891 72.4632 37.0845C72.4632 36.7169 71.3058 35.6802 70.2149 35.0703C69.2265 34.5179 68.68 34.3677 66.5074 34.0513C66.1661 34.0014 65.2728 34.0946 64.5221 34.2584ZM133.263 41.6644V49.4131L133.869 49.5616C134.203 49.6432 134.594 49.6389 134.738 49.5519C134.913 49.446 135 46.83 135 41.6547V33.9158H134.131H133.263V41.6644ZM103.533 34.6911C103.369 34.8511 103.235 35.2654 103.235 35.6118C103.235 36.7942 104.491 37.2599 105.306 36.3801C106.127 35.4951 105.668 34.4004 104.476 34.4004C104.121 34.4004 103.697 34.5312 103.533 34.6911ZM110.307 36.157C110.247 36.3237 110.166 37.0595 110.128 37.7924L110.06 39.125L108.943 39.2462C107.95 39.354 107.818 39.44 107.749 40.0251C107.668 40.7081 107.87 40.8239 109.439 40.9955L110.06 41.0633L110.184 44.4677C110.282 47.1716 110.398 48.0061 110.747 48.5246C111.257 49.2834 112.638 49.9127 113.75 49.8938C114.718 49.8773 116.686 49.157 116.817 48.7712C116.975 48.3082 115.895 47.3834 115.569 47.702C115.419 47.8486 114.777 47.9685 114.143 47.9685C112.357 47.9685 112.109 47.5503 112.015 44.3948C111.973 42.9621 111.998 41.5995 112.07 41.3662C112.18 41.0161 112.499 40.9422 113.903 40.9422C116.068 40.9422 116.388 40.8152 116.388 39.9566V39.2651L114.216 39.195L112.045 39.125L112.013 37.862C111.995 37.1673 111.915 36.4313 111.835 36.2265C111.66 35.781 110.463 35.7264 110.307 36.157ZM78.6673 39.1616C77.6488 39.347 76.1651 40.509 75.535 41.615C75.0724 42.4272 74.9449 43.0142 74.9449 44.3294C74.9449 45.2522 75.0836 46.3125 75.2531 46.6851C75.7901 47.8668 77.1771 49.1339 78.366 49.5296C79.9339 50.0512 80.8084 50.0006 82.3522 49.2987C83.0823 48.967 83.7114 48.6954 83.7504 48.6954C83.7891 48.6954 83.8792 48.9135 83.9506 49.18C84.1025 49.7474 85.1515 49.8472 85.5865 49.3358C85.7781 49.1104 85.8461 47.4895 85.8029 44.1871L85.7399 39.3673L84.8093 39.2922C84.0102 39.2275 83.8787 39.2873 83.8787 39.7162C83.8787 40.3365 83.7596 40.3379 82.8838 39.7293C82.175 39.2365 79.9225 38.9331 78.6673 39.1616ZM93.2445 39.3353C92.7313 39.5224 92.1395 39.8146 91.929 39.9851C91.6067 40.2463 91.524 40.2107 91.4027 39.7579C91.2823 39.3087 91.1118 39.2326 90.3607 39.2939L89.4623 39.3673L89.3963 46.3643C89.3258 53.8712 89.3626 54.113 90.5577 53.9775C91.1985 53.9046 91.1994 53.9005 91.2699 51.3C91.3086 49.8676 91.389 48.6954 91.4483 48.6954C91.5077 48.6954 92.0345 48.9408 92.6187 49.2405C94.9958 50.4605 98.2056 49.6253 99.5995 47.4244C100.203 46.4719 100.315 46.0297 100.339 44.521C100.362 43.0028 100.27 42.5825 99.7109 41.6601C98.6175 39.8565 97.7172 39.2975 95.6157 39.1185C94.697 39.04 93.8404 39.1185 93.2445 39.3353ZM122.344 39.2006C121.072 39.5427 120.061 40.2744 119.352 41.3664C118.716 42.3448 118.621 42.7191 118.621 44.2492C118.621 46.366 118.896 47.0592 120.24 48.3417C121.276 49.3302 122.672 49.9112 123.986 49.9015C124.788 49.8955 126.825 49.0644 127.1 48.6307C127.213 48.4512 127.372 48.5876 127.535 49.0065C127.715 49.4702 127.967 49.6646 128.387 49.6646C129.477 49.6646 129.548 49.3086 129.48 44.1859L129.416 39.3673L128.486 39.2922C127.687 39.2275 127.555 39.2873 127.555 39.7162C127.555 40.3314 127.537 40.3314 126.466 39.7145C125.549 39.1863 123.395 38.9176 122.344 39.2006ZM103.483 44.3296V49.4131L104.125 49.5703C105.271 49.8511 105.351 49.4758 105.273 44.1525L105.201 39.2462H104.342H103.483V44.3296ZM82.1482 41.245C83.2851 41.9966 83.839 43.0259 83.8606 44.4268C83.8946 46.6432 82.5614 47.9685 80.2977 47.9685C79.1259 47.9685 78.809 47.8624 78.059 47.2196C77.0465 46.3517 76.5795 44.9971 76.8329 43.6643C77.0666 42.4349 77.5803 41.7303 78.6425 41.1823C79.8577 40.5552 81.1395 40.578 82.1482 41.245ZM96.5069 41.1704C97.908 41.8684 98.382 42.715 98.3897 44.5334C98.3959 46.0239 98.3681 46.0906 97.3511 47.0168C96.3821 47.8992 96.2004 47.9685 94.8561 47.9685C93.5423 47.9685 93.3344 47.8946 92.6428 47.1811C91.6345 46.141 91.3235 45.5093 91.3235 44.5009C91.3235 41.6177 93.9791 39.9115 96.5069 41.1704ZM125.825 41.245C126.955 41.9923 127.515 43.0268 127.537 44.4069C127.572 46.6752 126.284 47.9685 123.989 47.9685C122.801 47.9685 122.488 47.8646 121.736 47.2196C119.797 45.5583 120.093 42.3295 122.286 41.1988C123.533 40.556 124.808 40.5727 125.825 41.245Z" fill="white"/>
</svg>
