<svg width="178" height="38" viewBox="0 0 178 38" fill="none" xmlns="http://www.w3.org/2000/svg">
<path d="M19.6381 38C30.4838 38 39.2761 29.4934 39.2761 19C39.2761 8.5066 30.4838 0 19.6381 0C8.79228 0 0 8.5066 0 19C0 29.4934 8.79228 38 19.6381 38Z" fill="white"/>
<path fill-rule="evenodd" clip-rule="evenodd" d="M15.3199 15.9373C16.5465 15.9373 17.7066 16.2339 18.7192 16.754L18.9047 16.6217L28.6892 8.17627L31.1852 10.7679L29.797 11.9633L31.0045 13.1632L29.7684 14.2309L28.5513 13.04L27.7383 13.7472L28.9412 14.9472L26.5021 17.0551L25.2803 15.8734L23.3928 17.5023L24.6004 18.6932L22.2042 20.7828C22.4229 21.449 22.5417 22.1607 22.5417 22.8953C22.5417 26.7371 19.3088 29.8533 15.3199 29.8533C11.331 29.8533 8.09326 26.7371 8.09326 22.8953C8.09326 19.0535 11.331 15.9373 15.3199 15.9373ZM15.3199 18.6429C17.7541 18.6429 19.7319 20.5456 19.7319 22.8953C19.7319 25.2405 17.7541 27.1431 15.3199 27.1431C12.8809 27.1431 10.9078 25.2405 10.9078 22.8953C10.9078 20.5456 12.8809 18.6429 15.3199 18.6429Z" fill="#FEFEFE"/>
<path d="M51.1846 25.4332V12.3877H55.5962V25.4332H51.1846Z" fill="white"/>
<path d="M68.5651 25.4332L62.796 19.1001V25.4332H58.7437V12.3877H62.5964L68.3654 18.8156V12.3877H72.4178V25.4332H68.5651Z" fill="white"/>
<path d="M81.9197 12.1602C83.9564 12.1602 85.566 12.6469 86.7509 13.6202C87.9351 14.5809 88.5271 15.9588 88.5271 17.7538H84.3155C84.3155 16.9954 84.1023 16.3949 83.6768 15.9525C83.2643 15.51 82.6722 15.2888 81.8999 15.2888C81.0083 15.2888 80.3498 15.5542 79.9235 16.0852C79.511 16.6161 79.3047 17.3556 79.3047 18.3037V19.5173C79.3047 20.4527 79.511 21.1921 79.9235 21.7358C80.3498 22.2666 80.9953 22.5321 81.8601 22.5321C82.7119 22.5321 83.3575 22.3236 83.7967 21.9064C84.2353 21.4892 84.4553 20.9014 84.4553 20.143H88.5271C88.5271 21.9253 87.9488 23.2906 86.7907 24.2387C85.6463 25.1867 84.0229 25.6608 81.9197 25.6608C79.5775 25.6608 77.8013 25.0919 76.5904 23.9542C75.3923 22.8166 74.7935 21.1353 74.7935 18.9105C74.7935 16.6857 75.3923 15.0044 76.5904 13.8667C77.8013 12.729 79.5775 12.1602 81.9197 12.1602Z" fill="white"/>
<path d="M103.944 16.3886C103.944 17.185 103.718 17.9055 103.266 18.5502C102.814 19.1949 102.155 19.669 101.29 19.9723L104.344 25.4332H99.3936L96.9581 20.6739H95.321V25.4332H90.9092V12.3877H99.3134C100.298 12.3877 101.137 12.571 101.829 12.9376C102.534 13.2915 103.06 13.7782 103.406 14.3976C103.765 15.0044 103.944 15.668 103.944 16.3886ZM99.4532 16.5593C99.4532 16.2179 99.3332 15.9335 99.0941 15.7059C98.8542 15.4784 98.5617 15.3647 98.2156 15.3647H95.321V17.7728H98.2156C98.5617 17.7728 98.8542 17.659 99.0941 17.4314C99.3332 17.1913 99.4532 16.9006 99.4532 16.5593Z" fill="white"/>
<path d="M114.112 25.4332H109.701V20.3705L104.251 12.3877H109.322L111.957 16.7299H112.036L114.672 12.3877H119.482L114.112 20.3705V25.4332Z" fill="white"/>
<path d="M128.831 12.3877C129.682 12.3877 130.441 12.5773 131.106 12.9566C131.772 13.3231 132.291 13.8351 132.663 14.4924C133.036 15.1371 133.223 15.864 133.223 16.673V16.9195C133.223 17.7285 133.036 18.4617 132.663 19.119C132.291 19.7763 131.772 20.2947 131.106 20.6739C130.441 21.0404 129.682 21.2238 128.831 21.2238H125.537V25.4332H121.125V12.3877H128.831ZM125.537 18.171H127.354C127.819 18.171 128.165 18.0572 128.392 17.8297C128.631 17.6021 128.751 17.2924 128.751 16.9006V16.7489C128.751 16.3443 128.631 16.0346 128.392 15.8197C128.165 15.5922 127.819 15.4784 127.354 15.4784H125.537V18.171Z" fill="white"/>
<path d="M143.437 15.7249V25.4332H139.026V15.7249H134.514V12.3877H147.929V15.7249H143.437Z" fill="white"/>
<path d="M149.938 12.3877H161.816V15.5163H154.35V17.3177H160.738V20.3136H154.35V22.3046H161.955V25.4332H149.938V12.3877Z" fill="white"/>
<path d="M170.293 12.3877C175.098 12.3877 177.499 14.562 177.499 18.9105C177.499 23.259 175.098 25.4332 170.293 25.4332H164.344V12.3877H170.293ZM168.756 22.3046H170.214C172.063 22.3046 172.988 21.3628 172.988 19.4793V18.3416C172.988 16.4581 172.063 15.5163 170.214 15.5163H168.756V22.3046Z" fill="white"/>
</svg>
