<svg width="170" height="26" viewBox="0 0 170 26" fill="none" xmlns="http://www.w3.org/2000/svg">
<g clip-path="url(#clip0_6004_9111)">
<path d="M84.8385 22.8876H84.7666V25.5551H80.8613V0H84.9913V9.70272H85.0656C85.9442 8.22173 87.9542 6.81383 90.9889 6.81383C96.4756 6.81383 99.9499 11.1128 99.9499 16.2952C99.9432 21.0648 97.0166 26.0086 90.9827 26.0086C88.0223 26.0086 85.8275 24.6286 84.8385 22.8876ZM95.7008 16.4392C95.7008 13.1806 93.4704 10.7366 90.3247 10.7366C87.2156 10.7366 84.9851 13.1806 84.9851 16.4392C84.9851 19.7365 87.2537 22.1439 90.3247 22.1439C93.4342 22.1395 95.7008 19.7407 95.7008 16.4435V16.4392Z" fill="white"/>
<path d="M101.257 16.4071C101.257 11.9254 104.256 6.81396 110.727 6.81396C117.198 6.81396 120.235 11.9254 120.235 16.4071C120.235 20.8887 117.2 26.0088 110.727 26.0088C104.254 26.0088 101.257 20.8887 101.257 16.4071ZM110.727 22.1096C113.726 22.1096 115.995 19.7044 115.995 16.4071C115.995 13.0732 113.726 10.7024 110.727 10.7024C107.803 10.7024 105.462 13.0668 105.462 16.4071C105.462 19.7044 107.803 22.1096 110.727 22.1096Z" fill="white"/>
<path d="M121.549 16.4071C121.549 11.9254 124.547 6.81396 131.021 6.81396C137.494 6.81396 140.529 11.9254 140.529 16.4071C140.529 20.8887 137.494 26.0088 131.021 26.0088C124.547 26.0088 121.549 20.8887 121.549 16.4071ZM131.021 22.1096C134.02 22.1096 136.286 19.7044 136.286 16.4071C136.286 13.0732 134.02 10.7024 131.021 10.7024C128.096 10.7024 125.755 13.0668 125.755 16.4071C125.755 19.7044 128.096 22.1096 131.021 22.1096Z" fill="white"/>
<path d="M143.895 19.3687V10.8503H141.403V7.25853H143.895V2.29541H148.027V7.25853H154.061V10.8503H148.023V19.2332C148.023 21.344 149.048 22.1586 150.472 22.1586C150.969 22.1743 151.462 22.0786 151.917 21.8783C152.373 21.678 152.779 21.3781 153.106 21.0001L154.46 24.2888C153.692 25.1787 151.935 25.9933 149.704 25.9933C145.754 26.0084 143.895 23.6654 143.895 19.3687Z" fill="white"/>
<path d="M161.222 17.8515C158.298 17.1852 155.628 15.7773 155.628 12.4434C155.628 8.81515 158.773 6.81396 162.905 6.81396C166.014 6.81396 168.574 7.96182 170 9.70285L167.402 12.2973C166.824 11.6934 166.131 11.2147 165.365 10.8899C164.599 10.5652 163.776 10.4012 162.945 10.4079C161.337 10.4079 159.838 10.9259 159.838 12.2973C159.838 13.8148 161.748 14.2211 164.408 14.8143C167.256 15.4441 170 16.852 170 20.2224C170 24.0355 166.604 26.0002 162.359 26.0002C158.921 26.0002 156.251 24.7406 154.861 23.0747L157.457 20.4803C158.48 21.555 160.199 22.3697 162.393 22.3697C164.304 22.3697 165.789 21.8151 165.789 20.4072C165.793 18.851 163.892 18.4448 161.222 17.8515Z" fill="white"/>
<path d="M0 7.25895H3.91361V9.48147H3.98577C4.93657 7.92527 6.80214 6.81396 9.39776 6.81396C12.2863 6.81396 14.2197 7.92527 15.3212 9.88774C16.5649 7.92527 18.8337 6.81396 22.0512 6.81396C26.8774 6.81396 29.4009 9.92641 29.4009 14.8143V25.5616H25.2326V15.5559C25.2326 12.5917 23.9592 10.5175 21.1004 10.5175C18.3201 10.5175 16.7496 12.5552 16.7496 15.5559V25.5552H12.6152V15.5559C12.6152 12.5917 11.2994 10.5175 8.44695 10.5175C5.70486 10.5175 4.13221 12.5552 4.13221 15.5559V25.5552H0V7.25895Z" fill="white"/>
<path d="M61.5015 7.25895H65.4153V9.48147H65.4872C66.44 7.92527 68.3038 6.81396 70.9015 6.81396C75.7638 6.81396 78.251 9.92641 78.251 14.8143V25.5616H74.1191V15.5559C74.1191 12.5917 72.8029 10.5175 69.9505 10.5175C67.2062 10.5175 65.6338 12.5552 65.6338 15.5559V25.5552H61.5015V7.25895Z" fill="white"/>
<path d="M49.7183 26C54.9635 26 59.2159 21.6935 59.2159 16.3811C59.2159 11.0687 54.9635 6.76221 49.7183 6.76221C44.4729 6.76221 40.2207 11.0687 40.2207 16.3811C40.2207 21.6935 44.4729 26 49.7183 26Z" fill="white"/>
<path d="M40.4603 25.7442C45.5661 25.7442 49.7051 21.5523 49.7051 16.3811C49.7051 11.21 45.5661 7.01807 40.4603 7.01807C35.3544 7.01807 31.2153 11.21 31.2153 16.3811C31.2153 21.5523 35.3544 25.7442 40.4603 25.7442Z" fill="white"/>
</g>
<defs>
<clipPath id="clip0_6004_9111">
<rect width="170" height="26" fill="white"/>
</clipPath>
</defs>
</svg>
