<svg width="168" height="34" viewBox="0 0 168 34" fill="none" xmlns="http://www.w3.org/2000/svg">
<path d="M47.6801 11.8436C48.8248 11.8436 49.8291 12.0509 50.6929 12.4655C51.5671 12.8801 52.2384 13.4731 52.7067 14.2445C53.1854 15.0062 53.4248 15.8933 53.4248 16.9058C53.4248 17.9182 53.1854 18.8053 52.7067 19.567C52.2384 20.3191 51.5671 20.9025 50.6929 21.3171C49.8291 21.7317 48.8248 21.939 47.6801 21.939H43.8711V11.8436H47.6801ZM47.602 20.2179C48.7468 20.2179 49.6314 19.9286 50.2558 19.3501C50.8802 18.7715 51.1924 17.9568 51.1924 16.9058C51.1924 15.8547 50.8802 15.0352 50.2558 14.447C49.6314 13.8492 48.7468 13.5502 47.602 13.5502H46.0566V20.2179H47.602Z" fill="white"/>
<path d="M58.9009 22.0692C58.0683 22.0692 57.319 21.9004 56.653 21.563C55.9869 21.2158 55.4614 20.7289 55.0763 20.1022C54.7016 19.4754 54.5143 18.7522 54.5143 17.9327C54.5143 17.1131 54.7069 16.3899 55.0919 15.7631C55.4874 15.1364 56.0233 14.6543 56.6998 14.3168C57.3763 13.9697 58.1308 13.7961 58.9633 13.7961C59.7959 13.7961 60.5504 13.9697 61.2269 14.3168C61.9033 14.6543 62.4341 15.1364 62.8191 15.7631C63.2146 16.3899 63.4123 17.1131 63.4123 17.9327C63.4123 18.7522 63.2094 19.4754 62.8035 20.1022C62.4081 20.7289 61.8669 21.2158 61.18 21.563C60.5036 21.9004 59.7439 22.0692 58.9009 22.0692ZM58.9009 20.3046C59.2964 20.3046 59.6658 20.2179 60.0092 20.0443C60.3631 19.8611 60.6441 19.5911 60.8522 19.2344C61.0603 18.8776 61.1644 18.4437 61.1644 17.9327C61.1644 17.1709 60.9459 16.5876 60.5088 16.1826C60.0821 15.768 59.5565 15.5607 58.9321 15.5607C58.3077 15.5607 57.7821 15.768 57.3554 16.1826C56.9392 16.5876 56.731 17.1709 56.731 17.9327C56.731 18.6944 56.934 19.2826 57.3398 19.6972C57.7561 20.1022 58.2765 20.3046 58.9009 20.3046Z" fill="white"/>
<path d="M73.1798 13.9263V21.939H70.9787V20.9266C70.6977 21.2737 70.3283 21.5485 69.8703 21.751C69.4228 21.9438 68.9337 22.0402 68.403 22.0402C67.7265 22.0402 67.1281 21.9101 66.6077 21.6497C66.0874 21.3798 65.6763 20.9892 65.3745 20.4782C65.0831 19.9575 64.9374 19.3404 64.9374 18.6269V13.9263H67.1229V18.3376C67.1229 18.974 67.2946 19.4658 67.638 19.8129C67.9815 20.1504 68.4498 20.3191 69.043 20.3191C69.6466 20.3191 70.1201 20.1504 70.4635 19.8129C70.807 19.4658 70.9787 18.974 70.9787 18.3376V13.9263H73.1798Z" fill="white"/>
<path d="M77.5216 15.0978C77.8026 14.7121 78.1876 14.3988 78.6768 14.1577C79.1763 13.9167 79.7435 13.7961 80.3783 13.7961C81.1172 13.7961 81.7833 13.9649 82.3765 14.3023C82.9801 14.6398 83.4536 15.1219 83.797 15.7487C84.1509 16.3658 84.3278 17.0841 84.3278 17.9037C84.3278 18.7233 84.1509 19.4513 83.797 20.0877C83.4536 20.7144 82.9801 21.2014 82.3765 21.5485C81.7833 21.8956 81.1172 22.0692 80.3783 22.0692C79.7331 22.0692 79.1659 21.9535 78.6768 21.7221C78.198 21.481 77.813 21.1724 77.5216 20.7964V21.939H75.3361V11.2361H77.5216V15.0978ZM82.0955 17.9037C82.0955 17.4216 81.9862 17.007 81.7677 16.6599C81.5595 16.3031 81.2785 16.0331 80.9247 15.8499C80.5813 15.6667 80.2066 15.5751 79.8007 15.5751C79.4053 15.5751 79.0306 15.6715 78.6768 15.8644C78.3333 16.0476 78.0524 16.3176 77.8338 16.6743C77.6257 17.0311 77.5216 17.4505 77.5216 17.9327C77.5216 18.4148 77.6257 18.8342 77.8338 19.191C78.0524 19.5477 78.3333 19.8225 78.6768 20.0154C79.0306 20.1986 79.4053 20.2902 79.8007 20.2902C80.2066 20.2902 80.5813 20.1938 80.9247 20.0009C81.2785 19.8081 81.5595 19.5333 81.7677 19.1765C81.9862 18.8197 82.0955 18.3955 82.0955 17.9037Z" fill="white"/>
<path d="M88.1014 11.2361V21.939H85.9159V11.2361H88.1014Z" fill="white"/>
<path d="M98.3001 17.7591C98.3001 18.0484 98.2793 18.3087 98.2377 18.5401H91.9154C91.9674 19.1186 92.186 19.5718 92.571 19.8997C92.9561 20.2275 93.4296 20.3914 93.9916 20.3914C94.8033 20.3914 95.3809 20.0684 95.7243 19.4224H98.0815C97.8318 20.1938 97.3531 20.8301 96.6454 21.3315C95.9377 21.8233 95.0687 22.0692 94.0384 22.0692C93.2059 22.0692 92.4565 21.9004 91.7905 21.563C91.1348 21.2158 90.6197 20.7289 90.245 20.1022C89.8808 19.4754 89.6987 18.7522 89.6987 17.9327C89.6987 17.1034 89.8808 16.3754 90.245 15.7487C90.6093 15.1219 91.1192 14.6398 91.7749 14.3023C92.4305 13.9649 93.185 13.7961 94.0384 13.7961C94.8606 13.7961 95.5943 13.96 96.2395 14.2879C96.8951 14.6157 97.3999 15.0834 97.7537 15.6908C98.118 16.2886 98.3001 16.9781 98.3001 17.7591ZM96.0366 17.1806C96.0262 16.6599 95.8232 16.2453 95.4278 15.9367C95.0323 15.6185 94.5484 15.4594 93.976 15.4594C93.4348 15.4594 92.9769 15.6137 92.6022 15.9222C92.238 16.2212 92.0142 16.6406 91.931 17.1806H96.0366Z" fill="white"/>
<path d="M102.44 15.5896V19.4658C102.44 19.7358 102.507 19.9334 102.643 20.0588C102.788 20.1745 103.028 20.2323 103.361 20.2323H104.376V21.939H103.002C101.16 21.939 100.239 21.1098 100.239 19.4513V15.5896H99.2084V13.9263H100.239V11.9448H102.44V13.9263H104.376V15.5896H102.44Z" fill="white"/>
<path d="M109.788 22.0692C108.955 22.0692 108.206 21.9004 107.54 21.563C106.874 21.2158 106.348 20.7289 105.963 20.1022C105.588 19.4754 105.401 18.7522 105.401 17.9327C105.401 17.1131 105.594 16.3899 105.979 15.7631C106.374 15.1364 106.91 14.6543 107.587 14.3168C108.263 13.9697 109.018 13.7961 109.85 13.7961C110.683 13.7961 111.437 13.9697 112.114 14.3168C112.79 14.6543 113.321 15.1364 113.706 15.7631C114.101 16.3899 114.299 17.1131 114.299 17.9327C114.299 18.7522 114.096 19.4754 113.69 20.1022C113.295 20.7289 112.754 21.2158 112.067 21.563C111.39 21.9004 110.631 22.0692 109.788 22.0692ZM109.788 20.3046C110.183 20.3046 110.553 20.2179 110.896 20.0443C111.25 19.8611 111.531 19.5911 111.739 19.2344C111.947 18.8776 112.051 18.4437 112.051 17.9327C112.051 17.1709 111.833 16.5876 111.396 16.1826C110.969 15.768 110.443 15.5607 109.819 15.5607C109.194 15.5607 108.669 15.768 108.242 16.1826C107.826 16.5876 107.618 17.1709 107.618 17.9327C107.618 18.6944 107.821 19.2826 108.227 19.6972C108.643 20.1022 109.163 20.3046 109.788 20.3046Z" fill="white"/>
<path d="M118.088 15.0834C118.369 14.717 118.754 14.4132 119.243 14.1722C119.742 13.9215 120.31 13.7961 120.944 13.7961C121.683 13.7961 122.349 13.9649 122.943 14.3023C123.546 14.6398 124.02 15.1219 124.363 15.7487C124.717 16.3658 124.894 17.0841 124.894 17.9037C124.894 18.7233 124.717 19.4513 124.363 20.0877C124.02 20.7144 123.546 21.2014 122.943 21.5485C122.349 21.8956 121.683 22.0692 120.944 22.0692C120.31 22.0692 119.748 21.9486 119.258 21.7076C118.78 21.4665 118.389 21.1628 118.088 20.7964V25.7573H115.902V13.9263H118.088V15.0834ZM122.662 17.9037C122.662 17.4216 122.552 17.007 122.334 16.6599C122.126 16.3031 121.845 16.0331 121.491 15.8499C121.147 15.6667 120.773 15.5751 120.367 15.5751C119.971 15.5751 119.597 15.6715 119.243 15.8644C118.899 16.0476 118.618 16.3176 118.4 16.6743C118.192 17.0311 118.088 17.4505 118.088 17.9327C118.088 18.4148 118.192 18.8342 118.4 19.191C118.618 19.5477 118.899 19.8225 119.243 20.0154C119.597 20.1986 119.971 20.2902 120.367 20.2902C120.773 20.2902 121.147 20.1938 121.491 20.0009C121.845 19.8081 122.126 19.5333 122.334 19.1765C122.552 18.8197 122.662 18.3955 122.662 17.9037Z" fill="white"/>
<path d="M132.336 8.24219L128.121 24.5569H125.982L130.197 8.24219H132.336Z" fill="white"/>
<path d="M136.618 15.5896V19.4658C136.618 19.7358 136.686 19.9334 136.821 20.0588C136.967 20.1745 137.206 20.2323 137.539 20.2323H138.554V21.939H137.18C135.338 21.939 134.417 21.1098 134.417 19.4513V15.5896H133.387V13.9263H134.417V11.9448H136.618V13.9263H138.554V15.5896H136.618Z" fill="white"/>
<path d="M143.966 22.0692C143.134 22.0692 142.384 21.9004 141.718 21.563C141.052 21.2158 140.527 20.7289 140.142 20.1022C139.767 19.4754 139.58 18.7522 139.58 17.9327C139.58 17.1131 139.772 16.3899 140.157 15.7631C140.553 15.1364 141.089 14.6543 141.765 14.3168C142.442 13.9697 143.196 13.7961 144.029 13.7961C144.861 13.7961 145.616 13.9697 146.292 14.3168C146.969 14.6543 147.499 15.1364 147.884 15.7631C148.28 16.3899 148.478 17.1131 148.478 17.9327C148.478 18.7522 148.275 19.4754 147.869 20.1022C147.473 20.7289 146.932 21.2158 146.245 21.563C145.569 21.9004 144.809 22.0692 143.966 22.0692ZM143.966 20.3046C144.362 20.3046 144.731 20.2179 145.075 20.0443C145.428 19.8611 145.709 19.5911 145.918 19.2344C146.126 18.8776 146.23 18.4437 146.23 17.9327C146.23 17.1709 146.011 16.5876 145.574 16.1826C145.147 15.768 144.622 15.5607 143.997 15.5607C143.373 15.5607 142.847 15.768 142.421 16.1826C142.004 16.5876 141.796 17.1709 141.796 17.9327C141.796 18.6944 141.999 19.2826 142.405 19.6972C142.821 20.1022 143.342 20.3046 143.966 20.3046Z" fill="white"/>
<path d="M152.266 15.0834C152.547 14.717 152.932 14.4132 153.421 14.1722C153.921 13.9215 154.488 13.7961 155.123 13.7961C155.862 13.7961 156.528 13.9649 157.121 14.3023C157.725 14.6398 158.198 15.1219 158.542 15.7487C158.896 16.3658 159.072 17.0841 159.072 17.9037C159.072 18.7233 158.896 19.4513 158.542 20.0877C158.198 20.7144 157.725 21.2014 157.121 21.5485C156.528 21.8956 155.862 22.0692 155.123 22.0692C154.488 22.0692 153.926 21.9486 153.437 21.7076C152.958 21.4665 152.568 21.1628 152.266 20.7964V25.7573H150.081V13.9263H152.266V15.0834ZM156.84 17.9037C156.84 17.4216 156.731 17.007 156.512 16.6599C156.304 16.3031 156.023 16.0331 155.669 15.8499C155.326 15.6667 154.951 15.5751 154.545 15.5751C154.15 15.5751 153.775 15.6715 153.421 15.8644C153.078 16.0476 152.797 16.3176 152.578 16.6743C152.37 17.0311 152.266 17.4505 152.266 17.9327C152.266 18.4148 152.37 18.8342 152.578 19.191C152.797 19.5477 153.078 19.8225 153.421 20.0154C153.775 20.1986 154.15 20.2902 154.545 20.2902C154.951 20.2902 155.326 20.1938 155.669 20.0009C156.023 19.8081 156.304 19.5333 156.512 19.1765C156.731 18.8197 156.84 18.3955 156.84 17.9037Z" fill="white"/>
<path d="M161.098 19.6538C162.097 18.8824 162.893 18.2412 163.486 17.7302C164.079 17.2095 164.574 16.6695 164.969 16.1103C165.365 15.551 165.562 15.0014 165.562 14.4614C165.562 13.9697 165.437 13.584 165.188 13.3044C164.938 13.0247 164.553 12.8849 164.032 12.8849C163.512 12.8849 163.111 13.0489 162.83 13.3767C162.549 13.6949 162.404 14.1336 162.393 14.6929H160.27C160.312 13.5358 160.681 12.6583 161.379 12.0605C162.086 11.4627 162.981 11.1638 164.064 11.1638C165.25 11.1638 166.161 11.4579 166.796 12.0461C167.43 12.6246 167.748 13.3911 167.748 14.3457C167.748 15.0978 167.529 15.8162 167.092 16.5008C166.655 17.1854 166.156 17.7832 165.594 18.2942C165.032 18.7956 164.298 19.4031 163.392 20.1166H167.998V21.7944H160.286V20.2902L161.098 19.6538Z" fill="white"/>
<g clip-path="url(#clip0_6004_9082)">
<path fill-rule="evenodd" clip-rule="evenodd" d="M35.3079 0H30.6802H4.63202H0V4.45674V16.722L4.63202 11.1456V4.45674H30.6802V20.305L23.6527 9.18223L15.7682 21.1419L8.98107 13.5494L0 24.4262V29.5437V30.9019V34H30.6802H35.3079H35.3118V0H35.3079ZM23.6527 17.1925V17.3305L30.6802 29.5403V29.5436H1.18298L8.98104 20.5854L15.7682 28.7336L23.6527 17.1925Z" fill="white"/>
</g>
<defs>
<clipPath id="clip0_6004_9082">
<rect width="35.3118" height="34" fill="white"/>
</clipPath>
</defs>
</svg>
