<svg width="179" height="36" viewBox="0 0 179 36" fill="none" xmlns="http://www.w3.org/2000/svg">
<path d="M48.2173 23.996H54.0097V26.7747H44.6914V9.3014H48.2173V23.996Z" fill="white"/>
<path d="M69.2209 19.5401C69.2209 20.0407 69.1873 20.4913 69.1202 20.8919H58.9204C59.0043 21.8932 59.3569 22.6776 59.9781 23.245C60.5993 23.8124 61.3633 24.0961 62.2699 24.0961C63.5795 24.0961 64.5114 23.537 65.0654 22.4189H68.8683C68.4654 23.754 67.693 24.8555 66.5513 25.7233C65.4096 26.5744 64.0077 27 62.3455 27C61.0023 27 59.7934 26.7079 58.7189 26.1238C57.6611 25.523 56.83 24.6802 56.2256 23.5955C55.638 22.5107 55.3441 21.259 55.3441 19.8405C55.3441 18.4052 55.638 17.1452 56.2256 16.0604C56.8132 14.9756 57.6359 14.1412 58.6937 13.5571C59.7515 12.973 60.9687 12.6809 62.3455 12.6809C63.6719 12.6809 64.8556 12.9646 65.8965 13.532C66.9543 14.0995 67.7686 14.9089 68.3394 15.9603C68.9271 16.995 69.2209 18.1883 69.2209 19.5401ZM65.5691 18.5387C65.5523 17.6375 65.2249 16.9199 64.5869 16.3858C63.9489 15.8351 63.1682 15.5597 62.2447 15.5597C61.3717 15.5597 60.6329 15.8268 60.0285 16.3608C59.4408 16.8782 59.0799 17.6041 58.9455 18.5387H65.5691Z" fill="white"/>
<path d="M89.1215 12.7059C90.8341 12.7059 92.2109 13.2316 93.2518 14.283C94.3096 15.3178 94.8385 16.7697 94.8385 18.6389V26.7747H91.3126V19.1145C91.3126 18.0297 91.0356 17.2036 90.4815 16.6362C89.9274 16.0521 89.1719 15.76 88.2149 15.76C87.2579 15.76 86.4939 16.0521 85.9231 16.6362C85.369 17.2036 85.092 18.0297 85.092 19.1145V26.7747H81.5661V19.1145C81.5661 18.0297 81.2891 17.2036 80.735 16.6362C80.181 16.0521 79.4254 15.76 78.4684 15.76C77.4946 15.76 76.7223 16.0521 76.1514 16.6362C75.5974 17.2036 75.3203 18.0297 75.3203 19.1145V26.7747H71.7945V12.9062H75.3203V14.5834C75.7736 13.9993 76.3529 13.5404 77.0581 13.2066C77.78 12.8728 78.5691 12.7059 79.4254 12.7059C80.5168 12.7059 81.4906 12.9396 82.3468 13.4069C83.2031 13.8575 83.8663 14.5083 84.3364 15.3595C84.7898 14.5584 85.4446 13.9159 86.3008 13.4319C87.1739 12.9479 88.1141 12.7059 89.1215 12.7059Z" fill="white"/>
<path d="M104.38 27C103.037 27 101.828 26.7079 100.753 26.1238C99.6786 25.523 98.8307 24.6802 98.2095 23.5955C97.605 22.5107 97.3028 21.259 97.3028 19.8405C97.3028 18.4219 97.6134 17.1702 98.2346 16.0854C98.8727 15.0007 99.7373 14.1662 100.829 13.5821C101.92 12.9813 103.137 12.6809 104.48 12.6809C105.824 12.6809 107.041 12.9813 108.132 13.5821C109.224 14.1662 110.08 15.0007 110.701 16.0854C111.339 17.1702 111.658 18.4219 111.658 19.8405C111.658 21.259 111.331 22.5107 110.676 23.5955C110.038 24.6802 109.165 25.523 108.057 26.1238C106.965 26.7079 105.74 27 104.38 27ZM104.38 23.9459C105.018 23.9459 105.614 23.7957 106.168 23.4953C106.739 23.1782 107.192 22.7109 107.528 22.0935C107.864 21.476 108.031 20.725 108.031 19.8405C108.031 18.522 107.679 17.5123 106.974 16.8114C106.285 16.0938 105.437 15.735 104.43 15.735C103.423 15.735 102.575 16.0938 101.886 16.8114C101.215 17.5123 100.879 18.522 100.879 19.8405C100.879 21.1589 101.206 22.1769 101.861 22.8945C102.533 23.5955 103.372 23.9459 104.38 23.9459Z" fill="white"/>
<path d="M121.976 12.7059C123.638 12.7059 124.982 13.2316 126.006 14.283C127.03 15.3178 127.542 16.7697 127.542 18.6389V26.7747H124.016V19.1145C124.016 18.013 123.739 17.1702 123.185 16.5861C122.631 15.9853 121.875 15.6849 120.918 15.6849C119.945 15.6849 119.172 15.9853 118.601 16.5861C118.047 17.1702 117.77 18.013 117.77 19.1145V26.7747H114.244V12.9062H117.77V14.6335C118.24 14.0327 118.836 13.5654 119.558 13.2316C120.297 12.8812 121.103 12.7059 121.976 12.7059Z" fill="white"/>
<path d="M129.988 19.7904C129.988 18.3885 130.265 17.1452 130.819 16.0604C131.39 14.9756 132.154 14.1412 133.111 13.5571C134.085 12.973 135.168 12.6809 136.36 12.6809C137.401 12.6809 138.308 12.8895 139.08 13.3067C139.869 13.724 140.499 14.2497 140.969 14.8838V12.9062H144.52V26.7747H140.969V24.747C140.515 25.3979 139.886 25.9403 139.08 26.3742C138.291 26.7914 137.376 27 136.335 27C135.159 27 134.085 26.6996 133.111 26.0988C132.154 25.498 131.39 24.6552 130.819 23.5704C130.265 22.469 129.988 21.2089 129.988 19.7904ZM140.969 19.8405C140.969 18.9893 140.801 18.2634 140.465 17.6625C140.129 17.0451 139.676 16.5778 139.105 16.2607C138.534 15.9269 137.921 15.76 137.267 15.76C136.612 15.76 136.007 15.9186 135.453 16.2356C134.899 16.5527 134.446 17.02 134.093 17.6375C133.758 18.2383 133.59 18.9559 133.59 19.7904C133.59 20.6248 133.758 21.3591 134.093 21.9933C134.446 22.6108 134.899 23.0864 135.453 23.4202C136.024 23.754 136.629 23.9209 137.267 23.9209C137.921 23.9209 138.534 23.7623 139.105 23.4453C139.676 23.1115 140.129 22.6442 140.465 22.0434C140.801 21.4259 140.969 20.6916 140.969 19.8405Z" fill="white"/>
<path d="M147.057 19.7904C147.057 18.3885 147.334 17.1452 147.888 16.0604C148.459 14.9756 149.231 14.1412 150.205 13.5571C151.179 12.973 152.262 12.6809 153.454 12.6809C154.36 12.6809 155.225 12.8812 156.048 13.2817C156.87 13.6656 157.525 14.1829 158.012 14.8338V8.25H161.588V26.7747H158.012V24.722C157.576 25.4062 156.963 25.9569 156.174 26.3742C155.384 26.7914 154.469 27 153.428 27C152.253 27 151.179 26.6996 150.205 26.0988C149.231 25.498 148.459 24.6552 147.888 23.5704C147.334 22.469 147.057 21.2089 147.057 19.7904ZM158.037 19.8405C158.037 18.9893 157.869 18.2634 157.534 17.6625C157.198 17.0451 156.744 16.5778 156.174 16.2607C155.603 15.9269 154.99 15.76 154.335 15.76C153.68 15.76 153.076 15.9186 152.522 16.2356C151.968 16.5527 151.514 17.02 151.162 17.6375C150.826 18.2383 150.658 18.9559 150.658 19.7904C150.658 20.6248 150.826 21.3591 151.162 21.9933C151.514 22.6108 151.968 23.0864 152.522 23.4202C153.093 23.754 153.697 23.9209 154.335 23.9209C154.99 23.9209 155.603 23.7623 156.174 23.4453C156.744 23.1115 157.198 22.6442 157.534 22.0434C157.869 21.4259 158.037 20.6916 158.037 19.8405Z" fill="white"/>
<path d="M178.002 19.5401C178.002 20.0407 177.968 20.4913 177.901 20.8919H167.702C167.785 21.8932 168.138 22.6776 168.759 23.245C169.38 23.8124 170.144 24.0961 171.051 24.0961C172.361 24.0961 173.293 23.537 173.847 22.4189H177.649C177.247 23.754 176.474 24.8555 175.332 25.7233C174.191 26.5744 172.789 27 171.127 27C169.783 27 168.575 26.7079 167.5 26.1238C166.442 25.523 165.611 24.6802 165.007 23.5955C164.419 22.5107 164.125 21.259 164.125 19.8405C164.125 18.4052 164.419 17.1452 165.007 16.0604C165.594 14.9756 166.417 14.1412 167.475 13.5571C168.533 12.973 169.75 12.6809 171.127 12.6809C172.453 12.6809 173.637 12.9646 174.678 13.532C175.735 14.0995 176.55 14.9089 177.121 15.9603C177.708 16.995 178.002 18.1883 178.002 19.5401ZM174.35 18.5387C174.333 17.6375 174.006 16.9199 173.368 16.3858C172.73 15.8351 171.949 15.5597 171.026 15.5597C170.153 15.5597 169.414 15.8268 168.81 16.3608C168.222 16.8782 167.861 17.6041 167.727 18.5387H174.35Z" fill="white"/>
<g clip-path="url(#clip0_6004_9124)">
<path d="M21.2085 0H15.1489C6.78241 0 0 6.71573 0 15V21C0 29.2843 6.78241 36 15.1489 36H21.2085C29.575 36 36.3574 29.2843 36.3574 21V15C36.3574 6.71573 29.575 0 21.2085 0Z" fill="white"/>
<path d="M18.7793 8.68953V13.704C18.7791 13.9394 18.8495 14.1695 18.9815 14.3653C19.1135 14.5611 19.3012 14.7136 19.5208 14.8037C19.7404 14.8938 19.9821 14.9174 20.2152 14.8714C20.4483 14.8255 20.6625 14.712 20.8305 14.5455L24.3973 10.995C24.5204 10.8718 24.6148 10.7235 24.6739 10.5603C24.733 10.3972 24.7554 10.2233 24.7396 10.0507C24.7237 9.87806 24.6699 9.71098 24.582 9.56111C24.4941 9.41125 24.3742 9.28221 24.2306 9.18303C23.0177 8.3599 21.6465 7.79311 20.2025 7.51803C20.0288 7.4857 19.85 7.49172 19.6789 7.53568C19.5078 7.57964 19.3486 7.66045 19.2127 7.77234C19.0767 7.88424 18.9674 8.02445 18.8925 8.183C18.8176 8.34154 18.7789 8.5145 18.7793 8.68953Z" fill="white"/>
<path d="M14.6948 15.388L11.1098 11.8375C10.9854 11.7156 10.8356 11.6221 10.6708 11.5636C10.5061 11.505 10.3304 11.4828 10.1561 11.4986C9.98178 11.5143 9.81304 11.5675 9.66168 11.6546C9.51033 11.7416 9.38001 11.8603 9.27985 12.0025C8.44605 13.2093 7.87354 14.5739 7.59832 16.0105C7.56566 16.1825 7.57174 16.3595 7.61614 16.529C7.66053 16.6984 7.74215 16.856 7.85515 16.9906C7.96815 17.1252 8.10976 17.2335 8.26988 17.3076C8.43 17.3818 8.60467 17.4201 8.78145 17.4197H13.845C14.0827 17.4199 14.3151 17.3502 14.5128 17.2195C14.7105 17.0888 14.8646 16.903 14.9556 16.6855C15.0466 16.4681 15.0704 16.2288 15.024 15.9979C14.9775 15.7671 14.863 15.5551 14.6948 15.3887" fill="white"/>
<path d="M13.8448 18.5903H8.78047C8.6037 18.59 8.42902 18.6282 8.2689 18.7024C8.10879 18.7766 7.96718 18.8848 7.85417 19.0194C7.74117 19.154 7.65956 19.3117 7.61516 19.4811C7.57077 19.6505 7.56468 19.8276 7.59734 19.9996C7.87306 21.436 8.44554 22.8005 9.27887 24.0076C9.37903 24.1497 9.50935 24.2685 9.66071 24.3555C9.81206 24.4425 9.9808 24.4958 10.1551 24.5115C10.3294 24.5272 10.5051 24.505 10.6698 24.4465C10.8346 24.3879 10.9844 24.2945 11.1089 24.1726L14.6946 20.6221C14.863 20.4558 14.9778 20.2437 15.0244 20.0127C15.071 19.7817 15.0472 19.5423 14.9562 19.3247C14.8652 19.1071 14.711 18.9211 14.5131 18.7904C14.3152 18.6597 14.0826 18.59 13.8448 18.5903Z" fill="white"/>
<path d="M17.5798 13.704V8.68948C17.5797 8.51611 17.5414 8.34485 17.4674 8.1877C17.3935 8.03055 17.2858 7.89129 17.1518 7.77969C17.0178 7.6681 16.8608 7.58685 16.6917 7.54164C16.5227 7.49643 16.3457 7.48836 16.1732 7.51798C14.7227 7.79134 13.3449 8.35844 12.1262 9.18373C11.9826 9.28291 11.8627 9.41194 11.7748 9.56181C11.6869 9.71168 11.6331 9.87876 11.6173 10.0514C11.6014 10.224 11.6238 10.3979 11.6829 10.561C11.742 10.7242 11.8365 10.8725 11.9595 10.9957L15.5453 14.5462C15.7133 14.7127 15.9274 14.8262 16.1606 14.8721C16.3937 14.9181 16.6354 14.8945 16.855 14.8044C17.0746 14.7143 17.2623 14.5618 17.3943 14.366C17.5263 14.1702 17.5966 13.9401 17.5965 13.7047" fill="white"/>
<path d="M15.5453 21.4455L11.9595 24.996C11.8365 25.1192 11.742 25.2676 11.6829 25.4307C11.6238 25.5938 11.6014 25.7678 11.6173 25.9404C11.6331 26.1129 11.6869 26.28 11.7748 26.4299C11.8627 26.5798 11.9826 26.7088 12.1262 26.808C13.345 27.6336 14.7231 28.2005 16.174 28.473C16.3477 28.5053 16.5265 28.4993 16.6976 28.4553C16.8687 28.4114 17.0279 28.3306 17.1639 28.2187C17.2998 28.1068 17.4091 27.9666 17.484 27.808C17.5589 27.6495 17.5976 27.4765 17.5972 27.3015V22.287C17.5974 22.0516 17.527 21.8215 17.395 21.6257C17.263 21.43 17.0754 21.2774 16.8557 21.1873C16.6361 21.0972 16.3945 21.0736 16.1613 21.1196C15.9282 21.1655 15.7141 21.279 15.5461 21.4455" fill="white"/>
<path d="M22.5131 17.4007H27.5774C27.7542 17.401 27.9289 17.3628 28.089 17.2886C28.2491 17.2144 28.3907 17.1062 28.5037 16.9716C28.6167 16.837 28.6984 16.6793 28.7427 16.5099C28.7871 16.3405 28.7932 16.1635 28.7606 15.9914C28.4848 14.555 27.9123 13.1905 27.079 11.9834C26.9789 11.8413 26.8486 11.7226 26.6972 11.6355C26.5458 11.5485 26.3771 11.4952 26.2028 11.4795C26.0285 11.4638 25.8528 11.486 25.6881 11.5445C25.5233 11.6031 25.3735 11.6966 25.249 11.8184L21.6633 15.3869C21.4951 15.5533 21.3806 15.7653 21.3342 15.9962C21.2877 16.227 21.3115 16.4663 21.4025 16.6837C21.4935 16.9012 21.6476 17.087 21.8453 17.2177C22.043 17.3484 22.2754 17.4181 22.5131 17.4179" fill="white"/>
<path d="M21.6815 20.622L25.2672 24.1538C25.3917 24.2756 25.5415 24.3691 25.7062 24.4277C25.871 24.4862 26.0467 24.5084 26.221 24.4927C26.3953 24.477 26.564 24.4237 26.7154 24.3367C26.8667 24.2496 26.9971 24.1309 27.0972 23.9888C27.931 22.782 28.5035 21.4173 28.7788 19.9808C28.8113 19.8088 28.8051 19.6318 28.7606 19.4625C28.7162 19.2932 28.6346 19.1356 28.5216 19.0011C28.4086 18.8666 28.267 18.7584 28.107 18.6843C27.9469 18.6102 27.7723 18.5719 27.5956 18.5723H22.5131C22.2754 18.5721 22.043 18.6418 21.8453 18.7725C21.6476 18.9032 21.4935 19.089 21.4025 19.3065C21.3115 19.5239 21.2877 19.7632 21.3342 19.994C21.3806 20.2249 21.4951 20.4369 21.6633 20.6033" fill="white"/>
<path d="M18.7793 22.2872V27.3197C18.7789 27.4948 18.8176 27.6677 18.8925 27.8263C18.9674 27.9848 19.0767 28.125 19.2127 28.2369C19.3486 28.3488 19.5078 28.4296 19.6789 28.4736C19.85 28.5176 20.0288 28.5236 20.2025 28.4912C21.6532 28.2182 23.0313 27.6514 24.2503 26.8262C24.3939 26.7271 24.5138 26.598 24.6017 26.4482C24.6896 26.2983 24.7434 26.1312 24.7593 25.9586C24.7751 25.786 24.7527 25.6121 24.6936 25.4489C24.6345 25.2858 24.5401 25.1375 24.417 25.0142L20.8312 21.4457C20.6633 21.279 20.4491 21.1653 20.2158 21.1192C19.9825 21.0731 19.7407 21.0966 19.5209 21.1867C19.3012 21.2768 19.1134 21.4295 18.9813 21.6255C18.8493 21.8214 18.779 22.0517 18.7793 22.2872Z" fill="white"/>
</g>
<defs>
<clipPath id="clip0_6004_9124">
<rect width="36.3574" height="36" fill="white"/>
</clipPath>
</defs>
</svg>
